<svg width="165" height="380" viewBox="0 0 165 380" fill="none" xmlns="http://www.w3.org/2000/svg">
<rect width="165" height="380" fill="#457B9D"/>
<g opacity="0.5">
<path fill-rule="evenodd" clip-rule="evenodd" d="M76.958 375.599C76.803 375.747 76.659 375.851 76.526 375.909C76.393 375.968 76.251 375.998 76.1 375.998C75.948 375.998 75.806 375.97 75.673 375.914C75.54 375.858 75.424 375.781 75.325 375.682C75.109 375.466 75 375.209 75 374.912V369.385C75 369.082 75.078 368.847 75.232 368.68C75.498 368.408 75.75 368.272 75.988 368.272C76.226 368.272 76.404 368.296 76.522 368.346C76.639 368.395 76.738 368.457 76.818 368.531C76.924 368.624 77.002 368.723 77.055 368.828C77.108 368.933 77.151 369.011 77.185 369.06C77.219 369.11 77.275 369.134 77.352 369.134C77.429 369.134 77.496 369.11 77.551 369.06L77.709 368.902C78.16 368.482 78.612 368.272 79.063 368.272C79.861 368.272 80.519 368.599 81.039 369.255C81.088 369.323 81.15 369.357 81.224 369.357C81.354 369.357 81.486 369.256 81.619 369.055C81.752 368.854 81.966 368.674 82.263 368.513C82.56 368.352 82.906 368.272 83.302 368.272C83.698 368.272 84.058 368.344 84.383 368.49C84.707 368.635 84.99 368.834 85.231 369.088C85.738 369.62 85.992 370.263 85.992 371.017V374.912C85.992 375.382 85.769 375.713 85.324 375.905C85.188 375.967 85.044 375.998 84.893 375.998C84.741 375.998 84.599 375.97 84.466 375.914C84.333 375.858 84.217 375.781 84.118 375.682C83.908 375.46 83.803 375.203 83.803 374.912V371.045C83.803 370.736 83.726 370.504 83.571 370.349C83.299 370.077 83.049 369.941 82.82 369.941C82.591 369.941 82.412 369.971 82.282 370.029C82.152 370.088 82.034 370.17 81.929 370.275C81.713 370.492 81.605 370.742 81.605 371.026V374.912C81.605 375.382 81.385 375.713 80.946 375.905C80.81 375.967 80.666 375.998 80.515 375.998C80.363 375.998 80.22 375.97 80.083 375.914C79.947 375.858 79.83 375.781 79.731 375.682C79.515 375.466 79.406 375.209 79.406 374.912V371.045C79.406 370.736 79.329 370.504 79.174 370.349C78.902 370.077 78.618 369.941 78.321 369.941C77.826 369.941 77.483 370.133 77.292 370.516C77.23 370.64 77.199 370.779 77.199 370.934V374.912C77.199 375.215 77.118 375.444 76.958 375.599ZM88.219 369.387C88.219 369.084 88.296 368.849 88.451 368.682C88.716 368.41 89.01 368.274 89.332 368.274C89.641 368.274 89.87 368.355 90.018 368.515C90.29 368.794 90.426 369.084 90.426 369.387V374.915C90.426 375.212 90.349 375.437 90.194 375.592C89.922 375.864 89.672 376 89.443 376C89.214 376 89.032 375.971 88.896 375.912C88.76 375.853 88.642 375.777 88.543 375.685C88.327 375.474 88.219 375.218 88.219 374.915V369.387ZM89.327 365.9C89.065 365.9 88.852 365.687 88.852 365.425C88.852 365.162 89.065 364.95 89.327 364.95C89.589 364.95 89.802 365.162 89.802 365.425C89.802 365.687 89.589 365.9 89.327 365.9ZM89.327 364C89.714 364 90.048 364.142 90.329 364.425C90.611 364.709 90.752 364.996 90.752 365.287C90.752 365.577 90.713 365.807 90.635 365.978C90.558 366.148 90.456 366.297 90.329 366.424C90.048 366.708 89.714 366.849 89.327 366.849C88.94 366.849 88.606 366.708 88.324 366.424C88.043 366.141 87.902 365.857 87.902 365.574C87.902 365.092 88.043 364.709 88.324 364.425C88.606 364.142 88.94 364 89.327 364Z" fill="#1D3557"/>
</g>
<path d="M42.7923 21.2694V22.8654H37.5243V21.5334C37.9323 21.2054 38.3203 20.8894 38.6883 20.5854C39.0563 20.2734 39.4683 19.9094 39.9243 19.4934C40.1483 19.2934 40.3123 19.0774 40.4163 18.8454C40.5203 18.6134 40.5723 18.3934 40.5723 18.1854C40.5723 17.9694 40.5203 17.8014 40.4163 17.6814C40.3283 17.5934 39.8643 17.5494 39.0243 17.5494L38.2203 17.5614C38.1163 17.5694 37.9883 17.5734 37.8363 17.5734C37.8123 17.4614 37.7843 17.2414 37.7523 16.9134C37.7283 16.5854 37.7163 16.3414 37.7163 16.1814C38.6203 16.0214 39.3723 15.9414 39.9723 15.9414C40.7883 15.9414 41.4363 16.0974 41.9163 16.4094C42.4043 16.7134 42.6483 17.2414 42.6483 17.9934C42.6483 18.3534 42.5563 18.7254 42.3723 19.1094C42.1883 19.4854 41.8283 19.8814 41.2923 20.2974C40.9323 20.5774 40.4603 20.9094 39.8763 21.2934L42.7923 21.2694ZM43.5603 18.9174H47.1603V20.6334H43.5603V18.9174ZM53.5343 22.6374C53.2383 22.7654 52.8943 22.8574 52.5023 22.9134C52.1103 22.9694 51.7463 22.9974 51.4103 22.9974C50.3223 22.9974 49.4703 22.7134 48.8543 22.1454C48.2383 21.5774 47.9303 20.7054 47.9303 19.5294C47.9303 18.3294 48.2543 17.4334 48.9023 16.8414C49.5503 16.2414 50.4623 15.9414 51.6383 15.9414C52.1983 15.9414 52.7823 16.0174 53.3903 16.1694C53.3903 16.3294 53.3743 16.5694 53.3423 16.8894C53.3103 17.2014 53.2783 17.4214 53.2463 17.5494H52.4903C51.9383 17.5494 51.5023 17.5614 51.1823 17.5854C50.8703 17.6014 50.6823 17.6374 50.6183 17.6934C50.4983 17.8054 50.4063 18.0334 50.3423 18.3774C50.2783 18.7134 50.2463 19.0374 50.2463 19.3494C50.2463 19.8934 50.3143 20.3134 50.4503 20.6094C50.5863 20.8974 50.7583 21.0894 50.9663 21.1854C51.1663 21.2814 51.4983 21.3294 51.9623 21.3294C52.3303 21.3294 52.8103 21.2974 53.4023 21.2334L53.5343 22.6374ZM54.3347 16.0254H56.5067V18.5334H58.3667V16.0254H60.5387V22.8654H58.3667V19.9134H56.5067V22.8654H54.3347V16.0254ZM65.7123 21.3654H63.7203L63.3603 22.8654H61.1523L63.3603 16.0254H66.1803L68.2923 22.8654H66.0723L65.7123 21.3654ZM64.7043 17.5014L63.9963 20.0334H65.4243L64.7523 17.5014H64.7043ZM70.8931 20.1054V22.8654H68.8891V16.0254H70.9171L72.7291 18.7854C73.0011 19.1934 73.2091 19.5374 73.3531 19.8174H73.3891V18.6654V16.0254H75.3811V22.8654H73.3411L71.4811 19.9854L70.9411 19.1694H70.9051L70.8931 20.1054ZM78.5688 20.1054V22.8654H76.5648V16.0254H78.5928L80.4048 18.7854C80.6768 19.1934 80.8848 19.5374 81.0288 19.8174H81.0648V18.6654V16.0254H83.0568V22.8654H81.0168L79.1568 19.9854L78.6168 19.1694H78.5808L78.5688 20.1054ZM84.1806 16.0254H89.1606V17.4654H86.3406V18.7134H88.7166V20.0094H86.3406V21.4014H89.1486V22.8654H84.1806V16.0254ZM90.0526 16.0254H92.2126V21.2814H95.0086V22.8654H90.0526V16.0254ZM106.408 22.8654H104.392L104.236 19.0974C104.212 18.3534 104.184 17.7894 104.152 17.4054H104.116C104.02 17.7094 103.908 18.1814 103.78 18.8214L103.72 19.1214L102.892 22.8654H100.876L100.18 19.4934L100.06 18.8934C99.8923 18.1494 99.7763 17.6534 99.7123 17.4054H99.6763C99.6443 17.8054 99.6163 18.4574 99.5923 19.3614C99.5843 19.4174 99.5803 19.5054 99.5803 19.6254L99.4723 22.8654H97.4443L97.7323 16.0254H101.164L101.752 18.9774L101.896 19.7694C101.96 19.5214 102.02 19.2454 102.076 18.9414L102.628 16.0254H106.132L106.408 22.8654ZM107.479 16.0254H109.639V22.8654H107.479V16.0254ZM111.97 19.3614L110.362 16.0254H112.57L113.674 18.7134L114.814 16.0254H116.962L115.378 19.3614L117.07 22.8774H114.862L113.674 19.9734L112.45 22.8774H110.23L111.97 19.3614ZM117.591 16.0254H122.571V17.4654H119.751V18.7134H122.127V20.0094H119.751V21.4014H122.559V22.8654H117.591V16.0254ZM129.715 22.8654H127.447L127.039 21.1374C127.023 21.0734 126.995 20.9654 126.955 20.8134C126.923 20.6534 126.883 20.5374 126.835 20.4654C126.787 20.3854 126.719 20.3334 126.631 20.3094C126.407 20.3174 126.079 20.3214 125.647 20.3214V22.8654H123.487V16.0854C124.455 16.0134 125.359 15.9774 126.199 15.9774C126.959 15.9774 127.575 16.0414 128.047 16.1694C128.519 16.2894 128.871 16.5014 129.103 16.8054C129.343 17.1014 129.463 17.5094 129.463 18.0294C129.463 18.5174 129.351 18.9014 129.127 19.1814C128.903 19.4534 128.543 19.6174 128.047 19.6734V19.7454C128.327 19.7694 128.559 19.8614 128.743 20.0214C128.935 20.1734 129.063 20.3694 129.127 20.6094L129.715 22.8654ZM125.647 18.9654C125.719 18.9734 125.859 18.9774 126.067 18.9774C126.683 18.9774 127.043 18.9254 127.147 18.8214C127.243 18.7254 127.291 18.5014 127.291 18.1494C127.291 17.8214 127.203 17.5974 127.027 17.4774C126.859 17.3574 126.579 17.2974 126.187 17.2974C126.099 17.2974 125.919 17.3054 125.647 17.3214V18.9654Z" fill="#A8DADC"/>
<path d="M137.071 125.152C136.111 125.152 135.391 124.928 134.911 124.48C134.439 124.024 134.203 123.308 134.203 122.332C134.203 121.796 134.251 121.328 134.347 120.928C134.451 120.52 134.575 120.236 134.719 120.076C134.903 119.868 135.239 119.696 135.727 119.56C136.223 119.424 136.687 119.356 137.119 119.356C138.151 119.356 138.887 119.576 139.327 120.016C139.767 120.456 139.987 121.16 139.987 122.128C139.987 123.168 139.751 123.932 139.279 124.42C138.807 124.908 138.071 125.152 137.071 125.152ZM137.107 123.748C137.419 123.748 137.623 123.64 137.719 123.424C137.815 123.2 137.863 122.808 137.863 122.248C137.863 121.856 137.843 121.556 137.803 121.348C137.763 121.132 137.687 120.976 137.575 120.88C137.471 120.776 137.307 120.724 137.083 120.724C136.763 120.724 136.579 120.752 136.531 120.808C136.467 120.864 136.415 121.04 136.375 121.336C136.335 121.632 136.315 121.94 136.315 122.26C136.315 122.804 136.367 123.188 136.471 123.412C136.583 123.636 136.795 123.748 137.107 123.748ZM146.29 119.476V124.996H144.622L144.394 124.072C143.818 124.768 143.13 125.116 142.33 125.116C142.042 125.116 141.77 125.076 141.514 124.996C141.266 124.916 141.078 124.8 140.95 124.648C140.878 124.56 140.822 124.34 140.782 123.988C140.75 123.636 140.734 123.1 140.734 122.38V119.476H142.786V122.356C142.786 122.516 142.79 122.704 142.798 122.92C142.806 123.136 142.83 123.272 142.87 123.328C142.926 123.408 143.086 123.448 143.35 123.448L143.542 123.436C143.766 123.428 143.998 123.376 144.238 123.28V119.476H146.29ZM149.818 122.728C149.818 122.872 149.822 123.024 149.83 123.184C149.838 123.336 149.862 123.432 149.902 123.472C149.958 123.528 150.154 123.556 150.49 123.556L150.898 123.544C150.97 123.928 151.006 124.372 151.006 124.876C150.854 124.932 150.63 124.984 150.334 125.032C150.046 125.08 149.77 125.104 149.506 125.104C148.954 125.104 148.526 124.984 148.222 124.744C147.926 124.496 147.778 124.116 147.778 123.604V120.652H146.878V119.56L147.778 119.476L148.318 118.156L149.818 118.072V119.476H151.09V120.652H149.818V122.728Z" fill="#A8DADC"/>
<path d="M141.139 180.86C141.267 181.052 141.331 181.796 141.331 183.092V185.996H139.279V183.296V182.648C139.279 182.352 139.251 182.176 139.195 182.12C139.131 182.056 138.995 182.024 138.787 182.024L138.643 182.036C138.395 182.052 138.159 182.108 137.935 182.204C137.943 182.372 137.947 182.668 137.947 183.092V185.996H135.895V183.296V182.576C135.895 182.328 135.867 182.176 135.811 182.12C135.747 182.056 135.611 182.024 135.403 182.024L135.259 182.036C135.035 182.044 134.803 182.096 134.563 182.192V185.996H132.511V180.476H134.179L134.395 181.376C134.659 181.024 134.963 180.768 135.307 180.608C135.651 180.44 135.999 180.356 136.351 180.356C136.647 180.356 136.927 180.4 137.191 180.488C137.463 180.576 137.651 180.7 137.755 180.86C137.803 180.932 137.843 181.064 137.875 181.256C138.131 180.944 138.423 180.716 138.751 180.572C139.079 180.428 139.407 180.356 139.735 180.356C140.031 180.356 140.311 180.4 140.575 180.488C140.847 180.576 141.035 180.7 141.139 180.86ZM143.352 179.792C143.08 179.792 142.844 179.7 142.644 179.516C142.452 179.332 142.356 179.112 142.356 178.856C142.356 178.6 142.452 178.38 142.644 178.196C142.844 178.012 143.08 177.92 143.352 177.92C143.624 177.92 143.856 178.012 144.048 178.196C144.24 178.38 144.336 178.6 144.336 178.856C144.336 179.112 144.24 179.332 144.048 179.516C143.856 179.7 143.624 179.792 143.352 179.792ZM142.32 180.476H144.372V185.996H142.32V180.476ZM146.398 183.176L145.018 180.476H147.01L148.006 182.612L149.014 180.476H150.994L149.626 183.176L151.126 185.996H149.122L148.006 183.716L146.89 185.996H144.886L146.398 183.176ZM140.946 195.828C140.298 196.044 139.574 196.152 138.774 196.152C137.878 196.152 137.206 195.928 136.758 195.48C136.318 195.024 136.098 194.316 136.098 193.356C136.098 192.884 136.162 192.42 136.29 191.964C136.418 191.5 136.554 191.188 136.698 191.028C136.866 190.844 137.194 190.688 137.682 190.56C138.178 190.432 138.69 190.368 139.218 190.368C139.77 190.368 140.326 190.416 140.886 190.512C140.87 190.712 140.842 190.948 140.802 191.22C140.77 191.484 140.734 191.72 140.694 191.928C140.198 191.896 139.73 191.88 139.29 191.88C138.858 191.88 138.582 191.904 138.462 191.952C138.398 191.976 138.338 192.14 138.282 192.444C138.234 192.748 138.21 193.032 138.21 193.296C138.21 193.648 138.258 193.92 138.354 194.112C138.458 194.296 138.618 194.424 138.834 194.496C139.05 194.568 139.342 194.604 139.71 194.604C139.87 194.604 140.222 194.588 140.766 194.556L140.946 195.828ZM145.186 190.476H147.334L145.654 195.996H142.81L141.13 190.476H143.278L144.178 194.712H144.298L145.186 190.476Z" fill="#A8DADC"/>
<path d="M20.038 165.152C19.078 165.152 18.358 164.928 17.878 164.48C17.406 164.024 17.17 163.308 17.17 162.332C17.17 161.796 17.218 161.328 17.314 160.928C17.418 160.52 17.542 160.236 17.686 160.076C17.87 159.868 18.206 159.696 18.694 159.56C19.19 159.424 19.654 159.356 20.086 159.356C21.118 159.356 21.854 159.576 22.294 160.016C22.734 160.456 22.954 161.16 22.954 162.128C22.954 163.168 22.718 163.932 22.246 164.42C21.774 164.908 21.038 165.152 20.038 165.152ZM20.074 163.748C20.386 163.748 20.59 163.64 20.686 163.424C20.782 163.2 20.83 162.808 20.83 162.248C20.83 161.856 20.81 161.556 20.77 161.348C20.73 161.132 20.654 160.976 20.542 160.88C20.438 160.776 20.274 160.724 20.05 160.724C19.73 160.724 19.546 160.752 19.498 160.808C19.434 160.864 19.382 161.04 19.342 161.336C19.302 161.632 19.282 161.94 19.282 162.26C19.282 162.804 19.334 163.188 19.438 163.412C19.55 163.636 19.762 163.748 20.074 163.748Z" fill="#A8DADC"/>
<path d="M23.7969 318.86C23.9249 319.052 23.9889 319.796 23.9889 321.092V323.996H21.9369V321.296V320.648C21.9369 320.352 21.9089 320.176 21.8529 320.12C21.7889 320.056 21.6529 320.024 21.4449 320.024L21.3009 320.036C21.0529 320.052 20.8169 320.108 20.5929 320.204C20.6009 320.372 20.6049 320.668 20.6049 321.092V323.996H18.5529V321.296V320.576C18.5529 320.328 18.5249 320.176 18.4689 320.12C18.4049 320.056 18.2689 320.024 18.0609 320.024L17.9169 320.036C17.6929 320.044 17.4609 320.096 17.2209 320.192V323.996H15.1689V318.476H16.8369L17.0529 319.376C17.3169 319.024 17.6209 318.768 17.9649 318.608C18.3089 318.44 18.6569 318.356 19.0089 318.356C19.3049 318.356 19.5849 318.4 19.8489 318.488C20.1209 318.576 20.3089 318.7 20.4129 318.86C20.4609 318.932 20.5009 319.064 20.5329 319.256C20.7889 318.944 21.0809 318.716 21.4089 318.572C21.7369 318.428 22.0649 318.356 22.3929 318.356C22.6889 318.356 22.9689 318.4 23.2329 318.488C23.5049 318.576 23.6929 318.7 23.7969 318.86Z" fill="#A8DADC"/>
<path d="M42.9837 347.264C42.3357 347.48 41.6117 347.588 40.8117 347.588C39.9157 347.588 39.2437 347.364 38.7957 346.916C38.3557 346.46 38.1357 345.752 38.1357 344.792C38.1357 344.32 38.1997 343.856 38.3277 343.4C38.4557 342.936 38.5917 342.624 38.7357 342.464C38.9037 342.28 39.2317 342.124 39.7197 341.996C40.2157 341.868 40.7277 341.804 41.2557 341.804C41.8077 341.804 42.3637 341.852 42.9237 341.948C42.9077 342.148 42.8797 342.384 42.8397 342.656C42.8077 342.92 42.7717 343.156 42.7317 343.364C42.2357 343.332 41.7677 343.316 41.3277 343.316C40.8957 343.316 40.6197 343.34 40.4997 343.388C40.4357 343.412 40.3757 343.576 40.3197 343.88C40.2717 344.184 40.2477 344.468 40.2477 344.732C40.2477 345.084 40.2957 345.356 40.3917 345.548C40.4957 345.732 40.6557 345.86 40.8717 345.932C41.0877 346.004 41.3797 346.04 41.7477 346.04C41.9077 346.04 42.2597 346.024 42.8037 345.992L42.9837 347.264ZM49.0117 342.26C49.0837 342.348 49.1357 342.568 49.1677 342.92C49.2077 343.272 49.2277 343.808 49.2277 344.528V347.432H47.1757V344.552C47.1757 344.52 47.1757 344.364 47.1757 344.084C47.1757 343.796 47.1557 343.62 47.1157 343.556C47.0917 343.524 47.0317 343.5 46.9357 343.484C46.8477 343.468 46.7437 343.46 46.6237 343.46L46.4197 343.472C46.1957 343.48 45.9637 343.532 45.7237 343.628V347.432H43.6717V340.232L45.7237 340.148V341.552C45.7237 342.128 45.7037 342.512 45.6637 342.704L45.6757 342.716C46.2197 342.1 46.8717 341.792 47.6317 341.792C47.9197 341.792 48.1877 341.832 48.4357 341.912C48.6917 341.992 48.8837 342.108 49.0117 342.26ZM55.3163 340.592V347.432H53.2163V342.32L51.7283 342.632L51.5003 341.372L53.6243 340.592H55.3163Z" fill="#A8DADC"/>
<path d="M82.8157 347.264C82.1677 347.48 81.4437 347.588 80.6437 347.588C79.7477 347.588 79.0757 347.364 78.6277 346.916C78.1877 346.46 77.9677 345.752 77.9677 344.792C77.9677 344.32 78.0317 343.856 78.1597 343.4C78.2877 342.936 78.4237 342.624 78.5677 342.464C78.7357 342.28 79.0637 342.124 79.5517 341.996C80.0477 341.868 80.5597 341.804 81.0877 341.804C81.6397 341.804 82.1957 341.852 82.7557 341.948C82.7397 342.148 82.7117 342.384 82.6717 342.656C82.6397 342.92 82.6037 343.156 82.5637 343.364C82.0677 343.332 81.5997 343.316 81.1597 343.316C80.7277 343.316 80.4517 343.34 80.3317 343.388C80.2677 343.412 80.2077 343.576 80.1517 343.88C80.1037 344.184 80.0797 344.468 80.0797 344.732C80.0797 345.084 80.1277 345.356 80.2237 345.548C80.3277 345.732 80.4877 345.86 80.7037 345.932C80.9197 346.004 81.2117 346.04 81.5797 346.04C81.7397 346.04 82.0917 346.024 82.6357 345.992L82.8157 347.264ZM88.8437 342.26C88.9157 342.348 88.9677 342.568 88.9997 342.92C89.0397 343.272 89.0597 343.808 89.0597 344.528V347.432H87.0077V344.552C87.0077 344.52 87.0077 344.364 87.0077 344.084C87.0077 343.796 86.9877 343.62 86.9477 343.556C86.9237 343.524 86.8637 343.5 86.7677 343.484C86.6797 343.468 86.5757 343.46 86.4557 343.46L86.2517 343.472C86.0277 343.48 85.7957 343.532 85.5557 343.628V347.432H83.5037V340.232L85.5557 340.148V341.552C85.5557 342.128 85.5357 342.512 85.4957 342.704L85.5077 342.716C86.0517 342.1 86.7037 341.792 87.4637 341.792C87.7517 341.792 88.0197 341.832 88.2677 341.912C88.5237 341.992 88.7157 342.108 88.8437 342.26ZM96.9603 345.836V347.432H91.6923V346.1C92.1003 345.772 92.4883 345.456 92.8563 345.152C93.2243 344.84 93.6363 344.476 94.0923 344.06C94.3163 343.86 94.4803 343.644 94.5843 343.412C94.6883 343.18 94.7403 342.96 94.7403 342.752C94.7403 342.536 94.6883 342.368 94.5843 342.248C94.4963 342.16 94.0323 342.116 93.1923 342.116L92.3883 342.128C92.2843 342.136 92.1563 342.14 92.0043 342.14C91.9803 342.028 91.9523 341.808 91.9203 341.48C91.8963 341.152 91.8843 340.908 91.8843 340.748C92.7883 340.588 93.5403 340.508 94.1403 340.508C94.9563 340.508 95.6043 340.664 96.0843 340.976C96.5723 341.28 96.8163 341.808 96.8163 342.56C96.8163 342.92 96.7243 343.292 96.5403 343.676C96.3563 344.052 95.9963 344.448 95.4603 344.864C95.1003 345.144 94.6283 345.476 94.0443 345.86L96.9603 345.836Z" fill="#A8DADC"/>
<path d="M19.5709 69.7916C19.2989 69.7916 19.0629 69.6996 18.8629 69.5156C18.6709 69.3316 18.5749 69.1116 18.5749 68.8556C18.5749 68.5996 18.6709 68.3796 18.8629 68.1956C19.0629 68.0116 19.2989 67.9196 19.5709 67.9196C19.8429 67.9196 20.0749 68.0116 20.2669 68.1956C20.4589 68.3796 20.5549 68.5996 20.5549 68.8556C20.5549 69.1116 20.4589 69.3316 20.2669 69.5156C20.0749 69.6996 19.8429 69.7916 19.5709 69.7916ZM18.5389 70.4756H20.5909V75.9956H18.5389V70.4756Z" fill="#A8DADC"/>
<path d="M19.1387 34.8596C19.2667 35.0516 19.3307 35.7956 19.3307 37.0916V39.9956H17.2787V37.2956V36.6476C17.2787 36.3516 17.2507 36.1756 17.1947 36.1196C17.1307 36.0556 16.9947 36.0236 16.7867 36.0236L16.6427 36.0356C16.3947 36.0516 16.1587 36.1076 15.9347 36.2036C15.9427 36.3716 15.9467 36.6676 15.9467 37.0916V39.9956H13.8947V37.2956V36.5756C13.8947 36.3276 13.8667 36.1756 13.8107 36.1196C13.7467 36.0556 13.6107 36.0236 13.4027 36.0236L13.2587 36.0356C13.0347 36.0436 12.8027 36.0956 12.5627 36.1916V39.9956H10.5107V34.4756H12.1787L12.3947 35.3756C12.6587 35.0236 12.9627 34.7676 13.3067 34.6076C13.6507 34.4396 13.9987 34.3556 14.3507 34.3556C14.6467 34.3556 14.9267 34.3996 15.1907 34.4876C15.4627 34.5756 15.6507 34.6996 15.7547 34.8596C15.8027 34.9316 15.8427 35.0636 15.8747 35.2556C16.1307 34.9436 16.4227 34.7156 16.7507 34.5716C17.0787 34.4276 17.4067 34.3556 17.7347 34.3556C18.0307 34.3556 18.3107 34.3996 18.5747 34.4876C18.8467 34.5756 19.0347 34.6996 19.1387 34.8596ZM21.3521 33.7916C21.0801 33.7916 20.8441 33.6996 20.6441 33.5156C20.4521 33.3316 20.3561 33.1116 20.3561 32.8556C20.3561 32.5996 20.4521 32.3796 20.6441 32.1956C20.8441 32.0116 21.0801 31.9196 21.3521 31.9196C21.6241 31.9196 21.8561 32.0116 22.0481 32.1956C22.2401 32.3796 22.3361 32.5996 22.3361 32.8556C22.3361 33.1116 22.2401 33.3316 22.0481 33.5156C21.8561 33.6996 21.6241 33.7916 21.3521 33.7916ZM20.3201 34.4756H22.3721V39.9956H20.3201V34.4756ZM24.3976 37.1756L23.0176 34.4756H25.0096L26.0056 36.6116L27.0136 34.4756H28.9936L27.6256 37.1756L29.1256 39.9956H27.1216L26.0056 37.7156L24.8896 39.9956H22.8856L24.3976 37.1756ZM16.3189 43.7916C16.0469 43.7916 15.8109 43.6996 15.6109 43.5156C15.4189 43.3316 15.3229 43.1116 15.3229 42.8556C15.3229 42.5996 15.4189 42.3796 15.6109 42.1956C15.8109 42.0116 16.0469 41.9196 16.3189 41.9196C16.5909 41.9196 16.8229 42.0116 17.0149 42.1956C17.2069 42.3796 17.3029 42.5996 17.3029 42.8556C17.3029 43.1116 17.2069 43.3316 17.0149 43.5156C16.8229 43.6996 16.5909 43.7916 16.3189 43.7916ZM15.2869 44.4756H17.3389V49.9956H15.2869V44.4756ZM23.6964 44.8236C23.7684 44.9116 23.8204 45.1316 23.8524 45.4836C23.8924 45.8356 23.9124 46.3716 23.9124 47.0916V49.9956H21.8604V47.1156V46.6236C21.8604 46.3676 21.8404 46.2076 21.8004 46.1436C21.7364 46.0636 21.5884 46.0236 21.3564 46.0236C21.2444 46.0236 21.1604 46.0276 21.1044 46.0356C20.8804 46.0436 20.6484 46.0956 20.4084 46.1916V49.9956H18.3564V44.4756H20.0244L20.2524 45.3996C20.8284 44.7036 21.5164 44.3556 22.3164 44.3556C22.6044 44.3556 22.8724 44.3956 23.1204 44.4756C23.3764 44.5556 23.5684 44.6716 23.6964 44.8236Z" fill="#A8DADC"/>
<path d="M14.3982 92.7956L16.4502 92.7116V99.9956H14.3982V92.7956ZM21.0197 94.4756H23.1677L21.4877 99.9956H18.6437L16.9637 94.4756H19.1117L20.0117 98.7116H20.1317L21.0197 94.4756ZM23.6795 92.7956L25.7315 92.7116V99.9956H23.6795V92.7956ZM19.4457 109.828C18.7977 110.044 18.0737 110.152 17.2737 110.152C16.3777 110.152 15.7057 109.928 15.2577 109.48C14.8177 109.024 14.5977 108.316 14.5977 107.356C14.5977 106.884 14.6617 106.42 14.7897 105.964C14.9177 105.5 15.0537 105.188 15.1977 105.028C15.3657 104.844 15.6937 104.688 16.1817 104.56C16.6777 104.432 17.1897 104.368 17.7177 104.368C18.2697 104.368 18.8257 104.416 19.3857 104.512C19.3697 104.712 19.3417 104.948 19.3017 105.22C19.2697 105.484 19.2337 105.72 19.1937 105.928C18.6977 105.896 18.2297 105.88 17.7897 105.88C17.3577 105.88 17.0817 105.904 16.9617 105.952C16.8977 105.976 16.8377 106.14 16.7817 106.444C16.7337 106.748 16.7097 107.032 16.7097 107.296C16.7097 107.648 16.7577 107.92 16.8537 108.112C16.9577 108.296 17.1177 108.424 17.3337 108.496C17.5497 108.568 17.8417 108.604 18.2097 108.604C18.3697 108.604 18.7217 108.588 19.2657 108.556L19.4457 109.828ZM23.6857 104.476H25.8337L24.1537 109.996H21.3097L19.6297 104.476H21.7777L22.6777 108.712H22.7977L23.6857 104.476Z" fill="#A8DADC"/>
<path d="M14.9081 123.356C15.4841 123.356 15.9401 123.548 16.2761 123.932C16.6201 124.308 16.7921 124.968 16.7921 125.912C16.7921 126.616 16.7241 127.192 16.5881 127.64C16.4521 128.08 16.2961 128.372 16.1201 128.516C15.9441 128.66 15.6361 128.776 15.1961 128.864C14.7641 128.952 14.3161 128.996 13.8521 128.996C13.7161 128.996 13.4881 128.988 13.1681 128.972V130.676L11.1161 130.76V123.476H12.7961L13.0001 124.328C13.2081 124.032 13.4721 123.796 13.7921 123.62C14.1201 123.444 14.4921 123.356 14.9081 123.356ZM14.4281 127.532C14.5161 127.468 14.5801 127.288 14.6201 126.992C14.6601 126.688 14.6801 126.4 14.6801 126.128C14.6801 125.68 14.6241 125.348 14.5121 125.132C14.4001 124.916 14.1761 124.808 13.8401 124.808C13.6001 124.808 13.3761 124.832 13.1681 124.88V127.544L13.5041 127.58C13.6081 127.588 13.7561 127.592 13.9481 127.592C14.2201 127.592 14.3801 127.572 14.4281 127.532ZM20.8846 128.996L20.6926 128.24C20.3246 128.84 19.8126 129.14 19.1566 129.14C18.6206 129.14 18.1806 128.992 17.8366 128.696C17.5006 128.392 17.3326 127.968 17.3326 127.424C17.3326 127.088 17.4286 126.796 17.6206 126.548C17.8206 126.292 18.0926 126.112 18.4366 126.008C18.8846 125.88 19.5766 125.808 20.5126 125.792C20.5126 125.264 20.4886 124.984 20.4406 124.952C20.4006 124.92 20.2726 124.904 20.0566 124.904C19.9206 124.904 19.7326 124.912 19.4926 124.928C19.1086 124.944 18.5886 124.988 17.9326 125.06C17.8686 124.628 17.8206 124.164 17.7886 123.668C18.2126 123.58 18.6566 123.508 19.1206 123.452C19.5846 123.388 20.0006 123.356 20.3686 123.356C21.0086 123.356 21.4886 123.464 21.8086 123.68C22.1286 123.888 22.3366 124.164 22.4326 124.508C22.5286 124.852 22.5726 125.288 22.5646 125.816L22.5526 127.58L22.5886 128.996H20.8846ZM19.8526 127.796C20.0606 127.796 20.2806 127.756 20.5126 127.676V126.788H20.4166C19.8246 126.788 19.4966 126.82 19.4326 126.884C19.3926 126.924 19.3606 126.984 19.3366 127.064C19.3206 127.144 19.3126 127.22 19.3126 127.292C19.3126 127.484 19.3566 127.616 19.4446 127.688C19.5326 127.76 19.6686 127.796 19.8526 127.796ZM28.8311 123.824C28.9031 123.912 28.9551 124.132 28.9871 124.484C29.0271 124.836 29.0471 125.372 29.0471 126.092V128.996H26.9951V126.116V125.624C26.9951 125.368 26.9751 125.208 26.9351 125.144C26.8711 125.064 26.7231 125.024 26.4911 125.024C26.3791 125.024 26.2951 125.028 26.2391 125.036C26.0151 125.044 25.7831 125.096 25.5431 125.192V128.996H23.4911V123.476H25.1591L25.3871 124.4C25.9631 123.704 26.6511 123.356 27.4511 123.356C27.7391 123.356 28.0071 123.396 28.2551 123.476C28.5111 123.556 28.7031 123.672 28.8311 123.824ZM19.4457 138.828C18.7977 139.044 18.0737 139.152 17.2737 139.152C16.3777 139.152 15.7057 138.928 15.2577 138.48C14.8177 138.024 14.5977 137.316 14.5977 136.356C14.5977 135.884 14.6617 135.42 14.7897 134.964C14.9177 134.5 15.0537 134.188 15.1977 134.028C15.3657 133.844 15.6937 133.688 16.1817 133.56C16.6777 133.432 17.1897 133.368 17.7177 133.368C18.2697 133.368 18.8257 133.416 19.3857 133.512C19.3697 133.712 19.3417 133.948 19.3017 134.22C19.2697 134.484 19.2337 134.72 19.1937 134.928C18.6977 134.896 18.2297 134.88 17.7897 134.88C17.3577 134.88 17.0817 134.904 16.9617 134.952C16.8977 134.976 16.8377 135.14 16.7817 135.444C16.7337 135.748 16.7097 136.032 16.7097 136.296C16.7097 136.648 16.7577 136.92 16.8537 137.112C16.9577 137.296 17.1177 137.424 17.3337 137.496C17.5497 137.568 17.8417 137.604 18.2097 137.604C18.3697 137.604 18.7217 137.588 19.2657 137.556L19.4457 138.828ZM23.6857 133.476H25.8337L24.1537 138.996H21.3097L19.6297 133.476H21.7777L22.6777 137.712H22.7977L23.6857 133.476Z" fill="#A8DADC"/>
<rect x="98.946" y="39" width="6" height="6" rx="1" fill="#A8DADC"/>
<path d="M104.178 44.25H102.666L102.394 43.098C102.383 43.0553 102.364 42.9833 102.338 42.882C102.316 42.7753 102.29 42.698 102.258 42.65C102.226 42.5967 102.18 42.562 102.122 42.546C101.972 42.5513 101.754 42.554 101.466 42.554V44.25H100.026V39.73C100.671 39.682 101.274 39.658 101.834 39.658C102.34 39.658 102.751 39.7007 103.066 39.786C103.38 39.866 103.615 40.0073 103.77 40.21C103.93 40.4073 104.01 40.6793 104.01 41.026C104.01 41.3513 103.935 41.6073 103.786 41.794C103.636 41.9753 103.396 42.0847 103.066 42.122V42.17C103.252 42.186 103.407 42.2473 103.53 42.354C103.658 42.4553 103.743 42.586 103.786 42.746L104.178 44.25ZM101.466 41.65C101.514 41.6553 101.607 41.658 101.746 41.658C102.156 41.658 102.396 41.6233 102.466 41.554C102.53 41.49 102.562 41.3407 102.562 41.106C102.562 40.8873 102.503 40.738 102.386 40.658C102.274 40.578 102.087 40.538 101.826 40.538C101.767 40.538 101.647 40.5433 101.466 40.554V41.65Z" fill="#457B9D"/>
<rect x="122" y="99" width="6" height="6" rx="1" fill="#A8DADC"/>
<path d="M127.232 104.25H125.72L125.448 103.098C125.437 103.055 125.418 102.983 125.392 102.882C125.37 102.775 125.344 102.698 125.312 102.65C125.28 102.597 125.234 102.562 125.176 102.546C125.026 102.551 124.808 102.554 124.52 102.554V104.25H123.08V99.73C123.725 99.682 124.328 99.658 124.888 99.658C125.394 99.658 125.805 99.7007 126.12 99.786C126.434 99.866 126.669 100.007 126.824 100.21C126.984 100.407 127.064 100.679 127.064 101.026C127.064 101.351 126.989 101.607 126.84 101.794C126.69 101.975 126.45 102.085 126.12 102.122V102.17C126.306 102.186 126.461 102.247 126.584 102.354C126.712 102.455 126.797 102.586 126.84 102.746L127.232 104.25ZM124.52 101.65C124.568 101.655 124.661 101.658 124.8 101.658C125.21 101.658 125.45 101.623 125.52 101.554C125.584 101.49 125.616 101.341 125.616 101.106C125.616 100.887 125.557 100.738 125.44 100.658C125.328 100.578 125.141 100.538 124.88 100.538C124.821 100.538 124.701 100.543 124.52 100.554V101.65Z" fill="#457B9D"/>
<rect x="58.946" y="39" width="6" height="6" rx="1" fill="#A8DADC"/>
<path d="M60.4276 39.69H61.8676V43.194H63.7316V44.25H60.4276V39.69Z" fill="#457B9D"/>
<rect x="122" y="69" width="6" height="6" rx="1" fill="#A8DADC"/>
<path d="M123.482 69.69H124.922V73.194H126.786V74.25H123.482V69.69Z" fill="#457B9D"/>
</svg>
