<svg width="165" height="380" viewBox="0 0 165 380" fill="none" xmlns="http://www.w3.org/2000/svg">
<rect width="165" height="380" fill="#457B9D"/>
<g opacity="0.3">
<path fill-rule="evenodd" clip-rule="evenodd" d="M76.958 375.599C76.803 375.747 76.659 375.851 76.526 375.909C76.393 375.968 76.251 375.998 76.1 375.998C75.948 375.998 75.806 375.97 75.673 375.914C75.54 375.858 75.424 375.781 75.325 375.682C75.109 375.466 75 375.209 75 374.912V369.385C75 369.082 75.078 368.847 75.232 368.68C75.498 368.408 75.75 368.272 75.988 368.272C76.226 368.272 76.404 368.296 76.522 368.346C76.639 368.395 76.738 368.457 76.818 368.531C76.924 368.624 77.002 368.723 77.055 368.828C77.108 368.933 77.151 369.011 77.185 369.06C77.219 369.11 77.275 369.134 77.352 369.134C77.429 369.134 77.496 369.11 77.551 369.06L77.709 368.902C78.16 368.482 78.612 368.272 79.063 368.272C79.861 368.272 80.519 368.599 81.039 369.255C81.088 369.323 81.15 369.357 81.224 369.357C81.354 369.357 81.486 369.256 81.619 369.055C81.752 368.854 81.966 368.674 82.263 368.513C82.56 368.352 82.906 368.272 83.302 368.272C83.698 368.272 84.058 368.344 84.383 368.49C84.707 368.635 84.99 368.834 85.231 369.088C85.738 369.62 85.992 370.263 85.992 371.017V374.912C85.992 375.382 85.769 375.713 85.324 375.905C85.188 375.967 85.044 375.998 84.893 375.998C84.741 375.998 84.599 375.97 84.466 375.914C84.333 375.858 84.217 375.781 84.118 375.682C83.908 375.46 83.803 375.203 83.803 374.912V371.045C83.803 370.736 83.726 370.504 83.571 370.349C83.299 370.077 83.049 369.941 82.82 369.941C82.591 369.941 82.412 369.971 82.282 370.029C82.152 370.088 82.034 370.17 81.929 370.275C81.713 370.492 81.605 370.742 81.605 371.026V374.912C81.605 375.382 81.385 375.713 80.946 375.905C80.81 375.967 80.666 375.998 80.515 375.998C80.363 375.998 80.22 375.97 80.083 375.914C79.947 375.858 79.83 375.781 79.731 375.682C79.515 375.466 79.406 375.209 79.406 374.912V371.045C79.406 370.736 79.329 370.504 79.174 370.349C78.902 370.077 78.618 369.941 78.321 369.941C77.826 369.941 77.483 370.133 77.292 370.516C77.23 370.64 77.199 370.779 77.199 370.934V374.912C77.199 375.215 77.118 375.444 76.958 375.599ZM88.219 369.387C88.219 369.084 88.296 368.849 88.451 368.682C88.716 368.41 89.01 368.274 89.332 368.274C89.641 368.274 89.87 368.355 90.018 368.515C90.29 368.794 90.426 369.084 90.426 369.387V374.915C90.426 375.212 90.349 375.437 90.194 375.592C89.922 375.864 89.672 376 89.443 376C89.214 376 89.032 375.971 88.896 375.912C88.76 375.853 88.642 375.777 88.543 375.685C88.327 375.474 88.219 375.218 88.219 374.915V369.387ZM89.327 365.9C89.065 365.9 88.852 365.687 88.852 365.425C88.852 365.162 89.065 364.95 89.327 364.95C89.589 364.95 89.802 365.162 89.802 365.425C89.802 365.687 89.589 365.9 89.327 365.9ZM89.327 364C89.714 364 90.048 364.142 90.329 364.425C90.611 364.709 90.752 364.996 90.752 365.287C90.752 365.577 90.713 365.807 90.635 365.978C90.558 366.148 90.456 366.297 90.329 366.424C90.048 366.708 89.714 366.849 89.327 366.849C88.94 366.849 88.606 366.708 88.324 366.424C88.043 366.141 87.902 365.857 87.902 365.574C87.902 365.092 88.043 364.709 88.324 364.425C88.606 364.142 88.94 364 89.327 364Z" fill="#1D3557"/>
</g>
<path d="M42.3347 20.4024V21.8654H37.5056V20.6444C37.8796 20.3437 38.2353 20.054 38.5727 19.7754C38.91 19.4894 39.2877 19.1557 39.7057 18.7744C39.911 18.591 40.0613 18.393 40.1567 18.1804C40.252 17.9677 40.2997 17.766 40.2997 17.5754C40.2997 17.3774 40.252 17.2234 40.1567 17.1134C40.076 17.0327 39.6507 16.9924 38.8806 16.9924L38.1436 17.0034C38.0483 17.0107 37.931 17.0144 37.7917 17.0144C37.7696 16.9117 37.744 16.71 37.7146 16.4094C37.6926 16.1087 37.6816 15.885 37.6816 15.7384C38.5103 15.5917 39.1997 15.5184 39.7497 15.5184C40.4977 15.5184 41.0917 15.6614 41.5317 15.9474C41.979 16.226 42.2027 16.71 42.2027 17.3994C42.2027 17.7294 42.1183 18.0704 41.9497 18.4224C41.781 18.767 41.451 19.13 40.9597 19.5114C40.6297 19.768 40.197 20.0724 39.6617 20.4244L42.3347 20.4024ZM43.5887 18.2464H46.8887V19.8194H43.5887V18.2464ZM53.2815 21.6564C53.0101 21.7737 52.6948 21.858 52.3355 21.9094C51.9761 21.9607 51.6425 21.9864 51.3345 21.9864C50.3371 21.9864 49.5561 21.726 48.9915 21.2054C48.4268 20.6847 48.1445 19.8854 48.1445 18.8074C48.1445 17.7074 48.4415 16.886 49.0355 16.3434C49.6295 15.7934 50.4655 15.5184 51.5435 15.5184C52.0568 15.5184 52.5921 15.588 53.1495 15.7274C53.1495 15.874 53.1348 16.094 53.1055 16.3874C53.0761 16.6734 53.0468 16.875 53.0175 16.9924H52.3245C51.8185 16.9924 51.4188 17.0034 51.1255 17.0254C50.8395 17.04 50.6671 17.073 50.6085 17.1244C50.4985 17.227 50.4141 17.436 50.3555 17.7514C50.2968 18.0594 50.2675 18.3564 50.2675 18.6424C50.2675 19.141 50.3298 19.526 50.4545 19.7974C50.5791 20.0614 50.7368 20.2374 50.9275 20.3254C51.1108 20.4134 51.4151 20.4574 51.8405 20.4574C52.1778 20.4574 52.6178 20.428 53.1605 20.3694L53.2815 21.6564ZM54.5651 15.5954H56.5561V17.8944H58.2611V15.5954H60.2521V21.8654H58.2611V19.1594H56.5561V21.8654H54.5651V15.5954ZM65.5447 20.4904H63.7187L63.3887 21.8654H61.3647L63.3887 15.5954H65.9737L67.9097 21.8654H65.8747L65.5447 20.4904ZM64.6207 16.9484L63.9717 19.2694H65.2807L64.6647 16.9484H64.6207ZM70.8436 19.3354V21.8654H69.0066V15.5954H70.8656L72.5266 18.1254C72.776 18.4994 72.9666 18.8147 73.0986 19.0714H73.1316V18.0154V15.5954H74.9576V21.8654H73.0876L71.3826 19.2254L70.8876 18.4774H70.8546L70.8436 19.3354ZM78.4298 19.3354V21.8654H76.5928V15.5954H78.4518L80.1128 18.1254C80.3621 18.4994 80.5528 18.8147 80.6848 19.0714H80.7178V18.0154V15.5954H82.5438V21.8654H80.6738L78.9688 19.2254L78.4738 18.4774H78.4408L78.4298 19.3354ZM84.1239 15.5954H88.6889V16.9154H86.1039V18.0594H88.2819V19.2474H86.1039V20.5234H88.6779V21.8654H84.1239V15.5954ZM90.0565 15.5954H92.0365V20.4134H94.5995V21.8654H90.0565V15.5954ZM106.149 21.8654H104.301L104.158 18.4114C104.136 17.7294 104.111 17.2124 104.081 16.8604H104.048C103.96 17.139 103.858 17.5717 103.74 18.1584L103.685 18.4334L102.926 21.8654H101.078L100.44 18.7744L100.33 18.2244C100.176 17.5424 100.07 17.0877 100.011 16.8604H99.9783C99.9489 17.227 99.9233 17.8247 99.9013 18.6534C99.8939 18.7047 99.8903 18.7854 99.8903 18.8954L99.7913 21.8654H97.9323L98.1963 15.5954H101.342L101.881 18.3014L102.013 19.0274C102.072 18.8 102.127 18.547 102.178 18.2684L102.684 15.5954H105.896L106.149 21.8654ZM107.681 15.5954H109.661V21.8654H107.681V15.5954ZM112.347 18.6534L110.873 15.5954H112.897L113.909 18.0594L114.954 15.5954H116.923L115.471 18.6534L117.022 21.8764H114.998L113.909 19.2144L112.787 21.8764H110.752L112.347 18.6534ZM118.05 15.5954H122.615V16.9154H120.03V18.0594H122.208V19.2474H120.03V20.5234H122.604V21.8654H118.05V15.5954ZM129.713 21.8654H127.634L127.26 20.2814C127.246 20.2227 127.22 20.1237 127.183 19.9844C127.154 19.8377 127.117 19.7314 127.073 19.6654C127.029 19.592 126.967 19.5444 126.886 19.5224C126.681 19.5297 126.38 19.5334 125.984 19.5334V21.8654H124.004V15.6504C124.892 15.5844 125.72 15.5514 126.49 15.5514C127.187 15.5514 127.752 15.61 128.184 15.7274C128.617 15.8374 128.94 16.0317 129.152 16.3104C129.372 16.5817 129.482 16.9557 129.482 17.4324C129.482 17.8797 129.38 18.2317 129.174 18.4884C128.969 18.7377 128.639 18.888 128.184 18.9394V19.0054C128.441 19.0274 128.654 19.1117 128.822 19.2584C128.998 19.3977 129.116 19.5774 129.174 19.7974L129.713 21.8654ZM125.984 18.2904C126.05 18.2977 126.179 18.3014 126.369 18.3014C126.934 18.3014 127.264 18.2537 127.359 18.1584C127.447 18.0704 127.491 17.865 127.491 17.5424C127.491 17.2417 127.411 17.0364 127.249 16.9264C127.095 16.8164 126.839 16.7614 126.479 16.7614C126.399 16.7614 126.234 16.7687 125.984 16.7834V18.2904Z" fill="white"/>
<path d="M135.934 55.0977C137.521 55.0977 138.424 54.126 138.424 52.6367V52.0361C138.424 50.542 137.516 49.5703 135.929 49.5703C134.347 49.5703 133.438 50.5371 133.438 52.0361V52.6367C133.438 54.126 134.352 55.0977 135.934 55.0977ZM135.934 54.0771C135.206 54.0771 134.771 53.5352 134.771 52.6416V52.0215C134.771 51.1279 135.206 50.5908 135.934 50.5908C136.656 50.5908 137.091 51.1279 137.091 52.0215V52.6416C137.091 53.5352 136.656 54.0771 135.934 54.0771ZM142.571 54.0479C141.961 54.0479 141.536 53.6865 141.536 52.998V49.668H140.223V53.1445C140.223 54.3359 141.126 55.0977 142.571 55.0977C144.017 55.0977 144.92 54.3311 144.92 53.1445V49.668H143.611V52.998C143.611 53.6816 143.182 54.0479 142.571 54.0479ZM149.292 55V50.6885H150.84V49.668H146.436V50.6885H147.983V55H149.292Z" fill="white"/>
<path d="M135.621 137V133.65H135.689L136.915 136.219H137.696L138.917 133.65H138.976V137H140.157V131.668H138.819L137.335 134.764H137.291L135.807 131.668H134.464V137H135.621ZM143.567 137V131.668H142.259V137H143.567ZM150.186 131.668H148.726L147.676 133.484H147.617L146.567 131.668H145.034L146.729 134.314L145.029 137H146.436L147.529 135.228H147.588L148.682 137H150.166L148.423 134.334L150.186 131.668ZM137.868 142.041C137.868 141.128 138.259 140.605 138.962 140.605C139.582 140.605 139.992 141.025 139.992 141.631H141.247V141.489C141.247 140.322 140.271 139.57 138.952 139.57C137.414 139.57 136.535 140.537 136.535 142.041V142.642C136.535 144.136 137.414 145.098 138.952 145.098C140.256 145.098 141.247 144.37 141.247 143.223V143.076H139.992C139.992 143.652 139.582 144.067 138.957 144.067C138.259 144.067 137.868 143.545 137.868 142.646V142.041ZM145.985 145L147.782 139.668H146.332L145.233 143.672H145.17L144.057 139.668H142.538L144.359 145H145.985Z" fill="white"/>
<path d="M13.9972 163.093C15.5841 163.093 16.4874 162.122 16.4874 160.632V160.032C16.4874 158.538 15.5792 157.566 13.9923 157.566C12.4103 157.566 11.5021 158.533 11.5021 160.032V160.632C11.5021 162.122 12.4152 163.093 13.9972 163.093ZM13.9972 162.073C13.2697 162.073 12.8351 161.531 12.8351 160.637V160.017C12.8351 159.124 13.2697 158.586 13.9972 158.586C14.7198 158.586 15.1544 159.124 15.1544 160.017V160.637C15.1544 161.531 14.7198 162.073 13.9972 162.073ZM20.6349 162.043C20.0245 162.043 19.5997 161.682 19.5997 160.994V157.664H18.2863V161.14C18.2863 162.332 19.1896 163.093 20.6349 163.093C22.0802 163.093 22.9835 162.327 22.9835 161.14V157.664H21.6749V160.994C21.6749 161.677 21.2452 162.043 20.6349 162.043ZM27.3556 162.996V158.684H28.9034V157.664H24.4991V158.684H26.047V162.996H27.3556Z" fill="white"/>
<path d="M13.0137 196.475C13.0137 195.483 12.3252 194.668 11.0557 194.668H8.70215V200H10.0059V198.33H11.0459C12.3154 198.33 13.0137 197.476 13.0137 196.475ZM11.6855 196.504C11.6855 197.041 11.373 197.383 10.8311 197.383H10.001V195.63H10.7822C11.3535 195.63 11.6855 195.947 11.6855 196.504ZM15.1592 200L15.5449 198.75H17.3271L17.7031 200H19.0898L17.2637 194.668H15.6816L13.8506 200H15.1592ZM16.4727 195.801L17.083 197.842H15.7891L16.4092 195.801H16.4727ZM21.8896 200V196.753H21.9385L24.2529 200H25.293V194.668H24.0674V197.886H24.0186L21.7139 194.668H20.6689V200H21.8896Z" fill="white"/>
<path d="M7.36719 323V319.65H7.43555L8.66113 322.219H9.44238L10.6631 319.65H10.7217V323H11.9033V317.668H10.5654L9.08105 320.764H9.03711L7.55273 317.668H6.20996V323H7.36719ZM16.2852 322.048C15.6748 322.048 15.25 321.687 15.25 320.998V317.668H13.9365V321.145C13.9365 322.336 14.8398 323.098 16.2852 323.098C17.7305 323.098 18.6338 322.331 18.6338 321.145V317.668H17.3252V320.998C17.3252 321.682 16.8955 322.048 16.2852 322.048ZM23.0059 323V318.688H24.5537V317.668H20.1494V318.688H21.6973V323H23.0059ZM29.9561 322.004H27.5V320.778H29.8047V319.851H27.5V318.664H29.9561V317.668H26.2061V323H29.9561V322.004Z" fill="white"/>
<path d="M36.7451 342.041C36.7451 341.128 37.1357 340.605 37.8389 340.605C38.459 340.605 38.8691 341.025 38.8691 341.631H40.124V341.489C40.124 340.322 39.1475 339.57 37.8291 339.57C36.291 339.57 35.4121 340.537 35.4121 342.041V342.642C35.4121 344.136 36.291 345.098 37.8291 345.098C39.1328 345.098 40.124 344.37 40.124 343.223V343.076H38.8691C38.8691 343.652 38.459 344.067 37.834 344.067C37.1357 344.067 36.7451 343.545 36.7451 342.646V342.041ZM46.7178 345V339.668H45.4092V341.792H43.2705V339.668H41.9619V345H43.2705V342.808H45.4092V345H46.7178ZM54.0068 345V339.668H52.7129L51.3799 340.557V341.67L52.6494 340.825H52.7129V345H54.0068Z" fill="white"/>
<path d="M76.3008 342.041C76.3008 341.128 76.6914 340.605 77.3945 340.605C78.0146 340.605 78.4248 341.025 78.4248 341.631H79.6797V341.489C79.6797 340.322 78.7031 339.57 77.3848 339.57C75.8467 339.57 74.9678 340.537 74.9678 342.041V342.642C74.9678 344.136 75.8467 345.098 77.3848 345.098C78.6885 345.098 79.6797 344.37 79.6797 343.223V343.076H78.4248C78.4248 343.652 78.0146 344.067 77.3896 344.067C76.6914 344.067 76.3008 343.545 76.3008 342.646V342.041ZM86.2734 345V339.668H84.9648V341.792H82.8262V339.668H81.5176V345H82.8262V342.808H84.9648V345H86.2734ZM92.1562 341.323C92.1562 341.309 92.1562 341.274 92.1562 341.245C92.1562 340.879 92.4346 340.557 92.9033 340.557C93.333 340.557 93.6504 340.84 93.6504 341.206C93.6504 341.621 93.3281 341.943 93.0303 342.231L90.9941 344.229V345H95.0322V344.004H92.7715V343.945L93.9336 342.778C94.4072 342.31 94.9395 341.851 94.9395 341.084C94.9395 340.225 94.1484 339.57 92.9277 339.57C91.5508 339.57 90.9258 340.439 90.9258 341.255V341.323H92.1562Z" fill="white"/>
<path d="M16.8575 73.9956V68.6636H15.549V73.9956H16.8575ZM20.17 73.9956V70.7485H20.2189L22.5333 73.9956H23.5734V68.6636H22.3478V71.8813H22.299L19.9943 68.6636H18.9493V73.9956H20.17Z" fill="white"/>
<path d="M13.6847 40.9956V37.646H13.7531L14.9786 40.2144H15.7599L16.9806 37.646H17.0392V40.9956H18.2208V35.6636H16.8829L15.3986 38.7593H15.3546L13.8702 35.6636H12.5275V40.9956H13.6847ZM21.631 40.9956V35.6636H20.3224V40.9956H21.631ZM28.2491 35.6636H26.7892L25.7394 37.48H25.6808L24.631 35.6636H23.0978L24.7921 38.3101L23.0929 40.9956H24.4991L25.5929 39.2231H25.6515L26.7452 40.9956H28.2296L26.4865 38.3296L28.2491 35.6636ZM17.3575 48.9956V43.6636H16.049V48.9956H17.3575ZM20.67 48.9956V45.7485H20.7189L23.0333 48.9956H24.0734V43.6636H22.8478V46.8813H22.799L20.4943 43.6636H19.4493V48.9956H20.67Z" fill="white"/>
<path d="M16.0118 99.9556H13.7218V95.6636H12.4132V100.996H16.0118V99.9556ZM20.2277 100.996L22.0245 95.6636H20.5743L19.4757 99.6675H19.4122L18.299 95.6636H16.7804L18.6017 100.996H20.2277ZM27.1681 99.9556H24.8781V95.6636H23.5695V100.996H27.1681V99.9556ZM15.4318 106.037C15.4318 105.124 15.8224 104.601 16.5255 104.601C17.1456 104.601 17.5558 105.021 17.5558 105.626H18.8107V105.485C18.8107 104.318 17.8341 103.566 16.5157 103.566C14.9777 103.566 14.0988 104.533 14.0988 106.037V106.637C14.0988 108.131 14.9777 109.093 16.5157 109.093C17.8195 109.093 18.8107 108.366 18.8107 107.218V107.072H17.5558C17.5558 107.648 17.1456 108.063 16.5206 108.063C15.8224 108.063 15.4318 107.541 15.4318 106.642V106.037ZM23.549 108.996L25.3458 103.664H23.8956L22.797 107.667H22.7335L21.6202 103.664H20.1017L21.923 108.996H23.549Z" fill="white"/>
<path d="M16.0773 126.47C16.0773 125.479 15.3888 124.664 14.1193 124.664H11.7657V129.996H13.0695V128.326H14.1095C15.379 128.326 16.0773 127.471 16.0773 126.47ZM14.7491 126.5C14.7491 127.037 14.4366 127.378 13.8947 127.378H13.0646V125.625H13.8458C14.4171 125.625 14.7491 125.943 14.7491 126.5ZM18.2228 129.996L18.6085 128.746H20.3907L20.7667 129.996H22.1534L20.3273 124.664H18.7452L16.9142 129.996H18.2228ZM19.5363 125.796L20.1466 127.837H18.8527L19.4728 125.796H19.5363ZM24.9532 129.996V126.749H25.0021L27.3165 129.996H28.3566V124.664H27.131V127.881H27.0822L24.7775 124.664H23.7325V129.996H24.9532ZM15.9318 135.037C15.9318 134.124 16.3224 133.601 17.0255 133.601C17.6456 133.601 18.0558 134.021 18.0558 134.626H19.3107V134.485C19.3107 133.318 18.3341 132.566 17.0157 132.566C15.4777 132.566 14.5988 133.533 14.5988 135.037V135.637C14.5988 137.131 15.4777 138.093 17.0157 138.093C18.3195 138.093 19.3107 137.366 19.3107 136.218V136.072H18.0558C18.0558 136.648 17.6456 137.063 17.0206 137.063C16.3224 137.063 15.9318 136.541 15.9318 135.642V135.037ZM24.049 137.996L25.8458 132.664H24.3956L23.297 136.667H23.2335L22.1202 132.664H20.6017L22.423 137.996H24.049Z" fill="white"/>
<rect x="100" y="38.5" width="7" height="7" rx="1" fill="white"/>
<path d="M106.011 44.5H104.31L104.004 43.204C103.992 43.156 103.971 43.075 103.941 42.961C103.917 42.841 103.887 42.754 103.851 42.7C103.815 42.64 103.764 42.601 103.698 42.583C103.53 42.589 103.284 42.592 102.96 42.592V44.5H101.34V39.415C102.066 39.361 102.744 39.334 103.374 39.334C103.944 39.334 104.406 39.382 104.76 39.478C105.114 39.568 105.378 39.727 105.552 39.955C105.732 40.177 105.822 40.483 105.822 40.873C105.822 41.239 105.738 41.527 105.57 41.737C105.402 41.941 105.132 42.064 104.76 42.106V42.16C104.97 42.178 105.144 42.247 105.282 42.367C105.426 42.481 105.522 42.628 105.57 42.808L106.011 44.5ZM102.96 41.575C103.014 41.581 103.119 41.584 103.275 41.584C103.737 41.584 104.007 41.545 104.085 41.467C104.157 41.395 104.193 41.227 104.193 40.963C104.193 40.717 104.127 40.549 103.995 40.459C103.869 40.369 103.659 40.324 103.365 40.324C103.299 40.324 103.164 40.33 102.96 40.342V41.575Z" fill="#457B9D"/>
<rect x="120" y="98.5" width="7" height="7" rx="1" fill="white"/>
<path d="M126.011 104.5H124.31L124.004 103.204C123.992 103.156 123.971 103.075 123.941 102.961C123.917 102.841 123.887 102.754 123.851 102.7C123.815 102.64 123.764 102.601 123.698 102.583C123.53 102.589 123.284 102.592 122.96 102.592V104.5H121.34V99.415C122.066 99.361 122.744 99.334 123.374 99.334C123.944 99.334 124.406 99.382 124.76 99.478C125.114 99.568 125.378 99.727 125.552 99.955C125.732 100.177 125.822 100.483 125.822 100.873C125.822 101.239 125.738 101.527 125.57 101.737C125.402 101.941 125.132 102.064 124.76 102.106V102.16C124.97 102.178 125.144 102.247 125.282 102.367C125.426 102.481 125.522 102.628 125.57 102.808L126.011 104.5ZM122.96 101.575C123.014 101.581 123.119 101.584 123.275 101.584C123.737 101.584 124.007 101.545 124.085 101.467C124.157 101.395 124.193 101.227 124.193 100.963C124.193 100.717 124.127 100.549 123.995 100.459C123.869 100.369 123.659 100.324 123.365 100.324C123.299 100.324 123.164 100.33 122.96 100.342V101.575Z" fill="#457B9D"/>
<rect x="60" y="38.5" width="7" height="7" rx="1" fill="white"/>
<path d="M61.7919 39.37H63.4119V43.312H65.5089V44.5H61.7919V39.37Z" fill="#457B9D"/>
<rect x="120" y="68.5" width="7" height="7" rx="1" fill="white"/>
<path d="M121.792 69.37H123.412V73.312H125.509V74.5H121.792V69.37Z" fill="#457B9D"/>
</svg>
