<svg width="240" height="380" viewBox="0 0 240 380" fill="none" xmlns="http://www.w3.org/2000/svg">
<rect width="240" height="380" fill="#457B9D"/>
<g opacity="0.5">
<path fill-rule="evenodd" clip-rule="evenodd" d="M113.958 375.599C113.803 375.747 113.659 375.851 113.526 375.909C113.393 375.968 113.251 375.998 113.1 375.998C112.948 375.998 112.806 375.97 112.673 375.914C112.54 375.858 112.424 375.781 112.325 375.682C112.109 375.466 112 375.209 112 374.912V369.385C112 369.082 112.078 368.847 112.232 368.68C112.498 368.408 112.75 368.272 112.988 368.272C113.226 368.272 113.404 368.296 113.522 368.346C113.639 368.395 113.738 368.457 113.818 368.531C113.924 368.624 114.002 368.723 114.055 368.828C114.108 368.933 114.151 369.011 114.185 369.06C114.219 369.11 114.275 369.134 114.352 369.134C114.429 369.134 114.496 369.11 114.551 369.06L114.709 368.902C115.16 368.482 115.612 368.272 116.063 368.272C116.861 368.272 117.519 368.599 118.039 369.255C118.088 369.323 118.15 369.357 118.224 369.357C118.354 369.357 118.486 369.256 118.619 369.055C118.752 368.854 118.966 368.674 119.263 368.513C119.56 368.352 119.906 368.272 120.302 368.272C120.698 368.272 121.058 368.344 121.383 368.49C121.707 368.635 121.99 368.834 122.231 369.088C122.738 369.62 122.992 370.263 122.992 371.017V374.912C122.992 375.382 122.769 375.713 122.324 375.905C122.188 375.967 122.044 375.998 121.893 375.998C121.741 375.998 121.599 375.97 121.466 375.914C121.333 375.858 121.217 375.781 121.118 375.682C120.908 375.46 120.803 375.203 120.803 374.912V371.045C120.803 370.736 120.726 370.504 120.571 370.349C120.299 370.077 120.049 369.941 119.82 369.941C119.591 369.941 119.412 369.971 119.282 370.029C119.152 370.088 119.034 370.17 118.929 370.275C118.713 370.492 118.605 370.742 118.605 371.026V374.912C118.605 375.382 118.385 375.713 117.946 375.905C117.81 375.967 117.666 375.998 117.515 375.998C117.363 375.998 117.22 375.97 117.083 375.914C116.947 375.858 116.83 375.781 116.731 375.682C116.515 375.466 116.406 375.209 116.406 374.912V371.045C116.406 370.736 116.329 370.504 116.174 370.349C115.902 370.077 115.618 369.941 115.321 369.941C114.826 369.941 114.483 370.133 114.292 370.516C114.23 370.64 114.199 370.779 114.199 370.934V374.912C114.199 375.215 114.118 375.444 113.958 375.599ZM125.219 369.387C125.219 369.084 125.296 368.849 125.451 368.682C125.716 368.41 126.01 368.274 126.332 368.274C126.641 368.274 126.87 368.355 127.018 368.515C127.29 368.794 127.426 369.084 127.426 369.387V374.915C127.426 375.212 127.349 375.437 127.194 375.592C126.922 375.864 126.672 376 126.443 376C126.214 376 126.032 375.971 125.896 375.912C125.76 375.853 125.642 375.777 125.543 375.685C125.327 375.474 125.219 375.218 125.219 374.915V369.387ZM126.327 365.9C126.065 365.9 125.852 365.687 125.852 365.425C125.852 365.162 126.065 364.95 126.327 364.95C126.589 364.95 126.802 365.162 126.802 365.425C126.802 365.687 126.589 365.9 126.327 365.9ZM126.327 364C126.714 364 127.048 364.142 127.329 364.425C127.611 364.709 127.752 364.996 127.752 365.287C127.752 365.577 127.713 365.807 127.635 365.978C127.558 366.148 127.456 366.297 127.329 366.424C127.048 366.708 126.714 366.849 126.327 366.849C125.94 366.849 125.606 366.708 125.324 366.424C125.043 366.141 124.902 365.857 124.902 365.574C124.902 365.092 125.043 364.709 125.324 364.425C125.606 364.142 125.94 364 126.327 364Z" fill="#1D3557"/>
</g>
<path d="M79.6507 21.4494H78.6187V22.8654H76.5187V21.4494H73.9627L73.5547 20.2254C73.8987 19.6014 74.3467 18.9054 74.8987 18.1374C75.4507 17.3694 75.9907 16.6654 76.5187 16.0254H78.6187V20.0574H79.6507V21.4494ZM76.5547 17.9334C76.0987 18.5894 75.6387 19.2974 75.1747 20.0574H76.5547V17.9334ZM80.242 18.9174H83.842V20.6334H80.242V18.9174ZM90.216 22.6374C89.92 22.7654 89.576 22.8574 89.184 22.9134C88.792 22.9694 88.428 22.9974 88.092 22.9974C87.004 22.9974 86.152 22.7134 85.536 22.1454C84.92 21.5774 84.612 20.7054 84.612 19.5294C84.612 18.3294 84.936 17.4334 85.584 16.8414C86.232 16.2414 87.144 15.9414 88.32 15.9414C88.88 15.9414 89.464 16.0174 90.072 16.1694C90.072 16.3294 90.056 16.5694 90.024 16.8894C89.992 17.2014 89.96 17.4214 89.928 17.5494H89.172C88.62 17.5494 88.184 17.5614 87.864 17.5854C87.552 17.6014 87.364 17.6374 87.3 17.6934C87.18 17.8054 87.088 18.0334 87.024 18.3774C86.96 18.7134 86.928 19.0374 86.928 19.3494C86.928 19.8934 86.996 20.3134 87.132 20.6094C87.268 20.8974 87.44 21.0894 87.648 21.1854C87.848 21.2814 88.18 21.3294 88.644 21.3294C89.012 21.3294 89.492 21.2974 90.084 21.2334L90.216 22.6374ZM91.0163 16.0254H93.1883V18.5334H95.0483V16.0254H97.2203V22.8654H95.0483V19.9134H93.1883V22.8654H91.0163V16.0254ZM102.394 21.3654H100.402L100.042 22.8654H97.834L100.042 16.0254H102.862L104.974 22.8654H102.754L102.394 21.3654ZM101.386 17.5014L100.678 20.0334H102.106L101.434 17.5014H101.386ZM107.575 20.1054V22.8654H105.571V16.0254H107.599L109.411 18.7854C109.683 19.1934 109.891 19.5374 110.035 19.8174H110.071V18.6654V16.0254H112.063V22.8654H110.023L108.163 19.9854L107.623 19.1694H107.587L107.575 20.1054ZM115.25 20.1054V22.8654H113.246V16.0254H115.274L117.086 18.7854C117.358 19.1934 117.566 19.5374 117.71 19.8174H117.746V18.6654V16.0254H119.738V22.8654H117.698L115.838 19.9854L115.298 19.1694H115.262L115.25 20.1054ZM120.862 16.0254H125.842V17.4654H123.022V18.7134H125.398V20.0094H123.022V21.4014H125.83V22.8654H120.862V16.0254ZM126.734 16.0254H128.894V21.2814H131.69V22.8654H126.734V16.0254ZM143.09 22.8654H141.074L140.918 19.0974C140.894 18.3534 140.866 17.7894 140.834 17.4054H140.798C140.702 17.7094 140.59 18.1814 140.462 18.8214L140.402 19.1214L139.574 22.8654H137.558L136.862 19.4934L136.742 18.8934C136.574 18.1494 136.458 17.6534 136.394 17.4054H136.358C136.326 17.8054 136.298 18.4574 136.274 19.3614C136.266 19.4174 136.262 19.5054 136.262 19.6254L136.154 22.8654H134.126L134.414 16.0254H137.846L138.434 18.9774L138.578 19.7694C138.642 19.5214 138.702 19.2454 138.758 18.9414L139.31 16.0254H142.814L143.09 22.8654ZM144.161 16.0254H146.321V22.8654H144.161V16.0254ZM148.652 19.3614L147.044 16.0254H149.252L150.356 18.7134L151.496 16.0254H153.644L152.06 19.3614L153.752 22.8774H151.544L150.356 19.9734L149.132 22.8774H146.912L148.652 19.3614ZM154.272 16.0254H159.252V17.4654H156.432V18.7134H158.808V20.0094H156.432V21.4014H159.24V22.8654H154.272V16.0254ZM166.396 22.8654H164.128L163.72 21.1374C163.704 21.0734 163.676 20.9654 163.636 20.8134C163.604 20.6534 163.564 20.5374 163.516 20.4654C163.468 20.3854 163.4 20.3334 163.312 20.3094C163.088 20.3174 162.76 20.3214 162.328 20.3214V22.8654H160.168V16.0854C161.136 16.0134 162.04 15.9774 162.88 15.9774C163.64 15.9774 164.256 16.0414 164.728 16.1694C165.2 16.2894 165.552 16.5014 165.784 16.8054C166.024 17.1014 166.144 17.5094 166.144 18.0294C166.144 18.5174 166.032 18.9014 165.808 19.1814C165.584 19.4534 165.224 19.6174 164.728 19.6734V19.7454C165.008 19.7694 165.24 19.8614 165.424 20.0214C165.616 20.1734 165.744 20.3694 165.808 20.6094L166.396 22.8654ZM162.328 18.9654C162.4 18.9734 162.54 18.9774 162.748 18.9774C163.364 18.9774 163.724 18.9254 163.828 18.8214C163.924 18.7254 163.972 18.5014 163.972 18.1494C163.972 17.8214 163.884 17.5974 163.708 17.4774C163.54 17.3574 163.26 17.2974 162.868 17.2974C162.78 17.2974 162.6 17.3054 162.328 17.3214V18.9654Z" fill="#A8DADC"/>
<path d="M212.508 125.152C211.548 125.152 210.828 124.928 210.348 124.48C209.876 124.024 209.64 123.308 209.64 122.332C209.64 121.796 209.688 121.328 209.784 120.928C209.888 120.52 210.012 120.236 210.156 120.076C210.34 119.868 210.676 119.696 211.164 119.56C211.66 119.424 212.124 119.356 212.556 119.356C213.588 119.356 214.324 119.576 214.764 120.016C215.204 120.456 215.424 121.16 215.424 122.128C215.424 123.168 215.188 123.932 214.716 124.42C214.244 124.908 213.508 125.152 212.508 125.152ZM212.544 123.748C212.856 123.748 213.06 123.64 213.156 123.424C213.252 123.2 213.3 122.808 213.3 122.248C213.3 121.856 213.28 121.556 213.24 121.348C213.2 121.132 213.124 120.976 213.012 120.88C212.908 120.776 212.744 120.724 212.52 120.724C212.2 120.724 212.016 120.752 211.968 120.808C211.904 120.864 211.852 121.04 211.812 121.336C211.772 121.632 211.752 121.94 211.752 122.26C211.752 122.804 211.804 123.188 211.908 123.412C212.02 123.636 212.232 123.748 212.544 123.748ZM221.727 119.476V124.996H220.059L219.831 124.072C219.255 124.768 218.567 125.116 217.767 125.116C217.479 125.116 217.207 125.076 216.951 124.996C216.703 124.916 216.515 124.8 216.387 124.648C216.315 124.56 216.259 124.34 216.219 123.988C216.187 123.636 216.171 123.1 216.171 122.38V119.476H218.223V122.356C218.223 122.516 218.227 122.704 218.235 122.92C218.243 123.136 218.267 123.272 218.307 123.328C218.363 123.408 218.523 123.448 218.787 123.448L218.979 123.436C219.203 123.428 219.435 123.376 219.675 123.28V119.476H221.727ZM225.255 122.728C225.255 122.872 225.259 123.024 225.267 123.184C225.275 123.336 225.299 123.432 225.339 123.472C225.395 123.528 225.591 123.556 225.927 123.556L226.335 123.544C226.407 123.928 226.443 124.372 226.443 124.876C226.291 124.932 226.067 124.984 225.771 125.032C225.483 125.08 225.207 125.104 224.943 125.104C224.391 125.104 223.963 124.984 223.659 124.744C223.363 124.496 223.215 124.116 223.215 123.604V120.652H222.315V119.56L223.215 119.476L223.755 118.156L225.255 118.072V119.476H226.527V120.652H225.255V122.728Z" fill="#A8DADC"/>
<path d="M217.575 180.86C217.703 181.052 217.767 181.796 217.767 183.092V185.996H215.715V183.296V182.648C215.715 182.352 215.687 182.176 215.631 182.12C215.567 182.056 215.431 182.024 215.223 182.024L215.079 182.036C214.831 182.052 214.595 182.108 214.371 182.204C214.379 182.372 214.383 182.668 214.383 183.092V185.996H212.331V183.296V182.576C212.331 182.328 212.303 182.176 212.247 182.12C212.183 182.056 212.047 182.024 211.839 182.024L211.695 182.036C211.471 182.044 211.239 182.096 210.999 182.192V185.996H208.947V180.476H210.615L210.831 181.376C211.095 181.024 211.399 180.768 211.743 180.608C212.087 180.44 212.435 180.356 212.787 180.356C213.083 180.356 213.363 180.4 213.627 180.488C213.899 180.576 214.087 180.7 214.191 180.86C214.239 180.932 214.279 181.064 214.311 181.256C214.567 180.944 214.859 180.716 215.187 180.572C215.515 180.428 215.843 180.356 216.171 180.356C216.467 180.356 216.747 180.4 217.011 180.488C217.283 180.576 217.471 180.7 217.575 180.86ZM219.789 179.792C219.517 179.792 219.281 179.7 219.081 179.516C218.889 179.332 218.793 179.112 218.793 178.856C218.793 178.6 218.889 178.38 219.081 178.196C219.281 178.012 219.517 177.92 219.789 177.92C220.061 177.92 220.293 178.012 220.485 178.196C220.677 178.38 220.773 178.6 220.773 178.856C220.773 179.112 220.677 179.332 220.485 179.516C220.293 179.7 220.061 179.792 219.789 179.792ZM218.757 180.476H220.809V185.996H218.757V180.476ZM222.834 183.176L221.454 180.476H223.446L224.442 182.612L225.45 180.476H227.43L226.062 183.176L227.562 185.996H225.558L224.442 183.716L223.326 185.996H221.322L222.834 183.176ZM217.382 195.828C216.734 196.044 216.01 196.152 215.21 196.152C214.314 196.152 213.642 195.928 213.194 195.48C212.754 195.024 212.534 194.316 212.534 193.356C212.534 192.884 212.598 192.42 212.726 191.964C212.854 191.5 212.99 191.188 213.134 191.028C213.302 190.844 213.63 190.688 214.118 190.56C214.614 190.432 215.126 190.368 215.654 190.368C216.206 190.368 216.762 190.416 217.322 190.512C217.306 190.712 217.278 190.948 217.238 191.22C217.206 191.484 217.17 191.72 217.13 191.928C216.634 191.896 216.166 191.88 215.726 191.88C215.294 191.88 215.018 191.904 214.898 191.952C214.834 191.976 214.774 192.14 214.718 192.444C214.67 192.748 214.646 193.032 214.646 193.296C214.646 193.648 214.694 193.92 214.79 194.112C214.894 194.296 215.054 194.424 215.27 194.496C215.486 194.568 215.778 194.604 216.146 194.604C216.306 194.604 216.658 194.588 217.202 194.556L217.382 195.828ZM221.622 190.476H223.77L222.09 195.996H219.246L217.566 190.476H219.714L220.614 194.712H220.734L221.622 190.476Z" fill="#A8DADC"/>
<path d="M20.038 165.152C19.078 165.152 18.358 164.928 17.878 164.48C17.406 164.024 17.17 163.308 17.17 162.332C17.17 161.796 17.218 161.328 17.314 160.928C17.418 160.52 17.542 160.236 17.686 160.076C17.87 159.868 18.206 159.696 18.694 159.56C19.19 159.424 19.654 159.356 20.086 159.356C21.118 159.356 21.854 159.576 22.294 160.016C22.734 160.456 22.954 161.16 22.954 162.128C22.954 163.168 22.718 163.932 22.246 164.42C21.774 164.908 21.038 165.152 20.038 165.152ZM20.074 163.748C20.386 163.748 20.59 163.64 20.686 163.424C20.782 163.2 20.83 162.808 20.83 162.248C20.83 161.856 20.81 161.556 20.77 161.348C20.73 161.132 20.654 160.976 20.542 160.88C20.438 160.776 20.274 160.724 20.05 160.724C19.73 160.724 19.546 160.752 19.498 160.808C19.434 160.864 19.382 161.04 19.342 161.336C19.302 161.632 19.282 161.94 19.282 162.26C19.282 162.804 19.334 163.188 19.438 163.412C19.55 163.636 19.762 163.748 20.074 163.748Z" fill="#A8DADC"/>
<path d="M23.7969 318.86C23.9249 319.052 23.9889 319.796 23.9889 321.092V323.996H21.9369V321.296V320.648C21.9369 320.352 21.9089 320.176 21.8529 320.12C21.7889 320.056 21.6529 320.024 21.4449 320.024L21.3009 320.036C21.0529 320.052 20.8169 320.108 20.5929 320.204C20.6009 320.372 20.6049 320.668 20.6049 321.092V323.996H18.5529V321.296V320.576C18.5529 320.328 18.5249 320.176 18.4689 320.12C18.4049 320.056 18.2689 320.024 18.0609 320.024L17.9169 320.036C17.6929 320.044 17.4609 320.096 17.2209 320.192V323.996H15.1689V318.476H16.8369L17.0529 319.376C17.3169 319.024 17.6209 318.768 17.9649 318.608C18.3089 318.44 18.6569 318.356 19.0089 318.356C19.3049 318.356 19.5849 318.4 19.8489 318.488C20.1209 318.576 20.3089 318.7 20.4129 318.86C20.4609 318.932 20.5009 319.064 20.5329 319.256C20.7889 318.944 21.0809 318.716 21.4089 318.572C21.7369 318.428 22.0649 318.356 22.3929 318.356C22.6889 318.356 22.9689 318.4 23.2329 318.488C23.5049 318.576 23.6929 318.7 23.7969 318.86Z" fill="#A8DADC"/>
<path d="M42.9837 347.264C42.3357 347.48 41.6117 347.588 40.8117 347.588C39.9157 347.588 39.2437 347.364 38.7957 346.916C38.3557 346.46 38.1357 345.752 38.1357 344.792C38.1357 344.32 38.1997 343.856 38.3277 343.4C38.4557 342.936 38.5917 342.624 38.7357 342.464C38.9037 342.28 39.2317 342.124 39.7197 341.996C40.2157 341.868 40.7277 341.804 41.2557 341.804C41.8077 341.804 42.3637 341.852 42.9237 341.948C42.9077 342.148 42.8797 342.384 42.8397 342.656C42.8077 342.92 42.7717 343.156 42.7317 343.364C42.2357 343.332 41.7677 343.316 41.3277 343.316C40.8957 343.316 40.6197 343.34 40.4997 343.388C40.4357 343.412 40.3757 343.576 40.3197 343.88C40.2717 344.184 40.2477 344.468 40.2477 344.732C40.2477 345.084 40.2957 345.356 40.3917 345.548C40.4957 345.732 40.6557 345.86 40.8717 345.932C41.0877 346.004 41.3797 346.04 41.7477 346.04C41.9077 346.04 42.2597 346.024 42.8037 345.992L42.9837 347.264ZM49.0117 342.26C49.0837 342.348 49.1357 342.568 49.1677 342.92C49.2077 343.272 49.2277 343.808 49.2277 344.528V347.432H47.1757V344.552C47.1757 344.52 47.1757 344.364 47.1757 344.084C47.1757 343.796 47.1557 343.62 47.1157 343.556C47.0917 343.524 47.0317 343.5 46.9357 343.484C46.8477 343.468 46.7437 343.46 46.6237 343.46L46.4197 343.472C46.1957 343.48 45.9637 343.532 45.7237 343.628V347.432H43.6717V340.232L45.7237 340.148V341.552C45.7237 342.128 45.7037 342.512 45.6637 342.704L45.6757 342.716C46.2197 342.1 46.8717 341.792 47.6317 341.792C47.9197 341.792 48.1877 341.832 48.4357 341.912C48.6917 341.992 48.8837 342.108 49.0117 342.26ZM55.3163 340.592V347.432H53.2163V342.32L51.7283 342.632L51.5003 341.372L53.6243 340.592H55.3163Z" fill="#A8DADC"/>
<path d="M82.8157 347.264C82.1677 347.48 81.4437 347.588 80.6437 347.588C79.7477 347.588 79.0757 347.364 78.6277 346.916C78.1877 346.46 77.9677 345.752 77.9677 344.792C77.9677 344.32 78.0317 343.856 78.1597 343.4C78.2877 342.936 78.4237 342.624 78.5677 342.464C78.7357 342.28 79.0637 342.124 79.5517 341.996C80.0477 341.868 80.5597 341.804 81.0877 341.804C81.6397 341.804 82.1957 341.852 82.7557 341.948C82.7397 342.148 82.7117 342.384 82.6717 342.656C82.6397 342.92 82.6037 343.156 82.5637 343.364C82.0677 343.332 81.5997 343.316 81.1597 343.316C80.7277 343.316 80.4517 343.34 80.3317 343.388C80.2677 343.412 80.2077 343.576 80.1517 343.88C80.1037 344.184 80.0797 344.468 80.0797 344.732C80.0797 345.084 80.1277 345.356 80.2237 345.548C80.3277 345.732 80.4877 345.86 80.7037 345.932C80.9197 346.004 81.2117 346.04 81.5797 346.04C81.7397 346.04 82.0917 346.024 82.6357 345.992L82.8157 347.264ZM88.8437 342.26C88.9157 342.348 88.9677 342.568 88.9997 342.92C89.0397 343.272 89.0597 343.808 89.0597 344.528V347.432H87.0077V344.552C87.0077 344.52 87.0077 344.364 87.0077 344.084C87.0077 343.796 86.9877 343.62 86.9477 343.556C86.9237 343.524 86.8637 343.5 86.7677 343.484C86.6797 343.468 86.5757 343.46 86.4557 343.46L86.2517 343.472C86.0277 343.48 85.7957 343.532 85.5557 343.628V347.432H83.5037V340.232L85.5557 340.148V341.552C85.5557 342.128 85.5357 342.512 85.4957 342.704L85.5077 342.716C86.0517 342.1 86.7037 341.792 87.4637 341.792C87.7517 341.792 88.0197 341.832 88.2677 341.912C88.5237 341.992 88.7157 342.108 88.8437 342.26ZM96.9603 345.836V347.432H91.6923V346.1C92.1003 345.772 92.4883 345.456 92.8563 345.152C93.2243 344.84 93.6363 344.476 94.0923 344.06C94.3163 343.86 94.4803 343.644 94.5843 343.412C94.6883 343.18 94.7403 342.96 94.7403 342.752C94.7403 342.536 94.6883 342.368 94.5843 342.248C94.4963 342.16 94.0323 342.116 93.1923 342.116L92.3883 342.128C92.2843 342.136 92.1563 342.14 92.0043 342.14C91.9803 342.028 91.9523 341.808 91.9203 341.48C91.8963 341.152 91.8843 340.908 91.8843 340.748C92.7883 340.588 93.5403 340.508 94.1403 340.508C94.9563 340.508 95.6043 340.664 96.0843 340.976C96.5723 341.28 96.8163 341.808 96.8163 342.56C96.8163 342.92 96.7243 343.292 96.5403 343.676C96.3563 344.052 95.9963 344.448 95.4603 344.864C95.1003 345.144 94.6283 345.476 94.0443 345.86L96.9603 345.836Z" fill="#A8DADC"/>
<path d="M123.945 347.264C123.297 347.48 122.573 347.588 121.773 347.588C120.877 347.588 120.205 347.364 119.757 346.916C119.317 346.46 119.097 345.752 119.097 344.792C119.097 344.32 119.161 343.856 119.289 343.4C119.417 342.936 119.553 342.624 119.697 342.464C119.865 342.28 120.193 342.124 120.681 341.996C121.177 341.868 121.689 341.804 122.217 341.804C122.769 341.804 123.325 341.852 123.885 341.948C123.869 342.148 123.841 342.384 123.801 342.656C123.769 342.92 123.733 343.156 123.693 343.364C123.197 343.332 122.729 343.316 122.289 343.316C121.857 343.316 121.581 343.34 121.461 343.388C121.397 343.412 121.337 343.576 121.281 343.88C121.233 344.184 121.209 344.468 121.209 344.732C121.209 345.084 121.257 345.356 121.353 345.548C121.457 345.732 121.617 345.86 121.833 345.932C122.049 346.004 122.341 346.04 122.709 346.04C122.869 346.04 123.221 346.024 123.765 345.992L123.945 347.264ZM129.973 342.26C130.045 342.348 130.097 342.568 130.129 342.92C130.169 343.272 130.189 343.808 130.189 344.528V347.432H128.137V344.552C128.137 344.52 128.137 344.364 128.137 344.084C128.137 343.796 128.117 343.62 128.077 343.556C128.053 343.524 127.993 343.5 127.897 343.484C127.809 343.468 127.705 343.46 127.585 343.46L127.381 343.472C127.157 343.48 126.925 343.532 126.685 343.628V347.432H124.633V340.232L126.685 340.148V341.552C126.685 342.128 126.665 342.512 126.625 342.704L126.637 342.716C127.181 342.1 127.833 341.792 128.593 341.792C128.881 341.792 129.149 341.832 129.397 341.912C129.653 341.992 129.845 342.108 129.973 342.26ZM136.205 343.94C136.773 343.98 137.181 344.14 137.429 344.42C137.677 344.7 137.801 345.048 137.801 345.464C137.801 346.064 137.577 346.568 137.129 346.976C136.681 347.376 135.965 347.576 134.981 347.576C134.317 347.576 133.577 347.512 132.761 347.384L133.001 346.064C133.721 346.096 134.193 346.112 134.417 346.112C134.857 346.112 135.177 346.056 135.377 345.944C135.585 345.832 135.689 345.612 135.689 345.284C135.689 345.052 135.613 344.88 135.461 344.768C135.317 344.648 135.109 344.572 134.837 344.54C134.565 344.508 134.177 344.492 133.673 344.492V343.376C134.177 343.376 134.557 343.364 134.813 343.34C135.077 343.308 135.277 343.24 135.413 343.136C135.557 343.032 135.629 342.868 135.629 342.644C135.629 342.452 135.625 342.3 135.617 342.188C135.609 342.076 135.581 342.004 135.533 341.972C135.469 341.932 135.185 341.912 134.681 341.912C134.225 341.912 133.669 341.928 133.013 341.96L132.893 340.688C133.765 340.568 134.465 340.508 134.993 340.508C135.761 340.508 136.389 340.656 136.877 340.952C137.373 341.248 137.621 341.728 137.621 342.392C137.621 342.728 137.509 343.048 137.285 343.352C137.069 343.648 136.709 343.832 136.205 343.904V343.94Z" fill="#A8DADC"/>
<path d="M165.134 347.264C164.486 347.48 163.762 347.588 162.962 347.588C162.066 347.588 161.394 347.364 160.946 346.916C160.506 346.46 160.286 345.752 160.286 344.792C160.286 344.32 160.35 343.856 160.478 343.4C160.606 342.936 160.742 342.624 160.886 342.464C161.054 342.28 161.382 342.124 161.87 341.996C162.366 341.868 162.878 341.804 163.406 341.804C163.958 341.804 164.514 341.852 165.074 341.948C165.058 342.148 165.03 342.384 164.99 342.656C164.958 342.92 164.922 343.156 164.882 343.364C164.386 343.332 163.918 343.316 163.478 343.316C163.046 343.316 162.77 343.34 162.65 343.388C162.586 343.412 162.526 343.576 162.47 343.88C162.422 344.184 162.398 344.468 162.398 344.732C162.398 345.084 162.446 345.356 162.542 345.548C162.646 345.732 162.806 345.86 163.022 345.932C163.238 346.004 163.53 346.04 163.898 346.04C164.058 346.04 164.41 346.024 164.954 345.992L165.134 347.264ZM171.162 342.26C171.234 342.348 171.286 342.568 171.318 342.92C171.358 343.272 171.378 343.808 171.378 344.528V347.432H169.326V344.552C169.326 344.52 169.326 344.364 169.326 344.084C169.326 343.796 169.306 343.62 169.266 343.556C169.242 343.524 169.182 343.5 169.086 343.484C168.998 343.468 168.894 343.46 168.774 343.46L168.57 343.472C168.346 343.48 168.114 343.532 167.874 343.628V347.432H165.822V340.232L167.874 340.148V341.552C167.874 342.128 167.854 342.512 167.814 342.704L167.826 342.716C168.37 342.1 169.022 341.792 169.782 341.792C170.07 341.792 170.338 341.832 170.586 341.912C170.842 341.992 171.034 342.108 171.162 342.26ZM179.819 346.016H178.787V347.432H176.687V346.016H174.131L173.723 344.792C174.067 344.168 174.515 343.472 175.067 342.704C175.619 341.936 176.159 341.232 176.687 340.592H178.787V344.624H179.819V346.016ZM176.723 342.5C176.267 343.156 175.807 343.864 175.343 344.624H176.723V342.5Z" fill="#A8DADC"/>
<path d="M19.5709 69.7916C19.2989 69.7916 19.0629 69.6996 18.8629 69.5156C18.6709 69.3316 18.5749 69.1116 18.5749 68.8556C18.5749 68.5996 18.6709 68.3796 18.8629 68.1956C19.0629 68.0116 19.2989 67.9196 19.5709 67.9196C19.8429 67.9196 20.0749 68.0116 20.2669 68.1956C20.4589 68.3796 20.5549 68.5996 20.5549 68.8556C20.5549 69.1116 20.4589 69.3316 20.2669 69.5156C20.0749 69.6996 19.8429 69.7916 19.5709 69.7916ZM18.5389 70.4756H20.5909V75.9956H18.5389V70.4756Z" fill="#A8DADC"/>
<path d="M19.1387 34.8596C19.2667 35.0516 19.3307 35.7956 19.3307 37.0916V39.9956H17.2787V37.2956V36.6476C17.2787 36.3516 17.2507 36.1756 17.1947 36.1196C17.1307 36.0556 16.9947 36.0236 16.7867 36.0236L16.6427 36.0356C16.3947 36.0516 16.1587 36.1076 15.9347 36.2036C15.9427 36.3716 15.9467 36.6676 15.9467 37.0916V39.9956H13.8947V37.2956V36.5756C13.8947 36.3276 13.8667 36.1756 13.8107 36.1196C13.7467 36.0556 13.6107 36.0236 13.4027 36.0236L13.2587 36.0356C13.0347 36.0436 12.8027 36.0956 12.5627 36.1916V39.9956H10.5107V34.4756H12.1787L12.3947 35.3756C12.6587 35.0236 12.9627 34.7676 13.3067 34.6076C13.6507 34.4396 13.9987 34.3556 14.3507 34.3556C14.6467 34.3556 14.9267 34.3996 15.1907 34.4876C15.4627 34.5756 15.6507 34.6996 15.7547 34.8596C15.8027 34.9316 15.8427 35.0636 15.8747 35.2556C16.1307 34.9436 16.4227 34.7156 16.7507 34.5716C17.0787 34.4276 17.4067 34.3556 17.7347 34.3556C18.0307 34.3556 18.3107 34.3996 18.5747 34.4876C18.8467 34.5756 19.0347 34.6996 19.1387 34.8596ZM21.3521 33.7916C21.0801 33.7916 20.8441 33.6996 20.6441 33.5156C20.4521 33.3316 20.3561 33.1116 20.3561 32.8556C20.3561 32.5996 20.4521 32.3796 20.6441 32.1956C20.8441 32.0116 21.0801 31.9196 21.3521 31.9196C21.6241 31.9196 21.8561 32.0116 22.0481 32.1956C22.2401 32.3796 22.3361 32.5996 22.3361 32.8556C22.3361 33.1116 22.2401 33.3316 22.0481 33.5156C21.8561 33.6996 21.6241 33.7916 21.3521 33.7916ZM20.3201 34.4756H22.3721V39.9956H20.3201V34.4756ZM24.3976 37.1756L23.0176 34.4756H25.0096L26.0056 36.6116L27.0136 34.4756H28.9936L27.6256 37.1756L29.1256 39.9956H27.1216L26.0056 37.7156L24.8896 39.9956H22.8856L24.3976 37.1756ZM16.3189 43.7916C16.0469 43.7916 15.8109 43.6996 15.6109 43.5156C15.4189 43.3316 15.3229 43.1116 15.3229 42.8556C15.3229 42.5996 15.4189 42.3796 15.6109 42.1956C15.8109 42.0116 16.0469 41.9196 16.3189 41.9196C16.5909 41.9196 16.8229 42.0116 17.0149 42.1956C17.2069 42.3796 17.3029 42.5996 17.3029 42.8556C17.3029 43.1116 17.2069 43.3316 17.0149 43.5156C16.8229 43.6996 16.5909 43.7916 16.3189 43.7916ZM15.2869 44.4756H17.3389V49.9956H15.2869V44.4756ZM23.6964 44.8236C23.7684 44.9116 23.8204 45.1316 23.8524 45.4836C23.8924 45.8356 23.9124 46.3716 23.9124 47.0916V49.9956H21.8604V47.1156V46.6236C21.8604 46.3676 21.8404 46.2076 21.8004 46.1436C21.7364 46.0636 21.5884 46.0236 21.3564 46.0236C21.2444 46.0236 21.1604 46.0276 21.1044 46.0356C20.8804 46.0436 20.6484 46.0956 20.4084 46.1916V49.9956H18.3564V44.4756H20.0244L20.2524 45.3996C20.8284 44.7036 21.5164 44.3556 22.3164 44.3556C22.6044 44.3556 22.8724 44.3956 23.1204 44.4756C23.3764 44.5556 23.5684 44.6716 23.6964 44.8236Z" fill="#A8DADC"/>
<path d="M14.3982 92.7956L16.4502 92.7116V99.9956H14.3982V92.7956ZM21.0197 94.4756H23.1677L21.4877 99.9956H18.6437L16.9637 94.4756H19.1117L20.0117 98.7116H20.1317L21.0197 94.4756ZM23.6795 92.7956L25.7315 92.7116V99.9956H23.6795V92.7956ZM19.4457 109.828C18.7977 110.044 18.0737 110.152 17.2737 110.152C16.3777 110.152 15.7057 109.928 15.2577 109.48C14.8177 109.024 14.5977 108.316 14.5977 107.356C14.5977 106.884 14.6617 106.42 14.7897 105.964C14.9177 105.5 15.0537 105.188 15.1977 105.028C15.3657 104.844 15.6937 104.688 16.1817 104.56C16.6777 104.432 17.1897 104.368 17.7177 104.368C18.2697 104.368 18.8257 104.416 19.3857 104.512C19.3697 104.712 19.3417 104.948 19.3017 105.22C19.2697 105.484 19.2337 105.72 19.1937 105.928C18.6977 105.896 18.2297 105.88 17.7897 105.88C17.3577 105.88 17.0817 105.904 16.9617 105.952C16.8977 105.976 16.8377 106.14 16.7817 106.444C16.7337 106.748 16.7097 107.032 16.7097 107.296C16.7097 107.648 16.7577 107.92 16.8537 108.112C16.9577 108.296 17.1177 108.424 17.3337 108.496C17.5497 108.568 17.8417 108.604 18.2097 108.604C18.3697 108.604 18.7217 108.588 19.2657 108.556L19.4457 109.828ZM23.6857 104.476H25.8337L24.1537 109.996H21.3097L19.6297 104.476H21.7777L22.6777 108.712H22.7977L23.6857 104.476Z" fill="#A8DADC"/>
<path d="M14.9081 123.356C15.4841 123.356 15.9401 123.548 16.2761 123.932C16.6201 124.308 16.7921 124.968 16.7921 125.912C16.7921 126.616 16.7241 127.192 16.5881 127.64C16.4521 128.08 16.2961 128.372 16.1201 128.516C15.9441 128.66 15.6361 128.776 15.1961 128.864C14.7641 128.952 14.3161 128.996 13.8521 128.996C13.7161 128.996 13.4881 128.988 13.1681 128.972V130.676L11.1161 130.76V123.476H12.7961L13.0001 124.328C13.2081 124.032 13.4721 123.796 13.7921 123.62C14.1201 123.444 14.4921 123.356 14.9081 123.356ZM14.4281 127.532C14.5161 127.468 14.5801 127.288 14.6201 126.992C14.6601 126.688 14.6801 126.4 14.6801 126.128C14.6801 125.68 14.6241 125.348 14.5121 125.132C14.4001 124.916 14.1761 124.808 13.8401 124.808C13.6001 124.808 13.3761 124.832 13.1681 124.88V127.544L13.5041 127.58C13.6081 127.588 13.7561 127.592 13.9481 127.592C14.2201 127.592 14.3801 127.572 14.4281 127.532ZM20.8846 128.996L20.6926 128.24C20.3246 128.84 19.8126 129.14 19.1566 129.14C18.6206 129.14 18.1806 128.992 17.8366 128.696C17.5006 128.392 17.3326 127.968 17.3326 127.424C17.3326 127.088 17.4286 126.796 17.6206 126.548C17.8206 126.292 18.0926 126.112 18.4366 126.008C18.8846 125.88 19.5766 125.808 20.5126 125.792C20.5126 125.264 20.4886 124.984 20.4406 124.952C20.4006 124.92 20.2726 124.904 20.0566 124.904C19.9206 124.904 19.7326 124.912 19.4926 124.928C19.1086 124.944 18.5886 124.988 17.9326 125.06C17.8686 124.628 17.8206 124.164 17.7886 123.668C18.2126 123.58 18.6566 123.508 19.1206 123.452C19.5846 123.388 20.0006 123.356 20.3686 123.356C21.0086 123.356 21.4886 123.464 21.8086 123.68C22.1286 123.888 22.3366 124.164 22.4326 124.508C22.5286 124.852 22.5726 125.288 22.5646 125.816L22.5526 127.58L22.5886 128.996H20.8846ZM19.8526 127.796C20.0606 127.796 20.2806 127.756 20.5126 127.676V126.788H20.4166C19.8246 126.788 19.4966 126.82 19.4326 126.884C19.3926 126.924 19.3606 126.984 19.3366 127.064C19.3206 127.144 19.3126 127.22 19.3126 127.292C19.3126 127.484 19.3566 127.616 19.4446 127.688C19.5326 127.76 19.6686 127.796 19.8526 127.796ZM28.8311 123.824C28.9031 123.912 28.9551 124.132 28.9871 124.484C29.0271 124.836 29.0471 125.372 29.0471 126.092V128.996H26.9951V126.116V125.624C26.9951 125.368 26.9751 125.208 26.9351 125.144C26.8711 125.064 26.7231 125.024 26.4911 125.024C26.3791 125.024 26.2951 125.028 26.2391 125.036C26.0151 125.044 25.7831 125.096 25.5431 125.192V128.996H23.4911V123.476H25.1591L25.3871 124.4C25.9631 123.704 26.6511 123.356 27.4511 123.356C27.7391 123.356 28.0071 123.396 28.2551 123.476C28.5111 123.556 28.7031 123.672 28.8311 123.824ZM19.4457 138.828C18.7977 139.044 18.0737 139.152 17.2737 139.152C16.3777 139.152 15.7057 138.928 15.2577 138.48C14.8177 138.024 14.5977 137.316 14.5977 136.356C14.5977 135.884 14.6617 135.42 14.7897 134.964C14.9177 134.5 15.0537 134.188 15.1977 134.028C15.3657 133.844 15.6937 133.688 16.1817 133.56C16.6777 133.432 17.1897 133.368 17.7177 133.368C18.2697 133.368 18.8257 133.416 19.3857 133.512C19.3697 133.712 19.3417 133.948 19.3017 134.22C19.2697 134.484 19.2337 134.72 19.1937 134.928C18.6977 134.896 18.2297 134.88 17.7897 134.88C17.3577 134.88 17.0817 134.904 16.9617 134.952C16.8977 134.976 16.8377 135.14 16.7817 135.444C16.7337 135.748 16.7097 136.032 16.7097 136.296C16.7097 136.648 16.7577 136.92 16.8537 137.112C16.9577 137.296 17.1177 137.424 17.3337 137.496C17.5497 137.568 17.8417 137.604 18.2097 137.604C18.3697 137.604 18.7217 137.588 19.2657 137.556L19.4457 138.828ZM23.6857 133.476H25.8337L24.1537 138.996H21.3097L19.6297 133.476H21.7777L22.6777 137.712H22.7977L23.6857 133.476Z" fill="#A8DADC"/>
<rect x="98.946" y="39" width="6" height="6" rx="1" fill="#A8DADC"/>
<path d="M104.178 44.25H102.666L102.394 43.098C102.383 43.0553 102.364 42.9833 102.338 42.882C102.316 42.7753 102.29 42.698 102.258 42.65C102.226 42.5967 102.18 42.562 102.122 42.546C101.972 42.5513 101.754 42.554 101.466 42.554V44.25H100.026V39.73C100.671 39.682 101.274 39.658 101.834 39.658C102.34 39.658 102.751 39.7007 103.066 39.786C103.38 39.866 103.615 40.0073 103.77 40.21C103.93 40.4073 104.01 40.6793 104.01 41.026C104.01 41.3513 103.935 41.6073 103.786 41.794C103.636 41.9753 103.396 42.0847 103.066 42.122V42.17C103.252 42.186 103.407 42.2473 103.53 42.354C103.658 42.4553 103.743 42.586 103.786 42.746L104.178 44.25ZM101.466 41.65C101.514 41.6553 101.607 41.658 101.746 41.658C102.156 41.658 102.396 41.6233 102.466 41.554C102.53 41.49 102.562 41.3407 102.562 41.106C102.562 40.8873 102.503 40.738 102.386 40.658C102.274 40.578 102.087 40.538 101.826 40.538C101.767 40.538 101.647 40.5433 101.466 40.554V41.65Z" fill="#457B9D"/>
<rect x="198" y="99" width="6" height="6" rx="1" fill="#A8DADC"/>
<path d="M203.232 104.25H201.72L201.448 103.098C201.437 103.055 201.418 102.983 201.392 102.882C201.37 102.775 201.344 102.698 201.312 102.65C201.28 102.597 201.234 102.562 201.176 102.546C201.026 102.551 200.808 102.554 200.52 102.554V104.25H199.08V99.73C199.725 99.682 200.328 99.658 200.888 99.658C201.394 99.658 201.805 99.7007 202.12 99.786C202.434 99.866 202.669 100.007 202.824 100.21C202.984 100.407 203.064 100.679 203.064 101.026C203.064 101.351 202.989 101.607 202.84 101.794C202.69 101.975 202.45 102.085 202.12 102.122V102.17C202.306 102.186 202.461 102.247 202.584 102.354C202.712 102.455 202.797 102.586 202.84 102.746L203.232 104.25ZM200.52 101.65C200.568 101.655 200.661 101.658 200.8 101.658C201.21 101.658 201.45 101.623 201.52 101.554C201.584 101.49 201.616 101.341 201.616 101.106C201.616 100.887 201.557 100.738 201.44 100.658C201.328 100.578 201.141 100.538 200.88 100.538C200.821 100.538 200.701 100.543 200.52 100.554V101.65Z" fill="#457B9D"/>
<rect x="58.946" y="39" width="6" height="6" rx="1" fill="#A8DADC"/>
<path d="M60.4276 39.69H61.8676V43.194H63.7316V44.25H60.4276V39.69Z" fill="#457B9D"/>
<rect x="198" y="69" width="6" height="6" rx="1" fill="#A8DADC"/>
<path d="M199.482 69.69H200.922V73.194H202.786V74.25H199.482V69.69Z" fill="#457B9D"/>
</svg>
