<svg width="240" height="380" viewBox="0 0 240 380" fill="none" xmlns="http://www.w3.org/2000/svg">
<rect width="240" height="380" fill="#457B9D"/>
<g opacity="0.3">
<path fill-rule="evenodd" clip-rule="evenodd" d="M113.958 375.599C113.803 375.747 113.659 375.851 113.526 375.909C113.393 375.968 113.251 375.998 113.1 375.998C112.948 375.998 112.806 375.97 112.673 375.914C112.54 375.858 112.424 375.781 112.325 375.682C112.109 375.466 112 375.209 112 374.912V369.385C112 369.082 112.078 368.847 112.232 368.68C112.498 368.408 112.75 368.272 112.988 368.272C113.226 368.272 113.404 368.296 113.522 368.346C113.639 368.395 113.738 368.457 113.818 368.531C113.924 368.624 114.002 368.723 114.055 368.828C114.108 368.933 114.151 369.011 114.185 369.06C114.219 369.11 114.275 369.134 114.352 369.134C114.429 369.134 114.496 369.11 114.551 369.06L114.709 368.902C115.16 368.482 115.612 368.272 116.063 368.272C116.861 368.272 117.519 368.599 118.039 369.255C118.088 369.323 118.15 369.357 118.224 369.357C118.354 369.357 118.486 369.256 118.619 369.055C118.752 368.854 118.966 368.674 119.263 368.513C119.56 368.352 119.906 368.272 120.302 368.272C120.698 368.272 121.058 368.344 121.383 368.49C121.707 368.635 121.99 368.834 122.231 369.088C122.738 369.62 122.992 370.263 122.992 371.017V374.912C122.992 375.382 122.769 375.713 122.324 375.905C122.188 375.967 122.044 375.998 121.893 375.998C121.741 375.998 121.599 375.97 121.466 375.914C121.333 375.858 121.217 375.781 121.118 375.682C120.908 375.46 120.803 375.203 120.803 374.912V371.045C120.803 370.736 120.726 370.504 120.571 370.349C120.299 370.077 120.049 369.941 119.82 369.941C119.591 369.941 119.412 369.971 119.282 370.029C119.152 370.088 119.034 370.17 118.929 370.275C118.713 370.492 118.605 370.742 118.605 371.026V374.912C118.605 375.382 118.385 375.713 117.946 375.905C117.81 375.967 117.666 375.998 117.515 375.998C117.363 375.998 117.22 375.97 117.083 375.914C116.947 375.858 116.83 375.781 116.731 375.682C116.515 375.466 116.406 375.209 116.406 374.912V371.045C116.406 370.736 116.329 370.504 116.174 370.349C115.902 370.077 115.618 369.941 115.321 369.941C114.826 369.941 114.483 370.133 114.292 370.516C114.23 370.64 114.199 370.779 114.199 370.934V374.912C114.199 375.215 114.118 375.444 113.958 375.599ZM125.219 369.387C125.219 369.084 125.296 368.849 125.451 368.682C125.716 368.41 126.01 368.274 126.332 368.274C126.641 368.274 126.87 368.355 127.018 368.515C127.29 368.794 127.426 369.084 127.426 369.387V374.915C127.426 375.212 127.349 375.437 127.194 375.592C126.922 375.864 126.672 376 126.443 376C126.214 376 126.032 375.971 125.896 375.912C125.76 375.853 125.642 375.777 125.543 375.685C125.327 375.474 125.219 375.218 125.219 374.915V369.387ZM126.327 365.9C126.065 365.9 125.852 365.687 125.852 365.425C125.852 365.162 126.065 364.95 126.327 364.95C126.589 364.95 126.802 365.162 126.802 365.425C126.802 365.687 126.589 365.9 126.327 365.9ZM126.327 364C126.714 364 127.048 364.142 127.329 364.425C127.611 364.709 127.752 364.996 127.752 365.287C127.752 365.577 127.713 365.807 127.635 365.978C127.558 366.148 127.456 366.297 127.329 366.424C127.048 366.708 126.714 366.849 126.327 366.849C125.94 366.849 125.606 366.708 125.324 366.424C125.043 366.141 124.902 365.857 124.902 365.574C124.902 365.092 125.043 364.709 125.324 364.425C125.606 364.142 125.94 364 126.327 364Z" fill="#1D3557"/>
</g>
<path d="M79.1631 20.5674H78.2171V21.8654H76.2921V20.5674H73.9491L73.5751 19.4454C73.8905 18.8734 74.3011 18.2354 74.8071 17.5314C75.3131 16.8274 75.8081 16.182 76.2921 15.5954H78.2171V19.2914H79.1631V20.5674ZM76.3251 17.3444C75.9071 17.9457 75.4855 18.5947 75.0601 19.2914H76.3251V17.3444ZM80.2552 18.2464H83.5552V19.8194H80.2552V18.2464ZM89.948 21.6564C89.6766 21.7737 89.3613 21.858 89.002 21.9094C88.6426 21.9607 88.309 21.9864 88.001 21.9864C87.0036 21.9864 86.2226 21.726 85.658 21.2054C85.0933 20.6847 84.811 19.8854 84.811 18.8074C84.811 17.7074 85.108 16.886 85.702 16.3434C86.296 15.7934 87.132 15.5184 88.21 15.5184C88.7233 15.5184 89.2586 15.588 89.816 15.7274C89.816 15.874 89.8013 16.094 89.772 16.3874C89.7426 16.6734 89.7133 16.875 89.684 16.9924H88.991C88.485 16.9924 88.0853 17.0034 87.792 17.0254C87.506 17.04 87.3336 17.073 87.275 17.1244C87.165 17.227 87.0806 17.436 87.022 17.7514C86.9633 18.0594 86.934 18.3564 86.934 18.6424C86.934 19.141 86.9963 19.526 87.121 19.7974C87.2456 20.0614 87.4033 20.2374 87.594 20.3254C87.7773 20.4134 88.0816 20.4574 88.507 20.4574C88.8443 20.4574 89.2843 20.428 89.827 20.3694L89.948 21.6564ZM91.2316 15.5954H93.2226V17.8944H94.9276V15.5954H96.9186V21.8654H94.9276V19.1594H93.2226V21.8654H91.2316V15.5954ZM102.211 20.4904H100.385L100.055 21.8654H98.0312L100.055 15.5954H102.64L104.576 21.8654H102.541L102.211 20.4904ZM101.287 16.9484L100.638 19.2694H101.947L101.331 16.9484H101.287ZM107.51 19.3354V21.8654H105.673V15.5954H107.532L109.193 18.1254C109.442 18.4994 109.633 18.8147 109.765 19.0714H109.798V18.0154V15.5954H111.624V21.8654H109.754L108.049 19.2254L107.554 18.4774H107.521L107.51 19.3354ZM115.096 19.3354V21.8654H113.259V15.5954H115.118L116.779 18.1254C117.029 18.4994 117.219 18.8147 117.351 19.0714H117.384V18.0154V15.5954H119.21V21.8654H117.34L115.635 19.2254L115.14 18.4774H115.107L115.096 19.3354ZM120.79 15.5954H125.355V16.9154H122.77V18.0594H124.948V19.2474H122.77V20.5234H125.344V21.8654H120.79V15.5954ZM126.723 15.5954H128.703V20.4134H131.266V21.8654H126.723V15.5954ZM142.816 21.8654H140.968L140.825 18.4114C140.803 17.7294 140.777 17.2124 140.748 16.8604H140.715C140.627 17.139 140.524 17.5717 140.407 18.1584L140.352 18.4334L139.593 21.8654H137.745L137.107 18.7744L136.997 18.2244C136.843 17.5424 136.736 17.0877 136.678 16.8604H136.645C136.615 17.227 136.59 17.8247 136.568 18.6534C136.56 18.7047 136.557 18.7854 136.557 18.8954L136.458 21.8654H134.599L134.863 15.5954H138.009L138.548 18.3014L138.68 19.0274C138.738 18.8 138.793 18.547 138.845 18.2684L139.351 15.5954H142.563L142.816 21.8654ZM144.347 15.5954H146.327V21.8654H144.347V15.5954ZM149.014 18.6534L147.54 15.5954H149.564L150.576 18.0594L151.621 15.5954H153.59L152.138 18.6534L153.689 21.8764H151.665L150.576 19.2144L149.454 21.8764H147.419L149.014 18.6534ZM154.716 15.5954H159.281V16.9154H156.696V18.0594H158.874V19.2474H156.696V20.5234H159.27V21.8654H154.716V15.5954ZM166.38 21.8654H164.301L163.927 20.2814C163.912 20.2227 163.887 20.1237 163.85 19.9844C163.821 19.8377 163.784 19.7314 163.74 19.6654C163.696 19.592 163.634 19.5444 163.553 19.5224C163.348 19.5297 163.047 19.5334 162.651 19.5334V21.8654H160.671V15.6504C161.558 15.5844 162.387 15.5514 163.157 15.5514C163.854 15.5514 164.418 15.61 164.851 15.7274C165.284 15.8374 165.606 16.0317 165.819 16.3104C166.039 16.5817 166.149 16.9557 166.149 17.4324C166.149 17.8797 166.046 18.2317 165.841 18.4884C165.636 18.7377 165.306 18.888 164.851 18.9394V19.0054C165.108 19.0274 165.32 19.1117 165.489 19.2584C165.665 19.3977 165.782 19.5774 165.841 19.7974L166.38 21.8654ZM162.651 18.2904C162.717 18.2977 162.845 18.3014 163.036 18.3014C163.601 18.3014 163.931 18.2537 164.026 18.1584C164.114 18.0704 164.158 17.865 164.158 17.5424C164.158 17.2417 164.077 17.0364 163.916 16.9264C163.762 16.8164 163.505 16.7614 163.146 16.7614C163.065 16.7614 162.9 16.7687 162.651 16.7834V18.2904Z" fill="white"/>
<path d="M211.934 55.0933C213.521 55.0933 214.424 54.1216 214.424 52.6323V52.0317C214.424 50.5376 213.516 49.5659 211.929 49.5659C210.347 49.5659 209.438 50.5327 209.438 52.0317V52.6323C209.438 54.1216 210.352 55.0933 211.934 55.0933ZM211.934 54.0728C211.206 54.0728 210.771 53.5308 210.771 52.6372V52.0171C210.771 51.1235 211.206 50.5864 211.934 50.5864C212.656 50.5864 213.091 51.1235 213.091 52.0171V52.6372C213.091 53.5308 212.656 54.0728 211.934 54.0728ZM218.571 54.0435C217.961 54.0435 217.536 53.6821 217.536 52.9937V49.6636H216.223V53.1401C216.223 54.3315 217.126 55.0933 218.571 55.0933C220.017 55.0933 220.92 54.3267 220.92 53.1401V49.6636H219.611V52.9937C219.611 53.6772 219.182 54.0435 218.571 54.0435ZM225.292 54.9956V50.6841H226.84V49.6636H222.436V50.6841H223.983V54.9956H225.292Z" fill="white"/>
<path d="M211.621 137V133.65H211.689L212.915 136.219H213.696L214.917 133.65H214.976V137H216.157V131.668H214.819L213.335 134.764H213.291L211.807 131.668H210.464V137H211.621ZM219.567 137V131.668H218.259V137H219.567ZM226.186 131.668H224.726L223.676 133.484H223.617L222.567 131.668H221.034L222.729 134.314L221.029 137H222.436L223.529 135.228H223.588L224.682 137H226.166L224.423 134.334L226.186 131.668ZM213.868 142.041C213.868 141.128 214.259 140.605 214.962 140.605C215.582 140.605 215.992 141.025 215.992 141.631H217.247V141.489C217.247 140.322 216.271 139.57 214.952 139.57C213.414 139.57 212.535 140.537 212.535 142.041V142.642C212.535 144.136 213.414 145.098 214.952 145.098C216.256 145.098 217.247 144.37 217.247 143.223V143.076H215.992C215.992 143.652 215.582 144.067 214.957 144.067C214.259 144.067 213.868 143.545 213.868 142.646V142.041ZM221.985 145L223.782 139.668H222.332L221.233 143.672H221.17L220.057 139.668H218.538L220.359 145H221.985Z" fill="white"/>
<path d="M13.9972 163.093C15.5841 163.093 16.4874 162.122 16.4874 160.632V160.032C16.4874 158.538 15.5792 157.566 13.9923 157.566C12.4103 157.566 11.5021 158.533 11.5021 160.032V160.632C11.5021 162.122 12.4152 163.093 13.9972 163.093ZM13.9972 162.073C13.2697 162.073 12.8351 161.531 12.8351 160.637V160.017C12.8351 159.124 13.2697 158.586 13.9972 158.586C14.7198 158.586 15.1544 159.124 15.1544 160.017V160.637C15.1544 161.531 14.7198 162.073 13.9972 162.073ZM20.6349 162.043C20.0245 162.043 19.5997 161.682 19.5997 160.994V157.664H18.2863V161.14C18.2863 162.332 19.1896 163.093 20.6349 163.093C22.0802 163.093 22.9835 162.327 22.9835 161.14V157.664H21.6749V160.994C21.6749 161.677 21.2452 162.043 20.6349 162.043ZM27.3556 162.996V158.684H28.9034V157.664H24.4991V158.684H26.047V162.996H27.3556Z" fill="white"/>
<path d="M7.36719 323V319.65H7.43555L8.66113 322.219H9.44238L10.6631 319.65H10.7217V323H11.9033V317.668H10.5654L9.08105 320.764H9.03711L7.55273 317.668H6.20996V323H7.36719ZM16.2852 322.048C15.6748 322.048 15.25 321.687 15.25 320.998V317.668H13.9365V321.145C13.9365 322.336 14.8398 323.098 16.2852 323.098C17.7305 323.098 18.6338 322.331 18.6338 321.145V317.668H17.3252V320.998C17.3252 321.682 16.8955 322.048 16.2852 322.048ZM23.0059 323V318.688H24.5537V317.668H20.1494V318.688H21.6973V323H23.0059ZM29.9561 322.004H27.5V320.778H29.8047V319.851H27.5V318.664H29.9561V317.668H26.2061V323H29.9561V322.004Z" fill="white"/>
<path d="M36.7451 342.041C36.7451 341.128 37.1357 340.605 37.8389 340.605C38.459 340.605 38.8691 341.025 38.8691 341.631H40.124V341.489C40.124 340.322 39.1475 339.57 37.8291 339.57C36.291 339.57 35.4121 340.537 35.4121 342.041V342.642C35.4121 344.136 36.291 345.098 37.8291 345.098C39.1328 345.098 40.124 344.37 40.124 343.223V343.076H38.8691C38.8691 343.652 38.459 344.067 37.834 344.067C37.1357 344.067 36.7451 343.545 36.7451 342.646V342.041ZM46.7178 345V339.668H45.4092V341.792H43.2705V339.668H41.9619V345H43.2705V342.808H45.4092V345H46.7178ZM54.0068 345V339.668H52.7129L51.3799 340.557V341.67L52.6494 340.825H52.7129V345H54.0068Z" fill="white"/>
<path d="M76.3008 342.041C76.3008 341.128 76.6914 340.605 77.3945 340.605C78.0146 340.605 78.4248 341.025 78.4248 341.631H79.6797V341.489C79.6797 340.322 78.7031 339.57 77.3848 339.57C75.8467 339.57 74.9678 340.537 74.9678 342.041V342.642C74.9678 344.136 75.8467 345.098 77.3848 345.098C78.6885 345.098 79.6797 344.37 79.6797 343.223V343.076H78.4248C78.4248 343.652 78.0146 344.067 77.3896 344.067C76.6914 344.067 76.3008 343.545 76.3008 342.646V342.041ZM86.2734 345V339.668H84.9648V341.792H82.8262V339.668H81.5176V345H82.8262V342.808H84.9648V345H86.2734ZM92.1562 341.323C92.1562 341.309 92.1562 341.274 92.1562 341.245C92.1562 340.879 92.4346 340.557 92.9033 340.557C93.333 340.557 93.6504 340.84 93.6504 341.206C93.6504 341.621 93.3281 341.943 93.0303 342.231L90.9941 344.229V345H95.0322V344.004H92.7715V343.945L93.9336 342.778C94.4072 342.31 94.9395 341.851 94.9395 341.084C94.9395 340.225 94.1484 339.57 92.9277 339.57C91.5508 339.57 90.9258 340.439 90.9258 341.255V341.323H92.1562Z" fill="white"/>
<path d="M116.242 342.041C116.242 341.128 116.633 340.605 117.336 340.605C117.956 340.605 118.366 341.025 118.366 341.631H119.621V341.489C119.621 340.322 118.645 339.57 117.326 339.57C115.788 339.57 114.909 340.537 114.909 342.041V342.642C114.909 344.136 115.788 345.098 117.326 345.098C118.63 345.098 119.621 344.37 119.621 343.223V343.076H118.366C118.366 343.652 117.956 344.067 117.331 344.067C116.633 344.067 116.242 343.545 116.242 342.646V342.041ZM126.215 345V339.668H124.906V341.792H122.768V339.668H121.459V345H122.768V342.808H124.906V345H126.215ZM132.249 342.72H132.884C133.445 342.72 133.777 343.032 133.782 343.428C133.782 343.853 133.416 344.146 132.864 344.146C132.347 344.146 131.966 343.882 131.946 343.525H130.76C130.774 344.365 131.502 345.098 132.864 345.098C134.026 345.098 135.081 344.561 135.071 343.501C135.062 342.661 134.397 342.28 133.865 342.236V342.173C134.271 342.109 134.92 341.733 134.91 340.977C134.9 340.156 134.134 339.57 132.903 339.57C131.619 339.575 130.877 340.22 130.843 341.138H132.049C132.063 340.815 132.376 340.508 132.854 340.508C133.299 340.508 133.641 340.767 133.646 341.147C133.646 341.514 133.323 341.792 132.854 341.792H132.249V342.72Z" fill="white"/>
<path d="M155.659 342.041C155.659 341.128 156.05 340.605 156.753 340.605C157.373 340.605 157.783 341.025 157.783 341.631H159.038V341.489C159.038 340.322 158.062 339.57 156.743 339.57C155.205 339.57 154.326 340.537 154.326 342.041V342.642C154.326 344.136 155.205 345.098 156.743 345.098C158.047 345.098 159.038 344.37 159.038 343.223V343.076H157.783C157.783 343.652 157.373 344.067 156.748 344.067C156.05 344.067 155.659 343.545 155.659 342.646V342.041ZM165.632 345V339.668H164.323V341.792H162.185V339.668H160.876V345H162.185V342.808H164.323V345H165.632ZM172.242 339.668C171.534 340.791 170.802 341.924 170.167 343.071V344.077H172.887V345H174.107V344.077H174.776V343.091H174.107V339.668H172.242ZM171.31 343.091V343.066C171.778 342.202 172.306 341.377 172.823 340.576H172.887V343.091H171.31Z" fill="white"/>
<path d="M16.8575 73.9956V68.6636H15.549V73.9956H16.8575ZM20.17 73.9956V70.7485H20.2189L22.5333 73.9956H23.5734V68.6636H22.3478V71.8813H22.299L19.9943 68.6636H18.9493V73.9956H20.17Z" fill="white"/>
<path d="M13.6847 40.9956V37.646H13.7531L14.9786 40.2144H15.7599L16.9806 37.646H17.0392V40.9956H18.2208V35.6636H16.8829L15.3986 38.7593H15.3546L13.8702 35.6636H12.5275V40.9956H13.6847ZM21.631 40.9956V35.6636H20.3224V40.9956H21.631ZM28.2491 35.6636H26.7892L25.7394 37.48H25.6808L24.631 35.6636H23.0978L24.7921 38.3101L23.0929 40.9956H24.4991L25.5929 39.2231H25.6515L26.7452 40.9956H28.2296L26.4865 38.3296L28.2491 35.6636ZM17.3575 48.9956V43.6636H16.049V48.9956H17.3575ZM20.67 48.9956V45.7485H20.7189L23.0333 48.9956H24.0734V43.6636H22.8478V46.8813H22.799L20.4943 43.6636H19.4493V48.9956H20.67Z" fill="white"/>
<path d="M16.0118 99.9556H13.7218V95.6636H12.4132V100.996H16.0118V99.9556ZM20.2277 100.996L22.0245 95.6636H20.5743L19.4757 99.6675H19.4122L18.299 95.6636H16.7804L18.6017 100.996H20.2277ZM27.1681 99.9556H24.8781V95.6636H23.5695V100.996H27.1681V99.9556ZM15.4318 106.037C15.4318 105.124 15.8224 104.601 16.5255 104.601C17.1456 104.601 17.5558 105.021 17.5558 105.626H18.8107V105.485C18.8107 104.318 17.8341 103.566 16.5157 103.566C14.9777 103.566 14.0988 104.533 14.0988 106.037V106.637C14.0988 108.131 14.9777 109.093 16.5157 109.093C17.8195 109.093 18.8107 108.366 18.8107 107.218V107.072H17.5558C17.5558 107.648 17.1456 108.063 16.5206 108.063C15.8224 108.063 15.4318 107.541 15.4318 106.642V106.037ZM23.549 108.996L25.3458 103.664H23.8956L22.797 107.667H22.7335L21.6202 103.664H20.1017L21.923 108.996H23.549Z" fill="white"/>
<path d="M16.0773 126.47C16.0773 125.479 15.3888 124.664 14.1193 124.664H11.7657V129.996H13.0695V128.326H14.1095C15.379 128.326 16.0773 127.471 16.0773 126.47ZM14.7491 126.5C14.7491 127.037 14.4366 127.378 13.8947 127.378H13.0646V125.625H13.8458C14.4171 125.625 14.7491 125.943 14.7491 126.5ZM18.2228 129.996L18.6085 128.746H20.3907L20.7667 129.996H22.1534L20.3273 124.664H18.7452L16.9142 129.996H18.2228ZM19.5363 125.796L20.1466 127.837H18.8527L19.4728 125.796H19.5363ZM24.9532 129.996V126.749H25.0021L27.3165 129.996H28.3566V124.664H27.131V127.881H27.0822L24.7775 124.664H23.7325V129.996H24.9532ZM15.9318 135.037C15.9318 134.124 16.3224 133.601 17.0255 133.601C17.6456 133.601 18.0558 134.021 18.0558 134.626H19.3107V134.485C19.3107 133.318 18.3341 132.566 17.0157 132.566C15.4777 132.566 14.5988 133.533 14.5988 135.037V135.637C14.5988 137.131 15.4777 138.093 17.0157 138.093C18.3195 138.093 19.3107 137.366 19.3107 136.218V136.072H18.0558C18.0558 136.648 17.6456 137.063 17.0206 137.063C16.3224 137.063 15.9318 136.541 15.9318 135.642V135.037ZM24.049 137.996L25.8458 132.664H24.3956L23.297 136.667H23.2335L22.1202 132.664H20.6017L22.423 137.996H24.049Z" fill="white"/>
<rect x="100" y="38.5" width="7" height="7" rx="1" fill="white"/>
<path d="M106.011 44.5H104.31L104.004 43.204C103.992 43.156 103.971 43.075 103.941 42.961C103.917 42.841 103.887 42.754 103.851 42.7C103.815 42.64 103.764 42.601 103.698 42.583C103.53 42.589 103.284 42.592 102.96 42.592V44.5H101.34V39.415C102.066 39.361 102.744 39.334 103.374 39.334C103.944 39.334 104.406 39.382 104.76 39.478C105.114 39.568 105.378 39.727 105.552 39.955C105.732 40.177 105.822 40.483 105.822 40.873C105.822 41.239 105.738 41.527 105.57 41.737C105.402 41.941 105.132 42.064 104.76 42.106V42.16C104.97 42.178 105.144 42.247 105.282 42.367C105.426 42.481 105.522 42.628 105.57 42.808L106.011 44.5ZM102.96 41.575C103.014 41.581 103.119 41.584 103.275 41.584C103.737 41.584 104.007 41.545 104.085 41.467C104.157 41.395 104.193 41.227 104.193 40.963C104.193 40.717 104.127 40.549 103.995 40.459C103.869 40.369 103.659 40.324 103.365 40.324C103.299 40.324 103.164 40.33 102.96 40.342V41.575Z" fill="#457B9D"/>
<rect x="196" y="98.5" width="7" height="7" rx="1" fill="white"/>
<path d="M202.011 104.5H200.31L200.004 103.204C199.992 103.156 199.971 103.075 199.941 102.961C199.917 102.841 199.887 102.754 199.851 102.7C199.815 102.64 199.764 102.601 199.698 102.583C199.53 102.589 199.284 102.592 198.96 102.592V104.5H197.34V99.415C198.066 99.361 198.744 99.334 199.374 99.334C199.944 99.334 200.406 99.382 200.76 99.478C201.114 99.568 201.378 99.727 201.552 99.955C201.732 100.177 201.822 100.483 201.822 100.873C201.822 101.239 201.738 101.527 201.57 101.737C201.402 101.941 201.132 102.064 200.76 102.106V102.16C200.97 102.178 201.144 102.247 201.282 102.367C201.426 102.481 201.522 102.628 201.57 102.808L202.011 104.5ZM198.96 101.575C199.014 101.581 199.119 101.584 199.275 101.584C199.737 101.584 200.007 101.545 200.085 101.467C200.157 101.395 200.193 101.227 200.193 100.963C200.193 100.717 200.127 100.549 199.995 100.459C199.869 100.369 199.659 100.324 199.365 100.324C199.299 100.324 199.164 100.33 198.96 100.342V101.575Z" fill="#457B9D"/>
<rect x="60" y="38.5" width="7" height="7" rx="1" fill="white"/>
<path d="M61.7919 39.37H63.4119V43.312H65.5089V44.5H61.7919V39.37Z" fill="#457B9D"/>
<rect x="196" y="68.5" width="7" height="7" rx="1" fill="white"/>
<path d="M197.792 69.37H199.412V73.312H201.509V74.5H197.792V69.37Z" fill="#457B9D"/>
<path d="M13.0137 196.475C13.0137 195.483 12.3252 194.668 11.0557 194.668H8.70215V200H10.0059V198.33H11.0459C12.3154 198.33 13.0137 197.476 13.0137 196.475ZM11.6855 196.504C11.6855 197.041 11.373 197.383 10.8311 197.383H10.001V195.63H10.7822C11.3535 195.63 11.6855 195.947 11.6855 196.504ZM15.1592 200L15.5449 198.75H17.3271L17.7031 200H19.0898L17.2637 194.668H15.6816L13.8506 200H15.1592ZM16.4727 195.801L17.083 197.842H15.7891L16.4092 195.801H16.4727ZM21.8896 200V196.753H21.9385L24.2529 200H25.293V194.668H24.0674V197.886H24.0186L21.7139 194.668H20.6689V200H21.8896Z" fill="white"/>
</svg>
