<svg width="390" height="380" viewBox="0 0 390 380" fill="none" xmlns="http://www.w3.org/2000/svg">
<rect width="390" height="380" fill="#457B9D"/>
<g opacity="0.3">
<path fill-rule="evenodd" clip-rule="evenodd" d="M188.958 375.599C188.803 375.747 188.659 375.851 188.526 375.909C188.393 375.968 188.251 375.998 188.1 375.998C187.948 375.998 187.806 375.97 187.673 375.914C187.54 375.858 187.424 375.781 187.325 375.682C187.109 375.466 187 375.209 187 374.912V369.385C187 369.082 187.078 368.847 187.232 368.68C187.498 368.408 187.75 368.272 187.988 368.272C188.226 368.272 188.404 368.296 188.522 368.346C188.639 368.395 188.738 368.457 188.818 368.531C188.924 368.624 189.002 368.723 189.055 368.828C189.108 368.933 189.151 369.011 189.185 369.06C189.219 369.11 189.275 369.134 189.352 369.134C189.429 369.134 189.496 369.11 189.551 369.06L189.709 368.902C190.16 368.482 190.612 368.272 191.063 368.272C191.861 368.272 192.519 368.599 193.039 369.255C193.088 369.323 193.15 369.357 193.224 369.357C193.354 369.357 193.486 369.256 193.619 369.055C193.752 368.854 193.966 368.674 194.263 368.513C194.56 368.352 194.906 368.272 195.302 368.272C195.698 368.272 196.058 368.344 196.383 368.49C196.707 368.635 196.99 368.834 197.231 369.088C197.738 369.62 197.992 370.263 197.992 371.017V374.912C197.992 375.382 197.769 375.713 197.324 375.905C197.188 375.967 197.044 375.998 196.893 375.998C196.741 375.998 196.599 375.97 196.466 375.914C196.333 375.858 196.217 375.781 196.118 375.682C195.908 375.46 195.803 375.203 195.803 374.912V371.045C195.803 370.736 195.726 370.504 195.571 370.349C195.299 370.077 195.049 369.941 194.82 369.941C194.591 369.941 194.412 369.971 194.282 370.029C194.152 370.088 194.034 370.17 193.929 370.275C193.713 370.492 193.605 370.742 193.605 371.026V374.912C193.605 375.382 193.385 375.713 192.946 375.905C192.81 375.967 192.666 375.998 192.515 375.998C192.363 375.998 192.22 375.97 192.083 375.914C191.947 375.858 191.83 375.781 191.731 375.682C191.515 375.466 191.406 375.209 191.406 374.912V371.045C191.406 370.736 191.329 370.504 191.174 370.349C190.902 370.077 190.618 369.941 190.321 369.941C189.826 369.941 189.483 370.133 189.292 370.516C189.23 370.64 189.199 370.779 189.199 370.934V374.912C189.199 375.215 189.118 375.444 188.958 375.599ZM200.219 369.387C200.219 369.084 200.296 368.849 200.451 368.682C200.716 368.41 201.01 368.274 201.332 368.274C201.641 368.274 201.87 368.355 202.018 368.515C202.29 368.794 202.426 369.084 202.426 369.387V374.915C202.426 375.212 202.349 375.437 202.194 375.592C201.922 375.864 201.672 376 201.443 376C201.214 376 201.032 375.971 200.896 375.912C200.76 375.853 200.642 375.777 200.543 375.685C200.327 375.474 200.219 375.218 200.219 374.915V369.387ZM201.327 365.9C201.065 365.9 200.852 365.687 200.852 365.425C200.852 365.162 201.065 364.95 201.327 364.95C201.589 364.95 201.802 365.162 201.802 365.425C201.802 365.687 201.589 365.9 201.327 365.9ZM201.327 364C201.714 364 202.048 364.142 202.329 364.425C202.611 364.709 202.752 364.996 202.752 365.287C202.752 365.577 202.713 365.807 202.635 365.978C202.558 366.148 202.456 366.297 202.329 366.424C202.048 366.708 201.714 366.849 201.327 366.849C200.94 366.849 200.606 366.708 200.324 366.424C200.043 366.141 199.902 365.857 199.902 365.574C199.902 365.092 200.043 364.709 200.324 364.425C200.606 364.142 200.94 364 201.327 364Z" fill="#1D3557"/>
</g>
<path d="M152.691 18.4004C153.16 18.613 153.501 18.8624 153.714 19.1484C153.927 19.427 154.033 19.7607 154.033 20.1494C154.033 20.7434 153.776 21.198 153.263 21.5134C152.757 21.8287 152.123 21.9864 151.36 21.9864C150.605 21.9864 149.989 21.8544 149.512 21.5904C149.043 21.319 148.808 20.9157 148.808 20.3804C148.808 20.0797 148.918 19.7827 149.138 19.4894C149.365 19.196 149.684 18.9577 150.095 18.7744C149.743 18.569 149.472 18.3234 149.281 18.0374C149.098 17.744 149.006 17.458 149.006 17.1794C149.006 16.6294 149.241 16.215 149.71 15.9364C150.179 15.6577 150.759 15.5184 151.448 15.5184C152.995 15.5184 153.769 16.0244 153.769 17.0364C153.769 17.5057 153.41 17.9604 152.691 18.4004ZM151.459 16.5854C151.246 16.5854 151.085 16.6367 150.975 16.7394C150.872 16.8347 150.821 16.985 150.821 17.1904C150.821 17.3737 150.898 17.5277 151.052 17.6524C151.213 17.7697 151.43 17.8834 151.701 17.9934C152.06 17.744 152.24 17.4874 152.24 17.2234C152.24 17.0034 152.174 16.842 152.042 16.7394C151.917 16.6367 151.723 16.5854 151.459 16.5854ZM151.382 20.9304C151.58 20.9304 151.752 20.8754 151.899 20.7654C152.046 20.648 152.119 20.4867 152.119 20.2814C152.119 20.0834 152.046 19.922 151.899 19.7974C151.76 19.6654 151.525 19.5187 151.195 19.3574C150.997 19.4967 150.839 19.6397 150.722 19.7864C150.612 19.933 150.557 20.098 150.557 20.2814C150.557 20.4794 150.641 20.637 150.81 20.7544C150.986 20.8717 151.177 20.9304 151.382 20.9304ZM155.33 18.2464H158.63V19.8194H155.33V18.2464ZM165.023 21.6564C164.752 21.7737 164.436 21.858 164.077 21.9094C163.718 21.9607 163.384 21.9864 163.076 21.9864C162.079 21.9864 161.298 21.726 160.733 21.2054C160.168 20.6847 159.886 19.8854 159.886 18.8074C159.886 17.7074 160.183 16.886 160.777 16.3434C161.371 15.7934 162.207 15.5184 163.285 15.5184C163.798 15.5184 164.334 15.588 164.891 15.7274C164.891 15.874 164.876 16.094 164.847 16.3874C164.818 16.6734 164.788 16.875 164.759 16.9924H164.066C163.56 16.9924 163.16 17.0034 162.867 17.0254C162.581 17.04 162.409 17.073 162.35 17.1244C162.24 17.227 162.156 17.436 162.097 17.7514C162.038 18.0594 162.009 18.3564 162.009 18.6424C162.009 19.141 162.071 19.526 162.196 19.7974C162.321 20.0614 162.478 20.2374 162.669 20.3254C162.852 20.4134 163.157 20.4574 163.582 20.4574C163.919 20.4574 164.359 20.428 164.902 20.3694L165.023 21.6564ZM166.307 15.5954H168.298V17.8944H170.003V15.5954H171.994V21.8654H170.003V19.1594H168.298V21.8654H166.307V15.5954ZM177.286 20.4904H175.46L175.13 21.8654H173.106L175.13 15.5954H177.715L179.651 21.8654H177.616L177.286 20.4904ZM176.362 16.9484L175.713 19.2694H177.022L176.406 16.9484H176.362ZM182.585 19.3354V21.8654H180.748V15.5954H182.607L184.268 18.1254C184.518 18.4994 184.708 18.8147 184.84 19.0714H184.873V18.0154V15.5954H186.699V21.8654H184.829L183.124 19.2254L182.629 18.4774H182.596L182.585 19.3354ZM190.171 19.3354V21.8654H188.334V15.5954H190.193L191.854 18.1254C192.104 18.4994 192.294 18.8147 192.426 19.0714H192.459V18.0154V15.5954H194.285V21.8654H192.415L190.71 19.2254L190.215 18.4774H190.182L190.171 19.3354ZM195.866 15.5954H200.431V16.9154H197.846V18.0594H200.024V19.2474H197.846V20.5234H200.42V21.8654H195.866V15.5954ZM201.798 15.5954H203.778V20.4134H206.341V21.8654H201.798V15.5954ZM217.891 21.8654H216.043L215.9 18.4114C215.878 17.7294 215.852 17.2124 215.823 16.8604H215.79C215.702 17.139 215.599 17.5717 215.482 18.1584L215.427 18.4334L214.668 21.8654H212.82L212.182 18.7744L212.072 18.2244C211.918 17.5424 211.812 17.0877 211.753 16.8604H211.72C211.691 17.227 211.665 17.8247 211.643 18.6534C211.636 18.7047 211.632 18.7854 211.632 18.8954L211.533 21.8654H209.674L209.938 15.5954H213.084L213.623 18.3014L213.755 19.0274C213.814 18.8 213.869 18.547 213.92 18.2684L214.426 15.5954H217.638L217.891 21.8654ZM219.423 15.5954H221.403V21.8654H219.423V15.5954ZM224.089 18.6534L222.615 15.5954H224.639L225.651 18.0594L226.696 15.5954H228.665L227.213 18.6534L228.764 21.8764H226.74L225.651 19.2144L224.529 21.8764H222.494L224.089 18.6534ZM229.792 15.5954H234.357V16.9154H231.772V18.0594H233.95V19.2474H231.772V20.5234H234.346V21.8654H229.792V15.5954ZM241.455 21.8654H239.376L239.002 20.2814C238.988 20.2227 238.962 20.1237 238.925 19.9844C238.896 19.8377 238.859 19.7314 238.815 19.6654C238.771 19.592 238.709 19.5444 238.628 19.5224C238.423 19.5297 238.122 19.5334 237.726 19.5334V21.8654H235.746V15.6504C236.634 15.5844 237.462 15.5514 238.232 15.5514C238.929 15.5514 239.494 15.61 239.926 15.7274C240.359 15.8374 240.682 16.0317 240.894 16.3104C241.114 16.5817 241.224 16.9557 241.224 17.4324C241.224 17.8797 241.122 18.2317 240.916 18.4884C240.711 18.7377 240.381 18.888 239.926 18.9394V19.0054C240.183 19.0274 240.396 19.1117 240.564 19.2584C240.74 19.3977 240.858 19.5774 240.916 19.7974L241.455 21.8654ZM237.726 18.2904C237.792 18.2977 237.921 18.3014 238.111 18.3014C238.676 18.3014 239.006 18.2537 239.101 18.1584C239.189 18.0704 239.233 17.865 239.233 17.5424C239.233 17.2417 239.153 17.0364 238.991 16.9264C238.837 16.8164 238.581 16.7614 238.221 16.7614C238.141 16.7614 237.976 16.7687 237.726 16.7834V18.2904Z" fill="white"/>
<path d="M361.934 55.0977C363.521 55.0977 364.424 54.126 364.424 52.6367V52.0361C364.424 50.542 363.516 49.5703 361.929 49.5703C360.347 49.5703 359.438 50.5371 359.438 52.0361V52.6367C359.438 54.126 360.352 55.0977 361.934 55.0977ZM361.934 54.0771C361.206 54.0771 360.771 53.5352 360.771 52.6416V52.0215C360.771 51.1279 361.206 50.5908 361.934 50.5908C362.656 50.5908 363.091 51.1279 363.091 52.0215V52.6416C363.091 53.5352 362.656 54.0771 361.934 54.0771ZM368.571 54.0479C367.961 54.0479 367.536 53.6865 367.536 52.998V49.668H366.223V53.1445C366.223 54.3359 367.126 55.0977 368.571 55.0977C370.017 55.0977 370.92 54.3311 370.92 53.1445V49.668H369.611V52.998C369.611 53.6816 369.182 54.0479 368.571 54.0479ZM375.292 55V50.6885H376.84V49.668H372.436V50.6885H373.983V55H375.292Z" fill="white"/>
<path d="M361.621 137V133.65H361.689L362.915 136.219H363.696L364.917 133.65H364.976V137H366.157V131.668H364.819L363.335 134.764H363.291L361.807 131.668H360.464V137H361.621ZM369.567 137V131.668H368.259V137H369.567ZM376.186 131.668H374.726L373.676 133.484H373.617L372.567 131.668H371.034L372.729 134.314L371.029 137H372.436L373.529 135.228H373.588L374.682 137H376.166L374.423 134.334L376.186 131.668ZM363.868 142.041C363.868 141.128 364.259 140.605 364.962 140.605C365.582 140.605 365.992 141.025 365.992 141.631H367.247V141.489C367.247 140.322 366.271 139.57 364.952 139.57C363.414 139.57 362.535 140.537 362.535 142.041V142.642C362.535 144.136 363.414 145.098 364.952 145.098C366.256 145.098 367.247 144.37 367.247 143.223V143.076H365.992C365.992 143.652 365.582 144.067 364.957 144.067C364.259 144.067 363.868 143.545 363.868 142.646V142.041ZM371.985 145L373.782 139.668H372.332L371.233 143.672H371.17L370.057 139.668H368.538L370.359 145H371.985Z" fill="white"/>
<path d="M13.9972 163.093C15.5841 163.093 16.4874 162.122 16.4874 160.632V160.032C16.4874 158.538 15.5792 157.566 13.9923 157.566C12.4103 157.566 11.5021 158.533 11.5021 160.032V160.632C11.5021 162.122 12.4152 163.093 13.9972 163.093ZM13.9972 162.073C13.2697 162.073 12.8351 161.531 12.8351 160.637V160.017C12.8351 159.124 13.2697 158.586 13.9972 158.586C14.7198 158.586 15.1544 159.124 15.1544 160.017V160.637C15.1544 161.531 14.7198 162.073 13.9972 162.073ZM20.6349 162.043C20.0245 162.043 19.5997 161.682 19.5997 160.994V157.664H18.2863V161.14C18.2863 162.332 19.1896 163.093 20.6349 163.093C22.0802 163.093 22.9835 162.327 22.9835 161.14V157.664H21.6749V160.994C21.6749 161.677 21.2452 162.043 20.6349 162.043ZM27.3556 162.996V158.684H28.9034V157.664H24.4991V158.684H26.047V162.996H27.3556Z" fill="white"/>
<path d="M7.36719 323V319.65H7.43555L8.66113 322.219H9.44238L10.6631 319.65H10.7217V323H11.9033V317.668H10.5654L9.08105 320.764H9.03711L7.55273 317.668H6.20996V323H7.36719ZM16.2852 322.048C15.6748 322.048 15.25 321.687 15.25 320.998V317.668H13.9365V321.145C13.9365 322.336 14.8398 323.098 16.2852 323.098C17.7305 323.098 18.6338 322.331 18.6338 321.145V317.668H17.3252V320.998C17.3252 321.682 16.8955 322.048 16.2852 322.048ZM23.0059 323V318.688H24.5537V317.668H20.1494V318.688H21.6973V323H23.0059ZM29.9561 322.004H27.5V320.778H29.8047V319.851H27.5V318.664H29.9561V317.668H26.2061V323H29.9561V322.004Z" fill="white"/>
<path d="M37.7451 342.041C37.7451 341.128 38.1357 340.605 38.8389 340.605C39.459 340.605 39.8691 341.025 39.8691 341.631H41.124V341.489C41.124 340.322 40.1475 339.57 38.8291 339.57C37.291 339.57 36.4121 340.537 36.4121 342.041V342.642C36.4121 344.136 37.291 345.098 38.8291 345.098C40.1328 345.098 41.124 344.37 41.124 343.223V343.076H39.8691C39.8691 343.652 39.459 344.067 38.834 344.067C38.1357 344.067 37.7451 343.545 37.7451 342.646V342.041ZM47.7178 345V339.668H46.4092V341.792H44.2705V339.668H42.9619V345H44.2705V342.808H46.4092V345H47.7178ZM55.0068 345V339.668H53.7129L52.3799 340.557V341.67L53.6494 340.825H53.7129V345H55.0068Z" fill="white"/>
<path d="M76.3008 342.041C76.3008 341.128 76.6914 340.605 77.3945 340.605C78.0146 340.605 78.4248 341.025 78.4248 341.631H79.6797V341.489C79.6797 340.322 78.7031 339.57 77.3848 339.57C75.8467 339.57 74.9678 340.537 74.9678 342.041V342.642C74.9678 344.136 75.8467 345.098 77.3848 345.098C78.6885 345.098 79.6797 344.37 79.6797 343.223V343.076H78.4248C78.4248 343.652 78.0146 344.067 77.3896 344.067C76.6914 344.067 76.3008 343.545 76.3008 342.646V342.041ZM86.2734 345V339.668H84.9648V341.792H82.8262V339.668H81.5176V345H82.8262V342.808H84.9648V345H86.2734ZM92.1562 341.323C92.1562 341.309 92.1562 341.274 92.1562 341.245C92.1562 340.879 92.4346 340.557 92.9033 340.557C93.333 340.557 93.6504 340.84 93.6504 341.206C93.6504 341.621 93.3281 341.943 93.0303 342.231L90.9941 344.229V345H95.0322V344.004H92.7715V343.945L93.9336 342.778C94.4072 342.31 94.9395 341.851 94.9395 341.084C94.9395 340.225 94.1484 339.57 92.9277 339.57C91.5508 339.57 90.9258 340.439 90.9258 341.255V341.323H92.1562Z" fill="white"/>
<path d="M116.242 342.041C116.242 341.128 116.633 340.605 117.336 340.605C117.956 340.605 118.366 341.025 118.366 341.631H119.621V341.489C119.621 340.322 118.645 339.57 117.326 339.57C115.788 339.57 114.909 340.537 114.909 342.041V342.642C114.909 344.136 115.788 345.098 117.326 345.098C118.63 345.098 119.621 344.37 119.621 343.223V343.076H118.366C118.366 343.652 117.956 344.067 117.331 344.067C116.633 344.067 116.242 343.545 116.242 342.646V342.041ZM126.215 345V339.668H124.906V341.792H122.768V339.668H121.459V345H122.768V342.808H124.906V345H126.215ZM132.249 342.72H132.884C133.445 342.72 133.777 343.032 133.782 343.428C133.782 343.853 133.416 344.146 132.864 344.146C132.347 344.146 131.966 343.882 131.946 343.525H130.76C130.774 344.365 131.502 345.098 132.864 345.098C134.026 345.098 135.081 344.561 135.071 343.501C135.062 342.661 134.397 342.28 133.865 342.236V342.173C134.271 342.109 134.92 341.733 134.91 340.977C134.9 340.156 134.134 339.57 132.903 339.57C131.619 339.575 130.877 340.22 130.843 341.138H132.049C132.063 340.815 132.376 340.508 132.854 340.508C133.299 340.508 133.641 340.767 133.646 341.147C133.646 341.514 133.323 341.792 132.854 341.792H132.249V342.72Z" fill="white"/>
<path d="M155.659 342.041C155.659 341.128 156.05 340.605 156.753 340.605C157.373 340.605 157.783 341.025 157.783 341.631H159.038V341.489C159.038 340.322 158.062 339.57 156.743 339.57C155.205 339.57 154.326 340.537 154.326 342.041V342.642C154.326 344.136 155.205 345.098 156.743 345.098C158.047 345.098 159.038 344.37 159.038 343.223V343.076H157.783C157.783 343.652 157.373 344.067 156.748 344.067C156.05 344.067 155.659 343.545 155.659 342.646V342.041ZM165.632 345V339.668H164.323V341.792H162.185V339.668H160.876V345H162.185V342.808H164.323V345H165.632ZM172.242 339.668C171.534 340.791 170.802 341.924 170.167 343.071V344.077H172.887V345H174.107V344.077H174.776V343.091H174.107V339.668H172.242ZM171.31 343.091V343.066C171.778 342.202 172.306 341.377 172.823 340.576H172.887V343.091H171.31Z" fill="white"/>
<path d="M196.198 342.041C196.198 341.128 196.589 340.605 197.292 340.605C197.912 340.605 198.322 341.025 198.322 341.631H199.577V341.489C199.577 340.322 198.601 339.57 197.282 339.57C195.744 339.57 194.865 340.537 194.865 342.041V342.642C194.865 344.136 195.744 345.098 197.282 345.098C198.586 345.098 199.577 344.37 199.577 343.223V343.076H198.322C198.322 343.652 197.912 344.067 197.287 344.067C196.589 344.067 196.198 343.545 196.198 342.646V342.041ZM206.171 345V339.668H204.862V341.792H202.724V339.668H201.415V345H202.724V342.808H204.862V345H206.171ZM210.872 343.56C210.901 344.429 211.702 345.098 212.952 345.098C214.256 345.098 215.145 344.355 215.145 343.188C215.145 342.056 214.295 341.445 213.333 341.445C212.688 341.445 212.303 341.729 212.195 341.899H212.132L212.244 340.654H214.812V339.668H211.214L210.989 342.803H212.142C212.244 342.622 212.508 342.368 212.967 342.368C213.484 342.368 213.895 342.71 213.895 343.228C213.895 343.789 213.47 344.131 212.962 344.131C212.522 344.131 212.127 343.916 212.054 343.56H210.872Z" fill="white"/>
<path d="M236.13 342.041C236.13 341.128 236.521 340.605 237.224 340.605C237.844 340.605 238.254 341.025 238.254 341.631H239.509V341.489C239.509 340.322 238.532 339.57 237.214 339.57C235.676 339.57 234.797 340.537 234.797 342.041V342.642C234.797 344.136 235.676 345.098 237.214 345.098C238.518 345.098 239.509 344.37 239.509 343.223V343.076H238.254C238.254 343.652 237.844 344.067 237.219 344.067C236.521 344.067 236.13 343.545 236.13 342.646V342.041ZM246.103 345V339.668H244.794V341.792H242.655V339.668H241.347V345H242.655V342.808H244.794V345H246.103ZM255.052 340.981C255.013 340.337 254.373 339.575 253.069 339.575C251.629 339.575 250.735 340.532 250.735 342.432C250.735 343.198 250.896 343.774 251.16 344.189C251.58 344.834 252.259 345.098 253.021 345.098C254.256 345.098 255.164 344.409 255.164 343.213C255.164 342.08 254.29 341.509 253.392 341.509C252.659 341.509 252.239 341.851 252.068 342.212H251.985C251.951 341.323 252.342 340.542 253.06 340.542C253.479 340.542 253.738 340.757 253.821 340.981H255.052ZM252.132 343.262C252.132 342.759 252.488 342.402 253.021 342.402C253.514 342.402 253.914 342.715 253.914 343.262C253.914 343.828 253.533 344.136 253.021 344.136C252.508 344.136 252.132 343.799 252.132 343.262Z" fill="white"/>
<path d="M276.908 342.041C276.908 341.128 277.299 340.605 278.002 340.605C278.622 340.605 279.032 341.025 279.032 341.631H280.287V341.489C280.287 340.322 279.311 339.57 277.992 339.57C276.454 339.57 275.575 340.537 275.575 342.041V342.642C275.575 344.136 276.454 345.098 277.992 345.098C279.296 345.098 280.287 344.37 280.287 343.223V343.076H279.032C279.032 343.652 278.622 344.067 277.997 344.067C277.299 344.067 276.908 343.545 276.908 342.646V342.041ZM286.881 345V339.668H285.572V341.792H283.434V339.668H282.125V345H283.434V342.808H285.572V345H286.881ZM291.455 339.668V340.669H294.175V340.723L291.831 345H293.208L295.483 340.688V339.668H291.455Z" fill="white"/>
<path d="M315.596 342.041C315.596 341.128 315.986 340.605 316.689 340.605C317.31 340.605 317.72 341.025 317.72 341.631H318.975V341.489C318.975 340.322 317.998 339.57 316.68 339.57C315.142 339.57 314.263 340.537 314.263 342.041V342.642C314.263 344.136 315.142 345.098 316.68 345.098C317.983 345.098 318.975 344.37 318.975 343.223V343.076H317.72C317.72 343.652 317.31 344.067 316.685 344.067C315.986 344.067 315.596 343.545 315.596 342.646V342.041ZM325.568 345V339.668H324.26V341.792H322.121V339.668H320.812V345H322.121V342.808H324.26V345H325.568ZM332.438 345.098C333.839 345.098 334.718 344.448 334.718 343.525C334.718 342.681 334.049 342.305 333.517 342.212V342.163C334.034 342.012 334.498 341.66 334.498 340.977C334.498 340.171 333.702 339.57 332.447 339.57C331.188 339.57 330.392 340.171 330.392 340.977C330.392 341.655 330.846 342.012 331.373 342.163V342.212C330.841 342.305 330.167 342.676 330.167 343.53C330.167 344.453 331.036 345.098 332.438 345.098ZM332.447 341.826C331.983 341.826 331.642 341.538 331.642 341.128C331.642 340.723 331.983 340.444 332.447 340.444C332.906 340.444 333.248 340.723 333.248 341.128C333.248 341.538 332.906 341.826 332.447 341.826ZM332.447 344.233C331.896 344.233 331.471 343.911 331.471 343.433C331.471 342.954 331.896 342.627 332.447 342.627C332.994 342.627 333.419 342.954 333.419 343.433C333.419 343.911 332.994 344.233 332.447 344.233Z" fill="white"/>
<path d="M16.8575 73.9956V68.6636H15.549V73.9956H16.8575ZM20.17 73.9956V70.7485H20.2189L22.5333 73.9956H23.5734V68.6636H22.3478V71.8813H22.299L19.9943 68.6636H18.9493V73.9956H20.17Z" fill="white"/>
<path d="M13.6847 40.9956V37.646H13.7531L14.9786 40.2144H15.7599L16.9806 37.646H17.0392V40.9956H18.2208V35.6636H16.8829L15.3986 38.7593H15.3546L13.8702 35.6636H12.5275V40.9956H13.6847ZM21.631 40.9956V35.6636H20.3224V40.9956H21.631ZM28.2491 35.6636H26.7892L25.7394 37.48H25.6808L24.631 35.6636H23.0978L24.7921 38.3101L23.0929 40.9956H24.4991L25.5929 39.2231H25.6515L26.7452 40.9956H28.2296L26.4865 38.3296L28.2491 35.6636ZM17.3575 48.9956V43.6636H16.049V48.9956H17.3575ZM20.67 48.9956V45.7485H20.7189L23.0333 48.9956H24.0734V43.6636H22.8478V46.8813H22.799L20.4943 43.6636H19.4493V48.9956H20.67Z" fill="white"/>
<path d="M16.0118 99.9556H13.7218V95.6636H12.4132V100.996H16.0118V99.9556ZM20.2277 100.996L22.0245 95.6636H20.5743L19.4757 99.6675H19.4122L18.299 95.6636H16.7804L18.6017 100.996H20.2277ZM27.1681 99.9556H24.8781V95.6636H23.5695V100.996H27.1681V99.9556ZM15.4318 106.037C15.4318 105.124 15.8224 104.601 16.5255 104.601C17.1456 104.601 17.5558 105.021 17.5558 105.626H18.8107V105.485C18.8107 104.318 17.8341 103.566 16.5157 103.566C14.9777 103.566 14.0988 104.533 14.0988 106.037V106.637C14.0988 108.131 14.9777 109.093 16.5157 109.093C17.8195 109.093 18.8107 108.366 18.8107 107.218V107.072H17.5558C17.5558 107.648 17.1456 108.063 16.5206 108.063C15.8224 108.063 15.4318 107.541 15.4318 106.642V106.037ZM23.549 108.996L25.3458 103.664H23.8956L22.797 107.667H22.7335L21.6202 103.664H20.1017L21.923 108.996H23.549Z" fill="white"/>
<path d="M16.0773 126.47C16.0773 125.479 15.3888 124.664 14.1193 124.664H11.7657V129.996H13.0695V128.326H14.1095C15.379 128.326 16.0773 127.471 16.0773 126.47ZM14.7491 126.5C14.7491 127.037 14.4366 127.378 13.8947 127.378H13.0646V125.625H13.8458C14.4171 125.625 14.7491 125.943 14.7491 126.5ZM18.2228 129.996L18.6085 128.746H20.3907L20.7667 129.996H22.1534L20.3273 124.664H18.7452L16.9142 129.996H18.2228ZM19.5363 125.796L20.1466 127.837H18.8527L19.4728 125.796H19.5363ZM24.9532 129.996V126.749H25.0021L27.3165 129.996H28.3566V124.664H27.131V127.881H27.0822L24.7775 124.664H23.7325V129.996H24.9532ZM15.9318 135.037C15.9318 134.124 16.3224 133.601 17.0255 133.601C17.6456 133.601 18.0558 134.021 18.0558 134.626H19.3107V134.485C19.3107 133.318 18.3341 132.566 17.0157 132.566C15.4777 132.566 14.5988 133.533 14.5988 135.037V135.637C14.5988 137.131 15.4777 138.093 17.0157 138.093C18.3195 138.093 19.3107 137.366 19.3107 136.218V136.072H18.0558C18.0558 136.648 17.6456 137.063 17.0206 137.063C16.3224 137.063 15.9318 136.541 15.9318 135.642V135.037ZM24.049 137.996L25.8458 132.664H24.3956L23.297 136.667H23.2335L22.1202 132.664H20.6017L22.423 137.996H24.049Z" fill="white"/>
<rect x="100" y="38.5" width="7" height="7" rx="1" fill="white"/>
<path d="M106.011 44.5H104.31L104.004 43.204C103.992 43.156 103.971 43.075 103.941 42.961C103.917 42.841 103.887 42.754 103.851 42.7C103.815 42.64 103.764 42.601 103.698 42.583C103.53 42.589 103.284 42.592 102.96 42.592V44.5H101.34V39.415C102.066 39.361 102.744 39.334 103.374 39.334C103.944 39.334 104.406 39.382 104.76 39.478C105.114 39.568 105.378 39.727 105.552 39.955C105.732 40.177 105.822 40.483 105.822 40.873C105.822 41.239 105.738 41.527 105.57 41.737C105.402 41.941 105.132 42.064 104.76 42.106V42.16C104.97 42.178 105.144 42.247 105.282 42.367C105.426 42.481 105.522 42.628 105.57 42.808L106.011 44.5ZM102.96 41.575C103.014 41.581 103.119 41.584 103.275 41.584C103.737 41.584 104.007 41.545 104.085 41.467C104.157 41.395 104.193 41.227 104.193 40.963C104.193 40.717 104.127 40.549 103.995 40.459C103.869 40.369 103.659 40.324 103.365 40.324C103.299 40.324 103.164 40.33 102.96 40.342V41.575Z" fill="#457B9D"/>
<rect x="346" y="98.5" width="7" height="7" rx="1" fill="white"/>
<path d="M352.011 104.5H350.31L350.004 103.204C349.992 103.156 349.971 103.075 349.941 102.961C349.917 102.841 349.887 102.754 349.851 102.7C349.815 102.64 349.764 102.601 349.698 102.583C349.53 102.589 349.284 102.592 348.96 102.592V104.5H347.34V99.415C348.066 99.361 348.744 99.334 349.374 99.334C349.944 99.334 350.406 99.382 350.76 99.478C351.114 99.568 351.378 99.727 351.552 99.955C351.732 100.177 351.822 100.483 351.822 100.873C351.822 101.239 351.738 101.527 351.57 101.737C351.402 101.941 351.132 102.064 350.76 102.106V102.16C350.97 102.178 351.144 102.247 351.282 102.367C351.426 102.481 351.522 102.628 351.57 102.808L352.011 104.5ZM348.96 101.575C349.014 101.581 349.119 101.584 349.275 101.584C349.737 101.584 350.007 101.545 350.085 101.467C350.157 101.395 350.193 101.227 350.193 100.963C350.193 100.717 350.127 100.549 349.995 100.459C349.869 100.369 349.659 100.324 349.365 100.324C349.299 100.324 349.164 100.33 348.96 100.342V101.575Z" fill="#457B9D"/>
<rect x="60" y="38.5" width="7" height="7" rx="1" fill="white"/>
<path d="M61.7919 39.37H63.4119V43.312H65.5089V44.5H61.7919V39.37Z" fill="#457B9D"/>
<rect x="346" y="68.5" width="7" height="7" rx="1" fill="white"/>
<path d="M347.792 69.37H349.412V73.312H351.509V74.5H347.792V69.37Z" fill="#457B9D"/>
<path d="M13.0137 196.475C13.0137 195.483 12.3252 194.668 11.0557 194.668H8.70215V200H10.0059V198.33H11.0459C12.3154 198.33 13.0137 197.476 13.0137 196.475ZM11.6855 196.504C11.6855 197.041 11.373 197.383 10.8311 197.383H10.001V195.63H10.7822C11.3535 195.63 11.6855 195.947 11.6855 196.504ZM15.1592 200L15.5449 198.75H17.3271L17.7031 200H19.0898L17.2637 194.668H15.6816L13.8506 200H15.1592ZM16.4727 195.801L17.083 197.842H15.7891L16.4092 195.801H16.4727ZM21.8896 200V196.753H21.9385L24.2529 200H25.293V194.668H24.0674V197.886H24.0186L21.7139 194.668H20.6689V200H21.8896Z" fill="white"/>
</svg>
