<svg width="390" height="380" viewBox="0 0 390 380" fill="none" xmlns="http://www.w3.org/2000/svg">
<rect width="390" height="380" fill="#457B9D"/>
<g opacity="0.5">
<path fill-rule="evenodd" clip-rule="evenodd" d="M188.958 375.599C188.803 375.747 188.659 375.851 188.526 375.909C188.393 375.968 188.251 375.998 188.1 375.998C187.948 375.998 187.806 375.97 187.673 375.914C187.54 375.858 187.424 375.781 187.325 375.682C187.109 375.466 187 375.209 187 374.912V369.385C187 369.082 187.078 368.847 187.232 368.68C187.498 368.408 187.75 368.272 187.988 368.272C188.226 368.272 188.404 368.296 188.522 368.346C188.639 368.395 188.738 368.457 188.818 368.531C188.924 368.624 189.002 368.723 189.055 368.828C189.108 368.933 189.151 369.011 189.185 369.06C189.219 369.11 189.275 369.134 189.352 369.134C189.429 369.134 189.496 369.11 189.551 369.06L189.709 368.902C190.16 368.482 190.612 368.272 191.063 368.272C191.861 368.272 192.519 368.599 193.039 369.255C193.088 369.323 193.15 369.357 193.224 369.357C193.354 369.357 193.486 369.256 193.619 369.055C193.752 368.854 193.966 368.674 194.263 368.513C194.56 368.352 194.906 368.272 195.302 368.272C195.698 368.272 196.058 368.344 196.383 368.49C196.707 368.635 196.99 368.834 197.231 369.088C197.738 369.62 197.992 370.263 197.992 371.017V374.912C197.992 375.382 197.769 375.713 197.324 375.905C197.188 375.967 197.044 375.998 196.893 375.998C196.741 375.998 196.599 375.97 196.466 375.914C196.333 375.858 196.217 375.781 196.118 375.682C195.908 375.46 195.803 375.203 195.803 374.912V371.045C195.803 370.736 195.726 370.504 195.571 370.349C195.299 370.077 195.049 369.941 194.82 369.941C194.591 369.941 194.412 369.971 194.282 370.029C194.152 370.088 194.034 370.17 193.929 370.275C193.713 370.492 193.605 370.742 193.605 371.026V374.912C193.605 375.382 193.385 375.713 192.946 375.905C192.81 375.967 192.666 375.998 192.515 375.998C192.363 375.998 192.22 375.97 192.083 375.914C191.947 375.858 191.83 375.781 191.731 375.682C191.515 375.466 191.406 375.209 191.406 374.912V371.045C191.406 370.736 191.329 370.504 191.174 370.349C190.902 370.077 190.618 369.941 190.321 369.941C189.826 369.941 189.483 370.133 189.292 370.516C189.23 370.64 189.199 370.779 189.199 370.934V374.912C189.199 375.215 189.118 375.444 188.958 375.599ZM200.219 369.387C200.219 369.084 200.296 368.849 200.451 368.682C200.716 368.41 201.01 368.274 201.332 368.274C201.641 368.274 201.87 368.355 202.018 368.515C202.29 368.794 202.426 369.084 202.426 369.387V374.915C202.426 375.212 202.349 375.437 202.194 375.592C201.922 375.864 201.672 376 201.443 376C201.214 376 201.032 375.971 200.896 375.912C200.76 375.853 200.642 375.777 200.543 375.685C200.327 375.474 200.219 375.218 200.219 374.915V369.387ZM201.327 365.9C201.065 365.9 200.852 365.687 200.852 365.425C200.852 365.162 201.065 364.95 201.327 364.95C201.589 364.95 201.802 365.162 201.802 365.425C201.802 365.687 201.589 365.9 201.327 365.9ZM201.327 364C201.714 364 202.048 364.142 202.329 364.425C202.611 364.709 202.752 364.996 202.752 365.287C202.752 365.577 202.713 365.807 202.635 365.978C202.558 366.148 202.456 366.297 202.329 366.424C202.048 366.708 201.714 366.849 201.327 366.849C200.94 366.849 200.606 366.708 200.324 366.424C200.043 366.141 199.902 365.857 199.902 365.574C199.902 365.092 200.043 364.709 200.324 364.425C200.606 364.142 200.94 364 201.327 364Z" fill="#1D3557"/>
</g>
<path d="M153.045 19.0854C153.557 19.3174 153.929 19.5894 154.161 19.9014C154.393 20.2054 154.509 20.5694 154.509 20.9934C154.509 21.6414 154.229 22.1374 153.669 22.4814C153.117 22.8254 152.425 22.9974 151.593 22.9974C150.769 22.9974 150.097 22.8534 149.577 22.5654C149.065 22.2694 148.809 21.8294 148.809 21.2454C148.809 20.9174 148.929 20.5934 149.169 20.2734C149.417 19.9534 149.765 19.6934 150.213 19.4934C149.829 19.2694 149.533 19.0014 149.325 18.6894C149.125 18.3694 149.025 18.0574 149.025 17.7534C149.025 17.1534 149.281 16.7014 149.793 16.3974C150.305 16.0934 150.937 15.9414 151.689 15.9414C153.377 15.9414 154.221 16.4934 154.221 17.5974C154.221 18.1094 153.829 18.6054 153.045 19.0854ZM151.701 17.1054C151.469 17.1054 151.293 17.1614 151.173 17.2734C151.061 17.3774 151.005 17.5414 151.005 17.7654C151.005 17.9654 151.089 18.1334 151.257 18.2694C151.433 18.3974 151.669 18.5214 151.965 18.6414C152.357 18.3694 152.553 18.0894 152.553 17.8014C152.553 17.5614 152.481 17.3854 152.337 17.2734C152.201 17.1614 151.989 17.1054 151.701 17.1054ZM151.617 21.8454C151.833 21.8454 152.021 21.7854 152.181 21.6654C152.341 21.5374 152.421 21.3614 152.421 21.1374C152.421 20.9214 152.341 20.7454 152.181 20.6094C152.029 20.4654 151.773 20.3054 151.413 20.1294C151.197 20.2814 151.025 20.4374 150.897 20.5974C150.777 20.7574 150.717 20.9374 150.717 21.1374C150.717 21.3534 150.809 21.5254 150.993 21.6534C151.185 21.7814 151.393 21.8454 151.617 21.8454ZM155.324 18.9174H158.924V20.6334H155.324V18.9174ZM165.298 22.6374C165.002 22.7654 164.658 22.8574 164.266 22.9134C163.874 22.9694 163.51 22.9974 163.174 22.9974C162.086 22.9974 161.234 22.7134 160.618 22.1454C160.002 21.5774 159.694 20.7054 159.694 19.5294C159.694 18.3294 160.018 17.4334 160.666 16.8414C161.314 16.2414 162.226 15.9414 163.402 15.9414C163.962 15.9414 164.546 16.0174 165.154 16.1694C165.154 16.3294 165.138 16.5694 165.106 16.8894C165.074 17.2014 165.042 17.4214 165.01 17.5494H164.254C163.702 17.5494 163.266 17.5614 162.946 17.5854C162.634 17.6014 162.446 17.6374 162.382 17.6934C162.262 17.8054 162.17 18.0334 162.106 18.3774C162.042 18.7134 162.01 19.0374 162.01 19.3494C162.01 19.8934 162.078 20.3134 162.214 20.6094C162.35 20.8974 162.522 21.0894 162.73 21.1854C162.93 21.2814 163.262 21.3294 163.726 21.3294C164.094 21.3294 164.574 21.2974 165.166 21.2334L165.298 22.6374ZM166.098 16.0254H168.27V18.5334H170.13V16.0254H172.302V22.8654H170.13V19.9134H168.27V22.8654H166.098V16.0254ZM177.476 21.3654H175.484L175.124 22.8654H172.916L175.124 16.0254H177.944L180.056 22.8654H177.836L177.476 21.3654ZM176.468 17.5014L175.76 20.0334H177.188L176.516 17.5014H176.468ZM182.657 20.1054V22.8654H180.653V16.0254H182.681L184.493 18.7854C184.765 19.1934 184.973 19.5374 185.117 19.8174H185.153V18.6654V16.0254H187.145V22.8654H185.105L183.245 19.9854L182.705 19.1694H182.669L182.657 20.1054ZM190.333 20.1054V22.8654H188.329V16.0254H190.357L192.169 18.7854C192.441 19.1934 192.649 19.5374 192.793 19.8174H192.829V18.6654V16.0254H194.821V22.8654H192.781L190.921 19.9854L190.381 19.1694H190.345L190.333 20.1054ZM195.944 16.0254H200.924V17.4654H198.104V18.7134H200.48V20.0094H198.104V21.4014H200.912V22.8654H195.944V16.0254ZM201.816 16.0254H203.976V21.2814H206.772V22.8654H201.816V16.0254ZM218.172 22.8654H216.156L216 19.0974C215.976 18.3534 215.948 17.7894 215.916 17.4054H215.88C215.784 17.7094 215.672 18.1814 215.544 18.8214L215.484 19.1214L214.656 22.8654H212.64L211.944 19.4934L211.824 18.8934C211.656 18.1494 211.54 17.6534 211.476 17.4054H211.44C211.408 17.8054 211.38 18.4574 211.356 19.3614C211.348 19.4174 211.344 19.5054 211.344 19.6254L211.236 22.8654H209.208L209.496 16.0254H212.928L213.516 18.9774L213.66 19.7694C213.724 19.5214 213.784 19.2454 213.84 18.9414L214.392 16.0254H217.896L218.172 22.8654ZM219.243 16.0254H221.403V22.8654H219.243V16.0254ZM223.734 19.3614L222.126 16.0254H224.334L225.438 18.7134L226.578 16.0254H228.726L227.142 19.3614L228.834 22.8774H226.626L225.438 19.9734L224.214 22.8774H221.994L223.734 19.3614ZM229.354 16.0254H234.334V17.4654H231.514V18.7134H233.89V20.0094H231.514V21.4014H234.322V22.8654H229.354V16.0254ZM241.478 22.8654H239.21L238.802 21.1374C238.786 21.0734 238.758 20.9654 238.718 20.8134C238.686 20.6534 238.646 20.5374 238.598 20.4654C238.55 20.3854 238.482 20.3334 238.394 20.3094C238.17 20.3174 237.842 20.3214 237.41 20.3214V22.8654H235.25V16.0854C236.218 16.0134 237.122 15.9774 237.962 15.9774C238.722 15.9774 239.338 16.0414 239.81 16.1694C240.282 16.2894 240.634 16.5014 240.866 16.8054C241.106 17.1014 241.226 17.5094 241.226 18.0294C241.226 18.5174 241.114 18.9014 240.89 19.1814C240.666 19.4534 240.306 19.6174 239.81 19.6734V19.7454C240.09 19.7694 240.322 19.8614 240.506 20.0214C240.698 20.1734 240.826 20.3694 240.89 20.6094L241.478 22.8654ZM237.41 18.9654C237.482 18.9734 237.622 18.9774 237.83 18.9774C238.446 18.9774 238.806 18.9254 238.91 18.8214C239.006 18.7254 239.054 18.5014 239.054 18.1494C239.054 17.8214 238.966 17.5974 238.79 17.4774C238.622 17.3574 238.342 17.2974 237.95 17.2974C237.862 17.2974 237.682 17.3054 237.41 17.3214V18.9654Z" fill="#A8DADC"/>
<path d="M362.508 125.152C361.548 125.152 360.828 124.928 360.348 124.48C359.876 124.024 359.64 123.308 359.64 122.332C359.64 121.796 359.688 121.328 359.784 120.928C359.888 120.52 360.012 120.236 360.156 120.076C360.34 119.868 360.676 119.696 361.164 119.56C361.66 119.424 362.124 119.356 362.556 119.356C363.588 119.356 364.324 119.576 364.764 120.016C365.204 120.456 365.424 121.16 365.424 122.128C365.424 123.168 365.188 123.932 364.716 124.42C364.244 124.908 363.508 125.152 362.508 125.152ZM362.544 123.748C362.856 123.748 363.06 123.64 363.156 123.424C363.252 123.2 363.3 122.808 363.3 122.248C363.3 121.856 363.28 121.556 363.24 121.348C363.2 121.132 363.124 120.976 363.012 120.88C362.908 120.776 362.744 120.724 362.52 120.724C362.2 120.724 362.016 120.752 361.968 120.808C361.904 120.864 361.852 121.04 361.812 121.336C361.772 121.632 361.752 121.94 361.752 122.26C361.752 122.804 361.804 123.188 361.908 123.412C362.02 123.636 362.232 123.748 362.544 123.748ZM371.727 119.476V124.996H370.059L369.831 124.072C369.255 124.768 368.567 125.116 367.767 125.116C367.479 125.116 367.207 125.076 366.951 124.996C366.703 124.916 366.515 124.8 366.387 124.648C366.315 124.56 366.259 124.34 366.219 123.988C366.187 123.636 366.171 123.1 366.171 122.38V119.476H368.223V122.356C368.223 122.516 368.227 122.704 368.235 122.92C368.243 123.136 368.267 123.272 368.307 123.328C368.363 123.408 368.523 123.448 368.787 123.448L368.979 123.436C369.203 123.428 369.435 123.376 369.675 123.28V119.476H371.727ZM375.255 122.728C375.255 122.872 375.259 123.024 375.267 123.184C375.275 123.336 375.299 123.432 375.339 123.472C375.395 123.528 375.591 123.556 375.927 123.556L376.335 123.544C376.407 123.928 376.443 124.372 376.443 124.876C376.291 124.932 376.067 124.984 375.771 125.032C375.483 125.08 375.207 125.104 374.943 125.104C374.391 125.104 373.963 124.984 373.659 124.744C373.363 124.496 373.215 124.116 373.215 123.604V120.652H372.315V119.56L373.215 119.476L373.755 118.156L375.255 118.072V119.476H376.527V120.652H375.255V122.728Z" fill="#A8DADC"/>
<path d="M367.575 180.86C367.703 181.052 367.767 181.796 367.767 183.092V185.996H365.715V183.296V182.648C365.715 182.352 365.687 182.176 365.631 182.12C365.567 182.056 365.431 182.024 365.223 182.024L365.079 182.036C364.831 182.052 364.595 182.108 364.371 182.204C364.379 182.372 364.383 182.668 364.383 183.092V185.996H362.331V183.296V182.576C362.331 182.328 362.303 182.176 362.247 182.12C362.183 182.056 362.047 182.024 361.839 182.024L361.695 182.036C361.471 182.044 361.239 182.096 360.999 182.192V185.996H358.947V180.476H360.615L360.831 181.376C361.095 181.024 361.399 180.768 361.743 180.608C362.087 180.44 362.435 180.356 362.787 180.356C363.083 180.356 363.363 180.4 363.627 180.488C363.899 180.576 364.087 180.7 364.191 180.86C364.239 180.932 364.279 181.064 364.311 181.256C364.567 180.944 364.859 180.716 365.187 180.572C365.515 180.428 365.843 180.356 366.171 180.356C366.467 180.356 366.747 180.4 367.011 180.488C367.283 180.576 367.471 180.7 367.575 180.86ZM369.789 179.792C369.517 179.792 369.281 179.7 369.081 179.516C368.889 179.332 368.793 179.112 368.793 178.856C368.793 178.6 368.889 178.38 369.081 178.196C369.281 178.012 369.517 177.92 369.789 177.92C370.061 177.92 370.293 178.012 370.485 178.196C370.677 178.38 370.773 178.6 370.773 178.856C370.773 179.112 370.677 179.332 370.485 179.516C370.293 179.7 370.061 179.792 369.789 179.792ZM368.757 180.476H370.809V185.996H368.757V180.476ZM372.834 183.176L371.454 180.476H373.446L374.442 182.612L375.45 180.476H377.43L376.062 183.176L377.562 185.996H375.558L374.442 183.716L373.326 185.996H371.322L372.834 183.176ZM367.382 195.828C366.734 196.044 366.01 196.152 365.21 196.152C364.314 196.152 363.642 195.928 363.194 195.48C362.754 195.024 362.534 194.316 362.534 193.356C362.534 192.884 362.598 192.42 362.726 191.964C362.854 191.5 362.99 191.188 363.134 191.028C363.302 190.844 363.63 190.688 364.118 190.56C364.614 190.432 365.126 190.368 365.654 190.368C366.206 190.368 366.762 190.416 367.322 190.512C367.306 190.712 367.278 190.948 367.238 191.22C367.206 191.484 367.17 191.72 367.13 191.928C366.634 191.896 366.166 191.88 365.726 191.88C365.294 191.88 365.018 191.904 364.898 191.952C364.834 191.976 364.774 192.14 364.718 192.444C364.67 192.748 364.646 193.032 364.646 193.296C364.646 193.648 364.694 193.92 364.79 194.112C364.894 194.296 365.054 194.424 365.27 194.496C365.486 194.568 365.778 194.604 366.146 194.604C366.306 194.604 366.658 194.588 367.202 194.556L367.382 195.828ZM371.622 190.476H373.77L372.09 195.996H369.246L367.566 190.476H369.714L370.614 194.712H370.734L371.622 190.476Z" fill="#A8DADC"/>
<path d="M20.038 165.152C19.078 165.152 18.358 164.928 17.878 164.48C17.406 164.024 17.17 163.308 17.17 162.332C17.17 161.796 17.218 161.328 17.314 160.928C17.418 160.52 17.542 160.236 17.686 160.076C17.87 159.868 18.206 159.696 18.694 159.56C19.19 159.424 19.654 159.356 20.086 159.356C21.118 159.356 21.854 159.576 22.294 160.016C22.734 160.456 22.954 161.16 22.954 162.128C22.954 163.168 22.718 163.932 22.246 164.42C21.774 164.908 21.038 165.152 20.038 165.152ZM20.074 163.748C20.386 163.748 20.59 163.64 20.686 163.424C20.782 163.2 20.83 162.808 20.83 162.248C20.83 161.856 20.81 161.556 20.77 161.348C20.73 161.132 20.654 160.976 20.542 160.88C20.438 160.776 20.274 160.724 20.05 160.724C19.73 160.724 19.546 160.752 19.498 160.808C19.434 160.864 19.382 161.04 19.342 161.336C19.302 161.632 19.282 161.94 19.282 162.26C19.282 162.804 19.334 163.188 19.438 163.412C19.55 163.636 19.762 163.748 20.074 163.748Z" fill="#A8DADC"/>
<path d="M23.7969 318.86C23.9249 319.052 23.9889 319.796 23.9889 321.092V323.996H21.9369V321.296V320.648C21.9369 320.352 21.9089 320.176 21.8529 320.12C21.7889 320.056 21.6529 320.024 21.4449 320.024L21.3009 320.036C21.0529 320.052 20.8169 320.108 20.5929 320.204C20.6009 320.372 20.6049 320.668 20.6049 321.092V323.996H18.5529V321.296V320.576C18.5529 320.328 18.5249 320.176 18.4689 320.12C18.4049 320.056 18.2689 320.024 18.0609 320.024L17.9169 320.036C17.6929 320.044 17.4609 320.096 17.2209 320.192V323.996H15.1689V318.476H16.8369L17.0529 319.376C17.3169 319.024 17.6209 318.768 17.9649 318.608C18.3089 318.44 18.6569 318.356 19.0089 318.356C19.3049 318.356 19.5849 318.4 19.8489 318.488C20.1209 318.576 20.3089 318.7 20.4129 318.86C20.4609 318.932 20.5009 319.064 20.5329 319.256C20.7889 318.944 21.0809 318.716 21.4089 318.572C21.7369 318.428 22.0649 318.356 22.3929 318.356C22.6889 318.356 22.9689 318.4 23.2329 318.488C23.5049 318.576 23.6929 318.7 23.7969 318.86Z" fill="#A8DADC"/>
<path d="M42.9837 347.264C42.3357 347.48 41.6117 347.588 40.8117 347.588C39.9157 347.588 39.2437 347.364 38.7957 346.916C38.3557 346.46 38.1357 345.752 38.1357 344.792C38.1357 344.32 38.1997 343.856 38.3277 343.4C38.4557 342.936 38.5917 342.624 38.7357 342.464C38.9037 342.28 39.2317 342.124 39.7197 341.996C40.2157 341.868 40.7277 341.804 41.2557 341.804C41.8077 341.804 42.3637 341.852 42.9237 341.948C42.9077 342.148 42.8797 342.384 42.8397 342.656C42.8077 342.92 42.7717 343.156 42.7317 343.364C42.2357 343.332 41.7677 343.316 41.3277 343.316C40.8957 343.316 40.6197 343.34 40.4997 343.388C40.4357 343.412 40.3757 343.576 40.3197 343.88C40.2717 344.184 40.2477 344.468 40.2477 344.732C40.2477 345.084 40.2957 345.356 40.3917 345.548C40.4957 345.732 40.6557 345.86 40.8717 345.932C41.0877 346.004 41.3797 346.04 41.7477 346.04C41.9077 346.04 42.2597 346.024 42.8037 345.992L42.9837 347.264ZM49.0117 342.26C49.0837 342.348 49.1357 342.568 49.1677 342.92C49.2077 343.272 49.2277 343.808 49.2277 344.528V347.432H47.1757V344.552C47.1757 344.52 47.1757 344.364 47.1757 344.084C47.1757 343.796 47.1557 343.62 47.1157 343.556C47.0917 343.524 47.0317 343.5 46.9357 343.484C46.8477 343.468 46.7437 343.46 46.6237 343.46L46.4197 343.472C46.1957 343.48 45.9637 343.532 45.7237 343.628V347.432H43.6717V340.232L45.7237 340.148V341.552C45.7237 342.128 45.7037 342.512 45.6637 342.704L45.6757 342.716C46.2197 342.1 46.8717 341.792 47.6317 341.792C47.9197 341.792 48.1877 341.832 48.4357 341.912C48.6917 341.992 48.8837 342.108 49.0117 342.26ZM55.3163 340.592V347.432H53.2163V342.32L51.7283 342.632L51.5003 341.372L53.6243 340.592H55.3163Z" fill="#A8DADC"/>
<path d="M82.8157 347.264C82.1677 347.48 81.4437 347.588 80.6437 347.588C79.7477 347.588 79.0757 347.364 78.6277 346.916C78.1877 346.46 77.9677 345.752 77.9677 344.792C77.9677 344.32 78.0317 343.856 78.1597 343.4C78.2877 342.936 78.4237 342.624 78.5677 342.464C78.7357 342.28 79.0637 342.124 79.5517 341.996C80.0477 341.868 80.5597 341.804 81.0877 341.804C81.6397 341.804 82.1957 341.852 82.7557 341.948C82.7397 342.148 82.7117 342.384 82.6717 342.656C82.6397 342.92 82.6037 343.156 82.5637 343.364C82.0677 343.332 81.5997 343.316 81.1597 343.316C80.7277 343.316 80.4517 343.34 80.3317 343.388C80.2677 343.412 80.2077 343.576 80.1517 343.88C80.1037 344.184 80.0797 344.468 80.0797 344.732C80.0797 345.084 80.1277 345.356 80.2237 345.548C80.3277 345.732 80.4877 345.86 80.7037 345.932C80.9197 346.004 81.2117 346.04 81.5797 346.04C81.7397 346.04 82.0917 346.024 82.6357 345.992L82.8157 347.264ZM88.8437 342.26C88.9157 342.348 88.9677 342.568 88.9997 342.92C89.0397 343.272 89.0597 343.808 89.0597 344.528V347.432H87.0077V344.552C87.0077 344.52 87.0077 344.364 87.0077 344.084C87.0077 343.796 86.9877 343.62 86.9477 343.556C86.9237 343.524 86.8637 343.5 86.7677 343.484C86.6797 343.468 86.5757 343.46 86.4557 343.46L86.2517 343.472C86.0277 343.48 85.7957 343.532 85.5557 343.628V347.432H83.5037V340.232L85.5557 340.148V341.552C85.5557 342.128 85.5357 342.512 85.4957 342.704L85.5077 342.716C86.0517 342.1 86.7037 341.792 87.4637 341.792C87.7517 341.792 88.0197 341.832 88.2677 341.912C88.5237 341.992 88.7157 342.108 88.8437 342.26ZM96.9603 345.836V347.432H91.6923V346.1C92.1003 345.772 92.4883 345.456 92.8563 345.152C93.2243 344.84 93.6363 344.476 94.0923 344.06C94.3163 343.86 94.4803 343.644 94.5843 343.412C94.6883 343.18 94.7403 342.96 94.7403 342.752C94.7403 342.536 94.6883 342.368 94.5843 342.248C94.4963 342.16 94.0323 342.116 93.1923 342.116L92.3883 342.128C92.2843 342.136 92.1563 342.14 92.0043 342.14C91.9803 342.028 91.9523 341.808 91.9203 341.48C91.8963 341.152 91.8843 340.908 91.8843 340.748C92.7883 340.588 93.5403 340.508 94.1403 340.508C94.9563 340.508 95.6043 340.664 96.0843 340.976C96.5723 341.28 96.8163 341.808 96.8163 342.56C96.8163 342.92 96.7243 343.292 96.5403 343.676C96.3563 344.052 95.9963 344.448 95.4603 344.864C95.1003 345.144 94.6283 345.476 94.0443 345.86L96.9603 345.836Z" fill="#A8DADC"/>
<path d="M123.945 347.264C123.297 347.48 122.573 347.588 121.773 347.588C120.877 347.588 120.205 347.364 119.757 346.916C119.317 346.46 119.097 345.752 119.097 344.792C119.097 344.32 119.161 343.856 119.289 343.4C119.417 342.936 119.553 342.624 119.697 342.464C119.865 342.28 120.193 342.124 120.681 341.996C121.177 341.868 121.689 341.804 122.217 341.804C122.769 341.804 123.325 341.852 123.885 341.948C123.869 342.148 123.841 342.384 123.801 342.656C123.769 342.92 123.733 343.156 123.693 343.364C123.197 343.332 122.729 343.316 122.289 343.316C121.857 343.316 121.581 343.34 121.461 343.388C121.397 343.412 121.337 343.576 121.281 343.88C121.233 344.184 121.209 344.468 121.209 344.732C121.209 345.084 121.257 345.356 121.353 345.548C121.457 345.732 121.617 345.86 121.833 345.932C122.049 346.004 122.341 346.04 122.709 346.04C122.869 346.04 123.221 346.024 123.765 345.992L123.945 347.264ZM129.973 342.26C130.045 342.348 130.097 342.568 130.129 342.92C130.169 343.272 130.189 343.808 130.189 344.528V347.432H128.137V344.552C128.137 344.52 128.137 344.364 128.137 344.084C128.137 343.796 128.117 343.62 128.077 343.556C128.053 343.524 127.993 343.5 127.897 343.484C127.809 343.468 127.705 343.46 127.585 343.46L127.381 343.472C127.157 343.48 126.925 343.532 126.685 343.628V347.432H124.633V340.232L126.685 340.148V341.552C126.685 342.128 126.665 342.512 126.625 342.704L126.637 342.716C127.181 342.1 127.833 341.792 128.593 341.792C128.881 341.792 129.149 341.832 129.397 341.912C129.653 341.992 129.845 342.108 129.973 342.26ZM136.205 343.94C136.773 343.98 137.181 344.14 137.429 344.42C137.677 344.7 137.801 345.048 137.801 345.464C137.801 346.064 137.577 346.568 137.129 346.976C136.681 347.376 135.965 347.576 134.981 347.576C134.317 347.576 133.577 347.512 132.761 347.384L133.001 346.064C133.721 346.096 134.193 346.112 134.417 346.112C134.857 346.112 135.177 346.056 135.377 345.944C135.585 345.832 135.689 345.612 135.689 345.284C135.689 345.052 135.613 344.88 135.461 344.768C135.317 344.648 135.109 344.572 134.837 344.54C134.565 344.508 134.177 344.492 133.673 344.492V343.376C134.177 343.376 134.557 343.364 134.813 343.34C135.077 343.308 135.277 343.24 135.413 343.136C135.557 343.032 135.629 342.868 135.629 342.644C135.629 342.452 135.625 342.3 135.617 342.188C135.609 342.076 135.581 342.004 135.533 341.972C135.469 341.932 135.185 341.912 134.681 341.912C134.225 341.912 133.669 341.928 133.013 341.96L132.893 340.688C133.765 340.568 134.465 340.508 134.993 340.508C135.761 340.508 136.389 340.656 136.877 340.952C137.373 341.248 137.621 341.728 137.621 342.392C137.621 342.728 137.509 343.048 137.285 343.352C137.069 343.648 136.709 343.832 136.205 343.904V343.94Z" fill="#A8DADC"/>
<path d="M165.134 347.264C164.486 347.48 163.762 347.588 162.962 347.588C162.066 347.588 161.394 347.364 160.946 346.916C160.506 346.46 160.286 345.752 160.286 344.792C160.286 344.32 160.35 343.856 160.478 343.4C160.606 342.936 160.742 342.624 160.886 342.464C161.054 342.28 161.382 342.124 161.87 341.996C162.366 341.868 162.878 341.804 163.406 341.804C163.958 341.804 164.514 341.852 165.074 341.948C165.058 342.148 165.03 342.384 164.99 342.656C164.958 342.92 164.922 343.156 164.882 343.364C164.386 343.332 163.918 343.316 163.478 343.316C163.046 343.316 162.77 343.34 162.65 343.388C162.586 343.412 162.526 343.576 162.47 343.88C162.422 344.184 162.398 344.468 162.398 344.732C162.398 345.084 162.446 345.356 162.542 345.548C162.646 345.732 162.806 345.86 163.022 345.932C163.238 346.004 163.53 346.04 163.898 346.04C164.058 346.04 164.41 346.024 164.954 345.992L165.134 347.264ZM171.162 342.26C171.234 342.348 171.286 342.568 171.318 342.92C171.358 343.272 171.378 343.808 171.378 344.528V347.432H169.326V344.552C169.326 344.52 169.326 344.364 169.326 344.084C169.326 343.796 169.306 343.62 169.266 343.556C169.242 343.524 169.182 343.5 169.086 343.484C168.998 343.468 168.894 343.46 168.774 343.46L168.57 343.472C168.346 343.48 168.114 343.532 167.874 343.628V347.432H165.822V340.232L167.874 340.148V341.552C167.874 342.128 167.854 342.512 167.814 342.704L167.826 342.716C168.37 342.1 169.022 341.792 169.782 341.792C170.07 341.792 170.338 341.832 170.586 341.912C170.842 341.992 171.034 342.108 171.162 342.26ZM179.819 346.016H178.787V347.432H176.687V346.016H174.131L173.723 344.792C174.067 344.168 174.515 343.472 175.067 342.704C175.619 341.936 176.159 341.232 176.687 340.592H178.787V344.624H179.819V346.016ZM176.723 342.5C176.267 343.156 175.807 343.864 175.343 344.624H176.723V342.5Z" fill="#A8DADC"/>
<path d="M205.88 347.264C205.232 347.48 204.508 347.588 203.708 347.588C202.812 347.588 202.14 347.364 201.692 346.916C201.252 346.46 201.032 345.752 201.032 344.792C201.032 344.32 201.096 343.856 201.224 343.4C201.352 342.936 201.488 342.624 201.632 342.464C201.8 342.28 202.128 342.124 202.616 341.996C203.112 341.868 203.624 341.804 204.152 341.804C204.704 341.804 205.26 341.852 205.82 341.948C205.804 342.148 205.776 342.384 205.736 342.656C205.704 342.92 205.668 343.156 205.628 343.364C205.132 343.332 204.664 343.316 204.224 343.316C203.792 343.316 203.516 343.34 203.396 343.388C203.332 343.412 203.272 343.576 203.216 343.88C203.168 344.184 203.144 344.468 203.144 344.732C203.144 345.084 203.192 345.356 203.288 345.548C203.392 345.732 203.552 345.86 203.768 345.932C203.984 346.004 204.276 346.04 204.644 346.04C204.804 346.04 205.156 346.024 205.7 345.992L205.88 347.264ZM211.908 342.26C211.98 342.348 212.032 342.568 212.064 342.92C212.104 343.272 212.124 343.808 212.124 344.528V347.432H210.072V344.552C210.072 344.52 210.072 344.364 210.072 344.084C210.072 343.796 210.052 343.62 210.012 343.556C209.988 343.524 209.928 343.5 209.832 343.484C209.744 343.468 209.64 343.46 209.52 343.46L209.316 343.472C209.092 343.48 208.86 343.532 208.62 343.628V347.432H206.568V340.232L208.62 340.148V341.552C208.62 342.128 208.6 342.512 208.56 342.704L208.572 342.716C209.116 342.1 209.768 341.792 210.528 341.792C210.816 341.792 211.084 341.832 211.332 341.912C211.588 341.992 211.78 342.108 211.908 342.26ZM217.577 343.16C218.393 343.16 218.993 343.368 219.377 343.784C219.761 344.192 219.953 344.72 219.953 345.368C219.953 346.84 218.933 347.576 216.893 347.576C216.237 347.576 215.489 347.512 214.649 347.384L214.913 346.064C215.577 346.136 216.073 346.172 216.401 346.172C216.889 346.172 217.261 346.104 217.517 345.968C217.773 345.832 217.901 345.6 217.901 345.272C217.901 345.16 217.881 345.044 217.841 344.924C217.809 344.796 217.757 344.716 217.685 344.684C217.653 344.668 217.565 344.652 217.421 344.636C217.285 344.62 217.121 344.612 216.929 344.612C216.337 344.612 215.757 344.66 215.189 344.756L215.129 344.696L215.621 340.592H219.677V342.188L217.109 342.176L216.977 343.196C217.193 343.172 217.393 343.16 217.577 343.16Z" fill="#A8DADC"/>
<path d="M246.675 347.264C246.027 347.48 245.303 347.588 244.503 347.588C243.607 347.588 242.935 347.364 242.487 346.916C242.047 346.46 241.827 345.752 241.827 344.792C241.827 344.32 241.891 343.856 242.019 343.4C242.147 342.936 242.283 342.624 242.427 342.464C242.595 342.28 242.923 342.124 243.411 341.996C243.907 341.868 244.419 341.804 244.947 341.804C245.499 341.804 246.055 341.852 246.615 341.948C246.599 342.148 246.571 342.384 246.531 342.656C246.499 342.92 246.463 343.156 246.423 343.364C245.927 343.332 245.459 343.316 245.019 343.316C244.587 343.316 244.311 343.34 244.191 343.388C244.127 343.412 244.067 343.576 244.011 343.88C243.963 344.184 243.939 344.468 243.939 344.732C243.939 345.084 243.987 345.356 244.083 345.548C244.187 345.732 244.347 345.86 244.563 345.932C244.779 346.004 245.071 346.04 245.439 346.04C245.599 346.04 245.951 346.024 246.495 345.992L246.675 347.264ZM252.703 342.26C252.775 342.348 252.827 342.568 252.859 342.92C252.899 343.272 252.919 343.808 252.919 344.528V347.432H250.867V344.552C250.867 344.52 250.867 344.364 250.867 344.084C250.867 343.796 250.847 343.62 250.807 343.556C250.783 343.524 250.723 343.5 250.627 343.484C250.539 343.468 250.435 343.46 250.315 343.46L250.111 343.472C249.887 343.48 249.655 343.532 249.415 343.628V347.432H247.363V340.232L249.415 340.148V341.552C249.415 342.128 249.395 342.512 249.355 342.704L249.367 342.716C249.911 342.1 250.563 341.792 251.323 341.792C251.611 341.792 251.879 341.832 252.127 341.912C252.383 341.992 252.575 342.108 252.703 342.26ZM259.044 342.992C259.884 342.992 260.448 343.22 260.736 343.676C261.032 344.132 261.18 344.632 261.18 345.176C261.18 345.912 260.952 346.5 260.496 346.94C260.048 347.372 259.36 347.588 258.432 347.588C257.424 347.588 256.688 347.308 256.224 346.748C255.768 346.188 255.54 345.34 255.54 344.204C255.54 342.988 255.804 342.072 256.332 341.456C256.86 340.84 257.608 340.532 258.576 340.532C258.968 340.532 259.336 340.552 259.68 340.592C260.024 340.632 260.292 340.684 260.484 340.748L260.256 342.02C259.824 341.988 259.52 341.972 259.344 341.972C258.776 341.972 258.344 342.076 258.048 342.284C257.76 342.484 257.592 342.86 257.544 343.412C257.784 343.276 258.04 343.172 258.312 343.1C258.584 343.028 258.828 342.992 259.044 342.992ZM258.384 346.112C258.928 346.112 259.2 345.808 259.2 345.2C259.2 344.92 259.148 344.708 259.044 344.564C258.972 344.484 258.772 344.444 258.444 344.444C258.148 344.444 257.864 344.476 257.592 344.54C257.576 344.684 257.568 344.8 257.568 344.888C257.568 345.224 257.636 345.512 257.772 345.752C257.908 345.992 258.112 346.112 258.384 346.112Z" fill="#A8DADC"/>
<path d="M288.068 347.264C287.42 347.48 286.696 347.588 285.896 347.588C285 347.588 284.328 347.364 283.88 346.916C283.44 346.46 283.22 345.752 283.22 344.792C283.22 344.32 283.284 343.856 283.412 343.4C283.54 342.936 283.676 342.624 283.82 342.464C283.988 342.28 284.316 342.124 284.804 341.996C285.3 341.868 285.812 341.804 286.34 341.804C286.892 341.804 287.448 341.852 288.008 341.948C287.992 342.148 287.964 342.384 287.924 342.656C287.892 342.92 287.856 343.156 287.816 343.364C287.32 343.332 286.852 343.316 286.412 343.316C285.98 343.316 285.704 343.34 285.584 343.388C285.52 343.412 285.46 343.576 285.404 343.88C285.356 344.184 285.332 344.468 285.332 344.732C285.332 345.084 285.38 345.356 285.476 345.548C285.58 345.732 285.74 345.86 285.956 345.932C286.172 346.004 286.464 346.04 286.832 346.04C286.992 346.04 287.344 346.024 287.888 345.992L288.068 347.264ZM294.096 342.26C294.168 342.348 294.22 342.568 294.252 342.92C294.292 343.272 294.312 343.808 294.312 344.528V347.432H292.26V344.552C292.26 344.52 292.26 344.364 292.26 344.084C292.26 343.796 292.24 343.62 292.2 343.556C292.176 343.524 292.116 343.5 292.02 343.484C291.932 343.468 291.828 343.46 291.708 343.46L291.504 343.472C291.28 343.48 291.048 343.532 290.808 343.628V347.432H288.756V340.232L290.808 340.148V341.552C290.808 342.128 290.788 342.512 290.748 342.704L290.76 342.716C291.304 342.1 291.956 341.792 292.716 341.792C293.004 341.792 293.272 341.832 293.52 341.912C293.776 341.992 293.968 342.108 294.096 342.26ZM302.032 340.592V341.876C301.56 342.732 301.084 343.672 300.604 344.696C300.124 345.72 299.744 346.668 299.464 347.54L297.508 347.108C298.084 345.516 298.904 343.868 299.968 342.164H296.716V340.592H302.032Z" fill="#A8DADC"/>
<path d="M329.052 347.264C328.404 347.48 327.68 347.588 326.88 347.588C325.984 347.588 325.312 347.364 324.864 346.916C324.424 346.46 324.204 345.752 324.204 344.792C324.204 344.32 324.268 343.856 324.396 343.4C324.524 342.936 324.66 342.624 324.804 342.464C324.972 342.28 325.3 342.124 325.788 341.996C326.284 341.868 326.796 341.804 327.324 341.804C327.876 341.804 328.432 341.852 328.992 341.948C328.976 342.148 328.948 342.384 328.908 342.656C328.876 342.92 328.84 343.156 328.8 343.364C328.304 343.332 327.836 343.316 327.396 343.316C326.964 343.316 326.688 343.34 326.568 343.388C326.504 343.412 326.444 343.576 326.388 343.88C326.34 344.184 326.316 344.468 326.316 344.732C326.316 345.084 326.364 345.356 326.46 345.548C326.564 345.732 326.724 345.86 326.94 345.932C327.156 346.004 327.448 346.04 327.816 346.04C327.976 346.04 328.328 346.024 328.872 345.992L329.052 347.264ZM335.08 342.26C335.152 342.348 335.204 342.568 335.236 342.92C335.276 343.272 335.296 343.808 335.296 344.528V347.432H333.244V344.552C333.244 344.52 333.244 344.364 333.244 344.084C333.244 343.796 333.224 343.62 333.184 343.556C333.16 343.524 333.1 343.5 333.004 343.484C332.916 343.468 332.812 343.46 332.692 343.46L332.488 343.472C332.264 343.48 332.032 343.532 331.792 343.628V347.432H329.74V340.232L331.792 340.148V341.552C331.792 342.128 331.772 342.512 331.732 342.704L331.744 342.716C332.288 342.1 332.94 341.792 333.7 341.792C333.988 341.792 334.256 341.832 334.504 341.912C334.76 341.992 334.952 342.108 335.08 342.26ZM342.213 343.652C342.725 343.884 343.097 344.156 343.329 344.468C343.561 344.772 343.677 345.136 343.677 345.56C343.677 346.208 343.397 346.704 342.837 347.048C342.285 347.392 341.593 347.564 340.761 347.564C339.937 347.564 339.265 347.42 338.745 347.132C338.233 346.836 337.977 346.396 337.977 345.812C337.977 345.484 338.097 345.16 338.337 344.84C338.585 344.52 338.933 344.26 339.381 344.06C338.997 343.836 338.701 343.568 338.493 343.256C338.293 342.936 338.193 342.624 338.193 342.32C338.193 341.72 338.449 341.268 338.961 340.964C339.473 340.66 340.105 340.508 340.857 340.508C342.545 340.508 343.389 341.06 343.389 342.164C343.389 342.676 342.997 343.172 342.213 343.652ZM340.869 341.672C340.637 341.672 340.461 341.728 340.341 341.84C340.229 341.944 340.173 342.108 340.173 342.332C340.173 342.532 340.257 342.7 340.425 342.836C340.601 342.964 340.837 343.088 341.133 343.208C341.525 342.936 341.721 342.656 341.721 342.368C341.721 342.128 341.649 341.952 341.505 341.84C341.369 341.728 341.157 341.672 340.869 341.672ZM340.785 346.412C341.001 346.412 341.189 346.352 341.349 346.232C341.509 346.104 341.589 345.928 341.589 345.704C341.589 345.488 341.509 345.312 341.349 345.176C341.197 345.032 340.941 344.872 340.581 344.696C340.365 344.848 340.193 345.004 340.065 345.164C339.945 345.324 339.885 345.504 339.885 345.704C339.885 345.92 339.977 346.092 340.161 346.22C340.353 346.348 340.561 346.412 340.785 346.412Z" fill="#A8DADC"/>
<path d="M19.5709 69.7916C19.2989 69.7916 19.0629 69.6996 18.8629 69.5156C18.6709 69.3316 18.5749 69.1116 18.5749 68.8556C18.5749 68.5996 18.6709 68.3796 18.8629 68.1956C19.0629 68.0116 19.2989 67.9196 19.5709 67.9196C19.8429 67.9196 20.0749 68.0116 20.2669 68.1956C20.4589 68.3796 20.5549 68.5996 20.5549 68.8556C20.5549 69.1116 20.4589 69.3316 20.2669 69.5156C20.0749 69.6996 19.8429 69.7916 19.5709 69.7916ZM18.5389 70.4756H20.5909V75.9956H18.5389V70.4756Z" fill="#A8DADC"/>
<path d="M19.1387 34.8596C19.2667 35.0516 19.3307 35.7956 19.3307 37.0916V39.9956H17.2787V37.2956V36.6476C17.2787 36.3516 17.2507 36.1756 17.1947 36.1196C17.1307 36.0556 16.9947 36.0236 16.7867 36.0236L16.6427 36.0356C16.3947 36.0516 16.1587 36.1076 15.9347 36.2036C15.9427 36.3716 15.9467 36.6676 15.9467 37.0916V39.9956H13.8947V37.2956V36.5756C13.8947 36.3276 13.8667 36.1756 13.8107 36.1196C13.7467 36.0556 13.6107 36.0236 13.4027 36.0236L13.2587 36.0356C13.0347 36.0436 12.8027 36.0956 12.5627 36.1916V39.9956H10.5107V34.4756H12.1787L12.3947 35.3756C12.6587 35.0236 12.9627 34.7676 13.3067 34.6076C13.6507 34.4396 13.9987 34.3556 14.3507 34.3556C14.6467 34.3556 14.9267 34.3996 15.1907 34.4876C15.4627 34.5756 15.6507 34.6996 15.7547 34.8596C15.8027 34.9316 15.8427 35.0636 15.8747 35.2556C16.1307 34.9436 16.4227 34.7156 16.7507 34.5716C17.0787 34.4276 17.4067 34.3556 17.7347 34.3556C18.0307 34.3556 18.3107 34.3996 18.5747 34.4876C18.8467 34.5756 19.0347 34.6996 19.1387 34.8596ZM21.3521 33.7916C21.0801 33.7916 20.8441 33.6996 20.6441 33.5156C20.4521 33.3316 20.3561 33.1116 20.3561 32.8556C20.3561 32.5996 20.4521 32.3796 20.6441 32.1956C20.8441 32.0116 21.0801 31.9196 21.3521 31.9196C21.6241 31.9196 21.8561 32.0116 22.0481 32.1956C22.2401 32.3796 22.3361 32.5996 22.3361 32.8556C22.3361 33.1116 22.2401 33.3316 22.0481 33.5156C21.8561 33.6996 21.6241 33.7916 21.3521 33.7916ZM20.3201 34.4756H22.3721V39.9956H20.3201V34.4756ZM24.3976 37.1756L23.0176 34.4756H25.0096L26.0056 36.6116L27.0136 34.4756H28.9936L27.6256 37.1756L29.1256 39.9956H27.1216L26.0056 37.7156L24.8896 39.9956H22.8856L24.3976 37.1756ZM16.3189 43.7916C16.0469 43.7916 15.8109 43.6996 15.6109 43.5156C15.4189 43.3316 15.3229 43.1116 15.3229 42.8556C15.3229 42.5996 15.4189 42.3796 15.6109 42.1956C15.8109 42.0116 16.0469 41.9196 16.3189 41.9196C16.5909 41.9196 16.8229 42.0116 17.0149 42.1956C17.2069 42.3796 17.3029 42.5996 17.3029 42.8556C17.3029 43.1116 17.2069 43.3316 17.0149 43.5156C16.8229 43.6996 16.5909 43.7916 16.3189 43.7916ZM15.2869 44.4756H17.3389V49.9956H15.2869V44.4756ZM23.6964 44.8236C23.7684 44.9116 23.8204 45.1316 23.8524 45.4836C23.8924 45.8356 23.9124 46.3716 23.9124 47.0916V49.9956H21.8604V47.1156V46.6236C21.8604 46.3676 21.8404 46.2076 21.8004 46.1436C21.7364 46.0636 21.5884 46.0236 21.3564 46.0236C21.2444 46.0236 21.1604 46.0276 21.1044 46.0356C20.8804 46.0436 20.6484 46.0956 20.4084 46.1916V49.9956H18.3564V44.4756H20.0244L20.2524 45.3996C20.8284 44.7036 21.5164 44.3556 22.3164 44.3556C22.6044 44.3556 22.8724 44.3956 23.1204 44.4756C23.3764 44.5556 23.5684 44.6716 23.6964 44.8236Z" fill="#A8DADC"/>
<path d="M14.3982 92.7956L16.4502 92.7116V99.9956H14.3982V92.7956ZM21.0197 94.4756H23.1677L21.4877 99.9956H18.6437L16.9637 94.4756H19.1117L20.0117 98.7116H20.1317L21.0197 94.4756ZM23.6795 92.7956L25.7315 92.7116V99.9956H23.6795V92.7956ZM19.4457 109.828C18.7977 110.044 18.0737 110.152 17.2737 110.152C16.3777 110.152 15.7057 109.928 15.2577 109.48C14.8177 109.024 14.5977 108.316 14.5977 107.356C14.5977 106.884 14.6617 106.42 14.7897 105.964C14.9177 105.5 15.0537 105.188 15.1977 105.028C15.3657 104.844 15.6937 104.688 16.1817 104.56C16.6777 104.432 17.1897 104.368 17.7177 104.368C18.2697 104.368 18.8257 104.416 19.3857 104.512C19.3697 104.712 19.3417 104.948 19.3017 105.22C19.2697 105.484 19.2337 105.72 19.1937 105.928C18.6977 105.896 18.2297 105.88 17.7897 105.88C17.3577 105.88 17.0817 105.904 16.9617 105.952C16.8977 105.976 16.8377 106.14 16.7817 106.444C16.7337 106.748 16.7097 107.032 16.7097 107.296C16.7097 107.648 16.7577 107.92 16.8537 108.112C16.9577 108.296 17.1177 108.424 17.3337 108.496C17.5497 108.568 17.8417 108.604 18.2097 108.604C18.3697 108.604 18.7217 108.588 19.2657 108.556L19.4457 109.828ZM23.6857 104.476H25.8337L24.1537 109.996H21.3097L19.6297 104.476H21.7777L22.6777 108.712H22.7977L23.6857 104.476Z" fill="#A8DADC"/>
<path d="M14.9081 123.356C15.4841 123.356 15.9401 123.548 16.2761 123.932C16.6201 124.308 16.7921 124.968 16.7921 125.912C16.7921 126.616 16.7241 127.192 16.5881 127.64C16.4521 128.08 16.2961 128.372 16.1201 128.516C15.9441 128.66 15.6361 128.776 15.1961 128.864C14.7641 128.952 14.3161 128.996 13.8521 128.996C13.7161 128.996 13.4881 128.988 13.1681 128.972V130.676L11.1161 130.76V123.476H12.7961L13.0001 124.328C13.2081 124.032 13.4721 123.796 13.7921 123.62C14.1201 123.444 14.4921 123.356 14.9081 123.356ZM14.4281 127.532C14.5161 127.468 14.5801 127.288 14.6201 126.992C14.6601 126.688 14.6801 126.4 14.6801 126.128C14.6801 125.68 14.6241 125.348 14.5121 125.132C14.4001 124.916 14.1761 124.808 13.8401 124.808C13.6001 124.808 13.3761 124.832 13.1681 124.88V127.544L13.5041 127.58C13.6081 127.588 13.7561 127.592 13.9481 127.592C14.2201 127.592 14.3801 127.572 14.4281 127.532ZM20.8846 128.996L20.6926 128.24C20.3246 128.84 19.8126 129.14 19.1566 129.14C18.6206 129.14 18.1806 128.992 17.8366 128.696C17.5006 128.392 17.3326 127.968 17.3326 127.424C17.3326 127.088 17.4286 126.796 17.6206 126.548C17.8206 126.292 18.0926 126.112 18.4366 126.008C18.8846 125.88 19.5766 125.808 20.5126 125.792C20.5126 125.264 20.4886 124.984 20.4406 124.952C20.4006 124.92 20.2726 124.904 20.0566 124.904C19.9206 124.904 19.7326 124.912 19.4926 124.928C19.1086 124.944 18.5886 124.988 17.9326 125.06C17.8686 124.628 17.8206 124.164 17.7886 123.668C18.2126 123.58 18.6566 123.508 19.1206 123.452C19.5846 123.388 20.0006 123.356 20.3686 123.356C21.0086 123.356 21.4886 123.464 21.8086 123.68C22.1286 123.888 22.3366 124.164 22.4326 124.508C22.5286 124.852 22.5726 125.288 22.5646 125.816L22.5526 127.58L22.5886 128.996H20.8846ZM19.8526 127.796C20.0606 127.796 20.2806 127.756 20.5126 127.676V126.788H20.4166C19.8246 126.788 19.4966 126.82 19.4326 126.884C19.3926 126.924 19.3606 126.984 19.3366 127.064C19.3206 127.144 19.3126 127.22 19.3126 127.292C19.3126 127.484 19.3566 127.616 19.4446 127.688C19.5326 127.76 19.6686 127.796 19.8526 127.796ZM28.8311 123.824C28.9031 123.912 28.9551 124.132 28.9871 124.484C29.0271 124.836 29.0471 125.372 29.0471 126.092V128.996H26.9951V126.116V125.624C26.9951 125.368 26.9751 125.208 26.9351 125.144C26.8711 125.064 26.7231 125.024 26.4911 125.024C26.3791 125.024 26.2951 125.028 26.2391 125.036C26.0151 125.044 25.7831 125.096 25.5431 125.192V128.996H23.4911V123.476H25.1591L25.3871 124.4C25.9631 123.704 26.6511 123.356 27.4511 123.356C27.7391 123.356 28.0071 123.396 28.2551 123.476C28.5111 123.556 28.7031 123.672 28.8311 123.824ZM19.4457 138.828C18.7977 139.044 18.0737 139.152 17.2737 139.152C16.3777 139.152 15.7057 138.928 15.2577 138.48C14.8177 138.024 14.5977 137.316 14.5977 136.356C14.5977 135.884 14.6617 135.42 14.7897 134.964C14.9177 134.5 15.0537 134.188 15.1977 134.028C15.3657 133.844 15.6937 133.688 16.1817 133.56C16.6777 133.432 17.1897 133.368 17.7177 133.368C18.2697 133.368 18.8257 133.416 19.3857 133.512C19.3697 133.712 19.3417 133.948 19.3017 134.22C19.2697 134.484 19.2337 134.72 19.1937 134.928C18.6977 134.896 18.2297 134.88 17.7897 134.88C17.3577 134.88 17.0817 134.904 16.9617 134.952C16.8977 134.976 16.8377 135.14 16.7817 135.444C16.7337 135.748 16.7097 136.032 16.7097 136.296C16.7097 136.648 16.7577 136.92 16.8537 137.112C16.9577 137.296 17.1177 137.424 17.3337 137.496C17.5497 137.568 17.8417 137.604 18.2097 137.604C18.3697 137.604 18.7217 137.588 19.2657 137.556L19.4457 138.828ZM23.6857 133.476H25.8337L24.1537 138.996H21.3097L19.6297 133.476H21.7777L22.6777 137.712H22.7977L23.6857 133.476Z" fill="#A8DADC"/>
<rect x="98.9459" y="39" width="6" height="6" rx="1" fill="#A8DADC"/>
<path d="M104.178 44.25H102.666L102.394 43.098C102.383 43.0553 102.364 42.9833 102.338 42.882C102.316 42.7753 102.29 42.698 102.258 42.65C102.226 42.5967 102.18 42.562 102.122 42.546C101.972 42.5513 101.754 42.554 101.466 42.554V44.25H100.026V39.73C100.671 39.682 101.274 39.658 101.834 39.658C102.34 39.658 102.751 39.7007 103.066 39.786C103.38 39.866 103.615 40.0073 103.77 40.21C103.93 40.4073 104.01 40.6793 104.01 41.026C104.01 41.3513 103.935 41.6073 103.786 41.794C103.636 41.9753 103.396 42.0847 103.066 42.122V42.17C103.252 42.186 103.407 42.2473 103.53 42.354C103.658 42.4553 103.743 42.586 103.786 42.746L104.178 44.25ZM101.466 41.65C101.514 41.6553 101.607 41.658 101.746 41.658C102.156 41.658 102.396 41.6233 102.466 41.554C102.53 41.49 102.562 41.3407 102.562 41.106C102.562 40.8873 102.503 40.738 102.386 40.658C102.274 40.578 102.087 40.538 101.826 40.538C101.767 40.538 101.647 40.5433 101.466 40.554V41.65Z" fill="#457B9D"/>
<rect x="348" y="99" width="6" height="6" rx="1" fill="#A8DADC"/>
<path d="M353.232 104.25H351.72L351.448 103.098C351.437 103.055 351.418 102.983 351.392 102.882C351.37 102.775 351.344 102.698 351.312 102.65C351.28 102.597 351.234 102.562 351.176 102.546C351.026 102.551 350.808 102.554 350.52 102.554V104.25H349.08V99.73C349.725 99.682 350.328 99.658 350.888 99.658C351.394 99.658 351.805 99.7007 352.12 99.786C352.434 99.866 352.669 100.007 352.824 100.21C352.984 100.407 353.064 100.679 353.064 101.026C353.064 101.351 352.989 101.607 352.84 101.794C352.69 101.975 352.45 102.085 352.12 102.122V102.17C352.306 102.186 352.461 102.247 352.584 102.354C352.712 102.455 352.797 102.586 352.84 102.746L353.232 104.25ZM350.52 101.65C350.568 101.655 350.661 101.658 350.8 101.658C351.21 101.658 351.45 101.623 351.52 101.554C351.584 101.49 351.616 101.341 351.616 101.106C351.616 100.887 351.557 100.738 351.44 100.658C351.328 100.578 351.141 100.538 350.88 100.538C350.821 100.538 350.701 100.543 350.52 100.554V101.65Z" fill="#457B9D"/>
<rect x="58.946" y="39" width="6" height="6" rx="1" fill="#A8DADC"/>
<path d="M60.4277 39.69H61.8677V43.194H63.7317V44.25H60.4277V39.69Z" fill="#457B9D"/>
<rect x="348" y="69" width="6" height="6" rx="1" fill="#A8DADC"/>
<path d="M349.482 69.69H350.922V73.194H352.786V74.25H349.482V69.69Z" fill="#457B9D"/>
</svg>
