<svg width="121" height="380" viewBox="0 0 121 380" fill="none" xmlns="http://www.w3.org/2000/svg">
<g clip-path="url(#clip0)">
<rect x="0.25" width="120" height="380" fill="#457B9D"/>
<g opacity="0.3">
<path fill-rule="evenodd" clip-rule="evenodd" d="M54.208 375.599C54.053 375.747 53.909 375.851 53.776 375.909C53.643 375.968 53.501 375.998 53.35 375.998C53.198 375.998 53.056 375.97 52.923 375.914C52.79 375.858 52.674 375.781 52.575 375.682C52.359 375.466 52.25 375.209 52.25 374.912V369.385C52.25 369.082 52.328 368.847 52.482 368.68C52.748 368.408 53 368.272 53.238 368.272C53.476 368.272 53.654 368.296 53.772 368.346C53.889 368.395 53.988 368.457 54.068 368.531C54.174 368.624 54.252 368.723 54.305 368.828C54.358 368.933 54.401 369.011 54.435 369.06C54.469 369.11 54.525 369.134 54.602 369.134C54.679 369.134 54.746 369.11 54.801 369.06L54.959 368.902C55.41 368.482 55.862 368.272 56.313 368.272C57.111 368.272 57.769 368.599 58.289 369.255C58.338 369.323 58.4 369.357 58.474 369.357C58.604 369.357 58.736 369.256 58.869 369.055C59.002 368.854 59.216 368.674 59.513 368.513C59.81 368.352 60.156 368.272 60.552 368.272C60.948 368.272 61.308 368.344 61.633 368.49C61.957 368.635 62.24 368.834 62.481 369.088C62.988 369.62 63.242 370.263 63.242 371.017V374.912C63.242 375.382 63.019 375.713 62.574 375.905C62.438 375.967 62.294 375.998 62.143 375.998C61.991 375.998 61.849 375.97 61.716 375.914C61.583 375.858 61.467 375.781 61.368 375.682C61.158 375.46 61.053 375.203 61.053 374.912V371.045C61.053 370.736 60.976 370.504 60.821 370.349C60.549 370.077 60.299 369.941 60.07 369.941C59.841 369.941 59.662 369.971 59.532 370.029C59.402 370.088 59.284 370.17 59.179 370.275C58.963 370.492 58.855 370.742 58.855 371.026V374.912C58.855 375.382 58.635 375.713 58.196 375.905C58.06 375.967 57.916 375.998 57.765 375.998C57.613 375.998 57.47 375.97 57.333 375.914C57.197 375.858 57.08 375.781 56.981 375.682C56.765 375.466 56.656 375.209 56.656 374.912V371.045C56.656 370.736 56.579 370.504 56.424 370.349C56.152 370.077 55.868 369.941 55.571 369.941C55.076 369.941 54.733 370.133 54.542 370.516C54.48 370.64 54.449 370.779 54.449 370.934V374.912C54.449 375.215 54.368 375.444 54.208 375.599ZM65.469 369.387C65.469 369.084 65.546 368.849 65.701 368.682C65.966 368.41 66.26 368.274 66.582 368.274C66.891 368.274 67.12 368.355 67.268 368.515C67.54 368.794 67.676 369.084 67.676 369.387V374.915C67.676 375.212 67.599 375.437 67.444 375.592C67.172 375.864 66.922 376 66.693 376C66.464 376 66.282 375.971 66.146 375.912C66.01 375.853 65.892 375.777 65.793 375.685C65.577 375.474 65.469 375.218 65.469 374.915V369.387ZM66.577 365.9C66.315 365.9 66.102 365.687 66.102 365.425C66.102 365.162 66.315 364.95 66.577 364.95C66.839 364.95 67.052 365.162 67.052 365.425C67.052 365.687 66.839 365.9 66.577 365.9ZM66.577 364C66.964 364 67.298 364.142 67.579 364.425C67.861 364.709 68.002 364.996 68.002 365.287C68.002 365.577 67.963 365.807 67.885 365.978C67.808 366.148 67.706 366.297 67.579 366.424C67.298 366.708 66.964 366.849 66.577 366.849C66.19 366.849 65.856 366.708 65.574 366.424C65.293 366.141 65.152 365.857 65.152 365.574C65.152 365.092 65.293 364.709 65.574 364.425C65.856 364.142 66.19 364 66.577 364Z" fill="#1D3557"/>
</g>
<path d="M50.854 20.4904H49.028L48.698 21.8654H46.674L48.698 15.5954H51.283L53.219 21.8654H51.184L50.854 20.4904ZM49.93 16.9484L49.281 19.2694H50.59L49.974 16.9484H49.93ZM56.516 15.5954C57.374 15.5954 58.0743 15.676 58.617 15.8374C59.167 15.9987 59.5923 16.303 59.893 16.7504C60.201 17.1977 60.355 17.8394 60.355 18.6754C60.355 19.57 60.1937 20.252 59.871 20.7214C59.5483 21.1834 59.1157 21.4914 58.573 21.6454C58.0303 21.792 57.3447 21.8654 56.516 21.8654H54.316V15.5954H56.516ZM57.99 20.3694C58.078 20.2814 58.1403 20.054 58.177 19.6874C58.2137 19.3207 58.232 18.9834 58.232 18.6754C58.232 18.2867 58.2027 17.9787 58.144 17.7514C58.0927 17.5167 57.9973 17.3297 57.858 17.1904C57.638 16.9484 57.2603 16.8274 56.725 16.8274C56.6297 16.8274 56.4867 16.8347 56.296 16.8494V20.5014C56.4207 20.516 56.615 20.5234 56.879 20.5234C57.1503 20.5234 57.3887 20.5124 57.594 20.4904C57.8067 20.461 57.9387 20.4207 57.99 20.3694ZM63.588 17.2894C63.588 17.4434 63.665 17.5644 63.819 17.6524C63.9803 17.7404 64.2297 17.8357 64.567 17.9384C64.9703 18.0704 65.3003 18.1987 65.557 18.3234C65.821 18.448 66.0483 18.6424 66.239 18.9064C66.437 19.1704 66.536 19.515 66.536 19.9404C66.536 21.3044 65.6487 21.9864 63.874 21.9864C63.5807 21.9864 63.2213 21.9607 62.796 21.9094C62.378 21.858 61.9967 21.792 61.652 21.7114C61.6667 21.5574 61.696 21.3337 61.74 21.0404C61.7913 20.7397 61.839 20.516 61.883 20.3694C62.1397 20.406 62.5247 20.45 63.038 20.5014C63.5587 20.5527 63.951 20.5784 64.215 20.5784C64.369 20.5784 64.4607 20.5674 64.49 20.5454C64.534 20.516 64.567 20.4684 64.589 20.4024C64.6183 20.329 64.633 20.2667 64.633 20.2154C64.633 20.0687 64.5633 19.9587 64.424 19.8854C64.2847 19.8047 64.0463 19.7094 63.709 19.5994C63.3057 19.4747 62.972 19.3464 62.708 19.2144C62.444 19.0824 62.213 18.877 62.015 18.5984C61.817 18.3197 61.718 17.953 61.718 17.4984C61.718 17.1757 61.7913 16.8604 61.938 16.5524C62.0847 16.237 62.235 16.0244 62.389 15.9144C62.5063 15.8337 62.7483 15.7567 63.115 15.6834C63.4817 15.61 63.8263 15.5734 64.149 15.5734C64.9703 15.5734 65.6413 15.6504 66.162 15.8044C66.1547 15.951 66.129 16.1527 66.085 16.4094C66.0483 16.666 66.008 16.9007 65.964 17.1134L65.711 17.1024C64.7577 17.0364 64.149 17.0034 63.885 17.0034C63.775 17.0034 63.7127 17.007 63.698 17.0144C63.6687 17.029 63.643 17.062 63.621 17.1134C63.599 17.1647 63.588 17.2234 63.588 17.2894ZM73.7041 21.8654H71.6251L71.2511 20.2814C71.2365 20.2227 71.2108 20.1237 71.1741 19.9844C71.1448 19.8377 71.1081 19.7314 71.0641 19.6654C71.0201 19.592 70.9578 19.5444 70.8771 19.5224C70.6718 19.5297 70.3711 19.5334 69.9751 19.5334V21.8654H67.9951V15.6504C68.8825 15.5844 69.7111 15.5514 70.4811 15.5514C71.1778 15.5514 71.7425 15.61 72.1751 15.7274C72.6078 15.8374 72.9305 16.0317 73.1431 16.3104C73.3631 16.5817 73.4731 16.9557 73.4731 17.4324C73.4731 17.8797 73.3705 18.2317 73.1651 18.4884C72.9598 18.7377 72.6298 18.888 72.1751 18.9394V19.0054C72.4318 19.0274 72.6445 19.1117 72.8131 19.2584C72.9891 19.3977 73.1065 19.5774 73.1651 19.7974L73.7041 21.8654ZM69.9751 18.2904C70.0411 18.2977 70.1695 18.3014 70.3601 18.3014C70.9248 18.3014 71.2548 18.2537 71.3501 18.1584C71.4381 18.0704 71.4821 17.865 71.4821 17.5424C71.4821 17.2417 71.4015 17.0364 71.2401 16.9264C71.0861 16.8164 70.8295 16.7614 70.4701 16.7614C70.3895 16.7614 70.2245 16.7687 69.9751 16.7834V18.2904Z" fill="white"/>
<path d="M13.5684 62.5407L13.9541 61.2907H15.7363L16.1123 62.5407H17.499L15.6729 57.2087H14.0908L12.2598 62.5407H13.5684ZM14.8818 58.3415L15.4922 60.3825H14.1982L14.8184 58.3415H14.8818ZM21.0068 62.5407V58.2292H22.5547V57.2087H18.1504V58.2292H19.6982V62.5407H21.0068ZM26.6826 62.5407V58.2292H28.2305V57.2087H23.8262V58.2292H25.374V62.5407H26.6826Z" fill="white"/>
<path d="M42.7471 59.8552C42.7471 58.1755 41.9219 57.2087 40.2031 57.2087H38.0254V62.5407H40.2031C41.9023 62.5407 42.7471 61.5593 42.7471 59.8552ZM41.4092 59.8796C41.4092 61.1882 40.8281 61.5446 39.9883 61.5446H39.334V58.2048H39.9883C41.043 58.2048 41.4092 58.8932 41.4092 59.8796ZM48.3105 61.5446H45.8545V60.319H48.1592V59.3913H45.8545V58.2048H48.3105V57.2087H44.5605V62.5407H48.3105V61.5446ZM51.3496 59.5817C51.3496 58.6686 51.7402 58.1462 52.4434 58.1462C53.0635 58.1462 53.4736 58.5661 53.4736 59.1716H54.7285V59.03C54.7285 57.863 53.752 57.111 52.4336 57.111C50.8955 57.111 50.0166 58.0778 50.0166 59.5817V60.1823C50.0166 61.6765 50.8955 62.6384 52.4336 62.6384C53.7373 62.6384 54.7285 61.9108 54.7285 60.7634V60.6169H53.4736C53.4736 61.1931 53.0635 61.6081 52.4385 61.6081C51.7402 61.6081 51.3496 61.0856 51.3496 60.1872V59.5817Z" fill="white"/>
<path d="M14.25 209H51.25" stroke="white" stroke-width="0.5"/>
<path d="M69.25 209H106.25" stroke="white" stroke-width="0.5"/>
<path d="M56.6182 209.041C56.6182 208.128 57.0088 207.605 57.7119 207.605C58.332 207.605 58.7422 208.025 58.7422 208.631H59.9971V208.489C59.9971 207.322 59.0205 206.57 57.7021 206.57C56.1641 206.57 55.2852 207.537 55.2852 209.041V209.642C55.2852 211.136 56.1641 212.098 57.7021 212.098C59.0059 212.098 59.9971 211.37 59.9971 210.223V210.076H58.7422C58.7422 210.652 58.332 211.067 57.707 211.067C57.0088 211.067 56.6182 210.545 56.6182 209.646V209.041ZM64.7354 212L66.5322 206.668H65.082L63.9834 210.672H63.9199L62.8066 206.668H61.2881L63.1094 212H64.7354Z" fill="white"/>
<path d="M63.8408 60.988C63.8555 61.8864 64.5732 62.6384 66.1016 62.6384C67.6055 62.6384 68.4014 61.9255 68.4014 60.9245C68.4014 59.987 67.7812 59.5768 66.8828 59.4011L66.0967 59.2497C65.5449 59.1374 65.2715 58.9763 65.2715 58.6638C65.2715 58.322 65.5791 58.0632 66.1406 58.0632C66.7266 58.0632 67.0684 58.3561 67.0977 58.7272H68.3037C68.2939 57.8776 67.5615 57.1061 66.1455 57.1061C64.8369 57.1061 63.9629 57.7604 63.9629 58.7614C63.9629 59.6306 64.5195 60.0847 65.5156 60.2849L66.2627 60.4362C66.8291 60.5534 67.1074 60.7194 67.1074 61.0515C67.1074 61.4128 66.7949 61.6716 66.1553 61.6716C65.5205 61.6716 65.1201 61.3737 65.0908 60.988H63.8408ZM72.5 61.5886C71.8896 61.5886 71.4648 61.2272 71.4648 60.5388V57.2087H70.1514V60.6852C70.1514 61.8766 71.0547 62.6384 72.5 62.6384C73.9453 62.6384 74.8486 61.8718 74.8486 60.6852V57.2087H73.54V60.5388C73.54 61.2224 73.1104 61.5886 72.5 61.5886ZM76.5498 60.988C76.5645 61.8864 77.2822 62.6384 78.8105 62.6384C80.3145 62.6384 81.1104 61.9255 81.1104 60.9245C81.1104 59.987 80.4902 59.5768 79.5918 59.4011L78.8057 59.2497C78.2539 59.1374 77.9805 58.9763 77.9805 58.6638C77.9805 58.322 78.2881 58.0632 78.8496 58.0632C79.4355 58.0632 79.7773 58.3561 79.8066 58.7272H81.0127C81.0029 57.8776 80.2705 57.1061 78.8545 57.1061C77.5459 57.1061 76.6719 57.7604 76.6719 58.7614C76.6719 59.6306 77.2285 60.0847 78.2246 60.2849L78.9717 60.4362C79.5381 60.5534 79.8164 60.7194 79.8164 61.0515C79.8164 61.4128 79.5039 61.6716 78.8643 61.6716C78.2295 61.6716 77.8291 61.3737 77.7998 60.988H76.5498Z" fill="white"/>
<path d="M93.0527 57.2087H90.6992V62.5407H91.9834V60.6218H92.8086L93.7705 62.5407H95.2207L94.0977 60.446C94.5859 60.2653 95.1133 59.7282 95.1133 58.947C95.1133 57.8776 94.3516 57.2087 93.0527 57.2087ZM91.9834 59.7233V58.1608H92.8623C93.3896 58.1608 93.7607 58.4391 93.7607 58.9567C93.7607 59.4694 93.3994 59.7233 92.8477 59.7233H91.9834ZM100.721 61.5446H98.2646V60.319H100.569V59.3913H98.2646V58.2048H100.721V57.2087H96.9707V62.5407H100.721V61.5446ZM106.255 61.5007H103.965V57.2087H102.656V62.5407H106.255V61.5007Z" fill="white"/>
<path d="M14.0752 301.421C14.041 300.425 13.2256 299.57 11.7754 299.57C10.1836 299.57 9.29492 300.562 9.29492 301.992V302.642C9.29492 304.062 10.0713 305.098 11.7607 305.098C13.2549 305.098 14.0801 304.209 14.0801 303.12V302.08H11.8242V302.974H12.8447V303.213C12.8447 303.677 12.4492 304.072 11.7803 304.072C10.9453 304.072 10.6133 303.472 10.6133 302.637V302.007C10.6133 301.133 11.0137 300.601 11.7656 300.601C12.3809 300.601 12.752 300.967 12.8057 301.421H14.0752ZM16.7432 305L17.1289 303.75H18.9111L19.2871 305H20.6738L18.8477 299.668H17.2656L15.4346 305H16.7432ZM18.0566 300.801L18.667 302.842H17.373L17.9932 300.801H18.0566ZM24.1816 305V300.688H25.7295V299.668H21.3252V300.688H22.873V305H24.1816ZM31.1318 304.004H28.6758V302.778H30.9805V301.851H28.6758V300.664H31.1318V299.668H27.3818V305H31.1318V304.004Z" fill="white"/>
<path d="M46.8467 299.668H44.4932V305H45.7773V303.081H46.6025L47.5645 305H49.0146L47.8916 302.905C48.3799 302.725 48.9072 302.188 48.9072 301.406C48.9072 300.337 48.1455 299.668 46.8467 299.668ZM45.7773 302.183V300.62H46.6562C47.1836 300.62 47.5547 300.898 47.5547 301.416C47.5547 301.929 47.1934 302.183 46.6416 302.183H45.7773ZM54.5146 304.004H52.0586V302.778H54.3633V301.851H52.0586V300.664H54.5146V299.668H50.7646V305H54.5146V304.004ZM58.7988 305V300.688H60.3467V299.668H55.9424V300.688H57.4902V305H58.7988ZM64.3525 299.668H61.999V305H63.2832V303.081H64.1084L65.0703 305H66.5205L65.3975 302.905C65.8857 302.725 66.4131 302.188 66.4131 301.406C66.4131 300.337 65.6514 299.668 64.3525 299.668ZM63.2832 302.183V300.62H64.1621C64.6895 300.62 65.0605 300.898 65.0605 301.416C65.0605 301.929 64.6992 302.183 64.1475 302.183H63.2832ZM69.5791 305V299.668H68.2705V305H69.5791ZM76.2217 301.421C76.1875 300.425 75.3721 299.57 73.9219 299.57C72.3301 299.57 71.4414 300.562 71.4414 301.992V302.642C71.4414 304.062 72.2178 305.098 73.9072 305.098C75.4014 305.098 76.2266 304.209 76.2266 303.12V302.08H73.9707V302.974H74.9912V303.213C74.9912 303.677 74.5957 304.072 73.9268 304.072C73.0918 304.072 72.7598 303.472 72.7598 302.637V302.007C72.7598 301.133 73.1602 300.601 73.9121 300.601C74.5273 300.601 74.8984 300.967 74.9521 301.421H76.2217Z" fill="white"/>
<path d="M93.6836 305.098C95.2705 305.098 96.1738 304.126 96.1738 302.637V302.036C96.1738 300.542 95.2656 299.57 93.6787 299.57C92.0967 299.57 91.1885 300.537 91.1885 302.036V302.637C91.1885 304.126 92.1016 305.098 93.6836 305.098ZM93.6836 304.077C92.9561 304.077 92.5215 303.535 92.5215 302.642V302.021C92.5215 301.128 92.9561 300.591 93.6836 300.591C94.4062 300.591 94.8408 301.128 94.8408 302.021V302.642C94.8408 303.535 94.4062 304.077 93.6836 304.077ZM100.321 304.048C99.7109 304.048 99.2861 303.687 99.2861 302.998V299.668H97.9727V303.145C97.9727 304.336 98.876 305.098 100.321 305.098C101.767 305.098 102.67 304.331 102.67 303.145V299.668H101.361V302.998C101.361 303.682 100.932 304.048 100.321 304.048ZM107.042 305V300.688H108.59V299.668H104.186V300.688H105.733V305H107.042Z" fill="white"/>
</g>
<defs>
<clipPath id="clip0">
<rect width="120" height="380" fill="white" transform="translate(0.25)"/>
</clipPath>
</defs>
</svg>
