<svg width="121" height="380" viewBox="0 0 121 380" fill="none" xmlns="http://www.w3.org/2000/svg">
<g clip-path="url(#clip0)">
<rect x="0.25" width="120" height="380" fill="#457B9D"/>
<g opacity="0.5">
<path fill-rule="evenodd" clip-rule="evenodd" d="M54.208 375.599C54.053 375.747 53.909 375.851 53.776 375.909C53.643 375.968 53.501 375.998 53.35 375.998C53.198 375.998 53.056 375.97 52.923 375.914C52.79 375.858 52.674 375.781 52.575 375.682C52.359 375.466 52.25 375.209 52.25 374.912V369.385C52.25 369.082 52.328 368.847 52.482 368.68C52.748 368.408 53 368.272 53.238 368.272C53.476 368.272 53.654 368.296 53.772 368.346C53.889 368.395 53.988 368.457 54.068 368.531C54.174 368.624 54.252 368.723 54.305 368.828C54.358 368.933 54.401 369.011 54.435 369.06C54.469 369.11 54.525 369.134 54.602 369.134C54.679 369.134 54.746 369.11 54.801 369.06L54.959 368.902C55.41 368.482 55.862 368.272 56.313 368.272C57.111 368.272 57.769 368.599 58.289 369.255C58.338 369.323 58.4 369.357 58.474 369.357C58.604 369.357 58.736 369.256 58.869 369.055C59.002 368.854 59.216 368.674 59.513 368.513C59.81 368.352 60.156 368.272 60.552 368.272C60.948 368.272 61.308 368.344 61.633 368.49C61.957 368.635 62.24 368.834 62.481 369.088C62.988 369.62 63.242 370.263 63.242 371.017V374.912C63.242 375.382 63.019 375.713 62.574 375.905C62.438 375.967 62.294 375.998 62.143 375.998C61.991 375.998 61.849 375.97 61.716 375.914C61.583 375.858 61.467 375.781 61.368 375.682C61.158 375.46 61.053 375.203 61.053 374.912V371.045C61.053 370.736 60.976 370.504 60.821 370.349C60.549 370.077 60.299 369.941 60.07 369.941C59.841 369.941 59.662 369.971 59.532 370.029C59.402 370.088 59.284 370.17 59.179 370.275C58.963 370.492 58.855 370.742 58.855 371.026V374.912C58.855 375.382 58.635 375.713 58.196 375.905C58.06 375.967 57.916 375.998 57.765 375.998C57.613 375.998 57.47 375.97 57.333 375.914C57.197 375.858 57.08 375.781 56.981 375.682C56.765 375.466 56.656 375.209 56.656 374.912V371.045C56.656 370.736 56.579 370.504 56.424 370.349C56.152 370.077 55.868 369.941 55.571 369.941C55.076 369.941 54.733 370.133 54.542 370.516C54.48 370.64 54.449 370.779 54.449 370.934V374.912C54.449 375.215 54.368 375.444 54.208 375.599ZM65.469 369.387C65.469 369.084 65.546 368.849 65.701 368.682C65.966 368.41 66.26 368.274 66.582 368.274C66.891 368.274 67.12 368.355 67.268 368.515C67.54 368.794 67.676 369.084 67.676 369.387V374.915C67.676 375.212 67.599 375.437 67.444 375.592C67.172 375.864 66.922 376 66.693 376C66.464 376 66.282 375.971 66.146 375.912C66.01 375.853 65.892 375.777 65.793 375.685C65.577 375.474 65.469 375.218 65.469 374.915V369.387ZM66.577 365.9C66.315 365.9 66.102 365.687 66.102 365.425C66.102 365.162 66.315 364.95 66.577 364.95C66.839 364.95 67.052 365.162 67.052 365.425C67.052 365.687 66.839 365.9 66.577 365.9ZM66.577 364C66.964 364 67.298 364.142 67.579 364.425C67.861 364.709 68.002 364.996 68.002 365.287C68.002 365.577 67.963 365.807 67.885 365.978C67.808 366.148 67.706 366.297 67.579 366.424C67.298 366.708 66.964 366.849 66.577 366.849C66.19 366.849 65.856 366.708 65.574 366.424C65.293 366.141 65.152 365.857 65.152 365.574C65.152 365.092 65.293 364.709 65.574 364.425C65.856 364.142 66.19 364 66.577 364Z" fill="#1D3557"/>
</g>
<path d="M50.8998 21.3654H48.9078L48.5478 22.8654H46.3398L48.5478 16.0254H51.3678L53.4798 22.8654H51.2598L50.8998 21.3654ZM49.8918 17.5014L49.1838 20.0334H50.6118L49.9398 17.5014H49.8918ZM56.4766 16.0254C57.4126 16.0254 58.1766 16.1134 58.7686 16.2894C59.3686 16.4654 59.8326 16.7974 60.1606 17.2854C60.4966 17.7734 60.6646 18.4734 60.6646 19.3854C60.6646 20.3614 60.4886 21.1054 60.1366 21.6174C59.7846 22.1214 59.3126 22.4574 58.7206 22.6254C58.1286 22.7854 57.3806 22.8654 56.4766 22.8654H54.0766V16.0254H56.4766ZM58.0846 21.2334C58.1806 21.1374 58.2486 20.8894 58.2886 20.4894C58.3286 20.0894 58.3486 19.7214 58.3486 19.3854C58.3486 18.9614 58.3166 18.6254 58.2526 18.3774C58.1966 18.1214 58.0926 17.9174 57.9406 17.7654C57.7006 17.5014 57.2886 17.3694 56.7046 17.3694C56.6006 17.3694 56.4446 17.3774 56.2366 17.3934V21.3774C56.3726 21.3934 56.5846 21.4014 56.8726 21.4014C57.1686 21.4014 57.4286 21.3894 57.6526 21.3654C57.8846 21.3334 58.0286 21.2894 58.0846 21.2334ZM63.5914 17.8734C63.5914 18.0414 63.6754 18.1734 63.8434 18.2694C64.0194 18.3654 64.2914 18.4694 64.6594 18.5814C65.0994 18.7254 65.4594 18.8654 65.7394 19.0014C66.0274 19.1374 66.2754 19.3494 66.4834 19.6374C66.6994 19.9254 66.8074 20.3014 66.8074 20.7654C66.8074 22.2534 65.8394 22.9974 63.9034 22.9974C63.5834 22.9974 63.1914 22.9694 62.7274 22.9134C62.2714 22.8574 61.8554 22.7854 61.4794 22.6974C61.4954 22.5294 61.5274 22.2854 61.5754 21.9654C61.6314 21.6374 61.6834 21.3934 61.7314 21.2334C62.0114 21.2734 62.4314 21.3214 62.9914 21.3774C63.5594 21.4334 63.9874 21.4614 64.2754 21.4614C64.4434 21.4614 64.5434 21.4494 64.5754 21.4254C64.6234 21.3934 64.6594 21.3414 64.6834 21.2694C64.7154 21.1894 64.7314 21.1214 64.7314 21.0654C64.7314 20.9054 64.6554 20.7854 64.5034 20.7054C64.3514 20.6174 64.0914 20.5134 63.7234 20.3934C63.2834 20.2574 62.9194 20.1174 62.6314 19.9734C62.3434 19.8294 62.0914 19.6054 61.8754 19.3014C61.6594 18.9974 61.5514 18.5974 61.5514 18.1014C61.5514 17.7494 61.6314 17.4054 61.7914 17.0694C61.9514 16.7254 62.1154 16.4934 62.2834 16.3734C62.4114 16.2854 62.6754 16.2014 63.0754 16.1214C63.4754 16.0414 63.8514 16.0014 64.2034 16.0014C65.0994 16.0014 65.8314 16.0854 66.3994 16.2534C66.3914 16.4134 66.3634 16.6334 66.3154 16.9134C66.2754 17.1934 66.2314 17.4494 66.1834 17.6814L65.9074 17.6694C64.8674 17.5974 64.2034 17.5614 63.9154 17.5614C63.7954 17.5614 63.7274 17.5654 63.7114 17.5734C63.6794 17.5894 63.6514 17.6254 63.6274 17.6814C63.6034 17.7374 63.5914 17.8014 63.5914 17.8734ZM74.0272 22.8654H71.7592L71.3512 21.1374C71.3352 21.0734 71.3072 20.9654 71.2672 20.8134C71.2352 20.6534 71.1952 20.5374 71.1472 20.4654C71.0992 20.3854 71.0312 20.3334 70.9432 20.3094C70.7192 20.3174 70.3912 20.3214 69.9592 20.3214V22.8654H67.7992V16.0854C68.7672 16.0134 69.6712 15.9774 70.5112 15.9774C71.2712 15.9774 71.8872 16.0414 72.3592 16.1694C72.8312 16.2894 73.1832 16.5014 73.4152 16.8054C73.6552 17.1014 73.7752 17.5094 73.7752 18.0294C73.7752 18.5174 73.6632 18.9014 73.4392 19.1814C73.2152 19.4534 72.8552 19.6174 72.3592 19.6734V19.7454C72.6392 19.7694 72.8712 19.8614 73.0552 20.0214C73.2472 20.1734 73.3752 20.3694 73.4392 20.6094L74.0272 22.8654ZM69.9592 18.9654C70.0312 18.9734 70.1712 18.9774 70.3792 18.9774C70.9952 18.9774 71.3552 18.9254 71.4592 18.8214C71.5552 18.7254 71.6032 18.5014 71.6032 18.1494C71.6032 17.8214 71.5152 17.5974 71.3392 17.4774C71.1712 17.3574 70.8912 17.2974 70.4992 17.2974C70.4112 17.2974 70.2312 17.3054 69.9592 17.3214V18.9654Z" fill="#A8DADC"/>
<path d="M18.653 62.5407L18.461 61.7847C18.093 62.3847 17.581 62.6847 16.925 62.6847C16.389 62.6847 15.949 62.5367 15.605 62.2407C15.269 61.9367 15.101 61.5127 15.101 60.9687C15.101 60.6327 15.197 60.3407 15.389 60.0927C15.589 59.8367 15.861 59.6567 16.205 59.5527C16.653 59.4247 17.345 59.3527 18.281 59.3367C18.281 58.8087 18.257 58.5287 18.209 58.4967C18.169 58.4647 18.041 58.4487 17.825 58.4487C17.689 58.4487 17.501 58.4567 17.261 58.4727C16.877 58.4887 16.357 58.5327 15.701 58.6047C15.637 58.1727 15.589 57.7087 15.557 57.2127C15.981 57.1247 16.425 57.0527 16.889 56.9967C17.353 56.9327 17.769 56.9007 18.137 56.9007C18.777 56.9007 19.257 57.0087 19.577 57.2247C19.897 57.4327 20.105 57.7087 20.201 58.0527C20.297 58.3967 20.341 58.8327 20.333 59.3607L20.321 61.1247L20.357 62.5407H18.653ZM17.621 61.3407C17.829 61.3407 18.049 61.3007 18.281 61.2207V60.3327H18.185C17.593 60.3327 17.265 60.3647 17.201 60.4287C17.161 60.4687 17.129 60.5287 17.105 60.6087C17.089 60.6887 17.081 60.7647 17.081 60.8367C17.081 61.0287 17.125 61.1607 17.213 61.2327C17.301 61.3047 17.437 61.3407 17.621 61.3407ZM23.8036 60.2727C23.8036 60.4167 23.8076 60.5687 23.8156 60.7287C23.8236 60.8807 23.8476 60.9767 23.8876 61.0167C23.9436 61.0727 24.1396 61.1007 24.4756 61.1007L24.8836 61.0887C24.9556 61.4727 24.9916 61.9167 24.9916 62.4207C24.8396 62.4767 24.6156 62.5287 24.3196 62.5767C24.0316 62.6247 23.7556 62.6487 23.4916 62.6487C22.9396 62.6487 22.5116 62.5287 22.2076 62.2887C21.9116 62.0407 21.7636 61.6607 21.7636 61.1487V58.1967H20.8636V57.1047L21.7636 57.0207L22.3036 55.7007L23.8036 55.6167V57.0207H25.0756V58.1967H23.8036V60.2727ZM28.2333 60.2727C28.2333 60.4167 28.2373 60.5687 28.2453 60.7287C28.2533 60.8807 28.2773 60.9767 28.3173 61.0167C28.3733 61.0727 28.5693 61.1007 28.9053 61.1007L29.3133 61.0887C29.3853 61.4727 29.4213 61.9167 29.4213 62.4207C29.2693 62.4767 29.0453 62.5287 28.7493 62.5767C28.4613 62.6247 28.1853 62.6487 27.9213 62.6487C27.3693 62.6487 26.9413 62.5287 26.6373 62.2887C26.3413 62.0407 26.1933 61.6607 26.1933 61.1487V58.1967H25.2933V57.1047L26.1933 57.0207L26.7333 55.7007L28.2333 55.6167V57.0207H29.5053V58.1967H28.2333V60.2727Z" fill="#A8DADC"/>
<path d="M45.3786 55.2567V62.5407H43.6866L43.5186 61.6167C43.3586 61.9287 43.1226 62.1767 42.8106 62.3607C42.4986 62.5447 42.1466 62.6367 41.7546 62.6367C41.1306 62.6367 40.6306 62.4127 40.2546 61.9647C39.8866 61.5167 39.7026 60.8447 39.7026 59.9487C39.7026 59.2687 39.7826 58.7087 39.9426 58.2687C40.1026 57.8287 40.2906 57.5127 40.5066 57.3207C40.6426 57.2007 40.9186 57.1007 41.3346 57.0207C41.7586 56.9407 42.1346 56.9007 42.4626 56.9007C42.7506 56.9007 43.0466 56.9287 43.3506 56.9847C43.3266 56.6007 43.3146 56.3887 43.3146 56.3487V55.3407L45.3786 55.2567ZM42.6546 61.0287C42.8706 61.0287 43.0946 60.9927 43.3266 60.9207V58.3167C43.0946 58.2847 42.8386 58.2687 42.5586 58.2687C42.3186 58.2687 42.1666 58.2887 42.1026 58.3287C42.0146 58.3927 41.9426 58.5767 41.8866 58.8807C41.8386 59.1767 41.8146 59.4887 41.8146 59.8167C41.8146 60.3047 41.8866 60.6287 42.0306 60.7887C42.1826 60.9487 42.3906 61.0287 42.6546 61.0287ZM49.7111 61.1007C49.9111 61.1007 50.2831 61.0807 50.8271 61.0407C50.8991 61.0407 51.0311 61.0327 51.2231 61.0167L51.4031 62.2527C50.7871 62.5407 49.9871 62.6847 49.0031 62.6847C48.0831 62.6847 47.3751 62.4527 46.8791 61.9887C46.3911 61.5247 46.1471 60.8247 46.1471 59.8887C46.1471 59.4087 46.2071 58.9447 46.3271 58.4967C46.4551 58.0487 46.5991 57.7367 46.7591 57.5607C46.9271 57.3847 47.2391 57.2327 47.6951 57.1047C48.1511 56.9767 48.6031 56.9127 49.0511 56.9127C49.7711 56.9127 50.3111 57.0407 50.6711 57.2967C51.0311 57.5527 51.2671 57.9087 51.3791 58.3647C51.4911 58.8127 51.5471 59.4167 51.5471 60.1767C51.0031 60.2087 50.4711 60.2247 49.9511 60.2247H48.2471C48.2471 60.4807 48.2991 60.6727 48.4031 60.8007C48.5151 60.9287 48.6711 61.0127 48.8711 61.0527C49.0711 61.0847 49.3511 61.1007 49.7111 61.1007ZM48.3671 58.3407C48.3191 58.3647 48.2831 58.4687 48.2591 58.6527C48.2351 58.8367 48.2191 59.0447 48.2111 59.2767H48.8351C49.2111 59.2767 49.4831 59.2727 49.6511 59.2647C49.6511 58.8807 49.5951 58.6087 49.4831 58.4487C49.3791 58.2887 49.1951 58.2087 48.9311 58.2087C48.7151 58.2087 48.5271 58.2527 48.3671 58.3407ZM56.9133 62.3727C56.2653 62.5887 55.5413 62.6967 54.7413 62.6967C53.8453 62.6967 53.1733 62.4727 52.7253 62.0247C52.2853 61.5687 52.0653 60.8607 52.0653 59.9007C52.0653 59.4287 52.1293 58.9647 52.2573 58.5087C52.3853 58.0447 52.5213 57.7327 52.6653 57.5727C52.8333 57.3887 53.1613 57.2327 53.6493 57.1047C54.1453 56.9767 54.6573 56.9127 55.1853 56.9127C55.7373 56.9127 56.2933 56.9607 56.8533 57.0567C56.8373 57.2567 56.8093 57.4927 56.7693 57.7647C56.7373 58.0287 56.7013 58.2647 56.6613 58.4727C56.1653 58.4407 55.6973 58.4247 55.2573 58.4247C54.8253 58.4247 54.5493 58.4487 54.4293 58.4967C54.3653 58.5207 54.3053 58.6847 54.2493 58.9887C54.2013 59.2927 54.1773 59.5767 54.1773 59.8407C54.1773 60.1927 54.2253 60.4647 54.3213 60.6567C54.4253 60.8407 54.5853 60.9687 54.8013 61.0407C55.0173 61.1127 55.3093 61.1487 55.6773 61.1487C55.8373 61.1487 56.1893 61.1327 56.7333 61.1007L56.9133 62.3727Z" fill="#A8DADC"/>
<path d="M14.25 254H51.25" stroke="#A8DADC" stroke-width="0.5"/>
<path d="M69.25 254H106.25" stroke="#A8DADC" stroke-width="0.5"/>
<path d="M59.6321 256.832C58.9841 257.048 58.2601 257.156 57.4601 257.156C56.5641 257.156 55.8921 256.932 55.4441 256.484C55.0041 256.028 54.7841 255.32 54.7841 254.36C54.7841 253.888 54.8481 253.424 54.9761 252.968C55.1041 252.504 55.2401 252.192 55.3841 252.032C55.5521 251.848 55.8801 251.692 56.3681 251.564C56.8641 251.436 57.3761 251.372 57.9041 251.372C58.4561 251.372 59.0121 251.42 59.5721 251.516C59.5561 251.716 59.5281 251.952 59.4881 252.224C59.4561 252.488 59.4201 252.724 59.3801 252.932C58.8841 252.9 58.4161 252.884 57.9761 252.884C57.5441 252.884 57.2681 252.908 57.1481 252.956C57.0841 252.98 57.0241 253.144 56.9681 253.448C56.9201 253.752 56.8961 254.036 56.8961 254.3C56.8961 254.652 56.9441 254.924 57.0401 255.116C57.1441 255.3 57.3041 255.428 57.5201 255.5C57.7361 255.572 58.0281 255.608 58.3961 255.608C58.5561 255.608 58.9081 255.592 59.4521 255.56L59.6321 256.832ZM63.8721 251.48H66.0201L64.3401 257H61.4961L59.8161 251.48H61.9641L62.8641 255.716H62.9841L63.8721 251.48Z" fill="#A8DADC"/>
<path d="M70.8095 60.6687C70.8095 61.3807 70.5815 61.8927 70.1255 62.2047C69.6775 62.5167 69.0375 62.6727 68.2055 62.6727C67.6215 62.6727 66.9495 62.5887 66.1895 62.4207C66.2055 62.2607 66.2415 62.0327 66.2975 61.7367C66.3615 61.4327 66.4135 61.2007 66.4535 61.0407C66.7415 61.0887 67.0615 61.1287 67.4135 61.1607C67.7655 61.1847 68.0655 61.1967 68.3135 61.1967C68.5295 61.1967 68.6615 61.1847 68.7095 61.1607C68.7175 61.1527 68.7255 61.1327 68.7335 61.1007C68.7495 61.0607 68.7575 61.0207 68.7575 60.9807C68.7575 60.8207 68.6575 60.7127 68.4575 60.6567C68.3935 60.6407 68.1495 60.5727 67.7255 60.4527C67.3015 60.3327 66.9535 60.1167 66.6815 59.8047C66.4175 59.4847 66.2855 59.0887 66.2855 58.6167C66.2855 58.3687 66.3415 58.0927 66.4535 57.7887C66.5655 57.4847 66.6855 57.2927 66.8135 57.2127C66.9095 57.1487 67.1415 57.0847 67.5095 57.0207C67.8775 56.9487 68.2175 56.9127 68.5295 56.9127C69.1935 56.9127 69.8615 56.9607 70.5335 57.0567C70.5335 57.2007 70.5135 57.4447 70.4735 57.7887C70.4335 58.1247 70.3975 58.3367 70.3655 58.4247C69.6855 58.3367 69.1375 58.2927 68.7215 58.2927C68.5055 58.2927 68.3655 58.3047 68.3015 58.3287C68.2855 58.3367 68.2695 58.3607 68.2535 58.4007C68.2375 58.4327 68.2295 58.4767 68.2295 58.5327C68.2295 58.6447 68.2655 58.7247 68.3375 58.7727C68.4095 58.8287 68.5975 58.8967 68.9015 58.9767C69.2615 59.0807 69.5695 59.1887 69.8255 59.3007C70.0895 59.4127 70.3175 59.5807 70.5095 59.8047C70.7095 60.0287 70.8095 60.3167 70.8095 60.6687ZM77.01 57.0207V62.5407H75.342L75.114 61.6167C74.538 62.3127 73.85 62.6607 73.05 62.6607C72.762 62.6607 72.49 62.6207 72.234 62.5407C71.986 62.4607 71.798 62.3447 71.67 62.1927C71.598 62.1047 71.542 61.8847 71.502 61.5327C71.47 61.1807 71.454 60.6447 71.454 59.9247V57.0207H73.506V59.9007C73.506 60.0607 73.51 60.2487 73.518 60.4647C73.526 60.6807 73.55 60.8167 73.59 60.8727C73.646 60.9527 73.806 60.9927 74.07 60.9927L74.262 60.9807C74.486 60.9727 74.718 60.9207 74.958 60.8247V57.0207H77.01ZM82.458 60.6687C82.458 61.3807 82.23 61.8927 81.774 62.2047C81.326 62.5167 80.686 62.6727 79.854 62.6727C79.27 62.6727 78.598 62.5887 77.838 62.4207C77.854 62.2607 77.89 62.0327 77.946 61.7367C78.01 61.4327 78.062 61.2007 78.102 61.0407C78.39 61.0887 78.71 61.1287 79.062 61.1607C79.414 61.1847 79.714 61.1967 79.962 61.1967C80.178 61.1967 80.31 61.1847 80.358 61.1607C80.366 61.1527 80.374 61.1327 80.382 61.1007C80.398 61.0607 80.406 61.0207 80.406 60.9807C80.406 60.8207 80.306 60.7127 80.106 60.6567C80.042 60.6407 79.798 60.5727 79.374 60.4527C78.95 60.3327 78.602 60.1167 78.33 59.8047C78.066 59.4847 77.934 59.0887 77.934 58.6167C77.934 58.3687 77.99 58.0927 78.102 57.7887C78.214 57.4847 78.334 57.2927 78.462 57.2127C78.558 57.1487 78.79 57.0847 79.158 57.0207C79.526 56.9487 79.866 56.9127 80.178 56.9127C80.842 56.9127 81.51 56.9607 82.182 57.0567C82.182 57.2007 82.162 57.4447 82.122 57.7887C82.082 58.1247 82.046 58.3367 82.014 58.4247C81.334 58.3367 80.786 58.2927 80.37 58.2927C80.154 58.2927 80.014 58.3047 79.95 58.3287C79.934 58.3367 79.918 58.3607 79.902 58.4007C79.886 58.4327 79.878 58.4767 79.878 58.5327C79.878 58.6447 79.914 58.7247 79.986 58.7727C80.058 58.8287 80.246 58.8967 80.55 58.9767C80.91 59.0807 81.218 59.1887 81.474 59.3007C81.738 59.4127 81.966 59.5807 82.158 59.8047C82.358 60.0287 82.458 60.3167 82.458 60.6687Z" fill="#A8DADC"/>
<path d="M96.8827 56.9007C96.9867 56.9007 97.0947 56.9127 97.2067 56.9367C97.3267 56.9607 97.4147 56.9887 97.4707 57.0207C97.4707 57.1967 97.4507 57.4887 97.4107 57.8967C97.3707 58.2967 97.3347 58.5807 97.3027 58.7487C97.2227 58.7407 97.0747 58.7367 96.8587 58.7367C96.3547 58.7367 95.9067 58.7647 95.5147 58.8207V62.5407H93.4627V57.0207H95.1787L95.4187 57.9087H95.4307C95.6627 57.6047 95.9107 57.3607 96.1747 57.1767C96.4387 56.9927 96.6747 56.9007 96.8827 56.9007ZM101.358 61.1007C101.558 61.1007 101.93 61.0807 102.474 61.0407C102.546 61.0407 102.678 61.0327 102.87 61.0167L103.05 62.2527C102.434 62.5407 101.634 62.6847 100.65 62.6847C99.7296 62.6847 99.0216 62.4527 98.5256 61.9887C98.0376 61.5247 97.7936 60.8247 97.7936 59.8887C97.7936 59.4087 97.8536 58.9447 97.9736 58.4967C98.1016 58.0487 98.2456 57.7367 98.4056 57.5607C98.5736 57.3847 98.8856 57.2327 99.3416 57.1047C99.7976 56.9767 100.25 56.9127 100.698 56.9127C101.418 56.9127 101.958 57.0407 102.318 57.2967C102.678 57.5527 102.914 57.9087 103.026 58.3647C103.138 58.8127 103.194 59.4167 103.194 60.1767C102.65 60.2087 102.118 60.2247 101.598 60.2247H99.8936C99.8936 60.4807 99.9456 60.6727 100.05 60.8007C100.162 60.9287 100.318 61.0127 100.518 61.0527C100.718 61.0847 100.998 61.1007 101.358 61.1007ZM100.014 58.3407C99.9656 58.3647 99.9296 58.4687 99.9056 58.6527C99.8816 58.8367 99.8656 59.0447 99.8576 59.2767H100.482C100.858 59.2767 101.13 59.2727 101.298 59.2647C101.298 58.8807 101.242 58.6087 101.13 58.4487C101.026 58.2887 100.842 58.2087 100.578 58.2087C100.362 58.2087 100.174 58.2527 100.014 58.3407ZM103.952 55.3407L106.004 55.2567V62.5407H103.952V55.3407Z" fill="#A8DADC"/>
<path d="M12.7783 300.384C13.1543 300.384 13.5463 300.412 13.9543 300.468C14.3623 300.516 14.8383 300.584 15.3823 300.672V305.448C15.3823 306.592 15.0023 307.48 14.2423 308.112C14.1463 308.192 13.9303 308.26 13.5943 308.316C13.2583 308.372 12.8783 308.4 12.4543 308.4C11.5343 308.4 10.8063 308.28 10.2703 308.04C10.2623 307.864 10.2743 307.632 10.3063 307.344C10.3463 307.056 10.3863 306.828 10.4263 306.66C11.0023 306.748 11.5663 306.792 12.1183 306.792C12.3983 306.792 12.6343 306.776 12.8263 306.744C13.0263 306.72 13.1503 306.68 13.1983 306.624C13.2623 306.56 13.3103 306.32 13.3423 305.904C13.3503 305.792 13.3543 305.628 13.3543 305.412V305.112C13.1543 305.408 12.8983 305.62 12.5863 305.748C12.2743 305.876 11.9943 305.94 11.7463 305.94C11.0743 305.94 10.5663 305.72 10.2223 305.28C9.87825 304.84 9.70625 304.196 9.70625 303.348C9.70625 302.788 9.78225 302.264 9.93425 301.776C10.0943 301.28 10.3103 300.936 10.5823 300.744C10.7583 300.624 11.0423 300.536 11.4343 300.48C11.8343 300.416 12.2823 300.384 12.7783 300.384ZM12.5263 304.44C12.8223 304.44 13.0903 304.392 13.3303 304.296V301.788C13.2423 301.772 13.1103 301.756 12.9342 301.74C12.8543 301.732 12.7343 301.728 12.5742 301.728C12.3263 301.728 12.1703 301.752 12.1063 301.8C12.0183 301.864 11.9463 302.044 11.8903 302.34C11.8423 302.628 11.8183 302.932 11.8183 303.252C11.8183 303.692 11.8663 304 11.9623 304.176C12.0663 304.352 12.2543 304.44 12.5263 304.44ZM19.6433 306L19.4513 305.244C19.0833 305.844 18.5713 306.144 17.9153 306.144C17.3793 306.144 16.9393 305.996 16.5953 305.7C16.2593 305.396 16.0913 304.972 16.0913 304.428C16.0913 304.092 16.1873 303.8 16.3793 303.552C16.5793 303.296 16.8513 303.116 17.1953 303.012C17.6433 302.884 18.3353 302.812 19.2713 302.796C19.2713 302.268 19.2473 301.988 19.1993 301.956C19.1593 301.924 19.0313 301.908 18.8153 301.908C18.6793 301.908 18.4913 301.916 18.2513 301.932C17.8673 301.948 17.3473 301.992 16.6913 302.064C16.6273 301.632 16.5793 301.168 16.5473 300.672C16.9713 300.584 17.4153 300.512 17.8793 300.456C18.3433 300.392 18.7593 300.36 19.1273 300.36C19.7673 300.36 20.2473 300.468 20.5673 300.684C20.8873 300.892 21.0953 301.168 21.1913 301.512C21.2873 301.856 21.3313 302.292 21.3233 302.82L21.3113 304.584L21.3473 306H19.6433ZM18.6113 304.8C18.8193 304.8 19.0393 304.76 19.2713 304.68V303.792H19.1753C18.5833 303.792 18.2553 303.824 18.1913 303.888C18.1513 303.928 18.1193 303.988 18.0953 304.068C18.0793 304.148 18.0713 304.224 18.0713 304.296C18.0713 304.488 18.1153 304.62 18.2033 304.692C18.2913 304.764 18.4273 304.8 18.6113 304.8ZM24.7938 303.732C24.7938 303.876 24.7978 304.028 24.8058 304.188C24.8138 304.34 24.8378 304.436 24.8778 304.476C24.9338 304.532 25.1298 304.56 25.4658 304.56L25.8738 304.548C25.9458 304.932 25.9818 305.376 25.9818 305.88C25.8298 305.936 25.6058 305.988 25.3098 306.036C25.0218 306.084 24.7458 306.108 24.4818 306.108C23.9298 306.108 23.5018 305.988 23.1978 305.748C22.9018 305.5 22.7538 305.12 22.7538 304.608V301.656H21.8538V300.564L22.7538 300.48L23.2938 299.16L24.7938 299.076V300.48H26.0658V301.656H24.7938V303.732ZM30.0275 304.56C30.2275 304.56 30.5995 304.54 31.1435 304.5C31.2155 304.5 31.3475 304.492 31.5395 304.476L31.7195 305.712C31.1035 306 30.3035 306.144 29.3195 306.144C28.3995 306.144 27.6915 305.912 27.1955 305.448C26.7075 304.984 26.4635 304.284 26.4635 303.348C26.4635 302.868 26.5235 302.404 26.6435 301.956C26.7715 301.508 26.9155 301.196 27.0755 301.02C27.2435 300.844 27.5555 300.692 28.0115 300.564C28.4675 300.436 28.9195 300.372 29.3675 300.372C30.0875 300.372 30.6275 300.5 30.9875 300.756C31.3475 301.012 31.5835 301.368 31.6955 301.824C31.8075 302.272 31.8635 302.876 31.8635 303.636C31.3195 303.668 30.7875 303.684 30.2675 303.684H28.5635C28.5635 303.94 28.6155 304.132 28.7195 304.26C28.8315 304.388 28.9875 304.472 29.1875 304.512C29.3875 304.544 29.6675 304.56 30.0275 304.56ZM28.6835 301.8C28.6355 301.824 28.5995 301.928 28.5755 302.112C28.5515 302.296 28.5355 302.504 28.5275 302.736H29.1515C29.5275 302.736 29.7995 302.732 29.9675 302.724C29.9675 302.34 29.9115 302.068 29.7995 301.908C29.6955 301.748 29.5115 301.668 29.2475 301.668C29.0315 301.668 28.8435 301.712 28.6835 301.8Z" fill="#A8DADC"/>
<path d="M50.1659 300.36C50.2699 300.36 50.3779 300.372 50.4899 300.396C50.6099 300.42 50.6979 300.448 50.7539 300.48C50.7539 300.656 50.7339 300.948 50.6939 301.356C50.6539 301.756 50.6179 302.04 50.5859 302.208C50.5059 302.2 50.3579 302.196 50.1419 302.196C49.6379 302.196 49.1899 302.224 48.7979 302.28V306H46.7459V300.48H48.4619L48.7019 301.368H48.7139C48.9459 301.064 49.1939 300.82 49.4579 300.636C49.7219 300.452 49.9579 300.36 50.1659 300.36ZM54.6408 304.56C54.8408 304.56 55.2128 304.54 55.7568 304.5C55.8288 304.5 55.9608 304.492 56.1528 304.476L56.3328 305.712C55.7168 306 54.9168 306.144 53.9328 306.144C53.0128 306.144 52.3048 305.912 51.8088 305.448C51.3208 304.984 51.0768 304.284 51.0768 303.348C51.0768 302.868 51.1368 302.404 51.2568 301.956C51.3848 301.508 51.5288 301.196 51.6888 301.02C51.8568 300.844 52.1688 300.692 52.6248 300.564C53.0808 300.436 53.5328 300.372 53.9808 300.372C54.7008 300.372 55.2408 300.5 55.6008 300.756C55.9608 301.012 56.1968 301.368 56.3088 301.824C56.4208 302.272 56.4768 302.876 56.4768 303.636C55.9328 303.668 55.4008 303.684 54.8808 303.684H53.1768C53.1768 303.94 53.2288 304.132 53.3328 304.26C53.4448 304.388 53.6008 304.472 53.8008 304.512C54.0008 304.544 54.2808 304.56 54.6408 304.56ZM53.2968 301.8C53.2488 301.824 53.2128 301.928 53.1888 302.112C53.1648 302.296 53.1488 302.504 53.1408 302.736H53.7648C54.1408 302.736 54.4128 302.732 54.5808 302.724C54.5808 302.34 54.5248 302.068 54.4128 301.908C54.3088 301.748 54.1248 301.668 53.8608 301.668C53.6448 301.668 53.4568 301.712 53.2968 301.8ZM59.743 303.732C59.743 303.876 59.747 304.028 59.755 304.188C59.763 304.34 59.787 304.436 59.827 304.476C59.883 304.532 60.079 304.56 60.415 304.56L60.823 304.548C60.895 304.932 60.931 305.376 60.931 305.88C60.779 305.936 60.555 305.988 60.259 306.036C59.971 306.084 59.695 306.108 59.431 306.108C58.879 306.108 58.451 305.988 58.147 305.748C57.851 305.5 57.703 305.12 57.703 304.608V301.656H56.803V300.564L57.703 300.48L58.243 299.16L59.743 299.076V300.48H61.015V301.656H59.743V303.732ZM65.0487 300.36C65.1527 300.36 65.2607 300.372 65.3727 300.396C65.4927 300.42 65.5807 300.448 65.6367 300.48C65.6367 300.656 65.6167 300.948 65.5767 301.356C65.5367 301.756 65.5007 302.04 65.4687 302.208C65.3887 302.2 65.2407 302.196 65.0247 302.196C64.5207 302.196 64.0727 302.224 63.6807 302.28V306H61.6287V300.48H63.3447L63.5847 301.368H63.5967C63.8287 301.064 64.0767 300.82 64.3407 300.636C64.6047 300.452 64.8407 300.36 65.0487 300.36ZM67.2436 299.796C66.9716 299.796 66.7356 299.704 66.5356 299.52C66.3436 299.336 66.2476 299.116 66.2476 298.86C66.2476 298.604 66.3436 298.384 66.5356 298.2C66.7356 298.016 66.9716 297.924 67.2436 297.924C67.5156 297.924 67.7476 298.016 67.9396 298.2C68.1316 298.384 68.2276 298.604 68.2276 298.86C68.2276 299.116 68.1316 299.336 67.9396 299.52C67.7476 299.704 67.5156 299.796 67.2436 299.796ZM66.2116 300.48H68.2636V306H66.2116V300.48ZM72.1611 300.384C72.5371 300.384 72.9291 300.412 73.3371 300.468C73.7451 300.516 74.2211 300.584 74.7651 300.672V305.448C74.7651 306.592 74.3851 307.48 73.6251 308.112C73.5291 308.192 73.3131 308.26 72.9771 308.316C72.6411 308.372 72.2611 308.4 71.8371 308.4C70.9171 308.4 70.1891 308.28 69.6531 308.04C69.6451 307.864 69.6571 307.632 69.6891 307.344C69.7291 307.056 69.7691 306.828 69.8091 306.66C70.3851 306.748 70.9491 306.792 71.5011 306.792C71.7811 306.792 72.0171 306.776 72.2091 306.744C72.4091 306.72 72.5331 306.68 72.5811 306.624C72.6451 306.56 72.6931 306.32 72.7251 305.904C72.7331 305.792 72.7371 305.628 72.7371 305.412V305.112C72.5371 305.408 72.2811 305.62 71.9691 305.748C71.6571 305.876 71.3771 305.94 71.1291 305.94C70.4571 305.94 69.9491 305.72 69.6051 305.28C69.2611 304.84 69.0891 304.196 69.0891 303.348C69.0891 302.788 69.1651 302.264 69.3171 301.776C69.4771 301.28 69.6931 300.936 69.9651 300.744C70.1411 300.624 70.4251 300.536 70.8171 300.48C71.2171 300.416 71.6651 300.384 72.1611 300.384ZM71.9091 304.44C72.2051 304.44 72.4731 304.392 72.7131 304.296V301.788C72.6251 301.772 72.4931 301.756 72.3171 301.74C72.2371 301.732 72.1171 301.728 71.9571 301.728C71.7091 301.728 71.5531 301.752 71.4891 301.8C71.4011 301.864 71.3291 302.044 71.2731 302.34C71.2251 302.628 71.2011 302.932 71.2011 303.252C71.2011 303.692 71.2491 304 71.3451 304.176C71.4491 304.352 71.6371 304.44 71.9091 304.44Z" fill="#A8DADC"/>
<path d="M93.7576 306.156C92.7976 306.156 92.0776 305.932 91.5976 305.484C91.1256 305.028 90.8896 304.312 90.8896 303.336C90.8896 302.8 90.9376 302.332 91.0336 301.932C91.1376 301.524 91.2616 301.24 91.4056 301.08C91.5896 300.872 91.9256 300.7 92.4136 300.564C92.9096 300.428 93.3736 300.36 93.8056 300.36C94.8376 300.36 95.5736 300.58 96.0136 301.02C96.4536 301.46 96.6736 302.164 96.6736 303.132C96.6736 304.172 96.4376 304.936 95.9656 305.424C95.4936 305.912 94.7576 306.156 93.7576 306.156ZM93.7936 304.752C94.1056 304.752 94.3096 304.644 94.4056 304.428C94.5016 304.204 94.5496 303.812 94.5496 303.252C94.5496 302.86 94.5296 302.56 94.4896 302.352C94.4496 302.136 94.3736 301.98 94.2616 301.884C94.1576 301.78 93.9936 301.728 93.7696 301.728C93.4496 301.728 93.2656 301.756 93.2176 301.812C93.1536 301.868 93.1016 302.044 93.0616 302.34C93.0216 302.636 93.0016 302.944 93.0016 303.264C93.0016 303.808 93.0536 304.192 93.1576 304.416C93.2696 304.64 93.4816 304.752 93.7936 304.752ZM102.977 300.48V306H101.309L101.081 305.076C100.505 305.772 99.8168 306.12 99.0168 306.12C98.7288 306.12 98.4568 306.08 98.2008 306C97.9528 305.92 97.7648 305.804 97.6368 305.652C97.5648 305.564 97.5088 305.344 97.4688 304.992C97.4368 304.64 97.4208 304.104 97.4208 303.384V300.48H99.4728V303.36C99.4728 303.52 99.4768 303.708 99.4848 303.924C99.4928 304.14 99.5168 304.276 99.5568 304.332C99.6128 304.412 99.7728 304.452 100.037 304.452L100.229 304.44C100.453 304.432 100.685 304.38 100.925 304.284V300.48H102.977ZM106.505 303.732C106.505 303.876 106.509 304.028 106.517 304.188C106.525 304.34 106.549 304.436 106.589 304.476C106.645 304.532 106.841 304.56 107.177 304.56L107.585 304.548C107.657 304.932 107.693 305.376 107.693 305.88C107.541 305.936 107.317 305.988 107.021 306.036C106.733 306.084 106.457 306.108 106.193 306.108C105.641 306.108 105.213 305.988 104.909 305.748C104.613 305.5 104.465 305.12 104.465 304.608V301.656H103.565V300.564L104.465 300.48L105.005 299.16L106.505 299.076V300.48H107.777V301.656H106.505V303.732Z" fill="#A8DADC"/>
</g>
<defs>
<clipPath id="clip0">
<rect x="0.25" width="120" height="380" fill="white"/>
</clipPath>
</defs>
</svg>
