<svg width="15" height="74" viewBox="0 0 15 74" fill="none" xmlns="http://www.w3.org/2000/svg">
<g clip-path="url(#clip0)">
<path d="M0.697937 2.15594H14.3017" stroke="#A8DADC" stroke-width="1.58327" stroke-miterlimit="10" stroke-linecap="round" stroke-linejoin="round"/>
<path d="M0.697937 71.844H14.3017" stroke="#A8DADC" stroke-width="1.58327" stroke-miterlimit="10" stroke-linecap="round" stroke-linejoin="round"/>
<path d="M0.697937 57.9064H14.3017" stroke="#A8DADC" stroke-width="0.791637" stroke-miterlimit="10" stroke-linecap="round" stroke-linejoin="round"/>
<path d="M0.697937 50.9376H14.3017" stroke="#A8DADC" stroke-width="0.791637" stroke-miterlimit="10" stroke-linecap="round" stroke-linejoin="round"/>
<path d="M0.697937 43.9688H14.3017" stroke="#A8DADC" stroke-width="0.791637" stroke-miterlimit="10" stroke-linecap="round" stroke-linejoin="round"/>
<path d="M0.697937 36.9999H14.3017" stroke="#A8DADC" stroke-width="0.79176" stroke-miterlimit="10" stroke-linecap="round" stroke-linejoin="round"/>
<path d="M0.697937 30.0311H14.3017" stroke="#A8DADC" stroke-width="0.791637" stroke-miterlimit="10" stroke-linecap="round" stroke-linejoin="round"/>
<path d="M0.697937 23.0624H14.3017" stroke="#A8DADC" stroke-width="0.791637" stroke-miterlimit="10" stroke-linecap="round" stroke-linejoin="round"/>
<path d="M0.697937 16.0935H14.3017" stroke="#A8DADC" stroke-width="0.791637" stroke-miterlimit="10" stroke-linecap="round" stroke-linejoin="round"/>
<path d="M0.697937 64.8752H14.3017" stroke="#A8DADC" stroke-width="0.791637" stroke-miterlimit="10" stroke-linecap="round" stroke-linejoin="round"/>
<path d="M0.697937 9.12476H14.3017" stroke="#A8DADC" stroke-width="0.791637" stroke-miterlimit="10" stroke-linecap="round" stroke-linejoin="round"/>
<path d="M9.37485 2C9.37485 0.89543 8.53538 0 7.49985 0C6.46431 0 5.62485 0.89543 5.62485 2V72C5.62485 73.1046 6.46431 74 7.49985 74C8.53538 74 9.37485 73.1046 9.37485 72V2Z" fill="#1D3557"/>
</g>
<defs>
<clipPath id="clip0">
<rect width="15" height="74" fill="white"/>
</clipPath>
</defs>
</svg>
