<svg width="13" height="13" viewBox="0 0 13 13" fill="none" xmlns="http://www.w3.org/2000/svg">
<path d="M6.5 12C9.53757 12 12 9.53757 12 6.5C12 3.46243 9.53757 1 6.5 1C3.46243 1 1 3.46243 1 6.5C1 9.53757 3.46243 12 6.5 12Z" fill="#31587A"/>
<path d="M9.6157 8.41534C9.32985 8.9404 8.06746 8.08349 7.56222 8.3798C7.05699 8.67611 7.15044 10.2186 6.5612 10.2068C5.97196 10.1949 6.01452 8.65517 5.49916 8.33836C4.98381 8.02156 3.74888 8.82832 3.4455 8.29142C3.14211 7.75453 4.44707 7.0717 4.43694 6.45858C4.42682 5.84546 3.09845 5.10975 3.3843 4.58469C3.67016 4.05963 4.93255 4.91654 5.43778 4.62023C5.94302 4.32392 5.84957 2.78144 6.43881 2.79328C7.02805 2.80511 6.98548 4.34486 7.50084 4.66167C8.0162 4.97847 9.25113 4.17171 9.55451 4.70861C9.8579 5.2455 8.55294 5.92833 8.56306 6.54145C8.57318 7.15457 9.90156 7.89028 9.6157 8.41534Z" fill="#1D3557"/>
</svg>
