<svg width="16" height="16" viewBox="0 0 16 16" fill="none" xmlns="http://www.w3.org/2000/svg">
<path d="M7.5 13C10.5376 13 13 10.5376 13 7.5C13 4.46243 10.5376 2 7.5 2C4.46243 2 2 4.46243 2 7.5C2 10.5376 4.46243 13 7.5 13Z" fill="#31587A"/>
<path d="M10.6157 9.41534C10.3298 9.9404 9.06746 9.08349 8.56222 9.3798C8.05699 9.67611 8.15044 11.2186 7.5612 11.2068C6.97196 11.1949 7.01452 9.65517 6.49916 9.33836C5.98381 9.02156 4.74888 9.82832 4.4455 9.29142C4.14211 8.75453 5.44707 8.0717 5.43694 7.45858C5.42682 6.84546 4.09845 6.10975 4.3843 5.58469C4.67016 5.05963 5.93255 5.91654 6.43778 5.62023C6.94302 5.32392 6.84957 3.78144 7.43881 3.79328C8.02805 3.80511 7.98548 5.34486 8.50084 5.66167C9.0162 5.97847 10.2511 5.17171 10.5545 5.70861C10.8579 6.2455 9.55294 6.92833 9.56306 7.54145C9.57318 8.15457 10.9016 8.89028 10.6157 9.41534Z" fill="#1D3557"/>
</svg>
