<svg width="18" height="36" viewBox="0 0 18 36" fill="none" xmlns="http://www.w3.org/2000/svg">
<rect x="16.5" y="1.5" width="33" height="15" rx="3.5" transform="rotate(90 16.5 1.5)" stroke="#F9FDF8" stroke-width="3"/>
<rect x="14" y="15" width="2" height="2" transform="rotate(90 14 15)" fill="#F9FDF8"/>
<rect x="14" y="19" width="2" height="2" transform="rotate(90 14 19)" fill="#F9FDF8"/>
<rect x="12" y="17" width="2" height="2" transform="rotate(90 12 17)" fill="#F9FDF8"/>
<rect x="10" y="15" width="2" height="2" transform="rotate(90 10 15)" fill="#F9FDF8"/>
<rect x="8" y="17" width="2" height="2" transform="rotate(90 8 17)" fill="#F9FDF8"/>
<rect x="10" y="19" width="2" height="2" transform="rotate(90 10 19)" fill="#F9FDF8"/>
<rect x="6" y="15" width="2" height="2" transform="rotate(90 6 15)" fill="#F9FDF8"/>
<rect x="6" y="19" width="2" height="2" transform="rotate(90 6 19)" fill="#F9FDF8"/>
</svg>
