<svg width="19" height="25" viewBox="0 0 19 25" fill="none" xmlns="http://www.w3.org/2000/svg">
<rect x="-1.5" y="-1.5" width="21" height="15" rx="3.5" transform="matrix(0 -1 -1 0 15.5 21.5)" stroke="#F9FDF8" stroke-width="3"/>
<rect width="2" height="2" transform="matrix(0 -1 -1 0 14.5 19.5)" fill="#F9FDF8"/>
<rect width="2" height="2" transform="matrix(0 -1 -1 0 14.5 15.5)" fill="#F9FDF8"/>
<rect width="2" height="2" transform="matrix(0 -1 -1 0 12.5 17.5)" fill="#F9FDF8"/>
<rect width="2" height="2" transform="matrix(0 -1 -1 0 10.5 19.5)" fill="#F9FDF8"/>
<rect width="2" height="2" transform="matrix(0 -1 -1 0 8.5 17.5)" fill="#F9FDF8"/>
<rect width="2" height="2" transform="matrix(0 -1 -1 0 10.5 15.5)" fill="#F9FDF8"/>
<rect width="2" height="2" transform="matrix(0 -1 -1 0 6.5 19.5)" fill="#F9FDF8"/>
<rect width="2" height="2" transform="matrix(0 -1 -1 0 6.5 15.5)" fill="#F9FDF8"/>
</svg>
