<svg width="18" height="24" viewBox="0 0 18 24" fill="none" xmlns="http://www.w3.org/2000/svg">
<rect x="-1.5" y="-1.5" width="21" height="15" rx="3.5" transform="matrix(0 -1 -1 0 15 21)" stroke="#F9FDF8" stroke-width="3"/>
<rect width="2" height="2" transform="matrix(0 -1 -1 0 14 19)" fill="#F9FDF8"/>
<rect width="2" height="2" transform="matrix(0 -1 -1 0 14 15)" fill="#F9FDF8"/>
<rect width="2" height="2" transform="matrix(0 -1 -1 0 12 17)" fill="#F9FDF8"/>
<rect width="2" height="2" transform="matrix(0 -1 -1 0 10 19)" fill="#F9FDF8"/>
<rect width="2" height="2" transform="matrix(0 -1 -1 0 8 17)" fill="#F9FDF8"/>
<rect width="2" height="2" transform="matrix(0 -1 -1 0 10 15)" fill="#F9FDF8"/>
<rect width="2" height="2" transform="matrix(0 -1 -1 0 6 19)" fill="#F9FDF8"/>
<rect width="2" height="2" transform="matrix(0 -1 -1 0 6 15)" fill="#F9FDF8"/>
</svg>
