<svg width="18" height="24" viewBox="0 0 18 24" fill="none" xmlns="http://www.w3.org/2000/svg">
<rect x="16.5" y="1.5" width="21" height="15" rx="3.5" transform="rotate(90 16.5 1.5)" stroke="#F9FDF8" stroke-width="3"/>
<rect x="14" y="5" width="2" height="2" transform="rotate(90 14 5)" fill="#F9FDF8"/>
<rect x="14" y="9" width="2" height="2" transform="rotate(90 14 9)" fill="#F9FDF8"/>
<rect x="12" y="7" width="2" height="2" transform="rotate(90 12 7)" fill="#F9FDF8"/>
<rect x="10" y="5" width="2" height="2" transform="rotate(90 10 5)" fill="#F9FDF8"/>
<rect x="8" y="7" width="2" height="2" transform="rotate(90 8 7)" fill="#F9FDF8"/>
<rect x="10" y="9" width="2" height="2" transform="rotate(90 10 9)" fill="#F9FDF8"/>
<rect x="6" y="5" width="2" height="2" transform="rotate(90 6 5)" fill="#F9FDF8"/>
<rect x="6" y="9" width="2" height="2" transform="rotate(90 6 9)" fill="#F9FDF8"/>
</svg>
