<svg width="24" height="18" viewBox="0 0 24 18" fill="none" xmlns="http://www.w3.org/2000/svg">
<rect x="-1.5" y="1.5" width="21" height="15" rx="3.5" transform="matrix(-1 0 0 1 21 0)" stroke="#F9FDF8" stroke-width="3"/>
<rect width="2" height="2" transform="matrix(-1 0 0 1 19 4)" fill="#F9FDF8"/>
<rect width="2" height="2" transform="matrix(-1 0 0 1 15 4)" fill="#F9FDF8"/>
<rect width="2" height="2" transform="matrix(-1 0 0 1 17 6)" fill="#F9FDF8"/>
<rect width="2" height="2" transform="matrix(-1 0 0 1 19 8)" fill="#F9FDF8"/>
<rect width="2" height="2" transform="matrix(-1 0 0 1 17 10)" fill="#F9FDF8"/>
<rect width="2" height="2" transform="matrix(-1 0 0 1 15 8)" fill="#F9FDF8"/>
<rect width="2" height="2" transform="matrix(-1 0 0 1 19 12)" fill="#F9FDF8"/>
<rect width="2" height="2" transform="matrix(-1 0 0 1 15 12)" fill="#F9FDF8"/>
</svg>
