<svg width="19" height="25" viewBox="0 0 19 25" fill="none" xmlns="http://www.w3.org/2000/svg">
<rect x="17" y="2" width="21" height="15" rx="3.5" transform="rotate(90 17 2)" stroke="#F9FDF8" stroke-width="3"/>
<rect x="14.5" y="5.5" width="2" height="2" transform="rotate(90 14.5 5.5)" fill="#F9FDF8"/>
<rect x="14.5" y="9.5" width="2" height="2" transform="rotate(90 14.5 9.5)" fill="#F9FDF8"/>
<rect x="12.5" y="7.5" width="2" height="2" transform="rotate(90 12.5 7.5)" fill="#F9FDF8"/>
<rect x="10.5" y="5.5" width="2" height="2" transform="rotate(90 10.5 5.5)" fill="#F9FDF8"/>
<rect x="8.5" y="7.5" width="2" height="2" transform="rotate(90 8.5 7.5)" fill="#F9FDF8"/>
<rect x="10.5" y="9.5" width="2" height="2" transform="rotate(90 10.5 9.5)" fill="#F9FDF8"/>
<rect x="6.5" y="5.5" width="2" height="2" transform="rotate(90 6.5 5.5)" fill="#F9FDF8"/>
<rect x="6.5" y="9.5" width="2" height="2" transform="rotate(90 6.5 9.5)" fill="#F9FDF8"/>
</svg>
