<svg width="150" height="380" viewBox="0 0 150 380" fill="none" xmlns="http://www.w3.org/2000/svg">
<rect width="150" height="380" fill="#457B9D"/>
<g opacity="0.5">
<path fill-rule="evenodd" clip-rule="evenodd" d="M68.958 375.599C68.803 375.747 68.659 375.851 68.526 375.909C68.393 375.968 68.251 375.998 68.1 375.998C67.948 375.998 67.806 375.97 67.673 375.914C67.54 375.858 67.424 375.781 67.325 375.682C67.109 375.466 67 375.209 67 374.912V369.385C67 369.082 67.078 368.847 67.232 368.68C67.498 368.408 67.75 368.272 67.988 368.272C68.226 368.272 68.404 368.296 68.522 368.346C68.639 368.395 68.738 368.457 68.818 368.531C68.924 368.624 69.002 368.723 69.055 368.828C69.108 368.933 69.151 369.011 69.185 369.06C69.219 369.11 69.275 369.134 69.352 369.134C69.429 369.134 69.496 369.11 69.551 369.06L69.709 368.902C70.16 368.482 70.612 368.272 71.063 368.272C71.861 368.272 72.519 368.599 73.039 369.255C73.088 369.323 73.15 369.357 73.224 369.357C73.354 369.357 73.486 369.256 73.619 369.055C73.752 368.854 73.966 368.674 74.263 368.513C74.56 368.352 74.906 368.272 75.302 368.272C75.698 368.272 76.058 368.344 76.383 368.49C76.707 368.635 76.99 368.834 77.231 369.088C77.738 369.62 77.992 370.263 77.992 371.017V374.912C77.992 375.382 77.769 375.713 77.324 375.905C77.188 375.967 77.044 375.998 76.893 375.998C76.741 375.998 76.599 375.97 76.466 375.914C76.333 375.858 76.217 375.781 76.118 375.682C75.908 375.46 75.803 375.203 75.803 374.912V371.045C75.803 370.736 75.726 370.504 75.571 370.349C75.299 370.077 75.049 369.941 74.82 369.941C74.591 369.941 74.412 369.971 74.282 370.029C74.152 370.088 74.034 370.17 73.929 370.275C73.713 370.492 73.605 370.742 73.605 371.026V374.912C73.605 375.382 73.385 375.713 72.946 375.905C72.81 375.967 72.666 375.998 72.515 375.998C72.363 375.998 72.22 375.97 72.083 375.914C71.947 375.858 71.83 375.781 71.731 375.682C71.515 375.466 71.406 375.209 71.406 374.912V371.045C71.406 370.736 71.329 370.504 71.174 370.349C70.902 370.077 70.618 369.941 70.321 369.941C69.826 369.941 69.483 370.133 69.292 370.516C69.23 370.64 69.199 370.779 69.199 370.934V374.912C69.199 375.215 69.118 375.444 68.958 375.599ZM80.219 369.387C80.219 369.084 80.296 368.849 80.451 368.682C80.716 368.41 81.01 368.274 81.332 368.274C81.641 368.274 81.87 368.355 82.018 368.515C82.29 368.794 82.426 369.084 82.426 369.387V374.915C82.426 375.212 82.349 375.437 82.194 375.592C81.922 375.864 81.672 376 81.443 376C81.214 376 81.032 375.971 80.896 375.912C80.76 375.853 80.642 375.777 80.543 375.685C80.327 375.474 80.219 375.218 80.219 374.915V369.387ZM81.327 365.9C81.065 365.9 80.852 365.687 80.852 365.425C80.852 365.162 81.065 364.95 81.327 364.95C81.589 364.95 81.802 365.162 81.802 365.425C81.802 365.687 81.589 365.9 81.327 365.9ZM81.327 364C81.714 364 82.048 364.142 82.329 364.425C82.611 364.709 82.752 364.996 82.752 365.287C82.752 365.577 82.713 365.807 82.635 365.978C82.558 366.148 82.456 366.297 82.329 366.424C82.048 366.708 81.714 366.849 81.327 366.849C80.94 366.849 80.606 366.708 80.324 366.424C80.043 366.141 79.902 365.857 79.902 365.574C79.902 365.092 80.043 364.709 80.324 364.425C80.606 364.142 80.94 364 81.327 364Z" fill="#1D3557"/>
</g>
<path d="M59.6841 22.8654H57.5241V17.5254H55.5921V16.0254H61.6161V17.5254H59.6841V22.8654ZM68.535 22.8654H66.267L65.859 21.1374C65.843 21.0734 65.815 20.9654 65.775 20.8134C65.743 20.6534 65.703 20.5374 65.655 20.4654C65.607 20.3854 65.539 20.3334 65.451 20.3094C65.227 20.3174 64.899 20.3214 64.467 20.3214V22.8654H62.307V16.0854C63.275 16.0134 64.179 15.9774 65.019 15.9774C65.779 15.9774 66.395 16.0414 66.867 16.1694C67.339 16.2894 67.691 16.5014 67.923 16.8054C68.163 17.1014 68.283 17.5094 68.283 18.0294C68.283 18.5174 68.171 18.9014 67.947 19.1814C67.723 19.4534 67.363 19.6174 66.867 19.6734V19.7454C67.147 19.7694 67.379 19.8614 67.563 20.0214C67.755 20.1734 67.883 20.3694 67.947 20.6094L68.535 22.8654ZM64.467 18.9654C64.539 18.9734 64.679 18.9774 64.887 18.9774C65.503 18.9774 65.863 18.9254 65.967 18.8214C66.063 18.7254 66.111 18.5014 66.111 18.1494C66.111 17.8214 66.023 17.5974 65.847 17.4774C65.679 17.3574 65.399 17.2974 65.007 17.2974C64.919 17.2974 64.739 17.3054 64.467 17.3214V18.9654ZM69.28 16.0254H71.44V22.8654H69.28V16.0254ZM72.4627 18.9174H76.0627V20.6334H72.4627V18.9174ZM77.0487 16.0254H79.2087V21.2814H82.0047V22.8654H77.0487V16.0254ZM82.7557 16.0254H87.6637V17.5134H84.9157V18.8694H87.1837V20.1774H84.9157V22.8654H82.7557V16.0254ZM91.729 23.0214C90.537 23.0214 89.641 22.7414 89.041 22.1814C88.449 21.6134 88.153 20.7054 88.153 19.4574C88.153 18.2334 88.481 17.3414 89.137 16.7814C89.793 16.2214 90.661 15.9414 91.741 15.9414C94.013 15.9414 95.149 17.0734 95.149 19.3374C95.149 20.4814 94.869 21.3814 94.309 22.0374C93.757 22.6934 92.897 23.0214 91.729 23.0214ZM91.681 21.6054C91.905 21.6054 92.093 21.5694 92.245 21.4974C92.397 21.4174 92.517 21.2814 92.605 21.0894C92.773 20.7614 92.857 20.2254 92.857 19.4814C92.857 18.7534 92.773 18.2254 92.605 17.8974C92.437 17.5614 92.129 17.3854 91.681 17.3694C91.513 17.3694 91.337 17.3894 91.153 17.4294C90.977 17.4614 90.865 17.5094 90.817 17.5734C90.721 17.6854 90.645 17.9254 90.589 18.2934C90.541 18.6534 90.517 19.0494 90.517 19.4814C90.517 20.1534 90.581 20.6454 90.709 20.9574C90.797 21.1894 90.921 21.3574 91.081 21.4614C91.241 21.5574 91.441 21.6054 91.681 21.6054Z" fill="#A8DADC"/>
<path d="M52.4908 262.856C52.4348 262.912 52.4068 263.084 52.4068 263.372V263.48H53.6788V264.656H52.4068V269H50.3548V264.656H49.4548V263.588L50.3548 263.48V263.3C50.3548 262.948 50.4028 262.612 50.4988 262.292C50.5948 261.972 50.6828 261.78 50.7628 261.716C51.0108 261.508 51.5388 261.404 52.3468 261.404C52.7868 261.404 53.2788 261.436 53.8228 261.5C53.8228 261.596 53.8068 261.788 53.7748 262.076C53.7508 262.364 53.7268 262.608 53.7028 262.808L53.1868 262.796C52.7628 262.796 52.5308 262.816 52.4908 262.856ZM57.619 263.36C57.723 263.36 57.831 263.372 57.943 263.396C58.063 263.42 58.151 263.448 58.207 263.48C58.207 263.656 58.187 263.948 58.147 264.356C58.107 264.756 58.071 265.04 58.039 265.208C57.959 265.2 57.811 265.196 57.595 265.196C57.091 265.196 56.643 265.224 56.251 265.28V269H54.199V263.48H55.915L56.155 264.368H56.167C56.399 264.064 56.647 263.82 56.911 263.636C57.175 263.452 57.411 263.36 57.619 263.36ZM62.0939 267.56C62.2939 267.56 62.6659 267.54 63.2099 267.5C63.2819 267.5 63.4139 267.492 63.6059 267.476L63.7859 268.712C63.1699 269 62.3699 269.144 61.3859 269.144C60.4659 269.144 59.7579 268.912 59.2619 268.448C58.7739 267.984 58.5299 267.284 58.5299 266.348C58.5299 265.868 58.5899 265.404 58.7099 264.956C58.8379 264.508 58.9819 264.196 59.1419 264.02C59.3099 263.844 59.6219 263.692 60.0779 263.564C60.5339 263.436 60.9859 263.372 61.4339 263.372C62.1539 263.372 62.6939 263.5 63.0539 263.756C63.4139 264.012 63.6499 264.368 63.7619 264.824C63.8739 265.272 63.9299 265.876 63.9299 266.636C63.3859 266.668 62.8539 266.684 62.3339 266.684H60.6299C60.6299 266.94 60.6819 267.132 60.7859 267.26C60.8979 267.388 61.0539 267.472 61.2539 267.512C61.4539 267.544 61.7339 267.56 62.0939 267.56ZM60.7499 264.8C60.7019 264.824 60.6659 264.928 60.6419 265.112C60.6179 265.296 60.6019 265.504 60.5939 265.736H61.2179C61.5939 265.736 61.8659 265.732 62.0339 265.724C62.0339 265.34 61.9779 265.068 61.8659 264.908C61.7619 264.748 61.5779 264.668 61.3139 264.668C61.0979 264.668 60.9099 264.712 60.7499 264.8ZM67.4842 263.372C68.3402 263.372 69.2242 263.492 70.1362 263.732V270.68L68.0842 270.764V269.18C68.0842 268.876 68.1442 268.52 68.2642 268.112L68.2282 268.088C68.0282 268.448 67.7682 268.704 67.4482 268.856C67.1282 269 66.8282 269.072 66.5482 269.072C65.9242 269.072 65.4202 268.852 65.0362 268.412C64.6522 267.964 64.4602 267.292 64.4602 266.396C64.4602 265.796 64.5362 265.252 64.6882 264.764C64.8402 264.276 65.0242 263.96 65.2402 263.816C65.4722 263.664 65.7882 263.552 66.1882 263.48C66.5882 263.408 67.0202 263.372 67.4842 263.372ZM67.4122 267.404C67.6042 267.404 67.8282 267.368 68.0842 267.296V264.788C67.9882 264.772 67.8442 264.756 67.6522 264.74C67.5802 264.732 67.4722 264.728 67.3282 264.728C67.0162 264.728 66.8402 264.76 66.8002 264.824C66.7282 264.936 66.6722 265.14 66.6322 265.436C66.5922 265.716 66.5722 265.988 66.5722 266.252C66.5722 266.668 66.6402 266.964 66.7762 267.14C66.9122 267.316 67.1242 267.404 67.4122 267.404Z" fill="#A8DADC"/>
<path d="M96.9554 262.48V268H95.2874L95.0594 267.076C94.4834 267.772 93.7954 268.12 92.9954 268.12C92.7074 268.12 92.4354 268.08 92.1794 268C91.9314 267.92 91.7434 267.804 91.6154 267.652C91.5434 267.564 91.4874 267.344 91.4474 266.992C91.4154 266.64 91.3994 266.104 91.3994 265.384V262.48H93.4514V265.36C93.4514 265.52 93.4554 265.708 93.4634 265.924C93.4714 266.14 93.4954 266.276 93.5354 266.332C93.5914 266.412 93.7514 266.452 94.0154 266.452L94.2074 266.44C94.4314 266.432 94.6634 266.38 94.9034 266.284V262.48H96.9554ZM103.279 262.828C103.351 262.916 103.403 263.136 103.435 263.488C103.475 263.84 103.495 264.376 103.495 265.096V268H101.443V265.12V264.628C101.443 264.372 101.423 264.212 101.383 264.148C101.319 264.068 101.171 264.028 100.939 264.028C100.827 264.028 100.743 264.032 100.687 264.04C100.463 264.048 100.231 264.1 99.9913 264.196V268H97.9393V262.48H99.6073L99.8353 263.404C100.411 262.708 101.099 262.36 101.899 262.36C102.187 262.36 102.455 262.4 102.703 262.48C102.959 262.56 103.151 262.676 103.279 262.828ZM105.511 261.796C105.239 261.796 105.003 261.704 104.803 261.52C104.611 261.336 104.515 261.116 104.515 260.86C104.515 260.604 104.611 260.384 104.803 260.2C105.003 260.016 105.239 259.924 105.511 259.924C105.783 259.924 106.015 260.016 106.207 260.2C106.399 260.384 106.495 260.604 106.495 260.86C106.495 261.116 106.399 261.336 106.207 261.52C106.015 261.704 105.783 261.796 105.511 261.796ZM104.479 262.48H106.531V268H104.479V262.48Z" fill="#A8DADC"/>
<path d="M129.002 261.076C129.666 261.076 130.218 261.164 130.658 261.34C131.098 261.508 131.446 261.852 131.702 262.372C131.958 262.884 132.086 263.632 132.086 264.616C132.086 265.56 131.962 266.292 131.714 266.812C131.466 267.324 131.118 267.676 130.67 267.868C130.23 268.06 129.678 268.156 129.014 268.156C128.054 268.156 127.318 267.904 126.806 267.4C126.294 266.888 126.038 266.012 126.038 264.772C126.038 263.524 126.286 262.596 126.782 261.988C127.278 261.38 128.018 261.076 129.002 261.076ZM129.074 266.608C129.474 266.608 129.734 266.452 129.854 266.14C129.974 265.82 130.034 265.32 130.034 264.64C130.034 263.944 129.962 263.432 129.818 263.104C129.674 262.768 129.402 262.6 129.002 262.6C128.722 262.6 128.534 262.648 128.438 262.744C128.366 262.824 128.302 263.064 128.246 263.464C128.198 263.864 128.174 264.272 128.174 264.688C128.174 265.392 128.242 265.888 128.378 266.176C128.522 266.464 128.754 266.608 129.074 266.608ZM135.007 262.048C135.007 262.4 134.903 262.676 134.695 262.876C134.495 263.076 134.227 263.172 133.891 263.164C133.563 263.172 133.299 263.076 133.099 262.876C132.907 262.676 132.811 262.404 132.811 262.06C132.811 261.7 132.915 261.42 133.123 261.22C133.331 261.02 133.607 260.924 133.951 260.932C134.287 260.924 134.547 261.02 134.731 261.22C134.915 261.412 135.007 261.688 135.007 262.048ZM134.383 262.06C134.383 261.7 134.227 261.52 133.915 261.52C133.755 261.52 133.635 261.568 133.555 261.664C133.475 261.76 133.435 261.896 133.435 262.072C133.435 262.24 133.479 262.368 133.567 262.456C133.655 262.544 133.775 262.588 133.927 262.588C134.071 262.588 134.183 262.54 134.263 262.444C134.343 262.348 134.383 262.22 134.383 262.06Z" fill="#A8DADC"/>
<path d="M123.387 302.16V309H121.287V303.888L119.799 304.2L119.571 302.94L121.695 302.16H123.387ZM128.879 305.22C129.391 305.452 129.763 305.724 129.995 306.036C130.227 306.34 130.343 306.704 130.343 307.128C130.343 307.776 130.063 308.272 129.503 308.616C128.951 308.96 128.259 309.132 127.427 309.132C126.603 309.132 125.931 308.988 125.411 308.7C124.899 308.404 124.643 307.964 124.643 307.38C124.643 307.052 124.763 306.728 125.003 306.408C125.251 306.088 125.599 305.828 126.047 305.628C125.663 305.404 125.367 305.136 125.159 304.824C124.959 304.504 124.859 304.192 124.859 303.888C124.859 303.288 125.115 302.836 125.627 302.532C126.139 302.228 126.771 302.076 127.523 302.076C129.211 302.076 130.055 302.628 130.055 303.732C130.055 304.244 129.663 304.74 128.879 305.22ZM127.535 303.24C127.303 303.24 127.127 303.296 127.007 303.408C126.895 303.512 126.839 303.676 126.839 303.9C126.839 304.1 126.923 304.268 127.091 304.404C127.267 304.532 127.503 304.656 127.799 304.776C128.191 304.504 128.387 304.224 128.387 303.936C128.387 303.696 128.315 303.52 128.171 303.408C128.035 303.296 127.823 303.24 127.535 303.24ZM127.451 307.98C127.667 307.98 127.855 307.92 128.015 307.8C128.175 307.672 128.255 307.496 128.255 307.272C128.255 307.056 128.175 306.88 128.015 306.744C127.863 306.6 127.607 306.44 127.247 306.264C127.031 306.416 126.859 306.572 126.731 306.732C126.611 306.892 126.551 307.072 126.551 307.272C126.551 307.488 126.643 307.66 126.827 307.788C127.019 307.916 127.227 307.98 127.451 307.98ZM134.098 302.076C134.762 302.076 135.314 302.164 135.754 302.34C136.194 302.508 136.542 302.852 136.798 303.372C137.054 303.884 137.182 304.632 137.182 305.616C137.182 306.56 137.058 307.292 136.81 307.812C136.562 308.324 136.214 308.676 135.766 308.868C135.326 309.06 134.774 309.156 134.11 309.156C133.15 309.156 132.414 308.904 131.902 308.4C131.39 307.888 131.134 307.012 131.134 305.772C131.134 304.524 131.382 303.596 131.878 302.988C132.374 302.38 133.114 302.076 134.098 302.076ZM134.17 307.608C134.57 307.608 134.83 307.452 134.95 307.14C135.07 306.82 135.13 306.32 135.13 305.64C135.13 304.944 135.058 304.432 134.914 304.104C134.77 303.768 134.498 303.6 134.098 303.6C133.818 303.6 133.63 303.648 133.534 303.744C133.462 303.824 133.398 304.064 133.342 304.464C133.294 304.864 133.27 305.272 133.27 305.688C133.27 306.392 133.338 306.888 133.474 307.176C133.618 307.464 133.85 307.608 134.17 307.608ZM140.102 303.048C140.102 303.4 139.998 303.676 139.79 303.876C139.59 304.076 139.322 304.172 138.986 304.164C138.658 304.172 138.394 304.076 138.194 303.876C138.002 303.676 137.906 303.404 137.906 303.06C137.906 302.7 138.01 302.42 138.218 302.22C138.426 302.02 138.702 301.924 139.046 301.932C139.382 301.924 139.642 302.02 139.826 302.22C140.01 302.412 140.102 302.688 140.102 303.048ZM139.478 303.06C139.478 302.7 139.322 302.52 139.01 302.52C138.85 302.52 138.73 302.568 138.65 302.664C138.57 302.76 138.53 302.896 138.53 303.072C138.53 303.24 138.574 303.368 138.662 303.456C138.75 303.544 138.87 303.588 139.022 303.588C139.166 303.588 139.278 303.54 139.358 303.444C139.438 303.348 139.478 303.22 139.478 303.06Z" fill="#A8DADC"/>
<path d="M97.4188 303.36C98.0428 303.36 98.5228 303.548 98.8588 303.924C99.2028 304.3 99.3748 304.964 99.3748 305.916C99.3748 306.612 99.3028 307.208 99.1588 307.704C99.0228 308.192 98.8668 308.504 98.6908 308.64C98.4828 308.808 98.1748 308.932 97.7668 309.012C97.3588 309.092 96.8948 309.132 96.3748 309.132C95.9748 309.132 95.5268 309.1 95.0308 309.036C94.5348 308.98 94.0908 308.888 93.6988 308.76V301.8L95.7748 301.716V302.844C95.7748 302.908 95.7708 303.056 95.7628 303.288C95.7628 303.52 95.7548 303.716 95.7388 303.876C95.7228 304.028 95.6988 304.144 95.6668 304.224L95.7388 304.308C95.9228 304.028 96.1548 303.8 96.4348 303.624C96.7148 303.448 97.0428 303.36 97.4188 303.36ZM97.0828 307.692C97.1308 307.612 97.1708 307.424 97.2028 307.128C97.2428 306.832 97.2628 306.548 97.2628 306.276C97.2628 305.956 97.2468 305.704 97.2148 305.52C97.1908 305.336 97.1228 305.192 97.0108 305.088C96.9068 304.976 96.7428 304.92 96.5188 304.92C96.3188 304.92 96.0628 304.948 95.7508 305.004V307.716C96.0468 307.764 96.3548 307.788 96.6748 307.788C96.9068 307.788 97.0428 307.756 97.0828 307.692ZM101.236 302.796C100.964 302.796 100.728 302.704 100.528 302.52C100.336 302.336 100.24 302.116 100.24 301.86C100.24 301.604 100.336 301.384 100.528 301.2C100.728 301.016 100.964 300.924 101.236 300.924C101.508 300.924 101.74 301.016 101.932 301.2C102.124 301.384 102.22 301.604 102.22 301.86C102.22 302.116 102.124 302.336 101.932 302.52C101.74 302.704 101.508 302.796 101.236 302.796ZM100.204 303.48H102.256V309H100.204V303.48Z" fill="#A8DADC"/>
<path d="M11.7499 263.36C11.8539 263.36 11.9619 263.372 12.0739 263.396C12.1939 263.42 12.2819 263.448 12.3379 263.48C12.3379 263.656 12.3179 263.948 12.2779 264.356C12.2379 264.756 12.2019 265.04 12.1699 265.208C12.0899 265.2 11.9419 265.196 11.7259 265.196C11.2219 265.196 10.7739 265.224 10.3819 265.28V269H8.32989V263.48H10.0459L10.2859 264.368H10.2979C10.5299 264.064 10.7779 263.82 11.0419 263.636C11.3059 263.452 11.5419 263.36 11.7499 263.36ZM16.2248 267.56C16.4248 267.56 16.7968 267.54 17.3408 267.5C17.4128 267.5 17.5448 267.492 17.7368 267.476L17.9168 268.712C17.3008 269 16.5008 269.144 15.5168 269.144C14.5968 269.144 13.8888 268.912 13.3928 268.448C12.9048 267.984 12.6608 267.284 12.6608 266.348C12.6608 265.868 12.7208 265.404 12.8408 264.956C12.9688 264.508 13.1128 264.196 13.2728 264.02C13.4408 263.844 13.7528 263.692 14.2088 263.564C14.6648 263.436 15.1168 263.372 15.5648 263.372C16.2848 263.372 16.8248 263.5 17.1848 263.756C17.5448 264.012 17.7808 264.368 17.8928 264.824C18.0048 265.272 18.0608 265.876 18.0608 266.636C17.5168 266.668 16.9848 266.684 16.4648 266.684H14.7608C14.7608 266.94 14.8128 267.132 14.9168 267.26C15.0288 267.388 15.1848 267.472 15.3848 267.512C15.5848 267.544 15.8648 267.56 16.2248 267.56ZM14.8808 264.8C14.8328 264.824 14.7968 264.928 14.7728 265.112C14.7488 265.296 14.7328 265.504 14.7248 265.736H15.3488C15.7248 265.736 15.9968 265.732 16.1648 265.724C16.1648 265.34 16.1088 265.068 15.9968 264.908C15.8928 264.748 15.7088 264.668 15.4448 264.668C15.2288 264.668 15.0408 264.712 14.8808 264.8ZM23.247 267.128C23.247 267.84 23.019 268.352 22.563 268.664C22.115 268.976 21.475 269.132 20.643 269.132C20.059 269.132 19.387 269.048 18.627 268.88C18.643 268.72 18.679 268.492 18.735 268.196C18.799 267.892 18.851 267.66 18.891 267.5C19.179 267.548 19.499 267.588 19.851 267.62C20.203 267.644 20.503 267.656 20.751 267.656C20.967 267.656 21.099 267.644 21.147 267.62C21.155 267.612 21.163 267.592 21.171 267.56C21.187 267.52 21.195 267.48 21.195 267.44C21.195 267.28 21.095 267.172 20.895 267.116C20.831 267.1 20.587 267.032 20.163 266.912C19.739 266.792 19.391 266.576 19.119 266.264C18.855 265.944 18.723 265.548 18.723 265.076C18.723 264.828 18.779 264.552 18.891 264.248C19.003 263.944 19.123 263.752 19.251 263.672C19.347 263.608 19.579 263.544 19.947 263.48C20.315 263.408 20.655 263.372 20.967 263.372C21.631 263.372 22.299 263.42 22.971 263.516C22.971 263.66 22.951 263.904 22.911 264.248C22.871 264.584 22.835 264.796 22.803 264.884C22.123 264.796 21.575 264.752 21.159 264.752C20.943 264.752 20.803 264.764 20.739 264.788C20.723 264.796 20.707 264.82 20.691 264.86C20.675 264.892 20.667 264.936 20.667 264.992C20.667 265.104 20.703 265.184 20.775 265.232C20.847 265.288 21.035 265.356 21.339 265.436C21.699 265.54 22.007 265.648 22.263 265.76C22.527 265.872 22.755 266.04 22.947 266.264C23.147 266.488 23.247 266.776 23.247 267.128ZM27.2755 267.56C27.4755 267.56 27.8475 267.54 28.3915 267.5C28.4635 267.5 28.5955 267.492 28.7875 267.476L28.9675 268.712C28.3515 269 27.5515 269.144 26.5675 269.144C25.6475 269.144 24.9395 268.912 24.4435 268.448C23.9555 267.984 23.7115 267.284 23.7115 266.348C23.7115 265.868 23.7715 265.404 23.8915 264.956C24.0195 264.508 24.1635 264.196 24.3235 264.02C24.4915 263.844 24.8035 263.692 25.2595 263.564C25.7155 263.436 26.1675 263.372 26.6155 263.372C27.3355 263.372 27.8755 263.5 28.2355 263.756C28.5955 264.012 28.8315 264.368 28.9435 264.824C29.0555 265.272 29.1115 265.876 29.1115 266.636C28.5675 266.668 28.0355 266.684 27.5155 266.684H25.8115C25.8115 266.94 25.8635 267.132 25.9675 267.26C26.0795 267.388 26.2355 267.472 26.4355 267.512C26.6355 267.544 26.9155 267.56 27.2755 267.56ZM25.9315 264.8C25.8835 264.824 25.8475 264.928 25.8235 265.112C25.7995 265.296 25.7835 265.504 25.7755 265.736H26.3995C26.7755 265.736 27.0475 265.732 27.2155 265.724C27.2155 265.34 27.1595 265.068 27.0475 264.908C26.9435 264.748 26.7595 264.668 26.4955 264.668C26.2795 264.668 26.0915 264.712 25.9315 264.8ZM32.3778 266.732C32.3778 266.876 32.3818 267.028 32.3898 267.188C32.3978 267.34 32.4218 267.436 32.4618 267.476C32.5178 267.532 32.7138 267.56 33.0498 267.56L33.4578 267.548C33.5298 267.932 33.5658 268.376 33.5658 268.88C33.4138 268.936 33.1898 268.988 32.8938 269.036C32.6058 269.084 32.3298 269.108 32.0658 269.108C31.5138 269.108 31.0858 268.988 30.7818 268.748C30.4858 268.5 30.3378 268.12 30.3378 267.608V264.656H29.4378V263.564L30.3378 263.48L30.8778 262.16L32.3778 262.076V263.48H33.6498V264.656H32.3778V266.732Z" fill="#A8DADC"/>
<path d="M18.5 323.848C18.5 323.848 19.6928 321.477 21 321.521C22.3072 321.564 23.5 323.848 23.5 323.848C23.5 323.848 24.8484 326.423 26 326.423C27.1516 326.423 28.5 323.848 28.5 323.848" stroke="#A8DADC" stroke-width="1.2" stroke-linecap="round"/>
<path d="M62.5 327.42L60 322.52L57.5 327.42L55 322.52L52.5 327.42" stroke="#A8DADC" stroke-width="1.2" stroke-linecap="round" stroke-linejoin="round"/>
<path d="M97.5 327.42V322.52L92.5 327.42V322.52L87.5 327.42" stroke="#A8DADC" stroke-width="1.2" stroke-linecap="round" stroke-linejoin="round"/>
<path d="M131.3 327.42H128.5V322.52H124.5V327.42H121.7" stroke="#A8DADC" stroke-width="1.2" stroke-linecap="round" stroke-linejoin="round"/>
<path d="M52.4908 149.856C52.4348 149.912 52.4068 150.084 52.4068 150.372V150.48H53.6788V151.656H52.4068V156H50.3548V151.656H49.4548V150.588L50.3548 150.48V150.3C50.3548 149.948 50.4028 149.612 50.4988 149.292C50.5948 148.972 50.6828 148.78 50.7628 148.716C51.0108 148.508 51.5388 148.404 52.3468 148.404C52.7868 148.404 53.2788 148.436 53.8228 148.5C53.8228 148.596 53.8068 148.788 53.7748 149.076C53.7508 149.364 53.7268 149.608 53.7028 149.808L53.1868 149.796C52.7628 149.796 52.5308 149.816 52.4908 149.856ZM57.619 150.36C57.723 150.36 57.831 150.372 57.943 150.396C58.063 150.42 58.151 150.448 58.207 150.48C58.207 150.656 58.187 150.948 58.147 151.356C58.107 151.756 58.071 152.04 58.039 152.208C57.959 152.2 57.811 152.196 57.595 152.196C57.091 152.196 56.643 152.224 56.251 152.28V156H54.199V150.48H55.915L56.155 151.368H56.167C56.399 151.064 56.647 150.82 56.911 150.636C57.175 150.452 57.411 150.36 57.619 150.36ZM62.0939 154.56C62.2939 154.56 62.6659 154.54 63.2099 154.5C63.2819 154.5 63.4139 154.492 63.6059 154.476L63.7859 155.712C63.1699 156 62.3699 156.144 61.3859 156.144C60.4659 156.144 59.7579 155.912 59.2619 155.448C58.7739 154.984 58.5299 154.284 58.5299 153.348C58.5299 152.868 58.5899 152.404 58.7099 151.956C58.8379 151.508 58.9819 151.196 59.1419 151.02C59.3099 150.844 59.6219 150.692 60.0779 150.564C60.5339 150.436 60.9859 150.372 61.4339 150.372C62.1539 150.372 62.6939 150.5 63.0539 150.756C63.4139 151.012 63.6499 151.368 63.7619 151.824C63.8739 152.272 63.9299 152.876 63.9299 153.636C63.3859 153.668 62.8539 153.684 62.3339 153.684H60.6299C60.6299 153.94 60.6819 154.132 60.7859 154.26C60.8979 154.388 61.0539 154.472 61.2539 154.512C61.4539 154.544 61.7339 154.56 62.0939 154.56ZM60.7499 151.8C60.7019 151.824 60.6659 151.928 60.6419 152.112C60.6179 152.296 60.6019 152.504 60.5939 152.736H61.2179C61.5939 152.736 61.8659 152.732 62.0339 152.724C62.0339 152.34 61.9779 152.068 61.8659 151.908C61.7619 151.748 61.5779 151.668 61.3139 151.668C61.0979 151.668 60.9099 151.712 60.7499 151.8ZM67.4842 150.372C68.3402 150.372 69.2242 150.492 70.1362 150.732V157.68L68.0842 157.764V156.18C68.0842 155.876 68.1442 155.52 68.2642 155.112L68.2282 155.088C68.0282 155.448 67.7682 155.704 67.4482 155.856C67.1282 156 66.8282 156.072 66.5482 156.072C65.9242 156.072 65.4202 155.852 65.0362 155.412C64.6522 154.964 64.4602 154.292 64.4602 153.396C64.4602 152.796 64.5362 152.252 64.6882 151.764C64.8402 151.276 65.0242 150.96 65.2402 150.816C65.4722 150.664 65.7882 150.552 66.1882 150.48C66.5882 150.408 67.0202 150.372 67.4842 150.372ZM67.4122 154.404C67.6042 154.404 67.8282 154.368 68.0842 154.296V151.788C67.9882 151.772 67.8442 151.756 67.6522 151.74C67.5802 151.732 67.4722 151.728 67.3282 151.728C67.0162 151.728 66.8402 151.76 66.8002 151.824C66.7282 151.936 66.6722 152.14 66.6322 152.436C66.5922 152.716 66.5722 152.988 66.5722 153.252C66.5722 153.668 66.6402 153.964 66.7762 154.14C66.9122 154.316 67.1242 154.404 67.4122 154.404Z" fill="#A8DADC"/>
<path d="M96.9554 149.48V155H95.2874L95.0594 154.076C94.4834 154.772 93.7954 155.12 92.9954 155.12C92.7074 155.12 92.4354 155.08 92.1794 155C91.9314 154.92 91.7434 154.804 91.6154 154.652C91.5434 154.564 91.4874 154.344 91.4474 153.992C91.4154 153.64 91.3994 153.104 91.3994 152.384V149.48H93.4514V152.36C93.4514 152.52 93.4554 152.708 93.4634 152.924C93.4714 153.14 93.4954 153.276 93.5354 153.332C93.5914 153.412 93.7514 153.452 94.0154 153.452L94.2074 153.44C94.4314 153.432 94.6634 153.38 94.9034 153.284V149.48H96.9554ZM103.279 149.828C103.351 149.916 103.403 150.136 103.435 150.488C103.475 150.84 103.495 151.376 103.495 152.096V155H101.443V152.12V151.628C101.443 151.372 101.423 151.212 101.383 151.148C101.319 151.068 101.171 151.028 100.939 151.028C100.827 151.028 100.743 151.032 100.687 151.04C100.463 151.048 100.231 151.1 99.9913 151.196V155H97.9393V149.48H99.6073L99.8353 150.404C100.411 149.708 101.099 149.36 101.899 149.36C102.187 149.36 102.455 149.4 102.703 149.48C102.959 149.56 103.151 149.676 103.279 149.828ZM105.511 148.796C105.239 148.796 105.003 148.704 104.803 148.52C104.611 148.336 104.515 148.116 104.515 147.86C104.515 147.604 104.611 147.384 104.803 147.2C105.003 147.016 105.239 146.924 105.511 146.924C105.783 146.924 106.015 147.016 106.207 147.2C106.399 147.384 106.495 147.604 106.495 147.86C106.495 148.116 106.399 148.336 106.207 148.52C106.015 148.704 105.783 148.796 105.511 148.796ZM104.479 149.48H106.531V155H104.479V149.48Z" fill="#A8DADC"/>
<path d="M129.002 148.076C129.666 148.076 130.218 148.164 130.658 148.34C131.098 148.508 131.446 148.852 131.702 149.372C131.958 149.884 132.086 150.632 132.086 151.616C132.086 152.56 131.962 153.292 131.714 153.812C131.466 154.324 131.118 154.676 130.67 154.868C130.23 155.06 129.678 155.156 129.014 155.156C128.054 155.156 127.318 154.904 126.806 154.4C126.294 153.888 126.038 153.012 126.038 151.772C126.038 150.524 126.286 149.596 126.782 148.988C127.278 148.38 128.018 148.076 129.002 148.076ZM129.074 153.608C129.474 153.608 129.734 153.452 129.854 153.14C129.974 152.82 130.034 152.32 130.034 151.64C130.034 150.944 129.962 150.432 129.818 150.104C129.674 149.768 129.402 149.6 129.002 149.6C128.722 149.6 128.534 149.648 128.438 149.744C128.366 149.824 128.302 150.064 128.246 150.464C128.198 150.864 128.174 151.272 128.174 151.688C128.174 152.392 128.242 152.888 128.378 153.176C128.522 153.464 128.754 153.608 129.074 153.608ZM135.007 149.048C135.007 149.4 134.903 149.676 134.695 149.876C134.495 150.076 134.227 150.172 133.891 150.164C133.563 150.172 133.299 150.076 133.099 149.876C132.907 149.676 132.811 149.404 132.811 149.06C132.811 148.7 132.915 148.42 133.123 148.22C133.331 148.02 133.607 147.924 133.951 147.932C134.287 147.924 134.547 148.02 134.731 148.22C134.915 148.412 135.007 148.688 135.007 149.048ZM134.383 149.06C134.383 148.7 134.227 148.52 133.915 148.52C133.755 148.52 133.635 148.568 133.555 148.664C133.475 148.76 133.435 148.896 133.435 149.072C133.435 149.24 133.479 149.368 133.567 149.456C133.655 149.544 133.775 149.588 133.927 149.588C134.071 149.588 134.183 149.54 134.263 149.444C134.343 149.348 134.383 149.22 134.383 149.06Z" fill="#A8DADC"/>
<path d="M123.387 189.16V196H121.287V190.888L119.799 191.2L119.571 189.94L121.695 189.16H123.387ZM128.879 192.22C129.391 192.452 129.763 192.724 129.995 193.036C130.227 193.34 130.343 193.704 130.343 194.128C130.343 194.776 130.063 195.272 129.503 195.616C128.951 195.96 128.259 196.132 127.427 196.132C126.603 196.132 125.931 195.988 125.411 195.7C124.899 195.404 124.643 194.964 124.643 194.38C124.643 194.052 124.763 193.728 125.003 193.408C125.251 193.088 125.599 192.828 126.047 192.628C125.663 192.404 125.367 192.136 125.159 191.824C124.959 191.504 124.859 191.192 124.859 190.888C124.859 190.288 125.115 189.836 125.627 189.532C126.139 189.228 126.771 189.076 127.523 189.076C129.211 189.076 130.055 189.628 130.055 190.732C130.055 191.244 129.663 191.74 128.879 192.22ZM127.535 190.24C127.303 190.24 127.127 190.296 127.007 190.408C126.895 190.512 126.839 190.676 126.839 190.9C126.839 191.1 126.923 191.268 127.091 191.404C127.267 191.532 127.503 191.656 127.799 191.776C128.191 191.504 128.387 191.224 128.387 190.936C128.387 190.696 128.315 190.52 128.171 190.408C128.035 190.296 127.823 190.24 127.535 190.24ZM127.451 194.98C127.667 194.98 127.855 194.92 128.015 194.8C128.175 194.672 128.255 194.496 128.255 194.272C128.255 194.056 128.175 193.88 128.015 193.744C127.863 193.6 127.607 193.44 127.247 193.264C127.031 193.416 126.859 193.572 126.731 193.732C126.611 193.892 126.551 194.072 126.551 194.272C126.551 194.488 126.643 194.66 126.827 194.788C127.019 194.916 127.227 194.98 127.451 194.98ZM134.098 189.076C134.762 189.076 135.314 189.164 135.754 189.34C136.194 189.508 136.542 189.852 136.798 190.372C137.054 190.884 137.182 191.632 137.182 192.616C137.182 193.56 137.058 194.292 136.81 194.812C136.562 195.324 136.214 195.676 135.766 195.868C135.326 196.06 134.774 196.156 134.11 196.156C133.15 196.156 132.414 195.904 131.902 195.4C131.39 194.888 131.134 194.012 131.134 192.772C131.134 191.524 131.382 190.596 131.878 189.988C132.374 189.38 133.114 189.076 134.098 189.076ZM134.17 194.608C134.57 194.608 134.83 194.452 134.95 194.14C135.07 193.82 135.13 193.32 135.13 192.64C135.13 191.944 135.058 191.432 134.914 191.104C134.77 190.768 134.498 190.6 134.098 190.6C133.818 190.6 133.63 190.648 133.534 190.744C133.462 190.824 133.398 191.064 133.342 191.464C133.294 191.864 133.27 192.272 133.27 192.688C133.27 193.392 133.338 193.888 133.474 194.176C133.618 194.464 133.85 194.608 134.17 194.608ZM140.102 190.048C140.102 190.4 139.998 190.676 139.79 190.876C139.59 191.076 139.322 191.172 138.986 191.164C138.658 191.172 138.394 191.076 138.194 190.876C138.002 190.676 137.906 190.404 137.906 190.06C137.906 189.7 138.01 189.42 138.218 189.22C138.426 189.02 138.702 188.924 139.046 188.932C139.382 188.924 139.642 189.02 139.826 189.22C140.01 189.412 140.102 189.688 140.102 190.048ZM139.478 190.06C139.478 189.7 139.322 189.52 139.01 189.52C138.85 189.52 138.73 189.568 138.65 189.664C138.57 189.76 138.53 189.896 138.53 190.072C138.53 190.24 138.574 190.368 138.662 190.456C138.75 190.544 138.87 190.588 139.022 190.588C139.166 190.588 139.278 190.54 139.358 190.444C139.438 190.348 139.478 190.22 139.478 190.06Z" fill="#A8DADC"/>
<path d="M97.4188 190.36C98.0428 190.36 98.5228 190.548 98.8588 190.924C99.2028 191.3 99.3748 191.964 99.3748 192.916C99.3748 193.612 99.3028 194.208 99.1588 194.704C99.0228 195.192 98.8668 195.504 98.6908 195.64C98.4828 195.808 98.1748 195.932 97.7668 196.012C97.3588 196.092 96.8948 196.132 96.3748 196.132C95.9748 196.132 95.5268 196.1 95.0308 196.036C94.5348 195.98 94.0908 195.888 93.6988 195.76V188.8L95.7748 188.716V189.844C95.7748 189.908 95.7708 190.056 95.7628 190.288C95.7628 190.52 95.7548 190.716 95.7388 190.876C95.7228 191.028 95.6988 191.144 95.6668 191.224L95.7388 191.308C95.9228 191.028 96.1548 190.8 96.4348 190.624C96.7148 190.448 97.0428 190.36 97.4188 190.36ZM97.0828 194.692C97.1308 194.612 97.1708 194.424 97.2028 194.128C97.2428 193.832 97.2628 193.548 97.2628 193.276C97.2628 192.956 97.2468 192.704 97.2148 192.52C97.1908 192.336 97.1228 192.192 97.0108 192.088C96.9068 191.976 96.7428 191.92 96.5188 191.92C96.3188 191.92 96.0628 191.948 95.7508 192.004V194.716C96.0468 194.764 96.3548 194.788 96.6748 194.788C96.9068 194.788 97.0428 194.756 97.0828 194.692ZM101.236 189.796C100.964 189.796 100.728 189.704 100.528 189.52C100.336 189.336 100.24 189.116 100.24 188.86C100.24 188.604 100.336 188.384 100.528 188.2C100.728 188.016 100.964 187.924 101.236 187.924C101.508 187.924 101.74 188.016 101.932 188.2C102.124 188.384 102.22 188.604 102.22 188.86C102.22 189.116 102.124 189.336 101.932 189.52C101.74 189.704 101.508 189.796 101.236 189.796ZM100.204 190.48H102.256V196H100.204V190.48Z" fill="#A8DADC"/>
<path d="M11.7499 150.36C11.8539 150.36 11.9619 150.372 12.0739 150.396C12.1939 150.42 12.2819 150.448 12.3379 150.48C12.3379 150.656 12.3179 150.948 12.2779 151.356C12.2379 151.756 12.2019 152.04 12.1699 152.208C12.0899 152.2 11.9419 152.196 11.7259 152.196C11.2219 152.196 10.7739 152.224 10.3819 152.28V156H8.32989V150.48H10.0459L10.2859 151.368H10.2979C10.5299 151.064 10.7779 150.82 11.0419 150.636C11.3059 150.452 11.5419 150.36 11.7499 150.36ZM16.2248 154.56C16.4248 154.56 16.7968 154.54 17.3408 154.5C17.4128 154.5 17.5448 154.492 17.7368 154.476L17.9168 155.712C17.3008 156 16.5008 156.144 15.5168 156.144C14.5968 156.144 13.8888 155.912 13.3928 155.448C12.9048 154.984 12.6608 154.284 12.6608 153.348C12.6608 152.868 12.7208 152.404 12.8408 151.956C12.9688 151.508 13.1128 151.196 13.2728 151.02C13.4408 150.844 13.7528 150.692 14.2088 150.564C14.6648 150.436 15.1168 150.372 15.5648 150.372C16.2848 150.372 16.8248 150.5 17.1848 150.756C17.5448 151.012 17.7808 151.368 17.8928 151.824C18.0048 152.272 18.0608 152.876 18.0608 153.636C17.5168 153.668 16.9848 153.684 16.4648 153.684H14.7608C14.7608 153.94 14.8128 154.132 14.9168 154.26C15.0288 154.388 15.1848 154.472 15.3848 154.512C15.5848 154.544 15.8648 154.56 16.2248 154.56ZM14.8808 151.8C14.8328 151.824 14.7968 151.928 14.7728 152.112C14.7488 152.296 14.7328 152.504 14.7248 152.736H15.3488C15.7248 152.736 15.9968 152.732 16.1648 152.724C16.1648 152.34 16.1088 152.068 15.9968 151.908C15.8928 151.748 15.7088 151.668 15.4448 151.668C15.2288 151.668 15.0408 151.712 14.8808 151.8ZM23.247 154.128C23.247 154.84 23.019 155.352 22.563 155.664C22.115 155.976 21.475 156.132 20.643 156.132C20.059 156.132 19.387 156.048 18.627 155.88C18.643 155.72 18.679 155.492 18.735 155.196C18.799 154.892 18.851 154.66 18.891 154.5C19.179 154.548 19.499 154.588 19.851 154.62C20.203 154.644 20.503 154.656 20.751 154.656C20.967 154.656 21.099 154.644 21.147 154.62C21.155 154.612 21.163 154.592 21.171 154.56C21.187 154.52 21.195 154.48 21.195 154.44C21.195 154.28 21.095 154.172 20.895 154.116C20.831 154.1 20.587 154.032 20.163 153.912C19.739 153.792 19.391 153.576 19.119 153.264C18.855 152.944 18.723 152.548 18.723 152.076C18.723 151.828 18.779 151.552 18.891 151.248C19.003 150.944 19.123 150.752 19.251 150.672C19.347 150.608 19.579 150.544 19.947 150.48C20.315 150.408 20.655 150.372 20.967 150.372C21.631 150.372 22.299 150.42 22.971 150.516C22.971 150.66 22.951 150.904 22.911 151.248C22.871 151.584 22.835 151.796 22.803 151.884C22.123 151.796 21.575 151.752 21.159 151.752C20.943 151.752 20.803 151.764 20.739 151.788C20.723 151.796 20.707 151.82 20.691 151.86C20.675 151.892 20.667 151.936 20.667 151.992C20.667 152.104 20.703 152.184 20.775 152.232C20.847 152.288 21.035 152.356 21.339 152.436C21.699 152.54 22.007 152.648 22.263 152.76C22.527 152.872 22.755 153.04 22.947 153.264C23.147 153.488 23.247 153.776 23.247 154.128ZM27.2755 154.56C27.4755 154.56 27.8475 154.54 28.3915 154.5C28.4635 154.5 28.5955 154.492 28.7875 154.476L28.9675 155.712C28.3515 156 27.5515 156.144 26.5675 156.144C25.6475 156.144 24.9395 155.912 24.4435 155.448C23.9555 154.984 23.7115 154.284 23.7115 153.348C23.7115 152.868 23.7715 152.404 23.8915 151.956C24.0195 151.508 24.1635 151.196 24.3235 151.02C24.4915 150.844 24.8035 150.692 25.2595 150.564C25.7155 150.436 26.1675 150.372 26.6155 150.372C27.3355 150.372 27.8755 150.5 28.2355 150.756C28.5955 151.012 28.8315 151.368 28.9435 151.824C29.0555 152.272 29.1115 152.876 29.1115 153.636C28.5675 153.668 28.0355 153.684 27.5155 153.684H25.8115C25.8115 153.94 25.8635 154.132 25.9675 154.26C26.0795 154.388 26.2355 154.472 26.4355 154.512C26.6355 154.544 26.9155 154.56 27.2755 154.56ZM25.9315 151.8C25.8835 151.824 25.8475 151.928 25.8235 152.112C25.7995 152.296 25.7835 152.504 25.7755 152.736H26.3995C26.7755 152.736 27.0475 152.732 27.2155 152.724C27.2155 152.34 27.1595 152.068 27.0475 151.908C26.9435 151.748 26.7595 151.668 26.4955 151.668C26.2795 151.668 26.0915 151.712 25.9315 151.8ZM32.3778 153.732C32.3778 153.876 32.3818 154.028 32.3898 154.188C32.3978 154.34 32.4218 154.436 32.4618 154.476C32.5178 154.532 32.7138 154.56 33.0498 154.56L33.4578 154.548C33.5298 154.932 33.5658 155.376 33.5658 155.88C33.4138 155.936 33.1898 155.988 32.8938 156.036C32.6058 156.084 32.3298 156.108 32.0658 156.108C31.5138 156.108 31.0858 155.988 30.7818 155.748C30.4858 155.5 30.3378 155.12 30.3378 154.608V151.656H29.4378V150.564L30.3378 150.48L30.8778 149.16L32.3778 149.076V150.48H33.6498V151.656H32.3778V153.732Z" fill="#A8DADC"/>
<path d="M18.5 210.848C18.5 210.848 19.6928 208.477 21 208.521C22.3072 208.564 23.5 210.848 23.5 210.848C23.5 210.848 24.8484 213.423 26 213.423C27.1516 213.423 28.5 210.848 28.5 210.848" stroke="#A8DADC" stroke-width="1.2" stroke-linecap="round"/>
<path d="M62.5 214.42L60 209.52L57.5 214.42L55 209.52L52.5 214.42" stroke="#A8DADC" stroke-width="1.2" stroke-linecap="round" stroke-linejoin="round"/>
<path d="M97.5 214.42V209.52L92.5 214.42V209.52L87.5 214.42" stroke="#A8DADC" stroke-width="1.2" stroke-linecap="round" stroke-linejoin="round"/>
<path d="M131.3 214.42H128.5V209.52H124.5V214.42H121.7" stroke="#A8DADC" stroke-width="1.2" stroke-linecap="round" stroke-linejoin="round"/>
<path d="M52.4908 37.856C52.4348 37.912 52.4068 38.084 52.4068 38.372V38.48H53.6788V39.656H52.4068V44H50.3548V39.656H49.4548V38.588L50.3548 38.48V38.3C50.3548 37.948 50.4028 37.612 50.4988 37.292C50.5948 36.972 50.6828 36.78 50.7628 36.716C51.0108 36.508 51.5388 36.404 52.3468 36.404C52.7868 36.404 53.2788 36.436 53.8228 36.5C53.8228 36.596 53.8068 36.788 53.7748 37.076C53.7508 37.364 53.7268 37.608 53.7028 37.808L53.1868 37.796C52.7628 37.796 52.5308 37.816 52.4908 37.856ZM57.619 38.36C57.723 38.36 57.831 38.372 57.943 38.396C58.063 38.42 58.151 38.448 58.207 38.48C58.207 38.656 58.187 38.948 58.147 39.356C58.107 39.756 58.071 40.04 58.039 40.208C57.959 40.2 57.811 40.196 57.595 40.196C57.091 40.196 56.643 40.224 56.251 40.28V44H54.199V38.48H55.915L56.155 39.368H56.167C56.399 39.064 56.647 38.82 56.911 38.636C57.175 38.452 57.411 38.36 57.619 38.36ZM62.0939 42.56C62.2939 42.56 62.6659 42.54 63.2099 42.5C63.2819 42.5 63.4139 42.492 63.6059 42.476L63.7859 43.712C63.1699 44 62.3699 44.144 61.3859 44.144C60.4659 44.144 59.7579 43.912 59.2619 43.448C58.7739 42.984 58.5299 42.284 58.5299 41.348C58.5299 40.868 58.5899 40.404 58.7099 39.956C58.8379 39.508 58.9819 39.196 59.1419 39.02C59.3099 38.844 59.6219 38.692 60.0779 38.564C60.5339 38.436 60.9859 38.372 61.4339 38.372C62.1539 38.372 62.6939 38.5 63.0539 38.756C63.4139 39.012 63.6499 39.368 63.7619 39.824C63.8739 40.272 63.9299 40.876 63.9299 41.636C63.3859 41.668 62.8539 41.684 62.3339 41.684H60.6299C60.6299 41.94 60.6819 42.132 60.7859 42.26C60.8979 42.388 61.0539 42.472 61.2539 42.512C61.4539 42.544 61.7339 42.56 62.0939 42.56ZM60.7499 39.8C60.7019 39.824 60.6659 39.928 60.6419 40.112C60.6179 40.296 60.6019 40.504 60.5939 40.736H61.2179C61.5939 40.736 61.8659 40.732 62.0339 40.724C62.0339 40.34 61.9779 40.068 61.8659 39.908C61.7619 39.748 61.5779 39.668 61.3139 39.668C61.0979 39.668 60.9099 39.712 60.7499 39.8ZM67.4842 38.372C68.3402 38.372 69.2242 38.492 70.1362 38.732V45.68L68.0842 45.764V44.18C68.0842 43.876 68.1442 43.52 68.2642 43.112L68.2282 43.088C68.0282 43.448 67.7682 43.704 67.4482 43.856C67.1282 44 66.8282 44.072 66.5482 44.072C65.9242 44.072 65.4202 43.852 65.0362 43.412C64.6522 42.964 64.4602 42.292 64.4602 41.396C64.4602 40.796 64.5362 40.252 64.6882 39.764C64.8402 39.276 65.0242 38.96 65.2402 38.816C65.4722 38.664 65.7882 38.552 66.1882 38.48C66.5882 38.408 67.0202 38.372 67.4842 38.372ZM67.4122 42.404C67.6042 42.404 67.8282 42.368 68.0842 42.296V39.788C67.9882 39.772 67.8442 39.756 67.6522 39.74C67.5802 39.732 67.4722 39.728 67.3282 39.728C67.0162 39.728 66.8402 39.76 66.8002 39.824C66.7282 39.936 66.6722 40.14 66.6322 40.436C66.5922 40.716 66.5722 40.988 66.5722 41.252C66.5722 41.668 66.6402 41.964 66.7762 42.14C66.9122 42.316 67.1242 42.404 67.4122 42.404Z" fill="#A8DADC"/>
<path d="M96.9554 37.48V43H95.2874L95.0594 42.076C94.4834 42.772 93.7954 43.12 92.9954 43.12C92.7074 43.12 92.4354 43.08 92.1794 43C91.9314 42.92 91.7434 42.804 91.6154 42.652C91.5434 42.564 91.4874 42.344 91.4474 41.992C91.4154 41.64 91.3994 41.104 91.3994 40.384V37.48H93.4514V40.36C93.4514 40.52 93.4554 40.708 93.4634 40.924C93.4714 41.14 93.4954 41.276 93.5354 41.332C93.5914 41.412 93.7514 41.452 94.0154 41.452L94.2074 41.44C94.4314 41.432 94.6634 41.38 94.9034 41.284V37.48H96.9554ZM103.279 37.828C103.351 37.916 103.403 38.136 103.435 38.488C103.475 38.84 103.495 39.376 103.495 40.096V43H101.443V40.12V39.628C101.443 39.372 101.423 39.212 101.383 39.148C101.319 39.068 101.171 39.028 100.939 39.028C100.827 39.028 100.743 39.032 100.687 39.04C100.463 39.048 100.231 39.1 99.9913 39.196V43H97.9393V37.48H99.6073L99.8353 38.404C100.411 37.708 101.099 37.36 101.899 37.36C102.187 37.36 102.455 37.4 102.703 37.48C102.959 37.56 103.151 37.676 103.279 37.828ZM105.511 36.796C105.239 36.796 105.003 36.704 104.803 36.52C104.611 36.336 104.515 36.116 104.515 35.86C104.515 35.604 104.611 35.384 104.803 35.2C105.003 35.016 105.239 34.924 105.511 34.924C105.783 34.924 106.015 35.016 106.207 35.2C106.399 35.384 106.495 35.604 106.495 35.86C106.495 36.116 106.399 36.336 106.207 36.52C106.015 36.704 105.783 36.796 105.511 36.796ZM104.479 37.48H106.531V43H104.479V37.48Z" fill="#A8DADC"/>
<path d="M129.002 36.076C129.666 36.076 130.218 36.164 130.658 36.34C131.098 36.508 131.446 36.852 131.702 37.372C131.958 37.884 132.086 38.632 132.086 39.616C132.086 40.56 131.962 41.292 131.714 41.812C131.466 42.324 131.118 42.676 130.67 42.868C130.23 43.06 129.678 43.156 129.014 43.156C128.054 43.156 127.318 42.904 126.806 42.4C126.294 41.888 126.038 41.012 126.038 39.772C126.038 38.524 126.286 37.596 126.782 36.988C127.278 36.38 128.018 36.076 129.002 36.076ZM129.074 41.608C129.474 41.608 129.734 41.452 129.854 41.14C129.974 40.82 130.034 40.32 130.034 39.64C130.034 38.944 129.962 38.432 129.818 38.104C129.674 37.768 129.402 37.6 129.002 37.6C128.722 37.6 128.534 37.648 128.438 37.744C128.366 37.824 128.302 38.064 128.246 38.464C128.198 38.864 128.174 39.272 128.174 39.688C128.174 40.392 128.242 40.888 128.378 41.176C128.522 41.464 128.754 41.608 129.074 41.608ZM135.007 37.048C135.007 37.4 134.903 37.676 134.695 37.876C134.495 38.076 134.227 38.172 133.891 38.164C133.563 38.172 133.299 38.076 133.099 37.876C132.907 37.676 132.811 37.404 132.811 37.06C132.811 36.7 132.915 36.42 133.123 36.22C133.331 36.02 133.607 35.924 133.951 35.932C134.287 35.924 134.547 36.02 134.731 36.22C134.915 36.412 135.007 36.688 135.007 37.048ZM134.383 37.06C134.383 36.7 134.227 36.52 133.915 36.52C133.755 36.52 133.635 36.568 133.555 36.664C133.475 36.76 133.435 36.896 133.435 37.072C133.435 37.24 133.479 37.368 133.567 37.456C133.655 37.544 133.775 37.588 133.927 37.588C134.071 37.588 134.183 37.54 134.263 37.444C134.343 37.348 134.383 37.22 134.383 37.06Z" fill="#A8DADC"/>
<path d="M123.387 77.16V84H121.287V78.888L119.799 79.2L119.571 77.94L121.695 77.16H123.387ZM128.879 80.22C129.391 80.452 129.763 80.724 129.995 81.036C130.227 81.34 130.343 81.704 130.343 82.128C130.343 82.776 130.063 83.272 129.503 83.616C128.951 83.96 128.259 84.132 127.427 84.132C126.603 84.132 125.931 83.988 125.411 83.7C124.899 83.404 124.643 82.964 124.643 82.38C124.643 82.052 124.763 81.728 125.003 81.408C125.251 81.088 125.599 80.828 126.047 80.628C125.663 80.404 125.367 80.136 125.159 79.824C124.959 79.504 124.859 79.192 124.859 78.888C124.859 78.288 125.115 77.836 125.627 77.532C126.139 77.228 126.771 77.076 127.523 77.076C129.211 77.076 130.055 77.628 130.055 78.732C130.055 79.244 129.663 79.74 128.879 80.22ZM127.535 78.24C127.303 78.24 127.127 78.296 127.007 78.408C126.895 78.512 126.839 78.676 126.839 78.9C126.839 79.1 126.923 79.268 127.091 79.404C127.267 79.532 127.503 79.656 127.799 79.776C128.191 79.504 128.387 79.224 128.387 78.936C128.387 78.696 128.315 78.52 128.171 78.408C128.035 78.296 127.823 78.24 127.535 78.24ZM127.451 82.98C127.667 82.98 127.855 82.92 128.015 82.8C128.175 82.672 128.255 82.496 128.255 82.272C128.255 82.056 128.175 81.88 128.015 81.744C127.863 81.6 127.607 81.44 127.247 81.264C127.031 81.416 126.859 81.572 126.731 81.732C126.611 81.892 126.551 82.072 126.551 82.272C126.551 82.488 126.643 82.66 126.827 82.788C127.019 82.916 127.227 82.98 127.451 82.98ZM134.098 77.076C134.762 77.076 135.314 77.164 135.754 77.34C136.194 77.508 136.542 77.852 136.798 78.372C137.054 78.884 137.182 79.632 137.182 80.616C137.182 81.56 137.058 82.292 136.81 82.812C136.562 83.324 136.214 83.676 135.766 83.868C135.326 84.06 134.774 84.156 134.11 84.156C133.15 84.156 132.414 83.904 131.902 83.4C131.39 82.888 131.134 82.012 131.134 80.772C131.134 79.524 131.382 78.596 131.878 77.988C132.374 77.38 133.114 77.076 134.098 77.076ZM134.17 82.608C134.57 82.608 134.83 82.452 134.95 82.14C135.07 81.82 135.13 81.32 135.13 80.64C135.13 79.944 135.058 79.432 134.914 79.104C134.77 78.768 134.498 78.6 134.098 78.6C133.818 78.6 133.63 78.648 133.534 78.744C133.462 78.824 133.398 79.064 133.342 79.464C133.294 79.864 133.27 80.272 133.27 80.688C133.27 81.392 133.338 81.888 133.474 82.176C133.618 82.464 133.85 82.608 134.17 82.608ZM140.102 78.048C140.102 78.4 139.998 78.676 139.79 78.876C139.59 79.076 139.322 79.172 138.986 79.164C138.658 79.172 138.394 79.076 138.194 78.876C138.002 78.676 137.906 78.404 137.906 78.06C137.906 77.7 138.01 77.42 138.218 77.22C138.426 77.02 138.702 76.924 139.046 76.932C139.382 76.924 139.642 77.02 139.826 77.22C140.01 77.412 140.102 77.688 140.102 78.048ZM139.478 78.06C139.478 77.7 139.322 77.52 139.01 77.52C138.85 77.52 138.73 77.568 138.65 77.664C138.57 77.76 138.53 77.896 138.53 78.072C138.53 78.24 138.574 78.368 138.662 78.456C138.75 78.544 138.87 78.588 139.022 78.588C139.166 78.588 139.278 78.54 139.358 78.444C139.438 78.348 139.478 78.22 139.478 78.06Z" fill="#A8DADC"/>
<path d="M97.4188 78.36C98.0428 78.36 98.5228 78.548 98.8588 78.924C99.2028 79.3 99.3748 79.964 99.3748 80.916C99.3748 81.612 99.3028 82.208 99.1588 82.704C99.0228 83.192 98.8668 83.504 98.6908 83.64C98.4828 83.808 98.1748 83.932 97.7668 84.012C97.3588 84.092 96.8948 84.132 96.3748 84.132C95.9748 84.132 95.5268 84.1 95.0308 84.036C94.5348 83.98 94.0908 83.888 93.6988 83.76V76.8L95.7748 76.716V77.844C95.7748 77.908 95.7708 78.056 95.7628 78.288C95.7628 78.52 95.7548 78.716 95.7388 78.876C95.7228 79.028 95.6988 79.144 95.6668 79.224L95.7388 79.308C95.9228 79.028 96.1548 78.8 96.4348 78.624C96.7148 78.448 97.0428 78.36 97.4188 78.36ZM97.0828 82.692C97.1308 82.612 97.1708 82.424 97.2028 82.128C97.2428 81.832 97.2628 81.548 97.2628 81.276C97.2628 80.956 97.2468 80.704 97.2148 80.52C97.1908 80.336 97.1228 80.192 97.0108 80.088C96.9068 79.976 96.7428 79.92 96.5188 79.92C96.3188 79.92 96.0628 79.948 95.7508 80.004V82.716C96.0468 82.764 96.3548 82.788 96.6748 82.788C96.9068 82.788 97.0428 82.756 97.0828 82.692ZM101.236 77.796C100.964 77.796 100.728 77.704 100.528 77.52C100.336 77.336 100.24 77.116 100.24 76.86C100.24 76.604 100.336 76.384 100.528 76.2C100.728 76.016 100.964 75.924 101.236 75.924C101.508 75.924 101.74 76.016 101.932 76.2C102.124 76.384 102.22 76.604 102.22 76.86C102.22 77.116 102.124 77.336 101.932 77.52C101.74 77.704 101.508 77.796 101.236 77.796ZM100.204 78.48H102.256V84H100.204V78.48Z" fill="#A8DADC"/>
<path d="M11.7499 38.36C11.8539 38.36 11.9619 38.372 12.0739 38.396C12.1939 38.42 12.2819 38.448 12.3379 38.48C12.3379 38.656 12.3179 38.948 12.2779 39.356C12.2379 39.756 12.2019 40.04 12.1699 40.208C12.0899 40.2 11.9419 40.196 11.7259 40.196C11.2219 40.196 10.7739 40.224 10.3819 40.28V44H8.32989V38.48H10.0459L10.2859 39.368H10.2979C10.5299 39.064 10.7779 38.82 11.0419 38.636C11.3059 38.452 11.5419 38.36 11.7499 38.36ZM16.2248 42.56C16.4248 42.56 16.7968 42.54 17.3408 42.5C17.4128 42.5 17.5448 42.492 17.7368 42.476L17.9168 43.712C17.3008 44 16.5008 44.144 15.5168 44.144C14.5968 44.144 13.8888 43.912 13.3928 43.448C12.9048 42.984 12.6608 42.284 12.6608 41.348C12.6608 40.868 12.7208 40.404 12.8408 39.956C12.9688 39.508 13.1128 39.196 13.2728 39.02C13.4408 38.844 13.7528 38.692 14.2088 38.564C14.6648 38.436 15.1168 38.372 15.5648 38.372C16.2848 38.372 16.8248 38.5 17.1848 38.756C17.5448 39.012 17.7808 39.368 17.8928 39.824C18.0048 40.272 18.0608 40.876 18.0608 41.636C17.5168 41.668 16.9848 41.684 16.4648 41.684H14.7608C14.7608 41.94 14.8128 42.132 14.9168 42.26C15.0288 42.388 15.1848 42.472 15.3848 42.512C15.5848 42.544 15.8648 42.56 16.2248 42.56ZM14.8808 39.8C14.8328 39.824 14.7968 39.928 14.7728 40.112C14.7488 40.296 14.7328 40.504 14.7248 40.736H15.3488C15.7248 40.736 15.9968 40.732 16.1648 40.724C16.1648 40.34 16.1088 40.068 15.9968 39.908C15.8928 39.748 15.7088 39.668 15.4448 39.668C15.2288 39.668 15.0408 39.712 14.8808 39.8ZM23.247 42.128C23.247 42.84 23.019 43.352 22.563 43.664C22.115 43.976 21.475 44.132 20.643 44.132C20.059 44.132 19.387 44.048 18.627 43.88C18.643 43.72 18.679 43.492 18.735 43.196C18.799 42.892 18.851 42.66 18.891 42.5C19.179 42.548 19.499 42.588 19.851 42.62C20.203 42.644 20.503 42.656 20.751 42.656C20.967 42.656 21.099 42.644 21.147 42.62C21.155 42.612 21.163 42.592 21.171 42.56C21.187 42.52 21.195 42.48 21.195 42.44C21.195 42.28 21.095 42.172 20.895 42.116C20.831 42.1 20.587 42.032 20.163 41.912C19.739 41.792 19.391 41.576 19.119 41.264C18.855 40.944 18.723 40.548 18.723 40.076C18.723 39.828 18.779 39.552 18.891 39.248C19.003 38.944 19.123 38.752 19.251 38.672C19.347 38.608 19.579 38.544 19.947 38.48C20.315 38.408 20.655 38.372 20.967 38.372C21.631 38.372 22.299 38.42 22.971 38.516C22.971 38.66 22.951 38.904 22.911 39.248C22.871 39.584 22.835 39.796 22.803 39.884C22.123 39.796 21.575 39.752 21.159 39.752C20.943 39.752 20.803 39.764 20.739 39.788C20.723 39.796 20.707 39.82 20.691 39.86C20.675 39.892 20.667 39.936 20.667 39.992C20.667 40.104 20.703 40.184 20.775 40.232C20.847 40.288 21.035 40.356 21.339 40.436C21.699 40.54 22.007 40.648 22.263 40.76C22.527 40.872 22.755 41.04 22.947 41.264C23.147 41.488 23.247 41.776 23.247 42.128ZM27.2755 42.56C27.4755 42.56 27.8475 42.54 28.3915 42.5C28.4635 42.5 28.5955 42.492 28.7875 42.476L28.9675 43.712C28.3515 44 27.5515 44.144 26.5675 44.144C25.6475 44.144 24.9395 43.912 24.4435 43.448C23.9555 42.984 23.7115 42.284 23.7115 41.348C23.7115 40.868 23.7715 40.404 23.8915 39.956C24.0195 39.508 24.1635 39.196 24.3235 39.02C24.4915 38.844 24.8035 38.692 25.2595 38.564C25.7155 38.436 26.1675 38.372 26.6155 38.372C27.3355 38.372 27.8755 38.5 28.2355 38.756C28.5955 39.012 28.8315 39.368 28.9435 39.824C29.0555 40.272 29.1115 40.876 29.1115 41.636C28.5675 41.668 28.0355 41.684 27.5155 41.684H25.8115C25.8115 41.94 25.8635 42.132 25.9675 42.26C26.0795 42.388 26.2355 42.472 26.4355 42.512C26.6355 42.544 26.9155 42.56 27.2755 42.56ZM25.9315 39.8C25.8835 39.824 25.8475 39.928 25.8235 40.112C25.7995 40.296 25.7835 40.504 25.7755 40.736H26.3995C26.7755 40.736 27.0475 40.732 27.2155 40.724C27.2155 40.34 27.1595 40.068 27.0475 39.908C26.9435 39.748 26.7595 39.668 26.4955 39.668C26.2795 39.668 26.0915 39.712 25.9315 39.8ZM32.3778 41.732C32.3778 41.876 32.3818 42.028 32.3898 42.188C32.3978 42.34 32.4218 42.436 32.4618 42.476C32.5178 42.532 32.7138 42.56 33.0498 42.56L33.4578 42.548C33.5298 42.932 33.5658 43.376 33.5658 43.88C33.4138 43.936 33.1898 43.988 32.8938 44.036C32.6058 44.084 32.3298 44.108 32.0658 44.108C31.5138 44.108 31.0858 43.988 30.7818 43.748C30.4858 43.5 30.3378 43.12 30.3378 42.608V39.656H29.4378V38.564L30.3378 38.48L30.8778 37.16L32.3778 37.076V38.48H33.6498V39.656H32.3778V41.732Z" fill="#A8DADC"/>
<path d="M18.5 98.8478C18.5 98.8478 19.6928 96.4772 21 96.5207C22.3072 96.5643 23.5 98.8478 23.5 98.8478C23.5 98.8478 24.8484 101.423 26 101.423C27.1516 101.423 28.5 98.8478 28.5 98.8478" stroke="#A8DADC" stroke-width="1.2" stroke-linecap="round"/>
<path d="M62.5 102.42L60 97.52L57.5 102.42L55 97.52L52.5 102.42" stroke="#A8DADC" stroke-width="1.2" stroke-linecap="round" stroke-linejoin="round"/>
<path d="M97.5 102.42V97.52L92.5 102.42V97.52L87.5 102.42" stroke="#A8DADC" stroke-width="1.2" stroke-linecap="round" stroke-linejoin="round"/>
<path d="M131.3 102.42H128.5V97.52H124.5V102.42H121.7" stroke="#A8DADC" stroke-width="1.2" stroke-linecap="round" stroke-linejoin="round"/>
<line x1="10" y1="139.93" x2="140" y2="139.93" stroke="#1D3557"/>
<line x1="10" y1="251.93" x2="140" y2="251.93" stroke="#1D3557"/>
</svg>
