<svg width="150" height="380" viewBox="0 0 150 380" fill="none" xmlns="http://www.w3.org/2000/svg">
<rect width="150" height="380" fill="#457B9D"/>
<g opacity="0.3">
<path fill-rule="evenodd" clip-rule="evenodd" d="M68.958 375.599C68.803 375.747 68.659 375.851 68.526 375.909C68.393 375.968 68.251 375.998 68.1 375.998C67.948 375.998 67.806 375.97 67.673 375.914C67.54 375.858 67.424 375.781 67.325 375.682C67.109 375.466 67 375.209 67 374.912V369.385C67 369.082 67.078 368.847 67.232 368.68C67.498 368.408 67.75 368.272 67.988 368.272C68.226 368.272 68.404 368.296 68.522 368.346C68.639 368.395 68.738 368.457 68.818 368.531C68.924 368.624 69.002 368.723 69.055 368.828C69.108 368.933 69.151 369.011 69.185 369.06C69.219 369.11 69.275 369.134 69.352 369.134C69.429 369.134 69.496 369.11 69.551 369.06L69.709 368.902C70.16 368.482 70.612 368.272 71.063 368.272C71.861 368.272 72.519 368.599 73.039 369.255C73.088 369.323 73.15 369.357 73.224 369.357C73.354 369.357 73.486 369.256 73.619 369.055C73.752 368.854 73.966 368.674 74.263 368.513C74.56 368.352 74.906 368.272 75.302 368.272C75.698 368.272 76.058 368.344 76.383 368.49C76.707 368.635 76.99 368.834 77.231 369.088C77.738 369.62 77.992 370.263 77.992 371.017V374.912C77.992 375.382 77.769 375.713 77.324 375.905C77.188 375.967 77.044 375.998 76.893 375.998C76.741 375.998 76.599 375.97 76.466 375.914C76.333 375.858 76.217 375.781 76.118 375.682C75.908 375.46 75.803 375.203 75.803 374.912V371.045C75.803 370.736 75.726 370.504 75.571 370.349C75.299 370.077 75.049 369.941 74.82 369.941C74.591 369.941 74.412 369.971 74.282 370.029C74.152 370.088 74.034 370.17 73.929 370.275C73.713 370.492 73.605 370.742 73.605 371.026V374.912C73.605 375.382 73.385 375.713 72.946 375.905C72.81 375.967 72.666 375.998 72.515 375.998C72.363 375.998 72.22 375.97 72.083 375.914C71.947 375.858 71.83 375.781 71.731 375.682C71.515 375.466 71.406 375.209 71.406 374.912V371.045C71.406 370.736 71.329 370.504 71.174 370.349C70.902 370.077 70.618 369.941 70.321 369.941C69.826 369.941 69.483 370.133 69.292 370.516C69.23 370.64 69.199 370.779 69.199 370.934V374.912C69.199 375.215 69.118 375.444 68.958 375.599ZM80.219 369.387C80.219 369.084 80.296 368.849 80.451 368.682C80.716 368.41 81.01 368.274 81.332 368.274C81.641 368.274 81.87 368.355 82.018 368.515C82.29 368.794 82.426 369.084 82.426 369.387V374.915C82.426 375.212 82.349 375.437 82.194 375.592C81.922 375.864 81.672 376 81.443 376C81.214 376 81.032 375.971 80.896 375.912C80.76 375.853 80.642 375.777 80.543 375.685C80.327 375.474 80.219 375.218 80.219 374.915V369.387ZM81.327 365.9C81.065 365.9 80.852 365.687 80.852 365.425C80.852 365.162 81.065 364.95 81.327 364.95C81.589 364.95 81.802 365.162 81.802 365.425C81.802 365.687 81.589 365.9 81.327 365.9ZM81.327 364C81.714 364 82.048 364.142 82.329 364.425C82.611 364.709 82.752 364.996 82.752 365.287C82.752 365.577 82.713 365.807 82.635 365.978C82.558 366.148 82.456 366.297 82.329 366.424C82.048 366.708 81.714 366.849 81.327 366.849C80.94 366.849 80.606 366.708 80.324 366.424C80.043 366.141 79.902 365.857 79.902 365.574C79.902 365.092 80.043 364.709 80.324 364.425C80.606 364.142 80.94 364 81.327 364Z" fill="#1D3557"/>
</g>
<path d="M58.8521 21.8654H56.8721V16.9704H55.1011V15.5954H60.6231V16.9704H58.8521V21.8654ZM67.5154 21.8654H65.4364L65.0624 20.2814C65.0478 20.2227 65.0221 20.1237 64.9854 19.9844C64.9561 19.8377 64.9194 19.7314 64.8754 19.6654C64.8314 19.592 64.7691 19.5444 64.6884 19.5224C64.4831 19.5297 64.1824 19.5334 63.7864 19.5334V21.8654H61.8064V15.6504C62.6938 15.5844 63.5224 15.5514 64.2924 15.5514C64.9891 15.5514 65.5538 15.61 65.9864 15.7274C66.4191 15.8374 66.7418 16.0317 66.9544 16.3104C67.1744 16.5817 67.2844 16.9557 67.2844 17.4324C67.2844 17.8797 67.1818 18.2317 66.9764 18.4884C66.7711 18.7377 66.4411 18.888 65.9864 18.9394V19.0054C66.2431 19.0274 66.4558 19.1117 66.6244 19.2584C66.8004 19.3977 66.9178 19.5774 66.9764 19.7974L67.5154 21.8654ZM63.7864 18.2904C63.8524 18.2977 63.9808 18.3014 64.1714 18.3014C64.7361 18.3014 65.0661 18.2537 65.1614 18.1584C65.2494 18.0704 65.2934 17.865 65.2934 17.5424C65.2934 17.2417 65.2128 17.0364 65.0514 16.9264C64.8974 16.8164 64.6408 16.7614 64.2814 16.7614C64.2008 16.7614 64.0358 16.7687 63.7864 16.7834V18.2904ZM68.7483 15.5954H70.7283V21.8654H68.7483V15.5954ZM72.2158 18.2464H75.5158V19.8194H72.2158V18.2464ZM76.9696 15.5954H78.9496V20.4134H81.5126V21.8654H76.9696V15.5954ZM82.751 15.5954H87.25V16.9594H84.731V18.2024H86.81V19.4014H84.731V21.8654H82.751V15.5954ZM91.5266 22.0084C90.4339 22.0084 89.6126 21.7517 89.0626 21.2384C88.5199 20.7177 88.2486 19.8854 88.2486 18.7414C88.2486 17.6194 88.5492 16.8017 89.1506 16.2884C89.7519 15.775 90.5476 15.5184 91.5376 15.5184C93.6202 15.5184 94.6616 16.556 94.6616 18.6314C94.6616 19.68 94.4049 20.505 93.8916 21.1064C93.3856 21.7077 92.5972 22.0084 91.5266 22.0084ZM91.4826 20.7104C91.6879 20.7104 91.8602 20.6774 91.9996 20.6114C92.1389 20.538 92.2489 20.4134 92.3296 20.2374C92.4836 19.9367 92.5606 19.4454 92.5606 18.7634C92.5606 18.096 92.4836 17.612 92.3296 17.3114C92.1756 17.0034 91.8932 16.842 91.4826 16.8274C91.3286 16.8274 91.1672 16.8457 90.9986 16.8824C90.8372 16.9117 90.7346 16.9557 90.6906 17.0144C90.6026 17.117 90.5329 17.337 90.4816 17.6744C90.4376 18.0044 90.4156 18.3674 90.4156 18.7634C90.4156 19.3794 90.4742 19.8304 90.5916 20.1164C90.6722 20.329 90.7859 20.483 90.9326 20.5784C91.0792 20.6664 91.2626 20.7104 91.4826 20.7104Z" fill="white"/>
<path d="M50.3242 268V265.974H52.5215V264.997H50.3242V263.674H52.7412V262.668H49.0156V268H50.3242ZM56.8301 262.668H54.4766V268H55.7607V266.081H56.5859L57.5479 268H58.998L57.875 265.905C58.3633 265.725 58.8906 265.188 58.8906 264.406C58.8906 263.337 58.1289 262.668 56.8301 262.668ZM55.7607 265.183V263.62H56.6396C57.167 263.62 57.5381 263.898 57.5381 264.416C57.5381 264.929 57.1768 265.183 56.625 265.183H55.7607ZM64.498 267.004H62.042V265.778H64.3467V264.851H62.042V263.664H64.498V262.668H60.748V268H64.498V267.004ZM71.1113 268.493L70.418 267.526C70.9258 267.087 71.2041 266.433 71.2041 265.632V265.051C71.2041 263.562 70.2568 262.57 68.709 262.57C67.1709 262.57 66.2188 263.557 66.2188 265.051V265.632C66.2188 267.116 67.1709 268.098 68.709 268.098C68.9922 268.098 69.2607 268.059 69.4951 267.99L69.8564 268.493H71.1113ZM67.5029 265.036C67.5029 264.128 67.9717 263.586 68.709 263.586C69.4463 263.586 69.915 264.128 69.915 265.036V265.803C69.915 266.159 69.832 266.447 69.6758 266.647L69.4463 266.354H68.3721L68.8945 267.087C68.8018 267.121 68.6943 267.136 68.582 267.136C67.918 267.077 67.5029 266.54 67.5029 265.656V265.036Z" fill="white"/>
<path d="M93.9395 267.048C93.3291 267.048 92.9043 266.687 92.9043 265.998V262.668H91.5908V266.145C91.5908 267.336 92.4941 268.098 93.9395 268.098C95.3848 268.098 96.2881 267.331 96.2881 266.145V262.668H94.9795V265.998C94.9795 266.682 94.5498 267.048 93.9395 267.048ZM99.5322 268V264.753H99.5811L101.896 268H102.936V262.668H101.71V265.886H101.661L99.3564 262.668H98.3115V268H99.5322ZM106.341 268V262.668H105.032V268H106.341Z" fill="white"/>
<path d="M126.29 265.461C126.29 267.019 127.076 268.098 128.492 268.098C129.972 268.098 130.719 266.926 130.719 265.461V265.202C130.719 263.635 129.938 262.57 128.517 262.57C127.11 262.57 126.29 263.645 126.29 265.202V265.461ZM127.599 265.207C127.599 264.118 127.965 263.576 128.502 263.576C129.044 263.576 129.41 264.123 129.41 265.207V265.456C129.41 266.54 129.044 267.092 128.502 267.092C127.965 267.092 127.599 266.545 127.599 265.456V265.207ZM133.577 264.099C134.393 264.099 135.022 263.479 135.022 262.673C135.022 261.867 134.397 261.252 133.577 261.252C132.757 261.252 132.132 261.867 132.132 262.673C132.132 263.479 132.762 264.099 133.577 264.099ZM133.577 263.352C133.226 263.352 132.928 263.039 132.928 262.673C132.928 262.307 133.221 261.999 133.577 261.999C133.938 261.999 134.227 262.297 134.227 262.673C134.227 263.049 133.934 263.352 133.577 263.352Z" fill="white"/>
<path d="M122.883 307V301.668H121.589L120.256 302.557V303.67L121.525 302.825H121.589V307H122.883ZM127.377 307.098C128.778 307.098 129.657 306.448 129.657 305.525C129.657 304.681 128.988 304.305 128.456 304.212V304.163C128.974 304.012 129.438 303.66 129.438 302.977C129.438 302.171 128.642 301.57 127.387 301.57C126.127 301.57 125.331 302.171 125.331 302.977C125.331 303.655 125.785 304.012 126.312 304.163V304.212C125.78 304.305 125.106 304.676 125.106 305.53C125.106 306.453 125.976 307.098 127.377 307.098ZM127.387 303.826C126.923 303.826 126.581 303.538 126.581 303.128C126.581 302.723 126.923 302.444 127.387 302.444C127.846 302.444 128.188 302.723 128.188 303.128C128.188 303.538 127.846 303.826 127.387 303.826ZM127.387 306.233C126.835 306.233 126.41 305.911 126.41 305.433C126.41 304.954 126.835 304.627 127.387 304.627C127.934 304.627 128.358 304.954 128.358 305.433C128.358 305.911 127.934 306.233 127.387 306.233ZM131.354 304.461C131.354 306.019 132.14 307.098 133.556 307.098C135.035 307.098 135.782 305.926 135.782 304.461V304.202C135.782 302.635 135.001 301.57 133.58 301.57C132.174 301.57 131.354 302.645 131.354 304.202V304.461ZM132.662 304.207C132.662 303.118 133.028 302.576 133.565 302.576C134.107 302.576 134.474 303.123 134.474 304.207V304.456C134.474 305.54 134.107 306.092 133.565 306.092C133.028 306.092 132.662 305.545 132.662 304.456V304.207ZM138.641 303.099C139.456 303.099 140.086 302.479 140.086 301.673C140.086 300.867 139.461 300.252 138.641 300.252C137.82 300.252 137.195 300.867 137.195 301.673C137.195 302.479 137.825 303.099 138.641 303.099ZM138.641 302.352C138.289 302.352 137.991 302.039 137.991 301.673C137.991 301.307 138.284 300.999 138.641 300.999C139.002 300.999 139.29 301.297 139.29 301.673C139.29 302.049 138.997 302.352 138.641 302.352Z" fill="white"/>
<path d="M94.2246 307H96.7197C97.8477 307 98.6826 306.443 98.6826 305.486C98.6826 304.666 98.0625 304.246 97.4082 304.197V304.144C97.9746 304.036 98.4092 303.641 98.4092 302.981C98.4092 302.166 97.7256 301.668 96.6904 301.668H94.2246V307ZM95.5186 302.571H96.3633C96.8613 302.571 97.1299 302.815 97.1299 303.191C97.1299 303.582 96.8564 303.836 96.1924 303.836H95.5186V302.571ZM95.5186 304.666H96.4316C97.0469 304.666 97.3545 304.949 97.3545 305.389C97.3545 305.823 97.0664 306.102 96.2754 306.102H95.5186V304.666ZM101.775 307V301.668H100.467V307H101.775Z" fill="white"/>
<path d="M10.1143 262.668H7.76074V268H9.04492V266.081H9.87012L10.832 268H12.2822L11.1592 265.905C11.6475 265.725 12.1748 265.188 12.1748 264.406C12.1748 263.337 11.4131 262.668 10.1143 262.668ZM9.04492 265.183V263.62H9.92383C10.4512 263.62 10.8223 263.898 10.8223 264.416C10.8223 264.929 10.4609 265.183 9.90918 265.183H9.04492ZM17.7822 267.004H15.3262V265.778H17.6309V264.851H15.3262V263.664H17.7822V262.668H14.0322V268H17.7822V267.004ZM19.3955 266.447C19.4102 267.346 20.1279 268.098 21.6562 268.098C23.1602 268.098 23.9561 267.385 23.9561 266.384C23.9561 265.446 23.3359 265.036 22.4375 264.86L21.6514 264.709C21.0996 264.597 20.8262 264.436 20.8262 264.123C20.8262 263.781 21.1338 263.522 21.6953 263.522C22.2812 263.522 22.623 263.815 22.6523 264.187H23.8584C23.8486 263.337 23.1162 262.565 21.7002 262.565C20.3916 262.565 19.5176 263.22 19.5176 264.221C19.5176 265.09 20.0742 265.544 21.0703 265.744L21.8174 265.896C22.3838 266.013 22.6621 266.179 22.6621 266.511C22.6621 266.872 22.3496 267.131 21.71 267.131C21.0752 267.131 20.6748 266.833 20.6455 266.447H19.3955ZM29.5244 267.004H27.0684V265.778H29.373V264.851H27.0684V263.664H29.5244V262.668H25.7744V268H29.5244V267.004ZM33.8086 268V263.688H35.3564V262.668H30.9521V263.688H32.5V268H33.8086Z" fill="white"/>
<path d="M18.5 323.848C18.5 323.848 19.6928 321.477 21 321.521C22.3072 321.564 23.5 323.848 23.5 323.848C23.5 323.848 24.8484 326.423 26 326.423C27.1516 326.423 28.5 323.848 28.5 323.848" stroke="white" stroke-width="1.2" stroke-linecap="round"/>
<path d="M62.5 327.42L60 322.52L57.5 327.42L55 322.52L52.5 327.42" stroke="white" stroke-width="1.2" stroke-linecap="round" stroke-linejoin="round"/>
<path d="M97.5 327.42V322.52L92.5 327.42V322.52L87.5 327.42" stroke="white" stroke-width="1.2" stroke-linecap="round" stroke-linejoin="round"/>
<path d="M131.3 327.42H128.5V322.52H124.5V327.42H121.7" stroke="white" stroke-width="1.2" stroke-linecap="round" stroke-linejoin="round"/>
<path d="M50.3242 155V152.974H52.5215V151.997H50.3242V150.674H52.7412V149.668H49.0156V155H50.3242ZM56.8301 149.668H54.4766V155H55.7607V153.081H56.5859L57.5479 155H58.998L57.875 152.905C58.3633 152.725 58.8906 152.188 58.8906 151.406C58.8906 150.337 58.1289 149.668 56.8301 149.668ZM55.7607 152.183V150.62H56.6396C57.167 150.62 57.5381 150.898 57.5381 151.416C57.5381 151.929 57.1768 152.183 56.625 152.183H55.7607ZM64.498 154.004H62.042V152.778H64.3467V151.851H62.042V150.664H64.498V149.668H60.748V155H64.498V154.004ZM71.1113 155.493L70.418 154.526C70.9258 154.087 71.2041 153.433 71.2041 152.632V152.051C71.2041 150.562 70.2568 149.57 68.709 149.57C67.1709 149.57 66.2188 150.557 66.2188 152.051V152.632C66.2188 154.116 67.1709 155.098 68.709 155.098C68.9922 155.098 69.2607 155.059 69.4951 154.99L69.8564 155.493H71.1113ZM67.5029 152.036C67.5029 151.128 67.9717 150.586 68.709 150.586C69.4463 150.586 69.915 151.128 69.915 152.036V152.803C69.915 153.159 69.832 153.447 69.6758 153.647L69.4463 153.354H68.3721L68.8945 154.087C68.8018 154.121 68.6943 154.136 68.582 154.136C67.918 154.077 67.5029 153.54 67.5029 152.656V152.036Z" fill="white"/>
<path d="M93.9395 154.048C93.3291 154.048 92.9043 153.687 92.9043 152.998V149.668H91.5908V153.145C91.5908 154.336 92.4941 155.098 93.9395 155.098C95.3848 155.098 96.2881 154.331 96.2881 153.145V149.668H94.9795V152.998C94.9795 153.682 94.5498 154.048 93.9395 154.048ZM99.5322 155V151.753H99.5811L101.896 155H102.936V149.668H101.71V152.886H101.661L99.3564 149.668H98.3115V155H99.5322ZM106.341 155V149.668H105.032V155H106.341Z" fill="white"/>
<path d="M126.29 152.461C126.29 154.019 127.076 155.098 128.492 155.098C129.972 155.098 130.719 153.926 130.719 152.461V152.202C130.719 150.635 129.938 149.57 128.517 149.57C127.11 149.57 126.29 150.645 126.29 152.202V152.461ZM127.599 152.207C127.599 151.118 127.965 150.576 128.502 150.576C129.044 150.576 129.41 151.123 129.41 152.207V152.456C129.41 153.54 129.044 154.092 128.502 154.092C127.965 154.092 127.599 153.545 127.599 152.456V152.207ZM133.577 151.099C134.393 151.099 135.022 150.479 135.022 149.673C135.022 148.867 134.397 148.252 133.577 148.252C132.757 148.252 132.132 148.867 132.132 149.673C132.132 150.479 132.762 151.099 133.577 151.099ZM133.577 150.352C133.226 150.352 132.928 150.039 132.928 149.673C132.928 149.307 133.221 148.999 133.577 148.999C133.938 148.999 134.227 149.297 134.227 149.673C134.227 150.049 133.934 150.352 133.577 150.352Z" fill="white"/>
<path d="M122.883 194V188.668H121.589L120.256 189.557V190.67L121.525 189.825H121.589V194H122.883ZM127.377 194.098C128.778 194.098 129.657 193.448 129.657 192.525C129.657 191.681 128.988 191.305 128.456 191.212V191.163C128.974 191.012 129.438 190.66 129.438 189.977C129.438 189.171 128.642 188.57 127.387 188.57C126.127 188.57 125.331 189.171 125.331 189.977C125.331 190.655 125.785 191.012 126.312 191.163V191.212C125.78 191.305 125.106 191.676 125.106 192.53C125.106 193.453 125.976 194.098 127.377 194.098ZM127.387 190.826C126.923 190.826 126.581 190.538 126.581 190.128C126.581 189.723 126.923 189.444 127.387 189.444C127.846 189.444 128.188 189.723 128.188 190.128C128.188 190.538 127.846 190.826 127.387 190.826ZM127.387 193.233C126.835 193.233 126.41 192.911 126.41 192.433C126.41 191.954 126.835 191.627 127.387 191.627C127.934 191.627 128.358 191.954 128.358 192.433C128.358 192.911 127.934 193.233 127.387 193.233ZM131.354 191.461C131.354 193.019 132.14 194.098 133.556 194.098C135.035 194.098 135.782 192.926 135.782 191.461V191.202C135.782 189.635 135.001 188.57 133.58 188.57C132.174 188.57 131.354 189.645 131.354 191.202V191.461ZM132.662 191.207C132.662 190.118 133.028 189.576 133.565 189.576C134.107 189.576 134.474 190.123 134.474 191.207V191.456C134.474 192.54 134.107 193.092 133.565 193.092C133.028 193.092 132.662 192.545 132.662 191.456V191.207ZM138.641 190.099C139.456 190.099 140.086 189.479 140.086 188.673C140.086 187.867 139.461 187.252 138.641 187.252C137.82 187.252 137.195 187.867 137.195 188.673C137.195 189.479 137.825 190.099 138.641 190.099ZM138.641 189.352C138.289 189.352 137.991 189.039 137.991 188.673C137.991 188.307 138.284 187.999 138.641 187.999C139.002 187.999 139.29 188.297 139.29 188.673C139.29 189.049 138.997 189.352 138.641 189.352Z" fill="white"/>
<path d="M94.2246 194H96.7197C97.8477 194 98.6826 193.443 98.6826 192.486C98.6826 191.666 98.0625 191.246 97.4082 191.197V191.144C97.9746 191.036 98.4092 190.641 98.4092 189.981C98.4092 189.166 97.7256 188.668 96.6904 188.668H94.2246V194ZM95.5186 189.571H96.3633C96.8613 189.571 97.1299 189.815 97.1299 190.191C97.1299 190.582 96.8564 190.836 96.1924 190.836H95.5186V189.571ZM95.5186 191.666H96.4316C97.0469 191.666 97.3545 191.949 97.3545 192.389C97.3545 192.823 97.0664 193.102 96.2754 193.102H95.5186V191.666ZM101.775 194V188.668H100.467V194H101.775Z" fill="white"/>
<path d="M10.1143 149.668H7.76074V155H9.04492V153.081H9.87012L10.832 155H12.2822L11.1592 152.905C11.6475 152.725 12.1748 152.188 12.1748 151.406C12.1748 150.337 11.4131 149.668 10.1143 149.668ZM9.04492 152.183V150.62H9.92383C10.4512 150.62 10.8223 150.898 10.8223 151.416C10.8223 151.929 10.4609 152.183 9.90918 152.183H9.04492ZM17.7822 154.004H15.3262V152.778H17.6309V151.851H15.3262V150.664H17.7822V149.668H14.0322V155H17.7822V154.004ZM19.3955 153.447C19.4102 154.346 20.1279 155.098 21.6562 155.098C23.1602 155.098 23.9561 154.385 23.9561 153.384C23.9561 152.446 23.3359 152.036 22.4375 151.86L21.6514 151.709C21.0996 151.597 20.8262 151.436 20.8262 151.123C20.8262 150.781 21.1338 150.522 21.6953 150.522C22.2812 150.522 22.623 150.815 22.6523 151.187H23.8584C23.8486 150.337 23.1162 149.565 21.7002 149.565C20.3916 149.565 19.5176 150.22 19.5176 151.221C19.5176 152.09 20.0742 152.544 21.0703 152.744L21.8174 152.896C22.3838 153.013 22.6621 153.179 22.6621 153.511C22.6621 153.872 22.3496 154.131 21.71 154.131C21.0752 154.131 20.6748 153.833 20.6455 153.447H19.3955ZM29.5244 154.004H27.0684V152.778H29.373V151.851H27.0684V150.664H29.5244V149.668H25.7744V155H29.5244V154.004ZM33.8086 155V150.688H35.3564V149.668H30.9521V150.688H32.5V155H33.8086Z" fill="white"/>
<path d="M18.5 210.848C18.5 210.848 19.6928 208.477 21 208.521C22.3072 208.564 23.5 210.848 23.5 210.848C23.5 210.848 24.8484 213.423 26 213.423C27.1516 213.423 28.5 210.848 28.5 210.848" stroke="white" stroke-width="1.2" stroke-linecap="round"/>
<path d="M62.5 214.42L60 209.52L57.5 214.42L55 209.52L52.5 214.42" stroke="white" stroke-width="1.2" stroke-linecap="round" stroke-linejoin="round"/>
<path d="M97.5 214.42V209.52L92.5 214.42V209.52L87.5 214.42" stroke="white" stroke-width="1.2" stroke-linecap="round" stroke-linejoin="round"/>
<path d="M131.3 214.42H128.5V209.52H124.5V214.42H121.7" stroke="white" stroke-width="1.2" stroke-linecap="round" stroke-linejoin="round"/>
<path d="M50.3242 43V40.9736H52.5215V39.9971H50.3242V38.6738H52.7412V37.668H49.0156V43H50.3242ZM56.8301 37.668H54.4766V43H55.7607V41.0811H56.5859L57.5479 43H58.998L57.875 40.9053C58.3633 40.7246 58.8906 40.1875 58.8906 39.4062C58.8906 38.3369 58.1289 37.668 56.8301 37.668ZM55.7607 40.1826V38.6201H56.6396C57.167 38.6201 57.5381 38.8984 57.5381 39.416C57.5381 39.9287 57.1768 40.1826 56.625 40.1826H55.7607ZM64.498 42.0039H62.042V40.7783H64.3467V39.8506H62.042V38.6641H64.498V37.668H60.748V43H64.498V42.0039ZM71.1113 43.4932L70.418 42.5264C70.9258 42.0869 71.2041 41.4326 71.2041 40.6318V40.0508C71.2041 38.5615 70.2568 37.5703 68.709 37.5703C67.1709 37.5703 66.2188 38.5566 66.2188 40.0508V40.6318C66.2188 42.1162 67.1709 43.0977 68.709 43.0977C68.9922 43.0977 69.2607 43.0586 69.4951 42.9902L69.8564 43.4932H71.1113ZM67.5029 40.0361C67.5029 39.1279 67.9717 38.5859 68.709 38.5859C69.4463 38.5859 69.915 39.1279 69.915 40.0361V40.8027C69.915 41.1592 69.832 41.4473 69.6758 41.6475L69.4463 41.3545H68.3721L68.8945 42.0869C68.8018 42.1211 68.6943 42.1357 68.582 42.1357C67.918 42.0771 67.5029 41.54 67.5029 40.6562V40.0361Z" fill="white"/>
<path d="M93.9395 42.0479C93.3291 42.0479 92.9043 41.6865 92.9043 40.998V37.668H91.5908V41.1445C91.5908 42.3359 92.4941 43.0977 93.9395 43.0977C95.3848 43.0977 96.2881 42.3311 96.2881 41.1445V37.668H94.9795V40.998C94.9795 41.6816 94.5498 42.0479 93.9395 42.0479ZM99.5322 43V39.7529H99.5811L101.896 43H102.936V37.668H101.71V40.8857H101.661L99.3564 37.668H98.3115V43H99.5322ZM106.341 43V37.668H105.032V43H106.341Z" fill="white"/>
<path d="M126.29 40.4609C126.29 42.0186 127.076 43.0977 128.492 43.0977C129.972 43.0977 130.719 41.9258 130.719 40.4609V40.2021C130.719 38.6348 129.938 37.5703 128.517 37.5703C127.11 37.5703 126.29 38.6445 126.29 40.2021V40.4609ZM127.599 40.207C127.599 39.1182 127.965 38.5762 128.502 38.5762C129.044 38.5762 129.41 39.123 129.41 40.207V40.4561C129.41 41.54 129.044 42.0918 128.502 42.0918C127.965 42.0918 127.599 41.5449 127.599 40.4561V40.207ZM133.577 39.0986C134.393 39.0986 135.022 38.4785 135.022 37.6729C135.022 36.8672 134.397 36.252 133.577 36.252C132.757 36.252 132.132 36.8672 132.132 37.6729C132.132 38.4785 132.762 39.0986 133.577 39.0986ZM133.577 38.3516C133.226 38.3516 132.928 38.0391 132.928 37.6729C132.928 37.3066 133.221 36.999 133.577 36.999C133.938 36.999 134.227 37.2969 134.227 37.6729C134.227 38.0488 133.934 38.3516 133.577 38.3516Z" fill="white"/>
<path d="M122.883 82V76.668H121.589L120.256 77.5566V78.6699L121.525 77.8252H121.589V82H122.883ZM127.377 82.0977C128.778 82.0977 129.657 81.4482 129.657 80.5254C129.657 79.6807 128.988 79.3047 128.456 79.2119V79.1631C128.974 79.0117 129.438 78.6602 129.438 77.9766C129.438 77.1709 128.642 76.5703 127.387 76.5703C126.127 76.5703 125.331 77.1709 125.331 77.9766C125.331 78.6553 125.785 79.0117 126.312 79.1631V79.2119C125.78 79.3047 125.106 79.6758 125.106 80.5303C125.106 81.4531 125.976 82.0977 127.377 82.0977ZM127.387 78.8262C126.923 78.8262 126.581 78.5381 126.581 78.1279C126.581 77.7227 126.923 77.4443 127.387 77.4443C127.846 77.4443 128.188 77.7227 128.188 78.1279C128.188 78.5381 127.846 78.8262 127.387 78.8262ZM127.387 81.2334C126.835 81.2334 126.41 80.9111 126.41 80.4326C126.41 79.9541 126.835 79.627 127.387 79.627C127.934 79.627 128.358 79.9541 128.358 80.4326C128.358 80.9111 127.934 81.2334 127.387 81.2334ZM131.354 79.4609C131.354 81.0186 132.14 82.0977 133.556 82.0977C135.035 82.0977 135.782 80.9258 135.782 79.4609V79.2021C135.782 77.6348 135.001 76.5703 133.58 76.5703C132.174 76.5703 131.354 77.6445 131.354 79.2021V79.4609ZM132.662 79.207C132.662 78.1182 133.028 77.5762 133.565 77.5762C134.107 77.5762 134.474 78.123 134.474 79.207V79.4561C134.474 80.54 134.107 81.0918 133.565 81.0918C133.028 81.0918 132.662 80.5449 132.662 79.4561V79.207ZM138.641 78.0986C139.456 78.0986 140.086 77.4785 140.086 76.6729C140.086 75.8672 139.461 75.252 138.641 75.252C137.82 75.252 137.195 75.8672 137.195 76.6729C137.195 77.4785 137.825 78.0986 138.641 78.0986ZM138.641 77.3516C138.289 77.3516 137.991 77.0391 137.991 76.6729C137.991 76.3066 138.284 75.999 138.641 75.999C139.002 75.999 139.29 76.2969 139.29 76.6729C139.29 77.0488 138.997 77.3516 138.641 77.3516Z" fill="white"/>
<path d="M94.2246 82H96.7197C97.8477 82 98.6826 81.4434 98.6826 80.4863C98.6826 79.666 98.0625 79.2461 97.4082 79.1973V79.1436C97.9746 79.0361 98.4092 78.6406 98.4092 77.9814C98.4092 77.166 97.7256 76.668 96.6904 76.668H94.2246V82ZM95.5186 77.5713H96.3633C96.8613 77.5713 97.1299 77.8154 97.1299 78.1914C97.1299 78.582 96.8564 78.8359 96.1924 78.8359H95.5186V77.5713ZM95.5186 79.666H96.4316C97.0469 79.666 97.3545 79.9492 97.3545 80.3887C97.3545 80.8232 97.0664 81.1016 96.2754 81.1016H95.5186V79.666ZM101.775 82V76.668H100.467V82H101.775Z" fill="white"/>
<path d="M10.1143 37.668H7.76074V43H9.04492V41.0811H9.87012L10.832 43H12.2822L11.1592 40.9053C11.6475 40.7246 12.1748 40.1875 12.1748 39.4062C12.1748 38.3369 11.4131 37.668 10.1143 37.668ZM9.04492 40.1826V38.6201H9.92383C10.4512 38.6201 10.8223 38.8984 10.8223 39.416C10.8223 39.9287 10.4609 40.1826 9.90918 40.1826H9.04492ZM17.7822 42.0039H15.3262V40.7783H17.6309V39.8506H15.3262V38.6641H17.7822V37.668H14.0322V43H17.7822V42.0039ZM19.3955 41.4473C19.4102 42.3457 20.1279 43.0977 21.6562 43.0977C23.1602 43.0977 23.9561 42.3848 23.9561 41.3838C23.9561 40.4463 23.3359 40.0361 22.4375 39.8604L21.6514 39.709C21.0996 39.5967 20.8262 39.4355 20.8262 39.123C20.8262 38.7812 21.1338 38.5225 21.6953 38.5225C22.2812 38.5225 22.623 38.8154 22.6523 39.1865H23.8584C23.8486 38.3369 23.1162 37.5654 21.7002 37.5654C20.3916 37.5654 19.5176 38.2197 19.5176 39.2207C19.5176 40.0898 20.0742 40.5439 21.0703 40.7441L21.8174 40.8955C22.3838 41.0127 22.6621 41.1787 22.6621 41.5107C22.6621 41.8721 22.3496 42.1309 21.71 42.1309C21.0752 42.1309 20.6748 41.833 20.6455 41.4473H19.3955ZM29.5244 42.0039H27.0684V40.7783H29.373V39.8506H27.0684V38.6641H29.5244V37.668H25.7744V43H29.5244V42.0039ZM33.8086 43V38.6885H35.3564V37.668H30.9521V38.6885H32.5V43H33.8086Z" fill="white"/>
<path d="M18.5 98.8478C18.5 98.8478 19.6928 96.4772 21 96.5207C22.3072 96.5643 23.5 98.8478 23.5 98.8478C23.5 98.8478 24.8484 101.423 26 101.423C27.1516 101.423 28.5 98.8478 28.5 98.8478" stroke="white" stroke-width="1.2" stroke-linecap="round"/>
<path d="M62.5 102.42L60 97.52L57.5 102.42L55 97.52L52.5 102.42" stroke="white" stroke-width="1.2" stroke-linecap="round" stroke-linejoin="round"/>
<path d="M97.5 102.42V97.52L92.5 102.42V97.52L87.5 102.42" stroke="white" stroke-width="1.2" stroke-linecap="round" stroke-linejoin="round"/>
<path d="M131.3 102.42H128.5V97.52H124.5V102.42H121.7" stroke="white" stroke-width="1.2" stroke-linecap="round" stroke-linejoin="round"/>
<line opacity="0.5" y1="140" x2="150" y2="140" stroke="#1D3557"/>
<line opacity="0.5" y1="253" x2="150" y2="253" stroke="#1D3557"/>
</svg>
