<svg width="75" height="380" viewBox="0 0 75 380" fill="none" xmlns="http://www.w3.org/2000/svg">
<rect width="75" height="380" fill="#457B9D"/>
<g opacity="0.5">
<path fill-rule="evenodd" clip-rule="evenodd" d="M31.958 375.599C31.803 375.747 31.659 375.851 31.526 375.909C31.393 375.968 31.251 375.998 31.1 375.998C30.948 375.998 30.806 375.97 30.673 375.914C30.54 375.858 30.424 375.781 30.325 375.682C30.109 375.466 30 375.209 30 374.912V369.385C30 369.082 30.078 368.847 30.232 368.68C30.498 368.408 30.75 368.272 30.988 368.272C31.226 368.272 31.404 368.296 31.522 368.346C31.639 368.395 31.738 368.457 31.818 368.531C31.924 368.624 32.002 368.723 32.055 368.828C32.108 368.933 32.151 369.011 32.185 369.06C32.219 369.11 32.275 369.134 32.352 369.134C32.429 369.134 32.496 369.11 32.551 369.06L32.709 368.902C33.16 368.482 33.612 368.272 34.063 368.272C34.861 368.272 35.519 368.599 36.039 369.255C36.088 369.323 36.15 369.357 36.224 369.357C36.354 369.357 36.486 369.256 36.619 369.055C36.752 368.854 36.966 368.674 37.263 368.513C37.56 368.352 37.906 368.272 38.302 368.272C38.698 368.272 39.058 368.344 39.383 368.49C39.707 368.635 39.99 368.834 40.231 369.088C40.738 369.62 40.992 370.263 40.992 371.017V374.912C40.992 375.382 40.769 375.713 40.324 375.905C40.188 375.967 40.044 375.998 39.893 375.998C39.741 375.998 39.599 375.97 39.466 375.914C39.333 375.858 39.217 375.781 39.118 375.682C38.908 375.46 38.803 375.203 38.803 374.912V371.045C38.803 370.736 38.726 370.504 38.571 370.349C38.299 370.077 38.049 369.941 37.82 369.941C37.591 369.941 37.412 369.971 37.282 370.029C37.152 370.088 37.034 370.17 36.929 370.275C36.713 370.492 36.605 370.742 36.605 371.026V374.912C36.605 375.382 36.385 375.713 35.946 375.905C35.81 375.967 35.666 375.998 35.515 375.998C35.363 375.998 35.22 375.97 35.083 375.914C34.947 375.858 34.83 375.781 34.731 375.682C34.515 375.466 34.406 375.209 34.406 374.912V371.045C34.406 370.736 34.329 370.504 34.174 370.349C33.902 370.077 33.618 369.941 33.321 369.941C32.826 369.941 32.483 370.133 32.292 370.516C32.23 370.64 32.199 370.779 32.199 370.934V374.912C32.199 375.215 32.118 375.444 31.958 375.599ZM43.219 369.387C43.219 369.084 43.296 368.849 43.451 368.682C43.716 368.41 44.01 368.274 44.332 368.274C44.641 368.274 44.87 368.355 45.018 368.515C45.29 368.794 45.426 369.084 45.426 369.387V374.915C45.426 375.212 45.349 375.437 45.194 375.592C44.922 375.864 44.672 376 44.443 376C44.214 376 44.032 375.971 43.896 375.912C43.76 375.853 43.642 375.777 43.543 375.685C43.327 375.474 43.219 375.218 43.219 374.915V369.387ZM44.327 365.9C44.065 365.9 43.852 365.687 43.852 365.425C43.852 365.162 44.065 364.95 44.327 364.95C44.589 364.95 44.802 365.162 44.802 365.425C44.802 365.687 44.589 365.9 44.327 365.9ZM44.327 364C44.714 364 45.048 364.142 45.329 364.425C45.611 364.709 45.752 364.996 45.752 365.287C45.752 365.577 45.713 365.807 45.635 365.978C45.558 366.148 45.456 366.297 45.329 366.424C45.048 366.708 44.714 366.849 44.327 366.849C43.94 366.849 43.606 366.708 43.324 366.424C43.043 366.141 42.902 365.857 42.902 365.574C42.902 365.092 43.043 364.709 43.324 364.425C43.606 364.142 43.94 364 44.327 364Z" fill="#1D3557"/>
</g>
<path d="M15.6205 21.3654H13.6285L13.2685 22.8654H11.0605L13.2685 16.0254H16.0885L18.2005 22.8654H15.9805L15.6205 21.3654ZM14.6125 17.5014L13.9045 20.0334H15.3325L14.6605 17.5014H14.6125ZM21.8462 22.8654H19.6862V17.5254H17.7542V16.0254H23.7782V17.5254H21.8462V22.8654ZM26.356 20.1054V22.8654H24.352V16.0254H26.38L28.192 18.7854C28.464 19.1934 28.672 19.5374 28.816 19.8174H28.852V18.6654V16.0254H30.844V22.8654H28.804L26.944 19.9854L26.404 19.1694H26.368L26.356 20.1054ZM38.4237 16.0254V19.8534C38.4237 20.6454 38.3357 21.2654 38.1597 21.7134C37.9917 22.1534 37.6717 22.4774 37.1997 22.6854C36.7277 22.8934 36.0397 22.9974 35.1357 22.9974C34.4717 22.9974 33.9117 22.9294 33.4557 22.7934C32.9997 22.6494 32.6357 22.3814 32.3637 21.9894C32.0997 21.5974 31.9677 21.0454 31.9677 20.3334V16.0254H34.1277V19.8774C34.1277 20.3014 34.1477 20.6254 34.1877 20.8494C34.2357 21.0654 34.3397 21.2334 34.4997 21.3534C34.6597 21.4654 34.9037 21.5214 35.2317 21.5214C35.4317 21.5214 35.6197 21.5014 35.7957 21.4614C35.9717 21.4214 36.0917 21.3614 36.1557 21.2814C36.2277 21.1854 36.2637 20.8374 36.2637 20.2374V16.0254H38.4237ZM43.5229 16.0254H45.8029L43.9549 22.8654H40.8229L38.9629 16.0254H41.2549L42.3589 21.3774H42.4189L43.5229 16.0254ZM52.6346 22.8654H50.3666L49.9586 21.1374C49.9426 21.0734 49.9146 20.9654 49.8746 20.8134C49.8426 20.6534 49.8026 20.5374 49.7546 20.4654C49.7066 20.3854 49.6386 20.3334 49.5506 20.3094C49.3266 20.3174 48.9986 20.3214 48.5666 20.3214V22.8654H46.4066V16.0854C47.3746 16.0134 48.2786 15.9774 49.1186 15.9774C49.8786 15.9774 50.4946 16.0414 50.9666 16.1694C51.4386 16.2894 51.7906 16.5014 52.0226 16.8054C52.2626 17.1014 52.3826 17.5094 52.3826 18.0294C52.3826 18.5174 52.2706 18.9014 52.0466 19.1814C51.8226 19.4534 51.4626 19.6174 50.9666 19.6734V19.7454C51.2466 19.7694 51.4786 19.8614 51.6626 20.0214C51.8546 20.1734 51.9826 20.3694 52.0466 20.6094L52.6346 22.8654ZM48.5666 18.9654C48.6386 18.9734 48.7786 18.9774 48.9866 18.9774C49.6026 18.9774 49.9626 18.9254 50.0666 18.8214C50.1626 18.7254 50.2106 18.5014 50.2106 18.1494C50.2106 17.8214 50.1226 17.5974 49.9466 17.4774C49.7786 17.3574 49.4986 17.2974 49.1066 17.2974C49.0186 17.2974 48.8386 17.3054 48.5666 17.3214V18.9654ZM56.9556 22.8654H54.7956V17.5254H52.8636V16.0254H58.8876V17.5254H56.9556V22.8654ZM65.8065 22.8654H63.5385L63.1305 21.1374C63.1145 21.0734 63.0865 20.9654 63.0465 20.8134C63.0145 20.6534 62.9745 20.5374 62.9265 20.4654C62.8785 20.3854 62.8105 20.3334 62.7225 20.3094C62.4985 20.3174 62.1705 20.3214 61.7385 20.3214V22.8654H59.5785V16.0854C60.5465 16.0134 61.4505 15.9774 62.2905 15.9774C63.0505 15.9774 63.6665 16.0414 64.1385 16.1694C64.6105 16.2894 64.9625 16.5014 65.1945 16.8054C65.4345 17.1014 65.5545 17.5094 65.5545 18.0294C65.5545 18.5174 65.4425 18.9014 65.2185 19.1814C64.9945 19.4534 64.6345 19.6174 64.1385 19.6734V19.7454C64.4185 19.7694 64.6505 19.8614 64.8345 20.0214C65.0265 20.1734 65.1545 20.3694 65.2185 20.6094L65.8065 22.8654ZM61.7385 18.9654C61.8105 18.9734 61.9505 18.9774 62.1585 18.9774C62.7745 18.9774 63.1345 18.9254 63.2385 18.8214C63.3345 18.7254 63.3825 18.5014 63.3825 18.1494C63.3825 17.8214 63.2945 17.5974 63.1185 17.4774C62.9505 17.3574 62.6705 17.2974 62.2785 17.2974C62.1905 17.2974 62.0105 17.3054 61.7385 17.3214V18.9654Z" fill="#A8DADC"/>
<rect x="3" y="75" width="30" height="66" rx="15" transform="rotate(-90 3 75)" fill="#36617C"/>
<path d="M39.5558 78.71H42.5558V80.14H39.5558V78.71ZM46.0875 76.3V82H44.3375V77.74L43.0975 78L42.9075 76.95L44.6775 76.3H46.0875Z" fill="#A8DADC"/>
<path d="M65.2466 76.3V82H63.4966V77.74L62.2566 78L62.0666 76.95L63.8366 76.3H65.2466Z" fill="#A8DADC"/>
<path d="M54 40.5V38.5" stroke="#A8DADC" stroke-width="3" stroke-linecap="round"/>
<path d="M11.1511 42L10.9591 41.244C10.5911 41.844 10.0791 42.144 9.42309 42.144C8.88709 42.144 8.44709 41.996 8.10309 41.7C7.76709 41.396 7.59909 40.972 7.59909 40.428C7.59909 40.092 7.69509 39.8 7.88709 39.552C8.08709 39.296 8.35909 39.116 8.70309 39.012C9.15109 38.884 9.84309 38.812 10.7791 38.796C10.7791 38.268 10.7551 37.988 10.7071 37.956C10.6671 37.924 10.5391 37.908 10.3231 37.908C10.1871 37.908 9.99909 37.916 9.75909 37.932C9.37509 37.948 8.85509 37.992 8.19909 38.064C8.13509 37.632 8.08709 37.168 8.05509 36.672C8.47909 36.584 8.92309 36.512 9.38709 36.456C9.85109 36.392 10.2671 36.36 10.6351 36.36C11.2751 36.36 11.7551 36.468 12.0751 36.684C12.3951 36.892 12.6031 37.168 12.6991 37.512C12.7951 37.856 12.8391 38.292 12.8311 38.82L12.8191 40.584L12.8551 42H11.1511ZM10.1191 40.8C10.3271 40.8 10.5471 40.76 10.7791 40.68V39.792H10.6831C10.0911 39.792 9.76309 39.824 9.69909 39.888C9.65909 39.928 9.62709 39.988 9.60309 40.068C9.58709 40.148 9.57909 40.224 9.57909 40.296C9.57909 40.488 9.62309 40.62 9.71109 40.692C9.79909 40.764 9.93509 40.8 10.1191 40.8ZM16.3016 39.732C16.3016 39.876 16.3056 40.028 16.3136 40.188C16.3216 40.34 16.3456 40.436 16.3856 40.476C16.4416 40.532 16.6376 40.56 16.9736 40.56L17.3816 40.548C17.4536 40.932 17.4896 41.376 17.4896 41.88C17.3376 41.936 17.1136 41.988 16.8176 42.036C16.5296 42.084 16.2536 42.108 15.9896 42.108C15.4376 42.108 15.0096 41.988 14.7056 41.748C14.4096 41.5 14.2616 41.12 14.2616 40.608V37.656H13.3616V36.564L14.2616 36.48L14.8016 35.16L16.3016 35.076V36.48H17.5736V37.656H16.3016V39.732ZM20.7313 39.732C20.7313 39.876 20.7353 40.028 20.7433 40.188C20.7513 40.34 20.7753 40.436 20.8153 40.476C20.8713 40.532 21.0673 40.56 21.4033 40.56L21.8113 40.548C21.8833 40.932 21.9193 41.376 21.9193 41.88C21.7673 41.936 21.5433 41.988 21.2473 42.036C20.9593 42.084 20.6833 42.108 20.4193 42.108C19.8673 42.108 19.4393 41.988 19.1353 41.748C18.8393 41.5 18.6913 41.12 18.6913 40.608V37.656H17.7913V36.564L18.6913 36.48L19.2313 35.16L20.7313 35.076V36.48H22.0033V37.656H20.7313V39.732ZM27.957 36.828C28.029 36.916 28.081 37.136 28.113 37.488C28.153 37.84 28.173 38.376 28.173 39.096V42H26.121V39.12V38.628C26.121 38.372 26.101 38.212 26.061 38.148C25.997 38.068 25.849 38.028 25.617 38.028C25.505 38.028 25.421 38.032 25.365 38.04C25.141 38.048 24.909 38.1 24.669 38.196V42H22.617V36.48H24.285L24.513 37.404C25.089 36.708 25.777 36.36 26.577 36.36C26.865 36.36 27.133 36.4 27.381 36.48C27.637 36.56 27.829 36.676 27.957 36.828Z" fill="#A8DADC"/>
<rect x="3" y="136" width="30" height="66" rx="15" transform="rotate(-90 3 136)" fill="#36617C"/>
<path d="M54 101.5V99.5" stroke="#A8DADC" stroke-width="3" stroke-linecap="round"/>
<path d="M6.156 103.156C5.196 103.156 4.476 102.932 3.996 102.484C3.524 102.028 3.288 101.312 3.288 100.336C3.288 99.8 3.336 99.332 3.432 98.932C3.536 98.524 3.66 98.24 3.804 98.08C3.988 97.872 4.324 97.7 4.812 97.564C5.308 97.428 5.772 97.36 6.204 97.36C7.236 97.36 7.972 97.58 8.412 98.02C8.852 98.46 9.072 99.164 9.072 100.132C9.072 101.172 8.836 101.936 8.364 102.424C7.892 102.912 7.156 103.156 6.156 103.156ZM6.192 101.752C6.504 101.752 6.708 101.644 6.804 101.428C6.9 101.204 6.948 100.812 6.948 100.252C6.948 99.86 6.928 99.56 6.888 99.352C6.848 99.136 6.772 98.98 6.66 98.884C6.556 98.78 6.392 98.728 6.168 98.728C5.848 98.728 5.664 98.756 5.616 98.812C5.552 98.868 5.5 99.044 5.46 99.34C5.42 99.636 5.4 99.944 5.4 100.264C5.4 100.808 5.452 101.192 5.556 101.416C5.668 101.64 5.88 101.752 6.192 101.752ZM16.3113 96.856C16.2553 96.912 16.2273 97.084 16.2273 97.372V97.48H17.4993V98.656H16.2273V103H14.1753V98.656H12.3873V103H10.3353V98.656H9.43528V97.588L10.3353 97.48V97.3C10.3353 96.948 10.3833 96.612 10.4793 96.292C10.5753 95.972 10.6633 95.78 10.7433 95.716C10.9913 95.508 11.5193 95.404 12.3273 95.404C12.7673 95.404 13.2593 95.436 13.8033 95.5C13.8033 95.596 13.7873 95.788 13.7553 96.076C13.7313 96.364 13.7073 96.608 13.6833 96.808L13.1673 96.796C12.7433 96.796 12.5113 96.816 12.4713 96.856C12.4153 96.912 12.3873 97.084 12.3873 97.372V97.48H14.1753V97.3C14.1753 96.948 14.2233 96.612 14.3193 96.292C14.4153 95.972 14.5033 95.78 14.5833 95.716C14.8313 95.508 15.3593 95.404 16.1673 95.404C16.6073 95.404 17.0993 95.436 17.6433 95.5C17.6433 95.596 17.6273 95.788 17.5953 96.076C17.5713 96.364 17.5473 96.608 17.5233 96.808L17.0073 96.796C16.5833 96.796 16.3513 96.816 16.3113 96.856ZM22.4755 101.128C22.4755 101.84 22.2475 102.352 21.7915 102.664C21.3435 102.976 20.7035 103.132 19.8715 103.132C19.2875 103.132 18.6155 103.048 17.8555 102.88C17.8715 102.72 17.9075 102.492 17.9635 102.196C18.0275 101.892 18.0795 101.66 18.1195 101.5C18.4075 101.548 18.7275 101.588 19.0795 101.62C19.4315 101.644 19.7315 101.656 19.9795 101.656C20.1955 101.656 20.3275 101.644 20.3755 101.62C20.3835 101.612 20.3915 101.592 20.3995 101.56C20.4155 101.52 20.4235 101.48 20.4235 101.44C20.4235 101.28 20.3235 101.172 20.1235 101.116C20.0595 101.1 19.8155 101.032 19.3915 100.912C18.9675 100.792 18.6195 100.576 18.3475 100.264C18.0835 99.944 17.9515 99.548 17.9515 99.076C17.9515 98.828 18.0075 98.552 18.1195 98.248C18.2315 97.944 18.3515 97.752 18.4795 97.672C18.5755 97.608 18.8075 97.544 19.1755 97.48C19.5435 97.408 19.8835 97.372 20.1955 97.372C20.8595 97.372 21.5275 97.42 22.1995 97.516C22.1995 97.66 22.1795 97.904 22.1395 98.248C22.0995 98.584 22.0635 98.796 22.0315 98.884C21.3515 98.796 20.8035 98.752 20.3875 98.752C20.1715 98.752 20.0315 98.764 19.9675 98.788C19.9515 98.796 19.9355 98.82 19.9195 98.86C19.9035 98.892 19.8955 98.936 19.8955 98.992C19.8955 99.104 19.9315 99.184 20.0035 99.232C20.0755 99.288 20.2635 99.356 20.5675 99.436C20.9275 99.54 21.2355 99.648 21.4915 99.76C21.7555 99.872 21.9835 100.04 22.1755 100.264C22.3755 100.488 22.4755 100.776 22.4755 101.128ZM26.5041 101.56C26.7041 101.56 27.0761 101.54 27.6201 101.5C27.6921 101.5 27.8241 101.492 28.0161 101.476L28.1961 102.712C27.5801 103 26.7801 103.144 25.7961 103.144C24.8761 103.144 24.1681 102.912 23.6721 102.448C23.1841 101.984 22.9401 101.284 22.9401 100.348C22.9401 99.868 23.0001 99.404 23.1201 98.956C23.2481 98.508 23.3921 98.196 23.5521 98.02C23.7201 97.844 24.0321 97.692 24.4881 97.564C24.9441 97.436 25.3961 97.372 25.8441 97.372C26.5641 97.372 27.1041 97.5 27.4641 97.756C27.8241 98.012 28.0601 98.368 28.1721 98.824C28.2841 99.272 28.3401 99.876 28.3401 100.636C27.7961 100.668 27.2641 100.684 26.7441 100.684H25.0401C25.0401 100.94 25.0921 101.132 25.1961 101.26C25.3081 101.388 25.4641 101.472 25.6641 101.512C25.8641 101.544 26.1441 101.56 26.5041 101.56ZM25.1601 98.8C25.1121 98.824 25.0761 98.928 25.0521 99.112C25.0281 99.296 25.0121 99.504 25.0041 99.736H25.6281C26.0041 99.736 26.2761 99.732 26.4441 99.724C26.4441 99.34 26.3881 99.068 26.2761 98.908C26.1721 98.748 25.9881 98.668 25.7241 98.668C25.5081 98.668 25.3201 98.712 25.1601 98.8ZM31.6063 100.732C31.6063 100.876 31.6103 101.028 31.6183 101.188C31.6263 101.34 31.6503 101.436 31.6903 101.476C31.7463 101.532 31.9423 101.56 32.2783 101.56L32.6863 101.548C32.7583 101.932 32.7943 102.376 32.7943 102.88C32.6423 102.936 32.4183 102.988 32.1223 103.036C31.8343 103.084 31.5583 103.108 31.2943 103.108C30.7423 103.108 30.3143 102.988 30.0103 102.748C29.7143 102.5 29.5663 102.12 29.5663 101.608V98.656H28.6663V97.564L29.5663 97.48L30.1063 96.16L31.6063 96.076V97.48H32.8783V98.656H31.6063V100.732Z" fill="#A8DADC"/>
<path d="M48.5076 156.156C47.5476 156.156 46.8276 155.932 46.3476 155.484C45.8756 155.028 45.6396 154.312 45.6396 153.336C45.6396 152.8 45.6876 152.332 45.7836 151.932C45.8876 151.524 46.0116 151.24 46.1556 151.08C46.3396 150.872 46.6756 150.7 47.1636 150.564C47.6596 150.428 48.1236 150.36 48.5556 150.36C49.5876 150.36 50.3236 150.58 50.7636 151.02C51.2036 151.46 51.4236 152.164 51.4236 153.132C51.4236 154.172 51.1876 154.936 50.7156 155.424C50.2436 155.912 49.5076 156.156 48.5076 156.156ZM48.5436 154.752C48.8556 154.752 49.0596 154.644 49.1556 154.428C49.2516 154.204 49.2996 153.812 49.2996 153.252C49.2996 152.86 49.2796 152.56 49.2396 152.352C49.1996 152.136 49.1236 151.98 49.0116 151.884C48.9076 151.78 48.7436 151.728 48.5196 151.728C48.1996 151.728 48.0156 151.756 47.9676 151.812C47.9036 151.868 47.8516 152.044 47.8116 152.34C47.7716 152.636 47.7516 152.944 47.7516 153.264C47.7516 153.808 47.8036 154.192 47.9076 154.416C48.0196 154.64 48.2316 154.752 48.5436 154.752ZM57.7268 150.48V156H56.0588L55.8308 155.076C55.2548 155.772 54.5668 156.12 53.7668 156.12C53.4788 156.12 53.2068 156.08 52.9508 156C52.7028 155.92 52.5148 155.804 52.3868 155.652C52.3148 155.564 52.2588 155.344 52.2188 154.992C52.1868 154.64 52.1708 154.104 52.1708 153.384V150.48H54.2228V153.36C54.2228 153.52 54.2268 153.708 54.2348 153.924C54.2428 154.14 54.2668 154.276 54.3068 154.332C54.3628 154.412 54.5228 154.452 54.7868 154.452L54.9788 154.44C55.2028 154.432 55.4348 154.38 55.6748 154.284V150.48H57.7268ZM61.2548 153.732C61.2548 153.876 61.2588 154.028 61.2668 154.188C61.2748 154.34 61.2988 154.436 61.3388 154.476C61.3948 154.532 61.5908 154.56 61.9268 154.56L62.3348 154.548C62.4068 154.932 62.4428 155.376 62.4428 155.88C62.2908 155.936 62.0668 155.988 61.7708 156.036C61.4828 156.084 61.2068 156.108 60.9428 156.108C60.3908 156.108 59.9628 155.988 59.6588 155.748C59.3628 155.5 59.2148 155.12 59.2148 154.608V151.656H58.3148V150.564L59.2148 150.48L59.7548 149.16L61.2548 149.076V150.48H62.5268V151.656H61.2548V153.732Z" fill="#A8DADC"/>
<path d="M14.7553 149.796C14.4833 149.796 14.2473 149.704 14.0473 149.52C13.8553 149.336 13.7593 149.116 13.7593 148.86C13.7593 148.604 13.8553 148.384 14.0473 148.2C14.2473 148.016 14.4833 147.924 14.7553 147.924C15.0273 147.924 15.2593 148.016 15.4513 148.2C15.6433 148.384 15.7393 148.604 15.7393 148.86C15.7393 149.116 15.6433 149.336 15.4513 149.52C15.2593 149.704 15.0273 149.796 14.7553 149.796ZM13.7233 150.48H15.7753V156H13.7233V150.48ZM22.1328 150.828C22.2048 150.916 22.2568 151.136 22.2888 151.488C22.3288 151.84 22.3488 152.376 22.3488 153.096V156H20.2968V153.12V152.628C20.2968 152.372 20.2768 152.212 20.2368 152.148C20.1728 152.068 20.0248 152.028 19.7928 152.028C19.6808 152.028 19.5968 152.032 19.5408 152.04C19.3168 152.048 19.0848 152.1 18.8448 152.196V156H16.7928V150.48H18.4608L18.6888 151.404C19.2648 150.708 19.9528 150.36 20.7528 150.36C21.0408 150.36 21.3088 150.4 21.5568 150.48C21.8128 150.56 22.0048 150.676 22.1328 150.828Z" fill="#A8DADC"/>
<rect x="3" y="250" width="30" height="66" rx="15" transform="rotate(-90 3 250)" fill="#36617C"/>
<path d="M39.5558 253.71H42.5558V255.14H39.5558V253.71ZM46.0875 251.3V257H44.3375V252.74L43.0975 253L42.9075 251.95L44.6775 251.3H46.0875Z" fill="#A8DADC"/>
<path d="M65.2466 251.3V257H63.4966V252.74L62.2566 253L62.0666 251.95L63.8366 251.3H65.2466Z" fill="#A8DADC"/>
<path d="M54 215.5V213.5" stroke="#A8DADC" stroke-width="3" stroke-linecap="round"/>
<path d="M11.1511 217L10.9591 216.244C10.5911 216.844 10.0791 217.144 9.42309 217.144C8.88709 217.144 8.44709 216.996 8.10309 216.7C7.76709 216.396 7.59909 215.972 7.59909 215.428C7.59909 215.092 7.69509 214.8 7.88709 214.552C8.08709 214.296 8.35909 214.116 8.70309 214.012C9.15109 213.884 9.84309 213.812 10.7791 213.796C10.7791 213.268 10.7551 212.988 10.7071 212.956C10.6671 212.924 10.5391 212.908 10.3231 212.908C10.1871 212.908 9.99909 212.916 9.75909 212.932C9.37509 212.948 8.85509 212.992 8.19909 213.064C8.13509 212.632 8.08709 212.168 8.05509 211.672C8.47909 211.584 8.92309 211.512 9.38709 211.456C9.85109 211.392 10.2671 211.36 10.6351 211.36C11.2751 211.36 11.7551 211.468 12.0751 211.684C12.3951 211.892 12.6031 212.168 12.6991 212.512C12.7951 212.856 12.8391 213.292 12.8311 213.82L12.8191 215.584L12.8551 217H11.1511ZM10.1191 215.8C10.3271 215.8 10.5471 215.76 10.7791 215.68V214.792H10.6831C10.0911 214.792 9.76309 214.824 9.69909 214.888C9.65909 214.928 9.62709 214.988 9.60309 215.068C9.58709 215.148 9.57909 215.224 9.57909 215.296C9.57909 215.488 9.62309 215.62 9.71109 215.692C9.79909 215.764 9.93509 215.8 10.1191 215.8ZM16.3016 214.732C16.3016 214.876 16.3056 215.028 16.3136 215.188C16.3216 215.34 16.3456 215.436 16.3856 215.476C16.4416 215.532 16.6376 215.56 16.9736 215.56L17.3816 215.548C17.4536 215.932 17.4896 216.376 17.4896 216.88C17.3376 216.936 17.1136 216.988 16.8176 217.036C16.5296 217.084 16.2536 217.108 15.9896 217.108C15.4376 217.108 15.0096 216.988 14.7056 216.748C14.4096 216.5 14.2616 216.12 14.2616 215.608V212.656H13.3616V211.564L14.2616 211.48L14.8016 210.16L16.3016 210.076V211.48H17.5736V212.656H16.3016V214.732ZM20.7313 214.732C20.7313 214.876 20.7353 215.028 20.7433 215.188C20.7513 215.34 20.7753 215.436 20.8153 215.476C20.8713 215.532 21.0673 215.56 21.4033 215.56L21.8113 215.548C21.8833 215.932 21.9193 216.376 21.9193 216.88C21.7673 216.936 21.5433 216.988 21.2473 217.036C20.9593 217.084 20.6833 217.108 20.4193 217.108C19.8673 217.108 19.4393 216.988 19.1353 216.748C18.8393 216.5 18.6913 216.12 18.6913 215.608V212.656H17.7913V211.564L18.6913 211.48L19.2313 210.16L20.7313 210.076V211.48H22.0033V212.656H20.7313V214.732ZM27.957 211.828C28.029 211.916 28.081 212.136 28.113 212.488C28.153 212.84 28.173 213.376 28.173 214.096V217H26.121V214.12V213.628C26.121 213.372 26.101 213.212 26.061 213.148C25.997 213.068 25.849 213.028 25.617 213.028C25.505 213.028 25.421 213.032 25.365 213.04C25.141 213.048 24.909 213.1 24.669 213.196V217H22.617V211.48H24.285L24.513 212.404C25.089 211.708 25.777 211.36 26.577 211.36C26.865 211.36 27.133 211.4 27.381 211.48C27.637 211.56 27.829 211.676 27.957 211.828Z" fill="#A8DADC"/>
<rect x="3" y="311" width="30" height="66" rx="15" transform="rotate(-90 3 311)" fill="#36617C"/>
<path d="M54 276.5V274.5" stroke="#A8DADC" stroke-width="3" stroke-linecap="round"/>
<path d="M6.156 278.156C5.196 278.156 4.476 277.932 3.996 277.484C3.524 277.028 3.288 276.312 3.288 275.336C3.288 274.8 3.336 274.332 3.432 273.932C3.536 273.524 3.66 273.24 3.804 273.08C3.988 272.872 4.324 272.7 4.812 272.564C5.308 272.428 5.772 272.36 6.204 272.36C7.236 272.36 7.972 272.58 8.412 273.02C8.852 273.46 9.072 274.164 9.072 275.132C9.072 276.172 8.836 276.936 8.364 277.424C7.892 277.912 7.156 278.156 6.156 278.156ZM6.192 276.752C6.504 276.752 6.708 276.644 6.804 276.428C6.9 276.204 6.948 275.812 6.948 275.252C6.948 274.86 6.928 274.56 6.888 274.352C6.848 274.136 6.772 273.98 6.66 273.884C6.556 273.78 6.392 273.728 6.168 273.728C5.848 273.728 5.664 273.756 5.616 273.812C5.552 273.868 5.5 274.044 5.46 274.34C5.42 274.636 5.4 274.944 5.4 275.264C5.4 275.808 5.452 276.192 5.556 276.416C5.668 276.64 5.88 276.752 6.192 276.752ZM16.3113 271.856C16.2553 271.912 16.2273 272.084 16.2273 272.372V272.48H17.4993V273.656H16.2273V278H14.1753V273.656H12.3873V278H10.3353V273.656H9.43528V272.588L10.3353 272.48V272.3C10.3353 271.948 10.3833 271.612 10.4793 271.292C10.5753 270.972 10.6633 270.78 10.7433 270.716C10.9913 270.508 11.5193 270.404 12.3273 270.404C12.7673 270.404 13.2593 270.436 13.8033 270.5C13.8033 270.596 13.7873 270.788 13.7553 271.076C13.7313 271.364 13.7073 271.608 13.6833 271.808L13.1673 271.796C12.7433 271.796 12.5113 271.816 12.4713 271.856C12.4153 271.912 12.3873 272.084 12.3873 272.372V272.48H14.1753V272.3C14.1753 271.948 14.2233 271.612 14.3193 271.292C14.4153 270.972 14.5033 270.78 14.5833 270.716C14.8313 270.508 15.3593 270.404 16.1673 270.404C16.6073 270.404 17.0993 270.436 17.6433 270.5C17.6433 270.596 17.6273 270.788 17.5953 271.076C17.5713 271.364 17.5473 271.608 17.5233 271.808L17.0073 271.796C16.5833 271.796 16.3513 271.816 16.3113 271.856ZM22.4755 276.128C22.4755 276.84 22.2475 277.352 21.7915 277.664C21.3435 277.976 20.7035 278.132 19.8715 278.132C19.2875 278.132 18.6155 278.048 17.8555 277.88C17.8715 277.72 17.9075 277.492 17.9635 277.196C18.0275 276.892 18.0795 276.66 18.1195 276.5C18.4075 276.548 18.7275 276.588 19.0795 276.62C19.4315 276.644 19.7315 276.656 19.9795 276.656C20.1955 276.656 20.3275 276.644 20.3755 276.62C20.3835 276.612 20.3915 276.592 20.3995 276.56C20.4155 276.52 20.4235 276.48 20.4235 276.44C20.4235 276.28 20.3235 276.172 20.1235 276.116C20.0595 276.1 19.8155 276.032 19.3915 275.912C18.9675 275.792 18.6195 275.576 18.3475 275.264C18.0835 274.944 17.9515 274.548 17.9515 274.076C17.9515 273.828 18.0075 273.552 18.1195 273.248C18.2315 272.944 18.3515 272.752 18.4795 272.672C18.5755 272.608 18.8075 272.544 19.1755 272.48C19.5435 272.408 19.8835 272.372 20.1955 272.372C20.8595 272.372 21.5275 272.42 22.1995 272.516C22.1995 272.66 22.1795 272.904 22.1395 273.248C22.0995 273.584 22.0635 273.796 22.0315 273.884C21.3515 273.796 20.8035 273.752 20.3875 273.752C20.1715 273.752 20.0315 273.764 19.9675 273.788C19.9515 273.796 19.9355 273.82 19.9195 273.86C19.9035 273.892 19.8955 273.936 19.8955 273.992C19.8955 274.104 19.9315 274.184 20.0035 274.232C20.0755 274.288 20.2635 274.356 20.5675 274.436C20.9275 274.54 21.2355 274.648 21.4915 274.76C21.7555 274.872 21.9835 275.04 22.1755 275.264C22.3755 275.488 22.4755 275.776 22.4755 276.128ZM26.5041 276.56C26.7041 276.56 27.0761 276.54 27.6201 276.5C27.6921 276.5 27.8241 276.492 28.0161 276.476L28.1961 277.712C27.5801 278 26.7801 278.144 25.7961 278.144C24.8761 278.144 24.1681 277.912 23.6721 277.448C23.1841 276.984 22.9401 276.284 22.9401 275.348C22.9401 274.868 23.0001 274.404 23.1201 273.956C23.2481 273.508 23.3921 273.196 23.5521 273.02C23.7201 272.844 24.0321 272.692 24.4881 272.564C24.9441 272.436 25.3961 272.372 25.8441 272.372C26.5641 272.372 27.1041 272.5 27.4641 272.756C27.8241 273.012 28.0601 273.368 28.1721 273.824C28.2841 274.272 28.3401 274.876 28.3401 275.636C27.7961 275.668 27.2641 275.684 26.7441 275.684H25.0401C25.0401 275.94 25.0921 276.132 25.1961 276.26C25.3081 276.388 25.4641 276.472 25.6641 276.512C25.8641 276.544 26.1441 276.56 26.5041 276.56ZM25.1601 273.8C25.1121 273.824 25.0761 273.928 25.0521 274.112C25.0281 274.296 25.0121 274.504 25.0041 274.736H25.6281C26.0041 274.736 26.2761 274.732 26.4441 274.724C26.4441 274.34 26.3881 274.068 26.2761 273.908C26.1721 273.748 25.9881 273.668 25.7241 273.668C25.5081 273.668 25.3201 273.712 25.1601 273.8ZM31.6063 275.732C31.6063 275.876 31.6103 276.028 31.6183 276.188C31.6263 276.34 31.6503 276.436 31.6903 276.476C31.7463 276.532 31.9423 276.56 32.2783 276.56L32.6863 276.548C32.7583 276.932 32.7943 277.376 32.7943 277.88C32.6423 277.936 32.4183 277.988 32.1223 278.036C31.8343 278.084 31.5583 278.108 31.2943 278.108C30.7423 278.108 30.3143 277.988 30.0103 277.748C29.7143 277.5 29.5663 277.12 29.5663 276.608V273.656H28.6663V272.564L29.5663 272.48L30.1063 271.16L31.6063 271.076V272.48H32.8783V273.656H31.6063V275.732Z" fill="#A8DADC"/>
<path d="M48.5076 331.156C47.5476 331.156 46.8276 330.932 46.3476 330.484C45.8756 330.028 45.6396 329.312 45.6396 328.336C45.6396 327.8 45.6876 327.332 45.7836 326.932C45.8876 326.524 46.0116 326.24 46.1556 326.08C46.3396 325.872 46.6756 325.7 47.1636 325.564C47.6596 325.428 48.1236 325.36 48.5556 325.36C49.5876 325.36 50.3236 325.58 50.7636 326.02C51.2036 326.46 51.4236 327.164 51.4236 328.132C51.4236 329.172 51.1876 329.936 50.7156 330.424C50.2436 330.912 49.5076 331.156 48.5076 331.156ZM48.5436 329.752C48.8556 329.752 49.0596 329.644 49.1556 329.428C49.2516 329.204 49.2996 328.812 49.2996 328.252C49.2996 327.86 49.2796 327.56 49.2396 327.352C49.1996 327.136 49.1236 326.98 49.0116 326.884C48.9076 326.78 48.7436 326.728 48.5196 326.728C48.1996 326.728 48.0156 326.756 47.9676 326.812C47.9036 326.868 47.8516 327.044 47.8116 327.34C47.7716 327.636 47.7516 327.944 47.7516 328.264C47.7516 328.808 47.8036 329.192 47.9076 329.416C48.0196 329.64 48.2316 329.752 48.5436 329.752ZM57.7268 325.48V331H56.0588L55.8308 330.076C55.2548 330.772 54.5668 331.12 53.7668 331.12C53.4788 331.12 53.2068 331.08 52.9508 331C52.7028 330.92 52.5148 330.804 52.3868 330.652C52.3148 330.564 52.2588 330.344 52.2188 329.992C52.1868 329.64 52.1708 329.104 52.1708 328.384V325.48H54.2228V328.36C54.2228 328.52 54.2268 328.708 54.2348 328.924C54.2428 329.14 54.2668 329.276 54.3068 329.332C54.3628 329.412 54.5228 329.452 54.7868 329.452L54.9788 329.44C55.2028 329.432 55.4348 329.38 55.6748 329.284V325.48H57.7268ZM61.2548 328.732C61.2548 328.876 61.2588 329.028 61.2668 329.188C61.2748 329.34 61.2988 329.436 61.3388 329.476C61.3948 329.532 61.5908 329.56 61.9268 329.56L62.3348 329.548C62.4068 329.932 62.4428 330.376 62.4428 330.88C62.2908 330.936 62.0668 330.988 61.7708 331.036C61.4828 331.084 61.2068 331.108 60.9428 331.108C60.3908 331.108 59.9628 330.988 59.6588 330.748C59.3628 330.5 59.2148 330.12 59.2148 329.608V326.656H58.3148V325.564L59.2148 325.48L59.7548 324.16L61.2548 324.076V325.48H62.5268V326.656H61.2548V328.732Z" fill="#A8DADC"/>
<path d="M14.7553 324.796C14.4833 324.796 14.2473 324.704 14.0473 324.52C13.8553 324.336 13.7593 324.116 13.7593 323.86C13.7593 323.604 13.8553 323.384 14.0473 323.2C14.2473 323.016 14.4833 322.924 14.7553 322.924C15.0273 322.924 15.2593 323.016 15.4513 323.2C15.6433 323.384 15.7393 323.604 15.7393 323.86C15.7393 324.116 15.6433 324.336 15.4513 324.52C15.2593 324.704 15.0273 324.796 14.7553 324.796ZM13.7233 325.48H15.7753V331H13.7233V325.48ZM22.1328 325.828C22.2048 325.916 22.2568 326.136 22.2888 326.488C22.3288 326.84 22.3488 327.376 22.3488 328.096V331H20.2968V328.12V327.628C20.2968 327.372 20.2768 327.212 20.2368 327.148C20.1728 327.068 20.0248 327.028 19.7928 327.028C19.6808 327.028 19.5968 327.032 19.5408 327.04C19.3168 327.048 19.0848 327.1 18.8448 327.196V331H16.7928V325.48H18.4608L18.6888 326.404C19.2648 325.708 19.9528 325.36 20.7528 325.36C21.0408 325.36 21.3088 325.4 21.5568 325.48C21.8128 325.56 22.0048 325.676 22.1328 325.828Z" fill="#A8DADC"/>
<path d="M12.5 197H62.5" stroke="#1D3557" stroke-width="0.5"/>
</svg>
