<svg width="75" height="380" viewBox="0 0 75 380" fill="none" xmlns="http://www.w3.org/2000/svg">
<g clip-path="url(#clip0)">
<rect width="75" height="380" fill="#457B9D"/>
<g opacity="0.3">
<path fill-rule="evenodd" clip-rule="evenodd" d="M31.958 375.599C31.803 375.747 31.659 375.851 31.526 375.909C31.393 375.968 31.251 375.998 31.1 375.998C30.948 375.998 30.806 375.97 30.673 375.914C30.54 375.858 30.424 375.781 30.325 375.682C30.109 375.466 30 375.209 30 374.912V369.385C30 369.082 30.078 368.847 30.232 368.68C30.498 368.408 30.75 368.272 30.988 368.272C31.226 368.272 31.404 368.296 31.522 368.346C31.639 368.395 31.738 368.457 31.818 368.531C31.924 368.624 32.002 368.723 32.055 368.828C32.108 368.933 32.151 369.011 32.185 369.06C32.219 369.11 32.275 369.134 32.352 369.134C32.429 369.134 32.496 369.11 32.551 369.06L32.709 368.902C33.16 368.482 33.612 368.272 34.063 368.272C34.861 368.272 35.519 368.599 36.039 369.255C36.088 369.323 36.15 369.357 36.224 369.357C36.354 369.357 36.486 369.256 36.619 369.055C36.752 368.854 36.966 368.674 37.263 368.513C37.56 368.352 37.906 368.272 38.302 368.272C38.698 368.272 39.058 368.344 39.383 368.49C39.707 368.635 39.99 368.834 40.231 369.088C40.738 369.62 40.992 370.263 40.992 371.017V374.912C40.992 375.382 40.769 375.713 40.324 375.905C40.188 375.967 40.044 375.998 39.893 375.998C39.741 375.998 39.599 375.97 39.466 375.914C39.333 375.858 39.217 375.781 39.118 375.682C38.908 375.46 38.803 375.203 38.803 374.912V371.045C38.803 370.736 38.726 370.504 38.571 370.349C38.299 370.077 38.049 369.941 37.82 369.941C37.591 369.941 37.412 369.971 37.282 370.029C37.152 370.088 37.034 370.17 36.929 370.275C36.713 370.492 36.605 370.742 36.605 371.026V374.912C36.605 375.382 36.385 375.713 35.946 375.905C35.81 375.967 35.666 375.998 35.515 375.998C35.363 375.998 35.22 375.97 35.083 375.914C34.947 375.858 34.83 375.781 34.731 375.682C34.515 375.466 34.406 375.209 34.406 374.912V371.045C34.406 370.736 34.329 370.504 34.174 370.349C33.902 370.077 33.618 369.941 33.321 369.941C32.826 369.941 32.483 370.133 32.292 370.516C32.23 370.64 32.199 370.779 32.199 370.934V374.912C32.199 375.215 32.118 375.444 31.958 375.599ZM43.219 369.387C43.219 369.084 43.296 368.849 43.451 368.682C43.716 368.41 44.01 368.274 44.332 368.274C44.641 368.274 44.87 368.355 45.018 368.515C45.29 368.794 45.426 369.084 45.426 369.387V374.915C45.426 375.212 45.349 375.437 45.194 375.592C44.922 375.864 44.672 376 44.443 376C44.214 376 44.032 375.971 43.896 375.912C43.76 375.853 43.642 375.777 43.543 375.685C43.327 375.474 43.219 375.218 43.219 374.915V369.387ZM44.327 365.9C44.065 365.9 43.852 365.687 43.852 365.425C43.852 365.162 44.065 364.95 44.327 364.95C44.589 364.95 44.802 365.162 44.802 365.425C44.802 365.687 44.589 365.9 44.327 365.9ZM44.327 364C44.714 364 45.048 364.142 45.329 364.425C45.611 364.709 45.752 364.996 45.752 365.287C45.752 365.577 45.713 365.807 45.635 365.978C45.558 366.148 45.456 366.297 45.329 366.424C45.048 366.708 44.714 366.849 44.327 366.849C43.94 366.849 43.606 366.708 43.324 366.424C43.043 366.141 42.902 365.857 42.902 365.574C42.902 365.092 43.043 364.709 43.324 364.425C43.606 364.142 43.94 364 44.327 364Z" fill="#1D3557"/>
</g>
<path d="M15.6022 20.4904H13.7762L13.4462 21.8654H11.4222L13.4462 15.5954H16.0312L17.9672 21.8654H15.9322L15.6022 20.4904ZM14.6782 16.9484L14.0292 19.2694H15.3382L14.7222 16.9484H14.6782ZM21.859 21.8654H19.879V16.9704H18.108V15.5954H23.63V16.9704H21.859V21.8654ZM26.543 19.3354V21.8654H24.706V15.5954H26.565L28.226 18.1254C28.4753 18.4994 28.666 18.8147 28.798 19.0714H28.831V18.0154V15.5954H30.657V21.8654H28.787L27.082 19.2254L26.587 18.4774H26.554L26.543 19.3354ZM38.1551 15.5954V19.1044C38.1551 19.8304 38.0744 20.3987 37.9131 20.8094C37.7591 21.2127 37.4658 21.5097 37.0331 21.7004C36.6004 21.891 35.9698 21.9864 35.1411 21.9864C34.5324 21.9864 34.0191 21.924 33.6011 21.7994C33.1831 21.6674 32.8494 21.4217 32.6001 21.0624C32.3581 20.703 32.2371 20.197 32.2371 19.5444V15.5954H34.2171V19.1264C34.2171 19.515 34.2354 19.812 34.2721 20.0174C34.3161 20.2154 34.4114 20.3694 34.5581 20.4794C34.7048 20.582 34.9284 20.6334 35.2291 20.6334C35.4124 20.6334 35.5848 20.615 35.7461 20.5784C35.9074 20.5417 36.0174 20.4867 36.0761 20.4134C36.1421 20.3254 36.1751 20.0064 36.1751 19.4564V15.5954H38.1551ZM43.3793 15.5954H45.4693L43.7753 21.8654H40.9043L39.1993 15.5954H41.3003L42.3123 20.5014H42.3673L43.3793 15.5954ZM52.2818 21.8654H50.2028L49.8288 20.2814C49.8141 20.2227 49.7884 20.1237 49.7518 19.9844C49.7224 19.8377 49.6858 19.7314 49.6418 19.6654C49.5978 19.592 49.5354 19.5444 49.4548 19.5224C49.2494 19.5297 48.9488 19.5334 48.5528 19.5334V21.8654H46.5728V15.6504C47.4601 15.5844 48.2888 15.5514 49.0588 15.5514C49.7554 15.5514 50.3201 15.61 50.7528 15.7274C51.1854 15.8374 51.5081 16.0317 51.7208 16.3104C51.9408 16.5817 52.0508 16.9557 52.0508 17.4324C52.0508 17.8797 51.9481 18.2317 51.7428 18.4884C51.5374 18.7377 51.2074 18.888 50.7528 18.9394V19.0054C51.0094 19.0274 51.2221 19.1117 51.3908 19.2584C51.5668 19.3977 51.6841 19.5774 51.7428 19.7974L52.2818 21.8654ZM48.5528 18.2904C48.6188 18.2977 48.7471 18.3014 48.9378 18.3014C49.5024 18.3014 49.8324 18.2537 49.9278 18.1584C50.0158 18.0704 50.0598 17.865 50.0598 17.5424C50.0598 17.2417 49.9791 17.0364 49.8178 16.9264C49.6638 16.8164 49.4071 16.7614 49.0478 16.7614C48.9671 16.7614 48.8021 16.7687 48.5528 16.7834V18.2904ZM56.7926 21.8654H54.8126V16.9704H53.0416V15.5954H58.5636V16.9704H56.7926V21.8654ZM65.456 21.8654H63.377L63.003 20.2814C62.9883 20.2227 62.9626 20.1237 62.926 19.9844C62.8966 19.8377 62.86 19.7314 62.816 19.6654C62.772 19.592 62.7096 19.5444 62.629 19.5224C62.4236 19.5297 62.123 19.5334 61.727 19.5334V21.8654H59.747V15.6504C60.6343 15.5844 61.463 15.5514 62.233 15.5514C62.9296 15.5514 63.4943 15.61 63.927 15.7274C64.3596 15.8374 64.6823 16.0317 64.895 16.3104C65.115 16.5817 65.225 16.9557 65.225 17.4324C65.225 17.8797 65.1223 18.2317 64.917 18.4884C64.7116 18.7377 64.3816 18.888 63.927 18.9394V19.0054C64.1836 19.0274 64.3963 19.1117 64.565 19.2584C64.741 19.3977 64.8583 19.5774 64.917 19.7974L65.456 21.8654ZM61.727 18.2904C61.793 18.2977 61.9213 18.3014 62.112 18.3014C62.6766 18.3014 63.0066 18.2537 63.102 18.1584C63.19 18.0704 63.234 17.865 63.234 17.5424C63.234 17.2417 63.1533 17.0364 62.992 16.9264C62.838 16.8164 62.5813 16.7614 62.222 16.7614C62.1413 16.7614 61.9763 16.7687 61.727 16.7834V18.2904Z" fill="white"/>
<rect x="3" y="75" width="30" height="66" rx="15" transform="rotate(-90 3 75)" fill="#36617C"/>
<path d="M39.5558 78.71H42.5558V80.14H39.5558V78.71ZM46.0875 76.3V82H44.3375V77.74L43.0975 78L42.9075 76.95L44.6775 76.3H46.0875Z" fill="white"/>
<path d="M65.2466 76.3V82H63.4966V77.74L62.2566 78L62.0666 76.95L63.8366 76.3H65.2466Z" fill="white"/>
<path d="M54 40.5V38.5" stroke="white" stroke-width="3" stroke-linecap="round"/>
<path d="M7.92383 40L8.30957 38.75H10.0918L10.4678 40H11.8545L10.0283 34.668H8.44629L6.61523 40H7.92383ZM9.2373 35.8008L9.84766 37.8418H8.55371L9.17383 35.8008H9.2373ZM15.3623 40V35.6885H16.9102V34.668H12.5059V35.6885H14.0537V40H15.3623ZM21.0381 40V35.6885H22.5859V34.668H18.1816V35.6885H19.7295V40H21.0381ZM25.459 40V36.7529H25.5078L27.8223 40H28.8623V34.668H27.6367V37.8857H27.5879L25.2832 34.668H24.2383V40H25.459Z" fill="white"/>
<rect x="3" y="136" width="30" height="66" rx="15" transform="rotate(-90 3 136)" fill="#36617C"/>
<path d="M54 101.5V99.5" stroke="white" stroke-width="3" stroke-linecap="round"/>
<path d="M4.42773 101.098C6.01465 101.098 6.91797 100.126 6.91797 98.6367V98.0361C6.91797 96.542 6.00977 95.5703 4.42285 95.5703C2.84082 95.5703 1.93262 96.5371 1.93262 98.0361V98.6367C1.93262 100.126 2.8457 101.098 4.42773 101.098ZM4.42773 100.077C3.7002 100.077 3.26562 99.5352 3.26562 98.6416V98.0215C3.26562 97.1279 3.7002 96.5908 4.42773 96.5908C5.15039 96.5908 5.58496 97.1279 5.58496 98.0215V98.6416C5.58496 99.5352 5.15039 100.077 4.42773 100.077ZM10.0938 101V98.9736H12.291V97.9971H10.0938V96.6738H12.5107V95.668H8.78516V101H10.0938ZM15.5547 101V98.9736H17.752V97.9971H15.5547V96.6738H17.9717V95.668H14.2461V101H15.5547ZM19.3848 99.4473C19.3994 100.346 20.1172 101.098 21.6455 101.098C23.1494 101.098 23.9453 100.385 23.9453 99.3838C23.9453 98.4463 23.3252 98.0361 22.4268 97.8604L21.6406 97.709C21.0889 97.5967 20.8154 97.4355 20.8154 97.123C20.8154 96.7812 21.123 96.5225 21.6846 96.5225C22.2705 96.5225 22.6123 96.8154 22.6416 97.1865H23.8477C23.8379 96.3369 23.1055 95.5654 21.6895 95.5654C20.3809 95.5654 19.5068 96.2197 19.5068 97.2207C19.5068 98.0898 20.0635 98.5439 21.0596 98.7441L21.8066 98.8955C22.373 99.0127 22.6514 99.1787 22.6514 99.5107C22.6514 99.8721 22.3389 100.131 21.6992 100.131C21.0645 100.131 20.6641 99.833 20.6348 99.4473H19.3848ZM29.5137 100.004H27.0576V98.7783H29.3623V97.8506H27.0576V96.6641H29.5137V95.668H25.7637V101H29.5137V100.004ZM33.7979 101V96.6885H35.3457V95.668H30.9414V96.6885H32.4893V101H33.7979Z" fill="white"/>
<path d="M48.4336 155.098C50.0205 155.098 50.9238 154.126 50.9238 152.637V152.036C50.9238 150.542 50.0156 149.57 48.4287 149.57C46.8467 149.57 45.9385 150.537 45.9385 152.036V152.637C45.9385 154.126 46.8516 155.098 48.4336 155.098ZM48.4336 154.077C47.7061 154.077 47.2715 153.535 47.2715 152.642V152.021C47.2715 151.128 47.7061 150.591 48.4336 150.591C49.1562 150.591 49.5908 151.128 49.5908 152.021V152.642C49.5908 153.535 49.1562 154.077 48.4336 154.077ZM55.0713 154.048C54.4609 154.048 54.0361 153.687 54.0361 152.998V149.668H52.7227V153.145C52.7227 154.336 53.626 155.098 55.0713 155.098C56.5166 155.098 57.4199 154.331 57.4199 153.145V149.668H56.1113V152.998C56.1113 153.682 55.6816 154.048 55.0713 154.048ZM61.792 155V150.688H63.3398V149.668H58.9355V150.688H60.4834V155H61.792Z" fill="white"/>
<path d="M15.2939 155V149.668H13.9854V155H15.2939ZM18.6064 155V151.753H18.6553L20.9697 155H22.0098V149.668H20.7842V152.886H20.7354L18.4307 149.668H17.3857V155H18.6064Z" fill="white"/>
<rect x="3" y="250" width="30" height="66" rx="15" transform="rotate(-90 3 250)" fill="#36617C"/>
<path d="M39.5558 253.71H42.5558V255.14H39.5558V253.71ZM46.0875 251.3V257H44.3375V252.74L43.0975 253L42.9075 251.95L44.6775 251.3H46.0875Z" fill="white"/>
<path d="M65.2466 251.3V257H63.4966V252.74L62.2566 253L62.0666 251.95L63.8366 251.3H65.2466Z" fill="white"/>
<path d="M54 215.5V213.5" stroke="white" stroke-width="3" stroke-linecap="round"/>
<path d="M7.92383 215L8.30957 213.75H10.0918L10.4678 215H11.8545L10.0283 209.668H8.44629L6.61523 215H7.92383ZM9.2373 210.801L9.84766 212.842H8.55371L9.17383 210.801H9.2373ZM15.3623 215V210.688H16.9102V209.668H12.5059V210.688H14.0537V215H15.3623ZM21.0381 215V210.688H22.5859V209.668H18.1816V210.688H19.7295V215H21.0381ZM25.459 215V211.753H25.5078L27.8223 215H28.8623V209.668H27.6367V212.886H27.5879L25.2832 209.668H24.2383V215H25.459Z" fill="white"/>
<rect x="3" y="311" width="30" height="66" rx="15" transform="rotate(-90 3 311)" fill="#36617C"/>
<path d="M54 276.5V274.5" stroke="white" stroke-width="3" stroke-linecap="round"/>
<path d="M4.42773 276.098C6.01465 276.098 6.91797 275.126 6.91797 273.637V273.036C6.91797 271.542 6.00977 270.57 4.42285 270.57C2.84082 270.57 1.93262 271.537 1.93262 273.036V273.637C1.93262 275.126 2.8457 276.098 4.42773 276.098ZM4.42773 275.077C3.7002 275.077 3.26562 274.535 3.26562 273.642V273.021C3.26562 272.128 3.7002 271.591 4.42773 271.591C5.15039 271.591 5.58496 272.128 5.58496 273.021V273.642C5.58496 274.535 5.15039 275.077 4.42773 275.077ZM10.0938 276V273.974H12.291V272.997H10.0938V271.674H12.5107V270.668H8.78516V276H10.0938ZM15.5547 276V273.974H17.752V272.997H15.5547V271.674H17.9717V270.668H14.2461V276H15.5547ZM19.3848 274.447C19.3994 275.346 20.1172 276.098 21.6455 276.098C23.1494 276.098 23.9453 275.385 23.9453 274.384C23.9453 273.446 23.3252 273.036 22.4268 272.86L21.6406 272.709C21.0889 272.597 20.8154 272.436 20.8154 272.123C20.8154 271.781 21.123 271.522 21.6846 271.522C22.2705 271.522 22.6123 271.815 22.6416 272.187H23.8477C23.8379 271.337 23.1055 270.565 21.6895 270.565C20.3809 270.565 19.5068 271.22 19.5068 272.221C19.5068 273.09 20.0635 273.544 21.0596 273.744L21.8066 273.896C22.373 274.013 22.6514 274.179 22.6514 274.511C22.6514 274.872 22.3389 275.131 21.6992 275.131C21.0645 275.131 20.6641 274.833 20.6348 274.447H19.3848ZM29.5137 275.004H27.0576V273.778H29.3623V272.851H27.0576V271.664H29.5137V270.668H25.7637V276H29.5137V275.004ZM33.7979 276V271.688H35.3457V270.668H30.9414V271.688H32.4893V276H33.7979Z" fill="white"/>
<path d="M47.9336 330.098C49.5205 330.098 50.4238 329.126 50.4238 327.637V327.036C50.4238 325.542 49.5156 324.57 47.9287 324.57C46.3467 324.57 45.4385 325.537 45.4385 327.036V327.637C45.4385 329.126 46.3516 330.098 47.9336 330.098ZM47.9336 329.077C47.2061 329.077 46.7715 328.535 46.7715 327.642V327.021C46.7715 326.128 47.2061 325.591 47.9336 325.591C48.6562 325.591 49.0908 326.128 49.0908 327.021V327.642C49.0908 328.535 48.6562 329.077 47.9336 329.077ZM54.5713 329.048C53.9609 329.048 53.5361 328.687 53.5361 327.998V324.668H52.2227V328.145C52.2227 329.336 53.126 330.098 54.5713 330.098C56.0166 330.098 56.9199 329.331 56.9199 328.145V324.668H55.6113V327.998C55.6113 328.682 55.1816 329.048 54.5713 329.048ZM61.292 330V325.688H62.8398V324.668H58.4355V325.688H59.9834V330H61.292Z" fill="white"/>
<path d="M15.2939 330V324.668H13.9854V330H15.2939ZM18.6064 330V326.753H18.6553L20.9697 330H22.0098V324.668H20.7842V327.886H20.7354L18.4307 324.668H17.3857V330H18.6064Z" fill="white"/>
<path opacity="0.5" d="M0 197H75" stroke="#1D3557"/>
</g>
<defs>
<clipPath id="clip0">
<rect width="75" height="380" fill="white"/>
</clipPath>
</defs>
</svg>
