<svg width="120" height="380" viewBox="0 0 120 380" fill="none" xmlns="http://www.w3.org/2000/svg">
<rect width="120" height="380" fill="#457B9D"/>
<g opacity="0.5">
<path fill-rule="evenodd" clip-rule="evenodd" d="M53.958 375.599C53.803 375.747 53.659 375.851 53.526 375.909C53.393 375.968 53.251 375.998 53.1 375.998C52.948 375.998 52.806 375.97 52.673 375.914C52.54 375.858 52.424 375.781 52.325 375.682C52.109 375.466 52 375.209 52 374.912V369.385C52 369.082 52.078 368.847 52.232 368.68C52.498 368.408 52.75 368.272 52.988 368.272C53.226 368.272 53.404 368.296 53.522 368.346C53.639 368.395 53.738 368.457 53.818 368.531C53.924 368.624 54.002 368.723 54.055 368.828C54.108 368.933 54.151 369.011 54.185 369.06C54.219 369.11 54.275 369.134 54.352 369.134C54.429 369.134 54.496 369.11 54.551 369.06L54.709 368.902C55.16 368.482 55.612 368.272 56.063 368.272C56.861 368.272 57.519 368.599 58.039 369.255C58.088 369.323 58.15 369.357 58.224 369.357C58.354 369.357 58.486 369.256 58.619 369.055C58.752 368.854 58.966 368.674 59.263 368.513C59.56 368.352 59.906 368.272 60.302 368.272C60.698 368.272 61.058 368.344 61.383 368.49C61.707 368.635 61.99 368.834 62.231 369.088C62.738 369.62 62.992 370.263 62.992 371.017V374.912C62.992 375.382 62.769 375.713 62.324 375.905C62.188 375.967 62.044 375.998 61.893 375.998C61.741 375.998 61.599 375.97 61.466 375.914C61.333 375.858 61.217 375.781 61.118 375.682C60.908 375.46 60.803 375.203 60.803 374.912V371.045C60.803 370.736 60.726 370.504 60.571 370.349C60.299 370.077 60.049 369.941 59.82 369.941C59.591 369.941 59.412 369.971 59.282 370.029C59.152 370.088 59.034 370.17 58.929 370.275C58.713 370.492 58.605 370.742 58.605 371.026V374.912C58.605 375.382 58.385 375.713 57.946 375.905C57.81 375.967 57.666 375.998 57.515 375.998C57.363 375.998 57.22 375.97 57.083 375.914C56.947 375.858 56.83 375.781 56.731 375.682C56.515 375.466 56.406 375.209 56.406 374.912V371.045C56.406 370.736 56.329 370.504 56.174 370.349C55.902 370.077 55.618 369.941 55.321 369.941C54.826 369.941 54.483 370.133 54.292 370.516C54.23 370.64 54.199 370.779 54.199 370.934V374.912C54.199 375.215 54.118 375.444 53.958 375.599ZM65.219 369.387C65.219 369.084 65.296 368.849 65.451 368.682C65.716 368.41 66.01 368.274 66.332 368.274C66.641 368.274 66.87 368.355 67.018 368.515C67.29 368.794 67.426 369.084 67.426 369.387V374.915C67.426 375.212 67.349 375.437 67.194 375.592C66.922 375.864 66.672 376 66.443 376C66.214 376 66.032 375.971 65.896 375.912C65.76 375.853 65.642 375.777 65.543 375.685C65.327 375.474 65.219 375.218 65.219 374.915V369.387ZM66.327 365.9C66.065 365.9 65.852 365.687 65.852 365.425C65.852 365.162 66.065 364.95 66.327 364.95C66.589 364.95 66.802 365.162 66.802 365.425C66.802 365.687 66.589 365.9 66.327 365.9ZM66.327 364C66.714 364 67.048 364.142 67.329 364.425C67.611 364.709 67.752 364.996 67.752 365.287C67.752 365.577 67.713 365.807 67.635 365.978C67.558 366.148 67.456 366.297 67.329 366.424C67.048 366.708 66.714 366.849 66.327 366.849C65.94 366.849 65.606 366.708 65.324 366.424C65.043 366.141 64.902 365.857 64.902 365.574C64.902 365.092 65.043 364.709 65.324 364.425C65.606 364.142 65.94 364 66.327 364Z" fill="#1D3557"/>
</g>
<path d="M10.2959 19.2534C10.8399 19.3174 11.2279 19.5014 11.4599 19.8054C11.6919 20.1014 11.8079 20.4614 11.8079 20.8854C11.8079 21.1494 11.7679 21.4014 11.6879 21.6414C11.6079 21.8734 11.5119 22.0734 11.3999 22.2414C11.2879 22.4014 11.1919 22.5054 11.1119 22.5534C10.7919 22.7614 9.81586 22.8654 8.18386 22.8654H5.85586V16.0254H8.67586C9.31586 16.0254 9.83186 16.0614 10.2239 16.1334C10.6239 16.1974 10.9479 16.3494 11.1959 16.5894C11.4439 16.8214 11.5679 17.1774 11.5679 17.6574C11.5679 18.0734 11.4639 18.4094 11.2559 18.6654C11.0559 18.9214 10.7359 19.0974 10.2959 19.1934V19.2534ZM9.33586 17.4774C9.25586 17.3974 9.15986 17.3494 9.04786 17.3334C8.94386 17.3094 8.77586 17.2974 8.54386 17.2974C8.31186 17.2974 8.13586 17.3014 8.01586 17.3094V18.7734H8.13586C8.17586 18.7734 8.34386 18.7734 8.63986 18.7734C8.93586 18.7734 9.13186 18.7534 9.22786 18.7134C9.29986 18.6814 9.36386 18.5974 9.41986 18.4614C9.48386 18.3254 9.51586 18.1774 9.51586 18.0174C9.51586 17.7774 9.45586 17.5974 9.33586 17.4774ZM9.53986 21.4854C9.59586 21.4374 9.63986 21.3494 9.67186 21.2214C9.71186 21.0854 9.73186 20.9494 9.73186 20.8134C9.73186 20.6454 9.70786 20.4894 9.65986 20.3454C9.61986 20.1934 9.56386 20.0854 9.49186 20.0214C9.41986 19.9494 9.31586 19.9014 9.17986 19.8774C9.05186 19.8534 8.83186 19.8414 8.51986 19.8414C8.31986 19.8414 8.15186 19.8454 8.01586 19.8534V21.5934C8.39186 21.6014 8.72786 21.5974 9.02386 21.5814C9.31986 21.5574 9.49186 21.5254 9.53986 21.4854ZM15.4713 15.9894C16.1193 15.9894 16.6673 16.0494 17.1153 16.1694C17.5633 16.2894 17.9193 16.5214 18.1833 16.8654C18.4553 17.2014 18.5913 17.6854 18.5913 18.3174C18.5913 18.5974 18.5473 18.8854 18.4593 19.1814C18.3793 19.4694 18.2753 19.7214 18.1473 19.9374C18.0273 20.1534 17.9193 20.2934 17.8233 20.3574C17.7113 20.4374 17.4633 20.5014 17.0793 20.5494C16.6953 20.5894 16.2433 20.6094 15.7233 20.6094C15.5393 20.6094 15.2553 20.6014 14.8713 20.5854V22.8654H12.7113V16.0254C13.5513 16.0014 14.4713 15.9894 15.4713 15.9894ZM16.3713 19.0734C16.4513 18.9694 16.4913 18.7614 16.4913 18.4494C16.4913 18.0414 16.4033 17.7534 16.2273 17.5854C16.0593 17.4174 15.7633 17.3334 15.3393 17.3334C15.1953 17.3334 15.0393 17.3454 14.8713 17.3694V19.1934C14.9513 19.2014 15.1073 19.2054 15.3393 19.2054C15.9553 19.2054 16.2993 19.1614 16.3713 19.0734ZM28.1759 22.8654H26.1599L26.0039 19.0974C25.9799 18.3534 25.9519 17.7894 25.9199 17.4054H25.8839C25.7879 17.7094 25.6759 18.1814 25.5479 18.8214L25.4879 19.1214L24.6599 22.8654H22.6439L21.9479 19.4934L21.8279 18.8934C21.6599 18.1494 21.5439 17.6534 21.4799 17.4054H21.4439C21.4119 17.8054 21.3839 18.4574 21.3599 19.3614C21.3519 19.4174 21.3479 19.5054 21.3479 19.6254L21.2399 22.8654H19.2119L19.4999 16.0254H22.9319L23.5199 18.9774L23.6639 19.7694C23.7279 19.5214 23.7879 19.2454 23.8439 18.9414L24.3959 16.0254H27.8999L28.1759 22.8654ZM33.4395 16.0254C34.3755 16.0254 35.1395 16.1134 35.7315 16.2894C36.3315 16.4654 36.7955 16.7974 37.1235 17.2854C37.4595 17.7734 37.6275 18.4734 37.6275 19.3854C37.6275 20.3614 37.4515 21.1054 37.0995 21.6174C36.7475 22.1214 36.2755 22.4574 35.6835 22.6254C35.0915 22.7854 34.3435 22.8654 33.4395 22.8654H31.0395V16.0254H33.4395ZM35.0475 21.2334C35.1435 21.1374 35.2115 20.8894 35.2515 20.4894C35.2915 20.0894 35.3115 19.7214 35.3115 19.3854C35.3115 18.9614 35.2795 18.6254 35.2155 18.3774C35.1595 18.1214 35.0555 17.9174 34.9035 17.7654C34.6635 17.5014 34.2515 17.3694 33.6675 17.3694C33.5635 17.3694 33.4075 17.3774 33.1995 17.3934V21.3774C33.3355 21.3934 33.5475 21.4014 33.8355 21.4014C34.1315 21.4014 34.3915 21.3894 34.6155 21.3654C34.8475 21.3334 34.9915 21.2894 35.0475 21.2334ZM38.5263 16.0254H43.5063V17.4654H40.6863V18.7134H43.0623V20.0094H40.6863V21.4014H43.4943V22.8654H38.5263V16.0254ZM44.3983 16.0254H46.5583V21.2814H49.3543V22.8654H44.3983V16.0254ZM54.0893 21.3654H52.0973L51.7373 22.8654H49.5293L51.7373 16.0254H54.5573L56.6693 22.8654H54.4493L54.0893 21.3654ZM53.0813 17.5014L52.3733 20.0334H53.8013L53.1293 17.5014H53.0813ZM60.1671 20.6814V22.8654H58.0071V20.7054L55.7031 16.0254H57.8991L58.8111 18.2454C58.9071 18.4694 58.9951 18.7054 59.0751 18.9534H59.0991C59.1871 18.6814 59.2751 18.4374 59.3631 18.2214L60.2631 16.0254H62.4471L60.1671 20.6814ZM68.354 14.8494H69.95L65.882 24.7374H64.286L68.354 14.8494ZM81.297 22.8654H79.281L79.125 19.0974C79.101 18.3534 79.073 17.7894 79.041 17.4054H79.005C78.909 17.7094 78.797 18.1814 78.669 18.8214L78.609 19.1214L77.781 22.8654H75.765L75.069 19.4934L74.949 18.8934C74.781 18.1494 74.665 17.6534 74.601 17.4054H74.565C74.533 17.8054 74.505 18.4574 74.481 19.3614C74.473 19.4174 74.469 19.5054 74.469 19.6254L74.361 22.8654H72.333L72.621 16.0254H76.053L76.641 18.9774L76.785 19.7694C76.849 19.5214 76.909 19.2454 76.965 18.9414L77.517 16.0254H81.021L81.297 22.8654ZM84.3239 17.8734C84.3239 18.0414 84.4079 18.1734 84.5759 18.2694C84.7519 18.3654 85.0239 18.4694 85.3919 18.5814C85.8319 18.7254 86.1919 18.8654 86.4719 19.0014C86.7599 19.1374 87.0079 19.3494 87.2159 19.6374C87.4319 19.9254 87.5399 20.3014 87.5399 20.7654C87.5399 22.2534 86.5719 22.9974 84.6359 22.9974C84.3159 22.9974 83.9239 22.9694 83.4599 22.9134C83.0039 22.8574 82.5879 22.7854 82.2119 22.6974C82.2279 22.5294 82.2599 22.2854 82.3079 21.9654C82.3639 21.6374 82.4159 21.3934 82.4639 21.2334C82.7439 21.2734 83.1639 21.3214 83.7239 21.3774C84.2919 21.4334 84.7199 21.4614 85.0079 21.4614C85.1759 21.4614 85.2759 21.4494 85.3079 21.4254C85.3559 21.3934 85.3919 21.3414 85.4159 21.2694C85.4479 21.1894 85.4639 21.1214 85.4639 21.0654C85.4639 20.9054 85.3879 20.7854 85.2359 20.7054C85.0839 20.6174 84.8239 20.5134 84.4559 20.3934C84.0159 20.2574 83.6519 20.1174 83.3639 19.9734C83.0759 19.8294 82.8239 19.6054 82.6079 19.3014C82.3919 18.9974 82.2839 18.5974 82.2839 18.1014C82.2839 17.7494 82.3639 17.4054 82.5239 17.0694C82.6839 16.7254 82.8479 16.4934 83.0159 16.3734C83.1439 16.2854 83.4079 16.2014 83.8079 16.1214C84.2079 16.0414 84.5839 16.0014 84.9359 16.0014C85.8319 16.0014 86.5639 16.0854 87.1319 16.2534C87.1239 16.4134 87.0959 16.6334 87.0479 16.9134C87.0079 17.1934 86.9639 17.4494 86.9159 17.6814L86.6399 17.6694C85.5999 17.5974 84.9359 17.5614 84.6479 17.5614C84.5279 17.5614 84.4599 17.5654 84.4439 17.5734C84.4119 17.5894 84.3839 17.6254 84.3599 17.6814C84.3359 17.7374 84.3239 17.8014 84.3239 17.8734ZM95.7003 22.6374C95.4043 22.7654 95.0603 22.8574 94.6683 22.9134C94.2763 22.9694 93.9123 22.9974 93.5763 22.9974C92.4883 22.9974 91.6363 22.7134 91.0203 22.1454C90.4043 21.5774 90.0963 20.7054 90.0963 19.5294C90.0963 18.3294 90.4203 17.4334 91.0683 16.8414C91.7163 16.2414 92.6283 15.9414 93.8043 15.9414C94.3643 15.9414 94.9483 16.0174 95.5563 16.1694C95.5563 16.3294 95.5403 16.5694 95.5083 16.8894C95.4763 17.2014 95.4443 17.4214 95.4123 17.5494H94.6563C94.1043 17.5494 93.6683 17.5614 93.3483 17.5854C93.0363 17.6014 92.8483 17.6374 92.7843 17.6934C92.6643 17.8054 92.5723 18.0334 92.5083 18.3774C92.4443 18.7134 92.4123 19.0374 92.4123 19.3494C92.4123 19.8934 92.4803 20.3134 92.6163 20.6094C92.7523 20.8974 92.9243 21.0894 93.1323 21.1854C93.3323 21.2814 93.6643 21.3294 94.1283 21.3294C94.4963 21.3294 94.9763 21.2974 95.5683 21.2334L95.7003 22.6374ZM100.449 21.3654H98.4567L98.0967 22.8654H95.8887L98.0967 16.0254H100.917L103.029 22.8654H100.809L100.449 21.3654ZM99.4407 17.5014L98.7327 20.0334H100.161L99.4887 17.5014H99.4407ZM103.601 16.0254H105.761V21.2814H108.557V22.8654H103.601V16.0254ZM114.556 22.6374C114.26 22.7654 113.916 22.8574 113.524 22.9134C113.132 22.9694 112.768 22.9974 112.432 22.9974C111.344 22.9974 110.492 22.7134 109.876 22.1454C109.26 21.5774 108.952 20.7054 108.952 19.5294C108.952 18.3294 109.276 17.4334 109.924 16.8414C110.572 16.2414 111.484 15.9414 112.66 15.9414C113.22 15.9414 113.804 16.0174 114.412 16.1694C114.412 16.3294 114.396 16.5694 114.364 16.8894C114.332 17.2014 114.3 17.4214 114.268 17.5494H113.512C112.96 17.5494 112.524 17.5614 112.204 17.5854C111.892 17.6014 111.704 17.6374 111.64 17.6934C111.52 17.8054 111.428 18.0334 111.364 18.3774C111.3 18.7134 111.268 19.0374 111.268 19.3494C111.268 19.8934 111.336 20.3134 111.472 20.6094C111.608 20.8974 111.78 21.0894 111.988 21.1854C112.188 21.2814 112.52 21.3294 112.984 21.3294C113.352 21.3294 113.832 21.2974 114.424 21.2334L114.556 22.6374Z" fill="#A8DADC"/>
<rect x="55" y="45" width="55" height="20" rx="5" fill="#36617C"/>
<path d="M89.2657 68.2323C89.8897 68.2323 90.3697 68.4203 90.7057 68.7963C91.0497 69.1723 91.2217 69.8363 91.2217 70.7883C91.2217 71.4843 91.1497 72.0803 91.0057 72.5763C90.8697 73.0643 90.7137 73.3763 90.5377 73.5123C90.3297 73.6803 90.0217 73.8043 89.6137 73.8843C89.2057 73.9643 88.7417 74.0043 88.2217 74.0043C87.8217 74.0043 87.3737 73.9723 86.8777 73.9083C86.3817 73.8523 85.9377 73.7603 85.5457 73.6323V66.6723L87.6217 66.5883V67.7163C87.6217 67.7803 87.6177 67.9283 87.6097 68.1603C87.6097 68.3923 87.6017 68.5883 87.5857 68.7483C87.5697 68.9003 87.5457 69.0163 87.5137 69.0963L87.5857 69.1803C87.7697 68.9003 88.0017 68.6723 88.2817 68.4963C88.5617 68.3203 88.8897 68.2323 89.2657 68.2323ZM88.9297 72.5643C88.9777 72.4843 89.0177 72.2963 89.0497 72.0003C89.0897 71.7043 89.1097 71.4203 89.1097 71.1483C89.1097 70.8283 89.0937 70.5763 89.0617 70.3923C89.0377 70.2083 88.9697 70.0643 88.8577 69.9603C88.7537 69.8483 88.5897 69.7923 88.3657 69.7923C88.1657 69.7923 87.9097 69.8203 87.5977 69.8763V72.5883C87.8937 72.6363 88.2017 72.6603 88.5217 72.6603C88.7537 72.6603 88.8897 72.6283 88.9297 72.5643ZM95.8067 68.2323C96.3827 68.2323 96.8387 68.4243 97.1747 68.8083C97.5187 69.1843 97.6907 69.8443 97.6907 70.7883C97.6907 71.4923 97.6227 72.0683 97.4867 72.5163C97.3507 72.9563 97.1947 73.2483 97.0187 73.3923C96.8427 73.5363 96.5347 73.6523 96.0947 73.7403C95.6627 73.8283 95.2147 73.8723 94.7507 73.8723C94.6147 73.8723 94.3867 73.8643 94.0667 73.8483V75.5523L92.0147 75.6363V68.3523H93.6947L93.8987 69.2043C94.1067 68.9083 94.3707 68.6723 94.6907 68.4963C95.0187 68.3203 95.3907 68.2323 95.8067 68.2323ZM95.3267 72.4083C95.4147 72.3443 95.4787 72.1643 95.5187 71.8683C95.5587 71.5643 95.5787 71.2763 95.5787 71.0043C95.5787 70.5563 95.5227 70.2243 95.4107 70.0083C95.2987 69.7923 95.0747 69.6843 94.7387 69.6843C94.4987 69.6843 94.2747 69.7083 94.0667 69.7563V72.4203L94.4027 72.4563C94.5067 72.4643 94.6547 72.4683 94.8467 72.4683C95.1187 72.4683 95.2787 72.4483 95.3267 72.4083ZM107.123 68.7363C107.251 68.9283 107.315 69.6723 107.315 70.9683V73.8723H105.263V71.1723V70.5243C105.263 70.2283 105.235 70.0523 105.179 69.9963C105.115 69.9323 104.979 69.9003 104.771 69.9003L104.627 69.9123C104.379 69.9283 104.143 69.9843 103.919 70.0803C103.927 70.2483 103.931 70.5443 103.931 70.9683V73.8723H101.879V71.1723V70.4523C101.879 70.2043 101.851 70.0523 101.795 69.9963C101.731 69.9323 101.595 69.9003 101.387 69.9003L101.243 69.9123C101.019 69.9203 100.787 69.9723 100.547 70.0683V73.8723H98.4952V68.3523H100.163L100.379 69.2523C100.643 68.9003 100.947 68.6443 101.291 68.4843C101.635 68.3163 101.983 68.2323 102.335 68.2323C102.631 68.2323 102.911 68.2763 103.175 68.3643C103.447 68.4523 103.635 68.5763 103.739 68.7363C103.787 68.8083 103.827 68.9403 103.859 69.1323C104.115 68.8203 104.407 68.5923 104.735 68.4483C105.063 68.3043 105.391 68.2323 105.719 68.2323C106.015 68.2323 106.295 68.2763 106.559 68.3643C106.831 68.4523 107.019 68.5763 107.123 68.7363Z" fill="#A8DADC"/>
<path d="M21.2164 134.161C21.3444 134.353 21.4084 135.097 21.4084 136.393V139.297H19.3564V136.597V135.949C19.3564 135.653 19.3284 135.477 19.2724 135.421C19.2084 135.357 19.0724 135.325 18.8644 135.325L18.7204 135.337C18.4724 135.353 18.2364 135.409 18.0124 135.505C18.0204 135.673 18.0244 135.969 18.0244 136.393V139.297H15.9724V136.597V135.877C15.9724 135.629 15.9444 135.477 15.8884 135.421C15.8244 135.357 15.6884 135.325 15.4804 135.325L15.3364 135.337C15.1124 135.345 14.8804 135.397 14.6404 135.493V139.297H12.5884V133.777H14.2564L14.4724 134.677C14.7364 134.325 15.0404 134.069 15.3844 133.909C15.7284 133.741 16.0764 133.657 16.4284 133.657C16.7244 133.657 17.0044 133.701 17.2684 133.789C17.5404 133.877 17.7284 134.001 17.8324 134.161C17.8804 134.233 17.9204 134.365 17.9524 134.557C18.2084 134.245 18.5004 134.017 18.8284 133.873C19.1564 133.729 19.4844 133.657 19.8124 133.657C20.1084 133.657 20.3884 133.701 20.6524 133.789C20.9244 133.877 21.1124 134.001 21.2164 134.161ZM26.8259 137.425C26.8259 138.137 26.5979 138.649 26.1419 138.961C25.6939 139.273 25.0539 139.429 24.2219 139.429C23.6379 139.429 22.9659 139.345 22.2059 139.177C22.2219 139.017 22.2579 138.789 22.3139 138.493C22.3779 138.189 22.4299 137.957 22.4699 137.797C22.7579 137.845 23.0779 137.885 23.4299 137.917C23.7819 137.941 24.0819 137.953 24.3299 137.953C24.5459 137.953 24.6779 137.941 24.7259 137.917C24.7339 137.909 24.7419 137.889 24.7499 137.857C24.7659 137.817 24.7739 137.777 24.7739 137.737C24.7739 137.577 24.6739 137.469 24.4739 137.413C24.4099 137.397 24.1659 137.329 23.7419 137.209C23.3179 137.089 22.9699 136.873 22.6979 136.561C22.4339 136.241 22.3019 135.845 22.3019 135.373C22.3019 135.125 22.3579 134.849 22.4699 134.545C22.5819 134.241 22.7019 134.049 22.8299 133.969C22.9259 133.905 23.1579 133.841 23.5259 133.777C23.8939 133.705 24.2339 133.669 24.5459 133.669C25.2099 133.669 25.8779 133.717 26.5499 133.813C26.5499 133.957 26.5299 134.201 26.4899 134.545C26.4499 134.881 26.4139 135.093 26.3819 135.181C25.7019 135.093 25.1539 135.049 24.7379 135.049C24.5219 135.049 24.3819 135.061 24.3179 135.085C24.3019 135.093 24.2859 135.117 24.2699 135.157C24.2539 135.189 24.2459 135.233 24.2459 135.289C24.2459 135.401 24.2819 135.481 24.3539 135.529C24.4259 135.585 24.6139 135.653 24.9179 135.733C25.2779 135.837 25.5859 135.945 25.8419 136.057C26.1059 136.169 26.3339 136.337 26.5259 136.561C26.7259 136.785 26.8259 137.073 26.8259 137.425ZM31.9751 139.453C31.0151 139.453 30.2951 139.229 29.8151 138.781C29.3431 138.325 29.1071 137.609 29.1071 136.633C29.1071 136.097 29.1551 135.629 29.2511 135.229C29.3551 134.821 29.4791 134.537 29.6231 134.377C29.8071 134.169 30.1431 133.997 30.6311 133.861C31.1271 133.725 31.5911 133.657 32.0231 133.657C33.0551 133.657 33.7911 133.877 34.2311 134.317C34.6711 134.757 34.8911 135.461 34.8911 136.429C34.8911 137.469 34.6551 138.233 34.1831 138.721C33.7111 139.209 32.9751 139.453 31.9751 139.453ZM32.0111 138.049C32.3231 138.049 32.5271 137.941 32.6231 137.725C32.7191 137.501 32.7671 137.109 32.7671 136.549C32.7671 136.157 32.7471 135.857 32.7071 135.649C32.6671 135.433 32.5911 135.277 32.4791 135.181C32.3751 135.077 32.2111 135.025 31.9871 135.025C31.6671 135.025 31.4831 135.053 31.4351 135.109C31.3711 135.165 31.3191 135.341 31.2791 135.637C31.2391 135.933 31.2191 136.241 31.2191 136.561C31.2191 137.105 31.2711 137.489 31.3751 137.713C31.4871 137.937 31.6991 138.049 32.0111 138.049ZM41.1944 133.777V139.297H39.5264L39.2984 138.373C38.7224 139.069 38.0344 139.417 37.2344 139.417C36.9464 139.417 36.6744 139.377 36.4184 139.297C36.1704 139.217 35.9824 139.101 35.8544 138.949C35.7824 138.861 35.7264 138.641 35.6864 138.289C35.6544 137.937 35.6384 137.401 35.6384 136.681V133.777H37.6904V136.657C37.6904 136.817 37.6944 137.005 37.7024 137.221C37.7104 137.437 37.7344 137.573 37.7744 137.629C37.8304 137.709 37.9904 137.749 38.2544 137.749L38.4464 137.737C38.6704 137.729 38.9024 137.677 39.1424 137.581V133.777H41.1944ZM44.7223 137.029C44.7223 137.173 44.7263 137.325 44.7343 137.485C44.7423 137.637 44.7663 137.733 44.8063 137.773C44.8623 137.829 45.0583 137.857 45.3943 137.857L45.8023 137.845C45.8743 138.229 45.9103 138.673 45.9103 139.177C45.7583 139.233 45.5343 139.285 45.2383 139.333C44.9503 139.381 44.6743 139.405 44.4103 139.405C43.8583 139.405 43.4303 139.285 43.1263 139.045C42.8303 138.797 42.6823 138.417 42.6823 137.905V134.953H41.7823V133.861L42.6823 133.777L43.2223 132.457L44.7223 132.373V133.777H45.9943V134.953H44.7223V137.029ZM50.4 133.657C50.976 133.657 51.432 133.849 51.768 134.233C52.112 134.609 52.284 135.269 52.284 136.213C52.284 136.917 52.216 137.493 52.08 137.941C51.944 138.381 51.788 138.673 51.612 138.817C51.436 138.961 51.128 139.077 50.688 139.165C50.256 139.253 49.808 139.297 49.344 139.297C49.208 139.297 48.98 139.289 48.66 139.273V140.977L46.608 141.061V133.777H48.288L48.492 134.629C48.7 134.333 48.964 134.097 49.284 133.921C49.612 133.745 49.984 133.657 50.4 133.657ZM49.92 137.833C50.008 137.769 50.072 137.589 50.112 137.293C50.152 136.989 50.172 136.701 50.172 136.429C50.172 135.981 50.116 135.649 50.004 135.433C49.892 135.217 49.668 135.109 49.332 135.109C49.092 135.109 48.868 135.133 48.66 135.181V137.845L48.996 137.881C49.1 137.889 49.248 137.893 49.44 137.893C49.712 137.893 49.872 137.873 49.92 137.833ZM58.6084 133.777V139.297H56.9404L56.7124 138.373C56.1364 139.069 55.4484 139.417 54.6484 139.417C54.3604 139.417 54.0884 139.377 53.8324 139.297C53.5844 139.217 53.3964 139.101 53.2684 138.949C53.1964 138.861 53.1404 138.641 53.1004 138.289C53.0684 137.937 53.0524 137.401 53.0524 136.681V133.777H55.1044V136.657C55.1044 136.817 55.1084 137.005 55.1164 137.221C55.1244 137.437 55.1484 137.573 55.1884 137.629C55.2444 137.709 55.4044 137.749 55.6684 137.749L55.8604 137.737C56.0844 137.729 56.3164 137.677 56.5564 137.581V133.777H58.6084ZM62.1363 137.029C62.1363 137.173 62.1403 137.325 62.1483 137.485C62.1563 137.637 62.1803 137.733 62.2203 137.773C62.2763 137.829 62.4723 137.857 62.8083 137.857L63.2163 137.845C63.2883 138.229 63.3243 138.673 63.3243 139.177C63.1723 139.233 62.9483 139.285 62.6523 139.333C62.3643 139.381 62.0883 139.405 61.8243 139.405C61.2723 139.405 60.8443 139.285 60.5403 139.045C60.2443 138.797 60.0963 138.417 60.0963 137.905V134.953H59.1963V133.861L60.0963 133.777L60.6363 132.457L62.1363 132.373V133.777H63.4083V134.953H62.1363V137.029ZM68.486 137.425C68.486 138.137 68.258 138.649 67.802 138.961C67.354 139.273 66.714 139.429 65.882 139.429C65.298 139.429 64.626 139.345 63.866 139.177C63.882 139.017 63.918 138.789 63.974 138.493C64.038 138.189 64.09 137.957 64.13 137.797C64.418 137.845 64.738 137.885 65.09 137.917C65.442 137.941 65.742 137.953 65.99 137.953C66.206 137.953 66.338 137.941 66.386 137.917C66.394 137.909 66.402 137.889 66.41 137.857C66.426 137.817 66.434 137.777 66.434 137.737C66.434 137.577 66.334 137.469 66.134 137.413C66.07 137.397 65.826 137.329 65.402 137.209C64.978 137.089 64.63 136.873 64.358 136.561C64.094 136.241 63.962 135.845 63.962 135.373C63.962 135.125 64.018 134.849 64.13 134.545C64.242 134.241 64.362 134.049 64.49 133.969C64.586 133.905 64.818 133.841 65.186 133.777C65.554 133.705 65.894 133.669 66.206 133.669C66.87 133.669 67.538 133.717 68.21 133.813C68.21 133.957 68.19 134.201 68.15 134.545C68.11 134.881 68.074 135.093 68.042 135.181C67.362 135.093 66.814 135.049 66.398 135.049C66.182 135.049 66.042 135.061 65.978 135.085C65.962 135.093 65.946 135.117 65.93 135.157C65.914 135.189 65.906 135.233 65.906 135.289C65.906 135.401 65.942 135.481 66.014 135.529C66.086 135.585 66.274 135.653 66.578 135.733C66.938 135.837 67.246 135.945 67.502 136.057C67.766 136.169 67.994 136.337 68.186 136.561C68.386 136.785 68.486 137.073 68.486 137.425Z" fill="#A8DADC"/>
<path d="M97.2466 116.3V122H95.4966V117.74L94.2566 118L94.0666 116.95L95.8366 116.3H97.2466Z" fill="#A8DADC"/>
<path d="M89.78 160.11C89.78 160.23 89.7833 160.357 89.79 160.49C89.7967 160.617 89.8167 160.697 89.85 160.73C89.8967 160.777 90.06 160.8 90.34 160.8L90.68 160.79C90.74 161.11 90.77 161.48 90.77 161.9C90.6433 161.947 90.4567 161.99 90.21 162.03C89.97 162.07 89.74 162.09 89.52 162.09C89.06 162.09 88.7033 161.99 88.45 161.79C88.2033 161.583 88.08 161.267 88.08 160.84V158.38H87.33V157.47L88.08 157.4L88.53 156.3L89.78 156.23V157.4H90.84V158.38H89.78V160.11ZM94.1314 156.3V162H92.3814V157.74L91.1414 158L90.9514 156.95L92.7214 156.3H94.1314ZM98.3181 155.32H99.6481L96.2581 163.56H94.9281L98.3181 155.32ZM104.45 160.67V162H100.06V160.89C100.4 160.617 100.723 160.353 101.03 160.1C101.337 159.84 101.68 159.537 102.06 159.19C102.247 159.023 102.383 158.843 102.47 158.65C102.557 158.457 102.6 158.273 102.6 158.1C102.6 157.92 102.557 157.78 102.47 157.68C102.397 157.607 102.01 157.57 101.31 157.57L100.64 157.58C100.553 157.587 100.447 157.59 100.32 157.59C100.3 157.497 100.277 157.313 100.25 157.04C100.23 156.767 100.22 156.563 100.22 156.43C100.973 156.297 101.6 156.23 102.1 156.23C102.78 156.23 103.32 156.36 103.72 156.62C104.127 156.873 104.33 157.313 104.33 157.94C104.33 158.24 104.253 158.55 104.1 158.87C103.947 159.183 103.647 159.513 103.2 159.86C102.9 160.093 102.507 160.37 102.02 160.69L104.45 160.67Z" fill="#A8DADC"/>
<path d="M56.2857 156.3V162H54.5357V157.74L53.2957 158L53.1057 156.95L54.8757 156.3H56.2857ZM60.4724 155.32H61.8024L58.4124 163.56H57.0824L60.4724 155.32ZM66.6043 160.67V162H62.2143V160.89C62.5543 160.617 62.8776 160.353 63.1843 160.1C63.491 159.84 63.8343 159.537 64.2143 159.19C64.401 159.023 64.5376 158.843 64.6243 158.65C64.711 158.457 64.7543 158.273 64.7543 158.1C64.7543 157.92 64.711 157.78 64.6243 157.68C64.551 157.607 64.1643 157.57 63.4643 157.57L62.7943 157.58C62.7076 157.587 62.601 157.59 62.4743 157.59C62.4543 157.497 62.431 157.313 62.4043 157.04C62.3843 156.767 62.3743 156.563 62.3743 156.43C63.1276 156.297 63.7543 156.23 64.2543 156.23C64.9343 156.23 65.4743 156.36 65.8743 156.62C66.281 156.873 66.4843 157.313 66.4843 157.94C66.4843 158.24 66.4076 158.55 66.2543 158.87C66.101 159.183 65.801 159.513 65.3543 159.86C65.0543 160.093 64.661 160.37 64.1743 160.69L66.6043 160.67Z" fill="#A8DADC"/>
<path d="M13.0806 160.64C12.8073 160.64 12.5806 160.55 12.4006 160.37C12.2273 160.19 12.1406 159.947 12.1406 159.64C12.1406 159.373 12.2306 159.15 12.4106 158.97C12.5973 158.783 12.8306 158.69 13.1106 158.69C13.3773 158.69 13.6006 158.783 13.7806 158.97C13.9606 159.15 14.0506 159.373 14.0506 159.64C14.0506 159.947 13.9606 160.19 13.7806 160.37C13.6073 160.55 13.374 160.64 13.0806 160.64ZM17.7408 156.3V162H15.9908V157.74L14.7508 158L14.5608 156.95L16.3308 156.3H17.7408ZM21.9275 155.32H23.2575L19.8675 163.56H18.5375L21.9275 155.32ZM28.0594 160.67V162H23.6694V160.89C24.0094 160.617 24.3327 160.353 24.6394 160.1C24.946 159.84 25.2894 159.537 25.6694 159.19C25.856 159.023 25.9927 158.843 26.0794 158.65C26.166 158.457 26.2094 158.273 26.2094 158.1C26.2094 157.92 26.166 157.78 26.0794 157.68C26.006 157.607 25.6194 157.57 24.9194 157.57L24.2494 157.58C24.1627 157.587 24.056 157.59 23.9294 157.59C23.9094 157.497 23.886 157.313 23.8594 157.04C23.8394 156.767 23.8294 156.563 23.8294 156.43C24.5827 156.297 25.2094 156.23 25.7094 156.23C26.3894 156.23 26.9294 156.36 27.3294 156.62C27.736 156.873 27.9394 157.313 27.9394 157.94C27.9394 158.24 27.8627 158.55 27.7094 158.87C27.556 159.183 27.256 159.513 26.8094 159.86C26.5094 160.093 26.116 160.37 25.6294 160.69L28.0594 160.67Z" fill="#A8DADC"/>
<path d="M89.6286 200.11C89.6286 200.23 89.632 200.357 89.6386 200.49C89.6453 200.617 89.6653 200.697 89.6986 200.73C89.7453 200.777 89.9086 200.8 90.1886 200.8L90.5286 200.79C90.5886 201.11 90.6186 201.48 90.6186 201.9C90.492 201.947 90.3053 201.99 90.0586 202.03C89.8186 202.07 89.5886 202.09 89.3686 202.09C88.9086 202.09 88.552 201.99 88.2986 201.79C88.052 201.583 87.9286 201.267 87.9286 200.84V198.38H87.1786V197.47L87.9286 197.4L88.3786 196.3L89.6286 196.23V197.4H90.6886V198.38H89.6286V200.11ZM93.98 196.3V202H92.23V197.74L90.99 198L90.8 196.95L92.57 196.3H93.98ZM98.1668 195.32H99.4968L96.1068 203.56H94.7768L98.1668 195.32ZM104.749 200.82H103.889V202H102.139V200.82H100.009L99.6686 199.8C99.9553 199.28 100.329 198.7 100.789 198.06C101.249 197.42 101.699 196.833 102.139 196.3H103.889V199.66H104.749V200.82ZM102.169 197.89C101.789 198.437 101.405 199.027 101.019 199.66H102.169V197.89Z" fill="#A8DADC"/>
<path d="M56.6343 196.3V202H54.8843V197.74L53.6443 198L53.4543 196.95L55.2243 196.3H56.6343ZM60.8211 195.32H62.1511L58.7611 203.56H57.4311L60.8211 195.32ZM67.4029 200.82H66.5429V202H64.7929V200.82H62.6629L62.3229 199.8C62.6096 199.28 62.9829 198.7 63.4429 198.06C63.9029 197.42 64.3529 196.833 64.7929 196.3H66.5429V199.66H67.4029V200.82ZM64.8229 197.89C64.4429 198.437 64.0596 199.027 63.6729 199.66H64.8229V197.89Z" fill="#A8DADC"/>
<path d="M12.4293 200.64C12.1559 200.64 11.9293 200.55 11.7493 200.37C11.5759 200.19 11.4893 199.947 11.4893 199.64C11.4893 199.373 11.5793 199.15 11.7593 198.97C11.9459 198.783 12.1793 198.69 12.4593 198.69C12.7259 198.69 12.9493 198.783 13.1293 198.97C13.3093 199.15 13.3993 199.373 13.3993 199.64C13.3993 199.947 13.3093 200.19 13.1293 200.37C12.9559 200.55 12.7226 200.64 12.4293 200.64ZM17.0894 196.3V202H15.3394V197.74L14.0994 198L13.9094 196.95L15.6794 196.3H17.0894ZM21.2761 195.32H22.6061L19.2161 203.56H17.8861L21.2761 195.32ZM27.858 200.82H26.998V202H25.248V200.82H23.118L22.778 199.8C23.0647 199.28 23.438 198.7 23.898 198.06C24.358 197.42 24.808 196.833 25.248 196.3H26.998V199.66H27.858V200.82ZM25.278 197.89C24.898 198.437 24.5147 199.027 24.128 199.66H25.278V197.89Z" fill="#A8DADC"/>
<path d="M89.5603 240.11C89.5603 240.23 89.5636 240.357 89.5703 240.49C89.5769 240.617 89.5969 240.697 89.6303 240.73C89.6769 240.777 89.8403 240.8 90.1203 240.8L90.4603 240.79C90.5203 241.11 90.5503 241.48 90.5503 241.9C90.4236 241.947 90.2369 241.99 89.9903 242.03C89.7503 242.07 89.5203 242.09 89.3003 242.09C88.8403 242.09 88.4836 241.99 88.2303 241.79C87.9836 241.583 87.8603 241.267 87.8603 240.84V238.38H87.1103V237.47L87.8603 237.4L88.3103 236.3L89.5603 236.23V237.4H90.6203V238.38H89.5603V240.11ZM93.9117 236.3V242H92.1617V237.74L90.9217 238L90.7317 236.95L92.5017 236.3H93.9117ZM98.0984 235.32H99.4284L96.0384 243.56H94.7084L98.0984 235.32ZM103.41 238.85C103.837 239.043 104.147 239.27 104.34 239.53C104.534 239.783 104.63 240.087 104.63 240.44C104.63 240.98 104.397 241.393 103.93 241.68C103.47 241.967 102.894 242.11 102.2 242.11C101.514 242.11 100.954 241.99 100.52 241.75C100.094 241.503 99.8803 241.137 99.8803 240.65C99.8803 240.377 99.9803 240.107 100.18 239.84C100.387 239.573 100.677 239.357 101.05 239.19C100.73 239.003 100.484 238.78 100.31 238.52C100.144 238.253 100.06 237.993 100.06 237.74C100.06 237.24 100.274 236.863 100.7 236.61C101.127 236.357 101.654 236.23 102.28 236.23C103.687 236.23 104.39 236.69 104.39 237.61C104.39 238.037 104.064 238.45 103.41 238.85ZM102.29 237.2C102.097 237.2 101.95 237.247 101.85 237.34C101.757 237.427 101.71 237.563 101.71 237.75C101.71 237.917 101.78 238.057 101.92 238.17C102.067 238.277 102.264 238.38 102.51 238.48C102.837 238.253 103 238.02 103 237.78C103 237.58 102.94 237.433 102.82 237.34C102.707 237.247 102.53 237.2 102.29 237.2ZM102.22 241.15C102.4 241.15 102.557 241.1 102.69 241C102.824 240.893 102.89 240.747 102.89 240.56C102.89 240.38 102.824 240.233 102.69 240.12C102.564 240 102.35 239.867 102.05 239.72C101.87 239.847 101.727 239.977 101.62 240.11C101.52 240.243 101.47 240.393 101.47 240.56C101.47 240.74 101.547 240.883 101.7 240.99C101.86 241.097 102.034 241.15 102.22 241.15Z" fill="#A8DADC"/>
<path d="M56.566 236.3V242H54.816V237.74L53.576 238L53.386 236.95L55.156 236.3H56.566ZM60.7527 235.32H62.0827L58.6927 243.56H57.3627L60.7527 235.32ZM66.0646 238.85C66.4912 239.043 66.8012 239.27 66.9946 239.53C67.1879 239.783 67.2846 240.087 67.2846 240.44C67.2846 240.98 67.0512 241.393 66.5846 241.68C66.1246 241.967 65.5479 242.11 64.8546 242.11C64.1679 242.11 63.6079 241.99 63.1746 241.75C62.7479 241.503 62.5346 241.137 62.5346 240.65C62.5346 240.377 62.6346 240.107 62.8346 239.84C63.0412 239.573 63.3312 239.357 63.7046 239.19C63.3846 239.003 63.1379 238.78 62.9646 238.52C62.7979 238.253 62.7146 237.993 62.7146 237.74C62.7146 237.24 62.9279 236.863 63.3546 236.61C63.7812 236.357 64.3079 236.23 64.9346 236.23C66.3412 236.23 67.0446 236.69 67.0446 237.61C67.0446 238.037 66.7179 238.45 66.0646 238.85ZM64.9446 237.2C64.7512 237.2 64.6046 237.247 64.5046 237.34C64.4112 237.427 64.3646 237.563 64.3646 237.75C64.3646 237.917 64.4346 238.057 64.5746 238.17C64.7212 238.277 64.9179 238.38 65.1646 238.48C65.4912 238.253 65.6546 238.02 65.6546 237.78C65.6546 237.58 65.5946 237.433 65.4746 237.34C65.3612 237.247 65.1846 237.2 64.9446 237.2ZM64.8746 241.15C65.0546 241.15 65.2112 241.1 65.3446 241C65.4779 240.893 65.5446 240.747 65.5446 240.56C65.5446 240.38 65.4779 240.233 65.3446 240.12C65.2179 240 65.0046 239.867 64.7046 239.72C64.5246 239.847 64.3812 239.977 64.2746 240.11C64.1746 240.243 64.1246 240.393 64.1246 240.56C64.1246 240.74 64.2012 240.883 64.3546 240.99C64.5146 241.097 64.6879 241.15 64.8746 241.15Z" fill="#A8DADC"/>
<path d="M12.3609 240.64C12.0876 240.64 11.8609 240.55 11.6809 240.37C11.5076 240.19 11.4209 239.947 11.4209 239.64C11.4209 239.373 11.5109 239.15 11.6909 238.97C11.8776 238.783 12.1109 238.69 12.3909 238.69C12.6576 238.69 12.8809 238.783 13.0609 238.97C13.2409 239.15 13.3309 239.373 13.3309 239.64C13.3309 239.947 13.2409 240.19 13.0609 240.37C12.8876 240.55 12.6542 240.64 12.3609 240.64ZM17.0211 236.3V242H15.2711V237.74L14.0311 238L13.8411 236.95L15.6111 236.3H17.0211ZM21.2078 235.32H22.5378L19.1478 243.56H17.8178L21.2078 235.32ZM26.5196 238.85C26.9463 239.043 27.2563 239.27 27.4496 239.53C27.643 239.783 27.7396 240.087 27.7396 240.44C27.7396 240.98 27.5063 241.393 27.0396 241.68C26.5796 241.967 26.003 242.11 25.3096 242.11C24.623 242.11 24.063 241.99 23.6296 241.75C23.203 241.503 22.9896 241.137 22.9896 240.65C22.9896 240.377 23.0896 240.107 23.2896 239.84C23.4963 239.573 23.7863 239.357 24.1596 239.19C23.8396 239.003 23.593 238.78 23.4196 238.52C23.253 238.253 23.1696 237.993 23.1696 237.74C23.1696 237.24 23.383 236.863 23.8096 236.61C24.2363 236.357 24.763 236.23 25.3896 236.23C26.7963 236.23 27.4996 236.69 27.4996 237.61C27.4996 238.037 27.173 238.45 26.5196 238.85ZM25.3996 237.2C25.2063 237.2 25.0596 237.247 24.9596 237.34C24.8663 237.427 24.8196 237.563 24.8196 237.75C24.8196 237.917 24.8896 238.057 25.0296 238.17C25.1763 238.277 25.373 238.38 25.6196 238.48C25.9463 238.253 26.1096 238.02 26.1096 237.78C26.1096 237.58 26.0496 237.433 25.9296 237.34C25.8163 237.247 25.6396 237.2 25.3996 237.2ZM25.3296 241.15C25.5096 241.15 25.6663 241.1 25.7996 241C25.933 240.893 25.9996 240.747 25.9996 240.56C25.9996 240.38 25.933 240.233 25.7996 240.12C25.673 240 25.4596 239.867 25.1596 239.72C24.9796 239.847 24.8363 239.977 24.7296 240.11C24.6296 240.243 24.5796 240.393 24.5796 240.56C24.5796 240.74 24.6563 240.883 24.8096 240.99C24.9696 241.097 25.143 241.15 25.3296 241.15Z" fill="#A8DADC"/>
<path d="M87.7195 280.11C87.7195 280.23 87.7228 280.357 87.7295 280.49C87.7361 280.617 87.7561 280.697 87.7895 280.73C87.8361 280.777 87.9995 280.8 88.2795 280.8L88.6195 280.79C88.6795 281.11 88.7095 281.48 88.7095 281.9C88.5828 281.947 88.3961 281.99 88.1495 282.03C87.9095 282.07 87.6795 282.09 87.4595 282.09C86.9995 282.09 86.6428 281.99 86.3895 281.79C86.1428 281.583 86.0195 281.267 86.0195 280.84V278.38H85.2695V277.47L86.0195 277.4L86.4695 276.3L87.7195 276.23V277.4H88.7795V278.38H87.7195V280.11ZM92.0709 276.3V282H90.3209V277.74L89.0809 278L88.8909 276.95L90.6609 276.3H92.0709ZM96.2576 275.32H97.5876L94.1976 283.56H92.8676L96.2576 275.32ZM100.879 276.3V282H99.1295V277.74L97.8895 278L97.6995 276.95L99.4695 276.3H100.879ZM104.796 278.3C105.496 278.3 105.966 278.49 106.206 278.87C106.453 279.25 106.576 279.667 106.576 280.12C106.576 280.733 106.386 281.223 106.006 281.59C105.633 281.95 105.06 282.13 104.286 282.13C103.446 282.13 102.833 281.897 102.446 281.43C102.066 280.963 101.876 280.257 101.876 279.31C101.876 278.297 102.096 277.533 102.536 277.02C102.976 276.507 103.6 276.25 104.406 276.25C104.733 276.25 105.04 276.267 105.326 276.3C105.613 276.333 105.836 276.377 105.996 276.43L105.806 277.49C105.446 277.463 105.193 277.45 105.046 277.45C104.573 277.45 104.213 277.537 103.966 277.71C103.726 277.877 103.586 278.19 103.546 278.65C103.746 278.537 103.96 278.45 104.186 278.39C104.413 278.33 104.616 278.3 104.796 278.3ZM104.246 280.9C104.7 280.9 104.926 280.647 104.926 280.14C104.926 279.907 104.883 279.73 104.796 279.61C104.736 279.543 104.57 279.51 104.296 279.51C104.05 279.51 103.813 279.537 103.586 279.59C103.573 279.71 103.566 279.807 103.566 279.88C103.566 280.16 103.623 280.4 103.736 280.6C103.85 280.8 104.02 280.9 104.246 280.9Z" fill="#A8DADC"/>
<path d="M54.2252 276.3V282H52.4752V277.74L51.2352 278L51.0452 276.95L52.8152 276.3H54.2252ZM58.4119 275.32H59.7419L56.3519 283.56H55.0219L58.4119 275.32ZM63.0338 276.3V282H61.2838V277.74L60.0438 278L59.8538 276.95L61.6238 276.3H63.0338ZM66.9505 278.3C67.6505 278.3 68.1205 278.49 68.3605 278.87C68.6071 279.25 68.7305 279.667 68.7305 280.12C68.7305 280.733 68.5405 281.223 68.1605 281.59C67.7871 281.95 67.2138 282.13 66.4405 282.13C65.6005 282.13 64.9871 281.897 64.6005 281.43C64.2205 280.963 64.0305 280.257 64.0305 279.31C64.0305 278.297 64.2505 277.533 64.6905 277.02C65.1305 276.507 65.7538 276.25 66.5605 276.25C66.8871 276.25 67.1938 276.267 67.4805 276.3C67.7671 276.333 67.9905 276.377 68.1505 276.43L67.9605 277.49C67.6005 277.463 67.3471 277.45 67.2005 277.45C66.7271 277.45 66.3671 277.537 66.1205 277.71C65.8805 277.877 65.7405 278.19 65.7005 278.65C65.9005 278.537 66.1138 278.45 66.3405 278.39C66.5671 278.33 66.7705 278.3 66.9505 278.3ZM66.4005 280.9C66.8538 280.9 67.0805 280.647 67.0805 280.14C67.0805 279.907 67.0371 279.73 66.9505 279.61C66.8905 279.543 66.7238 279.51 66.4505 279.51C66.2038 279.51 65.9671 279.537 65.7405 279.59C65.7271 279.71 65.7205 279.807 65.7205 279.88C65.7205 280.16 65.7771 280.4 65.8905 280.6C66.0038 280.8 66.1738 280.9 66.4005 280.9Z" fill="#A8DADC"/>
<path d="M11.0201 280.64C10.7467 280.64 10.5201 280.55 10.3401 280.37C10.1667 280.19 10.0801 279.947 10.0801 279.64C10.0801 279.373 10.1701 279.15 10.3501 278.97C10.5367 278.783 10.7701 278.69 11.0501 278.69C11.3167 278.69 11.5401 278.783 11.7201 278.97C11.9001 279.15 11.9901 279.373 11.9901 279.64C11.9901 279.947 11.9001 280.19 11.7201 280.37C11.5467 280.55 11.3134 280.64 11.0201 280.64ZM15.6802 276.3V282H13.9302V277.74L12.6902 278L12.5002 276.95L14.2702 276.3H15.6802ZM19.867 275.32H21.197L17.807 283.56H16.477L19.867 275.32ZM24.4888 276.3V282H22.7388V277.74L21.4988 278L21.3088 276.95L23.0788 276.3H24.4888ZM28.4055 278.3C29.1055 278.3 29.5755 278.49 29.8155 278.87C30.0622 279.25 30.1855 279.667 30.1855 280.12C30.1855 280.733 29.9955 281.223 29.6155 281.59C29.2422 281.95 28.6689 282.13 27.8955 282.13C27.0555 282.13 26.4422 281.897 26.0555 281.43C25.6755 280.963 25.4855 280.257 25.4855 279.31C25.4855 278.297 25.7055 277.533 26.1455 277.02C26.5855 276.507 27.2089 276.25 28.0155 276.25C28.3422 276.25 28.6489 276.267 28.9355 276.3C29.2222 276.333 29.4455 276.377 29.6055 276.43L29.4155 277.49C29.0555 277.463 28.8022 277.45 28.6555 277.45C28.1822 277.45 27.8222 277.537 27.5755 277.71C27.3355 277.877 27.1955 278.19 27.1555 278.65C27.3555 278.537 27.5689 278.45 27.7955 278.39C28.0222 278.33 28.2255 278.3 28.4055 278.3ZM27.8555 280.9C28.3089 280.9 28.5355 280.647 28.5355 280.14C28.5355 279.907 28.4922 279.73 28.4055 279.61C28.3455 279.543 28.1789 279.51 27.9055 279.51C27.6589 279.51 27.4222 279.537 27.1955 279.59C27.1822 279.71 27.1755 279.807 27.1755 279.88C27.1755 280.16 27.2322 280.4 27.3455 280.6C27.4589 280.8 27.6289 280.9 27.8555 280.9Z" fill="#A8DADC"/>
<path d="M87.8874 320.11C87.8874 320.23 87.8908 320.357 87.8974 320.49C87.9041 320.617 87.9241 320.697 87.9574 320.73C88.0041 320.777 88.1674 320.8 88.4474 320.8L88.7874 320.79C88.8474 321.11 88.8774 321.48 88.8774 321.9C88.7508 321.947 88.5641 321.99 88.3174 322.03C88.0774 322.07 87.8474 322.09 87.6274 322.09C87.1674 322.09 86.8108 321.99 86.5574 321.79C86.3108 321.583 86.1874 321.267 86.1874 320.84V318.38H85.4374V317.47L86.1874 317.4L86.6374 316.3L87.8874 316.23V317.4H88.9474V318.38H87.8874V320.11ZM92.2388 316.3V322H90.4888V317.74L89.2488 318L89.0588 316.95L90.8288 316.3H92.2388ZM96.4255 315.32H97.7555L94.3655 323.56H93.0355L96.4255 315.32ZM100.987 319.09C101.461 319.123 101.801 319.257 102.007 319.49C102.214 319.723 102.317 320.013 102.317 320.36C102.317 320.86 102.131 321.28 101.757 321.62C101.384 321.953 100.787 322.12 99.9674 322.12C99.4141 322.12 98.7974 322.067 98.1174 321.96L98.3174 320.86C98.9174 320.887 99.3108 320.9 99.4974 320.9C99.8641 320.9 100.131 320.853 100.297 320.76C100.471 320.667 100.557 320.483 100.557 320.21C100.557 320.017 100.494 319.873 100.367 319.78C100.247 319.68 100.074 319.617 99.8474 319.59C99.6208 319.563 99.2974 319.55 98.8774 319.55V318.62C99.2974 318.62 99.6141 318.61 99.8274 318.59C100.047 318.563 100.214 318.507 100.327 318.42C100.447 318.333 100.507 318.197 100.507 318.01C100.507 317.85 100.504 317.723 100.497 317.63C100.491 317.537 100.467 317.477 100.427 317.45C100.374 317.417 100.137 317.4 99.7174 317.4C99.3374 317.4 98.8741 317.413 98.3274 317.44L98.2274 316.38C98.9541 316.28 99.5374 316.23 99.9774 316.23C100.617 316.23 101.141 316.353 101.547 316.6C101.961 316.847 102.167 317.247 102.167 317.8C102.167 318.08 102.074 318.347 101.887 318.6C101.707 318.847 101.407 319 100.987 319.06V319.09ZM107.343 320.67V322H102.953V320.89C103.293 320.617 103.616 320.353 103.923 320.1C104.229 319.84 104.573 319.537 104.953 319.19C105.139 319.023 105.276 318.843 105.363 318.65C105.449 318.457 105.493 318.273 105.493 318.1C105.493 317.92 105.449 317.78 105.363 317.68C105.289 317.607 104.903 317.57 104.203 317.57L103.533 317.58C103.446 317.587 103.339 317.59 103.213 317.59C103.193 317.497 103.169 317.313 103.143 317.04C103.123 316.767 103.113 316.563 103.113 316.43C103.866 316.297 104.493 316.23 104.993 316.23C105.673 316.23 106.213 316.36 106.613 316.62C107.019 316.873 107.223 317.313 107.223 317.94C107.223 318.24 107.146 318.55 106.993 318.87C106.839 319.183 106.539 319.513 106.093 319.86C105.793 320.093 105.399 320.37 104.913 320.69L107.343 320.67Z" fill="#A8DADC"/>
<path d="M54.3931 316.3V322H52.6431V317.74L51.4031 318L51.2131 316.95L52.9831 316.3H54.3931ZM58.5798 315.32H59.9098L56.5198 323.56H55.1898L58.5798 315.32ZM63.1417 319.09C63.6151 319.123 63.9551 319.257 64.1617 319.49C64.3684 319.723 64.4717 320.013 64.4717 320.36C64.4717 320.86 64.2851 321.28 63.9117 321.62C63.5384 321.953 62.9417 322.12 62.1217 322.12C61.5684 322.12 60.9517 322.067 60.2717 321.96L60.4717 320.86C61.0717 320.887 61.4651 320.9 61.6517 320.9C62.0184 320.9 62.2851 320.853 62.4517 320.76C62.6251 320.667 62.7117 320.483 62.7117 320.21C62.7117 320.017 62.6484 319.873 62.5217 319.78C62.4017 319.68 62.2284 319.617 62.0017 319.59C61.7751 319.563 61.4517 319.55 61.0317 319.55V318.62C61.4517 318.62 61.7684 318.61 61.9817 318.59C62.2017 318.563 62.3684 318.507 62.4817 318.42C62.6017 318.333 62.6617 318.197 62.6617 318.01C62.6617 317.85 62.6584 317.723 62.6517 317.63C62.6451 317.537 62.6217 317.477 62.5817 317.45C62.5284 317.417 62.2917 317.4 61.8717 317.4C61.4917 317.4 61.0284 317.413 60.4817 317.44L60.3817 316.38C61.1084 316.28 61.6917 316.23 62.1317 316.23C62.7717 316.23 63.2951 316.353 63.7017 316.6C64.1151 316.847 64.3217 317.247 64.3217 317.8C64.3217 318.08 64.2284 318.347 64.0417 318.6C63.8617 318.847 63.5617 319 63.1417 319.06V319.09ZM69.4969 320.67V322H65.1069V320.89C65.4469 320.617 65.7702 320.353 66.0769 320.1C66.3835 319.84 66.7269 319.537 67.1069 319.19C67.2935 319.023 67.4302 318.843 67.5169 318.65C67.6035 318.457 67.6469 318.273 67.6469 318.1C67.6469 317.92 67.6035 317.78 67.5169 317.68C67.4435 317.607 67.0569 317.57 66.3569 317.57L65.6869 317.58C65.6002 317.587 65.4935 317.59 65.3669 317.59C65.3469 317.497 65.3235 317.313 65.2969 317.04C65.2769 316.767 65.2669 316.563 65.2669 316.43C66.0202 316.297 66.6469 316.23 67.1469 316.23C67.8269 316.23 68.3669 316.36 68.7669 316.62C69.1735 316.873 69.3769 317.313 69.3769 317.94C69.3769 318.24 69.3002 318.55 69.1469 318.87C68.9935 319.183 68.6935 319.513 68.2469 319.86C67.9469 320.093 67.5535 320.37 67.0669 320.69L69.4969 320.67Z" fill="#A8DADC"/>
<path d="M10.188 320.64C9.91471 320.64 9.68805 320.55 9.50805 320.37C9.33471 320.19 9.24805 319.947 9.24805 319.64C9.24805 319.373 9.33805 319.15 9.51805 318.97C9.70471 318.783 9.93805 318.69 10.218 318.69C10.4847 318.69 10.708 318.783 10.888 318.97C11.068 319.15 11.158 319.373 11.158 319.64C11.158 319.947 11.068 320.19 10.888 320.37C10.7147 320.55 10.4814 320.64 10.188 320.64ZM14.8482 316.3V322H13.0982V317.74L11.8582 318L11.6682 316.95L13.4382 316.3H14.8482ZM19.0349 315.32H20.3649L16.9749 323.56H15.6449L19.0349 315.32ZM23.5968 319.09C24.0701 319.123 24.4101 319.257 24.6168 319.49C24.8235 319.723 24.9268 320.013 24.9268 320.36C24.9268 320.86 24.7401 321.28 24.3668 321.62C23.9935 321.953 23.3968 322.12 22.5768 322.12C22.0235 322.12 21.4068 322.067 20.7268 321.96L20.9268 320.86C21.5268 320.887 21.9201 320.9 22.1068 320.9C22.4735 320.9 22.7401 320.853 22.9068 320.76C23.0801 320.667 23.1668 320.483 23.1668 320.21C23.1668 320.017 23.1035 319.873 22.9768 319.78C22.8568 319.68 22.6835 319.617 22.4568 319.59C22.2301 319.563 21.9068 319.55 21.4868 319.55V318.62C21.9068 318.62 22.2235 318.61 22.4368 318.59C22.6568 318.563 22.8235 318.507 22.9368 318.42C23.0568 318.333 23.1168 318.197 23.1168 318.01C23.1168 317.85 23.1135 317.723 23.1068 317.63C23.1001 317.537 23.0768 317.477 23.0368 317.45C22.9835 317.417 22.7468 317.4 22.3268 317.4C21.9468 317.4 21.4835 317.413 20.9368 317.44L20.8368 316.38C21.5635 316.28 22.1468 316.23 22.5868 316.23C23.2268 316.23 23.7501 316.353 24.1568 316.6C24.5701 316.847 24.7768 317.247 24.7768 317.8C24.7768 318.08 24.6835 318.347 24.4968 318.6C24.3168 318.847 24.0168 319 23.5968 319.06V319.09ZM29.952 320.67V322H25.562V320.89C25.902 320.617 26.2253 320.353 26.532 320.1C26.8386 319.84 27.182 319.537 27.562 319.19C27.7486 319.023 27.8853 318.843 27.972 318.65C28.0586 318.457 28.102 318.273 28.102 318.1C28.102 317.92 28.0586 317.78 27.972 317.68C27.8986 317.607 27.512 317.57 26.812 317.57L26.142 317.58C26.0553 317.587 25.9486 317.59 25.822 317.59C25.802 317.497 25.7786 317.313 25.752 317.04C25.732 316.767 25.722 316.563 25.722 316.43C26.4753 316.297 27.102 316.23 27.602 316.23C28.282 316.23 28.822 316.36 29.222 316.62C29.6286 316.873 29.832 317.313 29.832 317.94C29.832 318.24 29.7553 318.55 29.602 318.87C29.4486 319.183 29.1486 319.513 28.702 319.86C28.402 320.093 28.0086 320.37 27.522 320.69L29.952 320.67Z" fill="#A8DADC"/>
<path d="M38.4076 56.06C38.6076 56.06 38.9796 56.04 39.5236 56C39.5956 56 39.7276 55.992 39.9196 55.976L40.0996 57.212C39.4836 57.5 38.6836 57.644 37.6996 57.644C36.7796 57.644 36.0716 57.412 35.5756 56.948C35.0876 56.484 34.8436 55.784 34.8436 54.848C34.8436 54.368 34.9036 53.904 35.0236 53.456C35.1516 53.008 35.2956 52.696 35.4556 52.52C35.6236 52.344 35.9356 52.192 36.3916 52.064C36.8476 51.936 37.2996 51.872 37.7476 51.872C38.4676 51.872 39.0076 52 39.3676 52.256C39.7276 52.512 39.9636 52.868 40.0756 53.324C40.1876 53.772 40.2436 54.376 40.2436 55.136C39.6996 55.168 39.1676 55.184 38.6476 55.184H36.9436C36.9436 55.44 36.9956 55.632 37.0996 55.76C37.2116 55.888 37.3676 55.972 37.5676 56.012C37.7676 56.044 38.0476 56.06 38.4076 56.06ZM37.0636 53.3C37.0156 53.324 36.9796 53.428 36.9556 53.612C36.9316 53.796 36.9156 54.004 36.9076 54.236H37.5316C37.9076 54.236 38.1796 54.232 38.3476 54.224C38.3476 53.84 38.2916 53.568 38.1796 53.408C38.0756 53.248 37.8916 53.168 37.6276 53.168C37.4116 53.168 37.2236 53.212 37.0636 53.3ZM41.9739 54.68L40.5939 51.98H42.5859L43.5819 54.116L44.5899 51.98H46.5699L45.2019 54.68L46.7019 57.5H44.6979L43.5819 55.22L42.4659 57.5H40.4619L41.9739 54.68ZM49.7208 55.232C49.7208 55.376 49.7248 55.528 49.7328 55.688C49.7408 55.84 49.7648 55.936 49.8048 55.976C49.8608 56.032 50.0568 56.06 50.3928 56.06L50.8008 56.048C50.8728 56.432 50.9088 56.876 50.9088 57.38C50.7568 57.436 50.5328 57.488 50.2368 57.536C49.9488 57.584 49.6728 57.608 49.4088 57.608C48.8568 57.608 48.4288 57.488 48.1248 57.248C47.8288 57 47.6808 56.62 47.6808 56.108V53.156H46.7808V52.064L47.6808 51.98L48.2208 50.66L49.7208 50.576V51.98H50.9928V53.156H49.7208V55.232Z" fill="#A8DADC"/>
</svg>
