<svg width="90" height="380" viewBox="0 0 90 380" fill="none" xmlns="http://www.w3.org/2000/svg">
<rect width="90" height="380" fill="#457B9D"/>
<g opacity="0.3">
<path fill-rule="evenodd" clip-rule="evenodd" d="M38.958 375.599C38.803 375.747 38.659 375.851 38.526 375.909C38.393 375.968 38.251 375.998 38.1 375.998C37.948 375.998 37.806 375.97 37.673 375.914C37.54 375.858 37.424 375.781 37.325 375.682C37.109 375.466 37 375.209 37 374.912V369.385C37 369.082 37.078 368.847 37.232 368.68C37.498 368.408 37.75 368.272 37.988 368.272C38.226 368.272 38.404 368.296 38.522 368.346C38.639 368.395 38.738 368.457 38.818 368.531C38.924 368.624 39.002 368.723 39.055 368.828C39.108 368.933 39.151 369.011 39.185 369.06C39.219 369.11 39.275 369.134 39.352 369.134C39.429 369.134 39.496 369.11 39.551 369.06L39.709 368.902C40.16 368.482 40.612 368.272 41.063 368.272C41.861 368.272 42.519 368.599 43.039 369.255C43.088 369.323 43.15 369.357 43.224 369.357C43.354 369.357 43.486 369.256 43.619 369.055C43.752 368.854 43.966 368.674 44.263 368.513C44.56 368.352 44.906 368.272 45.302 368.272C45.698 368.272 46.058 368.344 46.383 368.49C46.707 368.635 46.99 368.834 47.231 369.088C47.738 369.62 47.992 370.263 47.992 371.017V374.912C47.992 375.382 47.769 375.713 47.324 375.905C47.188 375.967 47.044 375.998 46.893 375.998C46.741 375.998 46.599 375.97 46.466 375.914C46.333 375.858 46.217 375.781 46.118 375.682C45.908 375.46 45.803 375.203 45.803 374.912V371.045C45.803 370.736 45.726 370.504 45.571 370.349C45.299 370.077 45.049 369.941 44.82 369.941C44.591 369.941 44.412 369.971 44.282 370.029C44.152 370.088 44.034 370.17 43.929 370.275C43.713 370.492 43.605 370.742 43.605 371.026V374.912C43.605 375.382 43.385 375.713 42.946 375.905C42.81 375.967 42.666 375.998 42.515 375.998C42.363 375.998 42.22 375.97 42.083 375.914C41.947 375.858 41.83 375.781 41.731 375.682C41.515 375.466 41.406 375.209 41.406 374.912V371.045C41.406 370.736 41.329 370.504 41.174 370.349C40.902 370.077 40.618 369.941 40.321 369.941C39.826 369.941 39.483 370.133 39.292 370.516C39.23 370.64 39.199 370.779 39.199 370.934V374.912C39.199 375.215 39.118 375.444 38.958 375.599ZM50.219 369.387C50.219 369.084 50.296 368.849 50.451 368.682C50.716 368.41 51.01 368.274 51.332 368.274C51.641 368.274 51.87 368.355 52.018 368.515C52.29 368.794 52.426 369.084 52.426 369.387V374.915C52.426 375.212 52.349 375.437 52.194 375.592C51.922 375.864 51.672 376 51.443 376C51.214 376 51.032 375.971 50.896 375.912C50.76 375.853 50.642 375.777 50.543 375.685C50.327 375.474 50.219 375.218 50.219 374.915V369.387ZM51.327 365.9C51.065 365.9 50.852 365.687 50.852 365.425C50.852 365.162 51.065 364.95 51.327 364.95C51.589 364.95 51.802 365.162 51.802 365.425C51.802 365.687 51.589 365.9 51.327 365.9ZM51.327 364C51.714 364 52.048 364.142 52.329 364.425C52.611 364.709 52.752 364.996 52.752 365.287C52.752 365.577 52.713 365.807 52.635 365.978C52.558 366.148 52.456 366.297 52.329 366.424C52.048 366.708 51.714 366.849 51.327 366.849C50.94 366.849 50.606 366.708 50.324 366.424C50.043 366.141 49.902 365.857 49.902 365.574C49.902 365.092 50.043 364.709 50.324 364.425C50.606 364.142 50.94 364 51.327 364Z" fill="#1D3557"/>
</g>
<path d="M20.919 18.5544C21.4177 18.613 21.7734 18.7817 21.986 19.0604C22.1987 19.3317 22.305 19.6617 22.305 20.0504C22.305 20.2924 22.2684 20.5234 22.195 20.7434C22.1217 20.956 22.0337 21.1394 21.931 21.2934C21.8284 21.44 21.7404 21.5354 21.667 21.5794C21.3737 21.77 20.479 21.8654 18.983 21.8654H16.849V15.5954H19.434C20.0207 15.5954 20.4937 15.6284 20.853 15.6944C21.2197 15.753 21.5167 15.8924 21.744 16.1124C21.9714 16.325 22.085 16.6514 22.085 17.0914C22.085 17.4727 21.9897 17.7807 21.799 18.0154C21.6157 18.25 21.3224 18.4114 20.919 18.4994V18.5544ZM20.039 16.9264C19.9657 16.853 19.8777 16.809 19.775 16.7944C19.6797 16.7724 19.5257 16.7614 19.313 16.7614C19.1004 16.7614 18.939 16.765 18.829 16.7724V18.1144H18.939C18.9757 18.1144 19.1297 18.1144 19.401 18.1144C19.6724 18.1144 19.852 18.096 19.94 18.0594C20.006 18.03 20.0647 17.953 20.116 17.8284C20.1747 17.7037 20.204 17.568 20.204 17.4214C20.204 17.2014 20.149 17.0364 20.039 16.9264ZM20.226 20.6004C20.2774 20.5564 20.3177 20.4757 20.347 20.3584C20.3837 20.2337 20.402 20.109 20.402 19.9844C20.402 19.8304 20.38 19.6874 20.336 19.5554C20.2994 19.416 20.248 19.317 20.182 19.2584C20.116 19.1924 20.0207 19.1484 19.896 19.1264C19.7787 19.1044 19.577 19.0934 19.291 19.0934C19.1077 19.0934 18.9537 19.097 18.829 19.1044V20.6994C19.1737 20.7067 19.4817 20.703 19.753 20.6884C20.0244 20.6664 20.182 20.637 20.226 20.6004ZM26.2132 15.5624C26.8072 15.5624 27.3095 15.6174 27.7202 15.7274C28.1309 15.8374 28.4572 16.05 28.6992 16.3654C28.9485 16.6734 29.0732 17.117 29.0732 17.6964C29.0732 17.953 29.0329 18.217 28.9522 18.4884C28.8789 18.7524 28.7835 18.9834 28.6662 19.1814C28.5562 19.3794 28.4572 19.5077 28.3692 19.5664C28.2665 19.6397 28.0392 19.6984 27.6872 19.7424C27.3352 19.779 26.9209 19.7974 26.4442 19.7974C26.2755 19.7974 26.0152 19.79 25.6632 19.7754V21.8654H23.6832V15.5954C24.4532 15.5734 25.2965 15.5624 26.2132 15.5624ZM27.0382 18.3894C27.1115 18.294 27.1482 18.1034 27.1482 17.8174C27.1482 17.4434 27.0675 17.1794 26.9062 17.0254C26.7522 16.8714 26.4809 16.7944 26.0922 16.7944C25.9602 16.7944 25.8172 16.8054 25.6632 16.8274V18.4994C25.7365 18.5067 25.8795 18.5104 26.0922 18.5104C26.6569 18.5104 26.9722 18.47 27.0382 18.3894ZM38.409 21.8654H36.561L36.418 18.4114C36.396 17.7294 36.3704 17.2124 36.341 16.8604H36.308C36.22 17.139 36.1174 17.5717 36 18.1584L35.945 18.4334L35.186 21.8654H33.338L32.7 18.7744L32.59 18.2244C32.436 17.5424 32.3297 17.0877 32.271 16.8604H32.238C32.2087 17.227 32.183 17.8247 32.161 18.6534C32.1537 18.7047 32.15 18.7854 32.15 18.8954L32.051 21.8654H30.192L30.456 15.5954H33.602L34.141 18.3014L34.273 19.0274C34.3317 18.8 34.3867 18.547 34.438 18.2684L34.944 15.5954H38.156L38.409 21.8654ZM47.051 21.6564C46.7797 21.7737 46.4643 21.858 46.105 21.9094C45.7457 21.9607 45.412 21.9864 45.104 21.9864C44.1067 21.9864 43.3257 21.726 42.761 21.2054C42.1963 20.6847 41.914 19.8854 41.914 18.8074C41.914 17.7074 42.211 16.886 42.805 16.3434C43.399 15.7934 44.235 15.5184 45.313 15.5184C45.8263 15.5184 46.3617 15.588 46.919 15.7274C46.919 15.874 46.9043 16.094 46.875 16.3874C46.8457 16.6734 46.8163 16.875 46.787 16.9924H46.094C45.588 16.9924 45.1883 17.0034 44.895 17.0254C44.609 17.04 44.4367 17.073 44.378 17.1244C44.268 17.227 44.1837 17.436 44.125 17.7514C44.0663 18.0594 44.037 18.3564 44.037 18.6424C44.037 19.141 44.0993 19.526 44.224 19.7974C44.3487 20.0614 44.5063 20.2374 44.697 20.3254C44.8803 20.4134 45.1847 20.4574 45.61 20.4574C45.9473 20.4574 46.3873 20.428 46.93 20.3694L47.051 21.6564ZM48.3016 15.5954H50.2816V20.4134H52.8446V21.8654H48.3016V15.5954ZM57.1631 22.0084C56.0704 22.0084 55.2491 21.7517 54.6991 21.2384C54.1564 20.7177 53.8851 19.8854 53.8851 18.7414C53.8851 17.6194 54.1857 16.8017 54.7871 16.2884C55.3884 15.775 56.1841 15.5184 57.1741 15.5184C59.2567 15.5184 60.2981 16.556 60.2981 18.6314C60.2981 19.68 60.0414 20.505 59.5281 21.1064C59.0221 21.7077 58.2337 22.0084 57.1631 22.0084ZM57.1191 20.7104C57.3244 20.7104 57.4967 20.6774 57.6361 20.6114C57.7754 20.538 57.8854 20.4134 57.9661 20.2374C58.1201 19.9367 58.1971 19.4454 58.1971 18.7634C58.1971 18.096 58.1201 17.612 57.9661 17.3114C57.8121 17.0034 57.5297 16.842 57.1191 16.8274C56.9651 16.8274 56.8037 16.8457 56.6351 16.8824C56.4737 16.9117 56.3711 16.9557 56.3271 17.0144C56.2391 17.117 56.1694 17.337 56.1181 17.6744C56.0741 18.0044 56.0521 18.3674 56.0521 18.7634C56.0521 19.3794 56.1107 19.8304 56.2281 20.1164C56.3087 20.329 56.4224 20.483 56.5691 20.5784C56.7157 20.6664 56.8991 20.7104 57.1191 20.7104ZM66.6404 21.6564C66.3691 21.7737 66.0538 21.858 65.6944 21.9094C65.3351 21.9607 65.0014 21.9864 64.6934 21.9864C63.6961 21.9864 62.9151 21.726 62.3504 21.2054C61.7858 20.6847 61.5034 19.8854 61.5034 18.8074C61.5034 17.7074 61.8004 16.886 62.3944 16.3434C62.9884 15.7934 63.8244 15.5184 64.9024 15.5184C65.4158 15.5184 65.9511 15.588 66.5084 15.7274C66.5084 15.874 66.4938 16.094 66.4644 16.3874C66.4351 16.6734 66.4058 16.875 66.3764 16.9924H65.6834C65.1774 16.9924 64.7778 17.0034 64.4844 17.0254C64.1984 17.04 64.0261 17.073 63.9674 17.1244C63.8574 17.227 63.7731 17.436 63.7144 17.7514C63.6558 18.0594 63.6264 18.3564 63.6264 18.6424C63.6264 19.141 63.6888 19.526 63.8134 19.7974C63.9381 20.0614 64.0958 20.2374 64.2864 20.3254C64.4698 20.4134 64.7741 20.4574 65.1994 20.4574C65.5368 20.4574 65.9768 20.428 66.5194 20.3694L66.6404 21.6564ZM73.7651 21.8654H71.5981L70.3771 19.5224C70.3551 19.4857 70.2964 19.383 70.2011 19.2144C70.1131 19.0457 70.0141 18.8844 69.9041 18.7304V21.8654H67.9241V15.5954H69.9041V18.4444C70.0288 18.305 70.1351 18.1547 70.2231 17.9934C70.3184 17.8247 70.3734 17.7257 70.3881 17.6964L71.5651 15.5954H73.6551L72.4011 17.6964C72.3791 17.7257 72.3314 17.8027 72.2581 17.9274C72.1848 18.052 72.1041 18.1694 72.0161 18.2794C71.9354 18.382 71.8474 18.4774 71.7521 18.5654C71.8841 18.69 71.9904 18.8147 72.0711 18.9394C72.1591 19.0567 72.2581 19.2144 72.3681 19.4124L73.7651 21.8654Z" fill="white"/>
<rect x="23" y="30" width="45" height="20" rx="5" fill="#36617C"/>
<rect x="54" y="109" width="30" height="20" rx="5" fill="#36617C"/>
<rect x="54" y="145" width="30" height="20" rx="5" fill="#36617C"/>
<path d="M21.0137 80H23.5088C24.6367 80 25.4717 79.4434 25.4717 78.4863C25.4717 77.666 24.8516 77.2461 24.1973 77.1973V77.1436C24.7637 77.0361 25.1982 76.6406 25.1982 75.9814C25.1982 75.166 24.5146 74.668 23.4795 74.668H21.0137V80ZM22.3076 75.5713H23.1523C23.6504 75.5713 23.9189 75.8154 23.9189 76.1914C23.9189 76.582 23.6455 76.8359 22.9814 76.8359H22.3076V75.5713ZM22.3076 77.666H23.2207C23.8359 77.666 24.1436 77.9492 24.1436 78.3887C24.1436 78.8232 23.8555 79.1016 23.0645 79.1016H22.3076V77.666ZM31.5674 76.4746C31.5674 75.4834 30.8789 74.668 29.6094 74.668H27.2559V80H28.5596V78.3301H29.5996C30.8691 78.3301 31.5674 77.4756 31.5674 76.4746ZM30.2393 76.5039C30.2393 77.041 29.9268 77.3828 29.3848 77.3828H28.5547V75.6299H29.3359C29.9072 75.6299 30.2393 75.9473 30.2393 76.5039ZM34.4404 80V76.6504H34.5088L35.7344 79.2188H36.5156L37.7363 76.6504H37.7949V80H38.9766V74.668H37.6387L36.1543 77.7637H36.1104L34.626 74.668H33.2832V80H34.4404Z" fill="white"/>
<path d="M9.28955 285H11.7847C12.9126 285 13.7476 284.443 13.7476 283.486C13.7476 282.666 13.1274 282.246 12.4731 282.197V282.144C13.0396 282.036 13.4741 281.641 13.4741 280.981C13.4741 280.166 12.7905 279.668 11.7554 279.668H9.28955V285ZM10.5835 280.571H11.4282C11.9263 280.571 12.1948 280.815 12.1948 281.191C12.1948 281.582 11.9214 281.836 11.2573 281.836H10.5835V280.571ZM10.5835 282.666H11.4966C12.1118 282.666 12.4194 282.949 12.4194 283.389C12.4194 283.823 12.1313 284.102 11.3403 284.102H10.5835V282.666ZM16.3228 285L16.7085 283.75H18.4907L18.8667 285H20.2534L18.4272 279.668H16.8452L15.0142 285H16.3228ZM17.6362 280.801L18.2466 282.842H16.9526L17.5728 280.801H17.6362ZM24.186 279.668H21.8325V285H23.1167V283.081H23.9419L24.9038 285H26.354L25.231 282.905C25.7192 282.725 26.2466 282.188 26.2466 281.406C26.2466 280.337 25.4849 279.668 24.186 279.668ZM23.1167 282.183V280.62H23.9956C24.5229 280.62 24.894 280.898 24.894 281.416C24.894 281.929 24.5327 282.183 23.981 282.183H23.1167Z" fill="white"/>
<path d="M60.3591 285H62.8542C63.9822 285 64.8171 284.443 64.8171 283.486C64.8171 282.666 64.197 282.246 63.5427 282.197V282.144C64.1091 282.036 64.5437 281.641 64.5437 280.981C64.5437 280.166 63.8601 279.668 62.825 279.668H60.3591V285ZM61.6531 280.571H62.4978C62.9958 280.571 63.2644 280.815 63.2644 281.191C63.2644 281.582 62.991 281.836 62.3269 281.836H61.6531V280.571ZM61.6531 282.666H62.5662C63.1814 282.666 63.489 282.949 63.489 283.389C63.489 283.823 63.2009 284.102 62.4099 284.102H61.6531V282.666ZM70.3513 284.004H67.8953V282.778H70.2V281.851H67.8953V280.664H70.3513V279.668H66.6013V285H70.3513V284.004ZM73.0779 285L73.4636 283.75H75.2458L75.6218 285H77.0085L75.1824 279.668H73.6003L71.7693 285H73.0779ZM74.3914 280.801L75.0017 282.842H73.7078L74.3279 280.801H74.3914ZM80.5164 285V280.688H82.0642V279.668H77.6599V280.688H79.2078V285H80.5164Z" fill="white"/>
<path d="M38.0771 184.668H35.7236V190H37.0078V188.081H37.833L38.7949 190H40.2451L39.1221 187.905C39.6104 187.725 40.1377 187.188 40.1377 186.406C40.1377 185.337 39.376 184.668 38.0771 184.668ZM37.0078 187.183V185.62H37.8867C38.4141 185.62 38.7852 185.898 38.7852 186.416C38.7852 186.929 38.4238 187.183 37.8721 187.183H37.0078ZM44.2754 189.048C43.665 189.048 43.2402 188.687 43.2402 187.998V184.668H41.9268V188.145C41.9268 189.336 42.8301 190.098 44.2754 190.098C45.7207 190.098 46.624 189.331 46.624 188.145V184.668H45.3154V187.998C45.3154 188.682 44.8857 189.048 44.2754 189.048ZM49.8682 190V186.753H49.917L52.2314 190H53.2715V184.668H52.0459V187.886H51.9971L49.6924 184.668H48.6475V190H49.8682Z" fill="white"/>
<path d="M14.1211 189.004H11.665V187.778H13.9697V186.851H11.665V185.664H14.1211V184.668H10.3711V190H14.1211V189.004ZM20.583 184.668H19.123L18.0732 186.484H18.0146L16.9648 184.668H15.4316L17.126 187.314L15.4268 190H16.833L17.9268 188.228H17.9854L19.0791 190H20.5635L18.8203 187.334L20.583 184.668ZM24.5889 190V185.688H26.1367V184.668H21.7324V185.688H23.2803V190H24.5889Z" fill="white"/>
<path d="M14.1211 235.004H11.665V233.778H13.9697V232.851H11.665V231.664H14.1211V230.668H10.3711V236H14.1211V235.004ZM20.583 230.668H19.123L18.0732 232.484H18.0146L16.9648 230.668H15.4316L17.126 233.314L15.4268 236H16.833L17.9268 234.228H17.9854L19.0791 236H20.5635L18.8203 233.334L20.583 230.668ZM24.5889 236V231.688H26.1367V230.668H21.7324V231.688H23.2803V236H24.5889Z" fill="white"/>
<path d="M64.9336 190.098C66.5205 190.098 67.4238 189.126 67.4238 187.637V187.036C67.4238 185.542 66.5156 184.57 64.9287 184.57C63.3467 184.57 62.4385 185.537 62.4385 187.036V187.637C62.4385 189.126 63.3516 190.098 64.9336 190.098ZM64.9336 189.077C64.2061 189.077 63.7715 188.535 63.7715 187.642V187.021C63.7715 186.128 64.2061 185.591 64.9336 185.591C65.6562 185.591 66.0908 186.128 66.0908 187.021V187.642C66.0908 188.535 65.6562 189.077 64.9336 189.077ZM71.5713 189.048C70.9609 189.048 70.5361 188.687 70.5361 187.998V184.668H69.2227V188.145C69.2227 189.336 70.126 190.098 71.5713 190.098C73.0166 190.098 73.9199 189.331 73.9199 188.145V184.668H72.6113V187.998C72.6113 188.682 72.1816 189.048 71.5713 189.048ZM78.292 190V185.688H79.8398V184.668H75.4355V185.688H76.9834V190H78.292Z" fill="white"/>
<path d="M64.9336 236.098C66.5205 236.098 67.4238 235.126 67.4238 233.637V233.036C67.4238 231.542 66.5156 230.57 64.9287 230.57C63.3467 230.57 62.4385 231.537 62.4385 233.036V233.637C62.4385 235.126 63.3516 236.098 64.9336 236.098ZM64.9336 235.077C64.2061 235.077 63.7715 234.535 63.7715 233.642V233.021C63.7715 232.128 64.2061 231.591 64.9336 231.591C65.6562 231.591 66.0908 232.128 66.0908 233.021V233.642C66.0908 234.535 65.6562 235.077 64.9336 235.077ZM71.5713 235.048C70.9609 235.048 70.5361 234.687 70.5361 233.998V230.668H69.2227V234.145C69.2227 235.336 70.126 236.098 71.5713 236.098C73.0166 236.098 73.9199 235.331 73.9199 234.145V230.668H72.6113V233.998C72.6113 234.682 72.1816 235.048 71.5713 235.048ZM78.292 236V231.688H79.8398V230.668H75.4355V231.688H76.9834V236H78.292Z" fill="white"/>
<path d="M38.9951 230.668H36.6416V236H37.9258V234.081H38.751L39.7129 236H41.1631L40.04 233.905C40.5283 233.725 41.0557 233.188 41.0557 232.406C41.0557 231.337 40.2939 230.668 38.9951 230.668ZM37.9258 233.183V231.62H38.8047C39.332 231.62 39.7031 231.898 39.7031 232.416C39.7031 232.929 39.3418 233.183 38.79 233.183H37.9258ZM42.5908 234.447C42.6055 235.346 43.3232 236.098 44.8516 236.098C46.3555 236.098 47.1514 235.385 47.1514 234.384C47.1514 233.446 46.5312 233.036 45.6328 232.86L44.8467 232.709C44.2949 232.597 44.0215 232.436 44.0215 232.123C44.0215 231.781 44.3291 231.522 44.8906 231.522C45.4766 231.522 45.8184 231.815 45.8477 232.187H47.0537C47.0439 231.337 46.3115 230.565 44.8955 230.565C43.5869 230.565 42.7129 231.22 42.7129 232.221C42.7129 233.09 43.2695 233.544 44.2656 233.744L45.0127 233.896C45.5791 234.013 45.8574 234.179 45.8574 234.511C45.8574 234.872 45.5449 235.131 44.9053 235.131C44.2705 235.131 43.8701 234.833 43.8408 234.447H42.5908ZM51.3184 236V231.688H52.8662V230.668H48.4619V231.688H50.0098V236H51.3184Z" fill="white"/>
<path d="M12.238 331.098C13.6394 331.098 14.5183 330.448 14.5183 329.525C14.5183 328.681 13.8494 328.305 13.3171 328.212V328.163C13.8347 328.012 14.2986 327.66 14.2986 326.977C14.2986 326.171 13.5027 325.57 12.2478 325.57C10.988 325.57 10.1921 326.171 10.1921 326.977C10.1921 327.655 10.6462 328.012 11.1736 328.163V328.212C10.6414 328.305 9.96753 328.676 9.96753 329.53C9.96753 330.453 10.8367 331.098 12.238 331.098ZM12.2478 327.826C11.7839 327.826 11.4421 327.538 11.4421 327.128C11.4421 326.723 11.7839 326.444 12.2478 326.444C12.7068 326.444 13.0486 326.723 13.0486 327.128C13.0486 327.538 12.7068 327.826 12.2478 327.826ZM12.2478 330.233C11.696 330.233 11.2712 329.911 11.2712 329.433C11.2712 328.954 11.696 328.627 12.2478 328.627C12.7947 328.627 13.2195 328.954 13.2195 329.433C13.2195 329.911 12.7947 330.233 12.2478 330.233ZM18.7488 331V326.688H20.2966V325.668H15.8923V326.688H17.4402V331H18.7488ZM26.7048 331V325.668H25.3962V327.792H23.2576V325.668H21.949V331H23.2576V328.808H25.3962V331H26.7048Z" fill="white"/>
<path d="M62.5239 331V325.668H61.23L59.897 326.557V327.67L61.1665 326.825H61.23V331H62.5239ZM69.0981 326.981C69.0591 326.337 68.4194 325.575 67.1157 325.575C65.6753 325.575 64.7817 326.532 64.7817 328.432C64.7817 329.198 64.9429 329.774 65.2065 330.189C65.6265 330.834 66.3052 331.098 67.0669 331.098C68.3022 331.098 69.2104 330.409 69.2104 329.213C69.2104 328.08 68.3364 327.509 67.438 327.509C66.7056 327.509 66.2856 327.851 66.1147 328.212H66.0317C65.9976 327.323 66.3882 326.542 67.106 326.542C67.5259 326.542 67.7847 326.757 67.8677 326.981H69.0981ZM66.1782 329.262C66.1782 328.759 66.5347 328.402 67.0669 328.402C67.5601 328.402 67.9604 328.715 67.9604 329.262C67.9604 329.828 67.5796 330.136 67.0669 330.136C66.5542 330.136 66.1782 329.799 66.1782 329.262ZM73.4604 331V326.688H75.0083V325.668H70.604V326.688H72.1519V331H73.4604ZM81.4165 331V325.668H80.1079V327.792H77.9692V325.668H76.6606V331H77.9692V328.808H80.1079V331H81.4165Z" fill="white"/>
<path d="M61.7812 137.947C61.7959 138.846 62.5137 139.598 64.042 139.598C65.5459 139.598 66.3418 138.885 66.3418 137.884C66.3418 136.946 65.7217 136.536 64.8232 136.36L64.0371 136.209C63.4854 136.097 63.2119 135.936 63.2119 135.623C63.2119 135.281 63.5195 135.022 64.0811 135.022C64.667 135.022 65.0088 135.315 65.0381 135.687H66.2441C66.2344 134.837 65.502 134.065 64.0859 134.065C62.7773 134.065 61.9033 134.72 61.9033 135.721C61.9033 136.59 62.46 137.044 63.4561 137.244L64.2031 137.396C64.7695 137.513 65.0479 137.679 65.0479 138.011C65.0479 138.372 64.7354 138.631 64.0957 138.631C63.4609 138.631 63.0605 138.333 63.0312 137.947H61.7812ZM69.4688 139.5V134.168H68.1602V139.5H69.4688ZM76.1113 135.921C76.0771 134.925 75.2617 134.07 73.8115 134.07C72.2197 134.07 71.3311 135.062 71.3311 136.492V137.142C71.3311 138.562 72.1074 139.598 73.7969 139.598C75.291 139.598 76.1162 138.709 76.1162 137.62V136.58H73.8604V137.474H74.8809V137.713C74.8809 138.177 74.4854 138.572 73.8164 138.572C72.9814 138.572 72.6494 137.972 72.6494 137.137V136.507C72.6494 135.633 73.0498 135.101 73.8018 135.101C74.417 135.101 74.7881 135.467 74.8418 135.921H76.1113Z" fill="white"/>
</svg>
