<svg width="90" height="380" viewBox="0 0 90 380" fill="none" xmlns="http://www.w3.org/2000/svg">
<rect width="90" height="380" fill="#457B9D"/>
<g opacity="0.5">
<path fill-rule="evenodd" clip-rule="evenodd" d="M38.958 375.599C38.803 375.747 38.659 375.851 38.526 375.909C38.393 375.968 38.251 375.998 38.1 375.998C37.948 375.998 37.806 375.97 37.673 375.914C37.54 375.858 37.424 375.781 37.325 375.682C37.109 375.466 37 375.209 37 374.912V369.385C37 369.082 37.078 368.847 37.232 368.68C37.498 368.408 37.75 368.272 37.988 368.272C38.226 368.272 38.404 368.296 38.522 368.346C38.639 368.395 38.738 368.457 38.818 368.531C38.924 368.624 39.002 368.723 39.055 368.828C39.108 368.933 39.151 369.011 39.185 369.06C39.219 369.11 39.275 369.134 39.352 369.134C39.429 369.134 39.496 369.11 39.551 369.06L39.709 368.902C40.16 368.482 40.612 368.272 41.063 368.272C41.861 368.272 42.519 368.599 43.039 369.255C43.088 369.323 43.15 369.357 43.224 369.357C43.354 369.357 43.486 369.256 43.619 369.055C43.752 368.854 43.966 368.674 44.263 368.513C44.56 368.352 44.906 368.272 45.302 368.272C45.698 368.272 46.058 368.344 46.383 368.49C46.707 368.635 46.99 368.834 47.231 369.088C47.738 369.62 47.992 370.263 47.992 371.017V374.912C47.992 375.382 47.769 375.713 47.324 375.905C47.188 375.967 47.044 375.998 46.893 375.998C46.741 375.998 46.599 375.97 46.466 375.914C46.333 375.858 46.217 375.781 46.118 375.682C45.908 375.46 45.803 375.203 45.803 374.912V371.045C45.803 370.736 45.726 370.504 45.571 370.349C45.299 370.077 45.049 369.941 44.82 369.941C44.591 369.941 44.412 369.971 44.282 370.029C44.152 370.088 44.034 370.17 43.929 370.275C43.713 370.492 43.605 370.742 43.605 371.026V374.912C43.605 375.382 43.385 375.713 42.946 375.905C42.81 375.967 42.666 375.998 42.515 375.998C42.363 375.998 42.22 375.97 42.083 375.914C41.947 375.858 41.83 375.781 41.731 375.682C41.515 375.466 41.406 375.209 41.406 374.912V371.045C41.406 370.736 41.329 370.504 41.174 370.349C40.902 370.077 40.618 369.941 40.321 369.941C39.826 369.941 39.483 370.133 39.292 370.516C39.23 370.64 39.199 370.779 39.199 370.934V374.912C39.199 375.215 39.118 375.444 38.958 375.599ZM50.219 369.387C50.219 369.084 50.296 368.849 50.451 368.682C50.716 368.41 51.01 368.274 51.332 368.274C51.641 368.274 51.87 368.355 52.018 368.515C52.29 368.794 52.426 369.084 52.426 369.387V374.915C52.426 375.212 52.349 375.437 52.194 375.592C51.922 375.864 51.672 376 51.443 376C51.214 376 51.032 375.971 50.896 375.912C50.76 375.853 50.642 375.777 50.543 375.685C50.327 375.474 50.219 375.218 50.219 374.915V369.387ZM51.327 365.9C51.065 365.9 50.852 365.687 50.852 365.425C50.852 365.162 51.065 364.95 51.327 364.95C51.589 364.95 51.802 365.162 51.802 365.425C51.802 365.687 51.589 365.9 51.327 365.9ZM51.327 364C51.714 364 52.048 364.142 52.329 364.425C52.611 364.709 52.752 364.996 52.752 365.287C52.752 365.577 52.713 365.807 52.635 365.978C52.558 366.148 52.456 366.297 52.329 366.424C52.048 366.708 51.714 366.849 51.327 366.849C50.94 366.849 50.606 366.708 50.324 366.424C50.043 366.141 49.902 365.857 49.902 365.574C49.902 365.092 50.043 364.709 50.324 364.425C50.606 364.142 50.94 364 51.327 364Z" fill="#1D3557"/>
</g>
<path d="M21.1298 19.2534C21.6738 19.3174 22.0618 19.5014 22.2938 19.8054C22.5258 20.1014 22.6418 20.4614 22.6418 20.8854C22.6418 21.1494 22.6018 21.4014 22.5218 21.6414C22.4418 21.8734 22.3458 22.0734 22.2338 22.2414C22.1218 22.4014 22.0258 22.5054 21.9458 22.5534C21.6258 22.7614 20.6498 22.8654 19.0178 22.8654H16.6898V16.0254H19.5098C20.1498 16.0254 20.6658 16.0614 21.0578 16.1334C21.4578 16.1974 21.7818 16.3494 22.0298 16.5894C22.2778 16.8214 22.4018 17.1774 22.4018 17.6574C22.4018 18.0734 22.2978 18.4094 22.0898 18.6654C21.8898 18.9214 21.5698 19.0974 21.1298 19.1934V19.2534ZM20.1698 17.4774C20.0898 17.3974 19.9938 17.3494 19.8818 17.3334C19.7778 17.3094 19.6098 17.2974 19.3778 17.2974C19.1458 17.2974 18.9698 17.3014 18.8498 17.3094V18.7734H18.9698C19.0098 18.7734 19.1778 18.7734 19.4738 18.7734C19.7698 18.7734 19.9658 18.7534 20.0618 18.7134C20.1338 18.6814 20.1978 18.5974 20.2538 18.4614C20.3178 18.3254 20.3498 18.1774 20.3498 18.0174C20.3498 17.7774 20.2898 17.5974 20.1698 17.4774ZM20.3738 21.4854C20.4298 21.4374 20.4738 21.3494 20.5058 21.2214C20.5458 21.0854 20.5658 20.9494 20.5658 20.8134C20.5658 20.6454 20.5418 20.4894 20.4938 20.3454C20.4538 20.1934 20.3978 20.0854 20.3258 20.0214C20.2538 19.9494 20.1498 19.9014 20.0138 19.8774C19.8858 19.8534 19.6658 19.8414 19.3538 19.8414C19.1538 19.8414 18.9858 19.8454 18.8498 19.8534V21.5934C19.2258 21.6014 19.5618 21.5974 19.8578 21.5814C20.1538 21.5574 20.3258 21.5254 20.3738 21.4854ZM26.3053 15.9894C26.9533 15.9894 27.5013 16.0494 27.9493 16.1694C28.3973 16.2894 28.7533 16.5214 29.0173 16.8654C29.2893 17.2014 29.4253 17.6854 29.4253 18.3174C29.4253 18.5974 29.3813 18.8854 29.2933 19.1814C29.2133 19.4694 29.1093 19.7214 28.9813 19.9374C28.8613 20.1534 28.7533 20.2934 28.6573 20.3574C28.5453 20.4374 28.2973 20.5014 27.9133 20.5494C27.5293 20.5894 27.0773 20.6094 26.5573 20.6094C26.3733 20.6094 26.0893 20.6014 25.7053 20.5854V22.8654H23.5453V16.0254C24.3853 16.0014 25.3053 15.9894 26.3053 15.9894ZM27.2053 19.0734C27.2853 18.9694 27.3253 18.7614 27.3253 18.4494C27.3253 18.0414 27.2373 17.7534 27.0613 17.5854C26.8933 17.4174 26.5973 17.3334 26.1733 17.3334C26.0293 17.3334 25.8733 17.3454 25.7053 17.3694V19.1934C25.7853 19.2014 25.9413 19.2054 26.1733 19.2054C26.7893 19.2054 27.1333 19.1614 27.2053 19.0734ZM39.0098 22.8654H36.9938L36.8378 19.0974C36.8138 18.3534 36.7858 17.7894 36.7538 17.4054H36.7178C36.6218 17.7094 36.5098 18.1814 36.3818 18.8214L36.3218 19.1214L35.4938 22.8654H33.4778L32.7818 19.4934L32.6618 18.8934C32.4938 18.1494 32.3778 17.6534 32.3138 17.4054H32.2778C32.2458 17.8054 32.2178 18.4574 32.1938 19.3614C32.1858 19.4174 32.1818 19.5054 32.1818 19.6254L32.0738 22.8654H30.0458L30.3338 16.0254H33.7658L34.3538 18.9774L34.4978 19.7694C34.5618 19.5214 34.6218 19.2454 34.6778 18.9414L35.2298 16.0254H38.7338L39.0098 22.8654ZM47.2374 22.6374C46.9414 22.7654 46.5974 22.8574 46.2054 22.9134C45.8134 22.9694 45.4494 22.9974 45.1134 22.9974C44.0254 22.9974 43.1734 22.7134 42.5574 22.1454C41.9414 21.5774 41.6334 20.7054 41.6334 19.5294C41.6334 18.3294 41.9574 17.4334 42.6054 16.8414C43.2534 16.2414 44.1654 15.9414 45.3414 15.9414C45.9014 15.9414 46.4854 16.0174 47.0934 16.1694C47.0934 16.3294 47.0774 16.5694 47.0454 16.8894C47.0134 17.2014 46.9814 17.4214 46.9494 17.5494H46.1934C45.6414 17.5494 45.2054 17.5614 44.8854 17.5854C44.5734 17.6014 44.3854 17.6374 44.3214 17.6934C44.2014 17.8054 44.1094 18.0334 44.0454 18.3774C43.9814 18.7134 43.9494 19.0374 43.9494 19.3494C43.9494 19.8934 44.0174 20.3134 44.1534 20.6094C44.2894 20.8974 44.4614 21.0894 44.6694 21.1854C44.8694 21.2814 45.2014 21.3294 45.6654 21.3294C46.0334 21.3294 46.5134 21.2974 47.1054 21.2334L47.2374 22.6374ZM48.0018 16.0254H50.1618V21.2814H52.9578V22.8654H48.0018V16.0254ZM57.0688 23.0214C55.8768 23.0214 54.9808 22.7414 54.3808 22.1814C53.7888 21.6134 53.4928 20.7054 53.4928 19.4574C53.4928 18.2334 53.8208 17.3414 54.4768 16.7814C55.1328 16.2214 56.0008 15.9414 57.0808 15.9414C59.3528 15.9414 60.4888 17.0734 60.4888 19.3374C60.4888 20.4814 60.2088 21.3814 59.6488 22.0374C59.0968 22.6934 58.2368 23.0214 57.0688 23.0214ZM57.0208 21.6054C57.2448 21.6054 57.4328 21.5694 57.5848 21.4974C57.7368 21.4174 57.8568 21.2814 57.9448 21.0894C58.1128 20.7614 58.1968 20.2254 58.1968 19.4814C58.1968 18.7534 58.1128 18.2254 57.9448 17.8974C57.7768 17.5614 57.4688 17.3854 57.0208 17.3694C56.8528 17.3694 56.6768 17.3894 56.4928 17.4294C56.3168 17.4614 56.2048 17.5094 56.1568 17.5734C56.0608 17.6854 55.9848 17.9254 55.9288 18.2934C55.8808 18.6534 55.8568 19.0494 55.8568 19.4814C55.8568 20.1534 55.9208 20.6454 56.0488 20.9574C56.1368 21.1894 56.2608 21.3574 56.4208 21.4614C56.5808 21.5574 56.7808 21.6054 57.0208 21.6054ZM66.8078 22.6374C66.5118 22.7654 66.1678 22.8574 65.7758 22.9134C65.3838 22.9694 65.0198 22.9974 64.6838 22.9974C63.5958 22.9974 62.7438 22.7134 62.1278 22.1454C61.5118 21.5774 61.2038 20.7054 61.2038 19.5294C61.2038 18.3294 61.5278 17.4334 62.1758 16.8414C62.8238 16.2414 63.7358 15.9414 64.9118 15.9414C65.4718 15.9414 66.0558 16.0174 66.6638 16.1694C66.6638 16.3294 66.6478 16.5694 66.6158 16.8894C66.5838 17.2014 66.5518 17.4214 66.5198 17.5494H65.7638C65.2118 17.5494 64.7758 17.5614 64.4558 17.5854C64.1438 17.6014 63.9558 17.6374 63.8918 17.6934C63.7718 17.8054 63.6798 18.0334 63.6158 18.3774C63.5518 18.7134 63.5198 19.0374 63.5198 19.3494C63.5198 19.8934 63.5878 20.3134 63.7238 20.6094C63.8598 20.8974 64.0318 21.0894 64.2398 21.1854C64.4398 21.2814 64.7718 21.3294 65.2358 21.3294C65.6038 21.3294 66.0838 21.2974 66.6758 21.2334L66.8078 22.6374ZM73.9801 22.8654H71.6161L70.2841 20.3094C70.2601 20.2694 70.1961 20.1574 70.0921 19.9734C69.9961 19.7894 69.8881 19.6134 69.7681 19.4454V22.8654H67.6081V16.0254H69.7681V19.1334C69.9041 18.9814 70.0201 18.8174 70.1161 18.6414C70.2201 18.4574 70.2801 18.3494 70.2961 18.3174L71.5801 16.0254H73.8601L72.4921 18.3174C72.4681 18.3494 72.4161 18.4334 72.3361 18.5694C72.2561 18.7054 72.1681 18.8334 72.0721 18.9534C71.9841 19.0654 71.8881 19.1694 71.7841 19.2654C71.9281 19.4014 72.0441 19.5374 72.1321 19.6734C72.2281 19.8014 72.3361 19.9734 72.4561 20.1894L73.9801 22.8654Z" fill="#A8DADC"/>
<rect x="23" y="40" width="45" height="20" rx="5" fill="#36617C"/>
<rect x="54" y="119" width="30" height="20" rx="5" fill="#36617C"/>
<rect x="54" y="155" width="30" height="20" rx="5" fill="#36617C"/>
<path d="M63.3445 85.36C63.9685 85.36 64.4485 85.548 64.7845 85.924C65.1285 86.3 65.3005 86.964 65.3005 87.916C65.3005 88.612 65.2285 89.208 65.0845 89.704C64.9485 90.192 64.7925 90.504 64.6165 90.64C64.4085 90.808 64.1005 90.932 63.6925 91.012C63.2845 91.092 62.8205 91.132 62.3005 91.132C61.9005 91.132 61.4525 91.1 60.9565 91.036C60.4605 90.98 60.0165 90.888 59.6245 90.76V83.8L61.7005 83.716V84.844C61.7005 84.908 61.6965 85.056 61.6885 85.288C61.6885 85.52 61.6805 85.716 61.6645 85.876C61.6485 86.028 61.6245 86.144 61.5925 86.224L61.6645 86.308C61.8485 86.028 62.0805 85.8 62.3605 85.624C62.6405 85.448 62.9685 85.36 63.3445 85.36ZM63.0085 89.692C63.0565 89.612 63.0965 89.424 63.1285 89.128C63.1685 88.832 63.1885 88.548 63.1885 88.276C63.1885 87.956 63.1725 87.704 63.1405 87.52C63.1165 87.336 63.0485 87.192 62.9365 87.088C62.8325 86.976 62.6685 86.92 62.4445 86.92C62.2445 86.92 61.9885 86.948 61.6765 87.004V89.716C61.9725 89.764 62.2805 89.788 62.6005 89.788C62.8325 89.788 62.9685 89.756 63.0085 89.692ZM69.8856 85.36C70.4616 85.36 70.9176 85.552 71.2536 85.936C71.5976 86.312 71.7696 86.972 71.7696 87.916C71.7696 88.62 71.7016 89.196 71.5656 89.644C71.4296 90.084 71.2736 90.376 71.0976 90.52C70.9216 90.664 70.6136 90.78 70.1736 90.868C69.7416 90.956 69.2936 91 68.8296 91C68.6936 91 68.4656 90.992 68.1456 90.976V92.68L66.0936 92.764V85.48H67.7736L67.9776 86.332C68.1856 86.036 68.4496 85.8 68.7696 85.624C69.0976 85.448 69.4696 85.36 69.8856 85.36ZM69.4056 89.536C69.4936 89.472 69.5576 89.292 69.5976 88.996C69.6376 88.692 69.6576 88.404 69.6576 88.132C69.6576 87.684 69.6016 87.352 69.4896 87.136C69.3776 86.92 69.1536 86.812 68.8176 86.812C68.5776 86.812 68.3536 86.836 68.1456 86.884V89.548L68.4816 89.584C68.5856 89.592 68.7336 89.596 68.9256 89.596C69.1976 89.596 69.3576 89.576 69.4056 89.536ZM81.202 85.864C81.33 86.056 81.394 86.8 81.394 88.096V91H79.342V88.3V87.652C79.342 87.356 79.314 87.18 79.258 87.124C79.194 87.06 79.058 87.028 78.85 87.028L78.706 87.04C78.458 87.056 78.222 87.112 77.998 87.208C78.006 87.376 78.01 87.672 78.01 88.096V91H75.958V88.3V87.58C75.958 87.332 75.93 87.18 75.874 87.124C75.81 87.06 75.674 87.028 75.466 87.028L75.322 87.04C75.098 87.048 74.866 87.1 74.626 87.196V91H72.574V85.48H74.242L74.458 86.38C74.722 86.028 75.026 85.772 75.37 85.612C75.714 85.444 76.062 85.36 76.414 85.36C76.71 85.36 76.99 85.404 77.254 85.492C77.526 85.58 77.714 85.704 77.818 85.864C77.866 85.936 77.906 86.068 77.938 86.26C78.194 85.948 78.486 85.72 78.814 85.576C79.142 85.432 79.47 85.36 79.798 85.36C80.094 85.36 80.374 85.404 80.638 85.492C80.91 85.58 81.098 85.704 81.202 85.864Z" fill="#A8DADC"/>
<path d="M13.4017 270.699C14.0257 270.699 14.5057 270.887 14.8417 271.263C15.1857 271.639 15.3577 272.303 15.3577 273.255C15.3577 273.951 15.2857 274.547 15.1417 275.043C15.0057 275.531 14.8497 275.843 14.6737 275.979C14.4657 276.147 14.1577 276.271 13.7497 276.351C13.3417 276.431 12.8777 276.471 12.3577 276.471C11.9577 276.471 11.5097 276.439 11.0137 276.375C10.5177 276.319 10.0737 276.227 9.68166 276.099V269.139L11.7577 269.055V270.183C11.7577 270.247 11.7537 270.395 11.7457 270.627C11.7457 270.859 11.7377 271.055 11.7217 271.215C11.7057 271.367 11.6817 271.483 11.6497 271.563L11.7217 271.647C11.9057 271.367 12.1377 271.139 12.4177 270.963C12.6977 270.787 13.0257 270.699 13.4017 270.699ZM13.0657 275.031C13.1137 274.951 13.1537 274.763 13.1857 274.467C13.2257 274.171 13.2457 273.887 13.2457 273.615C13.2457 273.295 13.2297 273.043 13.1977 272.859C13.1737 272.675 13.1057 272.531 12.9937 272.427C12.8897 272.315 12.7257 272.259 12.5017 272.259C12.3017 272.259 12.0457 272.287 11.7337 272.343V275.055C12.0297 275.103 12.3377 275.127 12.6577 275.127C12.8897 275.127 13.0257 275.095 13.0657 275.031ZM19.4387 276.339L19.2467 275.583C18.8787 276.183 18.3667 276.483 17.7107 276.483C17.1747 276.483 16.7347 276.335 16.3907 276.039C16.0547 275.735 15.8867 275.311 15.8867 274.767C15.8867 274.431 15.9827 274.139 16.1747 273.891C16.3747 273.635 16.6467 273.455 16.9907 273.351C17.4387 273.223 18.1307 273.151 19.0667 273.135C19.0667 272.607 19.0427 272.327 18.9947 272.295C18.9547 272.263 18.8267 272.247 18.6107 272.247C18.4747 272.247 18.2867 272.255 18.0467 272.271C17.6627 272.287 17.1427 272.331 16.4867 272.403C16.4227 271.971 16.3747 271.507 16.3427 271.011C16.7667 270.923 17.2107 270.851 17.6747 270.795C18.1387 270.731 18.5547 270.699 18.9227 270.699C19.5627 270.699 20.0427 270.807 20.3627 271.023C20.6827 271.231 20.8907 271.507 20.9867 271.851C21.0827 272.195 21.1267 272.631 21.1187 273.159L21.1067 274.923L21.1427 276.339H19.4387ZM18.4067 275.139C18.6147 275.139 18.8347 275.099 19.0667 275.019V274.131H18.9707C18.3787 274.131 18.0507 274.163 17.9867 274.227C17.9467 274.267 17.9147 274.327 17.8907 274.407C17.8747 274.487 17.8667 274.563 17.8667 274.635C17.8667 274.827 17.9107 274.959 17.9987 275.031C18.0867 275.103 18.2227 275.139 18.4067 275.139ZM25.4652 270.699C25.5692 270.699 25.6772 270.711 25.7892 270.735C25.9092 270.759 25.9972 270.787 26.0532 270.819C26.0532 270.995 26.0332 271.287 25.9932 271.695C25.9532 272.095 25.9172 272.379 25.8852 272.547C25.8052 272.539 25.6572 272.535 25.4412 272.535C24.9372 272.535 24.4892 272.563 24.0972 272.619V276.339H22.0452V270.819H23.7612L24.0012 271.707H24.0132C24.2452 271.403 24.4932 271.159 24.7572 270.975C25.0212 270.791 25.2572 270.699 25.4652 270.699Z" fill="#A8DADC"/>
<path d="M63.814 270.829C64.438 270.829 64.918 271.017 65.254 271.393C65.598 271.769 65.77 272.433 65.77 273.385C65.77 274.081 65.698 274.677 65.554 275.173C65.418 275.661 65.262 275.973 65.086 276.109C64.878 276.277 64.57 276.401 64.162 276.481C63.754 276.561 63.29 276.601 62.77 276.601C62.37 276.601 61.922 276.569 61.426 276.505C60.93 276.449 60.486 276.357 60.094 276.229V269.269L62.17 269.185V270.313C62.17 270.377 62.166 270.525 62.158 270.757C62.158 270.989 62.15 271.185 62.134 271.345C62.118 271.497 62.094 271.613 62.062 271.693L62.134 271.777C62.318 271.497 62.55 271.269 62.83 271.093C63.11 270.917 63.438 270.829 63.814 270.829ZM63.478 275.161C63.526 275.081 63.566 274.893 63.598 274.597C63.638 274.301 63.658 274.017 63.658 273.745C63.658 273.425 63.642 273.173 63.61 272.989C63.586 272.805 63.518 272.661 63.406 272.557C63.302 272.445 63.138 272.389 62.914 272.389C62.714 272.389 62.458 272.417 62.146 272.473V275.185C62.442 275.233 62.75 275.257 63.07 275.257C63.302 275.257 63.438 275.225 63.478 275.161ZM69.911 275.029C70.111 275.029 70.483 275.009 71.027 274.969C71.099 274.969 71.231 274.961 71.423 274.945L71.603 276.181C70.987 276.469 70.187 276.613 69.203 276.613C68.283 276.613 67.575 276.381 67.079 275.917C66.591 275.453 66.347 274.753 66.347 273.817C66.347 273.337 66.407 272.873 66.527 272.425C66.655 271.977 66.799 271.665 66.959 271.489C67.127 271.313 67.439 271.161 67.895 271.033C68.351 270.905 68.803 270.841 69.251 270.841C69.971 270.841 70.511 270.969 70.871 271.225C71.231 271.481 71.467 271.837 71.579 272.293C71.691 272.741 71.747 273.345 71.747 274.105C71.203 274.137 70.671 274.153 70.151 274.153H68.447C68.447 274.409 68.499 274.601 68.603 274.729C68.715 274.857 68.871 274.941 69.071 274.981C69.271 275.013 69.551 275.029 69.911 275.029ZM68.567 272.269C68.519 272.293 68.483 272.397 68.459 272.581C68.435 272.765 68.419 272.973 68.411 273.205H69.035C69.411 273.205 69.683 273.201 69.851 273.193C69.851 272.809 69.795 272.537 69.683 272.377C69.579 272.217 69.395 272.137 69.131 272.137C68.915 272.137 68.727 272.181 68.567 272.269ZM75.7573 276.469L75.5653 275.713C75.1973 276.313 74.6853 276.613 74.0293 276.613C73.4933 276.613 73.0533 276.465 72.7093 276.169C72.3733 275.865 72.2053 275.441 72.2053 274.897C72.2053 274.561 72.3013 274.269 72.4933 274.021C72.6933 273.765 72.9653 273.585 73.3093 273.481C73.7573 273.353 74.4493 273.281 75.3853 273.265C75.3853 272.737 75.3613 272.457 75.3133 272.425C75.2733 272.393 75.1453 272.377 74.9293 272.377C74.7933 272.377 74.6053 272.385 74.3653 272.401C73.9813 272.417 73.4613 272.461 72.8053 272.533C72.7413 272.101 72.6933 271.637 72.6613 271.141C73.0853 271.053 73.5293 270.981 73.9933 270.925C74.4573 270.861 74.8733 270.829 75.2413 270.829C75.8813 270.829 76.3613 270.937 76.6813 271.153C77.0013 271.361 77.2093 271.637 77.3053 271.981C77.4013 272.325 77.4453 272.761 77.4373 273.289L77.4253 275.053L77.4613 276.469H75.7573ZM74.7253 275.269C74.9333 275.269 75.1533 275.229 75.3853 275.149V274.261H75.2893C74.6973 274.261 74.3693 274.293 74.3053 274.357C74.2653 274.397 74.2333 274.457 74.2093 274.537C74.1933 274.617 74.1853 274.693 74.1853 274.765C74.1853 274.957 74.2293 275.089 74.3173 275.161C74.4053 275.233 74.5413 275.269 74.7253 275.269ZM80.9078 274.201C80.9078 274.345 80.9118 274.497 80.9198 274.657C80.9278 274.809 80.9518 274.905 80.9918 274.945C81.0478 275.001 81.2438 275.029 81.5798 275.029L81.9878 275.017C82.0598 275.401 82.0958 275.845 82.0958 276.349C81.9438 276.405 81.7198 276.457 81.4238 276.505C81.1358 276.553 80.8598 276.577 80.5958 276.577C80.0438 276.577 79.6158 276.457 79.3118 276.217C79.0158 275.969 78.8678 275.589 78.8678 275.077V272.125H77.9678V271.033L78.8678 270.949L79.4078 269.629L80.9078 269.545V270.949H82.1798V272.125H80.9078V274.201Z" fill="#A8DADC"/>
<path d="M40.1347 191.36C40.2387 191.36 40.3467 191.372 40.4587 191.396C40.5787 191.42 40.6667 191.448 40.7227 191.48C40.7227 191.656 40.7027 191.948 40.6627 192.356C40.6227 192.756 40.5867 193.04 40.5547 193.208C40.4747 193.2 40.3267 193.196 40.1107 193.196C39.6067 193.196 39.1587 193.224 38.7667 193.28V197H36.7147V191.48H38.4307L38.6707 192.368H38.6827C38.9147 192.064 39.1627 191.82 39.4267 191.636C39.6907 191.452 39.9267 191.36 40.1347 191.36ZM46.7815 191.48V197H45.1135L44.8855 196.076C44.3095 196.772 43.6215 197.12 42.8215 197.12C42.5335 197.12 42.2615 197.08 42.0055 197C41.7575 196.92 41.5695 196.804 41.4415 196.652C41.3695 196.564 41.3135 196.344 41.2735 195.992C41.2415 195.64 41.2255 195.104 41.2255 194.384V191.48H43.2775V194.36C43.2775 194.52 43.2815 194.708 43.2895 194.924C43.2975 195.14 43.3215 195.276 43.3615 195.332C43.4175 195.412 43.5775 195.452 43.8415 195.452L44.0335 195.44C44.2575 195.432 44.4895 195.38 44.7295 195.284V191.48H46.7815ZM53.1054 191.828C53.1774 191.916 53.2294 192.136 53.2614 192.488C53.3014 192.84 53.3214 193.376 53.3214 194.096V197H51.2694V194.12V193.628C51.2694 193.372 51.2494 193.212 51.2094 193.148C51.1454 193.068 50.9974 193.028 50.7654 193.028C50.6534 193.028 50.5694 193.032 50.5134 193.04C50.2894 193.048 50.0574 193.1 49.8174 193.196V197H47.7654V191.48H49.4334L49.6614 192.404C50.2374 191.708 50.9254 191.36 51.7254 191.36C52.0134 191.36 52.2814 191.4 52.5294 191.48C52.7854 191.56 52.9774 191.676 53.1054 191.828Z" fill="#A8DADC"/>
<path d="M14.0666 195.56C14.2666 195.56 14.6386 195.54 15.1826 195.5C15.2546 195.5 15.3866 195.492 15.5786 195.476L15.7586 196.712C15.1426 197 14.3426 197.144 13.3586 197.144C12.4386 197.144 11.7306 196.912 11.2346 196.448C10.7466 195.984 10.5026 195.284 10.5026 194.348C10.5026 193.868 10.5626 193.404 10.6826 192.956C10.8106 192.508 10.9546 192.196 11.1146 192.02C11.2826 191.844 11.5946 191.692 12.0506 191.564C12.5066 191.436 12.9586 191.372 13.4066 191.372C14.1266 191.372 14.6666 191.5 15.0266 191.756C15.3866 192.012 15.6226 192.368 15.7346 192.824C15.8466 193.272 15.9026 193.876 15.9026 194.636C15.3586 194.668 14.8266 194.684 14.3066 194.684H12.6026C12.6026 194.94 12.6546 195.132 12.7586 195.26C12.8706 195.388 13.0266 195.472 13.2266 195.512C13.4266 195.544 13.7066 195.56 14.0666 195.56ZM12.7226 192.8C12.6746 192.824 12.6386 192.928 12.6146 193.112C12.5906 193.296 12.5746 193.504 12.5666 193.736H13.1906C13.5666 193.736 13.8386 193.732 14.0066 193.724C14.0066 193.34 13.9506 193.068 13.8386 192.908C13.7346 192.748 13.5506 192.668 13.2866 192.668C13.0706 192.668 12.8826 192.712 12.7226 192.8ZM17.6328 194.18L16.2528 191.48H18.2448L19.2408 193.616L20.2488 191.48H22.2288L20.8608 194.18L22.3608 197H20.3568L19.2408 194.72L18.1248 197H16.1208L17.6328 194.18ZM25.3798 194.732C25.3798 194.876 25.3838 195.028 25.3918 195.188C25.3998 195.34 25.4238 195.436 25.4638 195.476C25.5198 195.532 25.7158 195.56 26.0518 195.56L26.4598 195.548C26.5318 195.932 26.5678 196.376 26.5678 196.88C26.4158 196.936 26.1918 196.988 25.8958 197.036C25.6078 197.084 25.3318 197.108 25.0678 197.108C24.5158 197.108 24.0878 196.988 23.7838 196.748C23.4878 196.5 23.3398 196.12 23.3398 195.608V192.656H22.4398V191.564L23.3398 191.48L23.8798 190.16L25.3798 190.076V191.48H26.6518V192.656H25.3798V194.732Z" fill="#A8DADC"/>
<path d="M14.0666 233.56C14.2666 233.56 14.6386 233.54 15.1826 233.5C15.2546 233.5 15.3866 233.492 15.5786 233.476L15.7586 234.712C15.1426 235 14.3426 235.144 13.3586 235.144C12.4386 235.144 11.7306 234.912 11.2346 234.448C10.7466 233.984 10.5026 233.284 10.5026 232.348C10.5026 231.868 10.5626 231.404 10.6826 230.956C10.8106 230.508 10.9546 230.196 11.1146 230.02C11.2826 229.844 11.5946 229.692 12.0506 229.564C12.5066 229.436 12.9586 229.372 13.4066 229.372C14.1266 229.372 14.6666 229.5 15.0266 229.756C15.3866 230.012 15.6226 230.368 15.7346 230.824C15.8466 231.272 15.9026 231.876 15.9026 232.636C15.3586 232.668 14.8266 232.684 14.3066 232.684H12.6026C12.6026 232.94 12.6546 233.132 12.7586 233.26C12.8706 233.388 13.0266 233.472 13.2266 233.512C13.4266 233.544 13.7066 233.56 14.0666 233.56ZM12.7226 230.8C12.6746 230.824 12.6386 230.928 12.6146 231.112C12.5906 231.296 12.5746 231.504 12.5666 231.736H13.1906C13.5666 231.736 13.8386 231.732 14.0066 231.724C14.0066 231.34 13.9506 231.068 13.8386 230.908C13.7346 230.748 13.5506 230.668 13.2866 230.668C13.0706 230.668 12.8826 230.712 12.7226 230.8ZM17.6328 232.18L16.2528 229.48H18.2448L19.2408 231.616L20.2488 229.48H22.2288L20.8608 232.18L22.3608 235H20.3568L19.2408 232.72L18.1248 235H16.1208L17.6328 232.18ZM25.3798 232.732C25.3798 232.876 25.3838 233.028 25.3918 233.188C25.3998 233.34 25.4238 233.436 25.4638 233.476C25.5198 233.532 25.7158 233.56 26.0518 233.56L26.4598 233.548C26.5318 233.932 26.5678 234.376 26.5678 234.88C26.4158 234.936 26.1918 234.988 25.8958 235.036C25.6078 235.084 25.3318 235.108 25.0678 235.108C24.5158 235.108 24.0878 234.988 23.7838 234.748C23.4878 234.5 23.3398 234.12 23.3398 233.608V230.656H22.4398V229.564L23.3398 229.48L23.8798 228.16L25.3798 228.076V229.48H26.6518V230.656H25.3798V232.732Z" fill="#A8DADC"/>
<path d="M65.5076 197.156C64.5476 197.156 63.8276 196.932 63.3476 196.484C62.8756 196.028 62.6396 195.312 62.6396 194.336C62.6396 193.8 62.6876 193.332 62.7836 192.932C62.8876 192.524 63.0116 192.24 63.1556 192.08C63.3396 191.872 63.6756 191.7 64.1636 191.564C64.6596 191.428 65.1236 191.36 65.5556 191.36C66.5876 191.36 67.3236 191.58 67.7636 192.02C68.2036 192.46 68.4236 193.164 68.4236 194.132C68.4236 195.172 68.1876 195.936 67.7156 196.424C67.2436 196.912 66.5076 197.156 65.5076 197.156ZM65.5436 195.752C65.8556 195.752 66.0596 195.644 66.1556 195.428C66.2516 195.204 66.2996 194.812 66.2996 194.252C66.2996 193.86 66.2796 193.56 66.2396 193.352C66.1996 193.136 66.1236 192.98 66.0116 192.884C65.9076 192.78 65.7436 192.728 65.5196 192.728C65.1996 192.728 65.0156 192.756 64.9676 192.812C64.9036 192.868 64.8516 193.044 64.8116 193.34C64.7716 193.636 64.7516 193.944 64.7516 194.264C64.7516 194.808 64.8036 195.192 64.9076 195.416C65.0196 195.64 65.2316 195.752 65.5436 195.752ZM74.7268 191.48V197H73.0588L72.8308 196.076C72.2548 196.772 71.5668 197.12 70.7668 197.12C70.4788 197.12 70.2068 197.08 69.9508 197C69.7028 196.92 69.5148 196.804 69.3868 196.652C69.3148 196.564 69.2588 196.344 69.2188 195.992C69.1868 195.64 69.1708 195.104 69.1708 194.384V191.48H71.2228V194.36C71.2228 194.52 71.2268 194.708 71.2348 194.924C71.2428 195.14 71.2668 195.276 71.3068 195.332C71.3628 195.412 71.5228 195.452 71.7868 195.452L71.9788 195.44C72.2028 195.432 72.4348 195.38 72.6748 195.284V191.48H74.7268ZM78.2548 194.732C78.2548 194.876 78.2588 195.028 78.2668 195.188C78.2748 195.34 78.2988 195.436 78.3388 195.476C78.3948 195.532 78.5908 195.56 78.9268 195.56L79.3348 195.548C79.4068 195.932 79.4428 196.376 79.4428 196.88C79.2908 196.936 79.0668 196.988 78.7708 197.036C78.4828 197.084 78.2068 197.108 77.9428 197.108C77.3908 197.108 76.9628 196.988 76.6588 196.748C76.3628 196.5 76.2148 196.12 76.2148 195.608V192.656H75.3148V191.564L76.2148 191.48L76.7548 190.16L78.2548 190.076V191.48H79.5268V192.656H78.2548V194.732Z" fill="#A8DADC"/>
<path d="M65.5076 235.156C64.5476 235.156 63.8276 234.932 63.3476 234.484C62.8756 234.028 62.6396 233.312 62.6396 232.336C62.6396 231.8 62.6876 231.332 62.7836 230.932C62.8876 230.524 63.0116 230.24 63.1556 230.08C63.3396 229.872 63.6756 229.7 64.1636 229.564C64.6596 229.428 65.1236 229.36 65.5556 229.36C66.5876 229.36 67.3236 229.58 67.7636 230.02C68.2036 230.46 68.4236 231.164 68.4236 232.132C68.4236 233.172 68.1876 233.936 67.7156 234.424C67.2436 234.912 66.5076 235.156 65.5076 235.156ZM65.5436 233.752C65.8556 233.752 66.0596 233.644 66.1556 233.428C66.2516 233.204 66.2996 232.812 66.2996 232.252C66.2996 231.86 66.2796 231.56 66.2396 231.352C66.1996 231.136 66.1236 230.98 66.0116 230.884C65.9076 230.78 65.7436 230.728 65.5196 230.728C65.1996 230.728 65.0156 230.756 64.9676 230.812C64.9036 230.868 64.8516 231.044 64.8116 231.34C64.7716 231.636 64.7516 231.944 64.7516 232.264C64.7516 232.808 64.8036 233.192 64.9076 233.416C65.0196 233.64 65.2316 233.752 65.5436 233.752ZM74.7268 229.48V235H73.0588L72.8308 234.076C72.2548 234.772 71.5668 235.12 70.7668 235.12C70.4788 235.12 70.2068 235.08 69.9508 235C69.7028 234.92 69.5148 234.804 69.3868 234.652C69.3148 234.564 69.2588 234.344 69.2188 233.992C69.1868 233.64 69.1708 233.104 69.1708 232.384V229.48H71.2228V232.36C71.2228 232.52 71.2268 232.708 71.2348 232.924C71.2428 233.14 71.2668 233.276 71.3068 233.332C71.3628 233.412 71.5228 233.452 71.7868 233.452L71.9788 233.44C72.2028 233.432 72.4348 233.38 72.6748 233.284V229.48H74.7268ZM78.2548 232.732C78.2548 232.876 78.2588 233.028 78.2668 233.188C78.2748 233.34 78.2988 233.436 78.3388 233.476C78.3948 233.532 78.5908 233.56 78.9268 233.56L79.3348 233.548C79.4068 233.932 79.4428 234.376 79.4428 234.88C79.2908 234.936 79.0668 234.988 78.7708 235.036C78.4828 235.084 78.2068 235.108 77.9428 235.108C77.3908 235.108 76.9628 234.988 76.6588 234.748C76.3628 234.5 76.2148 234.12 76.2148 233.608V230.656H75.3148V229.564L76.2148 229.48L76.7548 228.16L78.2548 228.076V229.48H79.5268V230.656H78.2548V232.732Z" fill="#A8DADC"/>
<path d="M41.8515 229.36C41.9555 229.36 42.0635 229.372 42.1755 229.396C42.2955 229.42 42.3835 229.448 42.4395 229.48C42.4395 229.656 42.4195 229.948 42.3795 230.356C42.3395 230.756 42.3035 231.04 42.2715 231.208C42.1915 231.2 42.0435 231.196 41.8275 231.196C41.3235 231.196 40.8755 231.224 40.4835 231.28V235H38.4315V229.48H40.1475L40.3875 230.368H40.3995C40.6315 230.064 40.8795 229.82 41.1435 229.636C41.4075 229.452 41.6435 229.36 41.8515 229.36ZM47.4423 233.128C47.4423 233.84 47.2143 234.352 46.7583 234.664C46.3103 234.976 45.6703 235.132 44.8383 235.132C44.2543 235.132 43.5823 235.048 42.8223 234.88C42.8383 234.72 42.8743 234.492 42.9303 234.196C42.9943 233.892 43.0463 233.66 43.0863 233.5C43.3743 233.548 43.6943 233.588 44.0463 233.62C44.3983 233.644 44.6983 233.656 44.9463 233.656C45.1623 233.656 45.2943 233.644 45.3423 233.62C45.3503 233.612 45.3583 233.592 45.3663 233.56C45.3823 233.52 45.3903 233.48 45.3903 233.44C45.3903 233.28 45.2903 233.172 45.0903 233.116C45.0263 233.1 44.7823 233.032 44.3583 232.912C43.9343 232.792 43.5863 232.576 43.3143 232.264C43.0503 231.944 42.9183 231.548 42.9183 231.076C42.9183 230.828 42.9743 230.552 43.0863 230.248C43.1983 229.944 43.3183 229.752 43.4463 229.672C43.5423 229.608 43.7743 229.544 44.1423 229.48C44.5103 229.408 44.8503 229.372 45.1623 229.372C45.8263 229.372 46.4943 229.42 47.1663 229.516C47.1663 229.66 47.1463 229.904 47.1063 230.248C47.0663 230.584 47.0303 230.796 46.9983 230.884C46.3183 230.796 45.7703 230.752 45.3543 230.752C45.1383 230.752 44.9983 230.764 44.9343 230.788C44.9183 230.796 44.9023 230.82 44.8863 230.86C44.8703 230.892 44.8623 230.936 44.8623 230.992C44.8623 231.104 44.8983 231.184 44.9703 231.232C45.0423 231.288 45.2303 231.356 45.5343 231.436C45.8943 231.54 46.2023 231.648 46.4583 231.76C46.7223 231.872 46.9503 232.04 47.1423 232.264C47.3423 232.488 47.4423 232.776 47.4423 233.128ZM50.6669 232.732C50.6669 232.876 50.6709 233.028 50.6789 233.188C50.6869 233.34 50.7109 233.436 50.7509 233.476C50.8069 233.532 51.0029 233.56 51.3389 233.56L51.7469 233.548C51.8189 233.932 51.8549 234.376 51.8549 234.88C51.7029 234.936 51.4789 234.988 51.1829 235.036C50.8949 235.084 50.6189 235.108 50.3549 235.108C49.8029 235.108 49.3749 234.988 49.0709 234.748C48.7749 234.5 48.6269 234.12 48.6269 233.608V230.656H47.7269V229.564L48.6269 229.48L49.1669 228.16L50.6669 228.076V229.48H51.9389V230.656H50.6669V232.732Z" fill="#A8DADC"/>
<path d="M13.8716 312.563C14.3836 312.795 14.7556 313.067 14.9876 313.379C15.2196 313.683 15.3356 314.047 15.3356 314.471C15.3356 315.119 15.0556 315.615 14.4956 315.959C13.9436 316.303 13.2516 316.475 12.4196 316.475C11.5956 316.475 10.9236 316.331 10.4036 316.043C9.89158 315.747 9.63558 315.307 9.63558 314.723C9.63558 314.395 9.75558 314.071 9.99558 313.751C10.2436 313.431 10.5916 313.171 11.0396 312.971C10.6556 312.747 10.3596 312.479 10.1516 312.167C9.95158 311.847 9.85158 311.535 9.85158 311.231C9.85158 310.631 10.1076 310.179 10.6196 309.875C11.1316 309.571 11.7636 309.419 12.5156 309.419C14.2036 309.419 15.0476 309.971 15.0476 311.075C15.0476 311.587 14.6556 312.083 13.8716 312.563ZM12.5276 310.583C12.2956 310.583 12.1196 310.639 11.9996 310.751C11.8876 310.855 11.8316 311.019 11.8316 311.243C11.8316 311.443 11.9156 311.611 12.0836 311.747C12.2596 311.875 12.4956 311.999 12.7916 312.119C13.1836 311.847 13.3796 311.567 13.3796 311.279C13.3796 311.039 13.3076 310.863 13.1636 310.751C13.0276 310.639 12.8156 310.583 12.5276 310.583ZM12.4436 315.323C12.6596 315.323 12.8476 315.263 13.0076 315.143C13.1676 315.015 13.2476 314.839 13.2476 314.615C13.2476 314.399 13.1676 314.223 13.0076 314.087C12.8556 313.943 12.5996 313.783 12.2396 313.607C12.0236 313.759 11.8516 313.915 11.7236 314.075C11.6036 314.235 11.5436 314.415 11.5436 314.615C11.5436 314.831 11.6356 315.003 11.8196 315.131C12.0116 315.259 12.2196 315.323 12.4436 315.323ZM18.7789 314.075C18.7789 314.219 18.7829 314.371 18.7909 314.531C18.7989 314.683 18.8229 314.779 18.8629 314.819C18.9189 314.875 19.1149 314.903 19.4509 314.903L19.8589 314.891C19.9309 315.275 19.9669 315.719 19.9669 316.223C19.8149 316.279 19.5909 316.331 19.2949 316.379C19.0069 316.427 18.7309 316.451 18.4669 316.451C17.9149 316.451 17.4869 316.331 17.1829 316.091C16.8869 315.843 16.7389 315.463 16.7389 314.951V311.999H15.8389V310.907L16.7389 310.823L17.2789 309.503L18.7789 309.419V310.823H20.0509V311.999H18.7789V314.075ZM26.0046 311.171C26.0766 311.259 26.1286 311.479 26.1606 311.831C26.2006 312.183 26.2206 312.719 26.2206 313.439V316.343H24.1686V313.463C24.1686 313.431 24.1686 313.275 24.1686 312.995C24.1686 312.707 24.1486 312.531 24.1086 312.467C24.0846 312.435 24.0246 312.411 23.9286 312.395C23.8406 312.379 23.7366 312.371 23.6166 312.371L23.4126 312.383C23.1886 312.391 22.9566 312.443 22.7166 312.539V316.343H20.6646V309.143L22.7166 309.059V310.463C22.7166 311.039 22.6966 311.423 22.6566 311.615L22.6686 311.627C23.2126 311.011 23.8646 310.703 24.6246 310.703C24.9126 310.703 25.1806 310.743 25.4286 310.823C25.6846 310.903 25.8766 311.019 26.0046 311.171Z" fill="#A8DADC"/>
<path d="M63.1234 308.663V315.503H61.0234V310.391L59.5354 310.703L59.3074 309.443L61.4314 308.663H63.1234ZM67.8235 311.063C68.6635 311.063 69.2275 311.291 69.5155 311.747C69.8115 312.203 69.9595 312.703 69.9595 313.247C69.9595 313.983 69.7315 314.571 69.2755 315.011C68.8275 315.443 68.1395 315.659 67.2115 315.659C66.2035 315.659 65.4675 315.379 65.0035 314.819C64.5475 314.259 64.3195 313.411 64.3195 312.275C64.3195 311.059 64.5835 310.143 65.1115 309.527C65.6395 308.911 66.3875 308.603 67.3555 308.603C67.7475 308.603 68.1155 308.623 68.4595 308.663C68.8035 308.703 69.0715 308.755 69.2635 308.819L69.0355 310.091C68.6035 310.059 68.2995 310.043 68.1235 310.043C67.5555 310.043 67.1235 310.147 66.8275 310.355C66.5395 310.555 66.3715 310.931 66.3235 311.483C66.5635 311.347 66.8195 311.243 67.0915 311.171C67.3635 311.099 67.6075 311.063 67.8235 311.063ZM67.1635 314.183C67.7075 314.183 67.9795 313.879 67.9795 313.271C67.9795 312.991 67.9275 312.779 67.8235 312.635C67.7515 312.555 67.5515 312.515 67.2235 312.515C66.9275 312.515 66.6435 312.547 66.3715 312.611C66.3555 312.755 66.3475 312.871 66.3475 312.959C66.3475 313.295 66.4155 313.583 66.5515 313.823C66.6875 314.063 66.8915 314.183 67.1635 314.183ZM73.2767 313.235C73.2767 313.379 73.2807 313.531 73.2887 313.691C73.2967 313.843 73.3207 313.939 73.3607 313.979C73.4167 314.035 73.6127 314.063 73.9487 314.063L74.3567 314.051C74.4287 314.435 74.4647 314.879 74.4647 315.383C74.3127 315.439 74.0887 315.491 73.7927 315.539C73.5047 315.587 73.2287 315.611 72.9647 315.611C72.4127 315.611 71.9847 315.491 71.6807 315.251C71.3847 315.003 71.2367 314.623 71.2367 314.111V311.159H70.3367V310.067L71.2367 309.983L71.7767 308.663L73.2767 308.579V309.983H74.5487V311.159H73.2767V313.235ZM80.5024 310.331C80.5744 310.419 80.6264 310.639 80.6584 310.991C80.6984 311.343 80.7184 311.879 80.7184 312.599V315.503H78.6664V312.623C78.6664 312.591 78.6664 312.435 78.6664 312.155C78.6664 311.867 78.6464 311.691 78.6064 311.627C78.5824 311.595 78.5224 311.571 78.4264 311.555C78.3384 311.539 78.2344 311.531 78.1144 311.531L77.9104 311.543C77.6864 311.551 77.4544 311.603 77.2144 311.699V315.503H75.1624V308.303L77.2144 308.219V309.623C77.2144 310.199 77.1944 310.583 77.1544 310.775L77.1664 310.787C77.7104 310.171 78.3624 309.863 79.1224 309.863C79.4104 309.863 79.6784 309.903 79.9264 309.983C80.1824 310.063 80.3744 310.179 80.5024 310.331Z" fill="#A8DADC"/>
<path d="M67.1025 148.128C67.1025 148.84 66.8745 149.352 66.4185 149.664C65.9705 149.976 65.3305 150.132 64.4985 150.132C63.9145 150.132 63.2425 150.048 62.4825 149.88C62.4985 149.72 62.5345 149.492 62.5905 149.196C62.6545 148.892 62.7065 148.66 62.7465 148.5C63.0345 148.548 63.3545 148.588 63.7065 148.62C64.0585 148.644 64.3585 148.656 64.6065 148.656C64.8225 148.656 64.9545 148.644 65.0025 148.62C65.0105 148.612 65.0185 148.592 65.0265 148.56C65.0425 148.52 65.0505 148.48 65.0505 148.44C65.0505 148.28 64.9505 148.172 64.7505 148.116C64.6865 148.1 64.4425 148.032 64.0185 147.912C63.5945 147.792 63.2465 147.576 62.9745 147.264C62.7105 146.944 62.5785 146.548 62.5785 146.076C62.5785 145.828 62.6345 145.552 62.7465 145.248C62.8585 144.944 62.9785 144.752 63.1065 144.672C63.2025 144.608 63.4345 144.544 63.8025 144.48C64.1705 144.408 64.5105 144.372 64.8225 144.372C65.4865 144.372 66.1545 144.42 66.8265 144.516C66.8265 144.66 66.8065 144.904 66.7665 145.248C66.7265 145.584 66.6905 145.796 66.6585 145.884C65.9785 145.796 65.4305 145.752 65.0145 145.752C64.7985 145.752 64.6585 145.764 64.5945 145.788C64.5785 145.796 64.5625 145.82 64.5465 145.86C64.5305 145.892 64.5225 145.936 64.5225 145.992C64.5225 146.104 64.5585 146.184 64.6305 146.232C64.7025 146.288 64.8905 146.356 65.1945 146.436C65.5545 146.54 65.8625 146.648 66.1185 146.76C66.3825 146.872 66.6105 147.04 66.8025 147.264C67.0025 147.488 67.1025 147.776 67.1025 148.128ZM68.851 143.796C68.579 143.796 68.343 143.704 68.143 143.52C67.951 143.336 67.855 143.116 67.855 142.86C67.855 142.604 67.951 142.384 68.143 142.2C68.343 142.016 68.579 141.924 68.851 141.924C69.123 141.924 69.355 142.016 69.547 142.2C69.739 142.384 69.835 142.604 69.835 142.86C69.835 143.116 69.739 143.336 69.547 143.52C69.355 143.704 69.123 143.796 68.851 143.796ZM67.819 144.48H69.871V150H67.819V144.48ZM73.7685 144.384C74.1445 144.384 74.5365 144.412 74.9445 144.468C75.3525 144.516 75.8285 144.584 76.3725 144.672V149.448C76.3725 150.592 75.9925 151.48 75.2325 152.112C75.1365 152.192 74.9205 152.26 74.5845 152.316C74.2485 152.372 73.8685 152.4 73.4445 152.4C72.5245 152.4 71.7965 152.28 71.2605 152.04C71.2525 151.864 71.2645 151.632 71.2965 151.344C71.3365 151.056 71.3765 150.828 71.4165 150.66C71.9925 150.748 72.5565 150.792 73.1085 150.792C73.3885 150.792 73.6245 150.776 73.8165 150.744C74.0165 150.72 74.1405 150.68 74.1885 150.624C74.2525 150.56 74.3005 150.32 74.3325 149.904C74.3405 149.792 74.3445 149.628 74.3445 149.412V149.112C74.1445 149.408 73.8885 149.62 73.5765 149.748C73.2645 149.876 72.9845 149.94 72.7365 149.94C72.0645 149.94 71.5565 149.72 71.2125 149.28C70.8685 148.84 70.6965 148.196 70.6965 147.348C70.6965 146.788 70.7725 146.264 70.9245 145.776C71.0845 145.28 71.3005 144.936 71.5725 144.744C71.7485 144.624 72.0325 144.536 72.4245 144.48C72.8245 144.416 73.2725 144.384 73.7685 144.384ZM73.5165 148.44C73.8125 148.44 74.0805 148.392 74.3205 148.296V145.788C74.2325 145.772 74.1005 145.756 73.9245 145.74C73.8445 145.732 73.7245 145.728 73.5645 145.728C73.3165 145.728 73.1605 145.752 73.0965 145.8C73.0085 145.864 72.9365 146.044 72.8805 146.34C72.8325 146.628 72.8085 146.932 72.8085 147.252C72.8085 147.692 72.8565 148 72.9525 148.176C73.0565 148.352 73.2445 148.44 73.5165 148.44Z" fill="#A8DADC"/>
</svg>
