<svg width="120" height="380" viewBox="0 0 120 380" fill="none" xmlns="http://www.w3.org/2000/svg">
<rect width="120" height="380" fill="#457B9D"/>
<g opacity="0.3">
<path fill-rule="evenodd" clip-rule="evenodd" d="M53.958 375.599C53.803 375.747 53.659 375.851 53.526 375.909C53.393 375.968 53.251 375.998 53.1 375.998C52.948 375.998 52.806 375.97 52.673 375.914C52.54 375.858 52.424 375.781 52.325 375.682C52.109 375.466 52 375.209 52 374.912V369.385C52 369.082 52.078 368.847 52.232 368.68C52.498 368.408 52.75 368.272 52.988 368.272C53.226 368.272 53.404 368.296 53.522 368.346C53.639 368.395 53.738 368.457 53.818 368.531C53.924 368.624 54.002 368.723 54.055 368.828C54.108 368.933 54.151 369.011 54.185 369.06C54.219 369.11 54.275 369.134 54.352 369.134C54.429 369.134 54.496 369.11 54.551 369.06L54.709 368.902C55.16 368.482 55.612 368.272 56.063 368.272C56.861 368.272 57.519 368.599 58.039 369.255C58.088 369.323 58.15 369.357 58.224 369.357C58.354 369.357 58.486 369.256 58.619 369.055C58.752 368.854 58.966 368.674 59.263 368.513C59.56 368.352 59.906 368.272 60.302 368.272C60.698 368.272 61.058 368.344 61.383 368.49C61.707 368.635 61.99 368.834 62.231 369.088C62.738 369.62 62.992 370.263 62.992 371.017V374.912C62.992 375.382 62.769 375.713 62.324 375.905C62.188 375.967 62.044 375.998 61.893 375.998C61.741 375.998 61.599 375.97 61.466 375.914C61.333 375.858 61.217 375.781 61.118 375.682C60.908 375.46 60.803 375.203 60.803 374.912V371.045C60.803 370.736 60.726 370.504 60.571 370.349C60.299 370.077 60.049 369.941 59.82 369.941C59.591 369.941 59.412 369.971 59.282 370.029C59.152 370.088 59.034 370.17 58.929 370.275C58.713 370.492 58.605 370.742 58.605 371.026V374.912C58.605 375.382 58.385 375.713 57.946 375.905C57.81 375.967 57.666 375.998 57.515 375.998C57.363 375.998 57.22 375.97 57.083 375.914C56.947 375.858 56.83 375.781 56.731 375.682C56.515 375.466 56.406 375.209 56.406 374.912V371.045C56.406 370.736 56.329 370.504 56.174 370.349C55.902 370.077 55.618 369.941 55.321 369.941C54.826 369.941 54.483 370.133 54.292 370.516C54.23 370.64 54.199 370.779 54.199 370.934V374.912C54.199 375.215 54.118 375.444 53.958 375.599ZM65.219 369.387C65.219 369.084 65.296 368.849 65.451 368.682C65.716 368.41 66.01 368.274 66.332 368.274C66.641 368.274 66.87 368.355 67.018 368.515C67.29 368.794 67.426 369.084 67.426 369.387V374.915C67.426 375.212 67.349 375.437 67.194 375.592C66.922 375.864 66.672 376 66.443 376C66.214 376 66.032 375.971 65.896 375.912C65.76 375.853 65.642 375.777 65.543 375.685C65.327 375.474 65.219 375.218 65.219 374.915V369.387ZM66.327 365.9C66.065 365.9 65.852 365.687 65.852 365.425C65.852 365.162 66.065 364.95 66.327 364.95C66.589 364.95 66.802 365.162 66.802 365.425C66.802 365.687 66.589 365.9 66.327 365.9ZM66.327 364C66.714 364 67.048 364.142 67.329 364.425C67.611 364.709 67.752 364.996 67.752 365.287C67.752 365.577 67.713 365.807 67.635 365.978C67.558 366.148 67.456 366.297 67.329 366.424C67.048 366.708 66.714 366.849 66.327 366.849C65.94 366.849 65.606 366.708 65.324 366.424C65.043 366.141 64.902 365.857 64.902 365.574C64.902 365.092 65.043 364.709 65.324 364.425C65.606 364.142 65.94 364 66.327 364Z" fill="#1D3557"/>
</g>
<path d="M9.98787 18.5544C10.4865 18.613 10.8422 18.7817 11.0549 19.0604C11.2675 19.3317 11.3739 19.6617 11.3739 20.0504C11.3739 20.2924 11.3372 20.5234 11.2639 20.7434C11.1905 20.956 11.1025 21.1394 10.9999 21.2934C10.8972 21.44 10.8092 21.5354 10.7359 21.5794C10.4425 21.77 9.54787 21.8654 8.05187 21.8654H5.91787V15.5954H8.50287C9.08954 15.5954 9.56254 15.6284 9.92187 15.6944C10.2885 15.753 10.5855 15.8924 10.8129 16.1124C11.0402 16.325 11.1539 16.6514 11.1539 17.0914C11.1539 17.4727 11.0585 17.7807 10.8679 18.0154C10.6845 18.25 10.3912 18.4114 9.98787 18.4994V18.5544ZM9.10787 16.9264C9.03454 16.853 8.94654 16.809 8.84387 16.7944C8.74854 16.7724 8.59454 16.7614 8.38187 16.7614C8.1692 16.7614 8.00787 16.765 7.89787 16.7724V18.1144H8.00787C8.04454 18.1144 8.19854 18.1144 8.46987 18.1144C8.7412 18.1144 8.92087 18.096 9.00887 18.0594C9.07487 18.03 9.13354 17.953 9.18487 17.8284C9.24354 17.7037 9.27287 17.568 9.27287 17.4214C9.27287 17.2014 9.21787 17.0364 9.10787 16.9264ZM9.29487 20.6004C9.3462 20.5564 9.38654 20.4757 9.41587 20.3584C9.45254 20.2337 9.47087 20.109 9.47087 19.9844C9.47087 19.8304 9.44887 19.6874 9.40487 19.5554C9.3682 19.416 9.31687 19.317 9.25087 19.2584C9.18487 19.1924 9.08954 19.1484 8.96487 19.1264C8.84754 19.1044 8.64587 19.0934 8.35987 19.0934C8.17654 19.0934 8.02254 19.097 7.89787 19.1044V20.6994C8.24254 20.7067 8.55054 20.703 8.82187 20.6884C9.0932 20.6664 9.25087 20.637 9.29487 20.6004ZM15.2821 15.5624C15.8761 15.5624 16.3784 15.6174 16.7891 15.7274C17.1997 15.8374 17.5261 16.05 17.7681 16.3654C18.0174 16.6734 18.1421 17.117 18.1421 17.6964C18.1421 17.953 18.1017 18.217 18.0211 18.4884C17.9477 18.7524 17.8524 18.9834 17.7351 19.1814C17.6251 19.3794 17.5261 19.5077 17.4381 19.5664C17.3354 19.6397 17.1081 19.6984 16.7561 19.7424C16.4041 19.779 15.9897 19.7974 15.5131 19.7974C15.3444 19.7974 15.0841 19.79 14.7321 19.7754V21.8654H12.7521V15.5954C13.5221 15.5734 14.3654 15.5624 15.2821 15.5624ZM16.1071 18.3894C16.1804 18.294 16.2171 18.1034 16.2171 17.8174C16.2171 17.4434 16.1364 17.1794 15.9751 17.0254C15.8211 16.8714 15.5497 16.7944 15.1611 16.7944C15.0291 16.7944 14.8861 16.8054 14.7321 16.8274V18.4994C14.8054 18.5067 14.9484 18.5104 15.1611 18.5104C15.7257 18.5104 16.0411 18.47 16.1071 18.3894ZM27.4779 21.8654H25.6299L25.4869 18.4114C25.4649 17.7294 25.4392 17.2124 25.4099 16.8604H25.3769C25.2889 17.139 25.1862 17.5717 25.0689 18.1584L25.0139 18.4334L24.2549 21.8654H22.4069L21.7689 18.7744L21.6589 18.2244C21.5049 17.5424 21.3985 17.0877 21.3399 16.8604H21.3069C21.2775 17.227 21.2519 17.8247 21.2299 18.6534C21.2225 18.7047 21.2189 18.7854 21.2189 18.8954L21.1199 21.8654H19.2609L19.5249 15.5954H22.6709L23.2099 18.3014L23.3419 19.0274C23.4005 18.8 23.4555 18.547 23.5069 18.2684L24.0129 15.5954H27.2249L27.4779 21.8654ZM33.4028 15.5954C34.2608 15.5954 34.9612 15.676 35.5038 15.8374C36.0538 15.9987 36.4792 16.303 36.7798 16.7504C37.0878 17.1977 37.2418 17.8394 37.2418 18.6754C37.2418 19.57 37.0805 20.252 36.7578 20.7214C36.4352 21.1834 36.0025 21.4914 35.4598 21.6454C34.9172 21.792 34.2315 21.8654 33.4028 21.8654H31.2028V15.5954H33.4028ZM34.8768 20.3694C34.9648 20.2814 35.0272 20.054 35.0638 19.6874C35.1005 19.3207 35.1188 18.9834 35.1188 18.6754C35.1188 18.2867 35.0895 17.9787 35.0308 17.7514C34.9795 17.5167 34.8842 17.3297 34.7448 17.1904C34.5248 16.9484 34.1472 16.8274 33.6118 16.8274C33.5165 16.8274 33.3735 16.8347 33.1828 16.8494V20.5014C33.3075 20.516 33.5018 20.5234 33.7658 20.5234C34.0372 20.5234 34.2755 20.5124 34.4808 20.4904C34.6935 20.461 34.8255 20.4207 34.8768 20.3694ZM38.6158 15.5954H43.1808V16.9154H40.5958V18.0594H42.7738V19.2474H40.5958V20.5234H43.1698V21.8654H38.6158V15.5954ZM44.5484 15.5954H46.5284V20.4134H49.0914V21.8654H44.5484V15.5954ZM53.9819 20.4904H52.1559L51.8259 21.8654H49.8019L51.8259 15.5954H54.4109L56.3469 21.8654H54.3119L53.9819 20.4904ZM53.0579 16.9484L52.4089 19.2694H53.7179L53.1019 16.9484H53.0579ZM60.1032 19.8634V21.8654H58.1232V19.8854L56.0112 15.5954H58.0242L58.8602 17.6304C58.9482 17.8357 59.0289 18.052 59.1022 18.2794H59.1242C59.2049 18.03 59.2855 17.8064 59.3662 17.6084L60.1912 15.5954H62.1932L60.1032 19.8634ZM68.7078 14.5174H70.1708L66.4418 23.5814H64.9788L68.7078 14.5174ZM81.6722 21.8654H79.8242L79.6812 18.4114C79.6592 17.7294 79.6335 17.2124 79.6042 16.8604H79.5712C79.4832 17.139 79.3805 17.5717 79.2632 18.1584L79.2082 18.4334L78.4492 21.8654H76.6012L75.9632 18.7744L75.8532 18.2244C75.6992 17.5424 75.5929 17.0877 75.5342 16.8604H75.5012C75.4719 17.227 75.4462 17.8247 75.4242 18.6534C75.4169 18.7047 75.4132 18.7854 75.4132 18.8954L75.3142 21.8654H73.4552L73.7192 15.5954H76.8652L77.4042 18.3014L77.5362 19.0274C77.5949 18.8 77.6499 18.547 77.7012 18.2684L78.2072 15.5954H81.4192L81.6722 21.8654ZM84.9969 17.2894C84.9969 17.4434 85.0739 17.5644 85.2279 17.6524C85.3892 17.7404 85.6385 17.8357 85.9759 17.9384C86.3792 18.0704 86.7092 18.1987 86.9659 18.3234C87.2299 18.448 87.4572 18.6424 87.6479 18.9064C87.8459 19.1704 87.9449 19.515 87.9449 19.9404C87.9449 21.3044 87.0575 21.9864 85.2829 21.9864C84.9895 21.9864 84.6302 21.9607 84.2049 21.9094C83.7869 21.858 83.4055 21.792 83.0609 21.7114C83.0755 21.5574 83.1049 21.3337 83.1489 21.0404C83.2002 20.7397 83.2479 20.516 83.2919 20.3694C83.5485 20.406 83.9335 20.45 84.4469 20.5014C84.9675 20.5527 85.3599 20.5784 85.6239 20.5784C85.7779 20.5784 85.8695 20.5674 85.8989 20.5454C85.9429 20.516 85.9759 20.4684 85.9979 20.4024C86.0272 20.329 86.0419 20.2667 86.0419 20.2154C86.0419 20.0687 85.9722 19.9587 85.8329 19.8854C85.6935 19.8047 85.4552 19.7094 85.1179 19.5994C84.7145 19.4747 84.3809 19.3464 84.1169 19.2144C83.8529 19.0824 83.6219 18.877 83.4239 18.5984C83.2259 18.3197 83.1269 17.953 83.1269 17.4984C83.1269 17.1757 83.2002 16.8604 83.3469 16.5524C83.4935 16.237 83.6439 16.0244 83.7979 15.9144C83.9152 15.8337 84.1572 15.7567 84.5239 15.6834C84.8905 15.61 85.2352 15.5734 85.5579 15.5734C86.3792 15.5734 87.0502 15.6504 87.5709 15.8044C87.5635 15.951 87.5379 16.1527 87.4939 16.4094C87.4572 16.666 87.4169 16.9007 87.3729 17.1134L87.1199 17.1024C86.1665 17.0364 85.5579 17.0034 85.2939 17.0034C85.1839 17.0034 85.1215 17.007 85.1069 17.0144C85.0775 17.029 85.0519 17.062 85.0299 17.1134C85.0079 17.1647 84.9969 17.2234 84.9969 17.2894ZM96.5253 21.6564C96.254 21.7737 95.9386 21.858 95.5793 21.9094C95.22 21.9607 94.8863 21.9864 94.5783 21.9864C93.581 21.9864 92.8 21.726 92.2353 21.2054C91.6706 20.6847 91.3883 19.8854 91.3883 18.8074C91.3883 17.7074 91.6853 16.886 92.2793 16.3434C92.8733 15.7934 93.7093 15.5184 94.7873 15.5184C95.3006 15.5184 95.836 15.588 96.3933 15.7274C96.3933 15.874 96.3786 16.094 96.3493 16.3874C96.32 16.6734 96.2906 16.875 96.2613 16.9924H95.5683C95.0623 16.9924 94.6626 17.0034 94.3693 17.0254C94.0833 17.04 93.911 17.073 93.8523 17.1244C93.7423 17.227 93.658 17.436 93.5993 17.7514C93.5406 18.0594 93.5113 18.3564 93.5113 18.6424C93.5113 19.141 93.5736 19.526 93.6983 19.7974C93.823 20.0614 93.9806 20.2374 94.1713 20.3254C94.3546 20.4134 94.659 20.4574 95.0843 20.4574C95.4216 20.4574 95.8616 20.428 96.4043 20.3694L96.5253 21.6564ZM101.428 20.4904H99.602L99.272 21.8654H97.248L99.272 15.5954H101.857L103.793 21.8654H101.758L101.428 20.4904ZM100.504 16.9484L99.855 19.2694H101.164L100.548 16.9484H100.504ZM104.868 15.5954H106.848V20.4134H109.411V21.8654H104.868V15.5954ZM115.459 21.6564C115.188 21.7737 114.873 21.858 114.513 21.9094C114.154 21.9607 113.82 21.9864 113.512 21.9864C112.515 21.9864 111.734 21.726 111.169 21.2054C110.605 20.6847 110.322 19.8854 110.322 18.8074C110.322 17.7074 110.619 16.886 111.213 16.3434C111.807 15.7934 112.643 15.5184 113.721 15.5184C114.235 15.5184 114.77 15.588 115.327 15.7274C115.327 15.874 115.313 16.094 115.283 16.3874C115.254 16.6734 115.225 16.875 115.195 16.9924H114.502C113.996 16.9924 113.597 17.0034 113.303 17.0254C113.017 17.04 112.845 17.073 112.786 17.1244C112.676 17.227 112.592 17.436 112.533 17.7514C112.475 18.0594 112.445 18.3564 112.445 18.6424C112.445 19.141 112.508 19.526 112.632 19.7974C112.757 20.0614 112.915 20.2374 113.105 20.3254C113.289 20.4134 113.593 20.4574 114.018 20.4574C114.356 20.4574 114.796 20.428 115.338 20.3694L115.459 21.6564Z" fill="white"/>
<rect x="55" y="45" width="55" height="20" rx="5" fill="#36617C"/>
<path d="M18.5137 95H21.0088C22.1367 95 22.9717 94.4434 22.9717 93.4863C22.9717 92.666 22.3516 92.2461 21.6973 92.1973V92.1436C22.2637 92.0361 22.6982 91.6406 22.6982 90.9814C22.6982 90.166 22.0146 89.668 20.9795 89.668H18.5137V95ZM19.8076 90.5713H20.6523C21.1504 90.5713 21.4189 90.8154 21.4189 91.1914C21.4189 91.582 21.1455 91.8359 20.4814 91.8359H19.8076V90.5713ZM19.8076 92.666H20.7207C21.3359 92.666 21.6436 92.9492 21.6436 93.3887C21.6436 93.8232 21.3555 94.1016 20.5645 94.1016H19.8076V92.666ZM29.0674 91.4746C29.0674 90.4834 28.3789 89.668 27.1094 89.668H24.7559V95H26.0596V93.3301H27.0996C28.3691 93.3301 29.0674 92.4756 29.0674 91.4746ZM27.7393 91.5039C27.7393 92.041 27.4268 92.3828 26.8848 92.3828H26.0547V90.6299H26.8359C27.4072 90.6299 27.7393 90.9473 27.7393 91.5039ZM31.9404 95V91.6504H32.0088L33.2344 94.2188H34.0156L35.2363 91.6504H35.2949V95H36.4766V89.668H35.1387L33.6543 92.7637H33.6104L32.126 89.668H30.7832V95H31.9404Z" fill="white"/>
<path d="M12.2888 140V136.65H12.3572L13.5828 139.219H14.364L15.5847 136.65H15.6433V140H16.825V134.668H15.4871L14.0027 137.764H13.9587L12.4744 134.668H11.1316V140H12.2888ZM18.6042 138.447C18.6189 139.346 19.3367 140.098 20.865 140.098C22.3689 140.098 23.1648 139.385 23.1648 138.384C23.1648 137.446 22.5447 137.036 21.6462 136.86L20.8601 136.709C20.3083 136.597 20.0349 136.436 20.0349 136.123C20.0349 135.781 20.3425 135.522 20.9041 135.522C21.49 135.522 21.8318 135.815 21.8611 136.187H23.0671C23.0574 135.337 22.325 134.565 20.9089 134.565C19.6003 134.565 18.7263 135.22 18.7263 136.221C18.7263 137.09 19.283 137.544 20.2791 137.744L21.0261 137.896C21.5925 138.013 21.8708 138.179 21.8708 138.511C21.8708 138.872 21.5583 139.131 20.9187 139.131C20.2839 139.131 19.8835 138.833 19.8542 138.447H18.6042ZM29.9753 140.098C31.5623 140.098 32.4656 139.126 32.4656 137.637V137.036C32.4656 135.542 31.5574 134.57 29.9705 134.57C28.3884 134.57 27.4802 135.537 27.4802 137.036V137.637C27.4802 139.126 28.3933 140.098 29.9753 140.098ZM29.9753 139.077C29.2478 139.077 28.8132 138.535 28.8132 137.642V137.021C28.8132 136.128 29.2478 135.591 29.9753 135.591C30.698 135.591 31.1326 136.128 31.1326 137.021V137.642C31.1326 138.535 30.698 139.077 29.9753 139.077ZM36.613 139.048C36.0027 139.048 35.5779 138.687 35.5779 137.998V134.668H34.2644V138.145C34.2644 139.336 35.1677 140.098 36.613 140.098C38.0583 140.098 38.9617 139.331 38.9617 138.145V134.668H37.6531V137.998C37.6531 138.682 37.2234 139.048 36.613 139.048ZM43.3337 140V135.688H44.8816V134.668H40.4773V135.688H42.0251V140H43.3337ZM50.8455 136.475C50.8455 135.483 50.157 134.668 48.8875 134.668H46.5339V140H47.8376V138.33H48.8777C50.1472 138.33 50.8455 137.476 50.8455 136.475ZM49.5173 136.504C49.5173 137.041 49.2048 137.383 48.6628 137.383H47.8328V135.63H48.614C49.1853 135.63 49.5173 135.947 49.5173 136.504ZM54.8318 139.048C54.2214 139.048 53.7966 138.687 53.7966 137.998V134.668H52.4832V138.145C52.4832 139.336 53.3865 140.098 54.8318 140.098C56.2771 140.098 57.1804 139.331 57.1804 138.145V134.668H55.8718V137.998C55.8718 138.682 55.4421 139.048 54.8318 139.048ZM61.5525 140V135.688H63.1003V134.668H58.696V135.688H60.2439V140H61.5525ZM64.3621 138.447C64.3767 139.346 65.0945 140.098 66.6228 140.098C68.1267 140.098 68.9226 139.385 68.9226 138.384C68.9226 137.446 68.3025 137.036 67.4041 136.86L66.6179 136.709C66.0662 136.597 65.7927 136.436 65.7927 136.123C65.7927 135.781 66.1003 135.522 66.6619 135.522C67.2478 135.522 67.5896 135.815 67.6189 136.187H68.825C68.8152 135.337 68.0828 134.565 66.6667 134.565C65.3582 134.565 64.4841 135.22 64.4841 136.221C64.4841 137.09 65.0408 137.544 66.0369 137.744L66.7839 137.896C67.3503 138.013 67.6287 138.179 67.6287 138.511C67.6287 138.872 67.3162 139.131 66.6765 139.131C66.0417 139.131 65.6414 138.833 65.6121 138.447H64.3621Z" fill="white"/>
<path d="M97.5596 121V115.668H96.2656L94.9326 116.557V117.67L96.2021 116.825H96.2656V121H97.5596Z" fill="white"/>
<path d="M89.3857 161V156.688H90.9336V155.668H86.5293V156.688H88.0771V161H89.3857ZM94.9883 161V155.668H93.6943L92.3613 156.557V157.67L93.6309 156.825H93.6943V161H94.9883ZM97.8906 161.728L99.8438 154.965H98.7012L96.748 161.728H97.8906ZM102.316 157.323C102.316 157.309 102.316 157.274 102.316 157.245C102.316 156.879 102.595 156.557 103.063 156.557C103.493 156.557 103.811 156.84 103.811 157.206C103.811 157.621 103.488 157.943 103.19 158.231L101.154 160.229V161H105.192V160.004H102.932V159.945L104.094 158.778C104.567 158.31 105.1 157.851 105.1 157.084C105.1 156.225 104.309 155.57 103.088 155.57C101.711 155.57 101.086 156.439 101.086 157.255V157.323H102.316Z" fill="white"/>
<path d="M56.748 161V155.668H55.4541L54.1211 156.557V157.67L55.3906 156.825H55.4541V161H56.748ZM59.6504 161.728L61.6035 154.965H60.4609L58.5078 161.728H59.6504ZM64.0762 157.323C64.0762 157.309 64.0762 157.274 64.0762 157.245C64.0762 156.879 64.3545 156.557 64.8232 156.557C65.2529 156.557 65.5703 156.84 65.5703 157.206C65.5703 157.621 65.248 157.943 64.9502 158.231L62.9141 160.229V161H66.9521V160.004H64.6914V159.945L65.8535 158.778C66.3271 158.31 66.8594 157.851 66.8594 157.084C66.8594 156.225 66.0684 155.57 64.8477 155.57C63.4707 155.57 62.8457 156.439 62.8457 157.255V157.323H64.0762Z" fill="white"/>
<path d="M11.3574 157.245C11.3574 157.753 11.7432 158.08 12.2266 158.08C12.7246 158.08 13.1055 157.753 13.1055 157.245C13.1055 156.728 12.7246 156.391 12.2266 156.391C11.7432 156.391 11.3574 156.723 11.3574 157.245ZM17.6094 161V155.668H16.3154L14.9824 156.557V157.67L16.252 156.825H16.3154V161H17.6094ZM20.5117 161.728L22.4648 154.965H21.3223L19.3691 161.728H20.5117ZM24.9375 157.323C24.9375 157.309 24.9375 157.274 24.9375 157.245C24.9375 156.879 25.2158 156.557 25.6846 156.557C26.1143 156.557 26.4316 156.84 26.4316 157.206C26.4316 157.621 26.1094 157.943 25.8115 158.231L23.7754 160.229V161H27.8135V160.004H25.5527V159.945L26.7148 158.778C27.1885 158.31 27.7207 157.851 27.7207 157.084C27.7207 156.225 26.9297 155.57 25.709 155.57C24.332 155.57 23.707 156.439 23.707 157.255V157.323H24.9375Z" fill="white"/>
<path d="M89.2441 201V196.688H90.792V195.668H86.3877V196.688H87.9355V201H89.2441ZM94.8467 201V195.668H93.5527L92.2197 196.557V197.67L93.4893 196.825H93.5527V201H94.8467ZM97.749 201.728L99.7021 194.965H98.5596L96.6064 201.728H97.749ZM102.902 195.668C102.194 196.791 101.462 197.924 100.827 199.071V200.077H103.547V201H104.768V200.077H105.437V199.091H104.768V195.668H102.902ZM101.97 199.091V199.066C102.438 198.202 102.966 197.377 103.483 196.576H103.547V199.091H101.97Z" fill="white"/>
<path d="M56.6064 201V195.668H55.3125L53.9795 196.557V197.67L55.249 196.825H55.3125V201H56.6064ZM59.5088 201.728L61.4619 194.965H60.3193L58.3662 201.728H59.5088ZM64.6621 195.668C63.9541 196.791 63.2217 197.924 62.5869 199.071V200.077H65.3066V201H66.5273V200.077H67.1963V199.091H66.5273V195.668H64.6621ZM63.7295 199.091V199.066C64.1982 198.202 64.7256 197.377 65.2432 196.576H65.3066V199.091H63.7295Z" fill="white"/>
<path d="M11.7158 197.245C11.7158 197.753 12.1016 198.08 12.585 198.08C13.083 198.08 13.4639 197.753 13.4639 197.245C13.4639 196.728 13.083 196.391 12.585 196.391C12.1016 196.391 11.7158 196.723 11.7158 197.245ZM17.9678 201V195.668H16.6738L15.3408 196.557V197.67L16.6104 196.825H16.6738V201H17.9678ZM20.8701 201.728L22.8232 194.965H21.6807L19.7275 201.728H20.8701ZM26.0234 195.668C25.3154 196.791 24.583 197.924 23.9482 199.071V200.077H26.668V201H27.8887V200.077H28.5576V199.091H27.8887V195.668H26.0234ZM25.0908 199.091V199.066C25.5596 198.202 26.0869 197.377 26.6045 196.576H26.668V199.091H25.0908Z" fill="white"/>
<path d="M89.1807 241V236.688H90.7285V235.668H86.3242V236.688H87.8721V241H89.1807ZM94.7832 241V235.668H93.4893L92.1562 236.557V237.67L93.4258 236.825H93.4893V241H94.7832ZM97.6855 241.728L99.6387 234.965H98.4961L96.543 241.728H97.6855ZM103.098 241.098C104.499 241.098 105.378 240.448 105.378 239.525C105.378 238.681 104.709 238.305 104.177 238.212V238.163C104.694 238.012 105.158 237.66 105.158 236.977C105.158 236.171 104.362 235.57 103.107 235.57C101.848 235.57 101.052 236.171 101.052 236.977C101.052 237.655 101.506 238.012 102.033 238.163V238.212C101.501 238.305 100.827 238.676 100.827 239.53C100.827 240.453 101.696 241.098 103.098 241.098ZM103.107 237.826C102.644 237.826 102.302 237.538 102.302 237.128C102.302 236.723 102.644 236.444 103.107 236.444C103.566 236.444 103.908 236.723 103.908 237.128C103.908 237.538 103.566 237.826 103.107 237.826ZM103.107 240.233C102.556 240.233 102.131 239.911 102.131 239.433C102.131 238.954 102.556 238.627 103.107 238.627C103.654 238.627 104.079 238.954 104.079 239.433C104.079 239.911 103.654 240.233 103.107 240.233Z" fill="white"/>
<path d="M56.543 241V235.668H55.249L53.916 236.557V237.67L55.1855 236.825H55.249V241H56.543ZM59.4453 241.728L61.3984 234.965H60.2559L58.3027 241.728H59.4453ZM64.8574 241.098C66.2588 241.098 67.1377 240.448 67.1377 239.525C67.1377 238.681 66.4688 238.305 65.9365 238.212V238.163C66.4541 238.012 66.918 237.66 66.918 236.977C66.918 236.171 66.1221 235.57 64.8672 235.57C63.6074 235.57 62.8115 236.171 62.8115 236.977C62.8115 237.655 63.2656 238.012 63.793 238.163V238.212C63.2607 238.305 62.5869 238.676 62.5869 239.53C62.5869 240.453 63.4561 241.098 64.8574 241.098ZM64.8672 237.826C64.4033 237.826 64.0615 237.538 64.0615 237.128C64.0615 236.723 64.4033 236.444 64.8672 236.444C65.3262 236.444 65.668 236.723 65.668 237.128C65.668 237.538 65.3262 237.826 64.8672 237.826ZM64.8672 240.233C64.3154 240.233 63.8906 239.911 63.8906 239.433C63.8906 238.954 64.3154 238.627 64.8672 238.627C65.4141 238.627 65.8389 238.954 65.8389 239.433C65.8389 239.911 65.4141 240.233 64.8672 240.233Z" fill="white"/>
<path d="M11.6523 237.245C11.6523 237.753 12.0381 238.08 12.5215 238.08C13.0195 238.08 13.4004 237.753 13.4004 237.245C13.4004 236.728 13.0195 236.391 12.5215 236.391C12.0381 236.391 11.6523 236.723 11.6523 237.245ZM17.9043 241V235.668H16.6104L15.2773 236.557V237.67L16.5469 236.825H16.6104V241H17.9043ZM20.8066 241.728L22.7598 234.965H21.6172L19.6641 241.728H20.8066ZM26.2188 241.098C27.6201 241.098 28.499 240.448 28.499 239.525C28.499 238.681 27.8301 238.305 27.2979 238.212V238.163C27.8154 238.012 28.2793 237.66 28.2793 236.977C28.2793 236.171 27.4834 235.57 26.2285 235.57C24.9688 235.57 24.1729 236.171 24.1729 236.977C24.1729 237.655 24.627 238.012 25.1543 238.163V238.212C24.6221 238.305 23.9482 238.676 23.9482 239.53C23.9482 240.453 24.8174 241.098 26.2188 241.098ZM26.2285 237.826C25.7646 237.826 25.4229 237.538 25.4229 237.128C25.4229 236.723 25.7646 236.444 26.2285 236.444C26.6875 236.444 27.0293 236.723 27.0293 237.128C27.0293 237.538 26.6875 237.826 26.2285 237.826ZM26.2285 240.233C25.6768 240.233 25.252 239.911 25.252 239.433C25.252 238.954 25.6768 238.627 26.2285 238.627C26.7754 238.627 27.2002 238.954 27.2002 239.433C27.2002 239.911 26.7754 240.233 26.2285 240.233Z" fill="white"/>
<path d="M87.2578 281V276.688H88.8057V275.668H84.4014V276.688H85.9492V281H87.2578ZM92.8604 281V275.668H91.5664L90.2334 276.557V277.67L91.5029 276.825H91.5664V281H92.8604ZM95.7627 281.728L97.7158 274.965H96.5732L94.6201 281.728H95.7627ZM101.595 281V275.668H100.301L98.9678 276.557V277.67L100.237 276.825H100.301V281H101.595ZM108.169 276.981C108.13 276.337 107.49 275.575 106.187 275.575C104.746 275.575 103.853 276.532 103.853 278.432C103.853 279.198 104.014 279.774 104.277 280.189C104.697 280.834 105.376 281.098 106.138 281.098C107.373 281.098 108.281 280.409 108.281 279.213C108.281 278.08 107.407 277.509 106.509 277.509C105.776 277.509 105.356 277.851 105.186 278.212H105.103C105.068 277.323 105.459 276.542 106.177 276.542C106.597 276.542 106.855 276.757 106.938 276.981H108.169ZM105.249 279.262C105.249 278.759 105.605 278.402 106.138 278.402C106.631 278.402 107.031 278.715 107.031 279.262C107.031 279.828 106.65 280.136 106.138 280.136C105.625 280.136 105.249 279.799 105.249 279.262Z" fill="white"/>
<path d="M53.6201 281V275.668H52.3262L50.9932 276.557V277.67L52.2627 276.825H52.3262V281H53.6201ZM56.5225 281.728L58.4756 274.965H57.333L55.3799 281.728H56.5225ZM62.3545 281V275.668H61.0605L59.7275 276.557V277.67L60.9971 276.825H61.0605V281H62.3545ZM68.9287 276.981C68.8896 276.337 68.25 275.575 66.9463 275.575C65.5059 275.575 64.6123 276.532 64.6123 278.432C64.6123 279.198 64.7734 279.774 65.0371 280.189C65.457 280.834 66.1357 281.098 66.8975 281.098C68.1328 281.098 69.041 280.409 69.041 279.213C69.041 278.08 68.167 277.509 67.2686 277.509C66.5361 277.509 66.1162 277.851 65.9453 278.212H65.8623C65.8281 277.323 66.2188 276.542 66.9365 276.542C67.3564 276.542 67.6152 276.757 67.6982 276.981H68.9287ZM66.0088 279.262C66.0088 278.759 66.3652 278.402 66.8975 278.402C67.3906 278.402 67.791 278.715 67.791 279.262C67.791 279.828 67.4102 280.136 66.8975 280.136C66.3848 280.136 66.0088 279.799 66.0088 279.262Z" fill="white"/>
<path d="M8.72949 277.245C8.72949 277.753 9.11523 278.08 9.59863 278.08C10.0967 278.08 10.4775 277.753 10.4775 277.245C10.4775 276.728 10.0967 276.391 9.59863 276.391C9.11523 276.391 8.72949 276.723 8.72949 277.245ZM14.9814 281V275.668H13.6875L12.3545 276.557V277.67L13.624 276.825H13.6875V281H14.9814ZM17.8838 281.728L19.8369 274.965H18.6943L16.7412 281.728H17.8838ZM23.7158 281V275.668H22.4219L21.0889 276.557V277.67L22.3584 276.825H22.4219V281H23.7158ZM30.29 276.981C30.251 276.337 29.6113 275.575 28.3076 275.575C26.8672 275.575 25.9736 276.532 25.9736 278.432C25.9736 279.198 26.1348 279.774 26.3984 280.189C26.8184 280.834 27.4971 281.098 28.2588 281.098C29.4941 281.098 30.4023 280.409 30.4023 279.213C30.4023 278.08 29.5283 277.509 28.6299 277.509C27.8975 277.509 27.4775 277.851 27.3066 278.212H27.2236C27.1895 277.323 27.5801 276.542 28.2979 276.542C28.7178 276.542 28.9766 276.757 29.0596 276.981H30.29ZM27.3701 279.262C27.3701 278.759 27.7266 278.402 28.2588 278.402C28.752 278.402 29.1523 278.715 29.1523 279.262C29.1523 279.828 28.7715 280.136 28.2588 280.136C27.7461 280.136 27.3701 279.799 27.3701 279.262Z" fill="white"/>
<path d="M86.4355 321V316.688H87.9834V315.668H83.5791V316.688H85.127V321H86.4355ZM92.0381 321V315.668H90.7441L89.4111 316.557V317.67L90.6807 316.825H90.7441V321H92.0381ZM94.9404 321.728L96.8936 314.965H95.751L93.7979 321.728H94.9404ZM99.5176 318.72H100.152C100.714 318.72 101.046 319.032 101.051 319.428C101.051 319.853 100.685 320.146 100.133 320.146C99.6152 320.146 99.2344 319.882 99.2148 319.525H98.0283C98.043 320.365 98.7705 321.098 100.133 321.098C101.295 321.098 102.35 320.561 102.34 319.501C102.33 318.661 101.666 318.28 101.134 318.236V318.173C101.539 318.109 102.188 317.733 102.179 316.977C102.169 316.156 101.402 315.57 100.172 315.57C98.8877 315.575 98.1455 316.22 98.1113 317.138H99.3174C99.332 316.815 99.6445 316.508 100.123 316.508C100.567 316.508 100.909 316.767 100.914 317.147C100.914 317.514 100.592 317.792 100.123 317.792H99.5176V318.72ZM105.267 317.323C105.267 317.309 105.267 317.274 105.267 317.245C105.267 316.879 105.545 316.557 106.014 316.557C106.443 316.557 106.761 316.84 106.761 317.206C106.761 317.621 106.438 317.943 106.141 318.231L104.104 320.229V321H108.143V320.004H105.882V319.945L107.044 318.778C107.518 318.31 108.05 317.851 108.05 317.084C108.05 316.225 107.259 315.57 106.038 315.57C104.661 315.57 104.036 316.439 104.036 317.255V317.323H105.267Z" fill="white"/>
<path d="M53.2979 321V315.668H52.0039L50.6709 316.557V317.67L51.9404 316.825H52.0039V321H53.2979ZM56.2002 321.728L58.1533 314.965H57.0107L55.0576 321.728H56.2002ZM60.7773 318.72H61.4121C61.9736 318.72 62.3057 319.032 62.3105 319.428C62.3105 319.853 61.9443 320.146 61.3926 320.146C60.875 320.146 60.4941 319.882 60.4746 319.525H59.2881C59.3027 320.365 60.0303 321.098 61.3926 321.098C62.5547 321.098 63.6094 320.561 63.5996 319.501C63.5898 318.661 62.9258 318.28 62.3936 318.236V318.173C62.7988 318.109 63.4482 317.733 63.4385 316.977C63.4287 316.156 62.6621 315.57 61.4316 315.57C60.1475 315.575 59.4053 316.22 59.3711 317.138H60.5771C60.5918 316.815 60.9043 316.508 61.3828 316.508C61.8271 316.508 62.1689 316.767 62.1738 317.147C62.1738 317.514 61.8516 317.792 61.3828 317.792H60.7773V318.72ZM66.5264 317.323C66.5264 317.309 66.5264 317.274 66.5264 317.245C66.5264 316.879 66.8047 316.557 67.2734 316.557C67.7031 316.557 68.0205 316.84 68.0205 317.206C68.0205 317.621 67.6982 317.943 67.4004 318.231L65.3643 320.229V321H69.4023V320.004H67.1416V319.945L68.3037 318.778C68.7773 318.31 69.3096 317.851 69.3096 317.084C69.3096 316.225 68.5186 315.57 67.2979 315.57C65.9209 315.57 65.2959 316.439 65.2959 317.255V317.323H66.5264Z" fill="white"/>
<path d="M8.40723 317.245C8.40723 317.753 8.79297 318.08 9.27637 318.08C9.77441 318.08 10.1553 317.753 10.1553 317.245C10.1553 316.728 9.77441 316.391 9.27637 316.391C8.79297 316.391 8.40723 316.723 8.40723 317.245ZM14.6592 321V315.668H13.3652L12.0322 316.557V317.67L13.3018 316.825H13.3652V321H14.6592ZM17.5615 321.728L19.5146 314.965H18.3721L16.4189 321.728H17.5615ZM22.1387 318.72H22.7734C23.335 318.72 23.667 319.032 23.6719 319.428C23.6719 319.853 23.3057 320.146 22.7539 320.146C22.2363 320.146 21.8555 319.882 21.8359 319.525H20.6494C20.6641 320.365 21.3916 321.098 22.7539 321.098C23.916 321.098 24.9707 320.561 24.9609 319.501C24.9512 318.661 24.2871 318.28 23.7549 318.236V318.173C24.1602 318.109 24.8096 317.733 24.7998 316.977C24.79 316.156 24.0234 315.57 22.793 315.57C21.5088 315.575 20.7666 316.22 20.7324 317.138H21.9385C21.9531 316.815 22.2656 316.508 22.7441 316.508C23.1885 316.508 23.5303 316.767 23.5352 317.147C23.5352 317.514 23.2129 317.792 22.7441 317.792H22.1387V318.72ZM27.8877 317.323C27.8877 317.309 27.8877 317.274 27.8877 317.245C27.8877 316.879 28.166 316.557 28.6348 316.557C29.0645 316.557 29.3818 316.84 29.3818 317.206C29.3818 317.621 29.0596 317.943 28.7617 318.231L26.7256 320.229V321H30.7637V320.004H28.5029V319.945L29.665 318.778C30.1387 318.31 30.6709 317.851 30.6709 317.084C30.6709 316.225 29.8799 315.57 28.6592 315.57C27.2822 315.57 26.6572 316.439 26.6572 317.255V317.323H27.8877Z" fill="white"/>
<path d="M15.1211 37.0039H12.665V35.7783H14.9697V34.8506H12.665V33.6641H15.1211V32.668H11.3711V38H15.1211V37.0039ZM21.583 32.668H20.123L19.0732 34.4844H19.0146L17.9648 32.668H16.4316L18.126 35.3145L16.4268 38H17.833L18.9268 36.2275H18.9854L20.0791 38H21.5635L19.8203 35.334L21.583 32.668ZM25.5889 38V33.6885H27.1367V32.668H22.7324V33.6885H24.2803V38H25.5889Z" fill="white"/>
</svg>
