<svg width="300" height="380" viewBox="0 0 300 380" fill="none" xmlns="http://www.w3.org/2000/svg">
<rect width="300" height="380" fill="#457B9D"/>
<g opacity="0.3">
<path fill-rule="evenodd" clip-rule="evenodd" d="M143.958 375.599C143.803 375.747 143.659 375.851 143.526 375.909C143.393 375.968 143.251 375.998 143.1 375.998C142.948 375.998 142.806 375.97 142.673 375.914C142.54 375.858 142.424 375.781 142.325 375.682C142.109 375.466 142 375.209 142 374.912V369.385C142 369.082 142.078 368.847 142.232 368.68C142.498 368.408 142.75 368.272 142.988 368.272C143.226 368.272 143.404 368.296 143.522 368.346C143.639 368.395 143.738 368.457 143.818 368.531C143.924 368.624 144.002 368.723 144.055 368.828C144.108 368.933 144.151 369.011 144.185 369.06C144.219 369.11 144.275 369.134 144.352 369.134C144.429 369.134 144.496 369.11 144.551 369.06L144.709 368.902C145.16 368.482 145.612 368.272 146.063 368.272C146.861 368.272 147.519 368.599 148.039 369.255C148.088 369.323 148.15 369.357 148.224 369.357C148.354 369.357 148.486 369.256 148.619 369.055C148.752 368.854 148.966 368.674 149.263 368.513C149.56 368.352 149.906 368.272 150.302 368.272C150.698 368.272 151.058 368.344 151.383 368.49C151.707 368.635 151.99 368.834 152.231 369.088C152.738 369.62 152.992 370.263 152.992 371.017V374.912C152.992 375.382 152.769 375.713 152.324 375.905C152.188 375.967 152.044 375.998 151.893 375.998C151.741 375.998 151.599 375.97 151.466 375.914C151.333 375.858 151.217 375.781 151.118 375.682C150.908 375.46 150.803 375.203 150.803 374.912V371.045C150.803 370.736 150.726 370.504 150.571 370.349C150.299 370.077 150.049 369.941 149.82 369.941C149.591 369.941 149.412 369.971 149.282 370.029C149.152 370.088 149.034 370.17 148.929 370.275C148.713 370.492 148.605 370.742 148.605 371.026V374.912C148.605 375.382 148.385 375.713 147.946 375.905C147.81 375.967 147.666 375.998 147.515 375.998C147.363 375.998 147.22 375.97 147.083 375.914C146.947 375.858 146.83 375.781 146.731 375.682C146.515 375.466 146.406 375.209 146.406 374.912V371.045C146.406 370.736 146.329 370.504 146.174 370.349C145.902 370.077 145.618 369.941 145.321 369.941C144.826 369.941 144.483 370.133 144.292 370.516C144.23 370.64 144.199 370.779 144.199 370.934V374.912C144.199 375.215 144.118 375.444 143.958 375.599ZM155.219 369.387C155.219 369.084 155.296 368.849 155.451 368.682C155.716 368.41 156.01 368.274 156.332 368.274C156.641 368.274 156.87 368.355 157.018 368.515C157.29 368.794 157.426 369.084 157.426 369.387V374.915C157.426 375.212 157.349 375.437 157.194 375.592C156.922 375.864 156.672 376 156.443 376C156.214 376 156.032 375.971 155.896 375.912C155.76 375.853 155.642 375.777 155.543 375.685C155.327 375.474 155.219 375.218 155.219 374.915V369.387ZM156.327 365.9C156.065 365.9 155.852 365.687 155.852 365.425C155.852 365.162 156.065 364.95 156.327 364.95C156.589 364.95 156.802 365.162 156.802 365.425C156.802 365.687 156.589 365.9 156.327 365.9ZM156.327 364C156.714 364 157.048 364.142 157.329 364.425C157.611 364.709 157.752 364.996 157.752 365.287C157.752 365.577 157.713 365.807 157.635 365.978C157.558 366.148 157.456 366.297 157.329 366.424C157.048 366.708 156.714 366.849 156.327 366.849C155.94 366.849 155.606 366.708 155.324 366.424C155.043 366.141 154.902 365.857 154.902 365.574C154.902 365.092 155.043 364.709 155.324 364.425C155.606 364.142 155.94 364 156.327 364Z" fill="#1D3557"/>
</g>
<path d="M67.7549 18.5544C68.2535 18.613 68.6092 18.7817 68.8219 19.0604C69.0345 19.3317 69.1409 19.6617 69.1409 20.0504C69.1409 20.2924 69.1042 20.5234 69.0309 20.7434C68.9575 20.956 68.8695 21.1394 68.7669 21.2934C68.6642 21.44 68.5762 21.5354 68.5029 21.5794C68.2095 21.77 67.3149 21.8654 65.8189 21.8654H63.6849V15.5954H66.2699C66.8565 15.5954 67.3295 15.6284 67.6889 15.6944C68.0555 15.753 68.3525 15.8924 68.5799 16.1124C68.8072 16.325 68.9209 16.6514 68.9209 17.0914C68.9209 17.4727 68.8255 17.7807 68.6349 18.0154C68.4515 18.25 68.1582 18.4114 67.7549 18.4994V18.5544ZM66.8749 16.9264C66.8015 16.853 66.7135 16.809 66.6109 16.7944C66.5155 16.7724 66.3615 16.7614 66.1489 16.7614C65.9362 16.7614 65.7749 16.765 65.6649 16.7724V18.1144H65.7749C65.8115 18.1144 65.9655 18.1144 66.2369 18.1144C66.5082 18.1144 66.6879 18.096 66.7759 18.0594C66.8419 18.03 66.9005 17.953 66.9519 17.8284C67.0105 17.7037 67.0399 17.568 67.0399 17.4214C67.0399 17.2014 66.9849 17.0364 66.8749 16.9264ZM67.0619 20.6004C67.1132 20.5564 67.1535 20.4757 67.1829 20.3584C67.2195 20.2337 67.2379 20.109 67.2379 19.9844C67.2379 19.8304 67.2159 19.6874 67.1719 19.5554C67.1352 19.416 67.0839 19.317 67.0179 19.2584C66.9519 19.1924 66.8565 19.1484 66.7319 19.1264C66.6145 19.1044 66.4129 19.0934 66.1269 19.0934C65.9435 19.0934 65.7895 19.097 65.6649 19.1044V20.6994C66.0095 20.7067 66.3175 20.703 66.5889 20.6884C66.8602 20.6664 67.0179 20.637 67.0619 20.6004ZM73.049 15.5624C73.643 15.5624 74.1454 15.6174 74.556 15.7274C74.9667 15.8374 75.293 16.05 75.535 16.3654C75.7844 16.6734 75.909 17.117 75.909 17.6964C75.909 17.953 75.8687 18.217 75.788 18.4884C75.7147 18.7524 75.6194 18.9834 75.502 19.1814C75.392 19.3794 75.293 19.5077 75.205 19.5664C75.1024 19.6397 74.875 19.6984 74.523 19.7424C74.171 19.779 73.7567 19.7974 73.28 19.7974C73.1114 19.7974 72.851 19.79 72.499 19.7754V21.8654H70.519V15.5954C71.289 15.5734 72.1324 15.5624 73.049 15.5624ZM73.874 18.3894C73.9474 18.294 73.984 18.1034 73.984 17.8174C73.984 17.4434 73.9034 17.1794 73.742 17.0254C73.588 16.8714 73.3167 16.7944 72.928 16.7944C72.796 16.7944 72.653 16.8054 72.499 16.8274V18.4994C72.5724 18.5067 72.7154 18.5104 72.928 18.5104C73.4927 18.5104 73.808 18.47 73.874 18.3894ZM85.2449 21.8654H83.3969L83.2539 18.4114C83.2319 17.7294 83.2062 17.2124 83.1769 16.8604H83.1439C83.0559 17.139 82.9532 17.5717 82.8359 18.1584L82.7809 18.4334L82.0219 21.8654H80.1739L79.5359 18.7744L79.4259 18.2244C79.2719 17.5424 79.1655 17.0877 79.1069 16.8604H79.0739C79.0445 17.227 79.0189 17.8247 78.9969 18.6534C78.9895 18.7047 78.9859 18.7854 78.9859 18.8954L78.8869 21.8654H77.0279L77.2919 15.5954H80.4379L80.9769 18.3014L81.1089 19.0274C81.1675 18.8 81.2225 18.547 81.2739 18.2684L81.7799 15.5954H84.9919L85.2449 21.8654ZM91.1698 15.5954C92.0278 15.5954 92.7282 15.676 93.2708 15.8374C93.8208 15.9987 94.2462 16.303 94.5468 16.7504C94.8548 17.1977 95.0088 17.8394 95.0088 18.6754C95.0088 19.57 94.8475 20.252 94.5248 20.7214C94.2022 21.1834 93.7695 21.4914 93.2268 21.6454C92.6842 21.792 91.9985 21.8654 91.1698 21.8654H88.9698V15.5954H91.1698ZM92.6438 20.3694C92.7318 20.2814 92.7942 20.054 92.8308 19.6874C92.8675 19.3207 92.8858 18.9834 92.8858 18.6754C92.8858 18.2867 92.8565 17.9787 92.7978 17.7514C92.7465 17.5167 92.6512 17.3297 92.5118 17.1904C92.2918 16.9484 91.9142 16.8274 91.3788 16.8274C91.2835 16.8274 91.1405 16.8347 90.9498 16.8494V20.5014C91.0745 20.516 91.2688 20.5234 91.5328 20.5234C91.8042 20.5234 92.0425 20.5124 92.2478 20.4904C92.4605 20.461 92.5925 20.4207 92.6438 20.3694ZM96.3828 15.5954H100.948V16.9154H98.3628V18.0594H100.541V19.2474H98.3628V20.5234H100.937V21.8654H96.3828V15.5954ZM102.315 15.5954H104.295V20.4134H106.858V21.8654H102.315V15.5954ZM111.749 20.4904H109.923L109.593 21.8654H107.569L109.593 15.5954H112.178L114.114 21.8654H112.079L111.749 20.4904ZM110.825 16.9484L110.176 19.2694H111.485L110.869 16.9484H110.825ZM117.87 19.8634V21.8654H115.89V19.8854L113.778 15.5954H115.791L116.627 17.6304C116.715 17.8357 116.796 18.052 116.869 18.2794H116.891C116.972 18.03 117.053 17.8064 117.133 17.6084L117.958 15.5954H119.96L117.87 19.8634ZM126.475 14.5174H127.938L124.209 23.5814H122.746L126.475 14.5174ZM139.439 21.8654H137.591L137.448 18.4114C137.426 17.7294 137.401 17.2124 137.371 16.8604H137.338C137.25 17.139 137.148 17.5717 137.03 18.1584L136.975 18.4334L136.216 21.8654H134.368L133.73 18.7744L133.62 18.2244C133.466 17.5424 133.36 17.0877 133.301 16.8604H133.268C133.239 17.227 133.213 17.8247 133.191 18.6534C133.184 18.7047 133.18 18.7854 133.18 18.8954L133.081 21.8654H131.222L131.486 15.5954H134.632L135.171 18.3014L135.303 19.0274C135.362 18.8 135.417 18.547 135.468 18.2684L135.974 15.5954H139.186L139.439 21.8654ZM142.764 17.2894C142.764 17.4434 142.841 17.5644 142.995 17.6524C143.156 17.7404 143.406 17.8357 143.743 17.9384C144.146 18.0704 144.476 18.1987 144.733 18.3234C144.997 18.448 145.224 18.6424 145.415 18.9064C145.613 19.1704 145.712 19.515 145.712 19.9404C145.712 21.3044 144.825 21.9864 143.05 21.9864C142.757 21.9864 142.397 21.9607 141.972 21.9094C141.554 21.858 141.173 21.792 140.828 21.7114C140.843 21.5574 140.872 21.3337 140.916 21.0404C140.967 20.7397 141.015 20.516 141.059 20.3694C141.316 20.406 141.701 20.45 142.214 20.5014C142.735 20.5527 143.127 20.5784 143.391 20.5784C143.545 20.5784 143.637 20.5674 143.666 20.5454C143.71 20.516 143.743 20.4684 143.765 20.4024C143.794 20.329 143.809 20.2667 143.809 20.2154C143.809 20.0687 143.739 19.9587 143.6 19.8854C143.461 19.8047 143.222 19.7094 142.885 19.5994C142.482 19.4747 142.148 19.3464 141.884 19.2144C141.62 19.0824 141.389 18.877 141.191 18.5984C140.993 18.3197 140.894 17.953 140.894 17.4984C140.894 17.1757 140.967 16.8604 141.114 16.5524C141.261 16.237 141.411 16.0244 141.565 15.9144C141.682 15.8337 141.924 15.7567 142.291 15.6834C142.658 15.61 143.002 15.5734 143.325 15.5734C144.146 15.5734 144.817 15.6504 145.338 15.8044C145.331 15.951 145.305 16.1527 145.261 16.4094C145.224 16.666 145.184 16.9007 145.14 17.1134L144.887 17.1024C143.934 17.0364 143.325 17.0034 143.061 17.0034C142.951 17.0034 142.889 17.007 142.874 17.0144C142.845 17.029 142.819 17.062 142.797 17.1134C142.775 17.1647 142.764 17.2234 142.764 17.2894ZM152.664 14.5174H154.127L150.398 23.5814H148.935L152.664 14.5174ZM157.555 15.5954H159.546V17.8944H161.251V15.5954H163.242V21.8654H161.251V19.1594H159.546V21.8654H157.555V15.5954ZM169.733 20.6664V21.8654H164.651V20.6114L167.632 16.8054H164.739V15.5954H169.645V16.8604L166.708 20.6664H169.733ZM178.237 21.6564C177.965 21.7737 177.65 21.858 177.291 21.9094C176.931 21.9607 176.598 21.9864 176.29 21.9864C175.292 21.9864 174.511 21.726 173.947 21.2054C173.382 20.6847 173.1 19.8854 173.1 18.8074C173.1 17.7074 173.397 16.886 173.991 16.3434C174.585 15.7934 175.421 15.5184 176.499 15.5184C177.012 15.5184 177.547 15.588 178.105 15.7274C178.105 15.874 178.09 16.094 178.061 16.3874C178.031 16.6734 178.002 16.875 177.973 16.9924H177.28C176.774 16.9924 176.374 17.0034 176.081 17.0254C175.795 17.04 175.622 17.073 175.564 17.1244C175.454 17.227 175.369 17.436 175.311 17.7514C175.252 18.0594 175.223 18.3564 175.223 18.6424C175.223 19.141 175.285 19.526 175.41 19.7974C175.534 20.0614 175.692 20.2374 175.883 20.3254C176.066 20.4134 176.37 20.4574 176.796 20.4574C177.133 20.4574 177.573 20.428 178.116 20.3694L178.237 21.6564ZM183.139 20.4904H181.313L180.983 21.8654H178.959L180.983 15.5954H183.568L185.504 21.8654H183.469L183.139 20.4904ZM182.215 16.9484L181.566 19.2694H182.875L182.259 16.9484H182.215ZM186.579 15.5954H188.559V20.4134H191.122V21.8654H186.579V15.5954ZM197.171 21.6564C196.899 21.7737 196.584 21.858 196.225 21.9094C195.865 21.9607 195.532 21.9864 195.224 21.9864C194.226 21.9864 193.445 21.726 192.881 21.2054C192.316 20.6847 192.034 19.8854 192.034 18.8074C192.034 17.7074 192.331 16.886 192.925 16.3434C193.519 15.7934 194.355 15.5184 195.433 15.5184C195.946 15.5184 196.481 15.588 197.039 15.7274C197.039 15.874 197.024 16.094 196.995 16.3874C196.965 16.6734 196.936 16.875 196.907 16.9924H196.214C195.708 16.9924 195.308 17.0034 195.015 17.0254C194.729 17.04 194.556 17.073 194.498 17.1244C194.388 17.227 194.303 17.436 194.245 17.7514C194.186 18.0594 194.157 18.3564 194.157 18.6424C194.157 19.141 194.219 19.526 194.344 19.7974C194.468 20.0614 194.626 20.2374 194.817 20.3254C195 20.4134 195.304 20.4574 195.73 20.4574C196.067 20.4574 196.507 20.428 197.05 20.3694L197.171 21.6564ZM204.306 15.5954V19.1044C204.306 19.8304 204.226 20.3987 204.064 20.8094C203.91 21.2127 203.617 21.5097 203.184 21.7004C202.752 21.891 202.121 21.9864 201.292 21.9864C200.684 21.9864 200.17 21.924 199.752 21.7994C199.334 21.6674 199.001 21.4217 198.751 21.0624C198.509 20.703 198.388 20.197 198.388 19.5444V15.5954H200.368V19.1264C200.368 19.515 200.387 19.812 200.423 20.0174C200.467 20.2154 200.563 20.3694 200.709 20.4794C200.856 20.582 201.08 20.6334 201.38 20.6334C201.564 20.6334 201.736 20.615 201.897 20.5784C202.059 20.5417 202.169 20.4867 202.227 20.4134C202.293 20.3254 202.326 20.0064 202.326 19.4564V15.5954H204.306ZM205.879 15.5954H207.859V20.4134H210.422V21.8654H205.879V15.5954ZM215.312 20.4904H213.486L213.156 21.8654H211.132L213.156 15.5954H215.741L217.677 21.8654H215.642L215.312 20.4904ZM214.388 16.9484L213.739 19.2694H215.048L214.432 16.9484H214.388ZM221.569 21.8654H219.589V16.9704H217.818V15.5954H223.34V16.9704H221.569V21.8654ZM227.474 22.0084C226.381 22.0084 225.56 21.7517 225.01 21.2384C224.467 20.7177 224.196 19.8854 224.196 18.7414C224.196 17.6194 224.497 16.8017 225.098 16.2884C225.699 15.775 226.495 15.5184 227.485 15.5184C229.568 15.5184 230.609 16.556 230.609 18.6314C230.609 19.68 230.352 20.505 229.839 21.1064C229.333 21.7077 228.545 22.0084 227.474 22.0084ZM227.43 20.7104C227.635 20.7104 227.808 20.6774 227.947 20.6114C228.086 20.538 228.196 20.4134 228.277 20.2374C228.431 19.9367 228.508 19.4454 228.508 18.7634C228.508 18.096 228.431 17.612 228.277 17.3114C228.123 17.0034 227.841 16.842 227.43 16.8274C227.276 16.8274 227.115 16.8457 226.946 16.8824C226.785 16.9117 226.682 16.9557 226.638 17.0144C226.55 17.117 226.48 17.337 226.429 17.6744C226.385 18.0044 226.363 18.3674 226.363 18.7634C226.363 19.3794 226.422 19.8304 226.539 20.1164C226.62 20.329 226.733 20.483 226.88 20.5784C227.027 20.6664 227.21 20.7104 227.43 20.7104ZM237.743 21.8654H235.664L235.29 20.2814C235.276 20.2227 235.25 20.1237 235.213 19.9844C235.184 19.8377 235.147 19.7314 235.103 19.6654C235.059 19.592 234.997 19.5444 234.916 19.5224C234.711 19.5297 234.41 19.5334 234.014 19.5334V21.8654H232.034V15.6504C232.922 15.5844 233.75 15.5514 234.52 15.5514C235.217 15.5514 235.782 15.61 236.214 15.7274C236.647 15.8374 236.97 16.0317 237.182 16.3104C237.402 16.5817 237.512 16.9557 237.512 17.4324C237.512 17.8797 237.41 18.2317 237.204 18.4884C236.999 18.7377 236.669 18.888 236.214 18.9394V19.0054C236.471 19.0274 236.684 19.1117 236.852 19.2584C237.028 19.3977 237.146 19.5774 237.204 19.7974L237.743 21.8654ZM234.014 18.2904C234.08 18.2977 234.209 18.3014 234.399 18.3014C234.964 18.3014 235.294 18.2537 235.389 18.1584C235.477 18.0704 235.521 17.865 235.521 17.5424C235.521 17.2417 235.441 17.0364 235.279 16.9264C235.125 16.8164 234.869 16.7614 234.509 16.7614C234.429 16.7614 234.264 16.7687 234.014 16.7834V18.2904Z" fill="white"/>
<path d="M134.381 66H136.876C138.004 66 138.839 65.4434 138.839 64.4863C138.839 63.666 138.219 63.2461 137.564 63.1973V63.1436C138.131 63.0361 138.565 62.6406 138.565 61.9814C138.565 61.166 137.882 60.668 136.846 60.668H134.381V66ZM135.675 61.5713H136.519C137.017 61.5713 137.286 61.8154 137.286 62.1914C137.286 62.582 137.012 62.8359 136.348 62.8359H135.675V61.5713ZM135.675 63.666H136.588C137.203 63.666 137.51 63.9492 137.51 64.3887C137.51 64.8232 137.222 65.1016 136.431 65.1016H135.675V63.666ZM144.934 62.4746C144.934 61.4834 144.246 60.668 142.976 60.668H140.623V66H141.927V64.3301H142.967C144.236 64.3301 144.934 63.4756 144.934 62.4746ZM143.606 62.5039C143.606 63.041 143.294 63.3828 142.752 63.3828H141.922V61.6299H142.703C143.274 61.6299 143.606 61.9473 143.606 62.5039ZM147.807 66V62.6504H147.876L149.101 65.2188H149.883L151.103 62.6504H151.162V66H152.344V60.668H151.006L149.521 63.7637H149.477L147.993 60.668H146.65V66H147.807Z" fill="white"/>
<path d="M85.9629 98V94.6504H86.0312L87.2568 97.2188H88.0381L89.2588 94.6504H89.3174V98H90.499V92.668H89.1611L87.6768 95.7637H87.6328L86.1484 92.668H84.8057V98H85.9629ZM92.2783 96.4473C92.293 97.3457 93.0107 98.0977 94.5391 98.0977C96.043 98.0977 96.8389 97.3848 96.8389 96.3838C96.8389 95.4463 96.2188 95.0361 95.3203 94.8604L94.5342 94.709C93.9824 94.5967 93.709 94.4355 93.709 94.123C93.709 93.7812 94.0166 93.5225 94.5781 93.5225C95.1641 93.5225 95.5059 93.8154 95.5352 94.1865H96.7412C96.7314 93.3369 95.999 92.5654 94.583 92.5654C93.2744 92.5654 92.4004 93.2197 92.4004 94.2207C92.4004 95.0898 92.957 95.5439 93.9531 95.7441L94.7002 95.8955C95.2666 96.0127 95.5449 96.1787 95.5449 96.5107C95.5449 96.8721 95.2324 97.1309 94.5928 97.1309C93.958 97.1309 93.5576 96.833 93.5283 96.4473H92.2783Z" fill="white"/>
<path d="M162.552 98V92.668H161.243V94.792H159.104V92.668H157.796V98H159.104V95.8076H161.243V98H162.552ZM164.429 98H168.677V96.999H166.011V96.9307L168.594 93.4688V92.668H164.487V93.6738H167.017V93.7324L164.429 97.1992V98Z" fill="white"/>
<path d="M28.1211 46.0039H25.665V44.7783H27.9697V43.8506H25.665V42.6641H28.1211V41.668H24.3711V47H28.1211V46.0039ZM34.583 41.668H33.123L32.0732 43.4844H32.0146L30.9648 41.668H29.4316L31.126 44.3145L29.4268 47H30.833L31.9268 45.2275H31.9854L33.0791 47H34.5635L32.8203 44.334L34.583 41.668ZM38.5889 47V42.6885H40.1367V41.668H35.7324V42.6885H37.2803V47H38.5889Z" fill="white"/>
<path d="M223.824 32.8399V29.4903H223.893L225.118 32.0587H225.9L227.12 29.4903H227.179V32.8399H228.361V27.5079H227.023L225.538 30.6036H225.494L224.01 27.5079H222.667V32.8399H223.824ZM230.14 31.2872C230.155 32.1856 230.872 32.9376 232.401 32.9376C233.905 32.9376 234.7 32.2247 234.7 31.2237C234.7 30.2862 234.08 29.876 233.182 29.7003L232.396 29.5489C231.844 29.4366 231.571 29.2755 231.571 28.963C231.571 28.6212 231.878 28.3624 232.44 28.3624C233.026 28.3624 233.367 28.6553 233.397 29.0264H234.603C234.593 28.1768 233.861 27.4053 232.445 27.4053C231.136 27.4053 230.262 28.0596 230.262 29.0606C230.262 29.9297 230.819 30.3839 231.815 30.584L232.562 30.7354C233.128 30.8526 233.406 31.0186 233.406 31.3506C233.406 31.712 233.094 31.9708 232.454 31.9708C231.82 31.9708 231.419 31.6729 231.39 31.2872H230.14ZM241.511 32.9376C243.098 32.9376 244.001 31.9659 244.001 30.4766V29.876C244.001 28.3819 243.093 27.4102 241.506 27.4102C239.924 27.4102 239.016 28.377 239.016 29.876V30.4766C239.016 31.9659 239.929 32.9376 241.511 32.9376ZM241.511 31.9171C240.783 31.9171 240.349 31.3751 240.349 30.4815V29.8614C240.349 28.9678 240.783 28.4307 241.511 28.4307C242.234 28.4307 242.668 28.9678 242.668 29.8614V30.4815C242.668 31.3751 242.234 31.9171 241.511 31.9171ZM248.149 31.8878C247.538 31.8878 247.114 31.5264 247.114 30.838V27.5079H245.8V30.9844C245.8 32.1758 246.703 32.9376 248.149 32.9376C249.594 32.9376 250.497 32.171 250.497 30.9844V27.5079H249.189V30.838C249.189 31.5215 248.759 31.8878 248.149 31.8878ZM254.869 32.8399V28.5284H256.417V27.5079H252.013V28.5284H253.561V32.8399H254.869ZM262.381 29.3145C262.381 28.3233 261.693 27.5079 260.423 27.5079H258.07V32.8399H259.373V31.17H260.413C261.683 31.17 262.381 30.3155 262.381 29.3145ZM261.053 29.3438C261.053 29.8809 260.74 30.2227 260.198 30.2227H259.368V28.4698H260.15C260.721 28.4698 261.053 28.7872 261.053 29.3438ZM266.367 31.8878C265.757 31.8878 265.332 31.5264 265.332 30.838V27.5079H264.019V30.9844C264.019 32.1758 264.922 32.9376 266.367 32.9376C267.813 32.9376 268.716 32.171 268.716 30.9844V27.5079H267.407V30.838C267.407 31.5215 266.978 31.8878 266.367 31.8878ZM273.088 32.8399V28.5284H274.636V27.5079H270.232V28.5284H271.78V32.8399H273.088ZM275.898 31.2872C275.912 32.1856 276.63 32.9376 278.158 32.9376C279.662 32.9376 280.458 32.2247 280.458 31.2237C280.458 30.2862 279.838 29.876 278.94 29.7003L278.154 29.5489C277.602 29.4366 277.328 29.2755 277.328 28.963C277.328 28.6212 277.636 28.3624 278.198 28.3624C278.783 28.3624 279.125 28.6553 279.155 29.0264H280.361C280.351 28.1768 279.618 27.4053 278.202 27.4053C276.894 27.4053 276.02 28.0596 276.02 29.0606C276.02 29.9297 276.576 30.3839 277.573 30.584L278.32 30.7354C278.886 30.8526 279.164 31.0186 279.164 31.3506C279.164 31.712 278.852 31.9708 278.212 31.9708C277.577 31.9708 277.177 31.6729 277.148 31.2872H275.898Z" fill="white"/>
<rect x="73" y="54" width="55" height="20" rx="5" fill="#36617C"/>
<rect x="10" y="103" width="190" height="240" rx="5" fill="#36617C"/>
<path d="M29.0166 98V94.7529H29.0654L31.3799 98H32.4199V92.668H31.1943V95.8857H31.1455L28.8408 92.668H27.7959V98H29.0166ZM36.7822 98.0977C38.3691 98.0977 39.2725 97.126 39.2725 95.6367V95.0361C39.2725 93.542 38.3643 92.5703 36.7773 92.5703C35.1953 92.5703 34.2871 93.5371 34.2871 95.0361V95.6367C34.2871 97.126 35.2002 98.0977 36.7822 98.0977ZM36.7822 97.0771C36.0547 97.0771 35.6201 96.5352 35.6201 95.6416V95.0215C35.6201 94.1279 36.0547 93.5908 36.7822 93.5908C37.5049 93.5908 37.9395 94.1279 37.9395 95.0215V95.6416C37.9395 96.5352 37.5049 97.0771 36.7822 97.0771ZM43.4297 98V93.6885H44.9775V92.668H40.5732V93.6885H42.1211V98H43.4297ZM50.3799 97.0039H47.9238V95.7783H50.2285V94.8506H47.9238V93.6641H50.3799V92.668H46.6299V98H50.3799V97.0039Z" fill="white"/>
<path d="M263.357 41.245C263.357 41.7528 263.743 42.08 264.227 42.08C264.725 42.08 265.105 41.7528 265.105 41.245C265.105 40.7274 264.725 40.3905 264.227 40.3905C263.743 40.3905 263.357 40.7225 263.357 41.245ZM269.609 44.9999V39.6678H268.315L266.982 40.5565V41.6698L268.252 40.8251H268.315V44.9999H269.609ZM272.512 45.7274L274.465 38.9647H273.322L271.369 45.7274H272.512ZM276.938 41.3231C276.938 41.3085 276.938 41.2743 276.938 41.245C276.938 40.8788 277.216 40.5565 277.685 40.5565C278.114 40.5565 278.432 40.8397 278.432 41.2059C278.432 41.621 278.109 41.9432 277.812 42.2313L275.775 44.2284V44.9999H279.813V44.0038H277.553V43.9452L278.715 42.7782C279.188 42.3094 279.721 41.8505 279.721 41.0839C279.721 40.2245 278.93 39.5702 277.709 39.5702C276.332 39.5702 275.707 40.4393 275.707 41.2548V41.3231H276.938Z" fill="white"/>
<path d="M233.06 44.9999V39.6678H231.766L230.433 40.5565V41.6698L231.702 40.8251H231.766V44.9999H233.06Z" fill="white"/>
<path d="M228.248 84.9999V79.6678H226.954L225.621 80.5565V81.6698L226.891 80.8251H226.954V84.9999H228.248ZM231.15 85.7274L233.104 78.9647H231.961L230.008 85.7274H231.15ZM235.576 81.3231C235.576 81.3085 235.576 81.2743 235.576 81.245C235.576 80.8788 235.854 80.5565 236.323 80.5565C236.753 80.5565 237.07 80.8397 237.07 81.2059C237.07 81.621 236.748 81.9432 236.45 82.2313L234.414 84.2284V84.9999H238.452V84.0038H236.191V83.9452L237.354 82.7782C237.827 82.3094 238.359 81.8505 238.359 81.0839C238.359 80.2245 237.568 79.5702 236.348 79.5702C234.971 79.5702 234.346 80.4393 234.346 81.2548V81.3231H235.576Z" fill="white"/>
<path d="M223.716 121.245C223.716 121.753 224.102 122.08 224.585 122.08C225.083 122.08 225.464 121.753 225.464 121.245C225.464 120.727 225.083 120.391 224.585 120.391C224.102 120.391 223.716 120.723 223.716 121.245ZM229.968 125V119.668H228.674L227.341 120.557V121.67L228.61 120.825H228.674V125H229.968ZM232.87 125.727L234.823 118.965H233.681L231.728 125.727H232.87ZM238.023 119.668C237.315 120.791 236.583 121.924 235.948 123.071V124.077H238.668V125H239.889V124.077H240.558V123.091H239.889V119.668H238.023ZM237.091 123.091V123.066C237.56 122.202 238.087 121.377 238.604 120.576H238.668V123.091H237.091Z" fill="white"/>
<path d="M224.744 165V160.688H226.292V159.668H221.888V160.688H223.436V165H224.744ZM230.347 165V159.668H229.053L227.72 160.557V161.67L228.989 160.825H229.053V165H230.347ZM233.249 165.727L235.202 158.965H234.06L232.106 165.727H233.249ZM238.402 159.668C237.694 160.791 236.962 161.924 236.327 163.071V164.077H239.047V165H240.268V164.077H240.937V163.091H240.268V159.668H238.402ZM237.47 163.091V163.066C237.938 162.202 238.466 161.377 238.983 160.576H239.047V163.091H237.47Z" fill="white"/>
<path d="M228.043 205V199.668H226.749L225.416 200.557V201.67L226.686 200.825H226.749V205H228.043ZM230.945 205.727L232.898 198.965H231.756L229.803 205.727H230.945ZM236.357 205.098C237.759 205.098 238.638 204.448 238.638 203.525C238.638 202.681 237.969 202.305 237.437 202.212V202.163C237.954 202.012 238.418 201.66 238.418 200.976C238.418 200.171 237.622 199.57 236.367 199.57C235.107 199.57 234.312 200.171 234.312 200.976C234.312 201.655 234.766 202.012 235.293 202.163V202.212C234.761 202.305 234.087 202.676 234.087 203.53C234.087 204.453 234.956 205.098 236.357 205.098ZM236.367 201.826C235.903 201.826 235.562 201.538 235.562 201.128C235.562 200.723 235.903 200.444 236.367 200.444C236.826 200.444 237.168 200.723 237.168 201.128C237.168 201.538 236.826 201.826 236.367 201.826ZM236.367 204.233C235.815 204.233 235.391 203.911 235.391 203.432C235.391 202.954 235.815 202.627 236.367 202.627C236.914 202.627 237.339 202.954 237.339 203.432C237.339 203.911 236.914 204.233 236.367 204.233Z" fill="white"/>
<path d="M220.729 241.245C220.729 241.753 221.115 242.08 221.599 242.08C222.097 242.08 222.478 241.753 222.478 241.245C222.478 240.727 222.097 240.391 221.599 240.391C221.115 240.391 220.729 240.723 220.729 241.245ZM226.981 245V239.668H225.688L224.354 240.557V241.67L225.624 240.825H225.688V245H226.981ZM229.884 245.727L231.837 238.965H230.694L228.741 245.727H229.884ZM235.716 245V239.668H234.422L233.089 240.557V241.67L234.358 240.825H234.422V245H235.716ZM242.29 240.981C242.251 240.337 241.611 239.575 240.308 239.575C238.867 239.575 237.974 240.532 237.974 242.432C237.974 243.198 238.135 243.774 238.398 244.189C238.818 244.834 239.497 245.098 240.259 245.098C241.494 245.098 242.402 244.409 242.402 243.213C242.402 242.08 241.528 241.509 240.63 241.509C239.897 241.509 239.478 241.85 239.307 242.212H239.224C239.189 241.323 239.58 240.542 240.298 240.542C240.718 240.542 240.977 240.757 241.06 240.981H242.29ZM239.37 243.262C239.37 242.759 239.727 242.402 240.259 242.402C240.752 242.402 241.152 242.715 241.152 243.262C241.152 243.828 240.771 244.136 240.259 244.136C239.746 244.136 239.37 243.799 239.37 243.262Z" fill="white"/>
<path d="M222.758 285V280.688H224.306V279.668H219.901V280.688H221.449V285H222.758ZM228.36 285V279.668H227.066L225.733 280.557V281.67L227.003 280.825H227.066V285H228.36ZM231.263 285.727L233.216 278.965H232.073L230.12 285.727H231.263ZM237.095 285V279.668H235.801L234.468 280.557V281.67L235.737 280.825H235.801V285H237.095ZM243.669 280.981C243.63 280.337 242.99 279.575 241.687 279.575C240.246 279.575 239.353 280.532 239.353 282.432C239.353 283.198 239.514 283.774 239.777 284.189C240.197 284.834 240.876 285.098 241.638 285.098C242.873 285.098 243.781 284.409 243.781 283.213C243.781 282.08 242.907 281.509 242.009 281.509C241.276 281.509 240.856 281.85 240.686 282.212H240.603C240.568 281.323 240.959 280.542 241.677 280.542C242.097 280.542 242.355 280.757 242.438 280.981H243.669ZM240.749 283.262C240.749 282.759 241.105 282.402 241.638 282.402C242.131 282.402 242.531 282.715 242.531 283.262C242.531 283.828 242.15 284.136 241.638 284.136C241.125 284.136 240.749 283.799 240.749 283.262Z" fill="white"/>
<path d="M224.798 325V319.668H223.504L222.171 320.557V321.67L223.44 320.825H223.504V325H224.798ZM227.7 325.727L229.653 318.965H228.511L226.558 325.727H227.7ZM232.277 322.72H232.912C233.474 322.72 233.806 323.032 233.811 323.428C233.811 323.852 233.444 324.145 232.893 324.145C232.375 324.145 231.994 323.882 231.975 323.525H230.788C230.803 324.365 231.53 325.098 232.893 325.098C234.055 325.098 235.109 324.56 235.1 323.501C235.09 322.661 234.426 322.28 233.894 322.236V322.173C234.299 322.109 234.948 321.733 234.938 320.976C234.929 320.156 234.162 319.57 232.932 319.57C231.647 319.575 230.905 320.22 230.871 321.138H232.077C232.092 320.815 232.404 320.508 232.883 320.508C233.327 320.508 233.669 320.766 233.674 321.147C233.674 321.514 233.352 321.792 232.883 321.792H232.277V322.72ZM238.026 321.323C238.026 321.308 238.026 321.274 238.026 321.245C238.026 320.879 238.305 320.557 238.773 320.557C239.203 320.557 239.521 320.84 239.521 321.206C239.521 321.621 239.198 321.943 238.9 322.231L236.864 324.228V325H240.902V324.004H238.642V323.945L239.804 322.778C240.277 322.309 240.81 321.85 240.81 321.084C240.81 320.224 240.019 319.57 238.798 319.57C237.421 319.57 236.796 320.439 236.796 321.255V321.323H238.026Z" fill="white"/>
<path d="M264.886 84.9999V80.6884H266.434V79.6678H262.029V80.6884H263.577V84.9999H264.886ZM270.488 84.9999V79.6678H269.194L267.861 80.5565V81.6698L269.131 80.8251H269.194V84.9999H270.488ZM273.391 85.7274L275.344 78.9647H274.201L272.248 85.7274H273.391ZM277.816 81.3231C277.816 81.3085 277.816 81.2743 277.816 81.245C277.816 80.8788 278.095 80.5565 278.563 80.5565C278.993 80.5565 279.311 80.8397 279.311 81.2059C279.311 81.621 278.988 81.9432 278.69 82.2313L276.654 84.2284V84.9999H280.692V84.0038H278.432V83.9452L279.594 82.7782C280.067 82.3094 280.6 81.8505 280.6 81.0839C280.6 80.2245 279.809 79.5702 278.588 79.5702C277.211 79.5702 276.586 80.4393 276.586 81.2548V81.3231H277.816Z" fill="white"/>
<path d="M268.106 125V119.668H266.812L265.479 120.557V121.67L266.749 120.825H266.812V125H268.106ZM271.009 125.727L272.962 118.965H271.819L269.866 125.727H271.009ZM276.162 119.668C275.454 120.791 274.722 121.924 274.087 123.071V124.077H276.807V125H278.027V124.077H278.696V123.091H278.027V119.668H276.162ZM275.229 123.091V123.066C275.698 122.202 276.226 121.377 276.743 120.576H276.807V123.091H275.229Z" fill="white"/>
<path d="M263.652 161.245C263.652 161.753 264.038 162.08 264.521 162.08C265.02 162.08 265.4 161.753 265.4 161.245C265.4 160.727 265.02 160.391 264.521 160.391C264.038 160.391 263.652 160.723 263.652 161.245ZM269.904 165V159.668H268.61L267.277 160.557V161.67L268.547 160.825H268.61V165H269.904ZM272.807 165.727L274.76 158.965H273.617L271.664 165.727H272.807ZM278.219 165.098C279.62 165.098 280.499 164.448 280.499 163.525C280.499 162.681 279.83 162.305 279.298 162.212V162.163C279.815 162.012 280.279 161.66 280.279 160.976C280.279 160.171 279.483 159.57 278.229 159.57C276.969 159.57 276.173 160.171 276.173 160.976C276.173 161.655 276.627 162.012 277.154 162.163V162.212C276.622 162.305 275.948 162.676 275.948 163.53C275.948 164.453 276.817 165.098 278.219 165.098ZM278.229 161.826C277.765 161.826 277.423 161.538 277.423 161.128C277.423 160.723 277.765 160.444 278.229 160.444C278.688 160.444 279.029 160.723 279.029 161.128C279.029 161.538 278.688 161.826 278.229 161.826ZM278.229 164.233C277.677 164.233 277.252 163.911 277.252 163.432C277.252 162.954 277.677 162.627 278.229 162.627C278.775 162.627 279.2 162.954 279.2 163.432C279.2 163.911 278.775 164.233 278.229 164.233Z" fill="white"/>
<path d="M264.681 205V200.688H266.229V199.668H261.824V200.688H263.372V205H264.681ZM270.283 205V199.668H268.989L267.656 200.557V201.67L268.926 200.825H268.989V205H270.283ZM273.186 205.727L275.139 198.965H273.996L272.043 205.727H273.186ZM278.598 205.098C279.999 205.098 280.878 204.448 280.878 203.525C280.878 202.681 280.209 202.305 279.677 202.212V202.163C280.194 202.012 280.658 201.66 280.658 200.976C280.658 200.171 279.862 199.57 278.607 199.57C277.348 199.57 276.552 200.171 276.552 200.976C276.552 201.655 277.006 202.012 277.533 202.163V202.212C277.001 202.305 276.327 202.676 276.327 203.53C276.327 204.453 277.196 205.098 278.598 205.098ZM278.607 201.826C278.144 201.826 277.802 201.538 277.802 201.128C277.802 200.723 278.144 200.444 278.607 200.444C279.066 200.444 279.408 200.723 279.408 201.128C279.408 201.538 279.066 201.826 278.607 201.826ZM278.607 204.233C278.056 204.233 277.631 203.911 277.631 203.432C277.631 202.954 278.056 202.627 278.607 202.627C279.154 202.627 279.579 202.954 279.579 203.432C279.579 203.911 279.154 204.233 278.607 204.233Z" fill="white"/>
<path d="M265.12 245V239.668H263.826L262.493 240.557V241.67L263.763 240.825H263.826V245H265.12ZM268.022 245.727L269.976 238.965H268.833L266.88 245.727H268.022ZM273.854 245V239.668H272.561L271.228 240.557V241.67L272.497 240.825H272.561V245H273.854ZM280.429 240.981C280.39 240.337 279.75 239.575 278.446 239.575C277.006 239.575 276.112 240.532 276.112 242.432C276.112 243.198 276.273 243.774 276.537 244.189C276.957 244.834 277.636 245.098 278.397 245.098C279.633 245.098 280.541 244.409 280.541 243.213C280.541 242.08 279.667 241.509 278.769 241.509C278.036 241.509 277.616 241.85 277.445 242.212H277.362C277.328 241.323 277.719 240.542 278.437 240.542C278.856 240.542 279.115 240.757 279.198 240.981H280.429ZM277.509 243.262C277.509 242.759 277.865 242.402 278.397 242.402C278.891 242.402 279.291 242.715 279.291 243.262C279.291 243.828 278.91 244.136 278.397 244.136C277.885 244.136 277.509 243.799 277.509 243.262Z" fill="white"/>
<path d="M260.407 281.245C260.407 281.753 260.793 282.08 261.276 282.08C261.774 282.08 262.155 281.753 262.155 281.245C262.155 280.727 261.774 280.391 261.276 280.391C260.793 280.391 260.407 280.723 260.407 281.245ZM266.659 285V279.668H265.365L264.032 280.557V281.67L265.302 280.825H265.365V285H266.659ZM269.562 285.727L271.515 278.965H270.372L268.419 285.727H269.562ZM274.139 282.72H274.773C275.335 282.72 275.667 283.032 275.672 283.428C275.672 283.852 275.306 284.145 274.754 284.145C274.236 284.145 273.855 283.882 273.836 283.525H272.649C272.664 284.365 273.392 285.098 274.754 285.098C275.916 285.098 276.971 284.56 276.961 283.501C276.951 282.661 276.287 282.28 275.755 282.236V282.173C276.16 282.109 276.81 281.733 276.8 280.976C276.79 280.156 276.023 279.57 274.793 279.57C273.509 279.575 272.767 280.22 272.732 281.138H273.938C273.953 280.815 274.266 280.508 274.744 280.508C275.188 280.508 275.53 280.766 275.535 281.147C275.535 281.514 275.213 281.792 274.744 281.792H274.139V282.72ZM279.888 281.323C279.888 281.308 279.888 281.274 279.888 281.245C279.888 280.879 280.166 280.557 280.635 280.557C281.064 280.557 281.382 280.84 281.382 281.206C281.382 281.621 281.06 281.943 280.762 282.231L278.726 284.228V285H282.764V284.004H280.503V283.945L281.665 282.778C282.139 282.309 282.671 281.85 282.671 281.084C282.671 280.224 281.88 279.57 280.659 279.57C279.282 279.57 278.657 280.439 278.657 281.255V281.323H279.888Z" fill="white"/>
<path d="M261.936 325V320.688H263.483V319.668H259.079V320.688H260.627V325H261.936ZM267.538 325V319.668H266.244L264.911 320.557V321.67L266.181 320.825H266.244V325H267.538ZM270.44 325.727L272.394 318.965H271.251L269.298 325.727H270.44ZM275.018 322.72H275.652C276.214 322.72 276.546 323.032 276.551 323.428C276.551 323.852 276.185 324.145 275.633 324.145C275.115 324.145 274.734 323.882 274.715 323.525H273.528C273.543 324.365 274.271 325.098 275.633 325.098C276.795 325.098 277.85 324.56 277.84 323.501C277.83 322.661 277.166 322.28 276.634 322.236V322.173C277.039 322.109 277.688 321.733 277.679 320.976C277.669 320.156 276.902 319.57 275.672 319.57C274.388 319.575 273.646 320.22 273.611 321.138H274.817C274.832 320.815 275.145 320.508 275.623 320.508C276.067 320.508 276.409 320.766 276.414 321.147C276.414 321.514 276.092 321.792 275.623 321.792H275.018V322.72ZM280.767 321.323C280.767 321.308 280.767 321.274 280.767 321.245C280.767 320.879 281.045 320.557 281.514 320.557C281.943 320.557 282.261 320.84 282.261 321.206C282.261 321.621 281.938 321.943 281.641 322.231L279.604 324.228V325H283.643V324.004H281.382V323.945L282.544 322.778C283.018 322.309 283.55 321.85 283.55 321.084C283.55 320.224 282.759 319.57 281.538 319.57C280.161 319.57 279.536 320.439 279.536 321.255V321.323H280.767Z" fill="white"/>
</svg>
