<svg width="300" height="380" viewBox="0 0 300 380" fill="none" xmlns="http://www.w3.org/2000/svg">
<rect width="300" height="380" fill="#457B9D"/>
<g opacity="0.5">
<path fill-rule="evenodd" clip-rule="evenodd" d="M143.958 375.599C143.803 375.747 143.659 375.851 143.526 375.909C143.393 375.968 143.251 375.998 143.1 375.998C142.948 375.998 142.806 375.97 142.673 375.914C142.54 375.858 142.424 375.781 142.325 375.682C142.109 375.466 142 375.209 142 374.912V369.385C142 369.082 142.078 368.847 142.232 368.68C142.498 368.408 142.75 368.272 142.988 368.272C143.226 368.272 143.404 368.296 143.522 368.346C143.639 368.395 143.738 368.457 143.818 368.531C143.924 368.624 144.002 368.723 144.055 368.828C144.108 368.933 144.151 369.011 144.185 369.06C144.219 369.11 144.275 369.134 144.352 369.134C144.429 369.134 144.496 369.11 144.551 369.06L144.709 368.902C145.16 368.482 145.612 368.272 146.063 368.272C146.861 368.272 147.519 368.599 148.039 369.255C148.088 369.323 148.15 369.357 148.224 369.357C148.354 369.357 148.486 369.256 148.619 369.055C148.752 368.854 148.966 368.674 149.263 368.513C149.56 368.352 149.906 368.272 150.302 368.272C150.698 368.272 151.058 368.344 151.383 368.49C151.707 368.635 151.99 368.834 152.231 369.088C152.738 369.62 152.992 370.263 152.992 371.017V374.912C152.992 375.382 152.769 375.713 152.324 375.905C152.188 375.967 152.044 375.998 151.893 375.998C151.741 375.998 151.599 375.97 151.466 375.914C151.333 375.858 151.217 375.781 151.118 375.682C150.908 375.46 150.803 375.203 150.803 374.912V371.045C150.803 370.736 150.726 370.504 150.571 370.349C150.299 370.077 150.049 369.941 149.82 369.941C149.591 369.941 149.412 369.971 149.282 370.029C149.152 370.088 149.034 370.17 148.929 370.275C148.713 370.492 148.605 370.742 148.605 371.026V374.912C148.605 375.382 148.385 375.713 147.946 375.905C147.81 375.967 147.666 375.998 147.515 375.998C147.363 375.998 147.22 375.97 147.083 375.914C146.947 375.858 146.83 375.781 146.731 375.682C146.515 375.466 146.406 375.209 146.406 374.912V371.045C146.406 370.736 146.329 370.504 146.174 370.349C145.902 370.077 145.618 369.941 145.321 369.941C144.826 369.941 144.483 370.133 144.292 370.516C144.23 370.64 144.199 370.779 144.199 370.934V374.912C144.199 375.215 144.118 375.444 143.958 375.599ZM155.219 369.387C155.219 369.084 155.296 368.849 155.451 368.682C155.716 368.41 156.01 368.274 156.332 368.274C156.641 368.274 156.87 368.355 157.018 368.515C157.29 368.794 157.426 369.084 157.426 369.387V374.915C157.426 375.212 157.349 375.437 157.194 375.592C156.922 375.864 156.672 376 156.443 376C156.214 376 156.032 375.971 155.896 375.912C155.76 375.853 155.642 375.777 155.543 375.685C155.327 375.474 155.219 375.218 155.219 374.915V369.387ZM156.327 365.9C156.065 365.9 155.852 365.687 155.852 365.425C155.852 365.162 156.065 364.95 156.327 364.95C156.589 364.95 156.802 365.162 156.802 365.425C156.802 365.687 156.589 365.9 156.327 365.9ZM156.327 364C156.714 364 157.048 364.142 157.329 364.425C157.611 364.709 157.752 364.996 157.752 365.287C157.752 365.577 157.713 365.807 157.635 365.978C157.558 366.148 157.456 366.297 157.329 366.424C157.048 366.708 156.714 366.849 156.327 366.849C155.94 366.849 155.606 366.708 155.324 366.424C155.043 366.141 154.902 365.857 154.902 365.574C154.902 365.092 155.043 364.709 155.324 364.425C155.606 364.142 155.94 364 156.327 364Z" fill="#1D3557"/>
</g>
<path d="M101.52 19.2534C102.064 19.3174 102.452 19.5014 102.684 19.8054C102.916 20.1014 103.032 20.4614 103.032 20.8854C103.032 21.1494 102.992 21.4014 102.912 21.6414C102.832 21.8734 102.736 22.0734 102.624 22.2414C102.512 22.4014 102.416 22.5054 102.336 22.5534C102.016 22.7614 101.04 22.8654 99.4085 22.8654H97.0805V16.0254H99.9005C100.54 16.0254 101.056 16.0614 101.448 16.1334C101.848 16.1974 102.172 16.3494 102.42 16.5894C102.668 16.8214 102.792 17.1774 102.792 17.6574C102.792 18.0734 102.688 18.4094 102.48 18.6654C102.28 18.9214 101.96 19.0974 101.52 19.1934V19.2534ZM100.56 17.4774C100.48 17.3974 100.384 17.3494 100.272 17.3334C100.168 17.3094 100 17.2974 99.7685 17.2974C99.5365 17.2974 99.3605 17.3014 99.2405 17.3094V18.7734H99.3605C99.4005 18.7734 99.5685 18.7734 99.8645 18.7734C100.16 18.7734 100.356 18.7534 100.452 18.7134C100.524 18.6814 100.588 18.5974 100.644 18.4614C100.708 18.3254 100.74 18.1774 100.74 18.0174C100.74 17.7774 100.68 17.5974 100.56 17.4774ZM100.764 21.4854C100.82 21.4374 100.864 21.3494 100.896 21.2214C100.936 21.0854 100.956 20.9494 100.956 20.8134C100.956 20.6454 100.932 20.4894 100.884 20.3454C100.844 20.1934 100.788 20.0854 100.716 20.0214C100.644 19.9494 100.54 19.9014 100.404 19.8774C100.276 19.8534 100.056 19.8414 99.7445 19.8414C99.5445 19.8414 99.3765 19.8454 99.2405 19.8534V21.5934C99.6165 21.6014 99.9525 21.5974 100.248 21.5814C100.544 21.5574 100.716 21.5254 100.764 21.4854ZM106.696 15.9894C107.344 15.9894 107.892 16.0494 108.34 16.1694C108.788 16.2894 109.144 16.5214 109.408 16.8654C109.68 17.2014 109.816 17.6854 109.816 18.3174C109.816 18.5974 109.772 18.8854 109.684 19.1814C109.604 19.4694 109.5 19.7214 109.372 19.9374C109.252 20.1534 109.144 20.2934 109.048 20.3574C108.936 20.4374 108.688 20.5014 108.304 20.5494C107.92 20.5894 107.468 20.6094 106.948 20.6094C106.764 20.6094 106.48 20.6014 106.096 20.5854V22.8654H103.936V16.0254C104.776 16.0014 105.696 15.9894 106.696 15.9894ZM107.596 19.0734C107.676 18.9694 107.716 18.7614 107.716 18.4494C107.716 18.0414 107.628 17.7534 107.452 17.5854C107.284 17.4174 106.988 17.3334 106.564 17.3334C106.42 17.3334 106.264 17.3454 106.096 17.3694V19.1934C106.176 19.2014 106.332 19.2054 106.564 19.2054C107.18 19.2054 107.524 19.1614 107.596 19.0734ZM119.4 22.8654H117.384L117.228 19.0974C117.204 18.3534 117.176 17.7894 117.144 17.4054H117.108C117.012 17.7094 116.9 18.1814 116.772 18.8214L116.712 19.1214L115.884 22.8654H113.868L113.172 19.4934L113.052 18.8934C112.884 18.1494 112.768 17.6534 112.704 17.4054H112.668C112.636 17.8054 112.608 18.4574 112.584 19.3614C112.576 19.4174 112.572 19.5054 112.572 19.6254L112.464 22.8654H110.436L110.724 16.0254H114.156L114.744 18.9774L114.888 19.7694C114.952 19.5214 115.012 19.2454 115.068 18.9414L115.62 16.0254H119.124L119.4 22.8654ZM124.664 16.0254C125.6 16.0254 126.364 16.1134 126.956 16.2894C127.556 16.4654 128.02 16.7974 128.348 17.2854C128.684 17.7734 128.852 18.4734 128.852 19.3854C128.852 20.3614 128.676 21.1054 128.324 21.6174C127.972 22.1214 127.5 22.4574 126.908 22.6254C126.316 22.7854 125.568 22.8654 124.664 22.8654H122.264V16.0254H124.664ZM126.272 21.2334C126.368 21.1374 126.436 20.8894 126.476 20.4894C126.516 20.0894 126.536 19.7214 126.536 19.3854C126.536 18.9614 126.504 18.6254 126.44 18.3774C126.384 18.1214 126.28 17.9174 126.128 17.7654C125.888 17.5014 125.476 17.3694 124.892 17.3694C124.788 17.3694 124.632 17.3774 124.424 17.3934V21.3774C124.56 21.3934 124.772 21.4014 125.06 21.4014C125.356 21.4014 125.616 21.3894 125.84 21.3654C126.072 21.3334 126.216 21.2894 126.272 21.2334ZM129.751 16.0254H134.731V17.4654H131.911V18.7134H134.287V20.0094H131.911V21.4014H134.719V22.8654H129.751V16.0254ZM135.623 16.0254H137.783V21.2814H140.579V22.8654H135.623V16.0254ZM145.314 21.3654H143.322L142.962 22.8654H140.754L142.962 16.0254H145.782L147.894 22.8654H145.674L145.314 21.3654ZM144.306 17.5014L143.598 20.0334H145.026L144.354 17.5014H144.306ZM151.392 20.6814V22.8654H149.232V20.7054L146.928 16.0254H149.124L150.036 18.2454C150.132 18.4694 150.22 18.7054 150.3 18.9534H150.324C150.412 18.6814 150.5 18.4374 150.588 18.2214L151.488 16.0254H153.672L151.392 20.6814ZM159.579 14.8494H161.175L157.107 24.7374H155.511L159.579 14.8494ZM163.714 16.0254H165.886V18.5334H167.746V16.0254H169.918V22.8654H167.746V19.9134H165.886V22.8654H163.714V16.0254ZM176.399 21.5574V22.8654H170.855V21.4974L174.107 17.3454H170.951V16.0254H176.303V17.4054L173.099 21.5574H176.399ZM184.476 22.6374C184.18 22.7654 183.836 22.8574 183.444 22.9134C183.052 22.9694 182.688 22.9974 182.352 22.9974C181.264 22.9974 180.412 22.7134 179.796 22.1454C179.18 21.5774 178.872 20.7054 178.872 19.5294C178.872 18.3294 179.196 17.4334 179.844 16.8414C180.492 16.2414 181.404 15.9414 182.58 15.9414C183.14 15.9414 183.724 16.0174 184.332 16.1694C184.332 16.3294 184.316 16.5694 184.284 16.8894C184.252 17.2014 184.22 17.4214 184.188 17.5494H183.432C182.88 17.5494 182.444 17.5614 182.124 17.5854C181.812 17.6014 181.624 17.6374 181.56 17.6934C181.44 17.8054 181.348 18.0334 181.284 18.3774C181.22 18.7134 181.188 19.0374 181.188 19.3494C181.188 19.8934 181.256 20.3134 181.392 20.6094C181.528 20.8974 181.7 21.0894 181.908 21.1854C182.108 21.2814 182.44 21.3294 182.904 21.3294C183.272 21.3294 183.752 21.2974 184.344 21.2334L184.476 22.6374ZM189.224 21.3654H187.232L186.872 22.8654H184.664L186.872 16.0254H189.692L191.804 22.8654H189.584L189.224 21.3654ZM188.216 17.5014L187.508 20.0334H188.936L188.264 17.5014H188.216ZM192.377 16.0254H194.537V21.2814H197.333V22.8654H192.377V16.0254ZM203.331 22.6374C203.035 22.7654 202.691 22.8574 202.299 22.9134C201.907 22.9694 201.543 22.9974 201.207 22.9974C200.119 22.9974 199.267 22.7134 198.651 22.1454C198.035 21.5774 197.727 20.7054 197.727 19.5294C197.727 18.3294 198.051 17.4334 198.699 16.8414C199.347 16.2414 200.259 15.9414 201.435 15.9414C201.995 15.9414 202.579 16.0174 203.187 16.1694C203.187 16.3294 203.171 16.5694 203.139 16.8894C203.107 17.2014 203.075 17.4214 203.043 17.5494H202.287C201.735 17.5494 201.299 17.5614 200.979 17.5854C200.667 17.6014 200.479 17.6374 200.415 17.6934C200.295 17.8054 200.203 18.0334 200.139 18.3774C200.075 18.7134 200.043 19.0374 200.043 19.3494C200.043 19.8934 200.111 20.3134 200.247 20.6094C200.383 20.8974 200.555 21.0894 200.763 21.1854C200.963 21.2814 201.295 21.3294 201.759 21.3294C202.127 21.3294 202.607 21.2974 203.199 21.2334L203.331 22.6374Z" fill="#A8DADC"/>
<path d="M136.711 61.455C137.335 61.455 137.815 61.643 138.151 62.019C138.495 62.395 138.667 63.059 138.667 64.011C138.667 64.707 138.595 65.303 138.451 65.799C138.315 66.287 138.159 66.599 137.983 66.735C137.775 66.903 137.467 67.027 137.059 67.107C136.651 67.187 136.187 67.227 135.667 67.227C135.267 67.227 134.819 67.195 134.323 67.131C133.827 67.075 133.383 66.983 132.991 66.855V59.895L135.067 59.811V60.939C135.067 61.003 135.063 61.151 135.055 61.383C135.055 61.615 135.047 61.811 135.031 61.971C135.015 62.123 134.991 62.239 134.959 62.319L135.031 62.403C135.215 62.123 135.447 61.895 135.727 61.719C136.007 61.543 136.335 61.455 136.711 61.455ZM136.375 65.787C136.423 65.707 136.463 65.519 136.495 65.223C136.535 64.927 136.555 64.643 136.555 64.371C136.555 64.051 136.539 63.799 136.507 63.615C136.483 63.431 136.415 63.287 136.303 63.183C136.199 63.071 136.035 63.015 135.811 63.015C135.611 63.015 135.355 63.043 135.043 63.099V65.811C135.339 65.859 135.647 65.883 135.967 65.883C136.199 65.883 136.335 65.851 136.375 65.787ZM143.253 61.455C143.829 61.455 144.285 61.647 144.621 62.031C144.965 62.407 145.137 63.067 145.137 64.011C145.137 64.715 145.069 65.291 144.933 65.739C144.797 66.179 144.641 66.471 144.465 66.615C144.289 66.759 143.981 66.875 143.541 66.963C143.109 67.051 142.661 67.095 142.197 67.095C142.061 67.095 141.833 67.087 141.513 67.071V68.775L139.461 68.859V61.575H141.141L141.345 62.427C141.553 62.131 141.817 61.895 142.137 61.719C142.465 61.543 142.837 61.455 143.253 61.455ZM142.773 65.631C142.861 65.567 142.925 65.387 142.965 65.091C143.005 64.787 143.025 64.499 143.025 64.227C143.025 63.779 142.969 63.447 142.857 63.231C142.745 63.015 142.521 62.907 142.185 62.907C141.945 62.907 141.721 62.931 141.513 62.979V65.643L141.849 65.679C141.953 65.687 142.101 65.691 142.293 65.691C142.565 65.691 142.725 65.671 142.773 65.631ZM154.569 61.959C154.697 62.151 154.761 62.895 154.761 64.191V67.095H152.709V64.395V63.747C152.709 63.451 152.681 63.275 152.625 63.219C152.561 63.155 152.425 63.123 152.217 63.123L152.073 63.135C151.825 63.151 151.589 63.207 151.365 63.303C151.373 63.471 151.377 63.767 151.377 64.191V67.095H149.325V64.395V63.675C149.325 63.427 149.297 63.275 149.241 63.219C149.177 63.155 149.041 63.123 148.833 63.123L148.689 63.135C148.465 63.143 148.233 63.195 147.993 63.291V67.095H145.941V61.575H147.609L147.825 62.475C148.089 62.123 148.393 61.867 148.737 61.707C149.081 61.539 149.429 61.455 149.781 61.455C150.077 61.455 150.357 61.499 150.621 61.587C150.893 61.675 151.081 61.799 151.185 61.959C151.233 62.031 151.273 62.163 151.305 62.355C151.561 62.043 151.853 61.815 152.181 61.671C152.509 61.527 152.837 61.455 153.165 61.455C153.461 61.455 153.741 61.499 154.005 61.587C154.277 61.675 154.465 61.799 154.569 61.959Z" fill="#A8DADC"/>
<path d="M93.12 92.864C93.248 93.056 93.312 93.8 93.312 95.096V98H91.26V95.3V94.652C91.26 94.356 91.232 94.18 91.176 94.124C91.112 94.06 90.976 94.028 90.768 94.028L90.624 94.04C90.376 94.056 90.14 94.112 89.916 94.208C89.924 94.376 89.928 94.672 89.928 95.096V98H87.876V95.3V94.58C87.876 94.332 87.848 94.18 87.792 94.124C87.728 94.06 87.592 94.028 87.384 94.028L87.24 94.04C87.016 94.048 86.784 94.1 86.544 94.196V98H84.492V92.48H86.16L86.376 93.38C86.64 93.028 86.944 92.772 87.288 92.612C87.632 92.444 87.98 92.36 88.332 92.36C88.628 92.36 88.908 92.404 89.172 92.492C89.444 92.58 89.632 92.704 89.736 92.864C89.784 92.936 89.824 93.068 89.856 93.26C90.112 92.948 90.404 92.72 90.732 92.576C91.06 92.432 91.388 92.36 91.716 92.36C92.012 92.36 92.292 92.404 92.556 92.492C92.828 92.58 93.016 92.704 93.12 92.864ZM98.7294 96.128C98.7294 96.84 98.5014 97.352 98.0454 97.664C97.5974 97.976 96.9574 98.132 96.1254 98.132C95.5414 98.132 94.8694 98.048 94.1094 97.88C94.1254 97.72 94.1614 97.492 94.2174 97.196C94.2814 96.892 94.3334 96.66 94.3734 96.5C94.6614 96.548 94.9814 96.588 95.3334 96.62C95.6854 96.644 95.9854 96.656 96.2334 96.656C96.4494 96.656 96.5814 96.644 96.6294 96.62C96.6374 96.612 96.6454 96.592 96.6534 96.56C96.6694 96.52 96.6774 96.48 96.6774 96.44C96.6774 96.28 96.5774 96.172 96.3774 96.116C96.3134 96.1 96.0694 96.032 95.6454 95.912C95.2214 95.792 94.8734 95.576 94.6014 95.264C94.3374 94.944 94.2054 94.548 94.2054 94.076C94.2054 93.828 94.2614 93.552 94.3734 93.248C94.4854 92.944 94.6054 92.752 94.7334 92.672C94.8294 92.608 95.0614 92.544 95.4294 92.48C95.7974 92.408 96.1374 92.372 96.4494 92.372C97.1134 92.372 97.7814 92.42 98.4534 92.516C98.4534 92.66 98.4334 92.904 98.3934 93.248C98.3534 93.584 98.3174 93.796 98.2854 93.884C97.6054 93.796 97.0574 93.752 96.6414 93.752C96.4254 93.752 96.2854 93.764 96.2214 93.788C96.2054 93.796 96.1894 93.82 96.1734 93.86C96.1574 93.892 96.1494 93.936 96.1494 93.992C96.1494 94.104 96.1854 94.184 96.2574 94.232C96.3294 94.288 96.5174 94.356 96.8214 94.436C97.1814 94.54 97.4894 94.648 97.7454 94.76C98.0094 94.872 98.2374 95.04 98.4294 95.264C98.6294 95.488 98.7294 95.776 98.7294 96.128Z" fill="#A8DADC"/>
<path d="M162.832 92.828C162.904 92.916 162.956 93.136 162.988 93.488C163.028 93.84 163.048 94.376 163.048 95.096V98H160.996V95.12C160.996 95.088 160.996 94.932 160.996 94.652C160.996 94.364 160.976 94.188 160.936 94.124C160.912 94.092 160.852 94.068 160.756 94.052C160.668 94.036 160.564 94.028 160.444 94.028L160.24 94.04C160.016 94.048 159.784 94.1 159.544 94.196V98H157.492V90.8L159.544 90.716V92.12C159.544 92.696 159.524 93.08 159.484 93.272L159.496 93.284C160.04 92.668 160.692 92.36 161.452 92.36C161.74 92.36 162.008 92.4 162.256 92.48C162.512 92.56 162.704 92.676 162.832 92.828ZM168.784 96.656V98H163.828V96.62L166.492 93.788H163.9V92.48H168.724V93.848L166.072 96.656H168.784Z" fill="#A8DADC"/>
<path d="M52.797 66.3922C52.997 66.3922 53.369 66.3722 53.913 66.3322C53.985 66.3322 54.117 66.3242 54.309 66.3082L54.489 67.5442C53.873 67.8322 53.073 67.9762 52.089 67.9762C51.169 67.9762 50.461 67.7442 49.965 67.2802C49.477 66.8162 49.233 66.1162 49.233 65.1802C49.233 64.7002 49.293 64.2362 49.413 63.7882C49.541 63.3402 49.685 63.0282 49.845 62.8522C50.013 62.6762 50.325 62.5242 50.781 62.3962C51.237 62.2682 51.689 62.2042 52.137 62.2042C52.857 62.2042 53.397 62.3322 53.757 62.5882C54.117 62.8442 54.353 63.2002 54.465 63.6562C54.577 64.1042 54.633 64.7082 54.633 65.4682C54.089 65.5002 53.557 65.5162 53.037 65.5162H51.333C51.333 65.7722 51.385 65.9642 51.489 66.0922C51.601 66.2202 51.757 66.3042 51.957 66.3442C52.157 66.3762 52.437 66.3922 52.797 66.3922ZM51.453 63.6322C51.405 63.6562 51.369 63.7602 51.345 63.9442C51.321 64.1282 51.305 64.3362 51.297 64.5682H51.921C52.297 64.5682 52.569 64.5642 52.737 64.5562C52.737 64.1722 52.681 63.9002 52.569 63.7402C52.465 63.5802 52.281 63.5002 52.017 63.5002C51.801 63.5002 51.613 63.5442 51.453 63.6322ZM56.3633 65.0122L54.9833 62.3122H56.9753L57.9713 64.4482L58.9793 62.3122H60.9593L59.5913 65.0122L61.0913 67.8322H59.0873L57.9713 65.5522L56.8553 67.8322H54.8513L56.3633 65.0122ZM64.1102 65.5642C64.1102 65.7082 64.1142 65.8602 64.1222 66.0202C64.1302 66.1722 64.1542 66.2682 64.1942 66.3082C64.2502 66.3642 64.4462 66.3922 64.7822 66.3922L65.1902 66.3802C65.2622 66.7642 65.2982 67.2082 65.2982 67.7122C65.1462 67.7682 64.9222 67.8202 64.6262 67.8682C64.3382 67.9162 64.0622 67.9402 63.7982 67.9402C63.2462 67.9402 62.8182 67.8202 62.5142 67.5802C62.2182 67.3322 62.0702 66.9522 62.0702 66.4402V63.4882H61.1702V62.3962L62.0702 62.3122L62.6102 60.9922L64.1102 60.9082V62.3122H65.3822V63.4882H64.1102V65.5642Z" fill="#A8DADC"/>
<path d="M232.752 29.7039C232.88 29.8959 232.944 30.6399 232.944 31.9359V34.8399H230.892V32.1399V31.4919C230.892 31.1959 230.864 31.0199 230.808 30.9639C230.744 30.8999 230.608 30.8679 230.4 30.8679L230.256 30.8799C230.008 30.8959 229.772 30.9519 229.548 31.0479C229.556 31.2159 229.56 31.5119 229.56 31.9359V34.8399H227.508V32.1399V31.4199C227.508 31.1719 227.48 31.0199 227.424 30.9639C227.36 30.8999 227.224 30.8679 227.016 30.8679L226.872 30.8799C226.648 30.8879 226.416 30.9399 226.176 31.0359V34.8399H224.124V29.3199H225.792L226.008 30.2199C226.272 29.8679 226.576 29.6119 226.92 29.4519C227.264 29.2839 227.612 29.1999 227.964 29.1999C228.26 29.1999 228.54 29.2439 228.804 29.3319C229.076 29.4199 229.264 29.5439 229.368 29.7039C229.416 29.7759 229.456 29.9079 229.488 30.0999C229.744 29.7879 230.036 29.5599 230.364 29.4159C230.692 29.2719 231.02 29.1999 231.348 29.1999C231.644 29.1999 231.924 29.2439 232.188 29.3319C232.46 29.4199 232.648 29.5439 232.752 29.7039ZM238.362 32.9679C238.362 33.6799 238.134 34.1919 237.678 34.5039C237.23 34.8159 236.59 34.9719 235.758 34.9719C235.174 34.9719 234.502 34.8879 233.742 34.7199C233.758 34.5599 233.794 34.3319 233.85 34.0359C233.914 33.7319 233.966 33.4999 234.006 33.3399C234.294 33.3879 234.614 33.4279 234.966 33.4599C235.318 33.4839 235.618 33.4959 235.866 33.4959C236.082 33.4959 236.214 33.4839 236.262 33.4599C236.27 33.4519 236.278 33.4319 236.286 33.3999C236.302 33.3599 236.31 33.3199 236.31 33.2799C236.31 33.1199 236.21 33.0119 236.01 32.9559C235.946 32.9399 235.702 32.8719 235.278 32.7519C234.854 32.6319 234.506 32.4159 234.234 32.1039C233.97 31.7839 233.838 31.3879 233.838 30.9159C233.838 30.6679 233.894 30.3919 234.006 30.0879C234.118 29.7839 234.238 29.5919 234.366 29.5119C234.462 29.4479 234.694 29.3839 235.062 29.3199C235.43 29.2479 235.77 29.2119 236.082 29.2119C236.746 29.2119 237.414 29.2599 238.086 29.3559C238.086 29.4999 238.066 29.7439 238.026 30.0879C237.986 30.4239 237.95 30.6359 237.918 30.7239C237.238 30.6359 236.69 30.5919 236.274 30.5919C236.058 30.5919 235.918 30.6039 235.854 30.6279C235.838 30.6359 235.822 30.6599 235.806 30.6999C235.79 30.7319 235.782 30.7759 235.782 30.8319C235.782 30.9439 235.818 31.0239 235.89 31.0719C235.962 31.1279 236.15 31.1959 236.454 31.2759C236.814 31.3799 237.122 31.4879 237.378 31.5999C237.642 31.7119 237.87 31.8799 238.062 32.1039C238.262 32.3279 238.362 32.6159 238.362 32.9679ZM243.511 34.9959C242.551 34.9959 241.831 34.7719 241.351 34.3239C240.879 33.8679 240.643 33.1519 240.643 32.1759C240.643 31.6399 240.691 31.1719 240.787 30.7719C240.891 30.3639 241.015 30.0799 241.159 29.9199C241.343 29.7119 241.679 29.5399 242.167 29.4039C242.663 29.2679 243.127 29.1999 243.559 29.1999C244.591 29.1999 245.327 29.4199 245.767 29.8599C246.207 30.2999 246.427 31.0039 246.427 31.9719C246.427 33.0119 246.191 33.7759 245.719 34.2639C245.247 34.7519 244.511 34.9959 243.511 34.9959ZM243.547 33.5919C243.859 33.5919 244.063 33.4839 244.159 33.2679C244.255 33.0439 244.303 32.6519 244.303 32.0919C244.303 31.6999 244.283 31.3999 244.243 31.1919C244.203 30.9759 244.127 30.8199 244.015 30.7239C243.911 30.6199 243.747 30.5679 243.523 30.5679C243.203 30.5679 243.019 30.5959 242.971 30.6519C242.907 30.7079 242.855 30.8839 242.815 31.1799C242.775 31.4759 242.755 31.7839 242.755 32.1039C242.755 32.6479 242.807 33.0319 242.911 33.2559C243.023 33.4799 243.235 33.5919 243.547 33.5919ZM252.73 29.3199V34.8399H251.062L250.834 33.9159C250.258 34.6119 249.57 34.9599 248.77 34.9599C248.482 34.9599 248.21 34.9199 247.954 34.8399C247.706 34.7599 247.518 34.6439 247.39 34.4919C247.318 34.4039 247.262 34.1839 247.222 33.8319C247.19 33.4799 247.174 32.9439 247.174 32.2239V29.3199H249.226V32.1999C249.226 32.3599 249.23 32.5479 249.238 32.7639C249.246 32.9799 249.27 33.1159 249.31 33.1719C249.366 33.2519 249.526 33.2919 249.79 33.2919L249.982 33.2799C250.206 33.2719 250.438 33.2199 250.678 33.1239V29.3199H252.73ZM256.258 32.5719C256.258 32.7159 256.262 32.8679 256.27 33.0279C256.278 33.1799 256.302 33.2759 256.342 33.3159C256.398 33.3719 256.594 33.3999 256.93 33.3999L257.338 33.3879C257.41 33.7719 257.446 34.2159 257.446 34.7199C257.294 34.7759 257.07 34.8279 256.774 34.8759C256.486 34.9239 256.21 34.9479 255.946 34.9479C255.394 34.9479 254.966 34.8279 254.662 34.5879C254.366 34.3399 254.218 33.9599 254.218 33.4479V30.4959H253.318V29.4039L254.218 29.3199L254.758 27.9999L256.258 27.9159V29.3199H257.53V30.4959H256.258V32.5719ZM261.936 29.1999C262.512 29.1999 262.968 29.3919 263.304 29.7759C263.648 30.1519 263.82 30.8119 263.82 31.7559C263.82 32.4599 263.752 33.0359 263.616 33.4839C263.48 33.9239 263.324 34.2159 263.148 34.3599C262.972 34.5039 262.664 34.6199 262.224 34.7079C261.792 34.7959 261.344 34.8399 260.88 34.8399C260.744 34.8399 260.516 34.8319 260.196 34.8159V36.5199L258.144 36.6039V29.3199H259.824L260.028 30.1719C260.236 29.8759 260.5 29.6399 260.82 29.4639C261.148 29.2879 261.52 29.1999 261.936 29.1999ZM261.456 33.3759C261.544 33.3119 261.608 33.1319 261.648 32.8359C261.688 32.5319 261.708 32.2439 261.708 31.9719C261.708 31.5239 261.652 31.1919 261.54 30.9759C261.428 30.7599 261.204 30.6519 260.868 30.6519C260.628 30.6519 260.404 30.6759 260.196 30.7239V33.3879L260.532 33.4239C260.636 33.4319 260.784 33.4359 260.976 33.4359C261.248 33.4359 261.408 33.4159 261.456 33.3759ZM270.144 29.3199V34.8399H268.476L268.248 33.9159C267.672 34.6119 266.984 34.9599 266.184 34.9599C265.896 34.9599 265.624 34.9199 265.368 34.8399C265.12 34.7599 264.932 34.6439 264.804 34.4919C264.732 34.4039 264.676 34.1839 264.636 33.8319C264.604 33.4799 264.588 32.9439 264.588 32.2239V29.3199H266.64V32.1999C266.64 32.3599 266.644 32.5479 266.652 32.7639C266.66 32.9799 266.684 33.1159 266.724 33.1719C266.78 33.2519 266.94 33.2919 267.204 33.2919L267.396 33.2799C267.62 33.2719 267.852 33.2199 268.092 33.1239V29.3199H270.144ZM273.672 32.5719C273.672 32.7159 273.676 32.8679 273.684 33.0279C273.692 33.1799 273.716 33.2759 273.756 33.3159C273.812 33.3719 274.008 33.3999 274.344 33.3999L274.752 33.3879C274.824 33.7719 274.86 34.2159 274.86 34.7199C274.708 34.7759 274.484 34.8279 274.188 34.8759C273.9 34.9239 273.624 34.9479 273.36 34.9479C272.808 34.9479 272.38 34.8279 272.076 34.5879C271.78 34.3399 271.632 33.9599 271.632 33.4479V30.4959H270.732V29.4039L271.632 29.3199L272.172 27.9999L273.672 27.9159V29.3199H274.944V30.4959H273.672V32.5719ZM280.022 32.9679C280.022 33.6799 279.794 34.1919 279.338 34.5039C278.89 34.8159 278.25 34.9719 277.418 34.9719C276.834 34.9719 276.162 34.8879 275.402 34.7199C275.418 34.5599 275.454 34.3319 275.51 34.0359C275.574 33.7319 275.626 33.4999 275.666 33.3399C275.954 33.3879 276.274 33.4279 276.626 33.4599C276.978 33.4839 277.278 33.4959 277.526 33.4959C277.742 33.4959 277.874 33.4839 277.922 33.4599C277.93 33.4519 277.938 33.4319 277.946 33.3999C277.962 33.3599 277.97 33.3199 277.97 33.2799C277.97 33.1199 277.87 33.0119 277.67 32.9559C277.606 32.9399 277.362 32.8719 276.938 32.7519C276.514 32.6319 276.166 32.4159 275.894 32.1039C275.63 31.7839 275.498 31.3879 275.498 30.9159C275.498 30.6679 275.554 30.3919 275.666 30.0879C275.778 29.7839 275.898 29.5919 276.026 29.5119C276.122 29.4479 276.354 29.3839 276.722 29.3199C277.09 29.2479 277.43 29.2119 277.742 29.2119C278.406 29.2119 279.074 29.2599 279.746 29.3559C279.746 29.4999 279.726 29.7439 279.686 30.0879C279.646 30.4239 279.61 30.6359 279.578 30.7239C278.898 30.6359 278.35 30.5919 277.934 30.5919C277.718 30.5919 277.578 30.6039 277.514 30.6279C277.498 30.6359 277.482 30.6599 277.466 30.6999C277.45 30.7319 277.442 30.7759 277.442 30.8319C277.442 30.9439 277.478 31.0239 277.55 31.0719C277.622 31.1279 277.81 31.1959 278.114 31.2759C278.474 31.3799 278.782 31.4879 279.038 31.5999C279.302 31.7119 279.53 31.8799 279.722 32.1039C279.922 32.3279 280.022 32.6159 280.022 32.9679Z" fill="#A8DADC"/>
<rect x="73" y="54" width="55" height="20" rx="5" fill="#36617C"/>
<rect x="10" y="103" width="190" height="240" rx="5" fill="#36617C"/>
<path d="M32.832 92.828C32.904 92.916 32.956 93.136 32.988 93.488C33.028 93.84 33.048 94.376 33.048 95.096V98H30.996V95.12V94.628C30.996 94.372 30.976 94.212 30.936 94.148C30.872 94.068 30.724 94.028 30.492 94.028C30.38 94.028 30.296 94.032 30.24 94.04C30.016 94.048 29.784 94.1 29.544 94.196V98H27.492V92.48H29.16L29.388 93.404C29.964 92.708 30.652 92.36 31.452 92.36C31.74 92.36 32.008 92.4 32.256 92.48C32.512 92.56 32.704 92.676 32.832 92.828ZM36.6599 98.156C35.6999 98.156 34.9799 97.932 34.4999 97.484C34.0279 97.028 33.7919 96.312 33.7919 95.336C33.7919 94.8 33.8399 94.332 33.9359 93.932C34.0399 93.524 34.1639 93.24 34.3079 93.08C34.4919 92.872 34.8279 92.7 35.3159 92.564C35.8119 92.428 36.2759 92.36 36.7079 92.36C37.7399 92.36 38.4759 92.58 38.9159 93.02C39.3559 93.46 39.5759 94.164 39.5759 95.132C39.5759 96.172 39.3399 96.936 38.8679 97.424C38.3959 97.912 37.6599 98.156 36.6599 98.156ZM36.6959 96.752C37.0079 96.752 37.2119 96.644 37.3079 96.428C37.4039 96.204 37.4519 95.812 37.4519 95.252C37.4519 94.86 37.4319 94.56 37.3919 94.352C37.3519 94.136 37.2759 93.98 37.1639 93.884C37.0599 93.78 36.8959 93.728 36.6719 93.728C36.3519 93.728 36.1679 93.756 36.1199 93.812C36.0559 93.868 36.0039 94.044 35.9639 94.34C35.9239 94.636 35.9039 94.944 35.9039 95.264C35.9039 95.808 35.9559 96.192 36.0599 96.416C36.1719 96.64 36.3839 96.752 36.6959 96.752ZM42.9032 95.732C42.9032 95.876 42.9072 96.028 42.9152 96.188C42.9232 96.34 42.9472 96.436 42.9872 96.476C43.0432 96.532 43.2392 96.56 43.5752 96.56L43.9832 96.548C44.0552 96.932 44.0912 97.376 44.0912 97.88C43.9392 97.936 43.7152 97.988 43.4192 98.036C43.1312 98.084 42.8552 98.108 42.5912 98.108C42.0392 98.108 41.6112 97.988 41.3072 97.748C41.0112 97.5 40.8632 97.12 40.8632 96.608V93.656H39.9632V92.564L40.8632 92.48L41.4032 91.16L42.9032 91.076V92.48H44.1752V93.656H42.9032V95.732ZM48.1369 96.56C48.3369 96.56 48.7089 96.54 49.2529 96.5C49.3249 96.5 49.4569 96.492 49.6489 96.476L49.8289 97.712C49.2129 98 48.4129 98.144 47.4289 98.144C46.5089 98.144 45.8009 97.912 45.3049 97.448C44.8169 96.984 44.5729 96.284 44.5729 95.348C44.5729 94.868 44.6329 94.404 44.7529 93.956C44.8809 93.508 45.0249 93.196 45.1849 93.02C45.3529 92.844 45.6649 92.692 46.1209 92.564C46.5769 92.436 47.0289 92.372 47.4769 92.372C48.1969 92.372 48.7369 92.5 49.0969 92.756C49.4569 93.012 49.6929 93.368 49.8049 93.824C49.9169 94.272 49.9729 94.876 49.9729 95.636C49.4289 95.668 48.8969 95.684 48.3769 95.684H46.6729C46.6729 95.94 46.7249 96.132 46.8289 96.26C46.9409 96.388 47.0969 96.472 47.2969 96.512C47.4969 96.544 47.7769 96.56 48.1369 96.56ZM46.7929 93.8C46.7449 93.824 46.7089 93.928 46.6849 94.112C46.6609 94.296 46.6449 94.504 46.6369 94.736H47.2609C47.6369 94.736 47.9089 94.732 48.0769 94.724C48.0769 94.34 48.0209 94.068 47.9089 93.908C47.8049 93.748 47.6209 93.668 47.3569 93.668C47.1409 93.668 46.9529 93.712 46.7929 93.8Z" fill="#A8DADC"/>
<path d="M265.081 44.6399C264.807 44.6399 264.581 44.5499 264.401 44.3699C264.227 44.1899 264.141 43.9465 264.141 43.6399C264.141 43.3732 264.231 43.1499 264.411 42.9699C264.597 42.7832 264.831 42.6899 265.111 42.6899C265.377 42.6899 265.601 42.7832 265.781 42.9699C265.961 43.1499 266.051 43.3732 266.051 43.6399C266.051 43.9465 265.961 44.1899 265.781 44.3699C265.607 44.5499 265.374 44.6399 265.081 44.6399ZM269.741 40.2999V45.9999H267.991V41.7399L266.751 41.9999L266.561 40.9499L268.331 40.2999H269.741ZM273.928 39.3199H275.258L271.868 47.5599H270.538L273.928 39.3199ZM280.059 44.6699V45.9999H275.669V44.8899C276.009 44.6165 276.333 44.3532 276.639 44.0999C276.946 43.8399 277.289 43.5365 277.669 43.1899C277.856 43.0232 277.993 42.8432 278.079 42.6499C278.166 42.4565 278.209 42.2732 278.209 42.0999C278.209 41.9199 278.166 41.7799 278.079 41.6799C278.006 41.6065 277.619 41.5699 276.919 41.5699L276.249 41.5799C276.163 41.5865 276.056 41.5899 275.929 41.5899C275.909 41.4965 275.886 41.3132 275.859 41.0399C275.839 40.7665 275.829 40.5632 275.829 40.4299C276.583 40.2965 277.209 40.2299 277.709 40.2299C278.389 40.2299 278.929 40.3599 279.329 40.6199C279.736 40.8732 279.939 41.3132 279.939 41.9399C279.939 42.2399 279.863 42.5499 279.709 42.8699C279.556 43.1832 279.256 43.5132 278.809 43.8599C278.509 44.0932 278.116 44.3699 277.629 44.6899L280.059 44.6699Z" fill="#A8DADC"/>
<path d="M232.747 40.2999V45.9999H230.997V41.7399L229.757 41.9999L229.567 40.9499L231.337 40.2999H232.747Z" fill="#A8DADC"/>
<path d="M227.786 80.2999V85.9999H226.036V81.7399L224.796 81.9999L224.606 80.9499L226.376 80.2999H227.786ZM231.972 79.3199H233.302L229.912 87.5599H228.582L231.972 79.3199ZM238.104 84.6699V85.9999H233.714V84.8899C234.054 84.6165 234.378 84.3532 234.684 84.0999C234.991 83.8399 235.334 83.5365 235.714 83.1899C235.901 83.0232 236.038 82.8432 236.124 82.6499C236.211 82.4565 236.254 82.2732 236.254 82.0999C236.254 81.9199 236.211 81.7799 236.124 81.6799C236.051 81.6065 235.664 81.5699 234.964 81.5699L234.294 81.5799C234.208 81.5865 234.101 81.5899 233.974 81.5899C233.954 81.4965 233.931 81.3132 233.904 81.0399C233.884 80.7665 233.874 80.5632 233.874 80.4299C234.628 80.2965 235.254 80.2299 235.754 80.2299C236.434 80.2299 236.974 80.3599 237.374 80.6199C237.781 80.8732 237.984 81.3132 237.984 81.9399C237.984 82.2399 237.908 82.5499 237.754 82.8699C237.601 83.1832 237.301 83.5132 236.854 83.8599C236.554 84.0932 236.161 84.3699 235.674 84.6899L238.104 84.6699Z" fill="#A8DADC"/>
<path d="M224.429 124.64C224.156 124.64 223.929 124.55 223.749 124.37C223.576 124.19 223.489 123.947 223.489 123.64C223.489 123.373 223.579 123.15 223.759 122.97C223.946 122.783 224.179 122.69 224.459 122.69C224.726 122.69 224.949 122.783 225.129 122.97C225.309 123.15 225.399 123.373 225.399 123.64C225.399 123.947 225.309 124.19 225.129 124.37C224.956 124.55 224.723 124.64 224.429 124.64ZM229.089 120.3V126H227.339V121.74L226.099 122L225.909 120.95L227.679 120.3H229.089ZM233.276 119.32H234.606L231.216 127.56H229.886L233.276 119.32ZM239.858 124.82H238.998V126H237.248V124.82H235.118L234.778 123.8C235.065 123.28 235.438 122.7 235.898 122.06C236.358 121.42 236.808 120.833 237.248 120.3H238.998V123.66H239.858V124.82ZM237.278 121.89C236.898 122.437 236.515 123.027 236.128 123.66H237.278V121.89Z" fill="#A8DADC"/>
<path d="M225.129 164.11C225.129 164.23 225.132 164.357 225.139 164.49C225.145 164.617 225.165 164.697 225.199 164.73C225.245 164.777 225.409 164.8 225.689 164.8L226.029 164.79C226.089 165.11 226.119 165.48 226.119 165.9C225.992 165.947 225.805 165.99 225.559 166.03C225.319 166.07 225.089 166.09 224.869 166.09C224.409 166.09 224.052 165.99 223.799 165.79C223.552 165.583 223.429 165.267 223.429 164.84V162.38H222.679V161.47L223.429 161.4L223.879 160.3L225.129 160.23V161.4H226.189V162.38H225.129V164.11ZM229.48 160.3V166H227.73V161.74L226.49 162L226.3 160.95L228.07 160.3H229.48ZM233.667 159.32H234.997L231.607 167.56H230.277L233.667 159.32ZM240.249 164.82H239.389V166H237.639V164.82H235.509L235.169 163.8C235.455 163.28 235.829 162.7 236.289 162.06C236.749 161.42 237.199 160.833 237.639 160.3H239.389V163.66H240.249V164.82ZM237.669 161.89C237.289 162.437 236.905 163.027 236.519 163.66H237.669V161.89Z" fill="#A8DADC"/>
<path d="M228.066 200.3V206H226.316V201.74L225.076 202L224.886 200.95L226.656 200.3H228.066ZM232.253 199.32H233.583L230.193 207.56H228.863L232.253 199.32ZM237.565 202.85C237.991 203.043 238.301 203.27 238.495 203.53C238.688 203.783 238.785 204.087 238.785 204.44C238.785 204.98 238.551 205.393 238.085 205.68C237.625 205.967 237.048 206.11 236.355 206.11C235.668 206.11 235.108 205.99 234.675 205.75C234.248 205.503 234.035 205.137 234.035 204.65C234.035 204.377 234.135 204.107 234.335 203.84C234.541 203.573 234.831 203.357 235.205 203.19C234.885 203.003 234.638 202.78 234.465 202.52C234.298 202.253 234.215 201.993 234.215 201.74C234.215 201.24 234.428 200.863 234.855 200.61C235.281 200.357 235.808 200.23 236.435 200.23C237.841 200.23 238.545 200.69 238.545 201.61C238.545 202.037 238.218 202.45 237.565 202.85ZM236.445 201.2C236.251 201.2 236.105 201.247 236.005 201.34C235.911 201.427 235.865 201.563 235.865 201.75C235.865 201.917 235.935 202.057 236.075 202.17C236.221 202.277 236.418 202.38 236.665 202.48C236.991 202.253 237.155 202.02 237.155 201.78C237.155 201.58 237.095 201.433 236.975 201.34C236.861 201.247 236.685 201.2 236.445 201.2ZM236.375 205.15C236.555 205.15 236.711 205.1 236.845 205C236.978 204.893 237.045 204.747 237.045 204.56C237.045 204.38 236.978 204.233 236.845 204.12C236.718 204 236.505 203.867 236.205 203.72C236.025 203.847 235.881 203.977 235.775 204.11C235.675 204.243 235.625 204.393 235.625 204.56C235.625 204.74 235.701 204.883 235.855 204.99C236.015 205.097 236.188 205.15 236.375 205.15Z" fill="#A8DADC"/>
<path d="M223.02 244.64C222.747 244.64 222.52 244.55 222.34 244.37C222.167 244.19 222.08 243.947 222.08 243.64C222.08 243.373 222.17 243.15 222.35 242.97C222.537 242.783 222.77 242.69 223.05 242.69C223.317 242.69 223.54 242.783 223.72 242.97C223.9 243.15 223.99 243.373 223.99 243.64C223.99 243.947 223.9 244.19 223.72 244.37C223.547 244.55 223.313 244.64 223.02 244.64ZM227.68 240.3V246H225.93V241.74L224.69 242L224.5 240.95L226.27 240.3H227.68ZM231.867 239.32H233.197L229.807 247.56H228.477L231.867 239.32ZM236.489 240.3V246H234.739V241.74L233.499 242L233.309 240.95L235.079 240.3H236.489ZM240.406 242.3C241.106 242.3 241.576 242.49 241.816 242.87C242.062 243.25 242.186 243.667 242.186 244.12C242.186 244.733 241.996 245.223 241.616 245.59C241.242 245.95 240.669 246.13 239.896 246.13C239.056 246.13 238.442 245.897 238.056 245.43C237.676 244.963 237.486 244.257 237.486 243.31C237.486 242.297 237.706 241.533 238.146 241.02C238.586 240.507 239.209 240.25 240.016 240.25C240.342 240.25 240.649 240.267 240.936 240.3C241.222 240.333 241.446 240.377 241.606 240.43L241.416 241.49C241.056 241.463 240.802 241.45 240.656 241.45C240.182 241.45 239.822 241.537 239.576 241.71C239.336 241.877 239.196 242.19 239.156 242.65C239.356 242.537 239.569 242.45 239.796 242.39C240.022 242.33 240.226 242.3 240.406 242.3ZM239.856 244.9C240.309 244.9 240.536 244.647 240.536 244.14C240.536 243.907 240.492 243.73 240.406 243.61C240.346 243.543 240.179 243.51 239.906 243.51C239.659 243.51 239.422 243.537 239.196 243.59C239.182 243.71 239.176 243.807 239.176 243.88C239.176 244.16 239.232 244.4 239.346 244.6C239.459 244.8 239.629 244.9 239.856 244.9Z" fill="#A8DADC"/>
<path d="M223.219 284.11C223.219 284.23 223.223 284.357 223.229 284.49C223.236 284.617 223.256 284.697 223.289 284.73C223.336 284.777 223.499 284.8 223.779 284.8L224.119 284.79C224.179 285.11 224.209 285.48 224.209 285.9C224.083 285.947 223.896 285.99 223.649 286.03C223.409 286.07 223.179 286.09 222.959 286.09C222.499 286.09 222.143 285.99 221.889 285.79C221.643 285.583 221.519 285.267 221.519 284.84V282.38H220.769V281.47L221.519 281.4L221.969 280.3L223.219 280.23V281.4H224.279V282.38H223.219V284.11ZM227.571 280.3V286H225.821V281.74L224.581 282L224.391 280.95L226.161 280.3H227.571ZM231.758 279.32H233.088L229.698 287.56H228.368L231.758 279.32ZM236.379 280.3V286H234.629V281.74L233.389 282L233.199 280.95L234.969 280.3H236.379ZM240.296 282.3C240.996 282.3 241.466 282.49 241.706 282.87C241.953 283.25 242.076 283.667 242.076 284.12C242.076 284.733 241.886 285.223 241.506 285.59C241.133 285.95 240.56 286.13 239.786 286.13C238.946 286.13 238.333 285.897 237.946 285.43C237.566 284.963 237.376 284.257 237.376 283.31C237.376 282.297 237.596 281.533 238.036 281.02C238.476 280.507 239.1 280.25 239.906 280.25C240.233 280.25 240.54 280.267 240.826 280.3C241.113 280.333 241.336 280.377 241.496 280.43L241.306 281.49C240.946 281.463 240.693 281.45 240.546 281.45C240.073 281.45 239.713 281.537 239.466 281.71C239.226 281.877 239.086 282.19 239.046 282.65C239.246 282.537 239.46 282.45 239.686 282.39C239.913 282.33 240.116 282.3 240.296 282.3ZM239.746 284.9C240.2 284.9 240.426 284.647 240.426 284.14C240.426 283.907 240.383 283.73 240.296 283.61C240.236 283.543 240.07 283.51 239.796 283.51C239.55 283.51 239.313 283.537 239.086 283.59C239.073 283.71 239.066 283.807 239.066 283.88C239.066 284.16 239.123 284.4 239.236 284.6C239.35 284.8 239.52 284.9 239.746 284.9Z" fill="#A8DADC"/>
<path d="M225.893 320.3V326H224.143V321.74L222.903 322L222.713 320.95L224.483 320.3H225.893ZM230.08 319.32H231.41L228.02 327.56H226.69L230.08 319.32ZM234.642 323.09C235.115 323.123 235.455 323.257 235.662 323.49C235.868 323.723 235.972 324.013 235.972 324.36C235.972 324.86 235.785 325.28 235.412 325.62C235.038 325.953 234.442 326.12 233.622 326.12C233.068 326.12 232.452 326.067 231.772 325.96L231.972 324.86C232.572 324.887 232.965 324.9 233.152 324.9C233.518 324.9 233.785 324.853 233.952 324.76C234.125 324.667 234.212 324.483 234.212 324.21C234.212 324.017 234.148 323.873 234.022 323.78C233.902 323.68 233.728 323.617 233.502 323.59C233.275 323.563 232.952 323.55 232.532 323.55V322.62C232.952 322.62 233.268 322.61 233.482 322.59C233.702 322.563 233.868 322.507 233.982 322.42C234.102 322.333 234.162 322.197 234.162 322.01C234.162 321.85 234.158 321.723 234.152 321.63C234.145 321.537 234.122 321.477 234.082 321.45C234.028 321.417 233.792 321.4 233.372 321.4C232.992 321.4 232.528 321.413 231.982 321.44L231.882 320.38C232.608 320.28 233.192 320.23 233.632 320.23C234.272 320.23 234.795 320.353 235.202 320.6C235.615 320.847 235.822 321.247 235.822 321.8C235.822 322.08 235.728 322.347 235.542 322.6C235.362 322.847 235.062 323 234.642 323.06V323.09ZM240.997 324.67V326H236.607V324.89C236.947 324.617 237.27 324.353 237.577 324.1C237.884 323.84 238.227 323.537 238.607 323.19C238.794 323.023 238.93 322.843 239.017 322.65C239.104 322.457 239.147 322.273 239.147 322.1C239.147 321.92 239.104 321.78 239.017 321.68C238.944 321.607 238.557 321.57 237.857 321.57L237.187 321.58C237.1 321.587 236.994 321.59 236.867 321.59C236.847 321.497 236.824 321.313 236.797 321.04C236.777 320.767 236.767 320.563 236.767 320.43C237.52 320.297 238.147 320.23 238.647 320.23C239.327 320.23 239.867 320.36 240.267 320.62C240.674 320.873 240.877 321.313 240.877 321.94C240.877 322.24 240.8 322.55 240.647 322.87C240.494 323.183 240.194 323.513 239.747 323.86C239.447 324.093 239.054 324.37 238.567 324.69L240.997 324.67Z" fill="#A8DADC"/>
<path d="M265.28 84.1099C265.28 84.2299 265.283 84.3565 265.29 84.4899C265.297 84.6165 265.317 84.6965 265.35 84.7299C265.397 84.7765 265.56 84.7999 265.84 84.7999L266.18 84.7899C266.24 85.1099 266.27 85.4799 266.27 85.8999C266.143 85.9465 265.957 85.9899 265.71 86.0299C265.47 86.0699 265.24 86.0899 265.02 86.0899C264.56 86.0899 264.203 85.9899 263.95 85.7899C263.703 85.5832 263.58 85.2665 263.58 84.8399V82.3799H262.83V81.4699L263.58 81.3999L264.03 80.2999L265.28 80.2299V81.3999H266.34V82.3799H265.28V84.1099ZM269.631 80.2999V85.9999H267.881V81.7399L266.641 81.9999L266.451 80.9499L268.221 80.2999H269.631ZM273.818 79.3199H275.148L271.758 87.5599H270.428L273.818 79.3199ZM279.95 84.6699V85.9999H275.56V84.8899C275.9 84.6165 276.223 84.3532 276.53 84.0999C276.837 83.8399 277.18 83.5365 277.56 83.1899C277.747 83.0232 277.883 82.8432 277.97 82.6499C278.057 82.4565 278.1 82.2732 278.1 82.0999C278.1 81.9199 278.057 81.7799 277.97 81.6799C277.897 81.6065 277.51 81.5699 276.81 81.5699L276.14 81.5799C276.053 81.5865 275.947 81.5899 275.82 81.5899C275.8 81.4965 275.777 81.3132 275.75 81.0399C275.73 80.7665 275.72 80.5632 275.72 80.4299C276.473 80.2965 277.1 80.2299 277.6 80.2299C278.28 80.2299 278.82 80.3599 279.22 80.6199C279.627 80.8732 279.83 81.3132 279.83 81.9399C279.83 82.2399 279.753 82.5499 279.6 82.8699C279.447 83.1832 279.147 83.5132 278.7 83.8599C278.4 84.0932 278.007 84.3699 277.52 84.6899L279.95 84.6699Z" fill="#A8DADC"/>
<path d="M268.134 120.3V126H266.384V121.74L265.144 122L264.954 120.95L266.724 120.3H268.134ZM272.321 119.32H273.651L270.261 127.56H268.931L272.321 119.32ZM278.903 124.82H278.043V126H276.293V124.82H274.163L273.823 123.8C274.11 123.28 274.483 122.7 274.943 122.06C275.403 121.42 275.853 120.833 276.293 120.3H278.043V123.66H278.903V124.82ZM276.323 121.89C275.943 122.437 275.56 123.027 275.173 123.66H276.323V121.89Z" fill="#A8DADC"/>
<path d="M264.361 164.64C264.088 164.64 263.861 164.55 263.681 164.37C263.508 164.19 263.421 163.947 263.421 163.64C263.421 163.373 263.511 163.15 263.691 162.97C263.878 162.783 264.111 162.69 264.391 162.69C264.658 162.69 264.881 162.783 265.061 162.97C265.241 163.15 265.331 163.373 265.331 163.64C265.331 163.947 265.241 164.19 265.061 164.37C264.888 164.55 264.654 164.64 264.361 164.64ZM269.021 160.3V166H267.271V161.74L266.031 162L265.841 160.95L267.611 160.3H269.021ZM273.208 159.32H274.538L271.148 167.56H269.818L273.208 159.32ZM278.52 162.85C278.946 163.043 279.256 163.27 279.45 163.53C279.643 163.783 279.74 164.087 279.74 164.44C279.74 164.98 279.506 165.393 279.04 165.68C278.58 165.967 278.003 166.11 277.31 166.11C276.623 166.11 276.063 165.99 275.63 165.75C275.203 165.503 274.99 165.137 274.99 164.65C274.99 164.377 275.09 164.107 275.29 163.84C275.496 163.573 275.786 163.357 276.16 163.19C275.84 163.003 275.593 162.78 275.42 162.52C275.253 162.253 275.17 161.993 275.17 161.74C275.17 161.24 275.383 160.863 275.81 160.61C276.236 160.357 276.763 160.23 277.39 160.23C278.796 160.23 279.5 160.69 279.5 161.61C279.5 162.037 279.173 162.45 278.52 162.85ZM277.4 161.2C277.206 161.2 277.06 161.247 276.96 161.34C276.866 161.427 276.82 161.563 276.82 161.75C276.82 161.917 276.89 162.057 277.03 162.17C277.176 162.277 277.373 162.38 277.62 162.48C277.946 162.253 278.11 162.02 278.11 161.78C278.11 161.58 278.05 161.433 277.93 161.34C277.816 161.247 277.64 161.2 277.4 161.2ZM277.33 165.15C277.51 165.15 277.666 165.1 277.8 165C277.933 164.893 278 164.747 278 164.56C278 164.38 277.933 164.233 277.8 164.12C277.673 164 277.46 163.867 277.16 163.72C276.98 163.847 276.836 163.977 276.73 164.11C276.63 164.243 276.58 164.393 276.58 164.56C276.58 164.74 276.656 164.883 276.81 164.99C276.97 165.097 277.143 165.15 277.33 165.15Z" fill="#A8DADC"/>
<path d="M265.06 204.11C265.06 204.23 265.064 204.357 265.07 204.49C265.077 204.617 265.097 204.697 265.13 204.73C265.177 204.777 265.34 204.8 265.62 204.8L265.96 204.79C266.02 205.11 266.05 205.48 266.05 205.9C265.924 205.947 265.737 205.99 265.49 206.03C265.25 206.07 265.02 206.09 264.8 206.09C264.34 206.09 263.984 205.99 263.73 205.79C263.484 205.583 263.36 205.267 263.36 204.84V202.38H262.61V201.47L263.36 201.4L263.81 200.3L265.06 200.23V201.4H266.12V202.38H265.06V204.11ZM269.412 200.3V206H267.662V201.74L266.422 202L266.232 200.95L268.002 200.3H269.412ZM273.598 199.32H274.928L271.538 207.56H270.208L273.598 199.32ZM278.91 202.85C279.337 203.043 279.647 203.27 279.84 203.53C280.034 203.783 280.13 204.087 280.13 204.44C280.13 204.98 279.897 205.393 279.43 205.68C278.97 205.967 278.394 206.11 277.7 206.11C277.014 206.11 276.454 205.99 276.02 205.75C275.594 205.503 275.38 205.137 275.38 204.65C275.38 204.377 275.48 204.107 275.68 203.84C275.887 203.573 276.177 203.357 276.55 203.19C276.23 203.003 275.984 202.78 275.81 202.52C275.644 202.253 275.56 201.993 275.56 201.74C275.56 201.24 275.774 200.863 276.2 200.61C276.627 200.357 277.154 200.23 277.78 200.23C279.187 200.23 279.89 200.69 279.89 201.61C279.89 202.037 279.564 202.45 278.91 202.85ZM277.79 201.2C277.597 201.2 277.45 201.247 277.35 201.34C277.257 201.427 277.21 201.563 277.21 201.75C277.21 201.917 277.28 202.057 277.42 202.17C277.567 202.277 277.764 202.38 278.01 202.48C278.337 202.253 278.5 202.02 278.5 201.78C278.5 201.58 278.44 201.433 278.32 201.34C278.207 201.247 278.03 201.2 277.79 201.2ZM277.72 205.15C277.9 205.15 278.057 205.1 278.19 205C278.324 204.893 278.39 204.747 278.39 204.56C278.39 204.38 278.324 204.233 278.19 204.12C278.064 204 277.85 203.867 277.55 203.72C277.37 203.847 277.227 203.977 277.12 204.11C277.02 204.243 276.97 204.393 276.97 204.56C276.97 204.74 277.047 204.883 277.2 204.99C277.36 205.097 277.534 205.15 277.72 205.15Z" fill="#A8DADC"/>
<path d="M265.725 240.3V246H263.975V241.74L262.735 242L262.545 240.95L264.315 240.3H265.725ZM269.912 239.32H271.242L267.852 247.56H266.522L269.912 239.32ZM274.534 240.3V246H272.784V241.74L271.544 242L271.354 240.95L273.124 240.3H274.534ZM278.45 242.3C279.15 242.3 279.62 242.49 279.86 242.87C280.107 243.25 280.23 243.667 280.23 244.12C280.23 244.733 280.04 245.223 279.66 245.59C279.287 245.95 278.714 246.13 277.94 246.13C277.1 246.13 276.487 245.897 276.1 245.43C275.72 244.963 275.53 244.257 275.53 243.31C275.53 242.297 275.75 241.533 276.19 241.02C276.63 240.507 277.254 240.25 278.06 240.25C278.387 240.25 278.694 240.267 278.98 240.3C279.267 240.333 279.49 240.377 279.65 240.43L279.46 241.49C279.1 241.463 278.847 241.45 278.7 241.45C278.227 241.45 277.867 241.537 277.62 241.71C277.38 241.877 277.24 242.19 277.2 242.65C277.4 242.537 277.614 242.45 277.84 242.39C278.067 242.33 278.27 242.3 278.45 242.3ZM277.9 244.9C278.354 244.9 278.58 244.647 278.58 244.14C278.58 243.907 278.537 243.73 278.45 243.61C278.39 243.543 278.224 243.51 277.95 243.51C277.704 243.51 277.467 243.537 277.24 243.59C277.227 243.71 277.22 243.807 277.22 243.88C277.22 244.16 277.277 244.4 277.39 244.6C277.504 244.8 277.674 244.9 277.9 244.9Z" fill="#A8DADC"/>
<path d="M262.188 284.64C261.915 284.64 261.688 284.55 261.508 284.37C261.335 284.19 261.248 283.947 261.248 283.64C261.248 283.373 261.338 283.15 261.518 282.97C261.705 282.783 261.938 282.69 262.218 282.69C262.485 282.69 262.708 282.783 262.888 282.97C263.068 283.15 263.158 283.373 263.158 283.64C263.158 283.947 263.068 284.19 262.888 284.37C262.715 284.55 262.481 284.64 262.188 284.64ZM266.848 280.3V286H265.098V281.74L263.858 282L263.668 280.95L265.438 280.3H266.848ZM271.035 279.32H272.365L268.975 287.56H267.645L271.035 279.32ZM275.597 283.09C276.07 283.123 276.41 283.257 276.617 283.49C276.823 283.723 276.927 284.013 276.927 284.36C276.927 284.86 276.74 285.28 276.367 285.62C275.993 285.953 275.397 286.12 274.577 286.12C274.023 286.12 273.407 286.067 272.727 285.96L272.927 284.86C273.527 284.887 273.92 284.9 274.107 284.9C274.473 284.9 274.74 284.853 274.907 284.76C275.08 284.667 275.167 284.483 275.167 284.21C275.167 284.017 275.103 283.873 274.977 283.78C274.857 283.68 274.683 283.617 274.457 283.59C274.23 283.563 273.907 283.55 273.487 283.55V282.62C273.907 282.62 274.223 282.61 274.437 282.59C274.657 282.563 274.823 282.507 274.937 282.42C275.057 282.333 275.117 282.197 275.117 282.01C275.117 281.85 275.113 281.723 275.107 281.63C275.1 281.537 275.077 281.477 275.037 281.45C274.983 281.417 274.747 281.4 274.327 281.4C273.947 281.4 273.483 281.413 272.937 281.44L272.837 280.38C273.563 280.28 274.147 280.23 274.587 280.23C275.227 280.23 275.75 280.353 276.157 280.6C276.57 280.847 276.777 281.247 276.777 281.8C276.777 282.08 276.683 282.347 276.497 282.6C276.317 282.847 276.017 283 275.597 283.06V283.09ZM281.952 284.67V286H277.562V284.89C277.902 284.617 278.225 284.353 278.532 284.1C278.839 283.84 279.182 283.537 279.562 283.19C279.749 283.023 279.885 282.843 279.972 282.65C280.059 282.457 280.102 282.273 280.102 282.1C280.102 281.92 280.059 281.78 279.972 281.68C279.899 281.607 279.512 281.57 278.812 281.57L278.142 281.58C278.055 281.587 277.949 281.59 277.822 281.59C277.802 281.497 277.779 281.313 277.752 281.04C277.732 280.767 277.722 280.563 277.722 280.43C278.475 280.297 279.102 280.23 279.602 280.23C280.282 280.23 280.822 280.36 281.222 280.62C281.629 280.873 281.832 281.313 281.832 281.94C281.832 282.24 281.755 282.55 281.602 282.87C281.449 283.183 281.149 283.513 280.702 283.86C280.402 284.093 280.009 284.37 279.522 284.69L281.952 284.67Z" fill="#A8DADC"/>
<path d="M263.387 324.11C263.387 324.23 263.391 324.357 263.397 324.49C263.404 324.617 263.424 324.697 263.457 324.73C263.504 324.777 263.667 324.8 263.947 324.8L264.287 324.79C264.347 325.11 264.377 325.48 264.377 325.9C264.251 325.947 264.064 325.99 263.817 326.03C263.577 326.07 263.347 326.09 263.127 326.09C262.667 326.09 262.311 325.99 262.057 325.79C261.811 325.583 261.687 325.267 261.687 324.84V322.38H260.937V321.47L261.687 321.4L262.137 320.3L263.387 320.23V321.4H264.447V322.38H263.387V324.11ZM267.739 320.3V326H265.989V321.74L264.749 322L264.559 320.95L266.329 320.3H267.739ZM271.926 319.32H273.256L269.866 327.56H268.536L271.926 319.32ZM276.487 323.09C276.961 323.123 277.301 323.257 277.507 323.49C277.714 323.723 277.817 324.013 277.817 324.36C277.817 324.86 277.631 325.28 277.257 325.62C276.884 325.953 276.287 326.12 275.467 326.12C274.914 326.12 274.297 326.067 273.617 325.96L273.817 324.86C274.417 324.887 274.811 324.9 274.997 324.9C275.364 324.9 275.631 324.853 275.797 324.76C275.971 324.667 276.057 324.483 276.057 324.21C276.057 324.017 275.994 323.873 275.867 323.78C275.747 323.68 275.574 323.617 275.347 323.59C275.121 323.563 274.797 323.55 274.377 323.55V322.62C274.797 322.62 275.114 322.61 275.327 322.59C275.547 322.563 275.714 322.507 275.827 322.42C275.947 322.333 276.007 322.197 276.007 322.01C276.007 321.85 276.004 321.723 275.997 321.63C275.991 321.537 275.967 321.477 275.927 321.45C275.874 321.417 275.637 321.4 275.217 321.4C274.837 321.4 274.374 321.413 273.827 321.44L273.727 320.38C274.454 320.28 275.037 320.23 275.477 320.23C276.117 320.23 276.641 320.353 277.047 320.6C277.461 320.847 277.667 321.247 277.667 321.8C277.667 322.08 277.574 322.347 277.387 322.6C277.207 322.847 276.907 323 276.487 323.06V323.09ZM282.843 324.67V326H278.453V324.89C278.793 324.617 279.116 324.353 279.423 324.1C279.729 323.84 280.073 323.537 280.453 323.19C280.639 323.023 280.776 322.843 280.863 322.65C280.949 322.457 280.993 322.273 280.993 322.1C280.993 321.92 280.949 321.78 280.863 321.68C280.789 321.607 280.403 321.57 279.703 321.57L279.033 321.58C278.946 321.587 278.839 321.59 278.713 321.59C278.693 321.497 278.669 321.313 278.643 321.04C278.623 320.767 278.613 320.563 278.613 320.43C279.366 320.297 279.993 320.23 280.493 320.23C281.173 320.23 281.713 320.36 282.113 320.62C282.519 320.873 282.723 321.313 282.723 321.94C282.723 322.24 282.646 322.55 282.493 322.87C282.339 323.183 282.039 323.513 281.593 323.86C281.293 324.093 280.899 324.37 280.413 324.69L282.843 324.67Z" fill="#A8DADC"/>
</svg>
