<svg width="60" height="380" viewBox="0 0 60 380" fill="none" xmlns="http://www.w3.org/2000/svg">
<rect width="60" height="380" fill="#457B9D"/>
<g opacity="0.5">
<path fill-rule="evenodd" clip-rule="evenodd" d="M23.958 375.599C23.803 375.747 23.659 375.851 23.526 375.909C23.393 375.968 23.251 375.998 23.1 375.998C22.948 375.998 22.806 375.97 22.673 375.914C22.54 375.858 22.424 375.781 22.325 375.682C22.109 375.466 22 375.209 22 374.912V369.385C22 369.082 22.078 368.847 22.232 368.68C22.498 368.408 22.75 368.272 22.988 368.272C23.226 368.272 23.404 368.296 23.522 368.346C23.639 368.395 23.738 368.457 23.818 368.531C23.924 368.624 24.002 368.723 24.055 368.828C24.108 368.933 24.151 369.011 24.185 369.06C24.219 369.11 24.275 369.134 24.352 369.134C24.429 369.134 24.496 369.11 24.551 369.06L24.709 368.902C25.16 368.482 25.612 368.272 26.063 368.272C26.861 368.272 27.519 368.599 28.039 369.255C28.088 369.323 28.15 369.357 28.224 369.357C28.354 369.357 28.486 369.256 28.619 369.055C28.752 368.854 28.966 368.674 29.263 368.513C29.56 368.352 29.906 368.272 30.302 368.272C30.698 368.272 31.058 368.344 31.383 368.49C31.707 368.635 31.99 368.834 32.231 369.088C32.738 369.62 32.992 370.263 32.992 371.017V374.912C32.992 375.382 32.769 375.713 32.324 375.905C32.188 375.967 32.044 375.998 31.893 375.998C31.741 375.998 31.599 375.97 31.466 375.914C31.333 375.858 31.217 375.781 31.118 375.682C30.908 375.46 30.803 375.203 30.803 374.912V371.045C30.803 370.736 30.726 370.504 30.571 370.349C30.299 370.077 30.049 369.941 29.82 369.941C29.591 369.941 29.412 369.971 29.282 370.029C29.152 370.088 29.034 370.17 28.929 370.275C28.713 370.492 28.605 370.742 28.605 371.026V374.912C28.605 375.382 28.385 375.713 27.946 375.905C27.81 375.967 27.666 375.998 27.515 375.998C27.363 375.998 27.22 375.97 27.083 375.914C26.947 375.858 26.83 375.781 26.731 375.682C26.515 375.466 26.406 375.209 26.406 374.912V371.045C26.406 370.736 26.329 370.504 26.174 370.349C25.902 370.077 25.618 369.941 25.321 369.941C24.826 369.941 24.483 370.133 24.292 370.516C24.23 370.64 24.199 370.779 24.199 370.934V374.912C24.199 375.215 24.118 375.444 23.958 375.599ZM35.219 369.387C35.219 369.084 35.296 368.849 35.451 368.682C35.716 368.41 36.01 368.274 36.332 368.274C36.641 368.274 36.87 368.355 37.018 368.515C37.29 368.794 37.426 369.084 37.426 369.387V374.915C37.426 375.212 37.349 375.437 37.194 375.592C36.922 375.864 36.672 376 36.443 376C36.214 376 36.032 375.971 35.896 375.912C35.76 375.853 35.642 375.777 35.543 375.685C35.327 375.474 35.219 375.218 35.219 374.915V369.387ZM36.327 365.9C36.065 365.9 35.852 365.687 35.852 365.425C35.852 365.162 36.065 364.95 36.327 364.95C36.589 364.95 36.802 365.162 36.802 365.425C36.802 365.687 36.589 365.9 36.327 365.9ZM36.327 364C36.714 364 37.048 364.142 37.329 364.425C37.611 364.709 37.752 364.996 37.752 365.287C37.752 365.577 37.713 365.807 37.635 365.978C37.558 366.148 37.456 366.297 37.329 366.424C37.048 366.708 36.714 366.849 36.327 366.849C35.94 366.849 35.606 366.708 35.324 366.424C35.043 366.141 34.902 365.857 34.902 365.574C34.902 365.092 35.043 364.709 35.324 364.425C35.606 364.142 35.94 364 36.327 364Z" fill="#1D3557"/>
</g>
<path d="M12.1652 22.6374C11.8692 22.7654 11.5252 22.8574 11.1332 22.9134C10.7412 22.9694 10.3772 22.9974 10.0412 22.9974C8.95317 22.9974 8.10117 22.7134 7.48517 22.1454C6.86917 21.5774 6.56117 20.7054 6.56117 19.5294C6.56117 18.3294 6.88517 17.4334 7.53317 16.8414C8.18117 16.2414 9.09317 15.9414 10.2692 15.9414C10.8292 15.9414 11.4132 16.0174 12.0212 16.1694C12.0212 16.3294 12.0052 16.5694 11.9732 16.8894C11.9412 17.2014 11.9092 17.4214 11.8772 17.5494H11.1212C10.5692 17.5494 10.1332 17.5614 9.81317 17.5854C9.50117 17.6014 9.31317 17.6374 9.24917 17.6934C9.12917 17.8054 9.03717 18.0334 8.97317 18.3774C8.90917 18.7134 8.87717 19.0374 8.87717 19.3494C8.87717 19.8934 8.94517 20.3134 9.08117 20.6094C9.21717 20.8974 9.38917 21.0894 9.59717 21.1854C9.79717 21.2814 10.1292 21.3294 10.5932 21.3294C10.9612 21.3294 11.4412 21.2974 12.0332 21.2334L12.1652 22.6374ZM16.9135 16.0254H19.1935L17.3455 22.8654H14.2135L12.3535 16.0254H14.6455L15.7495 21.3774H15.8095L16.9135 16.0254ZM27.5373 22.1574V19.9974H19.8093V18.5334H27.5373V16.3734L30.6333 19.2654L27.5373 22.1574ZM35.4321 22.8654H33.2721V17.5254H31.3401V16.0254H37.3641V17.5254H35.4321V22.8654ZM44.2831 22.8654H42.0151L41.6071 21.1374C41.5911 21.0734 41.5631 20.9654 41.5231 20.8134C41.4911 20.6534 41.4511 20.5374 41.4031 20.4654C41.3551 20.3854 41.2871 20.3334 41.1991 20.3094C40.9751 20.3174 40.6471 20.3214 40.2151 20.3214V22.8654H38.0551V16.0854C39.0231 16.0134 39.9271 15.9774 40.7671 15.9774C41.5271 15.9774 42.1431 16.0414 42.6151 16.1694C43.0871 16.2894 43.4391 16.5014 43.6711 16.8054C43.9111 17.1014 44.0311 17.5094 44.0311 18.0294C44.0311 18.5174 43.9191 18.9014 43.6951 19.1814C43.4711 19.4534 43.1111 19.6174 42.6151 19.6734V19.7454C42.8951 19.7694 43.1271 19.8614 43.3111 20.0214C43.5031 20.1734 43.6311 20.3694 43.6951 20.6094L44.2831 22.8654ZM40.2151 18.9654C40.2871 18.9734 40.4271 18.9774 40.6351 18.9774C41.2511 18.9774 41.6111 18.9254 41.7151 18.8214C41.8111 18.7254 41.8591 18.5014 41.8591 18.1494C41.8591 17.8214 41.7711 17.5974 41.5951 17.4774C41.4271 17.3574 41.1471 17.2974 40.7551 17.2974C40.6671 17.2974 40.4871 17.3054 40.2151 17.3214V18.9654ZM45.028 16.0254H47.188V22.8654H45.028V16.0254ZM54.3787 19.0734V22.4934C53.8427 22.6694 53.3347 22.7974 52.8547 22.8774C52.3747 22.9574 51.9707 22.9974 51.6427 22.9974C50.5547 22.9974 49.7027 22.7134 49.0867 22.1454C48.4707 21.5774 48.1627 20.7054 48.1627 19.5294C48.1627 18.3294 48.4867 17.4334 49.1347 16.8414C49.7827 16.2414 50.6947 15.9414 51.8707 15.9414C52.4867 15.9414 53.2267 16.0334 54.0907 16.2174C54.0907 16.3774 54.0747 16.6174 54.0427 16.9374C54.0107 17.2494 53.9787 17.4694 53.9467 17.5974L53.5147 17.5854C52.9867 17.5694 52.5747 17.5614 52.2787 17.5614C51.3907 17.5614 50.9067 17.6134 50.8267 17.7174C50.6987 17.8694 50.6067 18.1054 50.5507 18.4254C50.5027 18.7454 50.4787 19.0534 50.4787 19.3494C50.4787 19.8854 50.5387 20.3014 50.6587 20.5974C50.7787 20.8934 50.9627 21.1014 51.2107 21.2214C51.4587 21.3414 51.7947 21.4014 52.2187 21.4014H52.2667V19.0734H54.3787Z" fill="#A8DADC"/>
<path d="M14.2157 322.732C14.2157 322.876 14.2197 323.028 14.2277 323.188C14.2357 323.34 14.2597 323.436 14.2997 323.476C14.3557 323.532 14.5517 323.56 14.8877 323.56L15.2957 323.548C15.3677 323.932 15.4037 324.376 15.4037 324.88C15.2517 324.936 15.0277 324.988 14.7317 325.036C14.4437 325.084 14.1677 325.108 13.9037 325.108C13.3517 325.108 12.9237 324.988 12.6197 324.748C12.3237 324.5 12.1757 324.12 12.1757 323.608V320.656H11.2757V319.564L12.1757 319.48L12.7157 318.16L14.2157 318.076V319.48H15.4877V320.656H14.2157V322.732ZM19.5214 319.36C19.6254 319.36 19.7334 319.372 19.8454 319.396C19.9654 319.42 20.0534 319.448 20.1094 319.48C20.1094 319.656 20.0894 319.948 20.0494 320.356C20.0094 320.756 19.9734 321.04 19.9414 321.208C19.8614 321.2 19.7134 321.196 19.4974 321.196C18.9934 321.196 18.5454 321.224 18.1534 321.28V325H16.1014V319.48H17.8174L18.0574 320.368H18.0694C18.3014 320.064 18.5494 319.82 18.8134 319.636C19.0774 319.452 19.3134 319.36 19.5214 319.36ZM21.7163 318.796C21.4443 318.796 21.2083 318.704 21.0083 318.52C20.8163 318.336 20.7203 318.116 20.7203 317.86C20.7203 317.604 20.8163 317.384 21.0083 317.2C21.2083 317.016 21.4443 316.924 21.7163 316.924C21.9883 316.924 22.2203 317.016 22.4123 317.2C22.6043 317.384 22.7003 317.604 22.7003 317.86C22.7003 318.116 22.6043 318.336 22.4123 318.52C22.2203 318.704 21.9883 318.796 21.7163 318.796ZM20.6843 319.48H22.7363V325H20.6843V319.48ZM26.6337 319.384C27.0097 319.384 27.4017 319.412 27.8097 319.468C28.2177 319.516 28.6937 319.584 29.2377 319.672V324.448C29.2377 325.592 28.8577 326.48 28.0977 327.112C28.0017 327.192 27.7857 327.26 27.4497 327.316C27.1137 327.372 26.7337 327.4 26.3097 327.4C25.3897 327.4 24.6617 327.28 24.1257 327.04C24.1177 326.864 24.1297 326.632 24.1617 326.344C24.2017 326.056 24.2417 325.828 24.2817 325.66C24.8577 325.748 25.4217 325.792 25.9737 325.792C26.2537 325.792 26.4897 325.776 26.6817 325.744C26.8817 325.72 27.0057 325.68 27.0537 325.624C27.1177 325.56 27.1657 325.32 27.1977 324.904C27.2057 324.792 27.2097 324.628 27.2097 324.412V324.112C27.0097 324.408 26.7537 324.62 26.4417 324.748C26.1297 324.876 25.8497 324.94 25.6017 324.94C24.9297 324.94 24.4217 324.72 24.0777 324.28C23.7337 323.84 23.5617 323.196 23.5617 322.348C23.5617 321.788 23.6377 321.264 23.7897 320.776C23.9497 320.28 24.1657 319.936 24.4377 319.744C24.6137 319.624 24.8977 319.536 25.2897 319.48C25.6897 319.416 26.1377 319.384 26.6337 319.384ZM26.3817 323.44C26.6777 323.44 26.9457 323.392 27.1857 323.296V320.788C27.0977 320.772 26.9657 320.756 26.7897 320.74C26.7097 320.732 26.5897 320.728 26.4297 320.728C26.1817 320.728 26.0257 320.752 25.9617 320.8C25.8737 320.864 25.8017 321.044 25.7457 321.34C25.6977 321.628 25.6737 321.932 25.6737 322.252C25.6737 322.692 25.7217 323 25.8177 323.176C25.9217 323.352 26.1097 323.44 26.3817 323.44ZM34.6794 325.156C33.7194 325.156 32.9994 324.932 32.5194 324.484C32.0474 324.028 31.8114 323.312 31.8114 322.336C31.8114 321.8 31.8594 321.332 31.9554 320.932C32.0594 320.524 32.1834 320.24 32.3274 320.08C32.5114 319.872 32.8474 319.7 33.3354 319.564C33.8314 319.428 34.2954 319.36 34.7274 319.36C35.7594 319.36 36.4954 319.58 36.9354 320.02C37.3754 320.46 37.5954 321.164 37.5954 322.132C37.5954 323.172 37.3594 323.936 36.8874 324.424C36.4154 324.912 35.6794 325.156 34.6794 325.156ZM34.7154 323.752C35.0274 323.752 35.2314 323.644 35.3274 323.428C35.4234 323.204 35.4714 322.812 35.4714 322.252C35.4714 321.86 35.4514 321.56 35.4114 321.352C35.3714 321.136 35.2954 320.98 35.1834 320.884C35.0794 320.78 34.9154 320.728 34.6914 320.728C34.3714 320.728 34.1874 320.756 34.1394 320.812C34.0754 320.868 34.0234 321.044 33.9834 321.34C33.9434 321.636 33.9234 321.944 33.9234 322.264C33.9234 322.808 33.9754 323.192 34.0794 323.416C34.1914 323.64 34.4034 323.752 34.7154 323.752ZM43.8987 319.48V325H42.2307L42.0027 324.076C41.4267 324.772 40.7387 325.12 39.9387 325.12C39.6507 325.12 39.3787 325.08 39.1227 325C38.8747 324.92 38.6867 324.804 38.5587 324.652C38.4867 324.564 38.4307 324.344 38.3907 323.992C38.3587 323.64 38.3427 323.104 38.3427 322.384V319.48H40.3947V322.36C40.3947 322.52 40.3987 322.708 40.4067 322.924C40.4147 323.14 40.4387 323.276 40.4787 323.332C40.5347 323.412 40.6947 323.452 40.9587 323.452L41.1507 323.44C41.3747 323.432 41.6067 323.38 41.8467 323.284V319.48H43.8987ZM47.4266 322.732C47.4266 322.876 47.4306 323.028 47.4386 323.188C47.4466 323.34 47.4706 323.436 47.5106 323.476C47.5666 323.532 47.7626 323.56 48.0986 323.56L48.5066 323.548C48.5786 323.932 48.6146 324.376 48.6146 324.88C48.4626 324.936 48.2386 324.988 47.9426 325.036C47.6546 325.084 47.3786 325.108 47.1146 325.108C46.5626 325.108 46.1346 324.988 45.8306 324.748C45.5346 324.5 45.3866 324.12 45.3866 323.608V320.656H44.4866V319.564L45.3866 319.48L45.9266 318.16L47.4266 318.076V319.48H48.6986V320.656H47.4266V322.732Z" fill="#A8DADC"/>
<path d="M14.2157 241.732C14.2157 241.876 14.2197 242.028 14.2277 242.188C14.2357 242.34 14.2597 242.436 14.2997 242.476C14.3557 242.532 14.5517 242.56 14.8877 242.56L15.2957 242.548C15.3677 242.932 15.4037 243.376 15.4037 243.88C15.2517 243.936 15.0277 243.988 14.7317 244.036C14.4437 244.084 14.1677 244.108 13.9037 244.108C13.3517 244.108 12.9237 243.988 12.6197 243.748C12.3237 243.5 12.1757 243.12 12.1757 242.608V239.656H11.2757V238.564L12.1757 238.48L12.7157 237.16L14.2157 237.076V238.48H15.4877V239.656H14.2157V241.732ZM19.5214 238.36C19.6254 238.36 19.7334 238.372 19.8454 238.396C19.9654 238.42 20.0534 238.448 20.1094 238.48C20.1094 238.656 20.0894 238.948 20.0494 239.356C20.0094 239.756 19.9734 240.04 19.9414 240.208C19.8614 240.2 19.7134 240.196 19.4974 240.196C18.9934 240.196 18.5454 240.224 18.1534 240.28V244H16.1014V238.48H17.8174L18.0574 239.368H18.0694C18.3014 239.064 18.5494 238.82 18.8134 238.636C19.0774 238.452 19.3134 238.36 19.5214 238.36ZM21.7163 237.796C21.4443 237.796 21.2083 237.704 21.0083 237.52C20.8163 237.336 20.7203 237.116 20.7203 236.86C20.7203 236.604 20.8163 236.384 21.0083 236.2C21.2083 236.016 21.4443 235.924 21.7163 235.924C21.9883 235.924 22.2203 236.016 22.4123 236.2C22.6043 236.384 22.7003 236.604 22.7003 236.86C22.7003 237.116 22.6043 237.336 22.4123 237.52C22.2203 237.704 21.9883 237.796 21.7163 237.796ZM20.6843 238.48H22.7363V244H20.6843V238.48ZM26.6337 238.384C27.0097 238.384 27.4017 238.412 27.8097 238.468C28.2177 238.516 28.6937 238.584 29.2377 238.672V243.448C29.2377 244.592 28.8577 245.48 28.0977 246.112C28.0017 246.192 27.7857 246.26 27.4497 246.316C27.1137 246.372 26.7337 246.4 26.3097 246.4C25.3897 246.4 24.6617 246.28 24.1257 246.04C24.1177 245.864 24.1297 245.632 24.1617 245.344C24.2017 245.056 24.2417 244.828 24.2817 244.66C24.8577 244.748 25.4217 244.792 25.9737 244.792C26.2537 244.792 26.4897 244.776 26.6817 244.744C26.8817 244.72 27.0057 244.68 27.0537 244.624C27.1177 244.56 27.1657 244.32 27.1977 243.904C27.2057 243.792 27.2097 243.628 27.2097 243.412V243.112C27.0097 243.408 26.7537 243.62 26.4417 243.748C26.1297 243.876 25.8497 243.94 25.6017 243.94C24.9297 243.94 24.4217 243.72 24.0777 243.28C23.7337 242.84 23.5617 242.196 23.5617 241.348C23.5617 240.788 23.6377 240.264 23.7897 239.776C23.9497 239.28 24.1657 238.936 24.4377 238.744C24.6137 238.624 24.8977 238.536 25.2897 238.48C25.6897 238.416 26.1377 238.384 26.6337 238.384ZM26.3817 242.44C26.6777 242.44 26.9457 242.392 27.1857 242.296V239.788C27.0977 239.772 26.9657 239.756 26.7897 239.74C26.7097 239.732 26.5897 239.728 26.4297 239.728C26.1817 239.728 26.0257 239.752 25.9617 239.8C25.8737 239.864 25.8017 240.044 25.7457 240.34C25.6977 240.628 25.6737 240.932 25.6737 241.252C25.6737 241.692 25.7217 242 25.8177 242.176C25.9217 242.352 26.1097 242.44 26.3817 242.44ZM34.6794 244.156C33.7194 244.156 32.9994 243.932 32.5194 243.484C32.0474 243.028 31.8114 242.312 31.8114 241.336C31.8114 240.8 31.8594 240.332 31.9554 239.932C32.0594 239.524 32.1834 239.24 32.3274 239.08C32.5114 238.872 32.8474 238.7 33.3354 238.564C33.8314 238.428 34.2954 238.36 34.7274 238.36C35.7594 238.36 36.4954 238.58 36.9354 239.02C37.3754 239.46 37.5954 240.164 37.5954 241.132C37.5954 242.172 37.3594 242.936 36.8874 243.424C36.4154 243.912 35.6794 244.156 34.6794 244.156ZM34.7154 242.752C35.0274 242.752 35.2314 242.644 35.3274 242.428C35.4234 242.204 35.4714 241.812 35.4714 241.252C35.4714 240.86 35.4514 240.56 35.4114 240.352C35.3714 240.136 35.2954 239.98 35.1834 239.884C35.0794 239.78 34.9154 239.728 34.6914 239.728C34.3714 239.728 34.1874 239.756 34.1394 239.812C34.0754 239.868 34.0234 240.044 33.9834 240.34C33.9434 240.636 33.9234 240.944 33.9234 241.264C33.9234 241.808 33.9754 242.192 34.0794 242.416C34.1914 242.64 34.4034 242.752 34.7154 242.752ZM43.8987 238.48V244H42.2307L42.0027 243.076C41.4267 243.772 40.7387 244.12 39.9387 244.12C39.6507 244.12 39.3787 244.08 39.1227 244C38.8747 243.92 38.6867 243.804 38.5587 243.652C38.4867 243.564 38.4307 243.344 38.3907 242.992C38.3587 242.64 38.3427 242.104 38.3427 241.384V238.48H40.3947V241.36C40.3947 241.52 40.3987 241.708 40.4067 241.924C40.4147 242.14 40.4387 242.276 40.4787 242.332C40.5347 242.412 40.6947 242.452 40.9587 242.452L41.1507 242.44C41.3747 242.432 41.6067 242.38 41.8467 242.284V238.48H43.8987ZM47.4266 241.732C47.4266 241.876 47.4306 242.028 47.4386 242.188C47.4466 242.34 47.4706 242.436 47.5106 242.476C47.5666 242.532 47.7626 242.56 48.0986 242.56L48.5066 242.548C48.5786 242.932 48.6146 243.376 48.6146 243.88C48.4626 243.936 48.2386 243.988 47.9426 244.036C47.6546 244.084 47.3786 244.108 47.1146 244.108C46.5626 244.108 46.1346 243.988 45.8306 243.748C45.5346 243.5 45.3866 243.12 45.3866 242.608V239.656H44.4866V238.564L45.3866 238.48L45.9266 237.16L47.4266 237.076V238.48H48.6986V239.656H47.4266V241.732Z" fill="#A8DADC"/>
<path d="M14.2157 158.732C14.2157 158.876 14.2197 159.028 14.2277 159.188C14.2357 159.34 14.2597 159.436 14.2997 159.476C14.3557 159.532 14.5517 159.56 14.8877 159.56L15.2957 159.548C15.3677 159.932 15.4037 160.376 15.4037 160.88C15.2517 160.936 15.0277 160.988 14.7317 161.036C14.4437 161.084 14.1677 161.108 13.9037 161.108C13.3517 161.108 12.9237 160.988 12.6197 160.748C12.3237 160.5 12.1757 160.12 12.1757 159.608V156.656H11.2757V155.564L12.1757 155.48L12.7157 154.16L14.2157 154.076V155.48H15.4877V156.656H14.2157V158.732ZM19.5214 155.36C19.6254 155.36 19.7334 155.372 19.8454 155.396C19.9654 155.42 20.0534 155.448 20.1094 155.48C20.1094 155.656 20.0894 155.948 20.0494 156.356C20.0094 156.756 19.9734 157.04 19.9414 157.208C19.8614 157.2 19.7134 157.196 19.4974 157.196C18.9934 157.196 18.5454 157.224 18.1534 157.28V161H16.1014V155.48H17.8174L18.0574 156.368H18.0694C18.3014 156.064 18.5494 155.82 18.8134 155.636C19.0774 155.452 19.3134 155.36 19.5214 155.36ZM21.7163 154.796C21.4443 154.796 21.2083 154.704 21.0083 154.52C20.8163 154.336 20.7203 154.116 20.7203 153.86C20.7203 153.604 20.8163 153.384 21.0083 153.2C21.2083 153.016 21.4443 152.924 21.7163 152.924C21.9883 152.924 22.2203 153.016 22.4123 153.2C22.6043 153.384 22.7003 153.604 22.7003 153.86C22.7003 154.116 22.6043 154.336 22.4123 154.52C22.2203 154.704 21.9883 154.796 21.7163 154.796ZM20.6843 155.48H22.7363V161H20.6843V155.48ZM26.6337 155.384C27.0097 155.384 27.4017 155.412 27.8097 155.468C28.2177 155.516 28.6937 155.584 29.2377 155.672V160.448C29.2377 161.592 28.8577 162.48 28.0977 163.112C28.0017 163.192 27.7857 163.26 27.4497 163.316C27.1137 163.372 26.7337 163.4 26.3097 163.4C25.3897 163.4 24.6617 163.28 24.1257 163.04C24.1177 162.864 24.1297 162.632 24.1617 162.344C24.2017 162.056 24.2417 161.828 24.2817 161.66C24.8577 161.748 25.4217 161.792 25.9737 161.792C26.2537 161.792 26.4897 161.776 26.6817 161.744C26.8817 161.72 27.0057 161.68 27.0537 161.624C27.1177 161.56 27.1657 161.32 27.1977 160.904C27.2057 160.792 27.2097 160.628 27.2097 160.412V160.112C27.0097 160.408 26.7537 160.62 26.4417 160.748C26.1297 160.876 25.8497 160.94 25.6017 160.94C24.9297 160.94 24.4217 160.72 24.0777 160.28C23.7337 159.84 23.5617 159.196 23.5617 158.348C23.5617 157.788 23.6377 157.264 23.7897 156.776C23.9497 156.28 24.1657 155.936 24.4377 155.744C24.6137 155.624 24.8977 155.536 25.2897 155.48C25.6897 155.416 26.1377 155.384 26.6337 155.384ZM26.3817 159.44C26.6777 159.44 26.9457 159.392 27.1857 159.296V156.788C27.0977 156.772 26.9657 156.756 26.7897 156.74C26.7097 156.732 26.5897 156.728 26.4297 156.728C26.1817 156.728 26.0257 156.752 25.9617 156.8C25.8737 156.864 25.8017 157.044 25.7457 157.34C25.6977 157.628 25.6737 157.932 25.6737 158.252C25.6737 158.692 25.7217 159 25.8177 159.176C25.9217 159.352 26.1097 159.44 26.3817 159.44ZM34.6794 161.156C33.7194 161.156 32.9994 160.932 32.5194 160.484C32.0474 160.028 31.8114 159.312 31.8114 158.336C31.8114 157.8 31.8594 157.332 31.9554 156.932C32.0594 156.524 32.1834 156.24 32.3274 156.08C32.5114 155.872 32.8474 155.7 33.3354 155.564C33.8314 155.428 34.2954 155.36 34.7274 155.36C35.7594 155.36 36.4954 155.58 36.9354 156.02C37.3754 156.46 37.5954 157.164 37.5954 158.132C37.5954 159.172 37.3594 159.936 36.8874 160.424C36.4154 160.912 35.6794 161.156 34.6794 161.156ZM34.7154 159.752C35.0274 159.752 35.2314 159.644 35.3274 159.428C35.4234 159.204 35.4714 158.812 35.4714 158.252C35.4714 157.86 35.4514 157.56 35.4114 157.352C35.3714 157.136 35.2954 156.98 35.1834 156.884C35.0794 156.78 34.9154 156.728 34.6914 156.728C34.3714 156.728 34.1874 156.756 34.1394 156.812C34.0754 156.868 34.0234 157.044 33.9834 157.34C33.9434 157.636 33.9234 157.944 33.9234 158.264C33.9234 158.808 33.9754 159.192 34.0794 159.416C34.1914 159.64 34.4034 159.752 34.7154 159.752ZM43.8987 155.48V161H42.2307L42.0027 160.076C41.4267 160.772 40.7387 161.12 39.9387 161.12C39.6507 161.12 39.3787 161.08 39.1227 161C38.8747 160.92 38.6867 160.804 38.5587 160.652C38.4867 160.564 38.4307 160.344 38.3907 159.992C38.3587 159.64 38.3427 159.104 38.3427 158.384V155.48H40.3947V158.36C40.3947 158.52 40.3987 158.708 40.4067 158.924C40.4147 159.14 40.4387 159.276 40.4787 159.332C40.5347 159.412 40.6947 159.452 40.9587 159.452L41.1507 159.44C41.3747 159.432 41.6067 159.38 41.8467 159.284V155.48H43.8987ZM47.4266 158.732C47.4266 158.876 47.4306 159.028 47.4386 159.188C47.4466 159.34 47.4706 159.436 47.5106 159.476C47.5666 159.532 47.7626 159.56 48.0986 159.56L48.5066 159.548C48.5786 159.932 48.6146 160.376 48.6146 160.88C48.4626 160.936 48.2386 160.988 47.9426 161.036C47.6546 161.084 47.3786 161.108 47.1146 161.108C46.5626 161.108 46.1346 160.988 45.8306 160.748C45.5346 160.5 45.3866 160.12 45.3866 159.608V156.656H44.4866V155.564L45.3866 155.48L45.9266 154.16L47.4266 154.076V155.48H48.6986V156.656H47.4266V158.732Z" fill="#A8DADC"/>
<path d="M14.2157 77.732C14.2157 77.876 14.2197 78.028 14.2277 78.188C14.2357 78.34 14.2597 78.436 14.2997 78.476C14.3557 78.532 14.5517 78.56 14.8877 78.56L15.2957 78.548C15.3677 78.932 15.4037 79.376 15.4037 79.88C15.2517 79.936 15.0277 79.988 14.7317 80.036C14.4437 80.084 14.1677 80.108 13.9037 80.108C13.3517 80.108 12.9237 79.988 12.6197 79.748C12.3237 79.5 12.1757 79.12 12.1757 78.608V75.656H11.2757V74.564L12.1757 74.48L12.7157 73.16L14.2157 73.076V74.48H15.4877V75.656H14.2157V77.732ZM19.5214 74.36C19.6254 74.36 19.7334 74.372 19.8454 74.396C19.9654 74.42 20.0534 74.448 20.1094 74.48C20.1094 74.656 20.0894 74.948 20.0494 75.356C20.0094 75.756 19.9734 76.04 19.9414 76.208C19.8614 76.2 19.7134 76.196 19.4974 76.196C18.9934 76.196 18.5454 76.224 18.1534 76.28V80H16.1014V74.48H17.8174L18.0574 75.368H18.0694C18.3014 75.064 18.5494 74.82 18.8134 74.636C19.0774 74.452 19.3134 74.36 19.5214 74.36ZM21.7163 73.796C21.4443 73.796 21.2083 73.704 21.0083 73.52C20.8163 73.336 20.7203 73.116 20.7203 72.86C20.7203 72.604 20.8163 72.384 21.0083 72.2C21.2083 72.016 21.4443 71.924 21.7163 71.924C21.9883 71.924 22.2203 72.016 22.4123 72.2C22.6043 72.384 22.7003 72.604 22.7003 72.86C22.7003 73.116 22.6043 73.336 22.4123 73.52C22.2203 73.704 21.9883 73.796 21.7163 73.796ZM20.6843 74.48H22.7363V80H20.6843V74.48ZM26.6337 74.384C27.0097 74.384 27.4017 74.412 27.8097 74.468C28.2177 74.516 28.6937 74.584 29.2377 74.672V79.448C29.2377 80.592 28.8577 81.48 28.0977 82.112C28.0017 82.192 27.7857 82.26 27.4497 82.316C27.1137 82.372 26.7337 82.4 26.3097 82.4C25.3897 82.4 24.6617 82.28 24.1257 82.04C24.1177 81.864 24.1297 81.632 24.1617 81.344C24.2017 81.056 24.2417 80.828 24.2817 80.66C24.8577 80.748 25.4217 80.792 25.9737 80.792C26.2537 80.792 26.4897 80.776 26.6817 80.744C26.8817 80.72 27.0057 80.68 27.0537 80.624C27.1177 80.56 27.1657 80.32 27.1977 79.904C27.2057 79.792 27.2097 79.628 27.2097 79.412V79.112C27.0097 79.408 26.7537 79.62 26.4417 79.748C26.1297 79.876 25.8497 79.94 25.6017 79.94C24.9297 79.94 24.4217 79.72 24.0777 79.28C23.7337 78.84 23.5617 78.196 23.5617 77.348C23.5617 76.788 23.6377 76.264 23.7897 75.776C23.9497 75.28 24.1657 74.936 24.4377 74.744C24.6137 74.624 24.8977 74.536 25.2897 74.48C25.6897 74.416 26.1377 74.384 26.6337 74.384ZM26.3817 78.44C26.6777 78.44 26.9457 78.392 27.1857 78.296V75.788C27.0977 75.772 26.9657 75.756 26.7897 75.74C26.7097 75.732 26.5897 75.728 26.4297 75.728C26.1817 75.728 26.0257 75.752 25.9617 75.8C25.8737 75.864 25.8017 76.044 25.7457 76.34C25.6977 76.628 25.6737 76.932 25.6737 77.252C25.6737 77.692 25.7217 78 25.8177 78.176C25.9217 78.352 26.1097 78.44 26.3817 78.44ZM34.6794 80.156C33.7194 80.156 32.9994 79.932 32.5194 79.484C32.0474 79.028 31.8114 78.312 31.8114 77.336C31.8114 76.8 31.8594 76.332 31.9554 75.932C32.0594 75.524 32.1834 75.24 32.3274 75.08C32.5114 74.872 32.8474 74.7 33.3354 74.564C33.8314 74.428 34.2954 74.36 34.7274 74.36C35.7594 74.36 36.4954 74.58 36.9354 75.02C37.3754 75.46 37.5954 76.164 37.5954 77.132C37.5954 78.172 37.3594 78.936 36.8874 79.424C36.4154 79.912 35.6794 80.156 34.6794 80.156ZM34.7154 78.752C35.0274 78.752 35.2314 78.644 35.3274 78.428C35.4234 78.204 35.4714 77.812 35.4714 77.252C35.4714 76.86 35.4514 76.56 35.4114 76.352C35.3714 76.136 35.2954 75.98 35.1834 75.884C35.0794 75.78 34.9154 75.728 34.6914 75.728C34.3714 75.728 34.1874 75.756 34.1394 75.812C34.0754 75.868 34.0234 76.044 33.9834 76.34C33.9434 76.636 33.9234 76.944 33.9234 77.264C33.9234 77.808 33.9754 78.192 34.0794 78.416C34.1914 78.64 34.4034 78.752 34.7154 78.752ZM43.8987 74.48V80H42.2307L42.0027 79.076C41.4267 79.772 40.7387 80.12 39.9387 80.12C39.6507 80.12 39.3787 80.08 39.1227 80C38.8747 79.92 38.6867 79.804 38.5587 79.652C38.4867 79.564 38.4307 79.344 38.3907 78.992C38.3587 78.64 38.3427 78.104 38.3427 77.384V74.48H40.3947V77.36C40.3947 77.52 40.3987 77.708 40.4067 77.924C40.4147 78.14 40.4387 78.276 40.4787 78.332C40.5347 78.412 40.6947 78.452 40.9587 78.452L41.1507 78.44C41.3747 78.432 41.6067 78.38 41.8467 78.284V74.48H43.8987ZM47.4266 77.732C47.4266 77.876 47.4306 78.028 47.4386 78.188C47.4466 78.34 47.4706 78.436 47.5106 78.476C47.5666 78.532 47.7626 78.56 48.0986 78.56L48.5066 78.548C48.5786 78.932 48.6146 79.376 48.6146 79.88C48.4626 79.936 48.2386 79.988 47.9426 80.036C47.6546 80.084 47.3786 80.108 47.1146 80.108C46.5626 80.108 46.1346 79.988 45.8306 79.748C45.5346 79.5 45.3866 79.12 45.3866 78.608V75.656H44.4866V74.564L45.3866 74.48L45.9266 73.16L47.4266 73.076V74.48H48.6986V75.656H47.4266V77.732Z" fill="#A8DADC"/>
<path d="M24.1751 39.832C23.5271 40.048 22.8031 40.156 22.0031 40.156C21.1071 40.156 20.4351 39.932 19.9871 39.484C19.5471 39.028 19.3271 38.32 19.3271 37.36C19.3271 36.888 19.3911 36.424 19.5191 35.968C19.6471 35.504 19.7831 35.192 19.9271 35.032C20.0951 34.848 20.4231 34.692 20.9111 34.564C21.4071 34.436 21.9191 34.372 22.4471 34.372C22.9991 34.372 23.5551 34.42 24.1151 34.516C24.0991 34.716 24.0711 34.952 24.0311 35.224C23.9991 35.488 23.9631 35.724 23.9231 35.932C23.4271 35.9 22.9591 35.884 22.5191 35.884C22.0871 35.884 21.8111 35.908 21.6911 35.956C21.6271 35.98 21.5671 36.144 21.5111 36.448C21.4631 36.752 21.4391 37.036 21.4391 37.3C21.4391 37.652 21.4871 37.924 21.5831 38.116C21.6871 38.3 21.8471 38.428 22.0631 38.5C22.2791 38.572 22.5711 38.608 22.9391 38.608C23.0991 38.608 23.4511 38.592 23.9951 38.56L24.1751 39.832ZM28.4151 34.48H30.5631L28.8831 40H26.0391L24.3591 34.48H26.5071L27.4071 38.716H27.5271L28.4151 34.48ZM33.9116 33.796C33.6396 33.796 33.4036 33.704 33.2036 33.52C33.0116 33.336 32.9156 33.116 32.9156 32.86C32.9156 32.604 33.0116 32.384 33.2036 32.2C33.4036 32.016 33.6396 31.924 33.9116 31.924C34.1836 31.924 34.4156 32.016 34.6076 32.2C34.7996 32.384 34.8956 32.604 34.8956 32.86C34.8956 33.116 34.7996 33.336 34.6076 33.52C34.4156 33.704 34.1836 33.796 33.9116 33.796ZM32.8796 34.48H34.9316V40H32.8796V34.48ZM41.289 34.828C41.361 34.916 41.413 35.136 41.445 35.488C41.485 35.84 41.505 36.376 41.505 37.096V40H39.453V37.12V36.628C39.453 36.372 39.433 36.212 39.393 36.148C39.329 36.068 39.181 36.028 38.949 36.028C38.837 36.028 38.753 36.032 38.697 36.04C38.473 36.048 38.241 36.1 38.001 36.196V40H35.949V34.48H37.617L37.845 35.404C38.421 34.708 39.109 34.36 39.909 34.36C40.197 34.36 40.465 34.4 40.713 34.48C40.969 34.56 41.161 34.676 41.289 34.828Z" fill="#A8DADC"/>
<path d="M24.1751 122.832C23.5271 123.048 22.8031 123.156 22.0031 123.156C21.1071 123.156 20.4351 122.932 19.9871 122.484C19.5471 122.028 19.3271 121.32 19.3271 120.36C19.3271 119.888 19.3911 119.424 19.5191 118.968C19.6471 118.504 19.7831 118.192 19.9271 118.032C20.0951 117.848 20.4231 117.692 20.9111 117.564C21.4071 117.436 21.9191 117.372 22.4471 117.372C22.9991 117.372 23.5551 117.42 24.1151 117.516C24.0991 117.716 24.0711 117.952 24.0311 118.224C23.9991 118.488 23.9631 118.724 23.9231 118.932C23.4271 118.9 22.9591 118.884 22.5191 118.884C22.0871 118.884 21.8111 118.908 21.6911 118.956C21.6271 118.98 21.5671 119.144 21.5111 119.448C21.4631 119.752 21.4391 120.036 21.4391 120.3C21.4391 120.652 21.4871 120.924 21.5831 121.116C21.6871 121.3 21.8471 121.428 22.0631 121.5C22.2791 121.572 22.5711 121.608 22.9391 121.608C23.0991 121.608 23.4511 121.592 23.9951 121.56L24.1751 122.832ZM28.4151 117.48H30.5631L28.8831 123H26.0391L24.3591 117.48H26.5071L27.4071 121.716H27.5271L28.4151 117.48ZM33.9116 116.796C33.6396 116.796 33.4036 116.704 33.2036 116.52C33.0116 116.336 32.9156 116.116 32.9156 115.86C32.9156 115.604 33.0116 115.384 33.2036 115.2C33.4036 115.016 33.6396 114.924 33.9116 114.924C34.1836 114.924 34.4156 115.016 34.6076 115.2C34.7996 115.384 34.8956 115.604 34.8956 115.86C34.8956 116.116 34.7996 116.336 34.6076 116.52C34.4156 116.704 34.1836 116.796 33.9116 116.796ZM32.8796 117.48H34.9316V123H32.8796V117.48ZM41.289 117.828C41.361 117.916 41.413 118.136 41.445 118.488C41.485 118.84 41.505 119.376 41.505 120.096V123H39.453V120.12V119.628C39.453 119.372 39.433 119.212 39.393 119.148C39.329 119.068 39.181 119.028 38.949 119.028C38.837 119.028 38.753 119.032 38.697 119.04C38.473 119.048 38.241 119.1 38.001 119.196V123H35.949V117.48H37.617L37.845 118.404C38.421 117.708 39.109 117.36 39.909 117.36C40.197 117.36 40.465 117.4 40.713 117.48C40.969 117.56 41.161 117.676 41.289 117.828Z" fill="#A8DADC"/>
<path d="M24.1751 205.832C23.5271 206.048 22.8031 206.156 22.0031 206.156C21.1071 206.156 20.4351 205.932 19.9871 205.484C19.5471 205.028 19.3271 204.32 19.3271 203.36C19.3271 202.888 19.3911 202.424 19.5191 201.968C19.6471 201.504 19.7831 201.192 19.9271 201.032C20.0951 200.848 20.4231 200.692 20.9111 200.564C21.4071 200.436 21.9191 200.372 22.4471 200.372C22.9991 200.372 23.5551 200.42 24.1151 200.516C24.0991 200.716 24.0711 200.952 24.0311 201.224C23.9991 201.488 23.9631 201.724 23.9231 201.932C23.4271 201.9 22.9591 201.884 22.5191 201.884C22.0871 201.884 21.8111 201.908 21.6911 201.956C21.6271 201.98 21.5671 202.144 21.5111 202.448C21.4631 202.752 21.4391 203.036 21.4391 203.3C21.4391 203.652 21.4871 203.924 21.5831 204.116C21.6871 204.3 21.8471 204.428 22.0631 204.5C22.2791 204.572 22.5711 204.608 22.9391 204.608C23.0991 204.608 23.4511 204.592 23.9951 204.56L24.1751 205.832ZM28.4151 200.48H30.5631L28.8831 206H26.0391L24.3591 200.48H26.5071L27.4071 204.716H27.5271L28.4151 200.48ZM33.9116 199.796C33.6396 199.796 33.4036 199.704 33.2036 199.52C33.0116 199.336 32.9156 199.116 32.9156 198.86C32.9156 198.604 33.0116 198.384 33.2036 198.2C33.4036 198.016 33.6396 197.924 33.9116 197.924C34.1836 197.924 34.4156 198.016 34.6076 198.2C34.7996 198.384 34.8956 198.604 34.8956 198.86C34.8956 199.116 34.7996 199.336 34.6076 199.52C34.4156 199.704 34.1836 199.796 33.9116 199.796ZM32.8796 200.48H34.9316V206H32.8796V200.48ZM41.289 200.828C41.361 200.916 41.413 201.136 41.445 201.488C41.485 201.84 41.505 202.376 41.505 203.096V206H39.453V203.12V202.628C39.453 202.372 39.433 202.212 39.393 202.148C39.329 202.068 39.181 202.028 38.949 202.028C38.837 202.028 38.753 202.032 38.697 202.04C38.473 202.048 38.241 202.1 38.001 202.196V206H35.949V200.48H37.617L37.845 201.404C38.421 200.708 39.109 200.36 39.909 200.36C40.197 200.36 40.465 200.4 40.713 200.48C40.969 200.56 41.161 200.676 41.289 200.828Z" fill="#A8DADC"/>
<path d="M24.1751 286.832C23.5271 287.048 22.8031 287.156 22.0031 287.156C21.1071 287.156 20.4351 286.932 19.9871 286.484C19.5471 286.028 19.3271 285.32 19.3271 284.36C19.3271 283.888 19.3911 283.424 19.5191 282.968C19.6471 282.504 19.7831 282.192 19.9271 282.032C20.0951 281.848 20.4231 281.692 20.9111 281.564C21.4071 281.436 21.9191 281.372 22.4471 281.372C22.9991 281.372 23.5551 281.42 24.1151 281.516C24.0991 281.716 24.0711 281.952 24.0311 282.224C23.9991 282.488 23.9631 282.724 23.9231 282.932C23.4271 282.9 22.9591 282.884 22.5191 282.884C22.0871 282.884 21.8111 282.908 21.6911 282.956C21.6271 282.98 21.5671 283.144 21.5111 283.448C21.4631 283.752 21.4391 284.036 21.4391 284.3C21.4391 284.652 21.4871 284.924 21.5831 285.116C21.6871 285.3 21.8471 285.428 22.0631 285.5C22.2791 285.572 22.5711 285.608 22.9391 285.608C23.0991 285.608 23.4511 285.592 23.9951 285.56L24.1751 286.832ZM28.4151 281.48H30.5631L28.8831 287H26.0391L24.3591 281.48H26.5071L27.4071 285.716H27.5271L28.4151 281.48ZM33.9116 280.796C33.6396 280.796 33.4036 280.704 33.2036 280.52C33.0116 280.336 32.9156 280.116 32.9156 279.86C32.9156 279.604 33.0116 279.384 33.2036 279.2C33.4036 279.016 33.6396 278.924 33.9116 278.924C34.1836 278.924 34.4156 279.016 34.6076 279.2C34.7996 279.384 34.8956 279.604 34.8956 279.86C34.8956 280.116 34.7996 280.336 34.6076 280.52C34.4156 280.704 34.1836 280.796 33.9116 280.796ZM32.8796 281.48H34.9316V287H32.8796V281.48ZM41.289 281.828C41.361 281.916 41.413 282.136 41.445 282.488C41.485 282.84 41.505 283.376 41.505 284.096V287H39.453V284.12V283.628C39.453 283.372 39.433 283.212 39.393 283.148C39.329 283.068 39.181 283.028 38.949 283.028C38.837 283.028 38.753 283.032 38.697 283.04C38.473 283.048 38.241 283.1 38.001 283.196V287H35.949V281.48H37.617L37.845 282.404C38.421 281.708 39.109 281.36 39.909 281.36C40.197 281.36 40.465 281.4 40.713 281.48C40.969 281.56 41.161 281.676 41.289 281.828Z" fill="#A8DADC"/>
<path d="M5 113H55" stroke="#A8DADC" stroke-width="0.5"/>
<path d="M5 195H55" stroke="#A8DADC" stroke-width="0.5"/>
<path d="M5 277H55" stroke="#A8DADC" stroke-width="0.5"/>
</svg>
