<svg width="180" height="380" viewBox="0 0 180 380" fill="none" xmlns="http://www.w3.org/2000/svg">
<path d="M173.25 87C173.25 99.1503 158.475 109 140.25 109C114 109 112.5 100 91.5 100C81.3271 100 75.4666 100 69.75 100C45.9 100 39.259 103.68 27.75 102.5C13.0694 100.739 9 92.1853 9 87C9 82.1367 13.624 73.642 27 72C38.776 70.6104 45.8958 74 69.75 74C74.819 74 80.9696 74 91.5 74C112.5 74 114 65 140.25 65C158.475 65 173.25 74.8497 173.25 87Z" fill="#36617C"/>
<rect width="180" height="380" fill="#457B9D"/>
<g opacity="0.3">
<path fill-rule="evenodd" clip-rule="evenodd" d="M83.958 375.599C83.803 375.747 83.659 375.851 83.526 375.909C83.393 375.968 83.251 375.998 83.1 375.998C82.948 375.998 82.806 375.97 82.673 375.914C82.54 375.858 82.424 375.781 82.325 375.682C82.109 375.466 82 375.209 82 374.912V369.385C82 369.082 82.078 368.847 82.232 368.68C82.498 368.408 82.75 368.272 82.988 368.272C83.226 368.272 83.404 368.296 83.522 368.346C83.639 368.395 83.738 368.457 83.818 368.531C83.924 368.624 84.002 368.723 84.055 368.828C84.108 368.933 84.151 369.011 84.185 369.06C84.219 369.11 84.275 369.134 84.352 369.134C84.429 369.134 84.496 369.11 84.551 369.06L84.709 368.902C85.16 368.482 85.612 368.272 86.063 368.272C86.861 368.272 87.519 368.599 88.039 369.255C88.088 369.323 88.15 369.357 88.224 369.357C88.354 369.357 88.486 369.256 88.619 369.055C88.752 368.854 88.966 368.674 89.263 368.513C89.56 368.352 89.906 368.272 90.302 368.272C90.698 368.272 91.058 368.344 91.383 368.49C91.707 368.635 91.99 368.834 92.231 369.088C92.738 369.62 92.992 370.263 92.992 371.017V374.912C92.992 375.382 92.769 375.713 92.324 375.905C92.188 375.967 92.044 375.998 91.893 375.998C91.741 375.998 91.599 375.97 91.466 375.914C91.333 375.858 91.217 375.781 91.118 375.682C90.908 375.46 90.803 375.203 90.803 374.912V371.045C90.803 370.736 90.726 370.504 90.571 370.349C90.299 370.077 90.049 369.941 89.82 369.941C89.591 369.941 89.412 369.971 89.282 370.029C89.152 370.088 89.034 370.17 88.929 370.275C88.713 370.492 88.605 370.742 88.605 371.026V374.912C88.605 375.382 88.385 375.713 87.946 375.905C87.81 375.967 87.666 375.998 87.515 375.998C87.363 375.998 87.22 375.97 87.083 375.914C86.947 375.858 86.83 375.781 86.731 375.682C86.515 375.466 86.406 375.209 86.406 374.912V371.045C86.406 370.736 86.329 370.504 86.174 370.349C85.902 370.077 85.618 369.941 85.321 369.941C84.826 369.941 84.483 370.133 84.292 370.516C84.23 370.64 84.199 370.779 84.199 370.934V374.912C84.199 375.215 84.118 375.444 83.958 375.599ZM95.219 369.387C95.219 369.084 95.296 368.849 95.451 368.682C95.716 368.41 96.01 368.274 96.332 368.274C96.641 368.274 96.87 368.355 97.018 368.515C97.29 368.794 97.426 369.084 97.426 369.387V374.915C97.426 375.212 97.349 375.437 97.194 375.592C96.922 375.864 96.672 376 96.443 376C96.214 376 96.032 375.971 95.896 375.912C95.76 375.853 95.642 375.777 95.543 375.685C95.327 375.474 95.219 375.218 95.219 374.915V369.387ZM96.327 365.9C96.065 365.9 95.852 365.687 95.852 365.425C95.852 365.162 96.065 364.95 96.327 364.95C96.589 364.95 96.802 365.162 96.802 365.425C96.802 365.687 96.589 365.9 96.327 365.9ZM96.327 364C96.714 364 97.048 364.142 97.329 364.425C97.611 364.709 97.752 364.996 97.752 365.287C97.752 365.577 97.713 365.807 97.635 365.978C97.558 366.148 97.456 366.297 97.329 366.424C97.048 366.708 96.714 366.849 96.327 366.849C95.94 366.849 95.606 366.708 95.324 366.424C95.043 366.141 94.902 365.857 94.902 365.574C94.902 365.092 95.043 364.709 95.324 364.425C95.606 364.142 95.94 364 96.327 364Z" fill="#1D3557"/>
</g>
<path d="M54.909 15.5954C55.767 15.5954 56.4673 15.676 57.01 15.8374C57.56 15.9987 57.9853 16.303 58.286 16.7504C58.594 17.1977 58.748 17.8394 58.748 18.6754C58.748 19.57 58.5867 20.252 58.264 20.7214C57.9413 21.1834 57.5087 21.4914 56.966 21.6454C56.4233 21.792 55.7377 21.8654 54.909 21.8654H52.709V15.5954H54.909ZM56.383 20.3694C56.471 20.2814 56.5333 20.054 56.57 19.6874C56.6067 19.3207 56.625 18.9834 56.625 18.6754C56.625 18.2867 56.5957 17.9787 56.537 17.7514C56.4857 17.5167 56.3903 17.3297 56.251 17.1904C56.031 16.9484 55.6533 16.8274 55.118 16.8274C55.0227 16.8274 54.8797 16.8347 54.689 16.8494V20.5014C54.8137 20.516 55.008 20.5234 55.272 20.5234C55.5433 20.5234 55.7817 20.5124 55.987 20.4904C56.1997 20.461 56.3317 20.4207 56.383 20.3694ZM60.122 15.5954H64.687V16.9154H62.102V18.0594H64.28V19.2474H62.102V20.5234H64.676V21.8654H60.122V15.5954ZM66.0546 15.5954H68.0346V20.4134H70.5976V21.8654H66.0546V15.5954ZM75.488 20.4904H73.662L73.332 21.8654H71.308L73.332 15.5954H75.917L77.853 21.8654H75.818L75.488 20.4904ZM74.564 16.9484L73.915 19.2694H75.224L74.608 16.9484H74.564ZM81.6093 19.8634V21.8654H79.6293V19.8854L77.5173 15.5954H79.5303L80.3663 17.6304C80.4543 17.8357 80.535 18.052 80.6083 18.2794H80.6303C80.711 18.03 80.7917 17.8064 80.8723 17.6084L81.6973 15.5954H83.6993L81.6093 19.8634ZM87.2507 15.5624C87.8447 15.5624 88.347 15.6174 88.7577 15.7274C89.1684 15.8374 89.4947 16.05 89.7367 16.3654C89.986 16.6734 90.1107 17.117 90.1107 17.6964C90.1107 17.953 90.0704 18.217 89.9897 18.4884C89.9164 18.7524 89.821 18.9834 89.7037 19.1814C89.5937 19.3794 89.4947 19.5077 89.4067 19.5664C89.304 19.6397 89.0767 19.6984 88.7247 19.7424C88.3727 19.779 87.9584 19.7974 87.4817 19.7974C87.313 19.7974 87.0527 19.79 86.7007 19.7754V21.8654H84.7207V15.5954C85.4907 15.5734 86.334 15.5624 87.2507 15.5624ZM88.0757 18.3894C88.149 18.294 88.1857 18.1034 88.1857 17.8174C88.1857 17.4434 88.105 17.1794 87.9437 17.0254C87.7897 16.8714 87.5184 16.7944 87.1297 16.7944C86.9977 16.7944 86.8547 16.8054 86.7007 16.8274V18.4994C86.774 18.5067 86.917 18.5104 87.1297 18.5104C87.6944 18.5104 88.0097 18.47 88.0757 18.3894ZM91.3395 15.5954H93.3195V20.4134H95.8825V21.8654H91.3395V15.5954ZM103.006 15.5954V19.1044C103.006 19.8304 102.925 20.3987 102.764 20.8094C102.61 21.2127 102.317 21.5097 101.884 21.7004C101.451 21.891 100.821 21.9864 99.992 21.9864C99.3833 21.9864 98.87 21.924 98.452 21.7994C98.034 21.6674 97.7003 21.4217 97.451 21.0624C97.209 20.703 97.088 20.197 97.088 19.5444V15.5954H99.068V19.1264C99.068 19.515 99.0863 19.812 99.123 20.0174C99.167 20.2154 99.2623 20.3694 99.409 20.4794C99.5556 20.582 99.7793 20.6334 100.08 20.6334C100.263 20.6334 100.436 20.615 100.597 20.5784C100.758 20.5417 100.868 20.4867 100.927 20.4134C100.993 20.3254 101.026 20.0064 101.026 19.4564V15.5954H103.006ZM106.404 17.2894C106.404 17.4434 106.481 17.5644 106.635 17.6524C106.797 17.7404 107.046 17.8357 107.383 17.9384C107.787 18.0704 108.117 18.1987 108.373 18.3234C108.637 18.448 108.865 18.6424 109.055 18.9064C109.253 19.1704 109.352 19.515 109.352 19.9404C109.352 21.3044 108.465 21.9864 106.69 21.9864C106.397 21.9864 106.038 21.9607 105.612 21.9094C105.194 21.858 104.813 21.792 104.468 21.7114C104.483 21.5574 104.512 21.3337 104.556 21.0404C104.608 20.7397 104.655 20.516 104.699 20.3694C104.956 20.406 105.341 20.45 105.854 20.5014C106.375 20.5527 106.767 20.5784 107.031 20.5784C107.185 20.5784 107.277 20.5674 107.306 20.5454C107.35 20.516 107.383 20.4684 107.405 20.4024C107.435 20.329 107.449 20.2667 107.449 20.2154C107.449 20.0687 107.38 19.9587 107.24 19.8854C107.101 19.8047 106.863 19.7094 106.525 19.5994C106.122 19.4747 105.788 19.3464 105.524 19.2144C105.26 19.0824 105.029 18.877 104.831 18.5984C104.633 18.3197 104.534 17.953 104.534 17.4984C104.534 17.1757 104.608 16.8604 104.754 16.5524C104.901 16.237 105.051 16.0244 105.205 15.9144C105.323 15.8337 105.565 15.7567 105.931 15.6834C106.298 15.61 106.643 15.5734 106.965 15.5734C107.787 15.5734 108.458 15.6504 108.978 15.8044C108.971 15.951 108.945 16.1527 108.901 16.4094C108.865 16.666 108.824 16.9007 108.78 17.1134L108.527 17.1024C107.574 17.0364 106.965 17.0034 106.701 17.0034C106.591 17.0034 106.529 17.007 106.514 17.0144C106.485 17.029 106.459 17.062 106.437 17.1134C106.415 17.1647 106.404 17.2234 106.404 17.2894ZM112.84 18.2464H116.14V19.8194H112.84V18.2464ZM119.419 17.2894C119.419 17.4434 119.496 17.5644 119.65 17.6524C119.812 17.7404 120.061 17.8357 120.398 17.9384C120.802 18.0704 121.132 18.1987 121.388 18.3234C121.652 18.448 121.88 18.6424 122.07 18.9064C122.268 19.1704 122.367 19.515 122.367 19.9404C122.367 21.3044 121.48 21.9864 119.705 21.9864C119.412 21.9864 119.053 21.9607 118.627 21.9094C118.209 21.858 117.828 21.792 117.483 21.7114C117.498 21.5574 117.527 21.3337 117.571 21.0404C117.623 20.7397 117.67 20.516 117.714 20.3694C117.971 20.406 118.356 20.45 118.869 20.5014C119.39 20.5527 119.782 20.5784 120.046 20.5784C120.2 20.5784 120.292 20.5674 120.321 20.5454C120.365 20.516 120.398 20.4684 120.42 20.4024C120.45 20.329 120.464 20.2667 120.464 20.2154C120.464 20.0687 120.395 19.9587 120.255 19.8854C120.116 19.8047 119.878 19.7094 119.54 19.5994C119.137 19.4747 118.803 19.3464 118.539 19.2144C118.275 19.0824 118.044 18.877 117.846 18.5984C117.648 18.3197 117.549 17.953 117.549 17.4984C117.549 17.1757 117.623 16.8604 117.769 16.5524C117.916 16.237 118.066 16.0244 118.22 15.9144C118.338 15.8337 118.58 15.7567 118.946 15.6834C119.313 15.61 119.658 15.5734 119.98 15.5734C120.802 15.5734 121.473 15.6504 121.993 15.8044C121.986 15.951 121.96 16.1527 121.916 16.4094C121.88 16.666 121.839 16.9007 121.795 17.1134L121.542 17.1024C120.589 17.0364 119.98 17.0034 119.716 17.0034C119.606 17.0034 119.544 17.007 119.529 17.0144C119.5 17.029 119.474 17.062 119.452 17.1134C119.43 17.1647 119.419 17.2234 119.419 17.2894ZM126.987 21.8654H125.007V16.9704H123.236V15.5954H128.758V16.9704H126.987V21.8654Z" fill="white"/>
<rect x="36.5" y="58" width="7" height="7" rx="1" fill="white"/>
<path d="M38.2919 58.87H39.9119V62.812H42.0089V64H38.2919V58.87Z" fill="#457B9D"/>
<rect x="107" y="99.5" width="30" height="66" rx="15" transform="rotate(-90 107 99.5)" fill="#36617C"/>
<rect x="136.5" y="58" width="7" height="7" rx="1" fill="white"/>
<path d="M142.511 64H140.81L140.504 62.704C140.492 62.656 140.471 62.575 140.441 62.461C140.417 62.341 140.387 62.254 140.351 62.2C140.315 62.14 140.264 62.101 140.198 62.083C140.03 62.089 139.784 62.092 139.46 62.092V64H137.84V58.915C138.566 58.861 139.244 58.834 139.874 58.834C140.444 58.834 140.906 58.882 141.26 58.978C141.614 59.068 141.878 59.227 142.052 59.455C142.232 59.677 142.322 59.983 142.322 60.373C142.322 60.739 142.238 61.027 142.07 61.237C141.902 61.441 141.632 61.564 141.26 61.606V61.66C141.47 61.678 141.644 61.747 141.782 61.867C141.926 61.981 142.022 62.128 142.07 62.308L142.511 64ZM139.46 61.075C139.514 61.081 139.619 61.084 139.775 61.084C140.237 61.084 140.507 61.045 140.585 60.967C140.657 60.895 140.693 60.727 140.693 60.463C140.693 60.217 140.627 60.049 140.495 59.959C140.369 59.869 140.159 59.824 139.865 59.824C139.799 59.824 139.664 59.83 139.46 59.842V61.075Z" fill="#457B9D"/>
<rect x="7" y="30" width="70" height="20" rx="5" fill="#36617C"/>
<rect x="102" y="30" width="70" height="20" rx="5" fill="#36617C"/>
<path d="M84.4629 42V38.6504H84.5312L85.7568 41.2188H86.5381L87.7588 38.6504H87.8174V42H88.999V36.668H87.6611L86.1768 39.7637H86.1328L84.6484 36.668H83.3057V42H84.4629ZM90.7783 40.4473C90.793 41.3457 91.5107 42.0977 93.0391 42.0977C94.543 42.0977 95.3389 41.3848 95.3389 40.3838C95.3389 39.4463 94.7188 39.0361 93.8203 38.8604L93.0342 38.709C92.4824 38.5967 92.209 38.4355 92.209 38.123C92.209 37.7812 92.5166 37.5225 93.0781 37.5225C93.6641 37.5225 94.0059 37.8154 94.0352 38.1865H95.2412C95.2314 37.3369 94.499 36.5654 93.083 36.5654C91.7744 36.5654 90.9004 37.2197 90.9004 38.2207C90.9004 39.0898 91.457 39.5439 92.4531 39.7441L93.2002 39.8955C93.7666 40.0127 94.0449 40.1787 94.0449 40.5107C94.0449 40.8721 93.7324 41.1309 93.0928 41.1309C92.458 41.1309 92.0576 40.833 92.0283 40.4473H90.7783Z" fill="white"/>
<rect x="7" y="99.5" width="30" height="66" rx="15" transform="rotate(-90 7 99.5)" fill="#36617C"/>
<path d="M82.1748 64.5V60.1885H83.7227V59.168H79.3184V60.1885H80.8662V64.5H82.1748ZM86.6836 64.5V59.168H85.375V64.5H86.6836ZM89.9424 64.5V61.1504H90.0107L91.2363 63.7188H92.0176L93.2383 61.1504H93.2969V64.5H94.4785V59.168H93.1406L91.6562 62.2637H91.6123L90.1279 59.168H88.7852V64.5H89.9424ZM100.33 63.5039H97.874V62.2783H100.179V61.3506H97.874V60.1641H100.33V59.168H96.5801V64.5H100.33V63.5039Z" fill="white"/>
<rect x="7" y="151.5" width="30" height="66" rx="15" transform="rotate(-90 7 151.5)" fill="#36617C"/>
<path d="M67.6279 111.5V109.474H69.8252V108.497H67.6279V107.174H70.0449V106.168H66.3193V111.5H67.6279ZM75.5303 110.504H73.0742V109.278H75.3789V108.351H73.0742V107.164H75.5303V106.168H71.7803V111.5H75.5303V110.504ZM81.2158 110.504H78.7598V109.278H81.0645V108.351H78.7598V107.164H81.2158V106.168H77.4658V111.5H81.2158V110.504ZM87.873 108.814C87.873 107.135 87.0479 106.168 85.3291 106.168H83.1514V111.5H85.3291C87.0283 111.5 87.873 110.519 87.873 108.814ZM86.5352 108.839C86.5352 110.147 85.9541 110.504 85.1143 110.504H84.46V107.164H85.1143C86.1689 107.164 86.5352 107.853 86.5352 108.839ZM89.6865 111.5H92.1816C93.3096 111.5 94.1445 110.943 94.1445 109.986C94.1445 109.166 93.5244 108.746 92.8701 108.697V108.644C93.4365 108.536 93.8711 108.141 93.8711 107.481C93.8711 106.666 93.1875 106.168 92.1523 106.168H89.6865V111.5ZM90.9805 107.071H91.8252C92.3232 107.071 92.5918 107.315 92.5918 107.691C92.5918 108.082 92.3184 108.336 91.6543 108.336H90.9805V107.071ZM90.9805 109.166H91.8936C92.5088 109.166 92.8164 109.449 92.8164 109.889C92.8164 110.323 92.5283 110.602 91.7373 110.602H90.9805V109.166ZM96.7197 111.5L97.1055 110.25H98.8877L99.2637 111.5H100.65L98.8242 106.168H97.2422L95.4111 111.5H96.7197ZM98.0332 107.301L98.6436 109.342H97.3496L97.9697 107.301H98.0332ZM103.245 108.541C103.245 107.628 103.636 107.105 104.339 107.105C104.959 107.105 105.369 107.525 105.369 108.131H106.624V107.989C106.624 106.822 105.647 106.07 104.329 106.07C102.791 106.07 101.912 107.037 101.912 108.541V109.142C101.912 110.636 102.791 111.598 104.329 111.598C105.633 111.598 106.624 110.87 106.624 109.723V109.576H105.369C105.369 110.152 104.959 110.567 104.334 110.567C103.636 110.567 103.245 110.045 103.245 109.146V108.541ZM113.218 106.168H111.812L109.829 108.458H109.771V106.168H108.462V111.5H109.771V109.874L110.288 109.308L111.743 111.5H113.291L111.25 108.478L113.218 106.168Z" fill="white"/>
<rect x="107" y="151.5" width="30" height="65" rx="15" transform="rotate(-90 107 151.5)" fill="#36617C"/>
<rect x="7" y="201.5" width="30" height="66" rx="15" transform="rotate(-90 7 201.5)" fill="#36617C"/>
<path d="M76.6758 159.541C76.6758 158.628 77.0664 158.105 77.7695 158.105C78.3896 158.105 78.7998 158.525 78.7998 159.131H80.0547V158.989C80.0547 157.822 79.0781 157.07 77.7598 157.07C76.2217 157.07 75.3428 158.037 75.3428 159.541V160.142C75.3428 161.636 76.2217 162.598 77.7598 162.598C79.0635 162.598 80.0547 161.87 80.0547 160.723V160.576H78.7998C78.7998 161.152 78.3896 161.567 77.7646 161.567C77.0664 161.567 76.6758 161.045 76.6758 160.146V159.541ZM84.1582 162.598C85.7451 162.598 86.6484 161.626 86.6484 160.137V159.536C86.6484 158.042 85.7402 157.07 84.1533 157.07C82.5713 157.07 81.6631 158.037 81.6631 159.536V160.137C81.6631 161.626 82.5762 162.598 84.1582 162.598ZM84.1582 161.577C83.4307 161.577 82.9961 161.035 82.9961 160.142V159.521C82.9961 158.628 83.4307 158.091 84.1582 158.091C84.8809 158.091 85.3154 158.628 85.3154 159.521V160.142C85.3154 161.035 84.8809 161.577 84.1582 161.577ZM92.1143 161.46H89.8242V157.168H88.5156V162.5H92.1143V161.46ZM95.8906 162.598C97.4775 162.598 98.3809 161.626 98.3809 160.137V159.536C98.3809 158.042 97.4727 157.07 95.8857 157.07C94.3037 157.07 93.3955 158.037 93.3955 159.536V160.137C93.3955 161.626 94.3086 162.598 95.8906 162.598ZM95.8906 161.577C95.1631 161.577 94.7285 161.035 94.7285 160.142V159.521C94.7285 158.628 95.1631 158.091 95.8906 158.091C96.6133 158.091 97.0479 158.628 97.0479 159.521V160.142C97.0479 161.035 96.6133 161.577 95.8906 161.577ZM102.602 157.168H100.248V162.5H101.532V160.581H102.357L103.319 162.5H104.77L103.646 160.405C104.135 160.225 104.662 159.688 104.662 158.906C104.662 157.837 103.9 157.168 102.602 157.168ZM101.532 159.683V158.12H102.411C102.938 158.12 103.31 158.398 103.31 158.916C103.31 159.429 102.948 159.683 102.396 159.683H101.532Z" fill="white"/>
<rect x="107" y="201.5" width="30" height="66" rx="15" transform="rotate(-90 107 201.5)" fill="#36617C"/>
<rect x="107" y="297" width="30" height="66" rx="15" transform="rotate(-90 107 297)" fill="#36617C"/>
<path d="M131.963 262V258.65H132.031L133.257 261.219H134.038L135.259 258.65H135.317V262H136.499V256.668H135.161L133.677 259.764H133.633L132.148 256.668H130.806V262H131.963ZM139.909 262V256.668H138.601V262H139.909ZM146.527 256.668H145.067L144.018 258.484H143.959L142.909 256.668H141.376L143.07 259.314L141.371 262H142.777L143.871 260.228H143.93L145.023 262H146.508L144.765 259.334L146.527 256.668Z" fill="white"/>
<path d="M108.587 333.598C110.174 333.598 111.077 332.626 111.077 331.137V330.536C111.077 329.042 110.169 328.07 108.582 328.07C107 328.07 106.092 329.037 106.092 330.536V331.137C106.092 332.626 107.005 333.598 108.587 333.598ZM108.587 332.577C107.859 332.577 107.425 332.035 107.425 331.142V330.521C107.425 329.628 107.859 329.091 108.587 329.091C109.31 329.091 109.744 329.628 109.744 330.521V331.142C109.744 332.035 109.31 332.577 108.587 332.577ZM115.225 332.548C114.614 332.548 114.189 332.187 114.189 331.498V328.168H112.876V331.645C112.876 332.836 113.779 333.598 115.225 333.598C116.67 333.598 117.573 332.831 117.573 331.645V328.168H116.265V331.498C116.265 332.182 115.835 332.548 115.225 332.548ZM121.945 333.5V329.188H123.493V328.168H119.089V329.188H120.637V333.5H121.945ZM129.457 329.975C129.457 328.983 128.769 328.168 127.499 328.168H125.146V333.5H126.449V331.83H127.489C128.759 331.83 129.457 330.976 129.457 329.975ZM128.129 330.004C128.129 330.541 127.816 330.883 127.274 330.883H126.444V329.13H127.226C127.797 329.13 128.129 329.447 128.129 330.004ZM133.443 332.548C132.833 332.548 132.408 332.187 132.408 331.498V328.168H131.095V331.645C131.095 332.836 131.998 333.598 133.443 333.598C134.889 333.598 135.792 332.831 135.792 331.645V328.168H134.483V331.498C134.483 332.182 134.054 332.548 133.443 332.548ZM140.164 333.5V329.188H141.712V328.168H137.308V329.188H138.855V333.5H140.164Z" fill="white"/>
<rect x="135" y="343.5" width="7" height="7" rx="1" fill="white"/>
<path d="M141.011 349.5H139.31L139.004 348.204C138.992 348.156 138.971 348.075 138.941 347.961C138.917 347.841 138.887 347.754 138.851 347.7C138.815 347.64 138.764 347.601 138.698 347.583C138.53 347.589 138.284 347.592 137.96 347.592V349.5H136.34V344.415C137.066 344.361 137.744 344.334 138.374 344.334C138.944 344.334 139.406 344.382 139.76 344.478C140.114 344.568 140.378 344.727 140.552 344.955C140.732 345.177 140.822 345.483 140.822 345.873C140.822 346.239 140.738 346.527 140.57 346.737C140.402 346.941 140.132 347.064 139.76 347.106V347.16C139.97 347.178 140.144 347.247 140.282 347.367C140.426 347.481 140.522 347.628 140.57 347.808L141.011 349.5ZM137.96 346.575C138.014 346.581 138.119 346.584 138.275 346.584C138.737 346.584 139.007 346.545 139.085 346.467C139.157 346.395 139.193 346.227 139.193 345.963C139.193 345.717 139.127 345.549 138.995 345.459C138.869 345.369 138.659 345.324 138.365 345.324C138.299 345.324 138.164 345.33 137.96 345.342V346.575Z" fill="#457B9D"/>
<rect x="135" y="313.5" width="7" height="7" rx="1" fill="white"/>
<path d="M136.792 314.37H138.412V318.312H140.509V319.5H136.792V314.37Z" fill="#457B9D"/>
<path d="M40.1045 333.5V328.168H38.7959V333.5H40.1045ZM43.417 333.5V330.253H43.4658L45.7803 333.5H46.8203V328.168H45.5947V331.386H45.5459L43.2412 328.168H42.1963V333.5H43.417ZM53.2285 329.975C53.2285 328.983 52.54 328.168 51.2705 328.168H48.917V333.5H50.2207V331.83H51.2607C52.5303 331.83 53.2285 330.976 53.2285 329.975ZM51.9004 330.004C51.9004 330.541 51.5879 330.883 51.0459 330.883H50.2158V329.13H50.9971C51.5684 329.13 51.9004 329.447 51.9004 330.004ZM57.2148 332.548C56.6045 332.548 56.1797 332.187 56.1797 331.498V328.168H54.8662V331.645C54.8662 332.836 55.7695 333.598 57.2148 333.598C58.6602 333.598 59.5635 332.831 59.5635 331.645V328.168H58.2549V331.498C58.2549 332.182 57.8252 332.548 57.2148 332.548ZM63.9355 333.5V329.188H65.4834V328.168H61.0791V329.188H62.627V333.5H63.9355Z" fill="white"/>
<rect x="38" y="343.5" width="7" height="7" rx="1" fill="white"/>
<path d="M44.0106 349.5H42.3096L42.0036 348.204C41.9916 348.156 41.9706 348.075 41.9406 347.961C41.9166 347.841 41.8866 347.754 41.8506 347.7C41.8146 347.64 41.7636 347.601 41.6976 347.583C41.5296 347.589 41.2836 347.592 40.9596 347.592V349.5H39.3396V344.415C40.0656 344.361 40.7436 344.334 41.3736 344.334C41.9436 344.334 42.4056 344.382 42.7596 344.478C43.1136 344.568 43.3776 344.727 43.5516 344.955C43.7316 345.177 43.8216 345.483 43.8216 345.873C43.8216 346.239 43.7376 346.527 43.5696 346.737C43.4016 346.941 43.1316 347.064 42.7596 347.106V347.16C42.9696 347.178 43.1436 347.247 43.2816 347.367C43.4256 347.481 43.5216 347.628 43.5696 347.808L44.0106 349.5ZM40.9596 346.575C41.0136 346.581 41.1186 346.584 41.2746 346.584C41.7366 346.584 42.0066 346.545 42.0846 346.467C42.1566 346.395 42.1926 346.227 42.1926 345.963C42.1926 345.717 42.1266 345.549 41.9946 345.459C41.8686 345.369 41.6586 345.324 41.3646 345.324C41.2986 345.324 41.1636 345.33 40.9596 345.342V346.575Z" fill="#457B9D"/>
<rect x="38" y="313.5" width="7" height="7" rx="1" fill="white"/>
<path d="M39.7919 314.37H41.4119V318.312H43.5089V319.5H39.7919V314.37Z" fill="#457B9D"/>
<rect x="8" y="269" width="65" height="28" rx="14" fill="#36617C"/>
<path d="M23.4688 264H25.9639C27.0918 264 27.9268 263.443 27.9268 262.486C27.9268 261.666 27.3066 261.246 26.6523 261.197V261.144C27.2188 261.036 27.6533 260.641 27.6533 259.981C27.6533 259.166 26.9697 258.668 25.9346 258.668H23.4688V264ZM24.7627 259.571H25.6074C26.1055 259.571 26.374 259.815 26.374 260.191C26.374 260.582 26.1006 260.836 25.4365 260.836H24.7627V259.571ZM24.7627 261.666H25.6758C26.291 261.666 26.5986 261.949 26.5986 262.389C26.5986 262.823 26.3105 263.102 25.5195 263.102H24.7627V261.666ZM30.9121 264H32.2158V262.086L34.1055 258.668H32.7041L31.6055 260.875H31.5566L30.458 258.668H29.0225L30.9121 262.115V264ZM39.8545 260.475C39.8545 259.483 39.166 258.668 37.8965 258.668H35.543V264H36.8467V262.33H37.8867C39.1562 262.33 39.8545 261.476 39.8545 260.475ZM38.5264 260.504C38.5264 261.041 38.2139 261.383 37.6719 261.383H36.8418V259.63H37.623C38.1943 259.63 38.5264 259.947 38.5264 260.504ZM42 264L42.3857 262.75H44.168L44.5439 264H45.9307L44.1045 258.668H42.5225L40.6914 264H42ZM43.3135 259.801L43.9238 261.842H42.6299L43.25 259.801H43.3135ZM47.1875 262.447C47.2021 263.346 47.9199 264.098 49.4482 264.098C50.9521 264.098 51.748 263.385 51.748 262.384C51.748 261.446 51.1279 261.036 50.2295 260.86L49.4434 260.709C48.8916 260.597 48.6182 260.436 48.6182 260.123C48.6182 259.781 48.9258 259.522 49.4873 259.522C50.0732 259.522 50.415 259.815 50.4443 260.187H51.6504C51.6406 259.337 50.9082 258.565 49.4922 258.565C48.1836 258.565 47.3096 259.22 47.3096 260.221C47.3096 261.09 47.8662 261.544 48.8623 261.744L49.6094 261.896C50.1758 262.013 50.4541 262.179 50.4541 262.511C50.4541 262.872 50.1416 263.131 49.502 263.131C48.8672 263.131 48.4668 262.833 48.4375 262.447H47.1875ZM53.2441 262.447C53.2588 263.346 53.9766 264.098 55.5049 264.098C57.0088 264.098 57.8047 263.385 57.8047 262.384C57.8047 261.446 57.1846 261.036 56.2861 260.86L55.5 260.709C54.9482 260.597 54.6748 260.436 54.6748 260.123C54.6748 259.781 54.9824 259.522 55.5439 259.522C56.1299 259.522 56.4717 259.815 56.501 260.187H57.707C57.6973 259.337 56.9648 258.565 55.5488 258.565C54.2402 258.565 53.3662 259.22 53.3662 260.221C53.3662 261.09 53.9229 261.544 54.9189 261.744L55.666 261.896C56.2324 262.013 56.5107 262.179 56.5107 262.511C56.5107 262.872 56.1982 263.131 55.5586 263.131C54.9238 263.131 54.5234 262.833 54.4941 262.447H53.2441Z" fill="white"/>
<g clip-path="url(#clip0)">
<path d="M90.9999 117.333H91.9999C92.2188 117.333 92.4355 117.376 92.6377 117.46C92.8399 117.544 93.0237 117.667 93.1784 117.821C93.3332 117.976 93.456 118.16 93.5397 118.362C93.6235 118.564 93.6666 118.781 93.6666 119C93.6666 119.219 93.6235 119.436 93.5397 119.638C93.456 119.84 93.3332 120.024 93.1784 120.178C93.0237 120.333 92.8399 120.456 92.6377 120.54C92.4355 120.624 92.2188 120.667 91.9999 120.667H90.9999M88.9999 120.667H87.9999C87.781 120.667 87.5643 120.624 87.3621 120.54C87.1599 120.456 86.9762 120.333 86.8214 120.178C86.5088 119.866 86.3333 119.442 86.3333 119C86.3333 118.558 86.5088 118.134 86.8214 117.821C87.134 117.509 87.5579 117.333 87.9999 117.333H88.9999" stroke="white" stroke-linecap="round" stroke-linejoin="round"/>
<path d="M88.6667 119H91.3334" stroke="white" stroke-linecap="round" stroke-linejoin="round"/>
</g>
<g clip-path="url(#clip1)">
<path d="M90.9999 167.333H91.9999C92.2188 167.333 92.4355 167.376 92.6377 167.46C92.8399 167.544 93.0237 167.667 93.1784 167.821C93.3332 167.976 93.456 168.16 93.5397 168.362C93.6235 168.564 93.6666 168.781 93.6666 169C93.6666 169.219 93.6235 169.436 93.5397 169.638C93.456 169.84 93.3332 170.024 93.1784 170.179C93.0237 170.333 92.8399 170.456 92.6377 170.54C92.4355 170.624 92.2188 170.667 91.9999 170.667H90.9999M88.9999 170.667H87.9999C87.781 170.667 87.5643 170.624 87.3621 170.54C87.1599 170.456 86.9762 170.333 86.8214 170.179C86.5088 169.866 86.3333 169.442 86.3333 169C86.3333 168.558 86.5088 168.134 86.8214 167.821C87.134 167.509 87.5579 167.333 87.9999 167.333H88.9999" stroke="white" stroke-linecap="round" stroke-linejoin="round"/>
<path d="M88.6667 169H91.3334" stroke="white" stroke-linecap="round" stroke-linejoin="round"/>
</g>
<path d="M78.2764 237.5H79.4971L80.9521 232.173H79.5654L78.8232 235.825H78.7598L77.8223 232.173H76.7383L75.8008 235.825H75.7373L74.9902 232.173H73.6035L75.0635 237.5H76.2793L77.251 234.048H77.3047L78.2764 237.5ZM86.2422 236.504H83.7861V235.278H86.0908V234.351H83.7861V233.164H86.2422V232.168H82.4922V237.5H86.2422V236.504ZM90.5264 237.5V233.188H92.0742V232.168H87.6699V233.188H89.2178V237.5H90.5264ZM97.6934 237.5V235.474H99.8906V234.497H97.6934V233.174H100.11V232.168H96.3848V237.5H97.6934ZM106.489 232.168H105.029L103.979 233.984H103.921L102.871 232.168H101.338L103.032 234.814L101.333 237.5H102.739L103.833 235.728H103.892L104.985 237.5H106.47L104.727 234.834L106.489 232.168Z" fill="white"/>
<path d="M14.0674 216.447C14.082 217.346 14.7998 218.098 16.3281 218.098C17.832 218.098 18.6279 217.385 18.6279 216.384C18.6279 215.446 18.0078 215.036 17.1094 214.86L16.3232 214.709C15.7715 214.597 15.498 214.436 15.498 214.123C15.498 213.781 15.8057 213.522 16.3672 213.522C16.9531 213.522 17.2949 213.815 17.3242 214.187H18.5303C18.5205 213.337 17.7881 212.565 16.3721 212.565C15.0635 212.565 14.1895 213.22 14.1895 214.221C14.1895 215.09 14.7461 215.544 15.7422 215.744L16.4893 215.896C17.0557 216.013 17.334 216.179 17.334 216.511C17.334 216.872 17.0215 217.131 16.3818 217.131C15.7471 217.131 15.3467 216.833 15.3174 216.447H14.0674ZM21.667 218V214.753H21.7158L24.0303 218H25.0703V212.668H23.8447V215.886H23.7959L21.4912 212.668H20.4463V218H21.667ZM31.8887 215.314C31.8887 213.635 31.0635 212.668 29.3447 212.668H27.167V218H29.3447C31.0439 218 31.8887 217.019 31.8887 215.314ZM30.5508 215.339C30.5508 216.647 29.9697 217.004 29.1299 217.004H28.4756V213.664H29.1299C30.1846 213.664 30.5508 214.353 30.5508 215.339Z" fill="white"/>
<path d="M52.6289 212.668H50.2754V218H51.5596V216.081H52.3848L53.3467 218H54.7969L53.6738 215.905C54.1621 215.725 54.6895 215.188 54.6895 214.406C54.6895 213.337 53.9277 212.668 52.6289 212.668ZM51.5596 215.183V213.62H52.4385C52.9658 213.62 53.3369 213.898 53.3369 214.416C53.3369 214.929 52.9756 215.183 52.4238 215.183H51.5596ZM58.8955 218V213.688H60.4434V212.668H56.0391V213.688H57.5869V218H58.8955ZM63.3164 218V214.753H63.3652L65.6797 218H66.7197V212.668H65.4941V215.886H65.4453L63.1406 212.668H62.0957V218H63.3164Z" fill="white"/>
<path d="M113.067 216.447C113.082 217.346 113.8 218.098 115.328 218.098C116.832 218.098 117.628 217.385 117.628 216.384C117.628 215.446 117.008 215.036 116.109 214.86L115.323 214.709C114.771 214.597 114.498 214.436 114.498 214.123C114.498 213.781 114.806 213.522 115.367 213.522C115.953 213.522 116.295 213.815 116.324 214.187H117.53C117.521 213.337 116.788 212.565 115.372 212.565C114.063 212.565 113.189 213.22 113.189 214.221C113.189 215.09 113.746 215.544 114.742 215.744L115.489 215.896C116.056 216.013 116.334 216.179 116.334 216.511C116.334 216.872 116.021 217.131 115.382 217.131C114.747 217.131 114.347 216.833 114.317 216.447H113.067ZM120.667 218V214.753H120.716L123.03 218H124.07V212.668H122.845V215.886H122.796L120.491 212.668H119.446V218H120.667ZM130.889 215.314C130.889 213.635 130.063 212.668 128.345 212.668H126.167V218H128.345C130.044 218 130.889 217.019 130.889 215.314ZM129.551 215.339C129.551 216.647 128.97 217.004 128.13 217.004H127.476V213.664H128.13C129.185 213.664 129.551 214.353 129.551 215.339Z" fill="white"/>
<path d="M151.629 212.668H149.275V218H150.56V216.081H151.385L152.347 218H153.797L152.674 215.905C153.162 215.725 153.689 215.188 153.689 214.406C153.689 213.337 152.928 212.668 151.629 212.668ZM150.56 215.183V213.62H151.438C151.966 213.62 152.337 213.898 152.337 214.416C152.337 214.929 151.976 215.183 151.424 215.183H150.56ZM157.896 218V213.688H159.443V212.668H155.039V213.688H156.587V218H157.896ZM162.316 218V214.753H162.365L164.68 218H165.72V212.668H164.494V215.886H164.445L162.141 212.668H161.096V218H162.316Z" fill="white"/>
<defs>
<clipPath id="clip0">
<rect width="8" height="8" fill="white" transform="translate(86 115)"/>
</clipPath>
<clipPath id="clip1">
<rect width="8" height="8" fill="white" transform="translate(86 165)"/>
</clipPath>
</defs>
</svg>
