<svg width="120" height="380" viewBox="0 0 120 380" fill="none" xmlns="http://www.w3.org/2000/svg">
<path d="M115.5 87C115.5 99.1503 105.65 109 93.5 109C76 109 75 100 61 100C54.2181 100 50.311 100 46.5 100C30.6 100 26.1727 103.68 18.5 102.5C8.71293 100.739 6 92.1853 6 87C6 82.1367 9.08269 73.642 18 72C25.8507 70.6104 30.5972 74 46.5 74C49.8793 74 53.9797 74 61 74C75 74 76 65 93.5 65C105.65 65 115.5 74.8497 115.5 87Z" fill="#36617C"/>
<rect width="120" height="380" fill="#457B9D"/>
<g opacity="0.5">
<path fill-rule="evenodd" clip-rule="evenodd" d="M53.958 375.599C53.803 375.747 53.659 375.851 53.526 375.909C53.393 375.968 53.251 375.998 53.1 375.998C52.948 375.998 52.806 375.97 52.673 375.914C52.54 375.858 52.424 375.781 52.325 375.682C52.109 375.466 52 375.209 52 374.912V369.385C52 369.082 52.078 368.847 52.232 368.68C52.498 368.408 52.75 368.272 52.988 368.272C53.226 368.272 53.404 368.296 53.522 368.346C53.639 368.395 53.738 368.457 53.818 368.531C53.924 368.624 54.002 368.723 54.055 368.828C54.108 368.933 54.151 369.011 54.185 369.06C54.219 369.11 54.275 369.134 54.352 369.134C54.429 369.134 54.496 369.11 54.551 369.06L54.709 368.902C55.16 368.482 55.612 368.272 56.063 368.272C56.861 368.272 57.519 368.599 58.039 369.255C58.088 369.323 58.15 369.357 58.224 369.357C58.354 369.357 58.486 369.256 58.619 369.055C58.752 368.854 58.966 368.674 59.263 368.513C59.56 368.352 59.906 368.272 60.302 368.272C60.698 368.272 61.058 368.344 61.383 368.49C61.707 368.635 61.99 368.834 62.231 369.088C62.738 369.62 62.992 370.263 62.992 371.017V374.912C62.992 375.382 62.769 375.713 62.324 375.905C62.188 375.967 62.044 375.998 61.893 375.998C61.741 375.998 61.599 375.97 61.466 375.914C61.333 375.858 61.217 375.781 61.118 375.682C60.908 375.46 60.803 375.203 60.803 374.912V371.045C60.803 370.736 60.726 370.504 60.571 370.349C60.299 370.077 60.049 369.941 59.82 369.941C59.591 369.941 59.412 369.971 59.282 370.029C59.152 370.088 59.034 370.17 58.929 370.275C58.713 370.492 58.605 370.742 58.605 371.026V374.912C58.605 375.382 58.385 375.713 57.946 375.905C57.81 375.967 57.666 375.998 57.515 375.998C57.363 375.998 57.22 375.97 57.083 375.914C56.947 375.858 56.83 375.781 56.731 375.682C56.515 375.466 56.406 375.209 56.406 374.912V371.045C56.406 370.736 56.329 370.504 56.174 370.349C55.902 370.077 55.618 369.941 55.321 369.941C54.826 369.941 54.483 370.133 54.292 370.516C54.23 370.64 54.199 370.779 54.199 370.934V374.912C54.199 375.215 54.118 375.444 53.958 375.599ZM65.219 369.387C65.219 369.084 65.296 368.849 65.451 368.682C65.716 368.41 66.01 368.274 66.332 368.274C66.641 368.274 66.87 368.355 67.018 368.515C67.29 368.794 67.426 369.084 67.426 369.387V374.915C67.426 375.212 67.349 375.437 67.194 375.592C66.922 375.864 66.672 376 66.443 376C66.214 376 66.032 375.971 65.896 375.912C65.76 375.853 65.642 375.777 65.543 375.685C65.327 375.474 65.219 375.218 65.219 374.915V369.387ZM66.327 365.9C66.065 365.9 65.852 365.687 65.852 365.425C65.852 365.162 66.065 364.95 66.327 364.95C66.589 364.95 66.802 365.162 66.802 365.425C66.802 365.687 66.589 365.9 66.327 365.9ZM66.327 364C66.714 364 67.048 364.142 67.329 364.425C67.611 364.709 67.752 364.996 67.752 365.287C67.752 365.577 67.713 365.807 67.635 365.978C67.558 366.148 67.456 366.297 67.329 366.424C67.048 366.708 66.714 366.849 66.327 366.849C65.94 366.849 65.606 366.708 65.324 366.424C65.043 366.141 64.902 365.857 64.902 365.574C64.902 365.092 65.043 364.709 65.324 364.425C65.606 364.142 65.94 364 66.327 364Z" fill="#1D3557"/>
</g>
<path d="M34.0078 16.0254C34.9438 16.0254 35.7078 16.1134 36.2998 16.2894C36.8998 16.4654 37.3638 16.7974 37.6918 17.2854C38.0278 17.7734 38.1958 18.4734 38.1958 19.3854C38.1958 20.3614 38.0198 21.1054 37.6678 21.6174C37.3158 22.1214 36.8438 22.4574 36.2518 22.6254C35.6598 22.7854 34.9118 22.8654 34.0078 22.8654H31.6078V16.0254H34.0078ZM35.6158 21.2334C35.7118 21.1374 35.7798 20.8894 35.8198 20.4894C35.8598 20.0894 35.8798 19.7214 35.8798 19.3854C35.8798 18.9614 35.8478 18.6254 35.7838 18.3774C35.7278 18.1214 35.6238 17.9174 35.4718 17.7654C35.2318 17.5014 34.8198 17.3694 34.2358 17.3694C34.1318 17.3694 33.9758 17.3774 33.7678 17.3934V21.3774C33.9038 21.3934 34.1158 21.4014 34.4038 21.4014C34.6998 21.4014 34.9598 21.3894 35.1838 21.3654C35.4158 21.3334 35.5598 21.2894 35.6158 21.2334ZM39.0947 16.0254H44.0747V17.4654H41.2547V18.7134H43.6307V20.0094H41.2547V21.4014H44.0627V22.8654H39.0947V16.0254ZM44.9666 16.0254H47.1266V21.2814H49.9226V22.8654H44.9666V16.0254ZM54.6577 21.3654H52.6657L52.3057 22.8654H50.0977L52.3057 16.0254H55.1257L57.2377 22.8654H55.0177L54.6577 21.3654ZM53.6497 17.5014L52.9417 20.0334H54.3697L53.6977 17.5014H53.6497ZM60.7355 20.6814V22.8654H58.5755V20.7054L56.2715 16.0254H58.4675L59.3795 18.2454C59.4755 18.4694 59.5635 18.7054 59.6435 18.9534H59.6675C59.7555 18.6814 59.8435 18.4374 59.9315 18.2214L60.8315 16.0254H63.0155L60.7355 20.6814ZM66.2897 15.9894C66.9377 15.9894 67.4857 16.0494 67.9337 16.1694C68.3817 16.2894 68.7377 16.5214 69.0017 16.8654C69.2737 17.2014 69.4097 17.6854 69.4097 18.3174C69.4097 18.5974 69.3657 18.8854 69.2777 19.1814C69.1977 19.4694 69.0937 19.7214 68.9657 19.9374C68.8457 20.1534 68.7377 20.2934 68.6417 20.3574C68.5297 20.4374 68.2817 20.5014 67.8977 20.5494C67.5137 20.5894 67.0617 20.6094 66.5417 20.6094C66.3577 20.6094 66.0737 20.6014 65.6897 20.5854V22.8654H63.5297V16.0254C64.3697 16.0014 65.2897 15.9894 66.2897 15.9894ZM67.1897 19.0734C67.2697 18.9694 67.3097 18.7614 67.3097 18.4494C67.3097 18.0414 67.2217 17.7534 67.0457 17.5854C66.8777 17.4174 66.5817 17.3334 66.1577 17.3334C66.0137 17.3334 65.8577 17.3454 65.6897 17.3694V19.1934C65.7697 19.2014 65.9257 19.2054 66.1577 19.2054C66.7737 19.2054 67.1177 19.1614 67.1897 19.0734ZM70.1502 16.0254H72.3102V21.2814H75.1062V22.8654H70.1502V16.0254ZM82.2773 16.0254V19.8534C82.2773 20.6454 82.1893 21.2654 82.0133 21.7134C81.8453 22.1534 81.5253 22.4774 81.0533 22.6854C80.5813 22.8934 79.8933 22.9974 78.9893 22.9974C78.3253 22.9974 77.7653 22.9294 77.3093 22.7934C76.8533 22.6494 76.4893 22.3814 76.2173 21.9894C75.9533 21.5974 75.8213 21.0454 75.8213 20.3334V16.0254H77.9813V19.8774C77.9813 20.3014 78.0013 20.6254 78.0413 20.8494C78.0893 21.0654 78.1933 21.2334 78.3533 21.3534C78.5133 21.4654 78.7573 21.5214 79.0853 21.5214C79.2853 21.5214 79.4733 21.5014 79.6493 21.4614C79.8253 21.4214 79.9453 21.3614 80.0093 21.2814C80.0813 21.1854 80.1173 20.8374 80.1173 20.2374V16.0254H82.2773ZM85.3844 17.8734C85.3844 18.0414 85.4684 18.1734 85.6364 18.2694C85.8124 18.3654 86.0844 18.4694 86.4524 18.5814C86.8924 18.7254 87.2524 18.8654 87.5324 19.0014C87.8204 19.1374 88.0684 19.3494 88.2764 19.6374C88.4924 19.9254 88.6004 20.3014 88.6004 20.7654C88.6004 22.2534 87.6324 22.9974 85.6964 22.9974C85.3764 22.9974 84.9844 22.9694 84.5204 22.9134C84.0644 22.8574 83.6484 22.7854 83.2724 22.6974C83.2884 22.5294 83.3204 22.2854 83.3684 21.9654C83.4244 21.6374 83.4764 21.3934 83.5244 21.2334C83.8044 21.2734 84.2244 21.3214 84.7844 21.3774C85.3524 21.4334 85.7804 21.4614 86.0684 21.4614C86.2364 21.4614 86.3364 21.4494 86.3684 21.4254C86.4164 21.3934 86.4524 21.3414 86.4764 21.2694C86.5084 21.1894 86.5244 21.1214 86.5244 21.0654C86.5244 20.9054 86.4484 20.7854 86.2964 20.7054C86.1444 20.6174 85.8844 20.5134 85.5164 20.3934C85.0764 20.2574 84.7124 20.1174 84.4244 19.9734C84.1364 19.8294 83.8844 19.6054 83.6684 19.3014C83.4524 18.9974 83.3444 18.5974 83.3444 18.1014C83.3444 17.7494 83.4244 17.4054 83.5844 17.0694C83.7444 16.7254 83.9084 16.4934 84.0764 16.3734C84.2044 16.2854 84.4684 16.2014 84.8684 16.1214C85.2684 16.0414 85.6444 16.0014 85.9964 16.0014C86.8924 16.0014 87.6244 16.0854 88.1924 16.2534C88.1844 16.4134 88.1564 16.6334 88.1084 16.9134C88.0684 17.1934 88.0244 17.4494 87.9764 17.6814L87.7004 17.6694C86.6604 17.5974 85.9964 17.5614 85.7084 17.5614C85.5884 17.5614 85.5204 17.5654 85.5044 17.5734C85.4724 17.5894 85.4444 17.6254 85.4204 17.6814C85.3964 17.7374 85.3844 17.8014 85.3844 17.8734Z" fill="#A8DADC"/>
<path d="M13.4435 269.5H10.8515L9.62748 263.98H11.7275L12.2675 268.084H12.3035L12.9155 263.98H15.1355L15.7835 268.072H15.8315L16.3355 263.98H18.4475L17.2235 269.5H14.6195L14.0435 266.164H14.0075L13.4435 269.5ZM22.3603 268.06C22.5603 268.06 22.9323 268.04 23.4763 268C23.5483 268 23.6803 267.992 23.8723 267.976L24.0523 269.212C23.4363 269.5 22.6363 269.644 21.6523 269.644C20.7323 269.644 20.0243 269.412 19.5283 268.948C19.0403 268.484 18.7963 267.784 18.7963 266.848C18.7963 266.368 18.8563 265.904 18.9763 265.456C19.1043 265.008 19.2483 264.696 19.4083 264.52C19.5763 264.344 19.8883 264.192 20.3443 264.064C20.8003 263.936 21.2523 263.872 21.7003 263.872C22.4203 263.872 22.9603 264 23.3203 264.256C23.6803 264.512 23.9163 264.868 24.0283 265.324C24.1403 265.772 24.1963 266.376 24.1963 267.136C23.6523 267.168 23.1203 267.184 22.6003 267.184H20.8963C20.8963 267.44 20.9483 267.632 21.0523 267.76C21.1643 267.888 21.3203 267.972 21.5203 268.012C21.7203 268.044 22.0003 268.06 22.3603 268.06ZM21.0163 265.3C20.9683 265.324 20.9323 265.428 20.9083 265.612C20.8843 265.796 20.8683 266.004 20.8603 266.236H21.4843C21.8603 266.236 22.1323 266.232 22.3003 266.224C22.3003 265.84 22.2443 265.568 22.1323 265.408C22.0283 265.248 21.8443 265.168 21.5803 265.168C21.3643 265.168 21.1763 265.212 21.0163 265.3ZM27.4626 267.232C27.4626 267.376 27.4666 267.528 27.4746 267.688C27.4826 267.84 27.5066 267.936 27.5466 267.976C27.6026 268.032 27.7986 268.06 28.1346 268.06L28.5426 268.048C28.6146 268.432 28.6506 268.876 28.6506 269.38C28.4986 269.436 28.2746 269.488 27.9786 269.536C27.6906 269.584 27.4146 269.608 27.1506 269.608C26.5986 269.608 26.1706 269.488 25.8666 269.248C25.5706 269 25.4226 268.62 25.4226 268.108V265.156H24.5226V264.064L25.4226 263.98L25.9626 262.66L27.4626 262.576V263.98H28.7346V265.156H27.4626V267.232ZM33.7689 263.356C33.7129 263.412 33.6849 263.584 33.6849 263.872V263.98H34.9569V265.156H33.6849V269.5H31.6329V265.156H30.7329V264.088L31.6329 263.98V263.8C31.6329 263.448 31.6809 263.112 31.7769 262.792C31.8729 262.472 31.9609 262.28 32.0409 262.216C32.2889 262.008 32.8169 261.904 33.6249 261.904C34.0649 261.904 34.5569 261.936 35.1009 262C35.1009 262.096 35.0849 262.288 35.053 262.576C35.0289 262.864 35.0049 263.108 34.9809 263.308L34.4649 263.296C34.0409 263.296 33.8089 263.316 33.7689 263.356ZM36.4852 266.68L35.1052 263.98H37.0972L38.0932 266.116L39.1012 263.98H41.0812L39.7132 266.68L41.2132 269.5H39.2092L38.0932 267.22L36.9772 269.5H34.9732L36.4852 266.68Z" fill="#A8DADC"/>
<path d="M88.9706 245.36C89.0746 245.36 89.1826 245.372 89.2946 245.396C89.4146 245.42 89.5026 245.448 89.5586 245.48C89.5586 245.656 89.5386 245.948 89.4986 246.356C89.4586 246.756 89.4226 247.04 89.3906 247.208C89.3106 247.2 89.1626 247.196 88.9466 247.196C88.4426 247.196 87.9946 247.224 87.6026 247.28V251H85.5506V245.48H87.2666L87.5066 246.368H87.5186C87.7506 246.064 87.9986 245.82 88.2626 245.636C88.5266 245.452 88.7626 245.36 88.9706 245.36ZM93.4455 249.56C93.6455 249.56 94.0175 249.54 94.5615 249.5C94.6335 249.5 94.7655 249.492 94.9575 249.476L95.1375 250.712C94.5215 251 93.7215 251.144 92.7375 251.144C91.8175 251.144 91.1095 250.912 90.6135 250.448C90.1255 249.984 89.8815 249.284 89.8815 248.348C89.8815 247.868 89.9415 247.404 90.0615 246.956C90.1895 246.508 90.3335 246.196 90.4935 246.02C90.6615 245.844 90.9735 245.692 91.4295 245.564C91.8855 245.436 92.3375 245.372 92.7855 245.372C93.5055 245.372 94.0455 245.5 94.4055 245.756C94.7655 246.012 95.0015 246.368 95.1135 246.824C95.2255 247.272 95.2815 247.876 95.2815 248.636C94.7375 248.668 94.2055 248.684 93.6855 248.684H91.9815C91.9815 248.94 92.0335 249.132 92.1375 249.26C92.2495 249.388 92.4055 249.472 92.6055 249.512C92.8055 249.544 93.0855 249.56 93.4455 249.56ZM92.1015 246.8C92.0535 246.824 92.0175 246.928 91.9935 247.112C91.9695 247.296 91.9535 247.504 91.9455 247.736H92.5695C92.9455 247.736 93.2175 247.732 93.3855 247.724C93.3855 247.34 93.3295 247.068 93.2175 246.908C93.1135 246.748 92.9295 246.668 92.6655 246.668C92.4495 246.668 92.2615 246.712 92.1015 246.8ZM98.5477 248.732C98.5477 248.876 98.5517 249.028 98.5597 249.188C98.5677 249.34 98.5917 249.436 98.6317 249.476C98.6877 249.532 98.8837 249.56 99.2197 249.56L99.6277 249.548C99.6997 249.932 99.7357 250.376 99.7357 250.88C99.5837 250.936 99.3597 250.988 99.0637 251.036C98.7757 251.084 98.4997 251.108 98.2357 251.108C97.6837 251.108 97.2557 250.988 96.9517 250.748C96.6557 250.5 96.5077 250.12 96.5077 249.608V246.656H95.6077V245.564L96.5077 245.48L97.0477 244.16L98.5477 244.076V245.48H99.8197V246.656H98.5477V248.732Z" fill="#A8DADC"/>
<path d="M53.8915 249.128C53.8915 249.84 53.6635 250.352 53.2075 250.664C52.7595 250.976 52.1195 251.132 51.2875 251.132C50.7035 251.132 50.0315 251.048 49.2715 250.88C49.2875 250.72 49.3235 250.492 49.3795 250.196C49.4435 249.892 49.4955 249.66 49.5355 249.5C49.8235 249.548 50.1435 249.588 50.4955 249.62C50.8475 249.644 51.1475 249.656 51.3955 249.656C51.6115 249.656 51.7435 249.644 51.7915 249.62C51.7995 249.612 51.8075 249.592 51.8155 249.56C51.8315 249.52 51.8395 249.48 51.8395 249.44C51.8395 249.28 51.7395 249.172 51.5395 249.116C51.4755 249.1 51.2315 249.032 50.8075 248.912C50.3835 248.792 50.0355 248.576 49.7635 248.264C49.4995 247.944 49.3675 247.548 49.3675 247.076C49.3675 246.828 49.4235 246.552 49.5355 246.248C49.6475 245.944 49.7675 245.752 49.8955 245.672C49.9915 245.608 50.2235 245.544 50.5915 245.48C50.9595 245.408 51.2995 245.372 51.6115 245.372C52.2755 245.372 52.9435 245.42 53.6155 245.516C53.6155 245.66 53.5955 245.904 53.5555 246.248C53.5155 246.584 53.4795 246.796 53.4475 246.884C52.7675 246.796 52.2195 246.752 51.8035 246.752C51.5875 246.752 51.4475 246.764 51.3835 246.788C51.3675 246.796 51.3515 246.82 51.3355 246.86C51.3195 246.892 51.3115 246.936 51.3115 246.992C51.3115 247.104 51.3475 247.184 51.4195 247.232C51.4915 247.288 51.6795 247.356 51.9835 247.436C52.3435 247.54 52.6515 247.648 52.9075 247.76C53.1715 247.872 53.3995 248.04 53.5915 248.264C53.7915 248.488 53.8915 248.776 53.8915 249.128ZM59.9121 245.828C59.9841 245.916 60.0361 246.136 60.0681 246.488C60.1081 246.84 60.1281 247.376 60.1281 248.096V251H58.0761V248.12V247.628C58.0761 247.372 58.0561 247.212 58.0161 247.148C57.9521 247.068 57.8041 247.028 57.5721 247.028C57.4601 247.028 57.3761 247.032 57.3201 247.04C57.0961 247.048 56.8641 247.1 56.6241 247.196V251H54.5721V245.48H56.2401L56.4681 246.404C57.0441 245.708 57.7321 245.36 58.5321 245.36C58.8201 245.36 59.0881 245.4 59.3361 245.48C59.5921 245.56 59.7841 245.676 59.9121 245.828ZM66.572 243.716V251H64.88L64.712 250.076C64.552 250.388 64.316 250.636 64.004 250.82C63.692 251.004 63.34 251.096 62.948 251.096C62.324 251.096 61.824 250.872 61.448 250.424C61.08 249.976 60.896 249.304 60.896 248.408C60.896 247.728 60.976 247.168 61.136 246.728C61.296 246.288 61.484 245.972 61.7 245.78C61.836 245.66 62.112 245.56 62.528 245.48C62.952 245.4 63.328 245.36 63.656 245.36C63.944 245.36 64.24 245.388 64.544 245.444C64.52 245.06 64.508 244.848 64.508 244.808V243.8L66.572 243.716ZM63.848 249.488C64.064 249.488 64.288 249.452 64.52 249.38V246.776C64.288 246.744 64.032 246.728 63.752 246.728C63.512 246.728 63.36 246.748 63.296 246.788C63.208 246.852 63.136 247.036 63.08 247.34C63.032 247.636 63.008 247.948 63.008 248.276C63.008 248.764 63.08 249.088 63.224 249.248C63.376 249.408 63.584 249.488 63.848 249.488Z" fill="#A8DADC"/>
<path d="M86.5076 331.021C85.5476 331.021 84.8276 330.797 84.3476 330.349C83.8756 329.893 83.6396 329.177 83.6396 328.201C83.6396 327.665 83.6876 327.197 83.7836 326.797C83.8876 326.389 84.0116 326.105 84.1556 325.945C84.3396 325.737 84.6756 325.565 85.1636 325.429C85.6596 325.293 86.1236 325.225 86.5556 325.225C87.5876 325.225 88.3236 325.445 88.7636 325.885C89.2036 326.325 89.4236 327.029 89.4236 327.997C89.4236 329.037 89.1876 329.801 88.7156 330.289C88.2436 330.777 87.5076 331.021 86.5076 331.021ZM86.5436 329.617C86.8556 329.617 87.0596 329.509 87.1556 329.293C87.2516 329.069 87.2996 328.677 87.2996 328.117C87.2996 327.725 87.2796 327.425 87.2396 327.217C87.1996 327.001 87.1236 326.845 87.0116 326.749C86.9076 326.645 86.7436 326.593 86.5196 326.593C86.1996 326.593 86.0156 326.621 85.9676 326.677C85.9036 326.733 85.8516 326.909 85.8116 327.205C85.7716 327.501 85.7516 327.809 85.7516 328.129C85.7516 328.673 85.8036 329.057 85.9076 329.281C86.0196 329.505 86.2316 329.617 86.5436 329.617ZM95.7268 325.345V330.865H94.0588L93.8308 329.941C93.2548 330.637 92.5668 330.985 91.7668 330.985C91.4788 330.985 91.2068 330.945 90.9508 330.865C90.7028 330.785 90.5148 330.669 90.3868 330.517C90.3148 330.429 90.2588 330.209 90.2188 329.857C90.1868 329.505 90.1708 328.969 90.1708 328.249V325.345H92.2228V328.225C92.2228 328.385 92.2268 328.573 92.2348 328.789C92.2428 329.005 92.2668 329.141 92.3068 329.197C92.3628 329.277 92.5228 329.317 92.7868 329.317L92.9788 329.305C93.2028 329.297 93.4348 329.245 93.6748 329.149V325.345H95.7268ZM99.2548 328.597C99.2548 328.741 99.2588 328.893 99.2668 329.053C99.2748 329.205 99.2988 329.301 99.3388 329.341C99.3948 329.397 99.5908 329.425 99.9268 329.425L100.335 329.413C100.407 329.797 100.443 330.241 100.443 330.745C100.291 330.801 100.067 330.853 99.7708 330.901C99.4828 330.949 99.2068 330.973 98.9428 330.973C98.3908 330.973 97.9628 330.853 97.6588 330.613C97.3628 330.365 97.2148 329.985 97.2148 329.473V326.521H96.3148V325.429L97.2148 325.345L97.7548 324.025L99.2548 323.941V325.345H100.527V326.521H99.2548V328.597Z" fill="#A8DADC"/>
<path d="M24.7553 324.661C24.4833 324.661 24.2473 324.569 24.0473 324.385C23.8553 324.201 23.7593 323.981 23.7593 323.725C23.7593 323.469 23.8553 323.249 24.0473 323.065C24.2473 322.881 24.4833 322.789 24.7553 322.789C25.0273 322.789 25.2593 322.881 25.4513 323.065C25.6433 323.249 25.7393 323.469 25.7393 323.725C25.7393 323.981 25.6433 324.201 25.4513 324.385C25.2593 324.569 25.0273 324.661 24.7553 324.661ZM23.7233 325.345H25.7753V330.865H23.7233V325.345ZM32.1328 325.693C32.2048 325.781 32.2568 326.001 32.2888 326.353C32.3288 326.705 32.3488 327.241 32.3488 327.961V330.865H30.2968V327.985V327.493C30.2968 327.237 30.2768 327.077 30.2368 327.013C30.1728 326.933 30.0248 326.893 29.7928 326.893C29.6808 326.893 29.5968 326.897 29.5408 326.905C29.3168 326.913 29.0848 326.965 28.8448 327.061V330.865H26.7928V325.345H28.4608L28.6888 326.269C29.2648 325.573 29.9528 325.225 30.7528 325.225C31.0408 325.225 31.3088 325.265 31.5568 325.345C31.8128 325.425 32.0048 325.541 32.1328 325.693Z" fill="#A8DADC"/>
<rect x="25" y="32" width="70" height="20" rx="5" fill="#36617C"/>
<path d="M106.12 39.364C106.248 39.556 106.312 40.3 106.312 41.596V44.5H104.26V41.8V41.152C104.26 40.856 104.232 40.68 104.176 40.624C104.112 40.56 103.976 40.528 103.768 40.528L103.624 40.54C103.376 40.556 103.14 40.612 102.916 40.708C102.924 40.876 102.928 41.172 102.928 41.596V44.5H100.876V41.8V41.08C100.876 40.832 100.848 40.68 100.792 40.624C100.728 40.56 100.592 40.528 100.384 40.528L100.24 40.54C100.016 40.548 99.784 40.6 99.544 40.696V44.5H97.492V38.98H99.16L99.376 39.88C99.64 39.528 99.944 39.272 100.288 39.112C100.632 38.944 100.98 38.86 101.332 38.86C101.628 38.86 101.908 38.904 102.172 38.992C102.444 39.08 102.632 39.204 102.736 39.364C102.784 39.436 102.824 39.568 102.856 39.76C103.112 39.448 103.404 39.22 103.732 39.076C104.06 38.932 104.388 38.86 104.716 38.86C105.012 38.86 105.292 38.904 105.556 38.992C105.828 39.08 106.016 39.204 106.12 39.364ZM111.729 42.628C111.729 43.34 111.501 43.852 111.045 44.164C110.597 44.476 109.957 44.632 109.125 44.632C108.541 44.632 107.869 44.548 107.109 44.38C107.125 44.22 107.161 43.992 107.217 43.696C107.281 43.392 107.333 43.16 107.373 43C107.661 43.048 107.981 43.088 108.333 43.12C108.685 43.144 108.985 43.156 109.233 43.156C109.449 43.156 109.581 43.144 109.629 43.12C109.637 43.112 109.645 43.092 109.653 43.06C109.669 43.02 109.677 42.98 109.677 42.94C109.677 42.78 109.577 42.672 109.377 42.616C109.313 42.6 109.069 42.532 108.645 42.412C108.221 42.292 107.873 42.076 107.601 41.764C107.337 41.444 107.205 41.048 107.205 40.576C107.205 40.328 107.261 40.052 107.373 39.748C107.485 39.444 107.605 39.252 107.733 39.172C107.829 39.108 108.061 39.044 108.429 38.98C108.797 38.908 109.137 38.872 109.449 38.872C110.113 38.872 110.781 38.92 111.453 39.016C111.453 39.16 111.433 39.404 111.393 39.748C111.353 40.084 111.317 40.296 111.285 40.384C110.605 40.296 110.057 40.252 109.641 40.252C109.425 40.252 109.285 40.264 109.221 40.288C109.205 40.296 109.189 40.32 109.173 40.36C109.157 40.392 109.149 40.436 109.149 40.492C109.149 40.604 109.185 40.684 109.257 40.732C109.329 40.788 109.517 40.856 109.821 40.936C110.181 41.04 110.489 41.148 110.745 41.26C111.009 41.372 111.237 41.54 111.429 41.764C111.629 41.988 111.729 42.276 111.729 42.628Z" fill="#A8DADC"/>
<path d="M9.74181 297.86C10.3658 297.86 10.8458 298.048 11.1818 298.424C11.5258 298.8 11.6978 299.464 11.6978 300.416C11.6978 301.112 11.6258 301.708 11.4818 302.204C11.3458 302.692 11.1898 303.004 11.0138 303.14C10.8058 303.308 10.4978 303.432 10.0898 303.512C9.68181 303.592 9.21781 303.632 8.69781 303.632C8.29781 303.632 7.84981 303.6 7.35381 303.536C6.85781 303.48 6.41381 303.388 6.02181 303.26V296.3L8.09781 296.216V297.344C8.09781 297.408 8.09381 297.556 8.08581 297.788C8.08581 298.02 8.07781 298.216 8.06181 298.376C8.04581 298.528 8.02181 298.644 7.98981 298.724L8.06181 298.808C8.24581 298.528 8.47781 298.3 8.75781 298.124C9.03781 297.948 9.36581 297.86 9.74181 297.86ZM9.40581 302.192C9.45381 302.112 9.49381 301.924 9.52581 301.628C9.56581 301.332 9.58581 301.048 9.58581 300.776C9.58581 300.456 9.56981 300.204 9.53781 300.02C9.51381 299.836 9.44581 299.692 9.33381 299.588C9.22981 299.476 9.06581 299.42 8.84181 299.42C8.64181 299.42 8.38581 299.448 8.07381 299.504V302.216C8.36981 302.264 8.67781 302.288 8.99781 302.288C9.22981 302.288 9.36581 302.256 9.40581 302.192ZM18.2028 297.98L16.7628 302.6C16.4828 303.488 16.2308 304.132 16.0068 304.532C15.7828 304.94 15.5588 305.224 15.3348 305.384C15.2068 305.472 15.0028 305.54 14.7228 305.588C14.4508 305.636 14.1548 305.66 13.8348 305.66C13.3548 305.66 12.9708 305.616 12.6828 305.528C12.6748 305.336 12.6828 305.1 12.7068 304.82C12.7308 304.548 12.7628 304.316 12.8028 304.124C13.1388 304.14 13.4668 304.148 13.7868 304.148C14.0268 304.148 14.2068 304.144 14.3268 304.136C14.4468 303.904 14.5588 303.66 14.6628 303.404L13.8348 303.356L11.9868 297.98H14.1588L15.1188 301.844L15.1308 302.072H15.1668L16.0308 297.98H18.2028ZM22.4703 297.86C23.0463 297.86 23.5023 298.052 23.8383 298.436C24.1823 298.812 24.3543 299.472 24.3543 300.416C24.3543 301.12 24.2863 301.696 24.1503 302.144C24.0143 302.584 23.8583 302.876 23.6823 303.02C23.5063 303.164 23.1983 303.28 22.7583 303.368C22.3263 303.456 21.8783 303.5 21.4143 303.5C21.2783 303.5 21.0503 303.492 20.7303 303.476V305.18L18.6783 305.264V297.98H20.3583L20.5623 298.832C20.7703 298.536 21.0343 298.3 21.3543 298.124C21.6823 297.948 22.0543 297.86 22.4703 297.86ZM21.9903 302.036C22.0783 301.972 22.1423 301.792 22.1823 301.496C22.2223 301.192 22.2423 300.904 22.2423 300.632C22.2423 300.184 22.1863 299.852 22.0743 299.636C21.9623 299.42 21.7383 299.312 21.4023 299.312C21.1623 299.312 20.9383 299.336 20.7303 299.384V302.048L21.0663 302.084C21.1703 302.092 21.3183 302.096 21.5103 302.096C21.7823 302.096 21.9423 302.076 21.9903 302.036ZM28.4468 303.5L28.2548 302.744C27.8868 303.344 27.3748 303.644 26.7188 303.644C26.1828 303.644 25.7428 303.496 25.3988 303.2C25.0628 302.896 24.8948 302.472 24.8948 301.928C24.8948 301.592 24.9908 301.3 25.1828 301.052C25.3828 300.796 25.6548 300.616 25.9988 300.512C26.4468 300.384 27.1388 300.312 28.0748 300.296C28.0748 299.768 28.0508 299.488 28.0028 299.456C27.9628 299.424 27.8348 299.408 27.6188 299.408C27.4828 299.408 27.2948 299.416 27.0548 299.432C26.6708 299.448 26.1508 299.492 25.4948 299.564C25.4308 299.132 25.3828 298.668 25.3508 298.172C25.7748 298.084 26.2188 298.012 26.6828 297.956C27.1468 297.892 27.5628 297.86 27.9308 297.86C28.5708 297.86 29.0508 297.968 29.3708 298.184C29.6908 298.392 29.8988 298.668 29.9948 299.012C30.0908 299.356 30.1348 299.792 30.1268 300.32L30.1148 302.084L30.1508 303.5H28.4468ZM27.4148 302.3C27.6228 302.3 27.8428 302.26 28.0748 302.18V301.292H27.9788C27.3868 301.292 27.0588 301.324 26.9948 301.388C26.9548 301.428 26.9228 301.488 26.8988 301.568C26.8828 301.648 26.8748 301.724 26.8748 301.796C26.8748 301.988 26.9188 302.12 27.0068 302.192C27.0948 302.264 27.2308 302.3 27.4148 302.3ZM35.5173 301.628C35.5173 302.34 35.2893 302.852 34.8333 303.164C34.3853 303.476 33.7453 303.632 32.9133 303.632C32.3293 303.632 31.6573 303.548 30.8973 303.38C30.9133 303.22 30.9493 302.992 31.0053 302.696C31.0693 302.392 31.1213 302.16 31.1613 302C31.4493 302.048 31.7693 302.088 32.1213 302.12C32.4733 302.144 32.7733 302.156 33.0213 302.156C33.2373 302.156 33.3693 302.144 33.4173 302.12C33.4253 302.112 33.4333 302.092 33.4413 302.06C33.4573 302.02 33.4653 301.98 33.4653 301.94C33.4653 301.78 33.3653 301.672 33.1653 301.616C33.1013 301.6 32.8573 301.532 32.4333 301.412C32.0093 301.292 31.6613 301.076 31.3893 300.764C31.1253 300.444 30.9933 300.048 30.9933 299.576C30.9933 299.328 31.0493 299.052 31.1613 298.748C31.2733 298.444 31.3933 298.252 31.5213 298.172C31.6173 298.108 31.8493 298.044 32.2173 297.98C32.5853 297.908 32.9253 297.872 33.2373 297.872C33.9013 297.872 34.5693 297.92 35.2413 298.016C35.2413 298.16 35.2213 298.404 35.1813 298.748C35.1413 299.084 35.1053 299.296 35.0733 299.384C34.3933 299.296 33.8453 299.252 33.4293 299.252C33.2133 299.252 33.0733 299.264 33.0093 299.288C32.9933 299.296 32.9773 299.32 32.9613 299.36C32.9453 299.392 32.9373 299.436 32.9373 299.492C32.9373 299.604 32.9733 299.684 33.0453 299.732C33.1173 299.788 33.3053 299.856 33.6093 299.936C33.9693 300.04 34.2773 300.148 34.5333 300.26C34.7973 300.372 35.0253 300.54 35.2173 300.764C35.4173 300.988 35.5173 301.276 35.5173 301.628ZM40.6619 301.628C40.6619 302.34 40.4339 302.852 39.9779 303.164C39.5299 303.476 38.8899 303.632 38.0579 303.632C37.4739 303.632 36.8019 303.548 36.0419 303.38C36.0579 303.22 36.0939 302.992 36.1499 302.696C36.2139 302.392 36.2659 302.16 36.3059 302C36.5939 302.048 36.9139 302.088 37.2659 302.12C37.6179 302.144 37.9179 302.156 38.1659 302.156C38.3819 302.156 38.5139 302.144 38.5619 302.12C38.5699 302.112 38.5779 302.092 38.5859 302.06C38.6019 302.02 38.6099 301.98 38.6099 301.94C38.6099 301.78 38.5099 301.672 38.3099 301.616C38.2459 301.6 38.0019 301.532 37.5779 301.412C37.1539 301.292 36.8059 301.076 36.5339 300.764C36.2699 300.444 36.1379 300.048 36.1379 299.576C36.1379 299.328 36.1939 299.052 36.3059 298.748C36.4179 298.444 36.5379 298.252 36.6659 298.172C36.7619 298.108 36.9939 298.044 37.3619 297.98C37.7299 297.908 38.0699 297.872 38.3819 297.872C39.0459 297.872 39.7139 297.92 40.3859 298.016C40.3859 298.16 40.3659 298.404 40.3259 298.748C40.2859 299.084 40.2499 299.296 40.2179 299.384C39.5379 299.296 38.9899 299.252 38.5739 299.252C38.3579 299.252 38.2179 299.264 38.1539 299.288C38.1379 299.296 38.1219 299.32 38.1059 299.36C38.0899 299.392 38.0819 299.436 38.0819 299.492C38.0819 299.604 38.1179 299.684 38.1899 299.732C38.2619 299.788 38.4499 299.856 38.7539 299.936C39.1139 300.04 39.4219 300.148 39.6779 300.26C39.9419 300.372 40.1699 300.54 40.3619 300.764C40.5619 300.988 40.6619 301.276 40.6619 301.628Z" fill="#A8DADC"/>
<rect x="43" y="287" width="65" height="28" rx="14" fill="#36617C"/>
<rect x="13" y="77" width="30" height="66.1696" rx="15" fill="#36617C"/>
<path d="M18.9286 69.7586C18.9286 69.9026 18.9326 70.0546 18.9406 70.2146C18.9486 70.3666 18.9726 70.4626 19.0126 70.5026C19.0686 70.5586 19.2646 70.5866 19.6006 70.5866L20.0086 70.5746C20.0806 70.9586 20.1166 71.4026 20.1166 71.9066C19.9646 71.9626 19.7406 72.0146 19.4446 72.0626C19.1566 72.1106 18.8806 72.1346 18.6166 72.1346C18.0646 72.1346 17.6366 72.0146 17.3326 71.7746C17.0366 71.5266 16.8886 71.1466 16.8886 70.6346V67.6826H15.9886V66.5906L16.8886 66.5066L17.4286 65.1866L18.9286 65.1026V66.5066H20.2006V67.6826H18.9286V69.7586ZM21.8823 65.8226C21.6103 65.8226 21.3743 65.7306 21.1743 65.5466C20.9823 65.3626 20.8863 65.1426 20.8863 64.8866C20.8863 64.6306 20.9823 64.4106 21.1743 64.2266C21.3743 64.0426 21.6103 63.9506 21.8823 63.9506C22.1543 63.9506 22.3863 64.0426 22.5783 64.2266C22.7703 64.4106 22.8663 64.6306 22.8663 64.8866C22.8663 65.1426 22.7703 65.3626 22.5783 65.5466C22.3863 65.7306 22.1543 65.8226 21.8823 65.8226ZM20.8503 66.5066H22.9023V72.0266H20.8503V66.5066ZM32.5477 66.8906C32.6757 67.0826 32.7397 67.8266 32.7397 69.1226V72.0266H30.6877V69.3266V68.6786C30.6877 68.3826 30.6597 68.2066 30.6037 68.1506C30.5397 68.0866 30.4037 68.0546 30.1957 68.0546L30.0517 68.0666C29.8037 68.0826 29.5677 68.1386 29.3437 68.2346C29.3517 68.4026 29.3557 68.6986 29.3557 69.1226V72.0266H27.3037V69.3266V68.6066C27.3037 68.3586 27.2757 68.2066 27.2197 68.1506C27.1557 68.0866 27.0197 68.0546 26.8117 68.0546L26.6677 68.0666C26.4437 68.0746 26.2117 68.1266 25.9717 68.2226V72.0266H23.9197V66.5066H25.5877L25.8037 67.4066C26.0677 67.0546 26.3717 66.7986 26.7157 66.6386C27.0597 66.4706 27.4077 66.3866 27.7597 66.3866C28.0557 66.3866 28.3357 66.4306 28.5997 66.5186C28.8717 66.6066 29.0597 66.7306 29.1637 66.8906C29.2117 66.9626 29.2517 67.0946 29.2837 67.2866C29.5397 66.9746 29.8317 66.7466 30.1597 66.6026C30.4877 66.4586 30.8157 66.3866 31.1437 66.3866C31.4397 66.3866 31.7197 66.4306 31.9837 66.5186C32.2557 66.6066 32.4437 66.7306 32.5477 66.8906ZM37.0412 70.5866C37.2412 70.5866 37.6132 70.5666 38.1572 70.5266C38.2292 70.5266 38.3612 70.5186 38.5532 70.5026L38.7332 71.7386C38.1172 72.0266 37.3172 72.1706 36.3332 72.1706C35.4132 72.1706 34.7052 71.9386 34.2092 71.4746C33.7212 71.0106 33.4772 70.3106 33.4772 69.3746C33.4772 68.8946 33.5372 68.4306 33.6572 67.9826C33.7852 67.5346 33.9292 67.2226 34.0892 67.0466C34.2572 66.8706 34.5692 66.7186 35.0252 66.5906C35.4812 66.4626 35.9332 66.3986 36.3812 66.3986C37.1012 66.3986 37.6412 66.5266 38.0012 66.7826C38.3612 67.0386 38.5972 67.3946 38.7092 67.8506C38.8212 68.2986 38.8772 68.9026 38.8772 69.6626C38.3332 69.6946 37.8012 69.7106 37.2812 69.7106H35.5772C35.5772 69.9666 35.6292 70.1586 35.7332 70.2866C35.8452 70.4146 36.0012 70.4986 36.2012 70.5386C36.4012 70.5706 36.6812 70.5866 37.0412 70.5866ZM35.6972 67.8266C35.6492 67.8506 35.6132 67.9546 35.5892 68.1386C35.5652 68.3226 35.5492 68.5306 35.5412 68.7626H36.1652C36.5412 68.7626 36.8132 68.7586 36.9812 68.7506C36.9812 68.3666 36.9252 68.0946 36.8132 67.9346C36.7092 67.7746 36.5252 67.6946 36.2612 67.6946C36.0452 67.6946 35.8572 67.7386 35.6972 67.8266Z" fill="#A8DADC"/>
<rect x="77" y="77" width="30" height="66.1696" rx="15" fill="#36617C"/>
<path d="M71.8053 65.8826C71.7493 65.9386 71.7213 66.1106 71.7213 66.3986V66.5066H72.9933V67.6826H71.7213V72.0266H69.6693V67.6826H68.7693V66.6146L69.6693 66.5066V66.3266C69.6693 65.9746 69.7173 65.6386 69.8133 65.3186C69.9093 64.9986 69.9973 64.8066 70.0773 64.7426C70.3253 64.5346 70.8533 64.4306 71.6613 64.4306C72.1013 64.4306 72.5933 64.4626 73.1373 64.5266C73.1373 64.6226 73.1213 64.8146 73.0893 65.1026C73.0653 65.3906 73.0413 65.6346 73.0173 65.8346L72.5013 65.8226C72.0773 65.8226 71.8453 65.8426 71.8053 65.8826ZM76.8615 70.5866C77.0615 70.5866 77.4335 70.5666 77.9775 70.5266C78.0495 70.5266 78.1815 70.5186 78.3735 70.5026L78.5535 71.7386C77.9375 72.0266 77.1375 72.1706 76.1535 72.1706C75.2335 72.1706 74.5255 71.9386 74.0295 71.4746C73.5415 71.0106 73.2975 70.3106 73.2975 69.3746C73.2975 68.8946 73.3575 68.4306 73.4775 67.9826C73.6055 67.5346 73.7495 67.2226 73.9095 67.0466C74.0775 66.8706 74.3895 66.7186 74.8455 66.5906C75.3015 66.4626 75.7535 66.3986 76.2015 66.3986C76.9215 66.3986 77.4615 66.5266 77.8215 66.7826C78.1815 67.0386 78.4175 67.3946 78.5295 67.8506C78.6415 68.2986 78.6975 68.9026 78.6975 69.6626C78.1535 69.6946 77.6215 69.7106 77.1015 69.7106H75.3975C75.3975 69.9666 75.4495 70.1586 75.5535 70.2866C75.6655 70.4146 75.8215 70.4986 76.0215 70.5386C76.2215 70.5706 76.5015 70.5866 76.8615 70.5866ZM75.5175 67.8266C75.4695 67.8506 75.4335 67.9546 75.4095 68.1386C75.3855 68.3226 75.3695 68.5306 75.3615 68.7626H75.9855C76.3615 68.7626 76.6335 68.7586 76.8015 68.7506C76.8015 68.3666 76.7455 68.0946 76.6335 67.9346C76.5295 67.7746 76.3455 67.6946 76.0815 67.6946C75.8655 67.6946 75.6775 67.7386 75.5175 67.8266ZM82.7677 70.5866C82.9677 70.5866 83.3397 70.5666 83.8837 70.5266C83.9557 70.5266 84.0877 70.5186 84.2797 70.5026L84.4597 71.7386C83.8437 72.0266 83.0437 72.1706 82.0597 72.1706C81.1397 72.1706 80.4317 71.9386 79.9357 71.4746C79.4477 71.0106 79.2037 70.3106 79.2037 69.3746C79.2037 68.8946 79.2637 68.4306 79.3837 67.9826C79.5117 67.5346 79.6557 67.2226 79.8157 67.0466C79.9837 66.8706 80.2957 66.7186 80.7517 66.5906C81.2077 66.4626 81.6597 66.3986 82.1077 66.3986C82.8277 66.3986 83.3677 66.5266 83.7277 66.7826C84.0877 67.0386 84.3237 67.3946 84.4357 67.8506C84.5477 68.2986 84.6037 68.9026 84.6037 69.6626C84.0597 69.6946 83.5277 69.7106 83.0077 69.7106H81.3037C81.3037 69.9666 81.3557 70.1586 81.4597 70.2866C81.5717 70.4146 81.7277 70.4986 81.9277 70.5386C82.1277 70.5706 82.4077 70.5866 82.7677 70.5866ZM81.4237 67.8266C81.3757 67.8506 81.3397 67.9546 81.3157 68.1386C81.2917 68.3226 81.2757 68.5306 81.2677 68.7626H81.8917C82.2677 68.7626 82.5397 68.7586 82.7077 68.7506C82.7077 68.3666 82.6517 68.0946 82.5397 67.9346C82.4357 67.7746 82.2517 67.6946 81.9877 67.6946C81.7717 67.6946 81.5837 67.7386 81.4237 67.8266ZM90.822 64.7426V72.0266H89.13L88.962 71.1026C88.802 71.4146 88.566 71.6626 88.254 71.8466C87.942 72.0306 87.59 72.1226 87.198 72.1226C86.574 72.1226 86.074 71.8986 85.698 71.4506C85.33 71.0026 85.146 70.3306 85.146 69.4346C85.146 68.7546 85.226 68.1946 85.386 67.7546C85.546 67.3146 85.734 66.9986 85.95 66.8066C86.086 66.6866 86.362 66.5866 86.778 66.5066C87.202 66.4266 87.578 66.3866 87.906 66.3866C88.194 66.3866 88.49 66.4146 88.794 66.4706C88.77 66.0866 88.758 65.8746 88.758 65.8346V64.8266L90.822 64.7426ZM88.098 70.5146C88.314 70.5146 88.538 70.4786 88.77 70.4066V67.8026C88.538 67.7706 88.282 67.7546 88.002 67.7546C87.762 67.7546 87.61 67.7746 87.546 67.8146C87.458 67.8786 87.386 68.0626 87.33 68.3666C87.282 68.6626 87.258 68.9746 87.258 69.3026C87.258 69.7906 87.33 70.1146 87.474 70.2746C87.626 70.4346 87.834 70.5146 88.098 70.5146ZM95.5145 66.3866C96.1385 66.3866 96.6185 66.5746 96.9545 66.9506C97.2985 67.3266 97.4705 67.9906 97.4705 68.9426C97.4705 69.6386 97.3985 70.2346 97.2545 70.7306C97.1185 71.2186 96.9625 71.5306 96.7865 71.6666C96.5785 71.8346 96.2705 71.9586 95.8625 72.0386C95.4545 72.1186 94.9905 72.1586 94.4705 72.1586C94.0705 72.1586 93.6225 72.1266 93.1265 72.0626C92.6305 72.0066 92.1865 71.9146 91.7945 71.7866V64.8266L93.8705 64.7426V65.8706C93.8705 65.9346 93.8665 66.0826 93.8585 66.3146C93.8585 66.5466 93.8505 66.7426 93.8345 66.9026C93.8185 67.0546 93.7945 67.1706 93.7625 67.2506L93.8345 67.3346C94.0185 67.0546 94.2505 66.8266 94.5305 66.6506C94.8105 66.4746 95.1385 66.3866 95.5145 66.3866ZM95.1785 70.7186C95.2265 70.6386 95.2665 70.4506 95.2985 70.1546C95.3385 69.8586 95.3585 69.5746 95.3585 69.3026C95.3585 68.9826 95.3425 68.7306 95.3105 68.5466C95.2865 68.3626 95.2185 68.2186 95.1065 68.1146C95.0025 68.0026 94.8385 67.9466 94.6145 67.9466C94.4145 67.9466 94.1585 67.9746 93.8465 68.0306V70.7426C94.1425 70.7906 94.4505 70.8146 94.7705 70.8146C95.0025 70.8146 95.1385 70.7826 95.1785 70.7186ZM101.551 72.0266L101.359 71.2706C100.991 71.8706 100.479 72.1706 99.8235 72.1706C99.2875 72.1706 98.8475 72.0226 98.5035 71.7266C98.1675 71.4226 97.9995 70.9986 97.9995 70.4546C97.9995 70.1186 98.0955 69.8266 98.2875 69.5786C98.4875 69.3226 98.7595 69.1426 99.1035 69.0386C99.5515 68.9106 100.243 68.8386 101.179 68.8226C101.179 68.2946 101.155 68.0146 101.107 67.9826C101.067 67.9506 100.939 67.9346 100.723 67.9346C100.587 67.9346 100.399 67.9426 100.159 67.9586C99.7755 67.9746 99.2555 68.0186 98.5995 68.0906C98.5355 67.6586 98.4875 67.1946 98.4555 66.6986C98.8795 66.6106 99.3235 66.5386 99.7875 66.4826C100.251 66.4186 100.667 66.3866 101.035 66.3866C101.675 66.3866 102.155 66.4946 102.475 66.7106C102.795 66.9186 103.003 67.1946 103.099 67.5386C103.195 67.8826 103.239 68.3186 103.231 68.8466L103.219 70.6106L103.255 72.0266H101.551ZM100.519 70.8266C100.727 70.8266 100.947 70.7866 101.179 70.7066V69.8186H101.083C100.491 69.8186 100.163 69.8506 100.099 69.9146C100.059 69.9546 100.027 70.0146 100.003 70.0946C99.9875 70.1746 99.9795 70.2506 99.9795 70.3226C99.9795 70.5146 100.023 70.6466 100.111 70.7186C100.199 70.7906 100.335 70.8266 100.519 70.8266ZM108.802 71.8586C108.154 72.0746 107.43 72.1826 106.63 72.1826C105.734 72.1826 105.062 71.9586 104.614 71.5106C104.174 71.0546 103.954 70.3466 103.954 69.3866C103.954 68.9146 104.018 68.4506 104.146 67.9946C104.274 67.5306 104.41 67.2186 104.554 67.0586C104.722 66.8746 105.05 66.7186 105.538 66.5906C106.034 66.4626 106.546 66.3986 107.074 66.3986C107.626 66.3986 108.182 66.4466 108.742 66.5426C108.726 66.7426 108.698 66.9786 108.658 67.2506C108.626 67.5146 108.59 67.7506 108.55 67.9586C108.054 67.9266 107.586 67.9106 107.146 67.9106C106.714 67.9106 106.438 67.9346 106.318 67.9826C106.254 68.0066 106.194 68.1706 106.138 68.4746C106.09 68.7786 106.066 69.0626 106.066 69.3266C106.066 69.6786 106.114 69.9506 106.21 70.1426C106.314 70.3266 106.474 70.4546 106.69 70.5266C106.906 70.5986 107.198 70.6346 107.566 70.6346C107.726 70.6346 108.078 70.6186 108.622 70.5866L108.802 71.8586ZM115.358 72.0266H113.126L111.986 69.7826C111.874 69.5506 111.726 69.4026 111.542 69.3386V72.0266H109.49V64.8266L111.542 64.7426V68.8346C111.734 68.7546 111.898 68.5906 112.034 68.3426L113.054 66.5066L115.298 66.4946L114.134 68.3666C113.95 68.6626 113.75 68.8986 113.534 69.0746C113.718 69.2746 113.926 69.5786 114.158 69.9866L115.358 72.0266Z" fill="#A8DADC"/>
<rect x="13" y="168" width="30" height="66.1696" rx="15" fill="#36617C"/>
<path d="M19.7805 162.859C19.1325 163.075 18.4085 163.183 17.6085 163.183C16.7125 163.183 16.0405 162.959 15.5925 162.511C15.1525 162.055 14.9325 161.347 14.9325 160.387C14.9325 159.915 14.9965 159.451 15.1245 158.995C15.2525 158.531 15.3885 158.219 15.5325 158.059C15.7005 157.875 16.0285 157.719 16.5165 157.591C17.0125 157.463 17.5245 157.399 18.0525 157.399C18.6045 157.399 19.1605 157.447 19.7205 157.543C19.7045 157.743 19.6765 157.979 19.6365 158.251C19.6045 158.515 19.5685 158.751 19.5285 158.959C19.0325 158.927 18.5645 158.911 18.1245 158.911C17.6925 158.911 17.4165 158.935 17.2965 158.983C17.2325 159.007 17.1725 159.171 17.1165 159.475C17.0685 159.779 17.0445 160.063 17.0445 160.327C17.0445 160.679 17.0925 160.951 17.1885 161.143C17.2925 161.327 17.4525 161.455 17.6685 161.527C17.8845 161.599 18.1765 161.635 18.5445 161.635C18.7045 161.635 19.0565 161.619 19.6005 161.587L19.7805 162.859ZM23.1326 163.183C22.1726 163.183 21.4526 162.959 20.9726 162.511C20.5006 162.055 20.2646 161.339 20.2646 160.363C20.2646 159.827 20.3126 159.359 20.4086 158.959C20.5126 158.551 20.6366 158.267 20.7806 158.107C20.9646 157.899 21.3006 157.727 21.7886 157.591C22.2846 157.455 22.7486 157.387 23.1806 157.387C24.2126 157.387 24.9486 157.607 25.3886 158.047C25.8286 158.487 26.0486 159.191 26.0486 160.159C26.0486 161.199 25.8126 161.963 25.3406 162.451C24.8686 162.939 24.1326 163.183 23.1326 163.183ZM23.1686 161.779C23.4806 161.779 23.6846 161.671 23.7806 161.455C23.8766 161.231 23.9246 160.839 23.9246 160.279C23.9246 159.887 23.9046 159.587 23.8646 159.379C23.8246 159.163 23.7486 159.007 23.6366 158.911C23.5326 158.807 23.3686 158.755 23.1446 158.755C22.8246 158.755 22.6406 158.783 22.5926 158.839C22.5286 158.895 22.4766 159.071 22.4366 159.367C22.3966 159.663 22.3766 159.971 22.3766 160.291C22.3766 160.835 22.4286 161.219 22.5326 161.443C22.6446 161.667 22.8566 161.779 23.1686 161.779ZM26.8678 155.827L28.9198 155.743V163.027H26.8678V155.827ZM32.6013 163.183C31.6413 163.183 30.9213 162.959 30.4413 162.511C29.9693 162.055 29.7333 161.339 29.7333 160.363C29.7333 159.827 29.7813 159.359 29.8773 158.959C29.9813 158.551 30.1053 158.267 30.2493 158.107C30.4333 157.899 30.7693 157.727 31.2573 157.591C31.7533 157.455 32.2173 157.387 32.6493 157.387C33.6813 157.387 34.4173 157.607 34.8573 158.047C35.2973 158.487 35.5173 159.191 35.5173 160.159C35.5173 161.199 35.2813 161.963 34.8093 162.451C34.3373 162.939 33.6013 163.183 32.6013 163.183ZM32.6373 161.779C32.9493 161.779 33.1533 161.671 33.2493 161.455C33.3453 161.231 33.3933 160.839 33.3933 160.279C33.3933 159.887 33.3733 159.587 33.3333 159.379C33.2933 159.163 33.2173 159.007 33.1053 158.911C33.0013 158.807 32.8373 158.755 32.6133 158.755C32.2933 158.755 32.1093 158.783 32.0613 158.839C31.9973 158.895 31.9453 159.071 31.9053 159.367C31.8653 159.663 31.8453 159.971 31.8453 160.291C31.8453 160.835 31.8973 161.219 32.0013 161.443C32.1133 161.667 32.3253 161.779 32.6373 161.779ZM39.7206 157.387C39.8246 157.387 39.9326 157.399 40.0446 157.423C40.1646 157.447 40.2526 157.475 40.3086 157.507C40.3086 157.683 40.2886 157.975 40.2486 158.383C40.2086 158.783 40.1726 159.067 40.1406 159.235C40.0606 159.227 39.9126 159.223 39.6966 159.223C39.1926 159.223 38.7446 159.251 38.3526 159.307V163.027H36.3006V157.507H38.0166L38.2566 158.395H38.2686C38.5006 158.091 38.7486 157.847 39.0126 157.663C39.2766 157.479 39.5126 157.387 39.7206 157.387Z" fill="#A8DADC"/>
<rect x="77" y="168" width="30" height="66.1696" rx="15" fill="#36617C"/>
<path d="M91.5751 157.891C91.7031 158.083 91.7671 158.827 91.7671 160.123V163.027H89.7151V160.327V159.679C89.7151 159.383 89.6871 159.207 89.6311 159.151C89.5671 159.087 89.4311 159.055 89.2231 159.055L89.0791 159.067C88.8311 159.083 88.5951 159.139 88.3711 159.235C88.3791 159.403 88.3831 159.699 88.3831 160.123V163.027H86.3311V160.327V159.607C86.3311 159.359 86.3031 159.207 86.2471 159.151C86.1831 159.087 86.0471 159.055 85.8391 159.055L85.6951 159.067C85.4711 159.075 85.2391 159.127 84.9991 159.223V163.027H82.9471V157.507H84.6151L84.8311 158.407C85.0951 158.055 85.3991 157.799 85.7431 157.639C86.0871 157.471 86.4351 157.387 86.7871 157.387C87.0831 157.387 87.3631 157.431 87.6271 157.519C87.8991 157.607 88.0871 157.731 88.1911 157.891C88.2391 157.963 88.2791 158.095 88.3111 158.287C88.5671 157.975 88.8591 157.747 89.1871 157.603C89.5151 157.459 89.8431 157.387 90.1711 157.387C90.4671 157.387 90.7471 157.431 91.0111 157.519C91.2831 157.607 91.4711 157.731 91.5751 157.891ZM93.7885 156.823C93.5165 156.823 93.2805 156.731 93.0805 156.547C92.8885 156.363 92.7925 156.143 92.7925 155.887C92.7925 155.631 92.8885 155.411 93.0805 155.227C93.2805 155.043 93.5165 154.951 93.7885 154.951C94.0605 154.951 94.2925 155.043 94.4845 155.227C94.6765 155.411 94.7725 155.631 94.7725 155.887C94.7725 156.143 94.6765 156.363 94.4845 156.547C94.2925 156.731 94.0605 156.823 93.7885 156.823ZM92.7565 157.507H94.8085V163.027H92.7565V157.507ZM96.834 160.207L95.454 157.507H97.446L98.442 159.643L99.45 157.507H101.43L100.062 160.207L101.562 163.027H99.558L98.442 160.747L97.326 163.027H95.322L96.834 160.207Z" fill="#A8DADC"/>
</svg>
