<svg width="180" height="380" viewBox="0 0 180 380" fill="none" xmlns="http://www.w3.org/2000/svg">
<path d="M173.25 87C173.25 99.1503 158.475 109 140.25 109C114 109 112.5 100 91.5 100C81.3271 100 75.4666 100 69.75 100C45.9 100 39.259 103.68 27.75 102.5C13.0694 100.739 9 92.1853 9 87C9 82.1367 13.624 73.642 27 72C38.776 70.6104 45.8958 74 69.75 74C74.819 74 80.9696 74 91.5 74C112.5 74 114 65 140.25 65C158.475 65 173.25 74.8497 173.25 87Z" fill="#36617C"/>
<rect width="180" height="380" fill="#457B9D"/>
<g opacity="0.5">
<path fill-rule="evenodd" clip-rule="evenodd" d="M83.958 375.599C83.803 375.747 83.659 375.851 83.526 375.909C83.393 375.968 83.251 375.998 83.1 375.998C82.948 375.998 82.806 375.97 82.673 375.914C82.54 375.858 82.424 375.781 82.325 375.682C82.109 375.466 82 375.209 82 374.912V369.385C82 369.082 82.078 368.847 82.232 368.68C82.498 368.408 82.75 368.272 82.988 368.272C83.226 368.272 83.404 368.296 83.522 368.346C83.639 368.395 83.738 368.457 83.818 368.531C83.924 368.624 84.002 368.723 84.055 368.828C84.108 368.933 84.151 369.011 84.185 369.06C84.219 369.11 84.275 369.134 84.352 369.134C84.429 369.134 84.496 369.11 84.551 369.06L84.709 368.902C85.16 368.482 85.612 368.272 86.063 368.272C86.861 368.272 87.519 368.599 88.039 369.255C88.088 369.323 88.15 369.357 88.224 369.357C88.354 369.357 88.486 369.256 88.619 369.055C88.752 368.854 88.966 368.674 89.263 368.513C89.56 368.352 89.906 368.272 90.302 368.272C90.698 368.272 91.058 368.344 91.383 368.49C91.707 368.635 91.99 368.834 92.231 369.088C92.738 369.62 92.992 370.263 92.992 371.017V374.912C92.992 375.382 92.769 375.713 92.324 375.905C92.188 375.967 92.044 375.998 91.893 375.998C91.741 375.998 91.599 375.97 91.466 375.914C91.333 375.858 91.217 375.781 91.118 375.682C90.908 375.46 90.803 375.203 90.803 374.912V371.045C90.803 370.736 90.726 370.504 90.571 370.349C90.299 370.077 90.049 369.941 89.82 369.941C89.591 369.941 89.412 369.971 89.282 370.029C89.152 370.088 89.034 370.17 88.929 370.275C88.713 370.492 88.605 370.742 88.605 371.026V374.912C88.605 375.382 88.385 375.713 87.946 375.905C87.81 375.967 87.666 375.998 87.515 375.998C87.363 375.998 87.22 375.97 87.083 375.914C86.947 375.858 86.83 375.781 86.731 375.682C86.515 375.466 86.406 375.209 86.406 374.912V371.045C86.406 370.736 86.329 370.504 86.174 370.349C85.902 370.077 85.618 369.941 85.321 369.941C84.826 369.941 84.483 370.133 84.292 370.516C84.23 370.64 84.199 370.779 84.199 370.934V374.912C84.199 375.215 84.118 375.444 83.958 375.599ZM95.219 369.387C95.219 369.084 95.296 368.849 95.451 368.682C95.716 368.41 96.01 368.274 96.332 368.274C96.641 368.274 96.87 368.355 97.018 368.515C97.29 368.794 97.426 369.084 97.426 369.387V374.915C97.426 375.212 97.349 375.437 97.194 375.592C96.922 375.864 96.672 376 96.443 376C96.214 376 96.032 375.971 95.896 375.912C95.76 375.853 95.642 375.777 95.543 375.685C95.327 375.474 95.219 375.218 95.219 374.915V369.387ZM96.327 365.9C96.065 365.9 95.852 365.687 95.852 365.425C95.852 365.162 96.065 364.95 96.327 364.95C96.589 364.95 96.802 365.162 96.802 365.425C96.802 365.687 96.589 365.9 96.327 365.9ZM96.327 364C96.714 364 97.048 364.142 97.329 364.425C97.611 364.709 97.752 364.996 97.752 365.287C97.752 365.577 97.713 365.807 97.635 365.978C97.558 366.148 97.456 366.297 97.329 366.424C97.048 366.708 96.714 366.849 96.327 366.849C95.94 366.849 95.606 366.708 95.324 366.424C95.043 366.141 94.902 365.857 94.902 365.574C94.902 365.092 95.043 364.709 95.324 364.425C95.606 364.142 95.94 364 96.327 364Z" fill="#1D3557"/>
</g>
<path d="M55.2734 16.0254C56.2094 16.0254 56.9734 16.1134 57.5654 16.2894C58.1654 16.4654 58.6294 16.7974 58.9574 17.2854C59.2934 17.7734 59.4614 18.4734 59.4614 19.3854C59.4614 20.3614 59.2854 21.1054 58.9334 21.6174C58.5814 22.1214 58.1094 22.4574 57.5174 22.6254C56.9254 22.7854 56.1774 22.8654 55.2734 22.8654H52.8734V16.0254H55.2734ZM56.8814 21.2334C56.9774 21.1374 57.0454 20.8894 57.0854 20.4894C57.1254 20.0894 57.1454 19.7214 57.1454 19.3854C57.1454 18.9614 57.1134 18.6254 57.0494 18.3774C56.9934 18.1214 56.8894 17.9174 56.7374 17.7654C56.4974 17.5014 56.0854 17.3694 55.5014 17.3694C55.3974 17.3694 55.2414 17.3774 55.0334 17.3934V21.3774C55.1694 21.3934 55.3814 21.4014 55.6694 21.4014C55.9654 21.4014 56.2254 21.3894 56.4494 21.3654C56.6814 21.3334 56.8254 21.2894 56.8814 21.2334ZM60.3603 16.0254H65.3403V17.4654H62.5203V18.7134H64.8963V20.0094H62.5203V21.4014H65.3283V22.8654H60.3603V16.0254ZM66.2323 16.0254H68.3923V21.2814H71.1883V22.8654H66.2323V16.0254ZM75.9233 21.3654H73.9313L73.5713 22.8654H71.3633L73.5713 16.0254H76.3913L78.5033 22.8654H76.2833L75.9233 21.3654ZM74.9153 17.5014L74.2073 20.0334H75.6353L74.9633 17.5014H74.9153ZM82.0011 20.6814V22.8654H79.8411V20.7054L77.5371 16.0254H79.7331L80.6451 18.2454C80.7411 18.4694 80.8291 18.7054 80.9091 18.9534H80.9331C81.0211 18.6814 81.1091 18.4374 81.1971 18.2214L82.0971 16.0254H84.2811L82.0011 20.6814ZM87.5553 15.9894C88.2033 15.9894 88.7513 16.0494 89.1993 16.1694C89.6473 16.2894 90.0033 16.5214 90.2673 16.8654C90.5393 17.2014 90.6753 17.6854 90.6753 18.3174C90.6753 18.5974 90.6313 18.8854 90.5433 19.1814C90.4633 19.4694 90.3593 19.7214 90.2313 19.9374C90.1113 20.1534 90.0033 20.2934 89.9073 20.3574C89.7953 20.4374 89.5473 20.5014 89.1633 20.5494C88.7793 20.5894 88.3273 20.6094 87.8073 20.6094C87.6233 20.6094 87.3393 20.6014 86.9553 20.5854V22.8654H84.7953V16.0254C85.6353 16.0014 86.5553 15.9894 87.5553 15.9894ZM88.4553 19.0734C88.5353 18.9694 88.5753 18.7614 88.5753 18.4494C88.5753 18.0414 88.4873 17.7534 88.3113 17.5854C88.1433 17.4174 87.8473 17.3334 87.4233 17.3334C87.2793 17.3334 87.1233 17.3454 86.9553 17.3694V19.1934C87.0353 19.2014 87.1913 19.2054 87.4233 19.2054C88.0393 19.2054 88.3833 19.1614 88.4553 19.0734ZM91.4158 16.0254H93.5758V21.2814H96.3718V22.8654H91.4158V16.0254ZM103.543 16.0254V19.8534C103.543 20.6454 103.455 21.2654 103.279 21.7134C103.111 22.1534 102.791 22.4774 102.319 22.6854C101.847 22.8934 101.159 22.9974 100.255 22.9974C99.5909 22.9974 99.0309 22.9294 98.5749 22.7934C98.1189 22.6494 97.7549 22.3814 97.4829 21.9894C97.2189 21.5974 97.0869 21.0454 97.0869 20.3334V16.0254H99.2469V19.8774C99.2469 20.3014 99.2669 20.6254 99.3069 20.8494C99.3549 21.0654 99.4589 21.2334 99.6189 21.3534C99.7789 21.4654 100.023 21.5214 100.351 21.5214C100.551 21.5214 100.739 21.5014 100.915 21.4614C101.091 21.4214 101.211 21.3614 101.275 21.2814C101.347 21.1854 101.383 20.8374 101.383 20.2374V16.0254H103.543ZM106.65 17.8734C106.65 18.0414 106.734 18.1734 106.902 18.2694C107.078 18.3654 107.35 18.4694 107.718 18.5814C108.158 18.7254 108.518 18.8654 108.798 19.0014C109.086 19.1374 109.334 19.3494 109.542 19.6374C109.758 19.9254 109.866 20.3014 109.866 20.7654C109.866 22.2534 108.898 22.9974 106.962 22.9974C106.642 22.9974 106.25 22.9694 105.786 22.9134C105.33 22.8574 104.914 22.7854 104.538 22.6974C104.554 22.5294 104.586 22.2854 104.634 21.9654C104.69 21.6374 104.742 21.3934 104.79 21.2334C105.07 21.2734 105.49 21.3214 106.05 21.3774C106.618 21.4334 107.046 21.4614 107.334 21.4614C107.502 21.4614 107.602 21.4494 107.634 21.4254C107.682 21.3934 107.718 21.3414 107.742 21.2694C107.774 21.1894 107.79 21.1214 107.79 21.0654C107.79 20.9054 107.714 20.7854 107.562 20.7054C107.41 20.6174 107.15 20.5134 106.782 20.3934C106.342 20.2574 105.978 20.1174 105.69 19.9734C105.402 19.8294 105.15 19.6054 104.934 19.3014C104.718 18.9974 104.61 18.5974 104.61 18.1014C104.61 17.7494 104.69 17.4054 104.85 17.0694C105.01 16.7254 105.174 16.4934 105.342 16.3734C105.47 16.2854 105.734 16.2014 106.134 16.1214C106.534 16.0414 106.91 16.0014 107.262 16.0014C108.158 16.0014 108.89 16.0854 109.458 16.2534C109.45 16.4134 109.422 16.6334 109.374 16.9134C109.334 17.1934 109.29 17.4494 109.242 17.6814L108.966 17.6694C107.926 17.5974 107.262 17.5614 106.974 17.5614C106.854 17.5614 106.786 17.5654 106.77 17.5734C106.738 17.5894 106.71 17.6254 106.686 17.6814C106.662 17.7374 106.65 17.8014 106.65 17.8734ZM112.471 18.9174H116.071V20.6334H112.471V18.9174ZM119.048 17.8734C119.048 18.0414 119.132 18.1734 119.3 18.2694C119.476 18.3654 119.748 18.4694 120.116 18.5814C120.556 18.7254 120.916 18.8654 121.196 19.0014C121.484 19.1374 121.732 19.3494 121.94 19.6374C122.156 19.9254 122.264 20.3014 122.264 20.7654C122.264 22.2534 121.296 22.9974 119.36 22.9974C119.04 22.9974 118.648 22.9694 118.184 22.9134C117.728 22.8574 117.312 22.7854 116.936 22.6974C116.952 22.5294 116.984 22.2854 117.032 21.9654C117.088 21.6374 117.14 21.3934 117.188 21.2334C117.468 21.2734 117.888 21.3214 118.448 21.3774C119.016 21.4334 119.444 21.4614 119.732 21.4614C119.9 21.4614 120 21.4494 120.032 21.4254C120.08 21.3934 120.116 21.3414 120.14 21.2694C120.172 21.1894 120.188 21.1214 120.188 21.0654C120.188 20.9054 120.112 20.7854 119.96 20.7054C119.808 20.6174 119.548 20.5134 119.18 20.3934C118.74 20.2574 118.376 20.1174 118.088 19.9734C117.8 19.8294 117.548 19.6054 117.332 19.3014C117.116 18.9974 117.008 18.5974 117.008 18.1014C117.008 17.7494 117.088 17.4054 117.248 17.0694C117.408 16.7254 117.572 16.4934 117.74 16.3734C117.868 16.2854 118.132 16.2014 118.532 16.1214C118.932 16.0414 119.308 16.0014 119.66 16.0014C120.556 16.0014 121.288 16.0854 121.856 16.2534C121.848 16.4134 121.82 16.6334 121.772 16.9134C121.732 17.1934 121.688 17.4494 121.64 17.6814L121.364 17.6694C120.324 17.5974 119.66 17.5614 119.372 17.5614C119.252 17.5614 119.184 17.5654 119.168 17.5734C119.136 17.5894 119.108 17.6254 119.084 17.6814C119.06 17.7374 119.048 17.8014 119.048 17.8734ZM126.704 22.8654H124.544V17.5254H122.612V16.0254H128.636V17.5254H126.704V22.8654Z" fill="#A8DADC"/>
<rect x="38.5" y="59.1262" width="6" height="6" rx="1" fill="#A8DADC"/>
<path d="M39.9817 59.8162H41.4217V63.3202H43.2857V64.3762H39.9817V59.8162Z" fill="#457B9D"/>
<rect x="107" y="99.5" width="30" height="66" rx="15" transform="rotate(-90 107 99.5)" fill="#36617C"/>
<rect x="134.5" y="59" width="6" height="6" rx="1" fill="#A8DADC"/>
<path d="M139.732 64.25H138.22L137.948 63.098C137.937 63.0553 137.918 62.9833 137.892 62.882C137.87 62.7753 137.844 62.698 137.812 62.65C137.78 62.5967 137.734 62.562 137.676 62.546C137.526 62.5513 137.308 62.554 137.02 62.554V64.25H135.58V59.73C136.225 59.682 136.828 59.658 137.388 59.658C137.894 59.658 138.305 59.7007 138.62 59.786C138.934 59.866 139.169 60.0073 139.324 60.21C139.484 60.4073 139.564 60.6793 139.564 61.026C139.564 61.3513 139.489 61.6073 139.34 61.794C139.19 61.9753 138.95 62.0847 138.62 62.122V62.17C138.806 62.186 138.961 62.2473 139.084 62.354C139.212 62.4553 139.297 62.586 139.34 62.746L139.732 64.25ZM137.02 61.65C137.068 61.6553 137.161 61.658 137.3 61.658C137.71 61.658 137.95 61.6233 138.02 61.554C138.084 61.49 138.116 61.3407 138.116 61.106C138.116 60.8873 138.057 60.738 137.94 60.658C137.828 60.578 137.641 60.538 137.38 60.538C137.321 60.538 137.201 60.5433 137.02 60.554V61.65Z" fill="#457B9D"/>
<rect x="7" y="30" width="70" height="20" rx="5" fill="#36617C"/>
<rect x="102" y="30" width="70" height="20" rx="5" fill="#36617C"/>
<path d="M91.62 37.364C91.748 37.556 91.812 38.3 91.812 39.596V42.5H89.76V39.8V39.152C89.76 38.856 89.732 38.68 89.676 38.624C89.612 38.56 89.476 38.528 89.268 38.528L89.124 38.54C88.876 38.556 88.64 38.612 88.416 38.708C88.424 38.876 88.428 39.172 88.428 39.596V42.5H86.376V39.8V39.08C86.376 38.832 86.348 38.68 86.292 38.624C86.228 38.56 86.092 38.528 85.884 38.528L85.74 38.54C85.516 38.548 85.284 38.6 85.044 38.696V42.5H82.992V36.98H84.66L84.876 37.88C85.14 37.528 85.444 37.272 85.788 37.112C86.132 36.944 86.48 36.86 86.832 36.86C87.128 36.86 87.408 36.904 87.672 36.992C87.944 37.08 88.132 37.204 88.236 37.364C88.284 37.436 88.324 37.568 88.356 37.76C88.612 37.448 88.904 37.22 89.232 37.076C89.56 36.932 89.888 36.86 90.216 36.86C90.512 36.86 90.792 36.904 91.056 36.992C91.328 37.08 91.516 37.204 91.62 37.364ZM97.2294 40.628C97.2294 41.34 97.0014 41.852 96.5454 42.164C96.0974 42.476 95.4574 42.632 94.6254 42.632C94.0414 42.632 93.3694 42.548 92.6094 42.38C92.6254 42.22 92.6614 41.992 92.7174 41.696C92.7814 41.392 92.8334 41.16 92.8734 41C93.1614 41.048 93.4814 41.088 93.8334 41.12C94.1854 41.144 94.4854 41.156 94.7334 41.156C94.9494 41.156 95.0814 41.144 95.1294 41.12C95.1374 41.112 95.1454 41.092 95.1534 41.06C95.1694 41.02 95.1774 40.98 95.1774 40.94C95.1774 40.78 95.0774 40.672 94.8774 40.616C94.8134 40.6 94.5694 40.532 94.1454 40.412C93.7214 40.292 93.3734 40.076 93.1014 39.764C92.8374 39.444 92.7054 39.048 92.7054 38.576C92.7054 38.328 92.7614 38.052 92.8734 37.748C92.9854 37.444 93.1054 37.252 93.2334 37.172C93.3294 37.108 93.5614 37.044 93.9294 36.98C94.2974 36.908 94.6374 36.872 94.9494 36.872C95.6134 36.872 96.2814 36.92 96.9534 37.016C96.9534 37.16 96.9334 37.404 96.8934 37.748C96.8534 38.084 96.8174 38.296 96.7854 38.384C96.1054 38.296 95.5574 38.252 95.1414 38.252C94.9254 38.252 94.7854 38.264 94.7214 38.288C94.7054 38.296 94.6894 38.32 94.6734 38.36C94.6574 38.392 94.6494 38.436 94.6494 38.492C94.6494 38.604 94.6854 38.684 94.7574 38.732C94.8294 38.788 95.0174 38.856 95.3214 38.936C95.6814 39.04 95.9894 39.148 96.2454 39.26C96.5094 39.372 96.7374 39.54 96.9294 39.764C97.1294 39.988 97.2294 40.276 97.2294 40.628Z" fill="#A8DADC"/>
<rect x="7" y="99.5" width="30" height="66" rx="15" transform="rotate(-90 7 99.5)" fill="#36617C"/>
<path d="M81.4286 62.232C81.4286 62.376 81.4326 62.528 81.4406 62.688C81.4486 62.84 81.4726 62.936 81.5126 62.976C81.5686 63.032 81.7646 63.06 82.1006 63.06L82.5086 63.048C82.5806 63.432 82.6166 63.876 82.6166 64.38C82.4646 64.436 82.2406 64.488 81.9446 64.536C81.6566 64.584 81.3806 64.608 81.1166 64.608C80.5646 64.608 80.1366 64.488 79.8326 64.248C79.5366 64 79.3886 63.62 79.3886 63.108V60.156H78.4886V59.064L79.3886 58.98L79.9286 57.66L81.4286 57.576V58.98H82.7006V60.156H81.4286V62.232ZM84.3823 58.296C84.1103 58.296 83.8743 58.204 83.6743 58.02C83.4823 57.836 83.3863 57.616 83.3863 57.36C83.3863 57.104 83.4823 56.884 83.6743 56.7C83.8743 56.516 84.1103 56.424 84.3823 56.424C84.6543 56.424 84.8863 56.516 85.0783 56.7C85.2703 56.884 85.3663 57.104 85.3663 57.36C85.3663 57.616 85.2703 57.836 85.0783 58.02C84.8863 58.204 84.6543 58.296 84.3823 58.296ZM83.3503 58.98H85.4023V64.5H83.3503V58.98ZM95.0477 59.364C95.1757 59.556 95.2397 60.3 95.2397 61.596V64.5H93.1877V61.8V61.152C93.1877 60.856 93.1597 60.68 93.1037 60.624C93.0397 60.56 92.9037 60.528 92.6957 60.528L92.5517 60.54C92.3037 60.556 92.0677 60.612 91.8437 60.708C91.8517 60.876 91.8557 61.172 91.8557 61.596V64.5H89.8037V61.8V61.08C89.8037 60.832 89.7757 60.68 89.7197 60.624C89.6557 60.56 89.5197 60.528 89.3117 60.528L89.1677 60.54C88.9437 60.548 88.7117 60.6 88.4717 60.696V64.5H86.4197V58.98H88.0877L88.3037 59.88C88.5677 59.528 88.8717 59.272 89.2157 59.112C89.5597 58.944 89.9077 58.86 90.2597 58.86C90.5557 58.86 90.8357 58.904 91.0997 58.992C91.3717 59.08 91.5597 59.204 91.6637 59.364C91.7117 59.436 91.7517 59.568 91.7837 59.76C92.0397 59.448 92.3317 59.22 92.6597 59.076C92.9877 58.932 93.3157 58.86 93.6437 58.86C93.9397 58.86 94.2197 58.904 94.4837 58.992C94.7557 59.08 94.9437 59.204 95.0477 59.364ZM99.5412 63.06C99.7412 63.06 100.113 63.04 100.657 63C100.729 63 100.861 62.992 101.053 62.976L101.233 64.212C100.617 64.5 99.8172 64.644 98.8332 64.644C97.9132 64.644 97.2052 64.412 96.7092 63.948C96.2212 63.484 95.9772 62.784 95.9772 61.848C95.9772 61.368 96.0372 60.904 96.1572 60.456C96.2852 60.008 96.4292 59.696 96.5892 59.52C96.7572 59.344 97.0692 59.192 97.5252 59.064C97.9812 58.936 98.4332 58.872 98.8812 58.872C99.6012 58.872 100.141 59 100.501 59.256C100.861 59.512 101.097 59.868 101.209 60.324C101.321 60.772 101.377 61.376 101.377 62.136C100.833 62.168 100.301 62.184 99.7812 62.184H98.0772C98.0772 62.44 98.1292 62.632 98.2332 62.76C98.3452 62.888 98.5012 62.972 98.7012 63.012C98.9012 63.044 99.1812 63.06 99.5412 63.06ZM98.1972 60.3C98.1492 60.324 98.1132 60.428 98.0892 60.612C98.0652 60.796 98.0492 61.004 98.0412 61.236H98.6652C99.0412 61.236 99.3132 61.232 99.4812 61.224C99.4812 60.84 99.4252 60.568 99.3132 60.408C99.2092 60.248 99.0252 60.168 98.7612 60.168C98.5452 60.168 98.3572 60.212 98.1972 60.3Z" fill="#A8DADC"/>
<rect x="7" y="151.5" width="30" height="66" rx="15" transform="rotate(-90 7 151.5)" fill="#36617C"/>
<path d="M69.8053 108.356C69.7493 108.412 69.7213 108.584 69.7213 108.872V108.98H70.9933V110.156H69.7213V114.5H67.6693V110.156H66.7693V109.088L67.6693 108.98V108.8C67.6693 108.448 67.7173 108.112 67.8133 107.792C67.9093 107.472 67.9973 107.28 68.0773 107.216C68.3253 107.008 68.8533 106.904 69.6613 106.904C70.1013 106.904 70.5933 106.936 71.1373 107C71.1373 107.096 71.1213 107.288 71.0893 107.576C71.0653 107.864 71.0413 108.108 71.0173 108.308L70.5013 108.296C70.0773 108.296 69.8453 108.316 69.8053 108.356ZM74.8615 113.06C75.0615 113.06 75.4335 113.04 75.9775 113C76.0495 113 76.1815 112.992 76.3735 112.976L76.5535 114.212C75.9375 114.5 75.1375 114.644 74.1535 114.644C73.2335 114.644 72.5255 114.412 72.0295 113.948C71.5415 113.484 71.2975 112.784 71.2975 111.848C71.2975 111.368 71.3575 110.904 71.4775 110.456C71.6055 110.008 71.7495 109.696 71.9095 109.52C72.0775 109.344 72.3895 109.192 72.8455 109.064C73.3015 108.936 73.7535 108.872 74.2015 108.872C74.9215 108.872 75.4615 109 75.8215 109.256C76.1815 109.512 76.4175 109.868 76.5295 110.324C76.6415 110.772 76.6975 111.376 76.6975 112.136C76.1535 112.168 75.6215 112.184 75.1015 112.184H73.3975C73.3975 112.44 73.4495 112.632 73.5535 112.76C73.6655 112.888 73.8215 112.972 74.0215 113.012C74.2215 113.044 74.5015 113.06 74.8615 113.06ZM73.5175 110.3C73.4695 110.324 73.4335 110.428 73.4095 110.612C73.3855 110.796 73.3695 111.004 73.3615 111.236H73.9855C74.3615 111.236 74.6335 111.232 74.8015 111.224C74.8015 110.84 74.7455 110.568 74.6335 110.408C74.5295 110.248 74.3455 110.168 74.0815 110.168C73.8655 110.168 73.6775 110.212 73.5175 110.3ZM80.7677 113.06C80.9677 113.06 81.3397 113.04 81.8837 113C81.9557 113 82.0877 112.992 82.2797 112.976L82.4597 114.212C81.8437 114.5 81.0437 114.644 80.0597 114.644C79.1397 114.644 78.4317 114.412 77.9357 113.948C77.4477 113.484 77.2037 112.784 77.2037 111.848C77.2037 111.368 77.2637 110.904 77.3837 110.456C77.5117 110.008 77.6557 109.696 77.8157 109.52C77.9837 109.344 78.2957 109.192 78.7517 109.064C79.2077 108.936 79.6597 108.872 80.1077 108.872C80.8277 108.872 81.3677 109 81.7277 109.256C82.0877 109.512 82.3237 109.868 82.4357 110.324C82.5477 110.772 82.6037 111.376 82.6037 112.136C82.0597 112.168 81.5277 112.184 81.0077 112.184H79.3037C79.3037 112.44 79.3557 112.632 79.4597 112.76C79.5717 112.888 79.7277 112.972 79.9277 113.012C80.1277 113.044 80.4077 113.06 80.7677 113.06ZM79.4237 110.3C79.3757 110.324 79.3397 110.428 79.3157 110.612C79.2917 110.796 79.2757 111.004 79.2677 111.236H79.8917C80.2677 111.236 80.5397 111.232 80.7077 111.224C80.7077 110.84 80.6517 110.568 80.5397 110.408C80.4357 110.248 80.2517 110.168 79.9877 110.168C79.7717 110.168 79.5837 110.212 79.4237 110.3ZM88.822 107.216V114.5H87.13L86.962 113.576C86.802 113.888 86.566 114.136 86.254 114.32C85.942 114.504 85.59 114.596 85.198 114.596C84.574 114.596 84.074 114.372 83.698 113.924C83.33 113.476 83.146 112.804 83.146 111.908C83.146 111.228 83.226 110.668 83.386 110.228C83.546 109.788 83.734 109.472 83.95 109.28C84.086 109.16 84.362 109.06 84.778 108.98C85.202 108.9 85.578 108.86 85.906 108.86C86.194 108.86 86.49 108.888 86.794 108.944C86.77 108.56 86.758 108.348 86.758 108.308V107.3L88.822 107.216ZM86.098 112.988C86.314 112.988 86.538 112.952 86.77 112.88V110.276C86.538 110.244 86.282 110.228 86.002 110.228C85.762 110.228 85.61 110.248 85.546 110.288C85.458 110.352 85.386 110.536 85.33 110.84C85.282 111.136 85.258 111.448 85.258 111.776C85.258 112.264 85.33 112.588 85.474 112.748C85.626 112.908 85.834 112.988 86.098 112.988ZM93.5145 108.86C94.1385 108.86 94.6185 109.048 94.9545 109.424C95.2985 109.8 95.4705 110.464 95.4705 111.416C95.4705 112.112 95.3985 112.708 95.2545 113.204C95.1185 113.692 94.9625 114.004 94.7865 114.14C94.5785 114.308 94.2705 114.432 93.8625 114.512C93.4545 114.592 92.9905 114.632 92.4705 114.632C92.0705 114.632 91.6225 114.6 91.1265 114.536C90.6305 114.48 90.1865 114.388 89.7945 114.26V107.3L91.8705 107.216V108.344C91.8705 108.408 91.8665 108.556 91.8585 108.788C91.8585 109.02 91.8505 109.216 91.8345 109.376C91.8185 109.528 91.7945 109.644 91.7625 109.724L91.8345 109.808C92.0185 109.528 92.2505 109.3 92.5305 109.124C92.8105 108.948 93.1385 108.86 93.5145 108.86ZM93.1785 113.192C93.2265 113.112 93.2665 112.924 93.2985 112.628C93.3385 112.332 93.3585 112.048 93.3585 111.776C93.3585 111.456 93.3425 111.204 93.3105 111.02C93.2865 110.836 93.2185 110.692 93.1065 110.588C93.0025 110.476 92.8385 110.42 92.6145 110.42C92.4145 110.42 92.1585 110.448 91.8465 110.504V113.216C92.1425 113.264 92.4505 113.288 92.7705 113.288C93.0025 113.288 93.1385 113.256 93.1785 113.192ZM99.5515 114.5L99.3595 113.744C98.9915 114.344 98.4795 114.644 97.8235 114.644C97.2875 114.644 96.8475 114.496 96.5035 114.2C96.1675 113.896 95.9995 113.472 95.9995 112.928C95.9995 112.592 96.0955 112.3 96.2875 112.052C96.4875 111.796 96.7595 111.616 97.1035 111.512C97.5515 111.384 98.2435 111.312 99.1795 111.296C99.1795 110.768 99.1555 110.488 99.1075 110.456C99.0675 110.424 98.9395 110.408 98.7235 110.408C98.5875 110.408 98.3995 110.416 98.1595 110.432C97.7755 110.448 97.2555 110.492 96.5995 110.564C96.5355 110.132 96.4875 109.668 96.4555 109.172C96.8795 109.084 97.3235 109.012 97.7875 108.956C98.2515 108.892 98.6675 108.86 99.0355 108.86C99.6755 108.86 100.155 108.968 100.475 109.184C100.795 109.392 101.003 109.668 101.099 110.012C101.195 110.356 101.239 110.792 101.231 111.32L101.219 113.084L101.255 114.5H99.5515ZM98.5195 113.3C98.7275 113.3 98.9475 113.26 99.1795 113.18V112.292H99.0835C98.4915 112.292 98.1635 112.324 98.0995 112.388C98.0595 112.428 98.0275 112.488 98.0035 112.568C97.9875 112.648 97.9795 112.724 97.9795 112.796C97.9795 112.988 98.0235 113.12 98.1115 113.192C98.1995 113.264 98.3355 113.3 98.5195 113.3ZM106.802 114.332C106.154 114.548 105.43 114.656 104.63 114.656C103.734 114.656 103.062 114.432 102.614 113.984C102.174 113.528 101.954 112.82 101.954 111.86C101.954 111.388 102.018 110.924 102.146 110.468C102.274 110.004 102.41 109.692 102.554 109.532C102.722 109.348 103.05 109.192 103.538 109.064C104.034 108.936 104.546 108.872 105.074 108.872C105.626 108.872 106.182 108.92 106.742 109.016C106.726 109.216 106.698 109.452 106.658 109.724C106.626 109.988 106.59 110.224 106.55 110.432C106.054 110.4 105.586 110.384 105.146 110.384C104.714 110.384 104.438 110.408 104.318 110.456C104.254 110.48 104.194 110.644 104.138 110.948C104.09 111.252 104.066 111.536 104.066 111.8C104.066 112.152 104.114 112.424 104.21 112.616C104.314 112.8 104.474 112.928 104.69 113C104.906 113.072 105.198 113.108 105.566 113.108C105.726 113.108 106.078 113.092 106.622 113.06L106.802 114.332ZM113.358 114.5H111.126L109.986 112.256C109.874 112.024 109.726 111.876 109.542 111.812V114.5H107.49V107.3L109.542 107.216V111.308C109.734 111.228 109.898 111.064 110.034 110.816L111.054 108.98L113.298 108.968L112.134 110.84C111.95 111.136 111.75 111.372 111.534 111.548C111.718 111.748 111.926 112.052 112.158 112.46L113.358 114.5Z" fill="#A8DADC"/>
<rect x="107" y="151.5" width="30" height="65" rx="15" transform="rotate(-90 107 151.5)" fill="#36617C"/>
<rect x="7" y="201.5" width="30" height="66" rx="15" transform="rotate(-90 7 201.5)" fill="#36617C"/>
<path d="M82.136 164.332C81.488 164.548 80.764 164.656 79.964 164.656C79.068 164.656 78.396 164.432 77.948 163.984C77.508 163.528 77.288 162.82 77.288 161.86C77.288 161.388 77.352 160.924 77.48 160.468C77.608 160.004 77.744 159.692 77.888 159.532C78.056 159.348 78.384 159.192 78.872 159.064C79.368 158.936 79.88 158.872 80.408 158.872C80.96 158.872 81.516 158.92 82.076 159.016C82.06 159.216 82.032 159.452 81.992 159.724C81.96 159.988 81.924 160.224 81.884 160.432C81.388 160.4 80.92 160.384 80.48 160.384C80.048 160.384 79.772 160.408 79.652 160.456C79.588 160.48 79.528 160.644 79.472 160.948C79.424 161.252 79.4 161.536 79.4 161.8C79.4 162.152 79.448 162.424 79.544 162.616C79.648 162.8 79.808 162.928 80.024 163C80.24 163.072 80.532 163.108 80.9 163.108C81.06 163.108 81.412 163.092 81.956 163.06L82.136 164.332ZM85.488 164.656C84.528 164.656 83.808 164.432 83.328 163.984C82.856 163.528 82.62 162.812 82.62 161.836C82.62 161.3 82.668 160.832 82.764 160.432C82.868 160.024 82.992 159.74 83.136 159.58C83.32 159.372 83.656 159.2 84.144 159.064C84.64 158.928 85.104 158.86 85.536 158.86C86.568 158.86 87.304 159.08 87.744 159.52C88.184 159.96 88.404 160.664 88.404 161.632C88.404 162.672 88.168 163.436 87.696 163.924C87.224 164.412 86.488 164.656 85.488 164.656ZM85.524 163.252C85.836 163.252 86.04 163.144 86.136 162.928C86.232 162.704 86.28 162.312 86.28 161.752C86.28 161.36 86.26 161.06 86.22 160.852C86.18 160.636 86.104 160.48 85.992 160.384C85.888 160.28 85.724 160.228 85.5 160.228C85.18 160.228 84.996 160.256 84.948 160.312C84.884 160.368 84.832 160.544 84.792 160.84C84.752 161.136 84.732 161.444 84.732 161.764C84.732 162.308 84.784 162.692 84.888 162.916C85 163.14 85.212 163.252 85.524 163.252ZM89.2233 157.3L91.2753 157.216V164.5H89.2233V157.3ZM94.9568 164.656C93.9968 164.656 93.2768 164.432 92.7968 163.984C92.3248 163.528 92.0888 162.812 92.0888 161.836C92.0888 161.3 92.1368 160.832 92.2328 160.432C92.3368 160.024 92.4608 159.74 92.6048 159.58C92.7888 159.372 93.1248 159.2 93.6128 159.064C94.1088 158.928 94.5728 158.86 95.0048 158.86C96.0368 158.86 96.7728 159.08 97.2128 159.52C97.6528 159.96 97.8728 160.664 97.8728 161.632C97.8728 162.672 97.6368 163.436 97.1648 163.924C96.6928 164.412 95.9568 164.656 94.9568 164.656ZM94.9928 163.252C95.3048 163.252 95.5088 163.144 95.6048 162.928C95.7008 162.704 95.7488 162.312 95.7488 161.752C95.7488 161.36 95.7288 161.06 95.6888 160.852C95.6488 160.636 95.5728 160.48 95.4608 160.384C95.3568 160.28 95.1928 160.228 94.9688 160.228C94.6488 160.228 94.4648 160.256 94.4168 160.312C94.3528 160.368 94.3008 160.544 94.2608 160.84C94.2208 161.136 94.2008 161.444 94.2008 161.764C94.2008 162.308 94.2528 162.692 94.3568 162.916C94.4688 163.14 94.6808 163.252 94.9928 163.252ZM102.076 158.86C102.18 158.86 102.288 158.872 102.4 158.896C102.52 158.92 102.608 158.948 102.664 158.98C102.664 159.156 102.644 159.448 102.604 159.856C102.564 160.256 102.528 160.54 102.496 160.708C102.416 160.7 102.268 160.696 102.052 160.696C101.548 160.696 101.1 160.724 100.708 160.78V164.5H98.6561V158.98H100.372L100.612 159.868H100.624C100.856 159.564 101.104 159.32 101.368 159.136C101.632 158.952 101.868 158.86 102.076 158.86Z" fill="#A8DADC"/>
<rect x="107" y="201.5" width="30" height="66" rx="15" transform="rotate(-90 107 201.5)" fill="#36617C"/>
<rect x="107" y="297" width="30" height="66" rx="15" transform="rotate(-90 107 297)" fill="#36617C"/>
<path d="M139.12 258.864C139.248 259.056 139.312 259.8 139.312 261.096V264H137.26V261.3V260.652C137.26 260.356 137.232 260.18 137.176 260.124C137.112 260.06 136.976 260.028 136.768 260.028L136.624 260.04C136.376 260.056 136.14 260.112 135.916 260.208C135.924 260.376 135.928 260.672 135.928 261.096V264H133.876V261.3V260.58C133.876 260.332 133.848 260.18 133.792 260.124C133.728 260.06 133.592 260.028 133.384 260.028L133.24 260.04C133.016 260.048 132.784 260.1 132.544 260.196V264H130.492V258.48H132.16L132.376 259.38C132.64 259.028 132.944 258.772 133.288 258.612C133.632 258.444 133.98 258.36 134.332 258.36C134.628 258.36 134.908 258.404 135.172 258.492C135.444 258.58 135.632 258.704 135.736 258.864C135.784 258.936 135.824 259.068 135.856 259.26C136.112 258.948 136.404 258.72 136.732 258.576C137.06 258.432 137.388 258.36 137.716 258.36C138.012 258.36 138.292 258.404 138.556 258.492C138.828 258.58 139.016 258.704 139.12 258.864ZM141.333 257.796C141.061 257.796 140.825 257.704 140.625 257.52C140.433 257.336 140.337 257.116 140.337 256.86C140.337 256.604 140.433 256.384 140.625 256.2C140.825 256.016 141.061 255.924 141.333 255.924C141.605 255.924 141.837 256.016 142.029 256.2C142.221 256.384 142.317 256.604 142.317 256.86C142.317 257.116 142.221 257.336 142.029 257.52C141.837 257.704 141.605 257.796 141.333 257.796ZM140.301 258.48H142.353V264H140.301V258.48ZM144.379 261.18L142.999 258.48H144.991L145.987 260.616L146.995 258.48H148.975L147.607 261.18L149.107 264H147.103L145.987 261.72L144.871 264H142.867L144.379 261.18Z" fill="#A8DADC"/>
<path d="M116.508 334.656C115.548 334.656 114.828 334.432 114.348 333.984C113.876 333.528 113.64 332.812 113.64 331.836C113.64 331.3 113.688 330.832 113.784 330.432C113.888 330.024 114.012 329.74 114.156 329.58C114.34 329.372 114.676 329.2 115.164 329.064C115.66 328.928 116.124 328.86 116.556 328.86C117.588 328.86 118.324 329.08 118.764 329.52C119.204 329.96 119.424 330.664 119.424 331.632C119.424 332.672 119.188 333.436 118.716 333.924C118.244 334.412 117.508 334.656 116.508 334.656ZM116.544 333.252C116.856 333.252 117.06 333.144 117.156 332.928C117.252 332.704 117.3 332.312 117.3 331.752C117.3 331.36 117.28 331.06 117.24 330.852C117.2 330.636 117.124 330.48 117.012 330.384C116.908 330.28 116.744 330.228 116.52 330.228C116.2 330.228 116.016 330.256 115.968 330.312C115.904 330.368 115.852 330.544 115.812 330.84C115.772 331.136 115.752 331.444 115.752 331.764C115.752 332.308 115.804 332.692 115.908 332.916C116.02 333.14 116.232 333.252 116.544 333.252ZM125.727 328.98V334.5H124.059L123.831 333.576C123.255 334.272 122.567 334.62 121.767 334.62C121.479 334.62 121.207 334.58 120.951 334.5C120.703 334.42 120.515 334.304 120.387 334.152C120.315 334.064 120.259 333.844 120.219 333.492C120.187 333.14 120.171 332.604 120.171 331.884V328.98H122.223V331.86C122.223 332.02 122.227 332.208 122.235 332.424C122.243 332.64 122.267 332.776 122.307 332.832C122.363 332.912 122.523 332.952 122.787 332.952L122.979 332.94C123.203 332.932 123.435 332.88 123.675 332.784V328.98H125.727ZM129.255 332.232C129.255 332.376 129.259 332.528 129.267 332.688C129.275 332.84 129.299 332.936 129.339 332.976C129.395 333.032 129.591 333.06 129.927 333.06L130.335 333.048C130.407 333.432 130.443 333.876 130.443 334.38C130.291 334.436 130.067 334.488 129.771 334.536C129.483 334.584 129.207 334.608 128.943 334.608C128.391 334.608 127.963 334.488 127.659 334.248C127.363 334 127.215 333.62 127.215 333.108V330.156H126.315V329.064L127.215 328.98L127.755 327.66L129.255 327.576V328.98H130.527V330.156H129.255V332.232Z" fill="#A8DADC"/>
<rect x="136" y="344" width="6" height="6" rx="1" fill="#A8DADC"/>
<path d="M141.232 349.25H139.72L139.448 348.098C139.437 348.055 139.418 347.983 139.392 347.882C139.37 347.775 139.344 347.698 139.312 347.65C139.28 347.597 139.234 347.562 139.176 347.546C139.026 347.551 138.808 347.554 138.52 347.554V349.25H137.08V344.73C137.725 344.682 138.328 344.658 138.888 344.658C139.394 344.658 139.805 344.701 140.12 344.786C140.434 344.866 140.669 345.007 140.824 345.21C140.984 345.407 141.064 345.679 141.064 346.026C141.064 346.351 140.989 346.607 140.84 346.794C140.69 346.975 140.45 347.085 140.12 347.122V347.17C140.306 347.186 140.461 347.247 140.584 347.354C140.712 347.455 140.797 347.586 140.84 347.746L141.232 349.25ZM138.52 346.65C138.568 346.655 138.661 346.658 138.8 346.658C139.21 346.658 139.45 346.623 139.52 346.554C139.584 346.49 139.616 346.341 139.616 346.106C139.616 345.887 139.557 345.738 139.44 345.658C139.328 345.578 139.141 345.538 138.88 345.538C138.821 345.538 138.701 345.543 138.52 345.554V346.65Z" fill="#457B9D"/>
<rect x="136" y="314" width="6" height="6" rx="1" fill="#A8DADC"/>
<path d="M137.482 314.69H138.922V318.194H140.786V319.25H137.482V314.69Z" fill="#457B9D"/>
<path d="M54.7553 328.296C54.4833 328.296 54.2473 328.204 54.0473 328.02C53.8553 327.836 53.7593 327.616 53.7593 327.36C53.7593 327.104 53.8553 326.884 54.0473 326.7C54.2473 326.516 54.4833 326.424 54.7553 326.424C55.0273 326.424 55.2593 326.516 55.4513 326.7C55.6433 326.884 55.7393 327.104 55.7393 327.36C55.7393 327.616 55.6433 327.836 55.4513 328.02C55.2593 328.204 55.0273 328.296 54.7553 328.296ZM53.7233 328.98H55.7753V334.5H53.7233V328.98ZM62.1328 329.328C62.2048 329.416 62.2568 329.636 62.2888 329.988C62.3288 330.34 62.3488 330.876 62.3488 331.596V334.5H60.2968V331.62V331.128C60.2968 330.872 60.2768 330.712 60.2368 330.648C60.1728 330.568 60.0248 330.528 59.7928 330.528C59.6808 330.528 59.5968 330.532 59.5408 330.54C59.3168 330.548 59.0848 330.6 58.8448 330.696V334.5H56.7928V328.98H58.4608L58.6888 329.904C59.2648 329.208 59.9528 328.86 60.7528 328.86C61.0408 328.86 61.3088 328.9 61.5568 328.98C61.8128 329.06 62.0048 329.176 62.1328 329.328Z" fill="#A8DADC"/>
<rect x="37" y="344" width="6" height="6" rx="1" fill="#A8DADC"/>
<path d="M42.2317 349.25H40.7197L40.4477 348.098C40.437 348.055 40.4184 347.983 40.3917 347.882C40.3704 347.775 40.3437 347.698 40.3117 347.65C40.2797 347.597 40.2344 347.562 40.1757 347.546C40.0264 347.551 39.8077 347.554 39.5197 347.554V349.25H38.0797V344.73C38.725 344.682 39.3277 344.658 39.8877 344.658C40.3944 344.658 40.805 344.701 41.1197 344.786C41.4344 344.866 41.669 345.007 41.8237 345.21C41.9837 345.407 42.0637 345.679 42.0637 346.026C42.0637 346.351 41.989 346.607 41.8397 346.794C41.6904 346.975 41.4504 347.085 41.1197 347.122V347.17C41.3064 347.186 41.461 347.247 41.5837 347.354C41.7117 347.455 41.797 347.586 41.8397 347.746L42.2317 349.25ZM39.5197 346.65C39.5677 346.655 39.661 346.658 39.7997 346.658C40.2104 346.658 40.4504 346.623 40.5197 346.554C40.5837 346.49 40.6157 346.341 40.6157 346.106C40.6157 345.887 40.557 345.738 40.4397 345.658C40.3277 345.578 40.141 345.538 39.8797 345.538C39.821 345.538 39.701 345.543 39.5197 345.554V346.65Z" fill="#457B9D"/>
<rect x="37" y="314" width="6" height="6" rx="1" fill="#A8DADC"/>
<path d="M38.4817 314.69H39.9217V318.194H41.7857V319.25H38.4817V314.69Z" fill="#457B9D"/>
<rect x="8" y="269" width="65" height="28" rx="14" fill="#36617C"/>
<path d="M27.0457 258.36C27.6697 258.36 28.1497 258.548 28.4857 258.924C28.8297 259.3 29.0017 259.964 29.0017 260.916C29.0017 261.612 28.9297 262.208 28.7857 262.704C28.6497 263.192 28.4937 263.504 28.3177 263.64C28.1097 263.808 27.8017 263.932 27.3937 264.012C26.9857 264.092 26.5217 264.132 26.0017 264.132C25.6017 264.132 25.1537 264.1 24.6577 264.036C24.1617 263.98 23.7177 263.888 23.3257 263.76V256.8L25.4017 256.716V257.844C25.4017 257.908 25.3977 258.056 25.3897 258.288C25.3897 258.52 25.3817 258.716 25.3657 258.876C25.3497 259.028 25.3257 259.144 25.2937 259.224L25.3657 259.308C25.5497 259.028 25.7817 258.8 26.0617 258.624C26.3417 258.448 26.6697 258.36 27.0457 258.36ZM26.7097 262.692C26.7577 262.612 26.7977 262.424 26.8297 262.128C26.8697 261.832 26.8897 261.548 26.8897 261.276C26.8897 260.956 26.8737 260.704 26.8417 260.52C26.8177 260.336 26.7497 260.192 26.6377 260.088C26.5337 259.976 26.3697 259.92 26.1457 259.92C25.9457 259.92 25.6897 259.948 25.3777 260.004V262.716C25.6737 262.764 25.9817 262.788 26.3017 262.788C26.5337 262.788 26.6697 262.756 26.7097 262.692ZM35.5067 258.48L34.0667 263.1C33.7867 263.988 33.5347 264.632 33.3107 265.032C33.0867 265.44 32.8627 265.724 32.6387 265.884C32.5107 265.972 32.3067 266.04 32.0267 266.088C31.7547 266.136 31.4587 266.16 31.1387 266.16C30.6587 266.16 30.2747 266.116 29.9867 266.028C29.9787 265.836 29.9867 265.6 30.0107 265.32C30.0347 265.048 30.0667 264.816 30.1067 264.624C30.4427 264.64 30.7707 264.648 31.0907 264.648C31.3307 264.648 31.5107 264.644 31.6307 264.636C31.7507 264.404 31.8627 264.16 31.9667 263.904L31.1387 263.856L29.2907 258.48H31.4627L32.4227 262.344L32.4347 262.572H32.4707L33.3347 258.48H35.5067ZM39.7742 258.36C40.3502 258.36 40.8062 258.552 41.1422 258.936C41.4862 259.312 41.6582 259.972 41.6582 260.916C41.6582 261.62 41.5902 262.196 41.4542 262.644C41.3182 263.084 41.1622 263.376 40.9862 263.52C40.8102 263.664 40.5022 263.78 40.0622 263.868C39.6302 263.956 39.1822 264 38.7182 264C38.5822 264 38.3542 263.992 38.0342 263.976V265.68L35.9822 265.764V258.48H37.6622L37.8662 259.332C38.0742 259.036 38.3382 258.8 38.6582 258.624C38.9862 258.448 39.3582 258.36 39.7742 258.36ZM39.2942 262.536C39.3822 262.472 39.4462 262.292 39.4862 261.996C39.5262 261.692 39.5462 261.404 39.5462 261.132C39.5462 260.684 39.4902 260.352 39.3782 260.136C39.2662 259.92 39.0422 259.812 38.7062 259.812C38.4662 259.812 38.2422 259.836 38.0342 259.884V262.548L38.3702 262.584C38.4742 262.592 38.6222 262.596 38.8142 262.596C39.0862 262.596 39.2462 262.576 39.2942 262.536ZM45.7507 264L45.5587 263.244C45.1907 263.844 44.6787 264.144 44.0227 264.144C43.4867 264.144 43.0467 263.996 42.7027 263.7C42.3667 263.396 42.1987 262.972 42.1987 262.428C42.1987 262.092 42.2947 261.8 42.4867 261.552C42.6867 261.296 42.9587 261.116 43.3027 261.012C43.7507 260.884 44.4427 260.812 45.3787 260.796C45.3787 260.268 45.3547 259.988 45.3067 259.956C45.2667 259.924 45.1387 259.908 44.9227 259.908C44.7867 259.908 44.5987 259.916 44.3587 259.932C43.9747 259.948 43.4547 259.992 42.7987 260.064C42.7347 259.632 42.6867 259.168 42.6547 258.672C43.0787 258.584 43.5227 258.512 43.9867 258.456C44.4507 258.392 44.8667 258.36 45.2347 258.36C45.8747 258.36 46.3547 258.468 46.6747 258.684C46.9947 258.892 47.2027 259.168 47.2987 259.512C47.3947 259.856 47.4387 260.292 47.4307 260.82L47.4187 262.584L47.4547 264H45.7507ZM44.7187 262.8C44.9267 262.8 45.1467 262.76 45.3787 262.68V261.792H45.2827C44.6907 261.792 44.3627 261.824 44.2987 261.888C44.2587 261.928 44.2267 261.988 44.2027 262.068C44.1867 262.148 44.1787 262.224 44.1787 262.296C44.1787 262.488 44.2227 262.62 44.3107 262.692C44.3987 262.764 44.5347 262.8 44.7187 262.8ZM52.8212 262.128C52.8212 262.84 52.5932 263.352 52.1372 263.664C51.6892 263.976 51.0492 264.132 50.2172 264.132C49.6332 264.132 48.9612 264.048 48.2012 263.88C48.2172 263.72 48.2532 263.492 48.3092 263.196C48.3732 262.892 48.4252 262.66 48.4652 262.5C48.7532 262.548 49.0732 262.588 49.4252 262.62C49.7772 262.644 50.0772 262.656 50.3252 262.656C50.5412 262.656 50.6732 262.644 50.7212 262.62C50.7292 262.612 50.7372 262.592 50.7452 262.56C50.7612 262.52 50.7692 262.48 50.7692 262.44C50.7692 262.28 50.6692 262.172 50.4692 262.116C50.4052 262.1 50.1612 262.032 49.7372 261.912C49.3132 261.792 48.9652 261.576 48.6932 261.264C48.4292 260.944 48.2972 260.548 48.2972 260.076C48.2972 259.828 48.3532 259.552 48.4652 259.248C48.5772 258.944 48.6972 258.752 48.8252 258.672C48.9212 258.608 49.1532 258.544 49.5212 258.48C49.8892 258.408 50.2292 258.372 50.5412 258.372C51.2052 258.372 51.8732 258.42 52.5452 258.516C52.5452 258.66 52.5252 258.904 52.4852 259.248C52.4452 259.584 52.4092 259.796 52.3772 259.884C51.6972 259.796 51.1492 259.752 50.7332 259.752C50.5172 259.752 50.3772 259.764 50.3132 259.788C50.2972 259.796 50.2812 259.82 50.2652 259.86C50.2492 259.892 50.2412 259.936 50.2412 259.992C50.2412 260.104 50.2772 260.184 50.3492 260.232C50.4212 260.288 50.6092 260.356 50.9132 260.436C51.2732 260.54 51.5812 260.648 51.8372 260.76C52.1012 260.872 52.3292 261.04 52.5212 261.264C52.7212 261.488 52.8212 261.776 52.8212 262.128ZM57.9658 262.128C57.9658 262.84 57.7378 263.352 57.2818 263.664C56.8338 263.976 56.1938 264.132 55.3618 264.132C54.7778 264.132 54.1058 264.048 53.3458 263.88C53.3618 263.72 53.3978 263.492 53.4538 263.196C53.5178 262.892 53.5698 262.66 53.6098 262.5C53.8978 262.548 54.2178 262.588 54.5698 262.62C54.9218 262.644 55.2218 262.656 55.4698 262.656C55.6858 262.656 55.8178 262.644 55.8658 262.62C55.8738 262.612 55.8818 262.592 55.8898 262.56C55.9058 262.52 55.9138 262.48 55.9138 262.44C55.9138 262.28 55.8138 262.172 55.6138 262.116C55.5498 262.1 55.3058 262.032 54.8818 261.912C54.4578 261.792 54.1098 261.576 53.8378 261.264C53.5738 260.944 53.4418 260.548 53.4418 260.076C53.4418 259.828 53.4978 259.552 53.6098 259.248C53.7218 258.944 53.8418 258.752 53.9698 258.672C54.0658 258.608 54.2978 258.544 54.6658 258.48C55.0338 258.408 55.3738 258.372 55.6858 258.372C56.3498 258.372 57.0178 258.42 57.6898 258.516C57.6898 258.66 57.6698 258.904 57.6298 259.248C57.5898 259.584 57.5538 259.796 57.5218 259.884C56.8418 259.796 56.2938 259.752 55.8778 259.752C55.6618 259.752 55.5218 259.764 55.4578 259.788C55.4418 259.796 55.4258 259.82 55.4098 259.86C55.3938 259.892 55.3858 259.936 55.3858 259.992C55.3858 260.104 55.4218 260.184 55.4938 260.232C55.5658 260.288 55.7538 260.356 56.0578 260.436C56.4178 260.54 56.7258 260.648 56.9818 260.76C57.2458 260.872 57.4738 261.04 57.6658 261.264C57.8658 261.488 57.9658 261.776 57.9658 262.128Z" fill="#A8DADC"/>
<g clip-path="url(#clip0)">
<path d="M90.9999 118.333H91.9999C92.2188 118.333 92.4355 118.376 92.6377 118.46C92.8399 118.544 93.0237 118.667 93.1784 118.821C93.3332 118.976 93.456 119.16 93.5397 119.362C93.6235 119.564 93.6666 119.781 93.6666 120C93.6666 120.219 93.6235 120.436 93.5397 120.638C93.456 120.84 93.3332 121.024 93.1784 121.179C93.0237 121.333 92.8399 121.456 92.6377 121.54C92.4355 121.624 92.2188 121.667 91.9999 121.667H90.9999M88.9999 121.667H87.9999C87.781 121.667 87.5643 121.624 87.3621 121.54C87.1599 121.456 86.9762 121.333 86.8214 121.179C86.5088 120.866 86.3333 120.442 86.3333 120C86.3333 119.558 86.5088 119.134 86.8214 118.821C87.134 118.509 87.5579 118.333 87.9999 118.333H88.9999" stroke="#A8DADC" stroke-linecap="round" stroke-linejoin="round"/>
<path d="M88.6667 120H91.3334" stroke="#A8DADC" stroke-linecap="round" stroke-linejoin="round"/>
</g>
<g clip-path="url(#clip1)">
<path d="M90.9999 168.333H91.9999C92.2188 168.333 92.4355 168.376 92.6377 168.46C92.8399 168.544 93.0237 168.667 93.1784 168.821C93.3332 168.976 93.456 169.16 93.5397 169.362C93.6235 169.564 93.6666 169.781 93.6666 170C93.6666 170.219 93.6235 170.436 93.5397 170.638C93.456 170.84 93.3332 171.024 93.1784 171.179C93.0237 171.333 92.8399 171.456 92.6377 171.54C92.4355 171.624 92.2188 171.667 91.9999 171.667H90.9999M88.9999 171.667H87.9999C87.781 171.667 87.5643 171.624 87.3621 171.54C87.1599 171.456 86.9762 171.333 86.8214 171.179C86.5088 170.866 86.3333 170.442 86.3333 170C86.3333 169.558 86.5088 169.134 86.8214 168.821C87.134 168.509 87.5579 168.333 87.9999 168.333H88.9999" stroke="#A8DADC" stroke-linecap="round" stroke-linejoin="round"/>
<path d="M88.6667 170H91.3334" stroke="#A8DADC" stroke-linecap="round" stroke-linejoin="round"/>
</g>
<path d="M78.0677 237.5H75.4757L74.2517 231.98H76.3517L76.8917 236.084H76.9277L77.5397 231.98H79.7597L80.4077 236.072H80.4557L80.9597 231.98H83.0717L81.8477 237.5H79.2437L78.6677 234.164H78.6317L78.0677 237.5ZM86.9845 236.06C87.1845 236.06 87.5565 236.04 88.1005 236C88.1725 236 88.3045 235.992 88.4965 235.976L88.6765 237.212C88.0605 237.5 87.2605 237.644 86.2765 237.644C85.3565 237.644 84.6485 237.412 84.1525 236.948C83.6645 236.484 83.4205 235.784 83.4205 234.848C83.4205 234.368 83.4805 233.904 83.6005 233.456C83.7285 233.008 83.8725 232.696 84.0325 232.52C84.2005 232.344 84.5125 232.192 84.9685 232.064C85.4245 231.936 85.8765 231.872 86.3245 231.872C87.0445 231.872 87.5845 232 87.9445 232.256C88.3045 232.512 88.5405 232.868 88.6525 233.324C88.7645 233.772 88.8205 234.376 88.8205 235.136C88.2765 235.168 87.7445 235.184 87.2245 235.184H85.5205C85.5205 235.44 85.5725 235.632 85.6765 235.76C85.7885 235.888 85.9445 235.972 86.1445 236.012C86.3445 236.044 86.6245 236.06 86.9845 236.06ZM85.6405 233.3C85.5925 233.324 85.5565 233.428 85.5325 233.612C85.5085 233.796 85.4925 234.004 85.4845 234.236H86.1085C86.4845 234.236 86.7565 234.232 86.9245 234.224C86.9245 233.84 86.8685 233.568 86.7565 233.408C86.6525 233.248 86.4685 233.168 86.2045 233.168C85.9885 233.168 85.8005 233.212 85.6405 233.3ZM92.0868 235.232C92.0868 235.376 92.0908 235.528 92.0988 235.688C92.1068 235.84 92.1308 235.936 92.1708 235.976C92.2268 236.032 92.4228 236.06 92.7588 236.06L93.1668 236.048C93.2388 236.432 93.2748 236.876 93.2748 237.38C93.1228 237.436 92.8988 237.488 92.6028 237.536C92.3148 237.584 92.0388 237.608 91.7748 237.608C91.2228 237.608 90.7948 237.488 90.4908 237.248C90.1948 237 90.0468 236.62 90.0468 236.108V233.156H89.1468V232.064L90.0468 231.98L90.5868 230.66L92.0868 230.576V231.98H93.3588V233.156H92.0868V235.232ZM98.3932 231.356C98.3372 231.412 98.3092 231.584 98.3092 231.872V231.98H99.5812V233.156H98.3092V237.5H96.2572V233.156H95.3572V232.088L96.2572 231.98V231.8C96.2572 231.448 96.3052 231.112 96.4012 230.792C96.4972 230.472 96.5852 230.28 96.6652 230.216C96.9132 230.008 97.4412 229.904 98.2492 229.904C98.6892 229.904 99.1812 229.936 99.7252 230C99.7252 230.096 99.7092 230.288 99.6772 230.576C99.6532 230.864 99.6292 231.108 99.6052 231.308L99.0892 231.296C98.6652 231.296 98.4332 231.316 98.3932 231.356ZM101.109 234.68L99.7294 231.98H101.721L102.717 234.116L103.725 231.98H105.705L104.337 234.68L105.837 237.5H103.833L102.717 235.22L101.601 237.5H99.5974L101.109 234.68Z" fill="#A8DADC"/>
<path d="M18.8915 218.128C18.8915 218.84 18.6635 219.352 18.2075 219.664C17.7595 219.976 17.1195 220.132 16.2875 220.132C15.7035 220.132 15.0315 220.048 14.2715 219.88C14.2875 219.72 14.3235 219.492 14.3795 219.196C14.4435 218.892 14.4955 218.66 14.5355 218.5C14.8235 218.548 15.1435 218.588 15.4955 218.62C15.8475 218.644 16.1475 218.656 16.3955 218.656C16.6115 218.656 16.7435 218.644 16.7915 218.62C16.7995 218.612 16.8075 218.592 16.8155 218.56C16.8315 218.52 16.8395 218.48 16.8395 218.44C16.8395 218.28 16.7395 218.172 16.5395 218.116C16.4755 218.1 16.2315 218.032 15.8075 217.912C15.3835 217.792 15.0355 217.576 14.7635 217.264C14.4995 216.944 14.3675 216.548 14.3675 216.076C14.3675 215.828 14.4235 215.552 14.5355 215.248C14.6475 214.944 14.7675 214.752 14.8955 214.672C14.9915 214.608 15.2235 214.544 15.5915 214.48C15.9595 214.408 16.2995 214.372 16.6115 214.372C17.2755 214.372 17.9435 214.42 18.6155 214.516C18.6155 214.66 18.5955 214.904 18.5555 215.248C18.5155 215.584 18.4795 215.796 18.4475 215.884C17.7675 215.796 17.2195 215.752 16.8035 215.752C16.5875 215.752 16.4475 215.764 16.3835 215.788C16.3675 215.796 16.3515 215.82 16.3355 215.86C16.3195 215.892 16.3115 215.936 16.3115 215.992C16.3115 216.104 16.3475 216.184 16.4195 216.232C16.4915 216.288 16.6795 216.356 16.9835 216.436C17.3435 216.54 17.6515 216.648 17.9075 216.76C18.1715 216.872 18.3995 217.04 18.5915 217.264C18.7915 217.488 18.8915 217.776 18.8915 218.128ZM24.9121 214.828C24.9841 214.916 25.0361 215.136 25.0681 215.488C25.1081 215.84 25.1281 216.376 25.1281 217.096V220H23.0761V217.12V216.628C23.0761 216.372 23.0561 216.212 23.0161 216.148C22.9521 216.068 22.8041 216.028 22.5721 216.028C22.4601 216.028 22.3761 216.032 22.3201 216.04C22.0961 216.048 21.8641 216.1 21.6241 216.196V220H19.5721V214.48H21.2401L21.4681 215.404C22.0441 214.708 22.7321 214.36 23.5321 214.36C23.8201 214.36 24.0881 214.4 24.3361 214.48C24.5921 214.56 24.7841 214.676 24.9121 214.828ZM31.572 212.716V220H29.88L29.712 219.076C29.552 219.388 29.316 219.636 29.004 219.82C28.692 220.004 28.34 220.096 27.948 220.096C27.324 220.096 26.824 219.872 26.448 219.424C26.08 218.976 25.896 218.304 25.896 217.408C25.896 216.728 25.976 216.168 26.136 215.728C26.296 215.288 26.484 214.972 26.7 214.78C26.836 214.66 27.112 214.56 27.528 214.48C27.952 214.4 28.328 214.36 28.656 214.36C28.944 214.36 29.24 214.388 29.544 214.444C29.52 214.06 29.508 213.848 29.508 213.808V212.8L31.572 212.716ZM28.848 218.488C29.064 218.488 29.288 218.452 29.52 218.38V215.776C29.288 215.744 29.032 215.728 28.752 215.728C28.512 215.728 28.36 215.748 28.296 215.788C28.208 215.852 28.136 216.036 28.08 216.34C28.032 216.636 28.008 216.948 28.008 217.276C28.008 217.764 28.08 218.088 28.224 218.248C28.376 218.408 28.584 218.488 28.848 218.488Z" fill="#A8DADC"/>
<path d="M54.1718 214.36C54.2758 214.36 54.3838 214.372 54.4958 214.396C54.6158 214.42 54.7038 214.448 54.7598 214.48C54.7598 214.656 54.7398 214.948 54.6998 215.356C54.6598 215.756 54.6238 216.04 54.5918 216.208C54.5118 216.2 54.3638 216.196 54.1478 216.196C53.6438 216.196 53.1958 216.224 52.8038 216.28V220H50.7518V214.48H52.4678L52.7078 215.368H52.7198C52.9518 215.064 53.1998 214.82 53.4638 214.636C53.7278 214.452 53.9638 214.36 54.1718 214.36ZM57.8426 217.732C57.8426 217.876 57.8466 218.028 57.8546 218.188C57.8626 218.34 57.8866 218.436 57.9266 218.476C57.9826 218.532 58.1786 218.56 58.5146 218.56L58.9226 218.548C58.9946 218.932 59.0306 219.376 59.0306 219.88C58.8786 219.936 58.6546 219.988 58.3586 220.036C58.0706 220.084 57.7946 220.108 57.5306 220.108C56.9786 220.108 56.5506 219.988 56.2466 219.748C55.9506 219.5 55.8026 219.12 55.8026 218.608V215.656H54.9026V214.564L55.8026 214.48L56.3426 213.16L57.8426 213.076V214.48H59.1146V215.656H57.8426V217.732ZM65.0683 214.828C65.1403 214.916 65.1923 215.136 65.2243 215.488C65.2643 215.84 65.2843 216.376 65.2843 217.096V220H63.2323V217.12V216.628C63.2323 216.372 63.2123 216.212 63.1723 216.148C63.1083 216.068 62.9603 216.028 62.7283 216.028C62.6163 216.028 62.5323 216.032 62.4763 216.04C62.2523 216.048 62.0203 216.1 61.7803 216.196V220H59.7283V214.48H61.3963L61.6243 215.404C62.2003 214.708 62.8883 214.36 63.6883 214.36C63.9763 214.36 64.2443 214.4 64.4923 214.48C64.7483 214.56 64.9403 214.676 65.0683 214.828Z" fill="#A8DADC"/>
<path d="M117.892 218.128C117.892 218.84 117.664 219.352 117.208 219.664C116.76 219.976 116.12 220.132 115.288 220.132C114.704 220.132 114.032 220.048 113.272 219.88C113.288 219.72 113.324 219.492 113.38 219.196C113.444 218.892 113.496 218.66 113.536 218.5C113.824 218.548 114.144 218.588 114.496 218.62C114.848 218.644 115.148 218.656 115.396 218.656C115.612 218.656 115.744 218.644 115.792 218.62C115.8 218.612 115.808 218.592 115.816 218.56C115.832 218.52 115.84 218.48 115.84 218.44C115.84 218.28 115.74 218.172 115.54 218.116C115.476 218.1 115.232 218.032 114.808 217.912C114.384 217.792 114.036 217.576 113.764 217.264C113.5 216.944 113.368 216.548 113.368 216.076C113.368 215.828 113.424 215.552 113.536 215.248C113.648 214.944 113.768 214.752 113.896 214.672C113.992 214.608 114.224 214.544 114.592 214.48C114.96 214.408 115.3 214.372 115.612 214.372C116.276 214.372 116.944 214.42 117.616 214.516C117.616 214.66 117.596 214.904 117.556 215.248C117.516 215.584 117.48 215.796 117.448 215.884C116.768 215.796 116.22 215.752 115.804 215.752C115.588 215.752 115.448 215.764 115.384 215.788C115.368 215.796 115.352 215.82 115.336 215.86C115.32 215.892 115.312 215.936 115.312 215.992C115.312 216.104 115.348 216.184 115.42 216.232C115.492 216.288 115.68 216.356 115.984 216.436C116.344 216.54 116.652 216.648 116.908 216.76C117.172 216.872 117.4 217.04 117.592 217.264C117.792 217.488 117.892 217.776 117.892 218.128ZM123.912 214.828C123.984 214.916 124.036 215.136 124.068 215.488C124.108 215.84 124.128 216.376 124.128 217.096V220H122.076V217.12V216.628C122.076 216.372 122.056 216.212 122.016 216.148C121.952 216.068 121.804 216.028 121.572 216.028C121.46 216.028 121.376 216.032 121.32 216.04C121.096 216.048 120.864 216.1 120.624 216.196V220H118.572V214.48H120.24L120.468 215.404C121.044 214.708 121.732 214.36 122.532 214.36C122.82 214.36 123.088 214.4 123.336 214.48C123.592 214.56 123.784 214.676 123.912 214.828ZM130.572 212.716V220H128.88L128.712 219.076C128.552 219.388 128.316 219.636 128.004 219.82C127.692 220.004 127.34 220.096 126.948 220.096C126.324 220.096 125.824 219.872 125.448 219.424C125.08 218.976 124.896 218.304 124.896 217.408C124.896 216.728 124.976 216.168 125.136 215.728C125.296 215.288 125.484 214.972 125.7 214.78C125.836 214.66 126.112 214.56 126.528 214.48C126.952 214.4 127.328 214.36 127.656 214.36C127.944 214.36 128.24 214.388 128.544 214.444C128.52 214.06 128.508 213.848 128.508 213.808V212.8L130.572 212.716ZM127.848 218.488C128.064 218.488 128.288 218.452 128.52 218.38V215.776C128.288 215.744 128.032 215.728 127.752 215.728C127.512 215.728 127.36 215.748 127.296 215.788C127.208 215.852 127.136 216.036 127.08 216.34C127.032 216.636 127.008 216.948 127.008 217.276C127.008 217.764 127.08 218.088 127.224 218.248C127.376 218.408 127.584 218.488 127.848 218.488Z" fill="#A8DADC"/>
<path d="M153.172 214.36C153.276 214.36 153.384 214.372 153.496 214.396C153.616 214.42 153.704 214.448 153.76 214.48C153.76 214.656 153.74 214.948 153.7 215.356C153.66 215.756 153.624 216.04 153.592 216.208C153.512 216.2 153.364 216.196 153.148 216.196C152.644 216.196 152.196 216.224 151.804 216.28V220H149.752V214.48H151.468L151.708 215.368H151.72C151.952 215.064 152.2 214.82 152.464 214.636C152.728 214.452 152.964 214.36 153.172 214.36ZM156.843 217.732C156.843 217.876 156.847 218.028 156.855 218.188C156.863 218.34 156.887 218.436 156.927 218.476C156.983 218.532 157.179 218.56 157.515 218.56L157.923 218.548C157.995 218.932 158.031 219.376 158.031 219.88C157.879 219.936 157.655 219.988 157.359 220.036C157.071 220.084 156.795 220.108 156.531 220.108C155.979 220.108 155.551 219.988 155.247 219.748C154.951 219.5 154.803 219.12 154.803 218.608V215.656H153.903V214.564L154.803 214.48L155.343 213.16L156.843 213.076V214.48H158.115V215.656H156.843V217.732ZM164.068 214.828C164.14 214.916 164.192 215.136 164.224 215.488C164.264 215.84 164.284 216.376 164.284 217.096V220H162.232V217.12V216.628C162.232 216.372 162.212 216.212 162.172 216.148C162.108 216.068 161.96 216.028 161.728 216.028C161.616 216.028 161.532 216.032 161.476 216.04C161.252 216.048 161.02 216.1 160.78 216.196V220H158.728V214.48H160.396L160.624 215.404C161.2 214.708 161.888 214.36 162.688 214.36C162.976 214.36 163.244 214.4 163.492 214.48C163.748 214.56 163.94 214.676 164.068 214.828Z" fill="#A8DADC"/>
<defs>
<clipPath id="clip0">
<rect x="86" y="116" width="8" height="8" fill="white"/>
</clipPath>
<clipPath id="clip1">
<rect x="86" y="166" width="8" height="8" fill="white"/>
</clipPath>
</defs>
</svg>
