<svg width="120" height="380" viewBox="0 0 120 380" fill="none" xmlns="http://www.w3.org/2000/svg">
<path d="M115.5 87C115.5 99.1503 105.65 109 93.5 109C76 109 75 100 61 100C54.2181 100 50.311 100 46.5 100C30.6 100 26.1727 103.68 18.5 102.5C8.71293 100.739 6 92.1853 6 87C6 82.1367 9.08269 73.642 18 72C25.8507 70.6104 30.5972 74 46.5 74C49.8793 74 53.9797 74 61 74C75 74 76 65 93.5 65C105.65 65 115.5 74.8497 115.5 87Z" fill="#36617C"/>
<rect width="120" height="380" fill="#457B9D"/>
<g opacity="0.3">
<path fill-rule="evenodd" clip-rule="evenodd" d="M53.958 375.599C53.803 375.747 53.659 375.851 53.526 375.909C53.393 375.968 53.251 375.998 53.1 375.998C52.948 375.998 52.806 375.97 52.673 375.914C52.54 375.858 52.424 375.781 52.325 375.682C52.109 375.466 52 375.209 52 374.912V369.385C52 369.082 52.078 368.847 52.232 368.68C52.498 368.408 52.75 368.272 52.988 368.272C53.226 368.272 53.404 368.296 53.522 368.346C53.639 368.395 53.738 368.457 53.818 368.531C53.924 368.624 54.002 368.723 54.055 368.828C54.108 368.933 54.151 369.011 54.185 369.06C54.219 369.11 54.275 369.134 54.352 369.134C54.429 369.134 54.496 369.11 54.551 369.06L54.709 368.902C55.16 368.482 55.612 368.272 56.063 368.272C56.861 368.272 57.519 368.599 58.039 369.255C58.088 369.323 58.15 369.357 58.224 369.357C58.354 369.357 58.486 369.256 58.619 369.055C58.752 368.854 58.966 368.674 59.263 368.513C59.56 368.352 59.906 368.272 60.302 368.272C60.698 368.272 61.058 368.344 61.383 368.49C61.707 368.635 61.99 368.834 62.231 369.088C62.738 369.62 62.992 370.263 62.992 371.017V374.912C62.992 375.382 62.769 375.713 62.324 375.905C62.188 375.967 62.044 375.998 61.893 375.998C61.741 375.998 61.599 375.97 61.466 375.914C61.333 375.858 61.217 375.781 61.118 375.682C60.908 375.46 60.803 375.203 60.803 374.912V371.045C60.803 370.736 60.726 370.504 60.571 370.349C60.299 370.077 60.049 369.941 59.82 369.941C59.591 369.941 59.412 369.971 59.282 370.029C59.152 370.088 59.034 370.17 58.929 370.275C58.713 370.492 58.605 370.742 58.605 371.026V374.912C58.605 375.382 58.385 375.713 57.946 375.905C57.81 375.967 57.666 375.998 57.515 375.998C57.363 375.998 57.22 375.97 57.083 375.914C56.947 375.858 56.83 375.781 56.731 375.682C56.515 375.466 56.406 375.209 56.406 374.912V371.045C56.406 370.736 56.329 370.504 56.174 370.349C55.902 370.077 55.618 369.941 55.321 369.941C54.826 369.941 54.483 370.133 54.292 370.516C54.23 370.64 54.199 370.779 54.199 370.934V374.912C54.199 375.215 54.118 375.444 53.958 375.599ZM65.219 369.387C65.219 369.084 65.296 368.849 65.451 368.682C65.716 368.41 66.01 368.274 66.332 368.274C66.641 368.274 66.87 368.355 67.018 368.515C67.29 368.794 67.426 369.084 67.426 369.387V374.915C67.426 375.212 67.349 375.437 67.194 375.592C66.922 375.864 66.672 376 66.443 376C66.214 376 66.032 375.971 65.896 375.912C65.76 375.853 65.642 375.777 65.543 375.685C65.327 375.474 65.219 375.218 65.219 374.915V369.387ZM66.327 365.9C66.065 365.9 65.852 365.687 65.852 365.425C65.852 365.162 66.065 364.95 66.327 364.95C66.589 364.95 66.802 365.162 66.802 365.425C66.802 365.687 66.589 365.9 66.327 365.9ZM66.327 364C66.714 364 67.048 364.142 67.329 364.425C67.611 364.709 67.752 364.996 67.752 365.287C67.752 365.577 67.713 365.807 67.635 365.978C67.558 366.148 67.456 366.297 67.329 366.424C67.048 366.708 66.714 366.849 66.327 366.849C65.94 366.849 65.606 366.708 65.324 366.424C65.043 366.141 64.902 365.857 64.902 365.574C64.902 365.092 65.043 364.709 65.324 364.425C65.606 364.142 65.94 364 66.327 364Z" fill="#1D3557"/>
</g>
<path d="M33.9738 15.5954C34.8318 15.5954 35.5322 15.676 36.0748 15.8374C36.6248 15.9987 37.0502 16.303 37.3508 16.7504C37.6588 17.1977 37.8128 17.8394 37.8128 18.6754C37.8128 19.57 37.6515 20.252 37.3288 20.7214C37.0062 21.1834 36.5735 21.4914 36.0308 21.6454C35.4882 21.792 34.8025 21.8654 33.9738 21.8654H31.7738V15.5954H33.9738ZM35.4478 20.3694C35.5358 20.2814 35.5982 20.054 35.6348 19.6874C35.6715 19.3207 35.6898 18.9834 35.6898 18.6754C35.6898 18.2867 35.6605 17.9787 35.6018 17.7514C35.5505 17.5167 35.4552 17.3297 35.3158 17.1904C35.0958 16.9484 34.7182 16.8274 34.1828 16.8274C34.0875 16.8274 33.9445 16.8347 33.7538 16.8494V20.5014C33.8785 20.516 34.0728 20.5234 34.3368 20.5234C34.6082 20.5234 34.8465 20.5124 35.0518 20.4904C35.2645 20.461 35.3965 20.4207 35.4478 20.3694ZM39.1868 15.5954H43.7518V16.9154H41.1668V18.0594H43.3448V19.2474H41.1668V20.5234H43.7408V21.8654H39.1868V15.5954ZM45.1194 15.5954H47.0994V20.4134H49.6624V21.8654H45.1194V15.5954ZM54.5529 20.4904H52.7269L52.3969 21.8654H50.3729L52.3969 15.5954H54.9819L56.9179 21.8654H54.8829L54.5529 20.4904ZM53.6289 16.9484L52.9799 19.2694H54.2889L53.6729 16.9484H53.6289ZM60.6742 19.8634V21.8654H58.6942V19.8854L56.5822 15.5954H58.5952L59.4312 17.6304C59.5192 17.8357 59.5998 18.052 59.6732 18.2794H59.6952C59.7758 18.03 59.8565 17.8064 59.9372 17.6084L60.7622 15.5954H62.7642L60.6742 19.8634ZM66.3155 15.5624C66.9095 15.5624 67.4119 15.6174 67.8225 15.7274C68.2332 15.8374 68.5595 16.05 68.8015 16.3654C69.0509 16.6734 69.1755 17.117 69.1755 17.6964C69.1755 17.953 69.1352 18.217 69.0545 18.4884C68.9812 18.7524 68.8859 18.9834 68.7685 19.1814C68.6585 19.3794 68.5595 19.5077 68.4715 19.5664C68.3689 19.6397 68.1415 19.6984 67.7895 19.7424C67.4375 19.779 67.0232 19.7974 66.5465 19.7974C66.3779 19.7974 66.1175 19.79 65.7655 19.7754V21.8654H63.7855V15.5954C64.5555 15.5734 65.3989 15.5624 66.3155 15.5624ZM67.1405 18.3894C67.2139 18.294 67.2505 18.1034 67.2505 17.8174C67.2505 17.4434 67.1699 17.1794 67.0085 17.0254C66.8545 16.8714 66.5832 16.7944 66.1945 16.7944C66.0625 16.7944 65.9195 16.8054 65.7655 16.8274V18.4994C65.8389 18.5067 65.9819 18.5104 66.1945 18.5104C66.7592 18.5104 67.0745 18.47 67.1405 18.3894ZM70.4044 15.5954H72.3844V20.4134H74.9474V21.8654H70.4044V15.5954ZM82.0708 15.5954V19.1044C82.0708 19.8304 81.9901 20.3987 81.8288 20.8094C81.6748 21.2127 81.3815 21.5097 80.9488 21.7004C80.5161 21.891 79.8855 21.9864 79.0568 21.9864C78.4481 21.9864 77.9348 21.924 77.5168 21.7994C77.0988 21.6674 76.7651 21.4217 76.5158 21.0624C76.2738 20.703 76.1528 20.197 76.1528 19.5444V15.5954H78.1328V19.1264C78.1328 19.515 78.1511 19.812 78.1878 20.0174C78.2318 20.2154 78.3271 20.3694 78.4738 20.4794C78.6205 20.582 78.8441 20.6334 79.1448 20.6334C79.3281 20.6334 79.5005 20.615 79.6618 20.5784C79.8231 20.5417 79.9331 20.4867 79.9918 20.4134C80.0578 20.3254 80.0908 20.0064 80.0908 19.4564V15.5954H82.0708ZM85.469 17.2894C85.469 17.4434 85.546 17.5644 85.7 17.6524C85.8614 17.7404 86.1107 17.8357 86.448 17.9384C86.8514 18.0704 87.1814 18.1987 87.438 18.3234C87.702 18.448 87.9294 18.6424 88.12 18.9064C88.318 19.1704 88.417 19.515 88.417 19.9404C88.417 21.3044 87.5297 21.9864 85.755 21.9864C85.4617 21.9864 85.1024 21.9607 84.677 21.9094C84.259 21.858 83.8777 21.792 83.533 21.7114C83.5477 21.5574 83.577 21.3337 83.621 21.0404C83.6724 20.7397 83.72 20.516 83.764 20.3694C84.0207 20.406 84.4057 20.45 84.919 20.5014C85.4397 20.5527 85.832 20.5784 86.096 20.5784C86.25 20.5784 86.3417 20.5674 86.371 20.5454C86.415 20.516 86.448 20.4684 86.47 20.4024C86.4994 20.329 86.514 20.2667 86.514 20.2154C86.514 20.0687 86.4444 19.9587 86.305 19.8854C86.1657 19.8047 85.9274 19.7094 85.59 19.5994C85.1867 19.4747 84.853 19.3464 84.589 19.2144C84.325 19.0824 84.094 18.877 83.896 18.5984C83.698 18.3197 83.599 17.953 83.599 17.4984C83.599 17.1757 83.6724 16.8604 83.819 16.5524C83.9657 16.237 84.116 16.0244 84.27 15.9144C84.3874 15.8337 84.6294 15.7567 84.996 15.6834C85.3627 15.61 85.7074 15.5734 86.03 15.5734C86.8514 15.5734 87.5224 15.6504 88.043 15.8044C88.0357 15.951 88.01 16.1527 87.966 16.4094C87.9294 16.666 87.889 16.9007 87.845 17.1134L87.592 17.1024C86.6387 17.0364 86.03 17.0034 85.766 17.0034C85.656 17.0034 85.5937 17.007 85.579 17.0144C85.5497 17.029 85.524 17.062 85.502 17.1134C85.48 17.1647 85.469 17.2234 85.469 17.2894Z" fill="white"/>
<path d="M12.827 270H14.0477L15.5027 264.673H14.116L13.3738 268.325H13.3104L12.3729 264.673H11.2889L10.3514 268.325H10.2879L9.54083 264.673H8.15411L9.61407 270H10.8299L11.8016 266.548H11.8553L12.827 270ZM20.7928 269.004H18.3367V267.778H20.6414V266.851H18.3367V265.664H20.7928V264.668H17.0428V270H20.7928V269.004ZM25.077 270V265.688H26.6248V264.668H22.2205V265.688H23.7684V270H25.077ZM32.244 270V267.974H34.4412V266.997H32.244V265.674H34.6609V264.668H30.9354V270H32.244ZM41.0399 264.668H39.5799L38.5301 266.484H38.4715L37.4217 264.668H35.8885L37.5828 267.314L35.8836 270H37.2899L38.3836 268.228H38.4422L39.5359 270H41.0203L39.2772 267.334L41.0399 264.668Z" fill="white"/>
<path d="M87.1807 244.668H84.8271V250H86.1113V248.081H86.9365L87.8984 250H89.3486L88.2256 247.905C88.7139 247.725 89.2412 247.188 89.2412 246.406C89.2412 245.337 88.4795 244.668 87.1807 244.668ZM86.1113 247.183V245.62H86.9902C87.5176 245.62 87.8887 245.898 87.8887 246.416C87.8887 246.929 87.5273 247.183 86.9756 247.183H86.1113ZM94.8486 249.004H92.3926V247.778H94.6973V246.851H92.3926V245.664H94.8486V244.668H91.0986V250H94.8486V249.004ZM99.1328 250V245.688H100.681V244.668H96.2764V245.688H97.8242V250H99.1328Z" fill="white"/>
<path d="M49.0674 248.447C49.082 249.346 49.7998 250.098 51.3281 250.098C52.832 250.098 53.6279 249.385 53.6279 248.384C53.6279 247.446 53.0078 247.036 52.1094 246.86L51.3232 246.709C50.7715 246.597 50.498 246.436 50.498 246.123C50.498 245.781 50.8057 245.522 51.3672 245.522C51.9531 245.522 52.2949 245.815 52.3242 246.187H53.5303C53.5205 245.337 52.7881 244.565 51.3721 244.565C50.0635 244.565 49.1895 245.22 49.1895 246.221C49.1895 247.09 49.7461 247.544 50.7422 247.744L51.4893 247.896C52.0557 248.013 52.334 248.179 52.334 248.511C52.334 248.872 52.0215 249.131 51.3818 249.131C50.7471 249.131 50.3467 248.833 50.3174 248.447H49.0674ZM56.667 250V246.753H56.7158L59.0303 250H60.0703V244.668H58.8447V247.886H58.7959L56.4912 244.668H55.4463V250H56.667ZM66.8887 247.314C66.8887 245.635 66.0635 244.668 64.3447 244.668H62.167V250H64.3447C66.0439 250 66.8887 249.019 66.8887 247.314ZM65.5508 247.339C65.5508 248.647 64.9697 249.004 64.1299 249.004H63.4756V245.664H64.1299C65.1846 245.664 65.5508 246.353 65.5508 247.339Z" fill="white"/>
<path d="M85.9336 330.098C87.5205 330.098 88.4238 329.126 88.4238 327.637V327.036C88.4238 325.542 87.5156 324.57 85.9287 324.57C84.3467 324.57 83.4385 325.537 83.4385 327.036V327.637C83.4385 329.126 84.3516 330.098 85.9336 330.098ZM85.9336 329.077C85.2061 329.077 84.7715 328.535 84.7715 327.642V327.021C84.7715 326.128 85.2061 325.591 85.9336 325.591C86.6562 325.591 87.0908 326.128 87.0908 327.021V327.642C87.0908 328.535 86.6562 329.077 85.9336 329.077ZM92.5713 329.048C91.9609 329.048 91.5361 328.687 91.5361 327.998V324.668H90.2227V328.145C90.2227 329.336 91.126 330.098 92.5713 330.098C94.0166 330.098 94.9199 329.331 94.9199 328.145V324.668H93.6113V327.998C93.6113 328.682 93.1816 329.048 92.5713 329.048ZM99.292 330V325.688H100.84V324.668H96.4355V325.688H97.9834V330H99.292Z" fill="white"/>
<path d="M25.2939 330V324.668H23.9854V330H25.2939ZM28.6064 330V326.753H28.6553L30.9697 330H32.0098V324.668H30.7842V327.886H30.7354L28.4307 324.668H27.3857V330H28.6064Z" fill="white"/>
<rect x="25" y="30" width="70" height="20" rx="5" fill="#36617C"/>
<path d="M98.9629 43V39.6504H99.0312L100.257 42.2188H101.038L102.259 39.6504H102.317V43H103.499V37.668H102.161L100.677 40.7637H100.633L99.1484 37.668H97.8057V43H98.9629ZM105.278 41.4473C105.293 42.3457 106.011 43.0977 107.539 43.0977C109.043 43.0977 109.839 42.3848 109.839 41.3838C109.839 40.4463 109.219 40.0361 108.32 39.8604L107.534 39.709C106.982 39.5967 106.709 39.4355 106.709 39.123C106.709 38.7812 107.017 38.5225 107.578 38.5225C108.164 38.5225 108.506 38.8154 108.535 39.1865H109.741C109.731 38.3369 108.999 37.5654 107.583 37.5654C106.274 37.5654 105.4 38.2197 105.4 39.2207C105.4 40.0898 105.957 40.5439 106.953 40.7441L107.7 40.8955C108.267 41.0127 108.545 41.1787 108.545 41.5107C108.545 41.8721 108.232 42.1309 107.593 42.1309C106.958 42.1309 106.558 41.833 106.528 41.4473H105.278Z" fill="white"/>
<path d="M6.16486 304H8.65997C9.7879 304 10.6229 303.443 10.6229 302.486C10.6229 301.666 10.0027 301.246 9.34845 301.197V301.144C9.91486 301.036 10.3494 300.641 10.3494 299.981C10.3494 299.166 9.66583 298.668 8.63068 298.668H6.16486V304ZM7.4588 299.571H8.30353C8.80157 299.571 9.07013 299.815 9.07013 300.191C9.07013 300.582 8.79669 300.836 8.13263 300.836H7.4588V299.571ZM7.4588 301.666H8.37189C8.98712 301.666 9.29474 301.949 9.29474 302.389C9.29474 302.823 9.00665 303.102 8.21564 303.102H7.4588V301.666ZM13.6082 304H14.9119V302.086L16.8016 298.668H15.4002L14.3016 300.875H14.2527L13.1541 298.668H11.7186L13.6082 302.115V304ZM22.5506 300.475C22.5506 299.483 21.8621 298.668 20.5926 298.668H18.2391V304H19.5428V302.33H20.5828C21.8524 302.33 22.5506 301.476 22.5506 300.475ZM21.2225 300.504C21.2225 301.041 20.91 301.383 20.368 301.383H19.5379V299.63H20.3192C20.8904 299.63 21.2225 299.947 21.2225 300.504ZM24.6961 304L25.0818 302.75H26.8641L27.2401 304H28.6268L26.8006 298.668H25.2186L23.3875 304H24.6961ZM26.0096 299.801L26.6199 301.842H25.326L25.9461 299.801H26.0096ZM29.8836 302.447C29.8983 303.346 30.616 304.098 32.1443 304.098C33.6483 304.098 34.4442 303.385 34.4442 302.384C34.4442 301.446 33.824 301.036 32.9256 300.86L32.1395 300.709C31.5877 300.597 31.3143 300.436 31.3143 300.123C31.3143 299.781 31.6219 299.522 32.1834 299.522C32.7693 299.522 33.1111 299.815 33.1404 300.187H34.3465C34.3367 299.337 33.6043 298.565 32.1883 298.565C30.8797 298.565 30.0057 299.22 30.0057 300.221C30.0057 301.09 30.5623 301.544 31.5584 301.744L32.3055 301.896C32.8719 302.013 33.1502 302.179 33.1502 302.511C33.1502 302.872 32.8377 303.131 32.1981 303.131C31.5633 303.131 31.1629 302.833 31.1336 302.447H29.8836ZM35.9402 302.447C35.9549 303.346 36.6727 304.098 38.201 304.098C39.7049 304.098 40.5008 303.385 40.5008 302.384C40.5008 301.446 39.8807 301.036 38.9822 300.86L38.1961 300.709C37.6443 300.597 37.3709 300.436 37.3709 300.123C37.3709 299.781 37.6785 299.522 38.2401 299.522C38.826 299.522 39.1678 299.815 39.1971 300.187H40.4031C40.3934 299.337 39.6609 298.565 38.2449 298.565C36.9363 298.565 36.0623 299.22 36.0623 300.221C36.0623 301.09 36.619 301.544 37.6151 301.744L38.3621 301.896C38.9285 302.013 39.2068 302.179 39.2068 302.511C39.2068 302.872 38.8943 303.131 38.2547 303.131C37.6199 303.131 37.2195 302.833 37.1902 302.447H35.9402Z" fill="white"/>
<rect x="43" y="287" width="65" height="28" rx="14" fill="#36617C"/>
<rect x="13" y="77" width="30" height="66.1696" rx="15" fill="#36617C"/>
<path d="M19.6748 72V67.6885H21.2226V66.668H16.8183V67.6885H18.3662V72H19.6748ZM24.1836 72V66.668H22.875V72H24.1836ZM27.4424 72V68.6504H27.5107L28.7363 71.2188H29.5175L30.7383 68.6504H30.7968V72H31.9785V66.668H30.6406L29.1562 69.7637H29.1123L27.6279 66.668H26.2851V72H27.4424ZM37.83 71.0039H35.374V69.7783H37.6787V68.8506H35.374V67.6641H37.83V66.668H34.08V72H37.83V71.0039Z" fill="white"/>
<rect x="77" y="77" width="30" height="66.1696" rx="15" fill="#36617C"/>
<path d="M69.6279 72V69.9736H71.8252V68.9971H69.6279V67.6738H72.0449V66.668H68.3193V72H69.6279ZM77.5303 71.0039H75.0742V69.7783H77.3789V68.8506H75.0742V67.6641H77.5303V66.668H73.7803V72H77.5303V71.0039ZM83.2158 71.0039H80.7598V69.7783H83.0645V68.8506H80.7598V67.6641H83.2158V66.668H79.4658V72H83.2158V71.0039ZM89.873 69.3145C89.873 67.6348 89.0479 66.668 87.3291 66.668H85.1514V72H87.3291C89.0283 72 89.873 71.0186 89.873 69.3145ZM88.5352 69.3389C88.5352 70.6475 87.9541 71.0039 87.1143 71.0039H86.46V67.6641H87.1143C88.1689 67.6641 88.5352 68.3525 88.5352 69.3389ZM91.6865 72H94.1816C95.3096 72 96.1445 71.4434 96.1445 70.4863C96.1445 69.666 95.5244 69.2461 94.8701 69.1973V69.1436C95.4365 69.0361 95.8711 68.6406 95.8711 67.9814C95.8711 67.166 95.1875 66.668 94.1523 66.668H91.6865V72ZM92.9805 67.5713H93.8252C94.3232 67.5713 94.5918 67.8154 94.5918 68.1914C94.5918 68.582 94.3184 68.8359 93.6543 68.8359H92.9805V67.5713ZM92.9805 69.666H93.8936C94.5088 69.666 94.8164 69.9492 94.8164 70.3887C94.8164 70.8232 94.5283 71.1016 93.7373 71.1016H92.9805V69.666ZM98.7197 72L99.1055 70.75H100.888L101.264 72H102.65L100.824 66.668H99.2422L97.4111 72H98.7197ZM100.033 67.8008L100.644 69.8418H99.3496L99.9697 67.8008H100.033ZM105.245 69.041C105.245 68.1279 105.636 67.6055 106.339 67.6055C106.959 67.6055 107.369 68.0254 107.369 68.6309H108.624V68.4893C108.624 67.3223 107.647 66.5703 106.329 66.5703C104.791 66.5703 103.912 67.5371 103.912 69.041V69.6416C103.912 71.1357 104.791 72.0977 106.329 72.0977C107.633 72.0977 108.624 71.3701 108.624 70.2227V70.0762H107.369C107.369 70.6523 106.959 71.0674 106.334 71.0674C105.636 71.0674 105.245 70.5449 105.245 69.6465V69.041ZM115.218 66.668H113.812L111.829 68.958H111.771V66.668H110.462V72H111.771V70.374L112.288 69.8076L113.743 72H115.291L113.25 68.9775L115.218 66.668Z" fill="white"/>
<rect x="13" y="168" width="30" height="66.1696" rx="15" fill="#36617C"/>
<path d="M14.6758 160.041C14.6758 159.128 15.0664 158.605 15.7695 158.605C16.3896 158.605 16.7998 159.025 16.7998 159.631H18.0547V159.489C18.0547 158.322 17.0781 157.57 15.7597 157.57C14.2216 157.57 13.3427 158.537 13.3427 160.041V160.642C13.3427 162.136 14.2216 163.098 15.7597 163.098C17.0634 163.098 18.0547 162.37 18.0547 161.223V161.076H16.7998C16.7998 161.652 16.3896 162.067 15.7646 162.067C15.0664 162.067 14.6758 161.545 14.6758 160.646V160.041ZM22.1582 163.098C23.7451 163.098 24.6484 162.126 24.6484 160.637V160.036C24.6484 158.542 23.7402 157.57 22.1533 157.57C20.5713 157.57 19.6631 158.537 19.6631 160.036V160.637C19.6631 162.126 20.5761 163.098 22.1582 163.098ZM22.1582 162.077C21.4306 162.077 20.9961 161.535 20.9961 160.642V160.021C20.9961 159.128 21.4306 158.591 22.1582 158.591C22.8808 158.591 23.3154 159.128 23.3154 160.021V160.642C23.3154 161.535 22.8808 162.077 22.1582 162.077ZM30.1142 161.96H27.8242V157.668H26.5156V163H30.1142V161.96ZM33.8906 163.098C35.4775 163.098 36.3808 162.126 36.3808 160.637V160.036C36.3808 158.542 35.4726 157.57 33.8857 157.57C32.3037 157.57 31.3955 158.537 31.3955 160.036V160.637C31.3955 162.126 32.3086 163.098 33.8906 163.098ZM33.8906 162.077C33.1631 162.077 32.7285 161.535 32.7285 160.642V160.021C32.7285 159.128 33.1631 158.591 33.8906 158.591C34.6133 158.591 35.0478 159.128 35.0478 160.021V160.642C35.0478 161.535 34.6133 162.077 33.8906 162.077ZM40.6015 157.668H38.248V163H39.5322V161.081H40.3574L41.3193 163H42.7695L41.6465 160.905C42.1347 160.725 42.6621 160.188 42.6621 159.406C42.6621 158.337 41.9004 157.668 40.6015 157.668ZM39.5322 160.183V158.62H40.4111C40.9384 158.62 41.3095 158.898 41.3095 159.416C41.3095 159.929 40.9482 160.183 40.3965 160.183H39.5322Z" fill="white"/>
<rect x="77" y="168" width="30" height="66.1696" rx="15" fill="#36617C"/>
<path d="M86.1211 163V159.65H86.1894L87.415 162.219H88.1963L89.417 159.65H89.4756V163H90.6572V157.668H89.3193L87.8349 160.764H87.791L86.3066 157.668H84.9638V163H86.1211ZM94.0674 163V157.668H92.7588V163H94.0674ZM100.686 157.668H99.2256L98.1758 159.484H98.1172L97.0674 157.668H95.5341L97.2285 160.314L95.5293 163H96.9355L98.0293 161.228H98.0879L99.1816 163H100.666L98.9228 160.334L100.686 157.668Z" fill="white"/>
</svg>
