<svg width="90" height="380" viewBox="0 0 90 380" fill="none" xmlns="http://www.w3.org/2000/svg">
<rect width="90" height="380" fill="#457B9D"/>
<g opacity="0.5">
<path fill-rule="evenodd" clip-rule="evenodd" d="M38.958 375.599C38.803 375.747 38.659 375.851 38.526 375.909C38.393 375.968 38.251 375.998 38.1 375.998C37.948 375.998 37.806 375.97 37.673 375.914C37.54 375.858 37.424 375.781 37.325 375.682C37.109 375.466 37 375.209 37 374.912V369.385C37 369.082 37.078 368.847 37.232 368.68C37.498 368.408 37.75 368.272 37.988 368.272C38.226 368.272 38.404 368.296 38.522 368.346C38.639 368.395 38.738 368.457 38.818 368.531C38.924 368.624 39.002 368.723 39.055 368.828C39.108 368.933 39.151 369.011 39.185 369.06C39.219 369.11 39.275 369.134 39.352 369.134C39.429 369.134 39.496 369.11 39.551 369.06L39.709 368.902C40.16 368.482 40.612 368.272 41.063 368.272C41.861 368.272 42.519 368.599 43.039 369.255C43.088 369.323 43.15 369.357 43.224 369.357C43.354 369.357 43.486 369.256 43.619 369.055C43.752 368.854 43.966 368.674 44.263 368.513C44.56 368.352 44.906 368.272 45.302 368.272C45.698 368.272 46.058 368.344 46.383 368.49C46.707 368.635 46.99 368.834 47.231 369.088C47.738 369.62 47.992 370.263 47.992 371.017V374.912C47.992 375.382 47.769 375.713 47.324 375.905C47.188 375.967 47.044 375.998 46.893 375.998C46.741 375.998 46.599 375.97 46.466 375.914C46.333 375.858 46.217 375.781 46.118 375.682C45.908 375.46 45.803 375.203 45.803 374.912V371.045C45.803 370.736 45.726 370.504 45.571 370.349C45.299 370.077 45.049 369.941 44.82 369.941C44.591 369.941 44.412 369.971 44.282 370.029C44.152 370.088 44.034 370.17 43.929 370.275C43.713 370.492 43.605 370.742 43.605 371.026V374.912C43.605 375.382 43.385 375.713 42.946 375.905C42.81 375.967 42.666 375.998 42.515 375.998C42.363 375.998 42.22 375.97 42.083 375.914C41.947 375.858 41.83 375.781 41.731 375.682C41.515 375.466 41.406 375.209 41.406 374.912V371.045C41.406 370.736 41.329 370.504 41.174 370.349C40.902 370.077 40.618 369.941 40.321 369.941C39.826 369.941 39.483 370.133 39.292 370.516C39.23 370.64 39.199 370.779 39.199 370.934V374.912C39.199 375.215 39.118 375.444 38.958 375.599ZM50.219 369.387C50.219 369.084 50.296 368.849 50.451 368.682C50.716 368.41 51.01 368.274 51.332 368.274C51.641 368.274 51.87 368.355 52.018 368.515C52.29 368.794 52.426 369.084 52.426 369.387V374.915C52.426 375.212 52.349 375.437 52.194 375.592C51.922 375.864 51.672 376 51.443 376C51.214 376 51.032 375.971 50.896 375.912C50.76 375.853 50.642 375.777 50.543 375.685C50.327 375.474 50.219 375.218 50.219 374.915V369.387ZM51.327 365.9C51.065 365.9 50.852 365.687 50.852 365.425C50.852 365.162 51.065 364.95 51.327 364.95C51.589 364.95 51.802 365.162 51.802 365.425C51.802 365.687 51.589 365.9 51.327 365.9ZM51.327 364C51.714 364 52.048 364.142 52.329 364.425C52.611 364.709 52.752 364.996 52.752 365.287C52.752 365.577 52.713 365.807 52.635 365.978C52.558 366.148 52.456 366.297 52.329 366.424C52.048 366.708 51.714 366.849 51.327 366.849C50.94 366.849 50.606 366.708 50.324 366.424C50.043 366.141 49.902 365.857 49.902 365.574C49.902 365.092 50.043 364.709 50.324 364.425C50.606 364.142 50.94 364 51.327 364Z" fill="#1D3557"/>
</g>
<path d="M31.0584 16.0254H35.9664V17.5134H33.2184V18.8694H35.4864V20.1774H33.2184V22.8654H31.0584V16.0254ZM36.6717 16.0254H38.8317V21.2814H41.6277V22.8654H36.6717V16.0254ZM45.7387 23.0214C44.5467 23.0214 43.6507 22.7414 43.0507 22.1814C42.4587 21.6134 42.1627 20.7054 42.1627 19.4574C42.1627 18.2334 42.4907 17.3414 43.1467 16.7814C43.8027 16.2214 44.6707 15.9414 45.7507 15.9414C48.0227 15.9414 49.1587 17.0734 49.1587 19.3374C49.1587 20.4814 48.8787 21.3814 48.3187 22.0374C47.7667 22.6934 46.9067 23.0214 45.7387 23.0214ZM45.6907 21.6054C45.9147 21.6054 46.1027 21.5694 46.2547 21.4974C46.4067 21.4174 46.5267 21.2814 46.6147 21.0894C46.7827 20.7614 46.8667 20.2254 46.8667 19.4814C46.8667 18.7534 46.7827 18.2254 46.6147 17.8974C46.4467 17.5614 46.1387 17.3854 45.6907 17.3694C45.5227 17.3694 45.3467 17.3894 45.1627 17.4294C44.9867 17.4614 44.8747 17.5094 44.8267 17.5734C44.7307 17.6854 44.6547 17.9254 44.5987 18.2934C44.5507 18.6534 44.5267 19.0494 44.5267 19.4814C44.5267 20.1534 44.5907 20.6454 44.7187 20.9574C44.8067 21.1894 44.9307 21.3574 45.0907 21.4614C45.2507 21.5574 45.4507 21.6054 45.6907 21.6054ZM54.1457 22.8654H51.4457L49.6817 16.0254H51.9857L52.8977 21.0534H52.9577L53.9297 16.0254H56.1857L57.1817 21.0534H57.2177L58.1417 16.0254H60.3497L58.5857 22.8654H55.8977L55.0817 18.4974H55.0097L54.1457 22.8654Z" fill="#A8DADC"/>
<path d="M31.5095 46.9408C30.5495 46.9408 29.8295 46.7168 29.3495 46.2688C28.8775 45.8128 28.6415 45.0968 28.6415 44.1208C28.6415 43.5848 28.6895 43.1168 28.7855 42.7168C28.8895 42.3088 29.0135 42.0248 29.1575 41.8648C29.3415 41.6568 29.6775 41.4848 30.1655 41.3488C30.6615 41.2128 31.1255 41.1448 31.5575 41.1448C32.5895 41.1448 33.3255 41.3648 33.7655 41.8048C34.2055 42.2448 34.4255 42.9488 34.4255 43.9168C34.4255 44.9568 34.1895 45.7208 33.7175 46.2088C33.2455 46.6968 32.5095 46.9408 31.5095 46.9408ZM31.5455 45.5368C31.8575 45.5368 32.0615 45.4288 32.1575 45.2128C32.2535 44.9888 32.3015 44.5968 32.3015 44.0368C32.3015 43.6448 32.2815 43.3448 32.2415 43.1368C32.2015 42.9208 32.1255 42.7648 32.0135 42.6688C31.9095 42.5648 31.7455 42.5128 31.5215 42.5128C31.2015 42.5128 31.0175 42.5408 30.9695 42.5968C30.9055 42.6528 30.8535 42.8288 30.8135 43.1248C30.7735 43.4208 30.7535 43.7288 30.7535 44.0488C30.7535 44.5928 30.8055 44.9768 30.9095 45.2008C31.0215 45.4248 31.2335 45.5368 31.5455 45.5368ZM40.5488 41.6128C40.6208 41.7008 40.6728 41.9208 40.7048 42.2728C40.7448 42.6248 40.7648 43.1608 40.7648 43.8808V46.7848H38.7128V43.9048V43.4128C38.7128 43.1568 38.6928 42.9968 38.6528 42.9328C38.5888 42.8528 38.4408 42.8128 38.2088 42.8128C38.0968 42.8128 38.0128 42.8168 37.9568 42.8248C37.7328 42.8328 37.5008 42.8848 37.2608 42.9808V46.7848H35.2088V41.2648H36.8768L37.1048 42.1888C37.6808 41.4928 38.3688 41.1448 39.1688 41.1448C39.4568 41.1448 39.7248 41.1848 39.9728 41.2648C40.2288 41.3448 40.4208 41.4608 40.5488 41.6128ZM45.4087 38.7688H47.0047L42.9367 48.6568H41.3407L45.4087 38.7688ZM50.283 46.9408C49.323 46.9408 48.603 46.7168 48.123 46.2688C47.651 45.8128 47.415 45.0968 47.415 44.1208C47.415 43.5848 47.463 43.1168 47.559 42.7168C47.663 42.3088 47.787 42.0248 47.931 41.8648C48.115 41.6568 48.451 41.4848 48.939 41.3488C49.435 41.2128 49.899 41.1448 50.331 41.1448C51.363 41.1448 52.099 41.3648 52.539 41.8048C52.979 42.2448 53.199 42.9488 53.199 43.9168C53.199 44.9568 52.963 45.7208 52.491 46.2088C52.019 46.6968 51.283 46.9408 50.283 46.9408ZM50.319 45.5368C50.631 45.5368 50.835 45.4288 50.931 45.2128C51.027 44.9888 51.075 44.5968 51.075 44.0368C51.075 43.6448 51.055 43.3448 51.015 43.1368C50.975 42.9208 50.899 42.7648 50.787 42.6688C50.683 42.5648 50.519 42.5128 50.295 42.5128C49.975 42.5128 49.791 42.5408 49.743 42.5968C49.679 42.6528 49.627 42.8288 49.587 43.1248C49.547 43.4208 49.527 43.7288 49.527 44.0488C49.527 44.5928 49.579 44.9768 49.683 45.2008C49.795 45.4248 50.007 45.5368 50.319 45.5368ZM60.4382 40.6408C60.3822 40.6968 60.3542 40.8688 60.3542 41.1568V41.2648H61.6262V42.4408H60.3542V46.7848H58.3022V42.4408H56.5142V46.7848H54.4622V42.4408H53.5622V41.3728L54.4622 41.2648V41.0848C54.4622 40.7328 54.5102 40.3968 54.6062 40.0768C54.7022 39.7568 54.7902 39.5648 54.8702 39.5008C55.1182 39.2928 55.6462 39.1888 56.4542 39.1888C56.8942 39.1888 57.3862 39.2208 57.9302 39.2848C57.9302 39.3808 57.9142 39.5728 57.8822 39.8608C57.8582 40.1488 57.8342 40.3928 57.8102 40.5928L57.2942 40.5808C56.8702 40.5808 56.6382 40.6008 56.5982 40.6408C56.5422 40.6968 56.5142 40.8688 56.5142 41.1568V41.2648H58.3022V41.0848C58.3022 40.7328 58.3502 40.3968 58.4462 40.0768C58.5422 39.7568 58.6302 39.5648 58.7102 39.5008C58.9582 39.2928 59.4862 39.1888 60.2942 39.1888C60.7342 39.1888 61.2262 39.2208 61.7702 39.2848C61.7702 39.3808 61.7542 39.5728 61.7222 39.8608C61.6982 40.1488 61.6742 40.3928 61.6502 40.5928L61.1342 40.5808C60.7102 40.5808 60.4782 40.6008 60.4382 40.6408Z" fill="#A8DADC"/>
<path d="M31.5095 211.941C30.5495 211.941 29.8295 211.717 29.3495 211.269C28.8775 210.813 28.6415 210.097 28.6415 209.121C28.6415 208.585 28.6895 208.117 28.7855 207.717C28.8895 207.309 29.0135 207.025 29.1575 206.865C29.3415 206.657 29.6775 206.485 30.1655 206.349C30.6615 206.213 31.1255 206.145 31.5575 206.145C32.5895 206.145 33.3255 206.365 33.7655 206.805C34.2055 207.245 34.4255 207.949 34.4255 208.917C34.4255 209.957 34.1895 210.721 33.7175 211.209C33.2455 211.697 32.5095 211.941 31.5095 211.941ZM31.5455 210.537C31.8575 210.537 32.0615 210.429 32.1575 210.213C32.2535 209.989 32.3015 209.597 32.3015 209.037C32.3015 208.645 32.2815 208.345 32.2415 208.137C32.2015 207.921 32.1255 207.765 32.0135 207.669C31.9095 207.565 31.7455 207.513 31.5215 207.513C31.2015 207.513 31.0175 207.541 30.9695 207.597C30.9055 207.653 30.8535 207.829 30.8135 208.125C30.7735 208.421 30.7535 208.729 30.7535 209.049C30.7535 209.593 30.8055 209.977 30.9095 210.201C31.0215 210.425 31.2335 210.537 31.5455 210.537ZM40.5488 206.613C40.6208 206.701 40.6728 206.921 40.7048 207.273C40.7448 207.625 40.7648 208.161 40.7648 208.881V211.785H38.7128V208.905V208.413C38.7128 208.157 38.6928 207.997 38.6528 207.933C38.5888 207.853 38.4408 207.813 38.2088 207.813C38.0968 207.813 38.0128 207.817 37.9568 207.825C37.7328 207.833 37.5008 207.885 37.2608 207.981V211.785H35.2088V206.265H36.8768L37.1048 207.189C37.6808 206.493 38.3688 206.145 39.1688 206.145C39.4568 206.145 39.7248 206.185 39.9728 206.265C40.2288 206.345 40.4208 206.461 40.5488 206.613ZM45.4087 203.769H47.0047L42.9367 213.657H41.3407L45.4087 203.769ZM50.283 211.941C49.323 211.941 48.603 211.717 48.123 211.269C47.651 210.813 47.415 210.097 47.415 209.121C47.415 208.585 47.463 208.117 47.559 207.717C47.663 207.309 47.787 207.025 47.931 206.865C48.115 206.657 48.451 206.485 48.939 206.349C49.435 206.213 49.899 206.145 50.331 206.145C51.363 206.145 52.099 206.365 52.539 206.805C52.979 207.245 53.199 207.949 53.199 208.917C53.199 209.957 52.963 210.721 52.491 211.209C52.019 211.697 51.283 211.941 50.283 211.941ZM50.319 210.537C50.631 210.537 50.835 210.429 50.931 210.213C51.027 209.989 51.075 209.597 51.075 209.037C51.075 208.645 51.055 208.345 51.015 208.137C50.975 207.921 50.899 207.765 50.787 207.669C50.683 207.565 50.519 207.513 50.295 207.513C49.975 207.513 49.791 207.541 49.743 207.597C49.679 207.653 49.627 207.829 49.587 208.125C49.547 208.421 49.527 208.729 49.527 209.049C49.527 209.593 49.579 209.977 49.683 210.201C49.795 210.425 50.007 210.537 50.319 210.537ZM60.4382 205.641C60.3822 205.697 60.3542 205.869 60.3542 206.157V206.265H61.6262V207.441H60.3542V211.785H58.3022V207.441H56.5142V211.785H54.4622V207.441H53.5622V206.373L54.4622 206.265V206.085C54.4622 205.733 54.5102 205.397 54.6062 205.077C54.7022 204.757 54.7902 204.565 54.8702 204.501C55.1182 204.293 55.6462 204.189 56.4542 204.189C56.8942 204.189 57.3862 204.221 57.9302 204.285C57.9302 204.381 57.9142 204.573 57.8822 204.861C57.8582 205.149 57.8342 205.393 57.8102 205.593L57.2942 205.581C56.8702 205.581 56.6382 205.601 56.5982 205.641C56.5422 205.697 56.5142 205.869 56.5142 206.157V206.265H58.3022V206.085C58.3022 205.733 58.3502 205.397 58.4462 205.077C58.5422 204.757 58.6302 204.565 58.7102 204.501C58.9582 204.293 59.4862 204.189 60.2942 204.189C60.7342 204.189 61.2262 204.221 61.7702 204.285C61.7702 204.381 61.7542 204.573 61.7222 204.861C61.6982 205.149 61.6742 205.393 61.6502 205.593L61.1342 205.581C60.7102 205.581 60.4782 205.601 60.4382 205.641Z" fill="#A8DADC"/>
<path d="M61.5076 322.156C60.5476 322.156 59.8276 321.932 59.3476 321.484C58.8756 321.028 58.6396 320.312 58.6396 319.336C58.6396 318.8 58.6876 318.332 58.7836 317.932C58.8876 317.524 59.0116 317.24 59.1556 317.08C59.3396 316.872 59.6756 316.7 60.1636 316.564C60.6596 316.428 61.1236 316.36 61.5556 316.36C62.5876 316.36 63.3236 316.58 63.7636 317.02C64.2036 317.46 64.4236 318.164 64.4236 319.132C64.4236 320.172 64.1876 320.936 63.7156 321.424C63.2436 321.912 62.5076 322.156 61.5076 322.156ZM61.5436 320.752C61.8556 320.752 62.0596 320.644 62.1556 320.428C62.2516 320.204 62.2996 319.812 62.2996 319.252C62.2996 318.86 62.2796 318.56 62.2396 318.352C62.1996 318.136 62.1236 317.98 62.0116 317.884C61.9076 317.78 61.7436 317.728 61.5196 317.728C61.1996 317.728 61.0156 317.756 60.9676 317.812C60.9036 317.868 60.8516 318.044 60.8116 318.34C60.7716 318.636 60.7516 318.944 60.7516 319.264C60.7516 319.808 60.8036 320.192 60.9076 320.416C61.0196 320.64 61.2316 320.752 61.5436 320.752ZM70.7268 316.48V322H69.0588L68.8308 321.076C68.2548 321.772 67.5668 322.12 66.7668 322.12C66.4788 322.12 66.2068 322.08 65.9508 322C65.7028 321.92 65.5148 321.804 65.3868 321.652C65.3148 321.564 65.2588 321.344 65.2188 320.992C65.1868 320.64 65.1708 320.104 65.1708 319.384V316.48H67.2228V319.36C67.2228 319.52 67.2268 319.708 67.2348 319.924C67.2428 320.14 67.2668 320.276 67.3068 320.332C67.3628 320.412 67.5228 320.452 67.7868 320.452L67.9788 320.44C68.2028 320.432 68.4348 320.38 68.6748 320.284V316.48H70.7268ZM74.2548 319.732C74.2548 319.876 74.2588 320.028 74.2668 320.188C74.2748 320.34 74.2988 320.436 74.3388 320.476C74.3948 320.532 74.5908 320.56 74.9268 320.56L75.3348 320.548C75.4068 320.932 75.4428 321.376 75.4428 321.88C75.2908 321.936 75.0668 321.988 74.7708 322.036C74.4828 322.084 74.2068 322.108 73.9428 322.108C73.3908 322.108 72.9628 321.988 72.6588 321.748C72.3628 321.5 72.2148 321.12 72.2148 320.608V317.656H71.3148V316.564L72.2148 316.48L72.7548 315.16L74.2548 315.076V316.48H75.5268V317.656H74.2548V319.732Z" fill="#A8DADC"/>
<path d="M18.7553 315.796C18.4833 315.796 18.2473 315.704 18.0473 315.52C17.8553 315.336 17.7593 315.116 17.7593 314.86C17.7593 314.604 17.8553 314.384 18.0473 314.2C18.2473 314.016 18.4833 313.924 18.7553 313.924C19.0273 313.924 19.2593 314.016 19.4513 314.2C19.6433 314.384 19.7393 314.604 19.7393 314.86C19.7393 315.116 19.6433 315.336 19.4513 315.52C19.2593 315.704 19.0273 315.796 18.7553 315.796ZM17.7233 316.48H19.7753V322H17.7233V316.48ZM26.1328 316.828C26.2048 316.916 26.2568 317.136 26.2888 317.488C26.3288 317.84 26.3488 318.376 26.3488 319.096V322H24.2968V319.12V318.628C24.2968 318.372 24.2768 318.212 24.2368 318.148C24.1728 318.068 24.0248 318.028 23.7928 318.028C23.6808 318.028 23.5968 318.032 23.5408 318.04C23.3168 318.048 23.0848 318.1 22.8448 318.196V322H20.7928V316.48H22.4608L22.6888 317.404C23.2648 316.708 23.9528 316.36 24.7528 316.36C25.0408 316.36 25.3088 316.4 25.5568 316.48C25.8128 316.56 26.0048 316.676 26.1328 316.828Z" fill="#A8DADC"/>
<path d="M17.5666 279.56C17.7666 279.56 18.1386 279.54 18.6826 279.5C18.7546 279.5 18.8866 279.492 19.0786 279.476L19.2586 280.712C18.6426 281 17.8426 281.144 16.8586 281.144C15.9386 281.144 15.2306 280.912 14.7346 280.448C14.2466 279.984 14.0026 279.284 14.0026 278.348C14.0026 277.868 14.0626 277.404 14.1826 276.956C14.3106 276.508 14.4546 276.196 14.6146 276.02C14.7826 275.844 15.0946 275.692 15.5506 275.564C16.0066 275.436 16.4586 275.372 16.9066 275.372C17.6266 275.372 18.1666 275.5 18.5266 275.756C18.8866 276.012 19.1226 276.368 19.2346 276.824C19.3466 277.272 19.4026 277.876 19.4026 278.636C18.8586 278.668 18.3266 278.684 17.8066 278.684H16.1026C16.1026 278.94 16.1546 279.132 16.2586 279.26C16.3706 279.388 16.5266 279.472 16.7266 279.512C16.9266 279.544 17.2066 279.56 17.5666 279.56ZM16.2226 276.8C16.1746 276.824 16.1386 276.928 16.1146 277.112C16.0906 277.296 16.0746 277.504 16.0666 277.736H16.6906C17.0666 277.736 17.3386 277.732 17.5066 277.724C17.5066 277.34 17.4506 277.068 17.3386 276.908C17.2346 276.748 17.0506 276.668 16.7866 276.668C16.5706 276.668 16.3826 276.712 16.2226 276.8ZM21.1328 278.18L19.7528 275.48H21.7448L22.7408 277.616L23.7488 275.48H25.7288L24.3608 278.18L25.8608 281H23.8568L22.7408 278.72L21.6248 281H19.6208L21.1328 278.18ZM28.8798 278.732C28.8798 278.876 28.8838 279.028 28.8918 279.188C28.8998 279.34 28.9238 279.436 28.9638 279.476C29.0198 279.532 29.2158 279.56 29.5518 279.56L29.9598 279.548C30.0318 279.932 30.0678 280.376 30.0678 280.88C29.9158 280.936 29.6918 280.988 29.3958 281.036C29.1078 281.084 28.8318 281.108 28.5678 281.108C28.0158 281.108 27.5878 280.988 27.2838 280.748C26.9878 280.5 26.8398 280.12 26.8398 279.608V276.656H25.9398V275.564L26.8398 275.48L27.3798 274.16L28.8798 274.076V275.48H30.1518V276.656H28.8798V278.732Z" fill="#A8DADC"/>
<path d="M63.8515 275.36C63.9555 275.36 64.0635 275.372 64.1755 275.396C64.2955 275.42 64.3835 275.448 64.4395 275.48C64.4395 275.656 64.4195 275.948 64.3795 276.356C64.3395 276.756 64.3035 277.04 64.2715 277.208C64.1915 277.2 64.0435 277.196 63.8275 277.196C63.3235 277.196 62.8755 277.224 62.4835 277.28V281H60.4315V275.48H62.1475L62.3875 276.368H62.3995C62.6315 276.064 62.8795 275.82 63.1435 275.636C63.4075 275.452 63.6435 275.36 63.8515 275.36ZM69.4423 279.128C69.4423 279.84 69.2143 280.352 68.7583 280.664C68.3103 280.976 67.6703 281.132 66.8383 281.132C66.2543 281.132 65.5823 281.048 64.8223 280.88C64.8383 280.72 64.8743 280.492 64.9303 280.196C64.9943 279.892 65.0463 279.66 65.0863 279.5C65.3743 279.548 65.6943 279.588 66.0463 279.62C66.3983 279.644 66.6983 279.656 66.9463 279.656C67.1623 279.656 67.2943 279.644 67.3423 279.62C67.3503 279.612 67.3583 279.592 67.3663 279.56C67.3823 279.52 67.3903 279.48 67.3903 279.44C67.3903 279.28 67.2903 279.172 67.0903 279.116C67.0263 279.1 66.7823 279.032 66.3583 278.912C65.9343 278.792 65.5863 278.576 65.3143 278.264C65.0503 277.944 64.9183 277.548 64.9183 277.076C64.9183 276.828 64.9743 276.552 65.0863 276.248C65.1983 275.944 65.3183 275.752 65.4463 275.672C65.5423 275.608 65.7743 275.544 66.1423 275.48C66.5103 275.408 66.8503 275.372 67.1623 275.372C67.8263 275.372 68.4943 275.42 69.1663 275.516C69.1663 275.66 69.1463 275.904 69.1063 276.248C69.0663 276.584 69.0303 276.796 68.9983 276.884C68.3183 276.796 67.7703 276.752 67.3543 276.752C67.1383 276.752 66.9983 276.764 66.9343 276.788C66.9183 276.796 66.9023 276.82 66.8863 276.86C66.8703 276.892 66.8623 276.936 66.8623 276.992C66.8623 277.104 66.8983 277.184 66.9703 277.232C67.0423 277.288 67.2303 277.356 67.5343 277.436C67.8943 277.54 68.2023 277.648 68.4583 277.76C68.7223 277.872 68.9503 278.04 69.1423 278.264C69.3423 278.488 69.4423 278.776 69.4423 279.128ZM72.6669 278.732C72.6669 278.876 72.6709 279.028 72.6789 279.188C72.6869 279.34 72.7109 279.436 72.7509 279.476C72.8069 279.532 73.0029 279.56 73.3389 279.56L73.7469 279.548C73.8189 279.932 73.8549 280.376 73.8549 280.88C73.7029 280.936 73.4789 280.988 73.1829 281.036C72.8949 281.084 72.6189 281.108 72.3549 281.108C71.8029 281.108 71.3749 280.988 71.0709 280.748C70.7749 280.5 70.6269 280.12 70.6269 279.608V276.656H69.7269V275.564L70.6269 275.48L71.1669 274.16L72.6669 274.076V275.48H73.9389V276.656H72.6669V278.732Z" fill="#A8DADC"/>
<path d="M61.5076 157.156C60.5476 157.156 59.8276 156.932 59.3476 156.484C58.8756 156.028 58.6396 155.312 58.6396 154.336C58.6396 153.8 58.6876 153.332 58.7836 152.932C58.8876 152.524 59.0116 152.24 59.1556 152.08C59.3396 151.872 59.6756 151.7 60.1636 151.564C60.6596 151.428 61.1236 151.36 61.5556 151.36C62.5876 151.36 63.3236 151.58 63.7636 152.02C64.2036 152.46 64.4236 153.164 64.4236 154.132C64.4236 155.172 64.1876 155.936 63.7156 156.424C63.2436 156.912 62.5076 157.156 61.5076 157.156ZM61.5436 155.752C61.8556 155.752 62.0596 155.644 62.1556 155.428C62.2516 155.204 62.2996 154.812 62.2996 154.252C62.2996 153.86 62.2796 153.56 62.2396 153.352C62.1996 153.136 62.1236 152.98 62.0116 152.884C61.9076 152.78 61.7436 152.728 61.5196 152.728C61.1996 152.728 61.0156 152.756 60.9676 152.812C60.9036 152.868 60.8516 153.044 60.8116 153.34C60.7716 153.636 60.7516 153.944 60.7516 154.264C60.7516 154.808 60.8036 155.192 60.9076 155.416C61.0196 155.64 61.2316 155.752 61.5436 155.752ZM70.7268 151.48V157H69.0588L68.8308 156.076C68.2548 156.772 67.5668 157.12 66.7668 157.12C66.4788 157.12 66.2068 157.08 65.9508 157C65.7028 156.92 65.5148 156.804 65.3868 156.652C65.3148 156.564 65.2588 156.344 65.2188 155.992C65.1868 155.64 65.1708 155.104 65.1708 154.384V151.48H67.2228V154.36C67.2228 154.52 67.2268 154.708 67.2348 154.924C67.2428 155.14 67.2668 155.276 67.3068 155.332C67.3628 155.412 67.5228 155.452 67.7868 155.452L67.9788 155.44C68.2028 155.432 68.4348 155.38 68.6748 155.284V151.48H70.7268ZM74.2548 154.732C74.2548 154.876 74.2588 155.028 74.2668 155.188C74.2748 155.34 74.2988 155.436 74.3388 155.476C74.3948 155.532 74.5908 155.56 74.9268 155.56L75.3348 155.548C75.4068 155.932 75.4428 156.376 75.4428 156.88C75.2908 156.936 75.0668 156.988 74.7708 157.036C74.4828 157.084 74.2068 157.108 73.9428 157.108C73.3908 157.108 72.9628 156.988 72.6588 156.748C72.3628 156.5 72.2148 156.12 72.2148 155.608V152.656H71.3148V151.564L72.2148 151.48L72.7548 150.16L74.2548 150.076V151.48H75.5268V152.656H74.2548V154.732Z" fill="#A8DADC"/>
<path d="M18.7553 150.796C18.4833 150.796 18.2473 150.704 18.0473 150.52C17.8553 150.336 17.7593 150.116 17.7593 149.86C17.7593 149.604 17.8553 149.384 18.0473 149.2C18.2473 149.016 18.4833 148.924 18.7553 148.924C19.0273 148.924 19.2593 149.016 19.4513 149.2C19.6433 149.384 19.7393 149.604 19.7393 149.86C19.7393 150.116 19.6433 150.336 19.4513 150.52C19.2593 150.704 19.0273 150.796 18.7553 150.796ZM17.7233 151.48H19.7753V157H17.7233V151.48ZM26.1328 151.828C26.2048 151.916 26.2568 152.136 26.2888 152.488C26.3288 152.84 26.3488 153.376 26.3488 154.096V157H24.2968V154.12V153.628C24.2968 153.372 24.2768 153.212 24.2368 153.148C24.1728 153.068 24.0248 153.028 23.7928 153.028C23.6808 153.028 23.5968 153.032 23.5408 153.04C23.3168 153.048 23.0848 153.1 22.8448 153.196V157H20.7928V151.48H22.4608L22.6888 152.404C23.2648 151.708 23.9528 151.36 24.7528 151.36C25.0408 151.36 25.3088 151.4 25.5568 151.48C25.8128 151.56 26.0048 151.676 26.1328 151.828Z" fill="#A8DADC"/>
<path d="M17.5666 114.56C17.7666 114.56 18.1386 114.54 18.6826 114.5C18.7546 114.5 18.8866 114.492 19.0786 114.476L19.2586 115.712C18.6426 116 17.8426 116.144 16.8586 116.144C15.9386 116.144 15.2306 115.912 14.7346 115.448C14.2466 114.984 14.0026 114.284 14.0026 113.348C14.0026 112.868 14.0626 112.404 14.1826 111.956C14.3106 111.508 14.4546 111.196 14.6146 111.02C14.7826 110.844 15.0946 110.692 15.5506 110.564C16.0066 110.436 16.4586 110.372 16.9066 110.372C17.6266 110.372 18.1666 110.5 18.5266 110.756C18.8866 111.012 19.1226 111.368 19.2346 111.824C19.3466 112.272 19.4026 112.876 19.4026 113.636C18.8586 113.668 18.3266 113.684 17.8066 113.684H16.1026C16.1026 113.94 16.1546 114.132 16.2586 114.26C16.3706 114.388 16.5266 114.472 16.7266 114.512C16.9266 114.544 17.2066 114.56 17.5666 114.56ZM16.2226 111.8C16.1746 111.824 16.1386 111.928 16.1146 112.112C16.0906 112.296 16.0746 112.504 16.0666 112.736H16.6906C17.0666 112.736 17.3386 112.732 17.5066 112.724C17.5066 112.34 17.4506 112.068 17.3386 111.908C17.2346 111.748 17.0506 111.668 16.7866 111.668C16.5706 111.668 16.3826 111.712 16.2226 111.8ZM21.1328 113.18L19.7528 110.48H21.7448L22.7408 112.616L23.7488 110.48H25.7288L24.3608 113.18L25.8608 116H23.8568L22.7408 113.72L21.6248 116H19.6208L21.1328 113.18ZM28.8798 113.732C28.8798 113.876 28.8838 114.028 28.8918 114.188C28.8998 114.34 28.9238 114.436 28.9638 114.476C29.0198 114.532 29.2158 114.56 29.5518 114.56L29.9598 114.548C30.0318 114.932 30.0678 115.376 30.0678 115.88C29.9158 115.936 29.6918 115.988 29.3958 116.036C29.1078 116.084 28.8318 116.108 28.5678 116.108C28.0158 116.108 27.5878 115.988 27.2838 115.748C26.9878 115.5 26.8398 115.12 26.8398 114.608V111.656H25.9398V110.564L26.8398 110.48L27.3798 109.16L28.8798 109.076V110.48H30.1518V111.656H28.8798V113.732Z" fill="#A8DADC"/>
<path d="M63.8515 110.36C63.9555 110.36 64.0635 110.372 64.1755 110.396C64.2955 110.42 64.3835 110.448 64.4395 110.48C64.4395 110.656 64.4195 110.948 64.3795 111.356C64.3395 111.756 64.3035 112.04 64.2715 112.208C64.1915 112.2 64.0435 112.196 63.8275 112.196C63.3235 112.196 62.8755 112.224 62.4835 112.28V116H60.4315V110.48H62.1475L62.3875 111.368H62.3995C62.6315 111.064 62.8795 110.82 63.1435 110.636C63.4075 110.452 63.6435 110.36 63.8515 110.36ZM69.4423 114.128C69.4423 114.84 69.2143 115.352 68.7583 115.664C68.3103 115.976 67.6703 116.132 66.8383 116.132C66.2543 116.132 65.5823 116.048 64.8223 115.88C64.8383 115.72 64.8743 115.492 64.9303 115.196C64.9943 114.892 65.0463 114.66 65.0863 114.5C65.3743 114.548 65.6943 114.588 66.0463 114.62C66.3983 114.644 66.6983 114.656 66.9463 114.656C67.1623 114.656 67.2943 114.644 67.3423 114.62C67.3503 114.612 67.3583 114.592 67.3663 114.56C67.3823 114.52 67.3903 114.48 67.3903 114.44C67.3903 114.28 67.2903 114.172 67.0903 114.116C67.0263 114.1 66.7823 114.032 66.3583 113.912C65.9343 113.792 65.5863 113.576 65.3143 113.264C65.0503 112.944 64.9183 112.548 64.9183 112.076C64.9183 111.828 64.9743 111.552 65.0863 111.248C65.1983 110.944 65.3183 110.752 65.4463 110.672C65.5423 110.608 65.7743 110.544 66.1423 110.48C66.5103 110.408 66.8503 110.372 67.1623 110.372C67.8263 110.372 68.4943 110.42 69.1663 110.516C69.1663 110.66 69.1463 110.904 69.1063 111.248C69.0663 111.584 69.0303 111.796 68.9983 111.884C68.3183 111.796 67.7703 111.752 67.3543 111.752C67.1383 111.752 66.9983 111.764 66.9343 111.788C66.9183 111.796 66.9023 111.82 66.8863 111.86C66.8703 111.892 66.8623 111.936 66.8623 111.992C66.8623 112.104 66.8983 112.184 66.9703 112.232C67.0423 112.288 67.2303 112.356 67.5343 112.436C67.8943 112.54 68.2023 112.648 68.4583 112.76C68.7223 112.872 68.9503 113.04 69.1423 113.264C69.3423 113.488 69.4423 113.776 69.4423 114.128ZM72.6669 113.732C72.6669 113.876 72.6709 114.028 72.6789 114.188C72.6869 114.34 72.7109 114.436 72.7509 114.476C72.8069 114.532 73.0029 114.56 73.3389 114.56L73.7469 114.548C73.8189 114.932 73.8549 115.376 73.8549 115.88C73.7029 115.936 73.4789 115.988 73.1829 116.036C72.8949 116.084 72.6189 116.108 72.3549 116.108C71.8029 116.108 71.3749 115.988 71.0709 115.748C70.7749 115.5 70.6269 115.12 70.6269 114.608V111.656H69.7269V110.564L70.6269 110.48L71.1669 109.16L72.6669 109.076V110.48H73.9389V111.656H72.6669V113.732Z" fill="#A8DADC"/>
<path d="M69.6674 50.4312C69.3954 50.4312 69.1594 50.3392 68.9594 50.1552C68.7674 49.9712 68.6714 49.7512 68.6714 49.4952C68.6714 49.2392 68.7674 49.0192 68.9594 48.8352C69.1594 48.6512 69.3954 48.5592 69.6674 48.5592C69.9394 48.5592 70.1714 48.6512 70.3634 48.8352C70.5554 49.0192 70.6514 49.2392 70.6514 49.4952C70.6514 49.7512 70.5554 49.9712 70.3634 50.1552C70.1714 50.3392 69.9394 50.4312 69.6674 50.4312ZM68.6354 51.1152H70.6874V56.6352H68.6354V51.1152ZM77.0449 51.4632C77.1169 51.5512 77.1689 51.7712 77.2009 52.1232C77.2409 52.4752 77.2609 53.0112 77.2609 53.7312V56.6352H75.2089V53.7552V53.2632C75.2089 53.0072 75.1889 52.8472 75.1489 52.7832C75.0849 52.7032 74.9369 52.6632 74.7049 52.6632C74.5929 52.6632 74.5089 52.6672 74.4529 52.6752C74.2289 52.6832 73.9969 52.7352 73.7569 52.8312V56.6352H71.7049V51.1152H73.3729L73.6009 52.0392C74.1769 51.3432 74.8649 50.9952 75.6649 50.9952C75.9529 50.9952 76.2209 51.0352 76.4689 51.1152C76.7249 51.1952 76.9169 51.3112 77.0449 51.4632ZM81.7608 51.1152H83.9088L82.2288 56.6352H79.3848L77.7048 51.1152H79.8528L80.7528 55.3512H80.8728L81.7608 51.1152Z" fill="#A8DADC"/>
<path d="M42.9132 338.564V334.406L47.0712 336.492L42.9132 338.564Z" fill="#A8DADC"/>
<path d="M42.9132 173.564V169.406L47.0712 171.492L42.9132 173.564Z" fill="#A8DADC"/>
<path d="M20 195H70" stroke="#A8DADC" stroke-width="0.5"/>
</svg>
