<svg width="91" height="380" viewBox="0 0 91 380" fill="none" xmlns="http://www.w3.org/2000/svg">
<g clip-path="url(#clip0)">
<rect x="0.75" width="90" height="380" fill="#457B9D"/>
<g opacity="0.3">
<path fill-rule="evenodd" clip-rule="evenodd" d="M39.708 375.599C39.553 375.747 39.409 375.851 39.276 375.909C39.143 375.968 39.001 375.998 38.85 375.998C38.698 375.998 38.556 375.97 38.423 375.914C38.29 375.858 38.174 375.781 38.075 375.682C37.859 375.466 37.75 375.209 37.75 374.912V369.385C37.75 369.082 37.828 368.847 37.982 368.68C38.248 368.408 38.5 368.272 38.738 368.272C38.976 368.272 39.154 368.296 39.272 368.346C39.389 368.395 39.488 368.457 39.568 368.531C39.674 368.624 39.752 368.723 39.805 368.828C39.858 368.933 39.901 369.011 39.935 369.06C39.969 369.11 40.025 369.134 40.102 369.134C40.179 369.134 40.246 369.11 40.301 369.06L40.459 368.902C40.91 368.482 41.362 368.272 41.813 368.272C42.611 368.272 43.269 368.599 43.789 369.255C43.838 369.323 43.9 369.357 43.974 369.357C44.104 369.357 44.236 369.256 44.369 369.055C44.502 368.854 44.716 368.674 45.013 368.513C45.31 368.352 45.656 368.272 46.052 368.272C46.448 368.272 46.808 368.344 47.133 368.49C47.457 368.635 47.74 368.834 47.981 369.088C48.488 369.62 48.742 370.263 48.742 371.017V374.912C48.742 375.382 48.519 375.713 48.074 375.905C47.938 375.967 47.794 375.998 47.643 375.998C47.491 375.998 47.349 375.97 47.216 375.914C47.083 375.858 46.967 375.781 46.868 375.682C46.658 375.46 46.553 375.203 46.553 374.912V371.045C46.553 370.736 46.476 370.504 46.321 370.349C46.049 370.077 45.799 369.941 45.57 369.941C45.341 369.941 45.162 369.971 45.032 370.029C44.902 370.088 44.784 370.17 44.679 370.275C44.463 370.492 44.355 370.742 44.355 371.026V374.912C44.355 375.382 44.135 375.713 43.696 375.905C43.56 375.967 43.416 375.998 43.265 375.998C43.113 375.998 42.97 375.97 42.833 375.914C42.697 375.858 42.58 375.781 42.481 375.682C42.265 375.466 42.156 375.209 42.156 374.912V371.045C42.156 370.736 42.079 370.504 41.924 370.349C41.652 370.077 41.368 369.941 41.071 369.941C40.576 369.941 40.233 370.133 40.042 370.516C39.98 370.64 39.949 370.779 39.949 370.934V374.912C39.949 375.215 39.868 375.444 39.708 375.599ZM50.969 369.387C50.969 369.084 51.046 368.849 51.201 368.682C51.466 368.41 51.76 368.274 52.082 368.274C52.391 368.274 52.62 368.355 52.768 368.515C53.04 368.794 53.176 369.084 53.176 369.387V374.915C53.176 375.212 53.099 375.437 52.944 375.592C52.672 375.864 52.422 376 52.193 376C51.964 376 51.782 375.971 51.646 375.912C51.51 375.853 51.392 375.777 51.293 375.685C51.077 375.474 50.969 375.218 50.969 374.915V369.387ZM52.077 365.9C51.815 365.9 51.602 365.687 51.602 365.425C51.602 365.162 51.815 364.95 52.077 364.95C52.339 364.95 52.552 365.162 52.552 365.425C52.552 365.687 52.339 365.9 52.077 365.9ZM52.077 364C52.464 364 52.798 364.142 53.079 364.425C53.361 364.709 53.502 364.996 53.502 365.287C53.502 365.577 53.463 365.807 53.385 365.978C53.308 366.148 53.206 366.297 53.079 366.424C52.798 366.708 52.464 366.849 52.077 366.849C51.69 366.849 51.356 366.708 51.074 366.424C50.793 366.141 50.652 365.857 50.652 365.574C50.652 365.092 50.793 364.709 51.074 364.425C51.356 364.142 51.69 364 52.077 364Z" fill="#1D3557"/>
</g>
<path d="M31.6869 15.5954H36.1859V16.9594H33.6669V18.2024H35.7459V19.4014H33.6669V21.8654H31.6869V15.5954ZM37.3824 15.5954H39.3624V20.4134H41.9254V21.8654H37.3824V15.5954ZM46.2438 22.0084C45.1512 22.0084 44.3298 21.7517 43.7798 21.2384C43.2372 20.7177 42.9658 19.8854 42.9658 18.7414C42.9658 17.6194 43.2665 16.8017 43.8678 16.2884C44.4692 15.775 45.2648 15.5184 46.2548 15.5184C48.3375 15.5184 49.3788 16.556 49.3788 18.6314C49.3788 19.68 49.1222 20.505 48.6088 21.1064C48.1028 21.7077 47.3145 22.0084 46.2438 22.0084ZM46.1998 20.7104C46.4052 20.7104 46.5775 20.6774 46.7168 20.6114C46.8562 20.538 46.9662 20.4134 47.0468 20.2374C47.2008 19.9367 47.2778 19.4454 47.2778 18.7634C47.2778 18.096 47.2008 17.612 47.0468 17.3114C46.8928 17.0034 46.6105 16.842 46.1998 16.8274C46.0458 16.8274 45.8845 16.8457 45.7158 16.8824C45.5545 16.9117 45.4518 16.9557 45.4078 17.0144C45.3198 17.117 45.2502 17.337 45.1988 17.6744C45.1548 18.0044 45.1328 18.3674 45.1328 18.7634C45.1328 19.3794 45.1915 19.8304 45.3088 20.1164C45.3895 20.329 45.5032 20.483 45.6498 20.5784C45.7965 20.6664 45.9798 20.7104 46.1998 20.7104ZM54.5002 21.8654H52.0252L50.4082 15.5954H52.5202L53.3562 20.2044H53.4112L54.3022 15.5954H56.3702L57.2832 20.2044H57.3162L58.1632 15.5954H60.1872L58.5702 21.8654H56.1062L55.3582 17.8614H55.2922L54.5002 21.8654Z" fill="white"/>
<path d="M31.707 45.0977C33.2939 45.0977 34.1973 44.126 34.1973 42.6367V42.0361C34.1973 40.542 33.2891 39.5703 31.7021 39.5703C30.1201 39.5703 29.2119 40.5371 29.2119 42.0361V42.6367C29.2119 44.126 30.125 45.0977 31.707 45.0977ZM31.707 44.0771C30.9795 44.0771 30.5449 43.5352 30.5449 42.6416V42.0215C30.5449 41.1279 30.9795 40.5908 31.707 40.5908C32.4297 40.5908 32.8643 41.1279 32.8643 42.0215V42.6416C32.8643 43.5352 32.4297 44.0771 31.707 44.0771ZM37.2852 45V41.7529H37.334L39.6484 45H40.6885V39.668H39.4629V42.8857H39.4141L37.1094 39.668H36.0645V45H37.2852ZM43.2441 45.7275L45.1973 38.9648H44.0547L42.1016 45.7275H43.2441ZM48.8711 45.0977C50.458 45.0977 51.3613 44.126 51.3613 42.6367V42.0361C51.3613 40.542 50.4531 39.5703 48.8662 39.5703C47.2842 39.5703 46.376 40.5371 46.376 42.0361V42.6367C46.376 44.126 47.2891 45.0977 48.8711 45.0977ZM48.8711 44.0771C48.1436 44.0771 47.709 43.5352 47.709 42.6416V42.0215C47.709 41.1279 48.1436 40.5908 48.8711 40.5908C49.5938 40.5908 50.0283 41.1279 50.0283 42.0215V42.6416C50.0283 43.5352 49.5938 44.0771 48.8711 44.0771ZM54.5371 45V42.9736H56.7344V41.9971H54.5371V40.6738H56.9541V39.668H53.2285V45H54.5371ZM59.998 45V42.9736H62.1953V41.9971H59.998V40.6738H62.415V39.668H58.6895V45H59.998Z" fill="white"/>
<path d="M32.207 215.098C33.7939 215.098 34.6973 214.126 34.6973 212.637V212.036C34.6973 210.542 33.7891 209.57 32.2021 209.57C30.6201 209.57 29.7119 210.537 29.7119 212.036V212.637C29.7119 214.126 30.625 215.098 32.207 215.098ZM32.207 214.077C31.4795 214.077 31.0449 213.535 31.0449 212.642V212.021C31.0449 211.128 31.4795 210.591 32.207 210.591C32.9297 210.591 33.3643 211.128 33.3643 212.021V212.642C33.3643 213.535 32.9297 214.077 32.207 214.077ZM37.7852 215V211.753H37.834L40.1484 215H41.1885V209.668H39.9629V212.886H39.9141L37.6094 209.668H36.5645V215H37.7852ZM43.7441 215.728L45.6973 208.965H44.5547L42.6016 215.728H43.7441ZM49.3711 215.098C50.958 215.098 51.8613 214.126 51.8613 212.637V212.036C51.8613 210.542 50.9531 209.57 49.3662 209.57C47.7842 209.57 46.876 210.537 46.876 212.036V212.637C46.876 214.126 47.7891 215.098 49.3711 215.098ZM49.3711 214.077C48.6436 214.077 48.209 213.535 48.209 212.642V212.021C48.209 211.128 48.6436 210.591 49.3711 210.591C50.0938 210.591 50.5283 211.128 50.5283 212.021V212.642C50.5283 213.535 50.0938 214.077 49.3711 214.077ZM55.0371 215V212.974H57.2344V211.997H55.0371V210.674H57.4541V209.668H53.7285V215H55.0371ZM60.498 215V212.974H62.6953V211.997H60.498V210.674H62.915V209.668H59.1895V215H60.498Z" fill="white"/>
<path d="M61.6836 330.098C63.2705 330.098 64.1738 329.126 64.1738 327.637V327.036C64.1738 325.542 63.2656 324.57 61.6787 324.57C60.0967 324.57 59.1885 325.537 59.1885 327.036V327.637C59.1885 329.126 60.1016 330.098 61.6836 330.098ZM61.6836 329.077C60.9561 329.077 60.5215 328.535 60.5215 327.642V327.021C60.5215 326.128 60.9561 325.591 61.6836 325.591C62.4062 325.591 62.8408 326.128 62.8408 327.021V327.642C62.8408 328.535 62.4062 329.077 61.6836 329.077ZM68.3213 329.048C67.7109 329.048 67.2861 328.687 67.2861 327.998V324.668H65.9727V328.145C65.9727 329.336 66.876 330.098 68.3213 330.098C69.7666 330.098 70.6699 329.331 70.6699 328.145V324.668H69.3613V327.998C69.3613 328.682 68.9316 329.048 68.3213 329.048ZM75.042 330V325.688H76.5898V324.668H72.1855V325.688H73.7334V330H75.042Z" fill="white"/>
<path d="M20.0439 330V324.668H18.7354V330H20.0439ZM23.3564 330V326.753H23.4053L25.7197 330H26.7598V324.668H25.5342V327.886H25.4854L23.1807 324.668H22.1357V330H23.3564Z" fill="white"/>
<path d="M18.8711 284.004H16.415V282.778H18.7197V281.851H16.415V280.664H18.8711V279.668H15.1211V285H18.8711V284.004ZM25.333 279.668H23.873L22.8232 281.484H22.7646L21.7148 279.668H20.1816L21.876 282.314L20.1768 285H21.583L22.6768 283.228H22.7354L23.8291 285H25.3135L23.5703 282.334L25.333 279.668ZM29.3389 285V280.688H30.8867V279.668H26.4824V280.688H28.0303V285H29.3389Z" fill="white"/>
<path d="M62.2451 279.668H59.8916V285H61.1758V283.081H62.001L62.9629 285H64.4131L63.29 282.905C63.7783 282.725 64.3057 282.188 64.3057 281.406C64.3057 280.337 63.5439 279.668 62.2451 279.668ZM61.1758 282.183V280.62H62.0547C62.582 280.62 62.9531 280.898 62.9531 281.416C62.9531 281.929 62.5918 282.183 62.04 282.183H61.1758ZM65.8408 283.447C65.8555 284.346 66.5732 285.098 68.1016 285.098C69.6055 285.098 70.4014 284.385 70.4014 283.384C70.4014 282.446 69.7812 282.036 68.8828 281.86L68.0967 281.709C67.5449 281.597 67.2715 281.436 67.2715 281.123C67.2715 280.781 67.5791 280.522 68.1406 280.522C68.7266 280.522 69.0684 280.815 69.0977 281.187H70.3037C70.2939 280.337 69.5615 279.565 68.1455 279.565C66.8369 279.565 65.9629 280.22 65.9629 281.221C65.9629 282.09 66.5195 282.544 67.5156 282.744L68.2627 282.896C68.8291 283.013 69.1074 283.179 69.1074 283.511C69.1074 283.872 68.7949 284.131 68.1553 284.131C67.5205 284.131 67.1201 283.833 67.0908 283.447H65.8408ZM74.5684 285V280.688H76.1162V279.668H71.7119V280.688H73.2598V285H74.5684Z" fill="white"/>
<path d="M62.1836 160.098C63.7705 160.098 64.6738 159.126 64.6738 157.637V157.036C64.6738 155.542 63.7656 154.57 62.1787 154.57C60.5967 154.57 59.6885 155.537 59.6885 157.036V157.637C59.6885 159.126 60.6016 160.098 62.1836 160.098ZM62.1836 159.077C61.4561 159.077 61.0215 158.535 61.0215 157.642V157.021C61.0215 156.128 61.4561 155.591 62.1836 155.591C62.9062 155.591 63.3408 156.128 63.3408 157.021V157.642C63.3408 158.535 62.9062 159.077 62.1836 159.077ZM68.8213 159.048C68.2109 159.048 67.7861 158.687 67.7861 157.998V154.668H66.4727V158.145C66.4727 159.336 67.376 160.098 68.8213 160.098C70.2666 160.098 71.1699 159.331 71.1699 158.145V154.668H69.8613V157.998C69.8613 158.682 69.4316 159.048 68.8213 159.048ZM75.542 160V155.688H77.0898V154.668H72.6855V155.688H74.2334V160H75.542Z" fill="white"/>
<path d="M20.0439 160V154.668H18.7354V160H20.0439ZM23.3564 160V156.753H23.4053L25.7197 160H26.7598V154.668H25.5342V157.886H25.4854L23.1807 154.668H22.1357V160H23.3564Z" fill="white"/>
<path d="M18.8711 114.004H16.415V112.778H18.7197V111.851H16.415V110.664H18.8711V109.668H15.1211V115H18.8711V114.004ZM25.333 109.668H23.873L22.8232 111.484H22.7646L21.7148 109.668H20.1816L21.876 112.314L20.1768 115H21.583L22.6768 113.228H22.7354L23.8291 115H25.3135L23.5703 112.334L25.333 109.668ZM29.3389 115V110.688H30.8867V109.668H26.4824V110.688H28.0303V115H29.3389Z" fill="white"/>
<path d="M61.7451 109.668H59.3916V115H60.6758V113.081H61.501L62.4629 115H63.9131L62.79 112.905C63.2783 112.725 63.8057 112.188 63.8057 111.406C63.8057 110.337 63.0439 109.668 61.7451 109.668ZM60.6758 112.183V110.62H61.5547C62.082 110.62 62.4531 110.898 62.4531 111.416C62.4531 111.929 62.0918 112.183 61.54 112.183H60.6758ZM65.3408 113.447C65.3555 114.346 66.0732 115.098 67.6016 115.098C69.1055 115.098 69.9014 114.385 69.9014 113.384C69.9014 112.446 69.2812 112.036 68.3828 111.86L67.5967 111.709C67.0449 111.597 66.7715 111.436 66.7715 111.123C66.7715 110.781 67.0791 110.522 67.6406 110.522C68.2266 110.522 68.5684 110.815 68.5977 111.187H69.8037C69.7939 110.337 69.0615 109.565 67.6455 109.565C66.3369 109.565 65.4629 110.22 65.4629 111.221C65.4629 112.09 66.0195 112.544 67.0156 112.744L67.7627 112.896C68.3291 113.013 68.6074 113.179 68.6074 113.511C68.6074 113.872 68.2949 114.131 67.6553 114.131C67.0205 114.131 66.6201 113.833 66.5908 113.447H65.3408ZM74.0684 115V110.688H75.6162V109.668H71.2119V110.688H72.7598V115H74.0684Z" fill="white"/>
<path d="M70.9229 56.6352V51.3032H69.6143V56.6352H70.9229ZM74.2354 56.6352V53.3881H74.2842L76.5986 56.6352H77.6387V51.3032H76.4131V54.5209H76.3643L74.0596 51.3032H73.0146V56.6352H74.2354ZM82.6357 56.6352L84.4326 51.3032H82.9824L81.8838 55.3071H81.8203L80.707 51.3032H79.1885L81.0098 56.6352H82.6357Z" fill="white"/>
<path d="M43.6632 348.564V344.406L47.8212 346.492L43.6632 348.564Z" fill="white"/>
<path d="M43.6632 178.564V174.406L47.8212 176.492L43.6632 178.564Z" fill="white"/>
<path opacity="0.5" d="M0.75 200H90.75" stroke="#1D3557"/>
</g>
<defs>
<clipPath id="clip0">
<rect width="90" height="380" fill="white" transform="translate(0.75)"/>
</clipPath>
</defs>
</svg>
