<svg width="90" height="380" viewBox="0 0 90 380" fill="none" xmlns="http://www.w3.org/2000/svg">
<rect width="90" height="380" fill="#457B9D"/>
<g opacity="0.5">
<path fill-rule="evenodd" clip-rule="evenodd" d="M38.958 375.599C38.803 375.747 38.659 375.851 38.526 375.909C38.393 375.968 38.251 375.998 38.1 375.998C37.948 375.998 37.806 375.97 37.673 375.914C37.54 375.858 37.424 375.781 37.325 375.682C37.109 375.466 37 375.209 37 374.912V369.385C37 369.082 37.078 368.847 37.232 368.68C37.498 368.408 37.75 368.272 37.988 368.272C38.226 368.272 38.404 368.296 38.522 368.346C38.639 368.395 38.738 368.457 38.818 368.531C38.924 368.624 39.002 368.723 39.055 368.828C39.108 368.933 39.151 369.011 39.185 369.06C39.219 369.11 39.275 369.134 39.352 369.134C39.429 369.134 39.496 369.11 39.551 369.06L39.709 368.902C40.16 368.482 40.612 368.272 41.063 368.272C41.861 368.272 42.519 368.599 43.039 369.255C43.088 369.323 43.15 369.357 43.224 369.357C43.354 369.357 43.486 369.256 43.619 369.055C43.752 368.854 43.966 368.674 44.263 368.513C44.56 368.352 44.906 368.272 45.302 368.272C45.698 368.272 46.058 368.344 46.383 368.49C46.707 368.635 46.99 368.834 47.231 369.088C47.738 369.62 47.992 370.263 47.992 371.017V374.912C47.992 375.382 47.769 375.713 47.324 375.905C47.188 375.967 47.044 375.998 46.893 375.998C46.741 375.998 46.599 375.97 46.466 375.914C46.333 375.858 46.217 375.781 46.118 375.682C45.908 375.46 45.803 375.203 45.803 374.912V371.045C45.803 370.736 45.726 370.504 45.571 370.349C45.299 370.077 45.049 369.941 44.82 369.941C44.591 369.941 44.412 369.971 44.282 370.029C44.152 370.088 44.034 370.17 43.929 370.275C43.713 370.492 43.605 370.742 43.605 371.026V374.912C43.605 375.382 43.385 375.713 42.946 375.905C42.81 375.967 42.666 375.998 42.515 375.998C42.363 375.998 42.22 375.97 42.083 375.914C41.947 375.858 41.83 375.781 41.731 375.682C41.515 375.466 41.406 375.209 41.406 374.912V371.045C41.406 370.736 41.329 370.504 41.174 370.349C40.902 370.077 40.618 369.941 40.321 369.941C39.826 369.941 39.483 370.133 39.292 370.516C39.23 370.64 39.199 370.779 39.199 370.934V374.912C39.199 375.215 39.118 375.444 38.958 375.599ZM50.219 369.387C50.219 369.084 50.296 368.849 50.451 368.682C50.716 368.41 51.01 368.274 51.332 368.274C51.641 368.274 51.87 368.355 52.018 368.515C52.29 368.794 52.426 369.084 52.426 369.387V374.915C52.426 375.212 52.349 375.437 52.194 375.592C51.922 375.864 51.672 376 51.443 376C51.214 376 51.032 375.971 50.896 375.912C50.76 375.853 50.642 375.777 50.543 375.685C50.327 375.474 50.219 375.218 50.219 374.915V369.387ZM51.327 365.9C51.065 365.9 50.852 365.687 50.852 365.425C50.852 365.162 51.065 364.95 51.327 364.95C51.589 364.95 51.802 365.162 51.802 365.425C51.802 365.687 51.589 365.9 51.327 365.9ZM51.327 364C51.714 364 52.048 364.142 52.329 364.425C52.611 364.709 52.752 364.996 52.752 365.287C52.752 365.577 52.713 365.807 52.635 365.978C52.558 366.148 52.456 366.297 52.329 366.424C52.048 366.708 51.714 366.849 51.327 366.849C50.94 366.849 50.606 366.708 50.324 366.424C50.043 366.141 49.902 365.857 49.902 365.574C49.902 365.092 50.043 364.709 50.324 364.425C50.606 364.142 50.94 364 51.327 364Z" fill="#1D3557"/>
</g>
<path d="M27.4039 22.8654H25.0399L23.7079 20.3094C23.6839 20.2694 23.6199 20.1574 23.5159 19.9734C23.4199 19.7894 23.3119 19.6134 23.1919 19.4454V22.8654H21.0319V16.0254H23.1919V19.1334C23.3279 18.9814 23.4439 18.8174 23.5399 18.6414C23.6439 18.4574 23.7039 18.3494 23.7199 18.3174L25.0039 16.0254H27.2839L25.9159 18.3174C25.8919 18.3494 25.8399 18.4334 25.7599 18.5694C25.6799 18.7054 25.5919 18.8334 25.4959 18.9534C25.4079 19.0654 25.3119 19.1694 25.2079 19.2654C25.3519 19.4014 25.4679 19.5374 25.5559 19.6734C25.6519 19.8014 25.7599 19.9734 25.8799 20.1894L27.4039 22.8654ZM27.946 16.0254H30.106V22.8654H27.946V16.0254ZM31.2967 16.0254H33.4567V21.2814H36.2527V22.8654H31.2967V16.0254ZM37.0037 16.0254H39.1637V21.2814H41.9597V22.8654H37.0037V16.0254ZM50.5155 19.0734V22.4934C49.9795 22.6694 49.4715 22.7974 48.9915 22.8774C48.5115 22.9574 48.1075 22.9974 47.7795 22.9974C46.6915 22.9974 45.8395 22.7134 45.2235 22.1454C44.6075 21.5774 44.2995 20.7054 44.2995 19.5294C44.2995 18.3294 44.6235 17.4334 45.2715 16.8414C45.9195 16.2414 46.8315 15.9414 48.0075 15.9414C48.6235 15.9414 49.3635 16.0334 50.2275 16.2174C50.2275 16.3774 50.2115 16.6174 50.1795 16.9374C50.1475 17.2494 50.1155 17.4694 50.0835 17.5974L49.6515 17.5854C49.1235 17.5694 48.7115 17.5614 48.4155 17.5614C47.5275 17.5614 47.0435 17.6134 46.9635 17.7174C46.8355 17.8694 46.7435 18.1054 46.6875 18.4254C46.6395 18.7454 46.6155 19.0534 46.6155 19.3494C46.6155 19.8854 46.6755 20.3014 46.7955 20.5974C46.9155 20.8934 47.0995 21.1014 47.3475 21.2214C47.5955 21.3414 47.9315 21.4014 48.3555 21.4014H48.4035V19.0734H50.5155ZM55.4955 21.3654H53.5035L53.1435 22.8654H50.9355L53.1435 16.0254H55.9635L58.0755 22.8654H55.8555L55.4955 21.3654ZM54.4875 17.5014L53.7795 20.0334H55.2075L54.5355 17.5014H54.4875ZM61.7212 22.8654H59.5612V17.5254H57.6292V16.0254H63.6532V17.5254H61.7212V22.8654ZM64.2841 16.0254H69.2641V17.4654H66.4441V18.7134H68.8201V20.0094H66.4441V21.4014H69.2521V22.8654H64.2841V16.0254Z" fill="#A8DADC"/>
<rect x="9" y="50" width="30" height="20" rx="5" fill="#36617C"/>
<rect x="49" y="50" width="30" height="20" rx="5" fill="#36617C"/>
<rect x="9" y="210" width="30" height="20" rx="5" fill="#36617C"/>
<rect x="49" y="210" width="30" height="20" rx="5" fill="#36617C"/>
<path d="M18.8515 115.36C18.9555 115.36 19.0635 115.372 19.1755 115.396C19.2955 115.42 19.3835 115.448 19.4395 115.48C19.4395 115.656 19.4195 115.948 19.3795 116.356C19.3395 116.756 19.3035 117.04 19.2715 117.208C19.1915 117.2 19.0435 117.196 18.8275 117.196C18.3235 117.196 17.8755 117.224 17.4835 117.28V121H15.4315V115.48H17.1475L17.3875 116.368H17.3995C17.6315 116.064 17.8795 115.82 18.1435 115.636C18.4075 115.452 18.6435 115.36 18.8515 115.36ZM24.4423 119.128C24.4423 119.84 24.2143 120.352 23.7583 120.664C23.3103 120.976 22.6703 121.132 21.8383 121.132C21.2543 121.132 20.5823 121.048 19.8223 120.88C19.8383 120.72 19.8743 120.492 19.9303 120.196C19.9943 119.892 20.0463 119.66 20.0863 119.5C20.3743 119.548 20.6943 119.588 21.0463 119.62C21.3983 119.644 21.6983 119.656 21.9463 119.656C22.1623 119.656 22.2943 119.644 22.3423 119.62C22.3503 119.612 22.3583 119.592 22.3663 119.56C22.3823 119.52 22.3903 119.48 22.3903 119.44C22.3903 119.28 22.2903 119.172 22.0903 119.116C22.0263 119.1 21.7823 119.032 21.3583 118.912C20.9343 118.792 20.5863 118.576 20.3143 118.264C20.0503 117.944 19.9183 117.548 19.9183 117.076C19.9183 116.828 19.9743 116.552 20.0863 116.248C20.1983 115.944 20.3183 115.752 20.4463 115.672C20.5423 115.608 20.7743 115.544 21.1423 115.48C21.5103 115.408 21.8503 115.372 22.1623 115.372C22.8263 115.372 23.4943 115.42 24.1663 115.516C24.1663 115.66 24.1463 115.904 24.1063 116.248C24.0663 116.584 24.0303 116.796 23.9983 116.884C23.3183 116.796 22.7703 116.752 22.3543 116.752C22.1383 116.752 21.9983 116.764 21.9343 116.788C21.9183 116.796 21.9023 116.82 21.8863 116.86C21.8703 116.892 21.8623 116.936 21.8623 116.992C21.8623 117.104 21.8983 117.184 21.9703 117.232C22.0423 117.288 22.2303 117.356 22.5343 117.436C22.8943 117.54 23.2023 117.648 23.4583 117.76C23.7223 117.872 23.9503 118.04 24.1423 118.264C24.3423 118.488 24.4423 118.776 24.4423 119.128ZM27.6669 118.732C27.6669 118.876 27.6709 119.028 27.6789 119.188C27.6869 119.34 27.7109 119.436 27.7509 119.476C27.8069 119.532 28.0029 119.56 28.3389 119.56L28.7469 119.548C28.8189 119.932 28.8549 120.376 28.8549 120.88C28.7029 120.936 28.4789 120.988 28.1829 121.036C27.8949 121.084 27.6189 121.108 27.3549 121.108C26.8029 121.108 26.3749 120.988 26.0709 120.748C25.7749 120.5 25.6269 120.12 25.6269 119.608V116.656H24.7269V115.564L25.6269 115.48L26.1669 114.16L27.6669 114.076V115.48H28.9389V116.656H27.6669V118.732Z" fill="#A8DADC"/>
<path d="M59.7216 119.128C59.7216 119.84 59.4936 120.352 59.0376 120.664C58.5896 120.976 57.9496 121.132 57.1176 121.132C56.5336 121.132 55.8616 121.048 55.1016 120.88C55.1176 120.72 55.1536 120.492 55.2096 120.196C55.2736 119.892 55.3256 119.66 55.3656 119.5C55.6536 119.548 55.9736 119.588 56.3256 119.62C56.6776 119.644 56.9776 119.656 57.2256 119.656C57.4416 119.656 57.5736 119.644 57.6216 119.62C57.6296 119.612 57.6376 119.592 57.6456 119.56C57.6616 119.52 57.6696 119.48 57.6696 119.44C57.6696 119.28 57.5696 119.172 57.3696 119.116C57.3056 119.1 57.0616 119.032 56.6376 118.912C56.2136 118.792 55.8656 118.576 55.5936 118.264C55.3296 117.944 55.1976 117.548 55.1976 117.076C55.1976 116.828 55.2536 116.552 55.3656 116.248C55.4776 115.944 55.5976 115.752 55.7256 115.672C55.8216 115.608 56.0536 115.544 56.4216 115.48C56.7896 115.408 57.1296 115.372 57.4416 115.372C58.1056 115.372 58.7736 115.42 59.4456 115.516C59.4456 115.66 59.4256 115.904 59.3856 116.248C59.3456 116.584 59.3096 116.796 59.2776 116.884C58.5976 116.796 58.0496 116.752 57.6336 116.752C57.4176 116.752 57.2776 116.764 57.2136 116.788C57.1976 116.796 57.1816 116.82 57.1656 116.86C57.1496 116.892 57.1416 116.936 57.1416 116.992C57.1416 117.104 57.1776 117.184 57.2496 117.232C57.3216 117.288 57.5096 117.356 57.8136 117.436C58.1736 117.54 58.4816 117.648 58.7376 117.76C59.0016 117.872 59.2296 118.04 59.4216 118.264C59.6216 118.488 59.7216 118.776 59.7216 119.128ZM62.9462 118.732C62.9462 118.876 62.9502 119.028 62.9582 119.188C62.9662 119.34 62.9902 119.436 63.0302 119.476C63.0862 119.532 63.2822 119.56 63.6182 119.56L64.0262 119.548C64.0982 119.932 64.1342 120.376 64.1342 120.88C63.9822 120.936 63.7582 120.988 63.4622 121.036C63.1742 121.084 62.8982 121.108 62.6342 121.108C62.0822 121.108 61.6542 120.988 61.3502 120.748C61.0542 120.5 60.9062 120.12 60.9062 119.608V116.656H60.0062V115.564L60.9062 115.48L61.4462 114.16L62.9462 114.076V115.48H64.2182V116.656H62.9462V118.732ZM68.6238 115.36C69.1998 115.36 69.6558 115.552 69.9918 115.936C70.3358 116.312 70.5078 116.972 70.5078 117.916C70.5078 118.62 70.4398 119.196 70.3038 119.644C70.1678 120.084 70.0118 120.376 69.8358 120.52C69.6598 120.664 69.3518 120.78 68.9118 120.868C68.4798 120.956 68.0318 121 67.5678 121C67.4318 121 67.2038 120.992 66.8838 120.976V122.68L64.8318 122.764V115.48H66.5118L66.7158 116.332C66.9238 116.036 67.1878 115.8 67.5078 115.624C67.8358 115.448 68.2078 115.36 68.6238 115.36ZM68.1438 119.536C68.2318 119.472 68.2958 119.292 68.3358 118.996C68.3758 118.692 68.3958 118.404 68.3958 118.132C68.3958 117.684 68.3398 117.352 68.2278 117.136C68.1158 116.92 67.8918 116.812 67.5558 116.812C67.3158 116.812 67.0918 116.836 66.8838 116.884V119.548L67.2198 119.584C67.3238 119.592 67.4718 119.596 67.6638 119.596C67.9358 119.596 68.0958 119.576 68.1438 119.536ZM74.185 114.796C73.913 114.796 73.677 114.704 73.477 114.52C73.285 114.336 73.189 114.116 73.189 113.86C73.189 113.604 73.285 113.384 73.477 113.2C73.677 113.016 73.913 112.924 74.185 112.924C74.457 112.924 74.689 113.016 74.881 113.2C75.073 113.384 75.169 113.604 75.169 113.86C75.169 114.116 75.073 114.336 74.881 114.52C74.689 114.704 74.457 114.796 74.185 114.796ZM73.153 115.48H75.205V121H73.153V115.48ZM81.5625 115.828C81.6345 115.916 81.6865 116.136 81.7185 116.488C81.7585 116.84 81.7785 117.376 81.7785 118.096V121H79.7265V118.12V117.628C79.7265 117.372 79.7065 117.212 79.6665 117.148C79.6025 117.068 79.4545 117.028 79.2225 117.028C79.1105 117.028 79.0265 117.032 78.9705 117.04C78.7465 117.048 78.5145 117.1 78.2745 117.196V121H76.2225V115.48H77.8905L78.1185 116.404C78.6945 115.708 79.3825 115.36 80.1825 115.36C80.4705 115.36 80.7385 115.4 80.9865 115.48C81.2425 115.56 81.4345 115.676 81.5625 115.828Z" fill="#A8DADC"/>
<path d="M61.5076 166.156C60.5476 166.156 59.8276 165.932 59.3476 165.484C58.8756 165.028 58.6396 164.312 58.6396 163.336C58.6396 162.8 58.6876 162.332 58.7836 161.932C58.8876 161.524 59.0116 161.24 59.1556 161.08C59.3396 160.872 59.6756 160.7 60.1636 160.564C60.6596 160.428 61.1236 160.36 61.5556 160.36C62.5876 160.36 63.3236 160.58 63.7636 161.02C64.2036 161.46 64.4236 162.164 64.4236 163.132C64.4236 164.172 64.1876 164.936 63.7156 165.424C63.2436 165.912 62.5076 166.156 61.5076 166.156ZM61.5436 164.752C61.8556 164.752 62.0596 164.644 62.1556 164.428C62.2516 164.204 62.2996 163.812 62.2996 163.252C62.2996 162.86 62.2796 162.56 62.2396 162.352C62.1996 162.136 62.1236 161.98 62.0116 161.884C61.9076 161.78 61.7436 161.728 61.5196 161.728C61.1996 161.728 61.0156 161.756 60.9676 161.812C60.9036 161.868 60.8516 162.044 60.8116 162.34C60.7716 162.636 60.7516 162.944 60.7516 163.264C60.7516 163.808 60.8036 164.192 60.9076 164.416C61.0196 164.64 61.2316 164.752 61.5436 164.752ZM70.7268 160.48V166H69.0588L68.8308 165.076C68.2548 165.772 67.5668 166.12 66.7668 166.12C66.4788 166.12 66.2068 166.08 65.9508 166C65.7028 165.92 65.5148 165.804 65.3868 165.652C65.3148 165.564 65.2588 165.344 65.2188 164.992C65.1868 164.64 65.1708 164.104 65.1708 163.384V160.48H67.2228V163.36C67.2228 163.52 67.2268 163.708 67.2348 163.924C67.2428 164.14 67.2668 164.276 67.3068 164.332C67.3628 164.412 67.5228 164.452 67.7868 164.452L67.9788 164.44C68.2028 164.432 68.4348 164.38 68.6748 164.284V160.48H70.7268ZM74.2548 163.732C74.2548 163.876 74.2588 164.028 74.2668 164.188C74.2748 164.34 74.2988 164.436 74.3388 164.476C74.3948 164.532 74.5908 164.56 74.9268 164.56L75.3348 164.548C75.4068 164.932 75.4428 165.376 75.4428 165.88C75.2908 165.936 75.0668 165.988 74.7708 166.036C74.4828 166.084 74.2068 166.108 73.9428 166.108C73.3908 166.108 72.9628 165.988 72.6588 165.748C72.3628 165.5 72.2148 165.12 72.2148 164.608V161.656H71.3148V160.564L72.2148 160.48L72.7548 159.16L74.2548 159.076V160.48H75.5268V161.656H74.2548V163.732Z" fill="#A8DADC"/>
<path d="M18.7553 159.796C18.4833 159.796 18.2473 159.704 18.0473 159.52C17.8553 159.336 17.7593 159.116 17.7593 158.86C17.7593 158.604 17.8553 158.384 18.0473 158.2C18.2473 158.016 18.4833 157.924 18.7553 157.924C19.0273 157.924 19.2593 158.016 19.4513 158.2C19.6433 158.384 19.7393 158.604 19.7393 158.86C19.7393 159.116 19.6433 159.336 19.4513 159.52C19.2593 159.704 19.0273 159.796 18.7553 159.796ZM17.7233 160.48H19.7753V166H17.7233V160.48ZM26.1328 160.828C26.2048 160.916 26.2568 161.136 26.2888 161.488C26.3288 161.84 26.3488 162.376 26.3488 163.096V166H24.2968V163.12V162.628C24.2968 162.372 24.2768 162.212 24.2368 162.148C24.1728 162.068 24.0248 162.028 23.7928 162.028C23.6808 162.028 23.5968 162.032 23.5408 162.04C23.3168 162.048 23.0848 162.1 22.8448 162.196V166H20.7928V160.48H22.4608L22.6888 161.404C23.2648 160.708 23.9528 160.36 24.7528 160.36C25.0408 160.36 25.3088 160.4 25.5568 160.48C25.8128 160.56 26.0048 160.676 26.1328 160.828Z" fill="#A8DADC"/>
<path d="M34.8505 157.128C34.8505 157.84 34.6225 158.352 34.1665 158.664C33.7185 158.976 33.0785 159.132 32.2465 159.132C31.6625 159.132 30.9905 159.048 30.2305 158.88C30.2465 158.72 30.2825 158.492 30.3385 158.196C30.4025 157.892 30.4545 157.66 30.4945 157.5C30.7825 157.548 31.1025 157.588 31.4545 157.62C31.8065 157.644 32.1065 157.656 32.3545 157.656C32.5705 157.656 32.7025 157.644 32.7505 157.62C32.7585 157.612 32.7665 157.592 32.7745 157.56C32.7905 157.52 32.7985 157.48 32.7985 157.44C32.7985 157.28 32.6985 157.172 32.4985 157.116C32.4345 157.1 32.1905 157.032 31.7665 156.912C31.3425 156.792 30.9945 156.576 30.7225 156.264C30.4585 155.944 30.3265 155.548 30.3265 155.076C30.3265 154.828 30.3825 154.552 30.4945 154.248C30.6065 153.944 30.7265 153.752 30.8545 153.672C30.9505 153.608 31.1825 153.544 31.5505 153.48C31.9185 153.408 32.2585 153.372 32.5705 153.372C33.2345 153.372 33.9025 153.42 34.5745 153.516C34.5745 153.66 34.5545 153.904 34.5145 154.248C34.4745 154.584 34.4385 154.796 34.4065 154.884C33.7265 154.796 33.1785 154.752 32.7625 154.752C32.5465 154.752 32.4065 154.764 32.3425 154.788C32.3265 154.796 32.3105 154.82 32.2945 154.86C32.2785 154.892 32.2705 154.936 32.2705 154.992C32.2705 155.104 32.3065 155.184 32.3785 155.232C32.4505 155.288 32.6385 155.356 32.9425 155.436C33.3025 155.54 33.6105 155.648 33.8665 155.76C34.1305 155.872 34.3585 156.04 34.5505 156.264C34.7505 156.488 34.8505 156.776 34.8505 157.128ZM36.5991 152.796C36.3271 152.796 36.0911 152.704 35.8911 152.52C35.6991 152.336 35.6031 152.116 35.6031 151.86C35.6031 151.604 35.6991 151.384 35.8911 151.2C36.0911 151.016 36.3271 150.924 36.5991 150.924C36.8711 150.924 37.1031 151.016 37.2951 151.2C37.4871 151.384 37.5831 151.604 37.5831 151.86C37.5831 152.116 37.4871 152.336 37.2951 152.52C37.1031 152.704 36.8711 152.796 36.5991 152.796ZM35.5671 153.48H37.6191V159H35.5671V153.48ZM41.5165 153.384C41.8925 153.384 42.2845 153.412 42.6925 153.468C43.1005 153.516 43.5765 153.584 44.1205 153.672V158.448C44.1205 159.592 43.7405 160.48 42.9805 161.112C42.8845 161.192 42.6685 161.26 42.3325 161.316C41.9965 161.372 41.6165 161.4 41.1925 161.4C40.2725 161.4 39.5445 161.28 39.0085 161.04C39.0005 160.864 39.0125 160.632 39.0445 160.344C39.0845 160.056 39.1245 159.828 39.1645 159.66C39.7405 159.748 40.3045 159.792 40.8565 159.792C41.1365 159.792 41.3725 159.776 41.5645 159.744C41.7645 159.72 41.8885 159.68 41.9365 159.624C42.0005 159.56 42.0485 159.32 42.0805 158.904C42.0885 158.792 42.0925 158.628 42.0925 158.412V158.112C41.8925 158.408 41.6365 158.62 41.3245 158.748C41.0125 158.876 40.7325 158.94 40.4845 158.94C39.8125 158.94 39.3045 158.72 38.9605 158.28C38.6165 157.84 38.4445 157.196 38.4445 156.348C38.4445 155.788 38.5205 155.264 38.6725 154.776C38.8325 154.28 39.0485 153.936 39.3205 153.744C39.4965 153.624 39.7805 153.536 40.1725 153.48C40.5725 153.416 41.0205 153.384 41.5165 153.384ZM41.2645 157.44C41.5605 157.44 41.8285 157.392 42.0685 157.296V154.788C41.9805 154.772 41.8485 154.756 41.6725 154.74C41.5925 154.732 41.4725 154.728 41.3125 154.728C41.0645 154.728 40.9085 154.752 40.8445 154.8C40.7565 154.864 40.6845 155.044 40.6285 155.34C40.5805 155.628 40.5565 155.932 40.5565 156.252C40.5565 156.692 40.6045 157 40.7005 157.176C40.8045 157.352 40.9925 157.44 41.2645 157.44ZM50.4336 153.828C50.5056 153.916 50.5576 154.136 50.5896 154.488C50.6296 154.84 50.6496 155.376 50.6496 156.096V159H48.5976V156.12V155.628C48.5976 155.372 48.5776 155.212 48.5376 155.148C48.4736 155.068 48.3256 155.028 48.0936 155.028C47.9816 155.028 47.8976 155.032 47.8416 155.04C47.6176 155.048 47.3856 155.1 47.1456 155.196V159H45.0936V153.48H46.7616L46.9896 154.404C47.5656 153.708 48.2536 153.36 49.0536 153.36C49.3416 153.36 49.6096 153.4 49.8576 153.48C50.1136 153.56 50.3056 153.676 50.4336 153.828ZM54.8855 159L54.6935 158.244C54.3255 158.844 53.8135 159.144 53.1575 159.144C52.6215 159.144 52.1815 158.996 51.8375 158.7C51.5015 158.396 51.3335 157.972 51.3335 157.428C51.3335 157.092 51.4295 156.8 51.6215 156.552C51.8215 156.296 52.0935 156.116 52.4375 156.012C52.8855 155.884 53.5775 155.812 54.5135 155.796C54.5135 155.268 54.4895 154.988 54.4415 154.956C54.4015 154.924 54.2735 154.908 54.0575 154.908C53.9215 154.908 53.7335 154.916 53.4935 154.932C53.1095 154.948 52.5895 154.992 51.9335 155.064C51.8695 154.632 51.8215 154.168 51.7895 153.672C52.2135 153.584 52.6575 153.512 53.1215 153.456C53.5855 153.392 54.0015 153.36 54.3695 153.36C55.0095 153.36 55.4895 153.468 55.8095 153.684C56.1295 153.892 56.3375 154.168 56.4335 154.512C56.5295 154.856 56.5735 155.292 56.5655 155.82L56.5535 157.584L56.5895 159H54.8855ZM53.8535 157.8C54.0615 157.8 54.2815 157.76 54.5135 157.68V156.792H54.4175C53.8255 156.792 53.4975 156.824 53.4335 156.888C53.3935 156.928 53.3615 156.988 53.3375 157.068C53.3215 157.148 53.3135 157.224 53.3135 157.296C53.3135 157.488 53.3575 157.62 53.4455 157.692C53.5335 157.764 53.6695 157.8 53.8535 157.8ZM57.528 151.8L59.58 151.716V159H57.528V151.8Z" fill="#A8DADC"/>
<path d="M34.8505 317.128C34.8505 317.84 34.6225 318.352 34.1665 318.664C33.7185 318.976 33.0785 319.132 32.2465 319.132C31.6625 319.132 30.9905 319.048 30.2305 318.88C30.2465 318.72 30.2825 318.492 30.3385 318.196C30.4025 317.892 30.4545 317.66 30.4945 317.5C30.7825 317.548 31.1025 317.588 31.4545 317.62C31.8065 317.644 32.1065 317.656 32.3545 317.656C32.5705 317.656 32.7025 317.644 32.7505 317.62C32.7585 317.612 32.7665 317.592 32.7745 317.56C32.7905 317.52 32.7985 317.48 32.7985 317.44C32.7985 317.28 32.6985 317.172 32.4985 317.116C32.4345 317.1 32.1905 317.032 31.7665 316.912C31.3425 316.792 30.9945 316.576 30.7225 316.264C30.4585 315.944 30.3265 315.548 30.3265 315.076C30.3265 314.828 30.3825 314.552 30.4945 314.248C30.6065 313.944 30.7265 313.752 30.8545 313.672C30.9505 313.608 31.1825 313.544 31.5505 313.48C31.9185 313.408 32.2585 313.372 32.5705 313.372C33.2345 313.372 33.9025 313.42 34.5745 313.516C34.5745 313.66 34.5545 313.904 34.5145 314.248C34.4745 314.584 34.4385 314.796 34.4065 314.884C33.7265 314.796 33.1785 314.752 32.7625 314.752C32.5465 314.752 32.4065 314.764 32.3425 314.788C32.3265 314.796 32.3105 314.82 32.2945 314.86C32.2785 314.892 32.2705 314.936 32.2705 314.992C32.2705 315.104 32.3065 315.184 32.3785 315.232C32.4505 315.288 32.6385 315.356 32.9425 315.436C33.3025 315.54 33.6105 315.648 33.8665 315.76C34.1305 315.872 34.3585 316.04 34.5505 316.264C34.7505 316.488 34.8505 316.776 34.8505 317.128ZM36.5991 312.796C36.3271 312.796 36.0911 312.704 35.8911 312.52C35.6991 312.336 35.6031 312.116 35.6031 311.86C35.6031 311.604 35.6991 311.384 35.8911 311.2C36.0911 311.016 36.3271 310.924 36.5991 310.924C36.8711 310.924 37.1031 311.016 37.2951 311.2C37.4871 311.384 37.5831 311.604 37.5831 311.86C37.5831 312.116 37.4871 312.336 37.2951 312.52C37.1031 312.704 36.8711 312.796 36.5991 312.796ZM35.5671 313.48H37.6191V319H35.5671V313.48ZM41.5165 313.384C41.8925 313.384 42.2845 313.412 42.6925 313.468C43.1005 313.516 43.5765 313.584 44.1205 313.672V318.448C44.1205 319.592 43.7405 320.48 42.9805 321.112C42.8845 321.192 42.6685 321.26 42.3325 321.316C41.9965 321.372 41.6165 321.4 41.1925 321.4C40.2725 321.4 39.5445 321.28 39.0085 321.04C39.0005 320.864 39.0125 320.632 39.0445 320.344C39.0845 320.056 39.1245 319.828 39.1645 319.66C39.7405 319.748 40.3045 319.792 40.8565 319.792C41.1365 319.792 41.3725 319.776 41.5645 319.744C41.7645 319.72 41.8885 319.68 41.9365 319.624C42.0005 319.56 42.0485 319.32 42.0805 318.904C42.0885 318.792 42.0925 318.628 42.0925 318.412V318.112C41.8925 318.408 41.6365 318.62 41.3245 318.748C41.0125 318.876 40.7325 318.94 40.4845 318.94C39.8125 318.94 39.3045 318.72 38.9605 318.28C38.6165 317.84 38.4445 317.196 38.4445 316.348C38.4445 315.788 38.5205 315.264 38.6725 314.776C38.8325 314.28 39.0485 313.936 39.3205 313.744C39.4965 313.624 39.7805 313.536 40.1725 313.48C40.5725 313.416 41.0205 313.384 41.5165 313.384ZM41.2645 317.44C41.5605 317.44 41.8285 317.392 42.0685 317.296V314.788C41.9805 314.772 41.8485 314.756 41.6725 314.74C41.5925 314.732 41.4725 314.728 41.3125 314.728C41.0645 314.728 40.9085 314.752 40.8445 314.8C40.7565 314.864 40.6845 315.044 40.6285 315.34C40.5805 315.628 40.5565 315.932 40.5565 316.252C40.5565 316.692 40.6045 317 40.7005 317.176C40.8045 317.352 40.9925 317.44 41.2645 317.44ZM50.4336 313.828C50.5056 313.916 50.5576 314.136 50.5896 314.488C50.6296 314.84 50.6496 315.376 50.6496 316.096V319H48.5976V316.12V315.628C48.5976 315.372 48.5776 315.212 48.5376 315.148C48.4736 315.068 48.3256 315.028 48.0936 315.028C47.9816 315.028 47.8976 315.032 47.8416 315.04C47.6176 315.048 47.3856 315.1 47.1456 315.196V319H45.0936V313.48H46.7616L46.9896 314.404C47.5656 313.708 48.2536 313.36 49.0536 313.36C49.3416 313.36 49.6096 313.4 49.8576 313.48C50.1136 313.56 50.3056 313.676 50.4336 313.828ZM54.8855 319L54.6935 318.244C54.3255 318.844 53.8135 319.144 53.1575 319.144C52.6215 319.144 52.1815 318.996 51.8375 318.7C51.5015 318.396 51.3335 317.972 51.3335 317.428C51.3335 317.092 51.4295 316.8 51.6215 316.552C51.8215 316.296 52.0935 316.116 52.4375 316.012C52.8855 315.884 53.5775 315.812 54.5135 315.796C54.5135 315.268 54.4895 314.988 54.4415 314.956C54.4015 314.924 54.2735 314.908 54.0575 314.908C53.9215 314.908 53.7335 314.916 53.4935 314.932C53.1095 314.948 52.5895 314.992 51.9335 315.064C51.8695 314.632 51.8215 314.168 51.7895 313.672C52.2135 313.584 52.6575 313.512 53.1215 313.456C53.5855 313.392 54.0015 313.36 54.3695 313.36C55.0095 313.36 55.4895 313.468 55.8095 313.684C56.1295 313.892 56.3375 314.168 56.4335 314.512C56.5295 314.856 56.5735 315.292 56.5655 315.82L56.5535 317.584L56.5895 319H54.8855ZM53.8535 317.8C54.0615 317.8 54.2815 317.76 54.5135 317.68V316.792H54.4175C53.8255 316.792 53.4975 316.824 53.4335 316.888C53.3935 316.928 53.3615 316.988 53.3375 317.068C53.3215 317.148 53.3135 317.224 53.3135 317.296C53.3135 317.488 53.3575 317.62 53.4455 317.692C53.5335 317.764 53.6695 317.8 53.8535 317.8ZM57.528 311.8L59.58 311.716V319H57.528V311.8Z" fill="#A8DADC"/>
<path d="M18.8515 275.36C18.9555 275.36 19.0635 275.372 19.1755 275.396C19.2955 275.42 19.3835 275.448 19.4395 275.48C19.4395 275.656 19.4195 275.948 19.3795 276.356C19.3395 276.756 19.3035 277.04 19.2715 277.208C19.1915 277.2 19.0435 277.196 18.8275 277.196C18.3235 277.196 17.8755 277.224 17.4835 277.28V281H15.4315V275.48H17.1475L17.3875 276.368H17.3995C17.6315 276.064 17.8795 275.82 18.1435 275.636C18.4075 275.452 18.6435 275.36 18.8515 275.36ZM24.4423 279.128C24.4423 279.84 24.2143 280.352 23.7583 280.664C23.3103 280.976 22.6703 281.132 21.8383 281.132C21.2543 281.132 20.5823 281.048 19.8223 280.88C19.8383 280.72 19.8743 280.492 19.9303 280.196C19.9943 279.892 20.0463 279.66 20.0863 279.5C20.3743 279.548 20.6943 279.588 21.0463 279.62C21.3983 279.644 21.6983 279.656 21.9463 279.656C22.1623 279.656 22.2943 279.644 22.3423 279.62C22.3503 279.612 22.3583 279.592 22.3663 279.56C22.3823 279.52 22.3903 279.48 22.3903 279.44C22.3903 279.28 22.2903 279.172 22.0903 279.116C22.0263 279.1 21.7823 279.032 21.3583 278.912C20.9343 278.792 20.5863 278.576 20.3143 278.264C20.0503 277.944 19.9183 277.548 19.9183 277.076C19.9183 276.828 19.9743 276.552 20.0863 276.248C20.1983 275.944 20.3183 275.752 20.4463 275.672C20.5423 275.608 20.7743 275.544 21.1423 275.48C21.5103 275.408 21.8503 275.372 22.1623 275.372C22.8263 275.372 23.4943 275.42 24.1663 275.516C24.1663 275.66 24.1463 275.904 24.1063 276.248C24.0663 276.584 24.0303 276.796 23.9983 276.884C23.3183 276.796 22.7703 276.752 22.3543 276.752C22.1383 276.752 21.9983 276.764 21.9343 276.788C21.9183 276.796 21.9023 276.82 21.8863 276.86C21.8703 276.892 21.8623 276.936 21.8623 276.992C21.8623 277.104 21.8983 277.184 21.9703 277.232C22.0423 277.288 22.2303 277.356 22.5343 277.436C22.8943 277.54 23.2023 277.648 23.4583 277.76C23.7223 277.872 23.9503 278.04 24.1423 278.264C24.3423 278.488 24.4423 278.776 24.4423 279.128ZM27.6669 278.732C27.6669 278.876 27.6709 279.028 27.6789 279.188C27.6869 279.34 27.7109 279.436 27.7509 279.476C27.8069 279.532 28.0029 279.56 28.3389 279.56L28.7469 279.548C28.8189 279.932 28.8549 280.376 28.8549 280.88C28.7029 280.936 28.4789 280.988 28.1829 281.036C27.8949 281.084 27.6189 281.108 27.3549 281.108C26.8029 281.108 26.3749 280.988 26.0709 280.748C25.7749 280.5 25.6269 280.12 25.6269 279.608V276.656H24.7269V275.564L25.6269 275.48L26.1669 274.16L27.6669 274.076V275.48H28.9389V276.656H27.6669V278.732Z" fill="#A8DADC"/>
<path d="M59.7216 279.128C59.7216 279.84 59.4936 280.352 59.0376 280.664C58.5896 280.976 57.9496 281.132 57.1176 281.132C56.5336 281.132 55.8616 281.048 55.1016 280.88C55.1176 280.72 55.1536 280.492 55.2096 280.196C55.2736 279.892 55.3256 279.66 55.3656 279.5C55.6536 279.548 55.9736 279.588 56.3256 279.62C56.6776 279.644 56.9776 279.656 57.2256 279.656C57.4416 279.656 57.5736 279.644 57.6216 279.62C57.6296 279.612 57.6376 279.592 57.6456 279.56C57.6616 279.52 57.6696 279.48 57.6696 279.44C57.6696 279.28 57.5696 279.172 57.3696 279.116C57.3056 279.1 57.0616 279.032 56.6376 278.912C56.2136 278.792 55.8656 278.576 55.5936 278.264C55.3296 277.944 55.1976 277.548 55.1976 277.076C55.1976 276.828 55.2536 276.552 55.3656 276.248C55.4776 275.944 55.5976 275.752 55.7256 275.672C55.8216 275.608 56.0536 275.544 56.4216 275.48C56.7896 275.408 57.1296 275.372 57.4416 275.372C58.1056 275.372 58.7736 275.42 59.4456 275.516C59.4456 275.66 59.4256 275.904 59.3856 276.248C59.3456 276.584 59.3096 276.796 59.2776 276.884C58.5976 276.796 58.0496 276.752 57.6336 276.752C57.4176 276.752 57.2776 276.764 57.2136 276.788C57.1976 276.796 57.1816 276.82 57.1656 276.86C57.1496 276.892 57.1416 276.936 57.1416 276.992C57.1416 277.104 57.1776 277.184 57.2496 277.232C57.3216 277.288 57.5096 277.356 57.8136 277.436C58.1736 277.54 58.4816 277.648 58.7376 277.76C59.0016 277.872 59.2296 278.04 59.4216 278.264C59.6216 278.488 59.7216 278.776 59.7216 279.128ZM62.9462 278.732C62.9462 278.876 62.9502 279.028 62.9582 279.188C62.9662 279.34 62.9902 279.436 63.0302 279.476C63.0862 279.532 63.2822 279.56 63.6182 279.56L64.0262 279.548C64.0982 279.932 64.1342 280.376 64.1342 280.88C63.9822 280.936 63.7582 280.988 63.4622 281.036C63.1742 281.084 62.8982 281.108 62.6342 281.108C62.0822 281.108 61.6542 280.988 61.3502 280.748C61.0542 280.5 60.9062 280.12 60.9062 279.608V276.656H60.0062V275.564L60.9062 275.48L61.4462 274.16L62.9462 274.076V275.48H64.2182V276.656H62.9462V278.732ZM68.6238 275.36C69.1998 275.36 69.6558 275.552 69.9918 275.936C70.3358 276.312 70.5078 276.972 70.5078 277.916C70.5078 278.62 70.4398 279.196 70.3038 279.644C70.1678 280.084 70.0118 280.376 69.8358 280.52C69.6598 280.664 69.3518 280.78 68.9118 280.868C68.4798 280.956 68.0318 281 67.5678 281C67.4318 281 67.2038 280.992 66.8838 280.976V282.68L64.8318 282.764V275.48H66.5118L66.7158 276.332C66.9238 276.036 67.1878 275.8 67.5078 275.624C67.8358 275.448 68.2078 275.36 68.6238 275.36ZM68.1438 279.536C68.2318 279.472 68.2958 279.292 68.3358 278.996C68.3758 278.692 68.3958 278.404 68.3958 278.132C68.3958 277.684 68.3398 277.352 68.2278 277.136C68.1158 276.92 67.8918 276.812 67.5558 276.812C67.3158 276.812 67.0918 276.836 66.8838 276.884V279.548L67.2198 279.584C67.3238 279.592 67.4718 279.596 67.6638 279.596C67.9358 279.596 68.0958 279.576 68.1438 279.536ZM74.185 274.796C73.913 274.796 73.677 274.704 73.477 274.52C73.285 274.336 73.189 274.116 73.189 273.86C73.189 273.604 73.285 273.384 73.477 273.2C73.677 273.016 73.913 272.924 74.185 272.924C74.457 272.924 74.689 273.016 74.881 273.2C75.073 273.384 75.169 273.604 75.169 273.86C75.169 274.116 75.073 274.336 74.881 274.52C74.689 274.704 74.457 274.796 74.185 274.796ZM73.153 275.48H75.205V281H73.153V275.48ZM81.5625 275.828C81.6345 275.916 81.6865 276.136 81.7185 276.488C81.7585 276.84 81.7785 277.376 81.7785 278.096V281H79.7265V278.12V277.628C79.7265 277.372 79.7065 277.212 79.6665 277.148C79.6025 277.068 79.4545 277.028 79.2225 277.028C79.1105 277.028 79.0265 277.032 78.9705 277.04C78.7465 277.048 78.5145 277.1 78.2745 277.196V281H76.2225V275.48H77.8905L78.1185 276.404C78.6945 275.708 79.3825 275.36 80.1825 275.36C80.4705 275.36 80.7385 275.4 80.9865 275.48C81.2425 275.56 81.4345 275.676 81.5625 275.828Z" fill="#A8DADC"/>
<path d="M61.5076 326.156C60.5476 326.156 59.8276 325.932 59.3476 325.484C58.8756 325.028 58.6396 324.312 58.6396 323.336C58.6396 322.8 58.6876 322.332 58.7836 321.932C58.8876 321.524 59.0116 321.24 59.1556 321.08C59.3396 320.872 59.6756 320.7 60.1636 320.564C60.6596 320.428 61.1236 320.36 61.5556 320.36C62.5876 320.36 63.3236 320.58 63.7636 321.02C64.2036 321.46 64.4236 322.164 64.4236 323.132C64.4236 324.172 64.1876 324.936 63.7156 325.424C63.2436 325.912 62.5076 326.156 61.5076 326.156ZM61.5436 324.752C61.8556 324.752 62.0596 324.644 62.1556 324.428C62.2516 324.204 62.2996 323.812 62.2996 323.252C62.2996 322.86 62.2796 322.56 62.2396 322.352C62.1996 322.136 62.1236 321.98 62.0116 321.884C61.9076 321.78 61.7436 321.728 61.5196 321.728C61.1996 321.728 61.0156 321.756 60.9676 321.812C60.9036 321.868 60.8516 322.044 60.8116 322.34C60.7716 322.636 60.7516 322.944 60.7516 323.264C60.7516 323.808 60.8036 324.192 60.9076 324.416C61.0196 324.64 61.2316 324.752 61.5436 324.752ZM70.7268 320.48V326H69.0588L68.8308 325.076C68.2548 325.772 67.5668 326.12 66.7668 326.12C66.4788 326.12 66.2068 326.08 65.9508 326C65.7028 325.92 65.5148 325.804 65.3868 325.652C65.3148 325.564 65.2588 325.344 65.2188 324.992C65.1868 324.64 65.1708 324.104 65.1708 323.384V320.48H67.2228V323.36C67.2228 323.52 67.2268 323.708 67.2348 323.924C67.2428 324.14 67.2668 324.276 67.3068 324.332C67.3628 324.412 67.5228 324.452 67.7868 324.452L67.9788 324.44C68.2028 324.432 68.4348 324.38 68.6748 324.284V320.48H70.7268ZM74.2548 323.732C74.2548 323.876 74.2588 324.028 74.2668 324.188C74.2748 324.34 74.2988 324.436 74.3388 324.476C74.3948 324.532 74.5908 324.56 74.9268 324.56L75.3348 324.548C75.4068 324.932 75.4428 325.376 75.4428 325.88C75.2908 325.936 75.0668 325.988 74.7708 326.036C74.4828 326.084 74.2068 326.108 73.9428 326.108C73.3908 326.108 72.9628 325.988 72.6588 325.748C72.3628 325.5 72.2148 325.12 72.2148 324.608V321.656H71.3148V320.564L72.2148 320.48L72.7548 319.16L74.2548 319.076V320.48H75.5268V321.656H74.2548V323.732Z" fill="#A8DADC"/>
<path d="M18.7553 319.796C18.4833 319.796 18.2473 319.704 18.0473 319.52C17.8553 319.336 17.7593 319.116 17.7593 318.86C17.7593 318.604 17.8553 318.384 18.0473 318.2C18.2473 318.016 18.4833 317.924 18.7553 317.924C19.0273 317.924 19.2593 318.016 19.4513 318.2C19.6433 318.384 19.7393 318.604 19.7393 318.86C19.7393 319.116 19.6433 319.336 19.4513 319.52C19.2593 319.704 19.0273 319.796 18.7553 319.796ZM17.7233 320.48H19.7753V326H17.7233V320.48ZM26.1328 320.828C26.2048 320.916 26.2568 321.136 26.2888 321.488C26.3288 321.84 26.3488 322.376 26.3488 323.096V326H24.2968V323.12V322.628C24.2968 322.372 24.2768 322.212 24.2368 322.148C24.1728 322.068 24.0248 322.028 23.7928 322.028C23.6808 322.028 23.5968 322.032 23.5408 322.04C23.3168 322.048 23.0848 322.1 22.8448 322.196V326H20.7928V320.48H22.4608L22.6888 321.404C23.2648 320.708 23.9528 320.36 24.7528 320.36C25.0408 320.36 25.3088 320.4 25.5568 320.48C25.8128 320.56 26.0048 320.676 26.1328 320.828Z" fill="#A8DADC"/>
</svg>
