<svg width="90" height="380" viewBox="0 0 90 380" fill="none" xmlns="http://www.w3.org/2000/svg">
<g clip-path="url(#clip0)">
<rect width="90" height="380" fill="#457B9D"/>
<g opacity="0.3">
<path fill-rule="evenodd" clip-rule="evenodd" d="M38.958 375.599C38.803 375.747 38.659 375.851 38.526 375.909C38.393 375.968 38.251 375.998 38.1 375.998C37.948 375.998 37.806 375.97 37.673 375.914C37.54 375.858 37.424 375.781 37.325 375.682C37.109 375.466 37 375.209 37 374.912V369.385C37 369.082 37.078 368.847 37.232 368.68C37.498 368.408 37.75 368.272 37.988 368.272C38.226 368.272 38.404 368.296 38.522 368.346C38.639 368.395 38.738 368.457 38.818 368.531C38.924 368.624 39.002 368.723 39.055 368.828C39.108 368.933 39.151 369.011 39.185 369.06C39.219 369.11 39.275 369.134 39.352 369.134C39.429 369.134 39.496 369.11 39.551 369.06L39.709 368.902C40.16 368.482 40.612 368.272 41.063 368.272C41.861 368.272 42.519 368.599 43.039 369.255C43.088 369.323 43.15 369.357 43.224 369.357C43.354 369.357 43.486 369.256 43.619 369.055C43.752 368.854 43.966 368.674 44.263 368.513C44.56 368.352 44.906 368.272 45.302 368.272C45.698 368.272 46.058 368.344 46.383 368.49C46.707 368.635 46.99 368.834 47.231 369.088C47.738 369.62 47.992 370.263 47.992 371.017V374.912C47.992 375.382 47.769 375.713 47.324 375.905C47.188 375.967 47.044 375.998 46.893 375.998C46.741 375.998 46.599 375.97 46.466 375.914C46.333 375.858 46.217 375.781 46.118 375.682C45.908 375.46 45.803 375.203 45.803 374.912V371.045C45.803 370.736 45.726 370.504 45.571 370.349C45.299 370.077 45.049 369.941 44.82 369.941C44.591 369.941 44.412 369.971 44.282 370.029C44.152 370.088 44.034 370.17 43.929 370.275C43.713 370.492 43.605 370.742 43.605 371.026V374.912C43.605 375.382 43.385 375.713 42.946 375.905C42.81 375.967 42.666 375.998 42.515 375.998C42.363 375.998 42.22 375.97 42.083 375.914C41.947 375.858 41.83 375.781 41.731 375.682C41.515 375.466 41.406 375.209 41.406 374.912V371.045C41.406 370.736 41.329 370.504 41.174 370.349C40.902 370.077 40.618 369.941 40.321 369.941C39.826 369.941 39.483 370.133 39.292 370.516C39.23 370.64 39.199 370.779 39.199 370.934V374.912C39.199 375.215 39.118 375.444 38.958 375.599ZM50.219 369.387C50.219 369.084 50.296 368.849 50.451 368.682C50.716 368.41 51.01 368.274 51.332 368.274C51.641 368.274 51.87 368.355 52.018 368.515C52.29 368.794 52.426 369.084 52.426 369.387V374.915C52.426 375.212 52.349 375.437 52.194 375.592C51.922 375.864 51.672 376 51.443 376C51.214 376 51.032 375.971 50.896 375.912C50.76 375.853 50.642 375.777 50.543 375.685C50.327 375.474 50.219 375.218 50.219 374.915V369.387ZM51.327 365.9C51.065 365.9 50.852 365.687 50.852 365.425C50.852 365.162 51.065 364.95 51.327 364.95C51.589 364.95 51.802 365.162 51.802 365.425C51.802 365.687 51.589 365.9 51.327 365.9ZM51.327 364C51.714 364 52.048 364.142 52.329 364.425C52.611 364.709 52.752 364.996 52.752 365.287C52.752 365.577 52.713 365.807 52.635 365.978C52.558 366.148 52.456 366.297 52.329 366.424C52.048 366.708 51.714 366.849 51.327 366.849C50.94 366.849 50.606 366.708 50.324 366.424C50.043 366.141 49.902 365.857 49.902 365.574C49.902 365.092 50.043 364.709 50.324 364.425C50.606 364.142 50.94 364 51.327 364Z" fill="#1D3557"/>
</g>
<path d="M26.6703 21.8654H24.5033L23.2823 19.5224C23.2603 19.4857 23.2016 19.383 23.1063 19.2144C23.0183 19.0457 22.9193 18.8844 22.8093 18.7304V21.8654H20.8293V15.5954H22.8093V18.4444C22.9339 18.305 23.0403 18.1547 23.1283 17.9934C23.2236 17.8247 23.2786 17.7257 23.2933 17.6964L24.4703 15.5954H26.5603L25.3063 17.6964C25.2843 17.7257 25.2366 17.8027 25.1633 17.9274C25.0899 18.052 25.0093 18.1694 24.9213 18.2794C24.8406 18.382 24.7526 18.4774 24.6573 18.5654C24.7893 18.69 24.8956 18.8147 24.9763 18.9394C25.0643 19.0567 25.1633 19.2144 25.2733 19.4124L26.6703 21.8654ZM27.7172 15.5954H29.6972V21.8654H27.7172V15.5954ZM31.3386 15.5954H33.3186V20.4134H35.8816V21.8654H31.3386V15.5954ZM37.1201 15.5954H39.1001V20.4134H41.6631V21.8654H37.1201V15.5954ZM50.6058 18.3894V21.5244C50.1145 21.6857 49.6488 21.803 49.2088 21.8764C48.7688 21.9497 48.3985 21.9864 48.0978 21.9864C47.1005 21.9864 46.3195 21.726 45.7548 21.2054C45.1902 20.6847 44.9078 19.8854 44.9078 18.8074C44.9078 17.7074 45.2048 16.886 45.7988 16.3434C46.3928 15.7934 47.2288 15.5184 48.3068 15.5184C48.8715 15.5184 49.5498 15.6027 50.3418 15.7714C50.3418 15.918 50.3272 16.138 50.2978 16.4314C50.2685 16.7174 50.2392 16.919 50.2098 17.0364L49.8138 17.0254C49.3298 17.0107 48.9522 17.0034 48.6808 17.0034C47.8668 17.0034 47.4232 17.051 47.3498 17.1464C47.2325 17.2857 47.1482 17.502 47.0968 17.7954C47.0528 18.0887 47.0308 18.371 47.0308 18.6424C47.0308 19.1337 47.0858 19.515 47.1958 19.7864C47.3058 20.0577 47.4745 20.2484 47.7018 20.3584C47.9292 20.4684 48.2372 20.5234 48.6258 20.5234H48.6698V18.3894H50.6058ZM55.7209 20.4904H53.8949L53.5649 21.8654H51.5409L53.5649 15.5954H56.1499L58.0859 21.8654H56.0509L55.7209 20.4904ZM54.7969 16.9484L54.1479 19.2694H55.4569L54.8409 16.9484H54.7969ZM61.9778 21.8654H59.9978V16.9704H58.2268V15.5954H63.7488V16.9704H61.9778V21.8654ZM64.8771 15.5954H69.4421V16.9154H66.8571V18.0594H69.0351V19.2474H66.8571V20.5234H69.4311V21.8654H64.8771V15.5954Z" fill="white"/>
<rect x="10" y="30" width="30" height="20" rx="5" fill="#36617C"/>
<rect x="50" y="30" width="30" height="20" rx="5" fill="#36617C"/>
<rect x="10" y="208" width="30" height="20" rx="5" fill="#36617C"/>
<rect x="50" y="208" width="30" height="20" rx="5" fill="#36617C"/>
<path d="M15.9951 96.668H13.6416V102H14.9258V100.081H15.751L16.7129 102H18.1631L17.04 99.9053C17.5283 99.7246 18.0557 99.1875 18.0557 98.4062C18.0557 97.3369 17.2939 96.668 15.9951 96.668ZM14.9258 99.1826V97.6201H15.8047C16.332 97.6201 16.7031 97.8984 16.7031 98.416C16.7031 98.9287 16.3418 99.1826 15.79 99.1826H14.9258ZM19.5908 100.447C19.6055 101.346 20.3232 102.098 21.8516 102.098C23.3555 102.098 24.1514 101.385 24.1514 100.384C24.1514 99.4463 23.5312 99.0361 22.6328 98.8604L21.8467 98.709C21.2949 98.5967 21.0215 98.4355 21.0215 98.123C21.0215 97.7812 21.3291 97.5225 21.8906 97.5225C22.4766 97.5225 22.8184 97.8154 22.8477 98.1865H24.0537C24.0439 97.3369 23.3115 96.5654 21.8955 96.5654C20.5869 96.5654 19.7129 97.2197 19.7129 98.2207C19.7129 99.0898 20.2695 99.5439 21.2656 99.7441L22.0127 99.8955C22.5791 100.013 22.8574 100.179 22.8574 100.511C22.8574 100.872 22.5449 101.131 21.9053 101.131C21.2705 101.131 20.8701 100.833 20.8408 100.447H19.5908ZM28.3184 102V97.6885H29.8662V96.668H25.4619V97.6885H27.0098V102H28.3184Z" fill="white"/>
<path d="M52.9883 100.447C53.0029 101.346 53.7207 102.098 55.249 102.098C56.7529 102.098 57.5488 101.385 57.5488 100.384C57.5488 99.4463 56.9287 99.0361 56.0303 98.8604L55.2441 98.709C54.6924 98.5967 54.4189 98.4355 54.4189 98.123C54.4189 97.7812 54.7266 97.5225 55.2881 97.5225C55.874 97.5225 56.2158 97.8154 56.2451 98.1865H57.4512C57.4414 97.3369 56.709 96.5654 55.293 96.5654C53.9844 96.5654 53.1104 97.2197 53.1104 98.2207C53.1104 99.0898 53.667 99.5439 54.6631 99.7441L55.4102 99.8955C55.9766 100.013 56.2549 100.179 56.2549 100.511C56.2549 100.872 55.9424 101.131 55.3027 101.131C54.668 101.131 54.2676 100.833 54.2383 100.447H52.9883ZM61.7158 102V97.6885H63.2637V96.668H58.8594V97.6885H60.4072V102H61.7158ZM69.2275 98.4746C69.2275 97.4834 68.5391 96.668 67.2695 96.668H64.916V102H66.2197V100.33H67.2598C68.5293 100.33 69.2275 99.4756 69.2275 98.4746ZM67.8994 98.5039C67.8994 99.041 67.5869 99.3828 67.0449 99.3828H66.2148V97.6299H66.9961C67.5674 97.6299 67.8994 97.9473 67.8994 98.5039ZM74.9688 102V96.668H73.6602V102H74.9688ZM78.2812 102V98.7529H78.3301L80.6445 102H81.6846V96.668H80.459V99.8857H80.4102L78.1055 96.668H77.0605V102H78.2812Z" fill="white"/>
<path d="M60.9336 148.098C62.5205 148.098 63.4238 147.126 63.4238 145.637V145.036C63.4238 143.542 62.5156 142.57 60.9287 142.57C59.3467 142.57 58.4385 143.537 58.4385 145.036V145.637C58.4385 147.126 59.3516 148.098 60.9336 148.098ZM60.9336 147.077C60.2061 147.077 59.7715 146.535 59.7715 145.642V145.021C59.7715 144.128 60.2061 143.591 60.9336 143.591C61.6562 143.591 62.0908 144.128 62.0908 145.021V145.642C62.0908 146.535 61.6562 147.077 60.9336 147.077ZM67.5713 147.048C66.9609 147.048 66.5361 146.687 66.5361 145.998V142.668H65.2227V146.145C65.2227 147.336 66.126 148.098 67.5713 148.098C69.0166 148.098 69.9199 147.331 69.9199 146.145V142.668H68.6113V145.998C68.6113 146.682 68.1816 147.048 67.5713 147.048ZM74.292 148V143.688H75.8398V142.668H71.4355V143.688H72.9834V148H74.292Z" fill="white"/>
<path d="M19.2939 148V142.668H17.9854V148H19.2939ZM22.6064 148V144.753H22.6553L24.9697 148H26.0098V142.668H24.7842V145.886H24.7354L22.4307 142.668H21.3857V148H22.6064Z" fill="white"/>
<path d="M16.4951 274.668H14.1416V280H15.4258V278.081H16.251L17.2129 280H18.6631L17.54 277.905C18.0283 277.725 18.5557 277.188 18.5557 276.406C18.5557 275.337 17.7939 274.668 16.4951 274.668ZM15.4258 277.183V275.62H16.3047C16.832 275.62 17.2031 275.898 17.2031 276.416C17.2031 276.929 16.8418 277.183 16.29 277.183H15.4258ZM20.0908 278.447C20.1055 279.346 20.8232 280.098 22.3516 280.098C23.8555 280.098 24.6514 279.385 24.6514 278.384C24.6514 277.446 24.0312 277.036 23.1328 276.86L22.3467 276.709C21.7949 276.597 21.5215 276.436 21.5215 276.123C21.5215 275.781 21.8291 275.522 22.3906 275.522C22.9766 275.522 23.3184 275.815 23.3477 276.187H24.5537C24.5439 275.337 23.8115 274.565 22.3955 274.565C21.0869 274.565 20.2129 275.22 20.2129 276.221C20.2129 277.09 20.7695 277.544 21.7656 277.744L22.5127 277.896C23.0791 278.013 23.3574 278.179 23.3574 278.511C23.3574 278.872 23.0449 279.131 22.4053 279.131C21.7705 279.131 21.3701 278.833 21.3408 278.447H20.0908ZM28.8184 280V275.688H30.3662V274.668H25.9619V275.688H27.5098V280H28.8184Z" fill="white"/>
<path d="M52.9883 278.447C53.0029 279.346 53.7207 280.098 55.249 280.098C56.7529 280.098 57.5488 279.385 57.5488 278.384C57.5488 277.446 56.9287 277.036 56.0303 276.86L55.2441 276.709C54.6924 276.597 54.4189 276.436 54.4189 276.123C54.4189 275.781 54.7266 275.522 55.2881 275.522C55.874 275.522 56.2158 275.815 56.2451 276.187H57.4512C57.4414 275.337 56.709 274.565 55.293 274.565C53.9844 274.565 53.1104 275.22 53.1104 276.221C53.1104 277.09 53.667 277.544 54.6631 277.744L55.4102 277.896C55.9766 278.013 56.2549 278.179 56.2549 278.511C56.2549 278.872 55.9424 279.131 55.3027 279.131C54.668 279.131 54.2676 278.833 54.2383 278.447H52.9883ZM61.7158 280V275.688H63.2637V274.668H58.8594V275.688H60.4072V280H61.7158ZM69.2275 276.475C69.2275 275.483 68.5391 274.668 67.2695 274.668H64.916V280H66.2197V278.33H67.2598C68.5293 278.33 69.2275 277.476 69.2275 276.475ZM67.8994 276.504C67.8994 277.041 67.5869 277.383 67.0449 277.383H66.2148V275.63H66.9961C67.5674 275.63 67.8994 275.947 67.8994 276.504ZM74.9688 280V274.668H73.6602V280H74.9688ZM78.2812 280V276.753H78.3301L80.6445 280H81.6846V274.668H80.459V277.886H80.4102L78.1055 274.668H77.0605V280H78.2812Z" fill="white"/>
<path d="M60.9336 326.098C62.5205 326.098 63.4238 325.126 63.4238 323.637V323.036C63.4238 321.542 62.5156 320.57 60.9287 320.57C59.3467 320.57 58.4385 321.537 58.4385 323.036V323.637C58.4385 325.126 59.3516 326.098 60.9336 326.098ZM60.9336 325.077C60.2061 325.077 59.7715 324.535 59.7715 323.642V323.021C59.7715 322.128 60.2061 321.591 60.9336 321.591C61.6562 321.591 62.0908 322.128 62.0908 323.021V323.642C62.0908 324.535 61.6562 325.077 60.9336 325.077ZM67.5713 325.048C66.9609 325.048 66.5361 324.687 66.5361 323.998V320.668H65.2227V324.145C65.2227 325.336 66.126 326.098 67.5713 326.098C69.0166 326.098 69.9199 325.331 69.9199 324.145V320.668H68.6113V323.998C68.6113 324.682 68.1816 325.048 67.5713 325.048ZM74.292 326V321.688H75.8398V320.668H71.4355V321.688H72.9834V326H74.292Z" fill="white"/>
<path d="M19.2939 326V320.668H17.9854V326H19.2939ZM22.6064 326V322.753H22.6553L24.9697 326H26.0098V320.668H24.7842V323.886H24.7354L22.4307 320.668H21.3857V326H22.6064Z" fill="white"/>
<line opacity="0.5" x1="-1.3125" y1="193" x2="88.6875" y2="193" stroke="#1D3557"/>
</g>
<defs>
<clipPath id="clip0">
<rect width="90" height="380" fill="white"/>
</clipPath>
</defs>
</svg>
