<svg width="90" height="380" viewBox="0 0 90 380" fill="none" xmlns="http://www.w3.org/2000/svg">
<g clip-path="url(#clip0)">
<rect width="90" height="380" fill="#457B9D"/>
<g opacity="0.3">
<path fill-rule="evenodd" clip-rule="evenodd" d="M38.958 375.599C38.803 375.747 38.659 375.851 38.526 375.909C38.393 375.968 38.251 375.998 38.1 375.998C37.948 375.998 37.806 375.97 37.673 375.914C37.54 375.858 37.424 375.781 37.325 375.682C37.109 375.466 37 375.209 37 374.912V369.385C37 369.082 37.078 368.847 37.232 368.68C37.498 368.408 37.75 368.272 37.988 368.272C38.226 368.272 38.404 368.296 38.522 368.346C38.639 368.395 38.738 368.457 38.818 368.531C38.924 368.624 39.002 368.723 39.055 368.828C39.108 368.933 39.151 369.011 39.185 369.06C39.219 369.11 39.275 369.134 39.352 369.134C39.429 369.134 39.496 369.11 39.551 369.06L39.709 368.902C40.16 368.482 40.612 368.272 41.063 368.272C41.861 368.272 42.519 368.599 43.039 369.255C43.088 369.323 43.15 369.357 43.224 369.357C43.354 369.357 43.486 369.256 43.619 369.055C43.752 368.854 43.966 368.674 44.263 368.513C44.56 368.352 44.906 368.272 45.302 368.272C45.698 368.272 46.058 368.344 46.383 368.49C46.707 368.635 46.99 368.834 47.231 369.088C47.738 369.62 47.992 370.263 47.992 371.017V374.912C47.992 375.382 47.769 375.713 47.324 375.905C47.188 375.967 47.044 375.998 46.893 375.998C46.741 375.998 46.599 375.97 46.466 375.914C46.333 375.858 46.217 375.781 46.118 375.682C45.908 375.46 45.803 375.203 45.803 374.912V371.045C45.803 370.736 45.726 370.504 45.571 370.349C45.299 370.077 45.049 369.941 44.82 369.941C44.591 369.941 44.412 369.971 44.282 370.029C44.152 370.088 44.034 370.17 43.929 370.275C43.713 370.492 43.605 370.742 43.605 371.026V374.912C43.605 375.382 43.385 375.713 42.946 375.905C42.81 375.967 42.666 375.998 42.515 375.998C42.363 375.998 42.22 375.97 42.083 375.914C41.947 375.858 41.83 375.781 41.731 375.682C41.515 375.466 41.406 375.209 41.406 374.912V371.045C41.406 370.736 41.329 370.504 41.174 370.349C40.902 370.077 40.618 369.941 40.321 369.941C39.826 369.941 39.483 370.133 39.292 370.516C39.23 370.64 39.199 370.779 39.199 370.934V374.912C39.199 375.215 39.118 375.444 38.958 375.599ZM50.219 369.387C50.219 369.084 50.296 368.849 50.451 368.682C50.716 368.41 51.01 368.274 51.332 368.274C51.641 368.274 51.87 368.355 52.018 368.515C52.29 368.794 52.426 369.084 52.426 369.387V374.915C52.426 375.212 52.349 375.437 52.194 375.592C51.922 375.864 51.672 376 51.443 376C51.214 376 51.032 375.971 50.896 375.912C50.76 375.853 50.642 375.777 50.543 375.685C50.327 375.474 50.219 375.218 50.219 374.915V369.387ZM51.327 365.9C51.065 365.9 50.852 365.687 50.852 365.425C50.852 365.162 51.065 364.95 51.327 364.95C51.589 364.95 51.802 365.162 51.802 365.425C51.802 365.687 51.589 365.9 51.327 365.9ZM51.327 364C51.714 364 52.048 364.142 52.329 364.425C52.611 364.709 52.752 364.996 52.752 365.287C52.752 365.577 52.713 365.807 52.635 365.978C52.558 366.148 52.456 366.297 52.329 366.424C52.048 366.708 51.714 366.849 51.327 366.849C50.94 366.849 50.606 366.708 50.324 366.424C50.043 366.141 49.902 365.857 49.902 365.574C49.902 365.092 50.043 364.709 50.324 364.425C50.606 364.142 50.94 364 51.327 364Z" fill="#1D3557"/>
</g>
<path d="M11.6691 15.5954H13.6491V20.4134H16.2121V21.8654H11.6691V15.5954ZM21.1026 20.4904H19.2766L18.9466 21.8654H16.9226L18.9466 15.5954H21.5316L23.4676 21.8654H21.4326L21.1026 20.4904ZM20.1786 16.9484L19.5296 19.2694H20.8386L20.2226 16.9484H20.1786ZM30.3201 15.5954V19.1044C30.3201 19.8304 30.2395 20.3987 30.0781 20.8094C29.9241 21.2127 29.6308 21.5097 29.1981 21.7004C28.7655 21.891 28.1348 21.9864 27.3061 21.9864C26.6975 21.9864 26.1841 21.924 25.7661 21.7994C25.3481 21.6674 25.0145 21.4217 24.7651 21.0624C24.5231 20.703 24.4021 20.197 24.4021 19.5444V15.5954H26.3821V19.1264C26.3821 19.515 26.4005 19.812 26.4371 20.0174C26.4811 20.2154 26.5765 20.3694 26.7231 20.4794C26.8698 20.582 27.0935 20.6334 27.3941 20.6334C27.5775 20.6334 27.7498 20.615 27.9111 20.5784C28.0725 20.5417 28.1825 20.4867 28.2411 20.4134C28.3071 20.3254 28.3401 20.0064 28.3401 19.4564V15.5954H30.3201ZM33.7514 19.3354V21.8654H31.9144V15.5954H33.7734L35.4344 18.1254C35.6837 18.4994 35.8744 18.8147 36.0064 19.0714H36.0394V18.0154V15.5954H37.8654V21.8654H35.9954L34.2904 19.2254L33.7954 18.4774H33.7624L33.7514 19.3354ZM44.4175 21.6564C44.1462 21.7737 43.8308 21.858 43.4715 21.9094C43.1122 21.9607 42.7785 21.9864 42.4705 21.9864C41.4732 21.9864 40.6922 21.726 40.1275 21.2054C39.5628 20.6847 39.2805 19.8854 39.2805 18.8074C39.2805 17.7074 39.5775 16.886 40.1715 16.3434C40.7655 15.7934 41.6015 15.5184 42.6795 15.5184C43.1928 15.5184 43.7282 15.588 44.2855 15.7274C44.2855 15.874 44.2708 16.094 44.2415 16.3874C44.2122 16.6734 44.1828 16.875 44.1535 16.9924H43.4605C42.9545 16.9924 42.5548 17.0034 42.2615 17.0254C41.9755 17.04 41.8032 17.073 41.7445 17.1244C41.6345 17.227 41.5502 17.436 41.4915 17.7514C41.4328 18.0594 41.4035 18.3564 41.4035 18.6424C41.4035 19.141 41.4658 19.526 41.5905 19.7974C41.7152 20.0614 41.8728 20.2374 42.0635 20.3254C42.2468 20.4134 42.5512 20.4574 42.9765 20.4574C43.3138 20.4574 43.7538 20.428 44.2965 20.3694L44.4175 21.6564ZM45.7011 15.5954H47.6921V17.8944H49.3971V15.5954H51.3881V21.8654H49.3971V19.1594H47.6921V21.8654H45.7011V15.5954ZM60.733 18.3894V21.5244C60.2416 21.6857 59.776 21.803 59.336 21.8764C58.896 21.9497 58.5256 21.9864 58.225 21.9864C57.2276 21.9864 56.4466 21.726 55.882 21.2054C55.3173 20.6847 55.035 19.8854 55.035 18.8074C55.035 17.7074 55.332 16.886 55.926 16.3434C56.52 15.7934 57.356 15.5184 58.434 15.5184C58.9986 15.5184 59.677 15.6027 60.469 15.7714C60.469 15.918 60.4543 16.138 60.425 16.4314C60.3956 16.7174 60.3663 16.919 60.337 17.0364L59.941 17.0254C59.457 17.0107 59.0793 17.0034 58.808 17.0034C57.994 17.0034 57.5503 17.051 57.477 17.1464C57.3596 17.2857 57.2753 17.502 57.224 17.7954C57.18 18.0887 57.158 18.371 57.158 18.6424C57.158 19.1337 57.213 19.515 57.323 19.7864C57.433 20.0577 57.6016 20.2484 57.829 20.3584C58.0563 20.4684 58.3643 20.5234 58.753 20.5234H58.797V18.3894H60.733ZM65.8481 20.4904H64.0221L63.6921 21.8654H61.6681L63.6921 15.5954H66.2771L68.2131 21.8654H66.1781L65.8481 20.4904ZM64.9241 16.9484L64.2751 19.2694H65.5841L64.9681 16.9484H64.9241ZM72.1049 21.8654H70.1249V16.9704H68.3539V15.5954H73.8759V16.9704H72.1049V21.8654ZM75.0043 15.5954H79.5693V16.9154H76.9843V18.0594H79.1623V19.2474H76.9843V20.5234H79.5583V21.8654H75.0043V15.5954Z" fill="white"/>
<rect x="10" y="30" width="30" height="20" rx="5" fill="#36617C"/>
<rect x="50" y="30" width="30" height="20" rx="5" fill="#36617C"/>
<rect x="10" y="208" width="30" height="20" rx="5" fill="#36617C"/>
<rect x="50" y="208" width="30" height="20" rx="5" fill="#36617C"/>
<path d="M15.9951 96.668H13.6416V102H14.9258V100.081H15.751L16.7129 102H18.1631L17.04 99.9053C17.5283 99.7246 18.0557 99.1875 18.0557 98.4062C18.0557 97.3369 17.2939 96.668 15.9951 96.668ZM14.9258 99.1826V97.6201H15.8047C16.332 97.6201 16.7031 97.8984 16.7031 98.416C16.7031 98.9287 16.3418 99.1826 15.79 99.1826H14.9258ZM19.5908 100.447C19.6055 101.346 20.3232 102.098 21.8516 102.098C23.3555 102.098 24.1514 101.385 24.1514 100.384C24.1514 99.4463 23.5312 99.0361 22.6328 98.8604L21.8467 98.709C21.2949 98.5967 21.0215 98.4355 21.0215 98.123C21.0215 97.7812 21.3291 97.5225 21.8906 97.5225C22.4766 97.5225 22.8184 97.8154 22.8477 98.1865H24.0537C24.0439 97.3369 23.3115 96.5654 21.8955 96.5654C20.5869 96.5654 19.7129 97.2197 19.7129 98.2207C19.7129 99.0898 20.2695 99.5439 21.2656 99.7441L22.0127 99.8955C22.5791 100.013 22.8574 100.179 22.8574 100.511C22.8574 100.872 22.5449 101.131 21.9053 101.131C21.2705 101.131 20.8701 100.833 20.8408 100.447H19.5908ZM28.3184 102V97.6885H29.8662V96.668H25.4619V97.6885H27.0098V102H28.3184Z" fill="white"/>
<path d="M52.9883 100.447C53.0029 101.346 53.7207 102.098 55.249 102.098C56.7529 102.098 57.5488 101.385 57.5488 100.384C57.5488 99.4463 56.9287 99.0361 56.0303 98.8604L55.2441 98.709C54.6924 98.5967 54.4189 98.4355 54.4189 98.123C54.4189 97.7812 54.7266 97.5225 55.2881 97.5225C55.874 97.5225 56.2158 97.8154 56.2451 98.1865H57.4512C57.4414 97.3369 56.709 96.5654 55.293 96.5654C53.9844 96.5654 53.1104 97.2197 53.1104 98.2207C53.1104 99.0898 53.667 99.5439 54.6631 99.7441L55.4102 99.8955C55.9766 100.013 56.2549 100.179 56.2549 100.511C56.2549 100.872 55.9424 101.131 55.3027 101.131C54.668 101.131 54.2676 100.833 54.2383 100.447H52.9883ZM61.7158 102V97.6885H63.2637V96.668H58.8594V97.6885H60.4072V102H61.7158ZM69.2275 98.4746C69.2275 97.4834 68.5391 96.668 67.2695 96.668H64.916V102H66.2197V100.33H67.2598C68.5293 100.33 69.2275 99.4756 69.2275 98.4746ZM67.8994 98.5039C67.8994 99.041 67.5869 99.3828 67.0449 99.3828H66.2148V97.6299H66.9961C67.5674 97.6299 67.8994 97.9473 67.8994 98.5039ZM74.9688 102V96.668H73.6602V102H74.9688ZM78.2812 102V98.7529H78.3301L80.6445 102H81.6846V96.668H80.459V99.8857H80.4102L78.1055 96.668H77.0605V102H78.2812Z" fill="white"/>
<path d="M60.9336 148.098C62.5205 148.098 63.4238 147.126 63.4238 145.637V145.036C63.4238 143.542 62.5156 142.57 60.9287 142.57C59.3467 142.57 58.4385 143.537 58.4385 145.036V145.637C58.4385 147.126 59.3516 148.098 60.9336 148.098ZM60.9336 147.077C60.2061 147.077 59.7715 146.535 59.7715 145.642V145.021C59.7715 144.128 60.2061 143.591 60.9336 143.591C61.6562 143.591 62.0908 144.128 62.0908 145.021V145.642C62.0908 146.535 61.6562 147.077 60.9336 147.077ZM67.5713 147.048C66.9609 147.048 66.5361 146.687 66.5361 145.998V142.668H65.2227V146.145C65.2227 147.336 66.126 148.098 67.5713 148.098C69.0166 148.098 69.9199 147.331 69.9199 146.145V142.668H68.6113V145.998C68.6113 146.682 68.1816 147.048 67.5713 147.048ZM74.292 148V143.688H75.8398V142.668H71.4355V143.688H72.9834V148H74.292Z" fill="white"/>
<path d="M19.2939 148V142.668H17.9854V148H19.2939ZM22.6064 148V144.753H22.6553L24.9697 148H26.0098V142.668H24.7842V145.886H24.7354L22.4307 142.668H21.3857V148H22.6064Z" fill="white"/>
<path d="M16.4951 274.668H14.1416V280H15.4258V278.081H16.251L17.2129 280H18.6631L17.54 277.905C18.0283 277.725 18.5557 277.188 18.5557 276.406C18.5557 275.337 17.7939 274.668 16.4951 274.668ZM15.4258 277.183V275.62H16.3047C16.832 275.62 17.2031 275.898 17.2031 276.416C17.2031 276.929 16.8418 277.183 16.29 277.183H15.4258ZM20.0908 278.447C20.1055 279.346 20.8232 280.098 22.3516 280.098C23.8555 280.098 24.6514 279.385 24.6514 278.384C24.6514 277.446 24.0312 277.036 23.1328 276.86L22.3467 276.709C21.7949 276.597 21.5215 276.436 21.5215 276.123C21.5215 275.781 21.8291 275.522 22.3906 275.522C22.9766 275.522 23.3184 275.815 23.3477 276.187H24.5537C24.5439 275.337 23.8115 274.565 22.3955 274.565C21.0869 274.565 20.2129 275.22 20.2129 276.221C20.2129 277.09 20.7695 277.544 21.7656 277.744L22.5127 277.896C23.0791 278.013 23.3574 278.179 23.3574 278.511C23.3574 278.872 23.0449 279.131 22.4053 279.131C21.7705 279.131 21.3701 278.833 21.3408 278.447H20.0908ZM28.8184 280V275.688H30.3662V274.668H25.9619V275.688H27.5098V280H28.8184Z" fill="white"/>
<path d="M52.9883 278.447C53.0029 279.346 53.7207 280.098 55.249 280.098C56.7529 280.098 57.5488 279.385 57.5488 278.384C57.5488 277.446 56.9287 277.036 56.0303 276.86L55.2441 276.709C54.6924 276.597 54.4189 276.436 54.4189 276.123C54.4189 275.781 54.7266 275.522 55.2881 275.522C55.874 275.522 56.2158 275.815 56.2451 276.187H57.4512C57.4414 275.337 56.709 274.565 55.293 274.565C53.9844 274.565 53.1104 275.22 53.1104 276.221C53.1104 277.09 53.667 277.544 54.6631 277.744L55.4102 277.896C55.9766 278.013 56.2549 278.179 56.2549 278.511C56.2549 278.872 55.9424 279.131 55.3027 279.131C54.668 279.131 54.2676 278.833 54.2383 278.447H52.9883ZM61.7158 280V275.688H63.2637V274.668H58.8594V275.688H60.4072V280H61.7158ZM69.2275 276.475C69.2275 275.483 68.5391 274.668 67.2695 274.668H64.916V280H66.2197V278.33H67.2598C68.5293 278.33 69.2275 277.476 69.2275 276.475ZM67.8994 276.504C67.8994 277.041 67.5869 277.383 67.0449 277.383H66.2148V275.63H66.9961C67.5674 275.63 67.8994 275.947 67.8994 276.504ZM74.9688 280V274.668H73.6602V280H74.9688ZM78.2812 280V276.753H78.3301L80.6445 280H81.6846V274.668H80.459V277.886H80.4102L78.1055 274.668H77.0605V280H78.2812Z" fill="white"/>
<path d="M60.9336 326.098C62.5205 326.098 63.4238 325.126 63.4238 323.637V323.036C63.4238 321.542 62.5156 320.57 60.9287 320.57C59.3467 320.57 58.4385 321.537 58.4385 323.036V323.637C58.4385 325.126 59.3516 326.098 60.9336 326.098ZM60.9336 325.077C60.2061 325.077 59.7715 324.535 59.7715 323.642V323.021C59.7715 322.128 60.2061 321.591 60.9336 321.591C61.6562 321.591 62.0908 322.128 62.0908 323.021V323.642C62.0908 324.535 61.6562 325.077 60.9336 325.077ZM67.5713 325.048C66.9609 325.048 66.5361 324.687 66.5361 323.998V320.668H65.2227V324.145C65.2227 325.336 66.126 326.098 67.5713 326.098C69.0166 326.098 69.9199 325.331 69.9199 324.145V320.668H68.6113V323.998C68.6113 324.682 68.1816 325.048 67.5713 325.048ZM74.292 326V321.688H75.8398V320.668H71.4355V321.688H72.9834V326H74.292Z" fill="white"/>
<path d="M19.2939 326V320.668H17.9854V326H19.2939ZM22.6064 326V322.753H22.6553L24.9697 326H26.0098V320.668H24.7842V323.886H24.7354L22.4307 320.668H21.3857V326H22.6064Z" fill="white"/>
<line opacity="0.5" x1="-1.3125" y1="193" x2="88.6875" y2="193" stroke="#1D3557"/>
</g>
<defs>
<clipPath id="clip0">
<rect width="90" height="380" fill="white"/>
</clipPath>
</defs>
</svg>
