<svg width="75" height="380" viewBox="0 0 75 380" fill="none" xmlns="http://www.w3.org/2000/svg">
<rect width="75" height="380" fill="#457B9D"/>
<g opacity="0.5">
<path fill-rule="evenodd" clip-rule="evenodd" d="M31.958 375.599C31.803 375.747 31.659 375.851 31.526 375.909C31.393 375.968 31.251 375.998 31.1 375.998C30.948 375.998 30.806 375.97 30.673 375.914C30.54 375.858 30.424 375.781 30.325 375.682C30.109 375.466 30 375.209 30 374.912V369.385C30 369.082 30.078 368.847 30.232 368.68C30.498 368.408 30.75 368.272 30.988 368.272C31.226 368.272 31.404 368.296 31.522 368.346C31.639 368.395 31.738 368.457 31.818 368.531C31.924 368.624 32.002 368.723 32.055 368.828C32.108 368.933 32.151 369.011 32.185 369.06C32.219 369.11 32.275 369.134 32.352 369.134C32.429 369.134 32.496 369.11 32.551 369.06L32.709 368.902C33.16 368.482 33.612 368.272 34.063 368.272C34.861 368.272 35.519 368.599 36.039 369.255C36.088 369.323 36.15 369.357 36.224 369.357C36.354 369.357 36.486 369.256 36.619 369.055C36.752 368.854 36.966 368.674 37.263 368.513C37.56 368.352 37.906 368.272 38.302 368.272C38.698 368.272 39.058 368.344 39.383 368.49C39.707 368.635 39.99 368.834 40.231 369.088C40.738 369.62 40.992 370.263 40.992 371.017V374.912C40.992 375.382 40.769 375.713 40.324 375.905C40.188 375.967 40.044 375.998 39.893 375.998C39.741 375.998 39.599 375.97 39.466 375.914C39.333 375.858 39.217 375.781 39.118 375.682C38.908 375.46 38.803 375.203 38.803 374.912V371.045C38.803 370.736 38.726 370.504 38.571 370.349C38.299 370.077 38.049 369.941 37.82 369.941C37.591 369.941 37.412 369.971 37.282 370.029C37.152 370.088 37.034 370.17 36.929 370.275C36.713 370.492 36.605 370.742 36.605 371.026V374.912C36.605 375.382 36.385 375.713 35.946 375.905C35.81 375.967 35.666 375.998 35.515 375.998C35.363 375.998 35.22 375.97 35.083 375.914C34.947 375.858 34.83 375.781 34.731 375.682C34.515 375.466 34.406 375.209 34.406 374.912V371.045C34.406 370.736 34.329 370.504 34.174 370.349C33.902 370.077 33.618 369.941 33.321 369.941C32.826 369.941 32.483 370.133 32.292 370.516C32.23 370.64 32.199 370.779 32.199 370.934V374.912C32.199 375.215 32.118 375.444 31.958 375.599ZM43.219 369.387C43.219 369.084 43.296 368.849 43.451 368.682C43.716 368.41 44.01 368.274 44.332 368.274C44.641 368.274 44.87 368.355 45.018 368.515C45.29 368.794 45.426 369.084 45.426 369.387V374.915C45.426 375.212 45.349 375.437 45.194 375.592C44.922 375.864 44.672 376 44.443 376C44.214 376 44.032 375.971 43.896 375.912C43.76 375.853 43.642 375.777 43.543 375.685C43.327 375.474 43.219 375.218 43.219 374.915V369.387ZM44.327 365.9C44.065 365.9 43.852 365.687 43.852 365.425C43.852 365.162 44.065 364.95 44.327 364.95C44.589 364.95 44.802 365.162 44.802 365.425C44.802 365.687 44.589 365.9 44.327 365.9ZM44.327 364C44.714 364 45.048 364.142 45.329 364.425C45.611 364.709 45.752 364.996 45.752 365.287C45.752 365.577 45.713 365.807 45.635 365.978C45.558 366.148 45.456 366.297 45.329 366.424C45.048 366.708 44.714 366.849 44.327 366.849C43.94 366.849 43.606 366.708 43.324 366.424C43.043 366.141 42.902 365.857 42.902 365.574C42.902 365.092 43.043 364.709 43.324 364.425C43.606 364.142 43.94 364 44.327 364Z" fill="#1D3557"/>
</g>
<path d="M29.6661 22.8654H27.6501L27.4941 19.0974C27.4701 18.3534 27.4421 17.7894 27.4101 17.4054H27.3741C27.2781 17.7094 27.1661 18.1814 27.0381 18.8214L26.9781 19.1214L26.1501 22.8654H24.1341L23.4381 19.4934L23.3181 18.8934C23.1501 18.1494 23.0341 17.6534 22.9701 17.4054H22.9341C22.9021 17.8054 22.8741 18.4574 22.8501 19.3614C22.8421 19.4174 22.8381 19.5054 22.8381 19.6254L22.7301 22.8654H20.7021L20.9901 16.0254H24.4221L25.0101 18.9774L25.1541 19.7694C25.2181 19.5214 25.2781 19.2454 25.3341 18.9414L25.8861 16.0254H29.3901L29.6661 22.8654ZM30.665 16.0254H35.645V17.4654H32.825V18.7134H35.201V20.0094H32.825V21.4014H35.633V22.8654H30.665V16.0254ZM42.7889 22.8654H40.5209L40.1129 21.1374C40.0969 21.0734 40.0689 20.9654 40.0289 20.8134C39.9969 20.6534 39.9569 20.5374 39.9089 20.4654C39.8609 20.3854 39.7929 20.3334 39.7049 20.3094C39.4809 20.3174 39.1529 20.3214 38.7209 20.3214V22.8654H36.5609V16.0854C37.5289 16.0134 38.4329 15.9774 39.2729 15.9774C40.0329 15.9774 40.6489 16.0414 41.1209 16.1694C41.5929 16.2894 41.9449 16.5014 42.1769 16.8054C42.4169 17.1014 42.5369 17.5094 42.5369 18.0294C42.5369 18.5174 42.4249 18.9014 42.2009 19.1814C41.9769 19.4534 41.6169 19.6174 41.1209 19.6734V19.7454C41.4009 19.7694 41.6329 19.8614 41.8169 20.0214C42.0089 20.1734 42.1369 20.3694 42.2009 20.6094L42.7889 22.8654ZM38.7209 18.9654C38.7929 18.9734 38.9329 18.9774 39.1409 18.9774C39.7569 18.9774 40.1169 18.9254 40.2209 18.8214C40.3169 18.7254 40.3649 18.5014 40.3649 18.1494C40.3649 17.8214 40.2769 17.5974 40.1009 17.4774C39.9329 17.3574 39.6529 17.2974 39.2609 17.2974C39.1729 17.2974 38.9929 17.3054 38.7209 17.3214V18.9654ZM49.4979 19.0734V22.4934C48.9619 22.6694 48.4539 22.7974 47.9739 22.8774C47.4939 22.9574 47.0899 22.9974 46.7619 22.9974C45.6739 22.9974 44.8219 22.7134 44.2059 22.1454C43.5899 21.5774 43.2819 20.7054 43.2819 19.5294C43.2819 18.3294 43.6059 17.4334 44.2539 16.8414C44.9019 16.2414 45.8139 15.9414 46.9899 15.9414C47.6059 15.9414 48.3459 16.0334 49.2099 16.2174C49.2099 16.3774 49.1939 16.6174 49.1619 16.9374C49.1299 17.2494 49.0979 17.4694 49.0659 17.5974L48.6339 17.5854C48.1059 17.5694 47.6939 17.5614 47.3979 17.5614C46.5099 17.5614 46.0259 17.6134 45.9459 17.7174C45.8179 17.8694 45.7259 18.1054 45.6699 18.4254C45.6219 18.7454 45.5979 19.0534 45.5979 19.3494C45.5979 19.8854 45.6579 20.3014 45.7779 20.5974C45.8979 20.8934 46.0819 21.1014 46.3299 21.2214C46.5779 21.3414 46.9139 21.4014 47.3379 21.4014H47.3859V19.0734H49.4979ZM50.458 16.0254H55.438V17.4654H52.618V18.7134H54.994V20.0094H52.618V21.4014H55.426V22.8654H50.458V16.0254Z" fill="#A8DADC"/>
<path d="M14.5076 305.156C13.5476 305.156 12.8276 304.932 12.3476 304.484C11.8756 304.028 11.6396 303.312 11.6396 302.336C11.6396 301.8 11.6876 301.332 11.7836 300.932C11.8876 300.524 12.0116 300.24 12.1556 300.08C12.3396 299.872 12.6756 299.7 13.1636 299.564C13.6596 299.428 14.1236 299.36 14.5556 299.36C15.5876 299.36 16.3236 299.58 16.7636 300.02C17.2036 300.46 17.4236 301.164 17.4236 302.132C17.4236 303.172 17.1876 303.936 16.7156 304.424C16.2436 304.912 15.5076 305.156 14.5076 305.156ZM14.5436 303.752C14.8556 303.752 15.0596 303.644 15.1556 303.428C15.2516 303.204 15.2996 302.812 15.2996 302.252C15.2996 301.86 15.2796 301.56 15.2396 301.352C15.1996 301.136 15.1236 300.98 15.0116 300.884C14.9076 300.78 14.7436 300.728 14.5196 300.728C14.1996 300.728 14.0156 300.756 13.9676 300.812C13.9036 300.868 13.8516 301.044 13.8116 301.34C13.7716 301.636 13.7516 301.944 13.7516 302.264C13.7516 302.808 13.8036 303.192 13.9076 303.416C14.0196 303.64 14.2316 303.752 14.5436 303.752ZM23.7268 299.48V305H22.0588L21.8308 304.076C21.2548 304.772 20.5668 305.12 19.7668 305.12C19.4788 305.12 19.2068 305.08 18.9508 305C18.7028 304.92 18.5148 304.804 18.3868 304.652C18.3148 304.564 18.2588 304.344 18.2188 303.992C18.1868 303.64 18.1708 303.104 18.1708 302.384V299.48H20.2228V302.36C20.2228 302.52 20.2268 302.708 20.2348 302.924C20.2428 303.14 20.2668 303.276 20.3068 303.332C20.3628 303.412 20.5228 303.452 20.7868 303.452L20.9788 303.44C21.2028 303.432 21.4348 303.38 21.6748 303.284V299.48H23.7268ZM27.2548 302.732C27.2548 302.876 27.2588 303.028 27.2668 303.188C27.2748 303.34 27.2988 303.436 27.3388 303.476C27.3948 303.532 27.5908 303.56 27.9268 303.56L28.3348 303.548C28.4068 303.932 28.4428 304.376 28.4428 304.88C28.2908 304.936 28.0668 304.988 27.7708 305.036C27.4828 305.084 27.2068 305.108 26.9428 305.108C26.3908 305.108 25.9628 304.988 25.6588 304.748C25.3628 304.5 25.2148 304.12 25.2148 303.608V300.656H24.3148V299.564L25.2148 299.48L25.7548 298.16L27.2548 298.076V299.48H28.5268V300.656H27.2548V302.732Z" fill="#A8DADC"/>
<path d="M40.5712 324.064L36.4132 321.992L40.5712 319.906V324.064Z" fill="#A8DADC"/>
<path d="M49.5076 305.156C48.5476 305.156 47.8276 304.932 47.3476 304.484C46.8756 304.028 46.6396 303.312 46.6396 302.336C46.6396 301.8 46.6876 301.332 46.7836 300.932C46.8876 300.524 47.0116 300.24 47.1556 300.08C47.3396 299.872 47.6756 299.7 48.1636 299.564C48.6596 299.428 49.1236 299.36 49.5556 299.36C50.5876 299.36 51.3236 299.58 51.7636 300.02C52.2036 300.46 52.4236 301.164 52.4236 302.132C52.4236 303.172 52.1876 303.936 51.7156 304.424C51.2436 304.912 50.5076 305.156 49.5076 305.156ZM49.5436 303.752C49.8556 303.752 50.0596 303.644 50.1556 303.428C50.2516 303.204 50.2996 302.812 50.2996 302.252C50.2996 301.86 50.2796 301.56 50.2396 301.352C50.1996 301.136 50.1236 300.98 50.0116 300.884C49.9076 300.78 49.7436 300.728 49.5196 300.728C49.1996 300.728 49.0156 300.756 48.9676 300.812C48.9036 300.868 48.8516 301.044 48.8116 301.34C48.7716 301.636 48.7516 301.944 48.7516 302.264C48.7516 302.808 48.8036 303.192 48.9076 303.416C49.0196 303.64 49.2316 303.752 49.5436 303.752ZM58.7268 299.48V305H57.0588L56.8308 304.076C56.2548 304.772 55.5668 305.12 54.7668 305.12C54.4788 305.12 54.2068 305.08 53.9508 305C53.7028 304.92 53.5148 304.804 53.3868 304.652C53.3148 304.564 53.2588 304.344 53.2188 303.992C53.1868 303.64 53.1708 303.104 53.1708 302.384V299.48H55.2228V302.36C55.2228 302.52 55.2268 302.708 55.2348 302.924C55.2428 303.14 55.2668 303.276 55.3068 303.332C55.3628 303.412 55.5228 303.452 55.7868 303.452L55.9788 303.44C56.2028 303.432 56.4348 303.38 56.6748 303.284V299.48H58.7268ZM62.2548 302.732C62.2548 302.876 62.2588 303.028 62.2668 303.188C62.2748 303.34 62.2988 303.436 62.3388 303.476C62.3948 303.532 62.5908 303.56 62.9268 303.56L63.3348 303.548C63.4068 303.932 63.4428 304.376 63.4428 304.88C63.2908 304.936 63.0668 304.988 62.7708 305.036C62.4828 305.084 62.2068 305.108 61.9428 305.108C61.3908 305.108 60.9628 304.988 60.6588 304.748C60.3628 304.5 60.2148 304.12 60.2148 303.608V300.656H59.3148V299.564L60.2148 299.48L60.7548 298.16L62.2548 298.076V299.48H63.5268V300.656H62.2548V302.732Z" fill="#A8DADC"/>
<path d="M16.7553 53.796C16.4833 53.796 16.2473 53.704 16.0473 53.52C15.8553 53.336 15.7593 53.116 15.7593 52.86C15.7593 52.604 15.8553 52.384 16.0473 52.2C16.2473 52.016 16.4833 51.924 16.7553 51.924C17.0273 51.924 17.2593 52.016 17.4513 52.2C17.6433 52.384 17.7393 52.604 17.7393 52.86C17.7393 53.116 17.6433 53.336 17.4513 53.52C17.2593 53.704 17.0273 53.796 16.7553 53.796ZM15.7233 54.48H17.7753V60H15.7233V54.48ZM24.1328 54.828C24.2048 54.916 24.2568 55.136 24.2888 55.488C24.3288 55.84 24.3488 56.376 24.3488 57.096V60H22.2968V57.12V56.628C22.2968 56.372 22.2768 56.212 22.2368 56.148C22.1728 56.068 22.0248 56.028 21.7928 56.028C21.6808 56.028 21.5968 56.032 21.5408 56.04C21.3168 56.048 21.0848 56.1 20.8448 56.196V60H18.7928V54.48H20.4608L20.6888 55.404C21.2648 54.708 21.9528 54.36 22.7528 54.36C23.0408 54.36 23.3088 54.4 23.5568 54.48C23.8128 54.56 24.0048 54.676 24.1328 54.828Z" fill="#A8DADC"/>
<path d="M51.7553 53.796C51.4833 53.796 51.2473 53.704 51.0473 53.52C50.8553 53.336 50.7593 53.116 50.7593 52.86C50.7593 52.604 50.8553 52.384 51.0473 52.2C51.2473 52.016 51.4833 51.924 51.7553 51.924C52.0273 51.924 52.2593 52.016 52.4513 52.2C52.6433 52.384 52.7393 52.604 52.7393 52.86C52.7393 53.116 52.6433 53.336 52.4513 53.52C52.2593 53.704 52.0273 53.796 51.7553 53.796ZM50.7233 54.48H52.7753V60H50.7233V54.48ZM59.1328 54.828C59.2048 54.916 59.2568 55.136 59.2888 55.488C59.3288 55.84 59.3488 56.376 59.3488 57.096V60H57.2968V57.12V56.628C57.2968 56.372 57.2768 56.212 57.2368 56.148C57.1728 56.068 57.0248 56.028 56.7928 56.028C56.6808 56.028 56.5968 56.032 56.5408 56.04C56.3168 56.048 56.0848 56.1 55.8448 56.196V60H53.7928V54.48H55.4608L55.6888 55.404C56.2648 54.708 56.9528 54.36 57.7528 54.36C58.0408 54.36 58.3088 54.4 58.5568 54.48C58.8128 54.56 59.0048 54.676 59.1328 54.828Z" fill="#A8DADC"/>
<rect x="34.5" y="247" width="6" height="6" rx="1" fill="#A8DADC"/>
<path d="M35.9147 247.69H39.2347V248.65H37.3547V249.482H38.9387V250.346H37.3547V251.274H39.2267V252.25H35.9147V247.69Z" fill="#457B9D"/>
<rect x="34.5" y="202" width="6" height="6" rx="1" fill="#A8DADC"/>
<path d="M36.9844 202.69C37.6084 202.69 38.1177 202.749 38.5124 202.866C38.9124 202.983 39.2217 203.205 39.4404 203.53C39.6644 203.855 39.7764 204.322 39.7764 204.93C39.7764 205.581 39.659 206.077 39.4244 206.418C39.1897 206.754 38.875 206.978 38.4804 207.09C38.0857 207.197 37.587 207.25 36.9844 207.25H35.3844V202.69H36.9844ZM38.0564 206.162C38.1204 206.098 38.1657 205.933 38.1924 205.666C38.219 205.399 38.2324 205.154 38.2324 204.93C38.2324 204.647 38.211 204.423 38.1684 204.258C38.131 204.087 38.0617 203.951 37.9604 203.85C37.8004 203.674 37.5257 203.586 37.1364 203.586C37.067 203.586 36.963 203.591 36.8244 203.602V206.258C36.915 206.269 37.0564 206.274 37.2484 206.274C37.4457 206.274 37.619 206.266 37.7684 206.25C37.923 206.229 38.019 206.199 38.0564 206.162Z" fill="#457B9D"/>
<rect x="34.5" y="157" width="6" height="6" rx="1" fill="#A8DADC"/>
<path d="M39.4252 162.098C39.2279 162.183 38.9986 162.245 38.7372 162.282C38.4759 162.319 38.2332 162.338 38.0092 162.338C37.2839 162.338 36.7159 162.149 36.3052 161.77C35.8946 161.391 35.6892 160.81 35.6892 160.026C35.6892 159.226 35.9052 158.629 36.3372 158.234C36.7692 157.834 37.3772 157.634 38.1612 157.634C38.5346 157.634 38.9239 157.685 39.3292 157.786C39.3292 157.893 39.3186 158.053 39.2972 158.266C39.2759 158.474 39.2546 158.621 39.2332 158.706H38.7292C38.3612 158.706 38.0706 158.714 37.8572 158.73C37.6492 158.741 37.5239 158.765 37.4812 158.802C37.4012 158.877 37.3399 159.029 37.2972 159.258C37.2546 159.482 37.2332 159.698 37.2332 159.906C37.2332 160.269 37.2786 160.549 37.3692 160.746C37.4599 160.938 37.5746 161.066 37.7132 161.13C37.8466 161.194 38.0679 161.226 38.3772 161.226C38.6226 161.226 38.9426 161.205 39.3372 161.162L39.4252 162.098Z" fill="#457B9D"/>
<rect x="34.5" y="112" width="6" height="6" rx="1" fill="#A8DADC"/>
<path d="M38.5748 114.842C38.9375 114.885 39.1962 115.007 39.3508 115.21C39.5055 115.407 39.5828 115.647 39.5828 115.93C39.5828 116.106 39.5562 116.274 39.5028 116.434C39.4495 116.589 39.3855 116.722 39.3108 116.834C39.2362 116.941 39.1722 117.01 39.1188 117.042C38.9055 117.181 38.2548 117.25 37.1668 117.25H35.6148V112.69H37.4948C37.9215 112.69 38.2655 112.714 38.5268 112.762C38.7935 112.805 39.0095 112.906 39.1748 113.066C39.3402 113.221 39.4228 113.458 39.4228 113.778C39.4228 114.055 39.3535 114.279 39.2148 114.45C39.0815 114.621 38.8682 114.738 38.5748 114.802V114.842ZM37.9348 113.658C37.8815 113.605 37.8175 113.573 37.7428 113.562C37.6735 113.546 37.5615 113.538 37.4068 113.538C37.2522 113.538 37.1348 113.541 37.0548 113.546V114.522H37.1348C37.1615 114.522 37.2735 114.522 37.4708 114.522C37.6682 114.522 37.7988 114.509 37.8628 114.482C37.9108 114.461 37.9535 114.405 37.9908 114.314C38.0335 114.223 38.0548 114.125 38.0548 114.018C38.0548 113.858 38.0148 113.738 37.9348 113.658ZM38.0708 116.33C38.1082 116.298 38.1375 116.239 38.1588 116.154C38.1855 116.063 38.1988 115.973 38.1988 115.882C38.1988 115.77 38.1828 115.666 38.1508 115.57C38.1242 115.469 38.0868 115.397 38.0388 115.354C37.9908 115.306 37.9215 115.274 37.8308 115.258C37.7455 115.242 37.5988 115.234 37.3908 115.234C37.2575 115.234 37.1455 115.237 37.0548 115.242V116.402C37.3055 116.407 37.5295 116.405 37.7268 116.394C37.9242 116.378 38.0388 116.357 38.0708 116.33Z" fill="#457B9D"/>
<rect x="34.5" y="67" width="6" height="6" rx="1" fill="#A8DADC"/>
<path d="M38.1611 71.25H36.8331L36.5931 72.25H35.1211L36.5931 67.69H38.4731L39.8811 72.25H38.4011L38.1611 71.25ZM37.4891 68.674L37.0171 70.362H37.9691L37.5211 68.674H37.4891Z" fill="#457B9D"/>
</svg>
