<svg width="75" height="380" viewBox="0 0 75 380" fill="none" xmlns="http://www.w3.org/2000/svg">
<rect width="75" height="380" fill="#457B9D"/>
<g opacity="0.3">
<path fill-rule="evenodd" clip-rule="evenodd" d="M31.958 375.599C31.803 375.747 31.659 375.851 31.526 375.909C31.393 375.968 31.251 375.998 31.1 375.998C30.948 375.998 30.806 375.97 30.673 375.914C30.54 375.858 30.424 375.781 30.325 375.682C30.109 375.466 30 375.209 30 374.912V369.385C30 369.082 30.078 368.847 30.232 368.68C30.498 368.408 30.75 368.272 30.988 368.272C31.226 368.272 31.404 368.296 31.522 368.346C31.639 368.395 31.738 368.457 31.818 368.531C31.924 368.624 32.002 368.723 32.055 368.828C32.108 368.933 32.151 369.011 32.185 369.06C32.219 369.11 32.275 369.134 32.352 369.134C32.429 369.134 32.496 369.11 32.551 369.06L32.709 368.902C33.16 368.482 33.612 368.272 34.063 368.272C34.861 368.272 35.519 368.599 36.039 369.255C36.088 369.323 36.15 369.357 36.224 369.357C36.354 369.357 36.486 369.256 36.619 369.055C36.752 368.854 36.966 368.674 37.263 368.513C37.56 368.352 37.906 368.272 38.302 368.272C38.698 368.272 39.058 368.344 39.383 368.49C39.707 368.635 39.99 368.834 40.231 369.088C40.738 369.62 40.992 370.263 40.992 371.017V374.912C40.992 375.382 40.769 375.713 40.324 375.905C40.188 375.967 40.044 375.998 39.893 375.998C39.741 375.998 39.599 375.97 39.466 375.914C39.333 375.858 39.217 375.781 39.118 375.682C38.908 375.46 38.803 375.203 38.803 374.912V371.045C38.803 370.736 38.726 370.504 38.571 370.349C38.299 370.077 38.049 369.941 37.82 369.941C37.591 369.941 37.412 369.971 37.282 370.029C37.152 370.088 37.034 370.17 36.929 370.275C36.713 370.492 36.605 370.742 36.605 371.026V374.912C36.605 375.382 36.385 375.713 35.946 375.905C35.81 375.967 35.666 375.998 35.515 375.998C35.363 375.998 35.22 375.97 35.083 375.914C34.947 375.858 34.83 375.781 34.731 375.682C34.515 375.466 34.406 375.209 34.406 374.912V371.045C34.406 370.736 34.329 370.504 34.174 370.349C33.902 370.077 33.618 369.941 33.321 369.941C32.826 369.941 32.483 370.133 32.292 370.516C32.23 370.64 32.199 370.779 32.199 370.934V374.912C32.199 375.215 32.118 375.444 31.958 375.599ZM43.219 369.387C43.219 369.084 43.296 368.849 43.451 368.682C43.716 368.41 44.01 368.274 44.332 368.274C44.641 368.274 44.87 368.355 45.018 368.515C45.29 368.794 45.426 369.084 45.426 369.387V374.915C45.426 375.212 45.349 375.437 45.194 375.592C44.922 375.864 44.672 376 44.443 376C44.214 376 44.032 375.971 43.896 375.912C43.76 375.853 43.642 375.777 43.543 375.685C43.327 375.474 43.219 375.218 43.219 374.915V369.387ZM44.327 365.9C44.065 365.9 43.852 365.687 43.852 365.425C43.852 365.162 44.065 364.95 44.327 364.95C44.589 364.95 44.802 365.162 44.802 365.425C44.802 365.687 44.589 365.9 44.327 365.9ZM44.327 364C44.714 364 45.048 364.142 45.329 364.425C45.611 364.709 45.752 364.996 45.752 365.287C45.752 365.577 45.713 365.807 45.635 365.978C45.558 366.148 45.456 366.297 45.329 366.424C45.048 366.708 44.714 366.849 44.327 366.849C43.94 366.849 43.606 366.708 43.324 366.424C43.043 366.141 42.902 365.857 42.902 365.574C42.902 365.092 43.043 364.709 43.324 364.425C43.606 364.142 43.94 364 44.327 364Z" fill="#1D3557"/>
</g>
<path d="M29.7606 21.8654H27.9126L27.7696 18.4114C27.7476 17.7294 27.7219 17.2124 27.6926 16.8604H27.6596C27.5716 17.139 27.4689 17.5717 27.3516 18.1584L27.2966 18.4334L26.5376 21.8654H24.6896L24.0516 18.7744L23.9416 18.2244C23.7876 17.5424 23.6813 17.0877 23.6226 16.8604H23.5896C23.5603 17.227 23.5346 17.8247 23.5126 18.6534C23.5053 18.7047 23.5016 18.7854 23.5016 18.8954L23.4026 21.8654H21.5436L21.8076 15.5954H24.9536L25.4926 18.3014L25.6246 19.0274C25.6833 18.8 25.7383 18.547 25.7896 18.2684L26.2956 15.5954H29.5076L29.7606 21.8654ZM31.2262 15.5954H35.7912V16.9154H33.2062V18.0594H35.3842V19.2474H33.2062V20.5234H35.7803V21.8654H31.2262V15.5954ZM42.8899 21.8654H40.8109L40.4369 20.2814C40.4222 20.2227 40.3965 20.1237 40.3599 19.9844C40.3305 19.8377 40.2939 19.7314 40.2499 19.6654C40.2059 19.592 40.1435 19.5444 40.0629 19.5224C39.8575 19.5297 39.5569 19.5334 39.1609 19.5334V21.8654H37.1809V15.6504C38.0682 15.5844 38.8969 15.5514 39.6669 15.5514C40.3635 15.5514 40.9282 15.61 41.3609 15.7274C41.7935 15.8374 42.1162 16.0317 42.3289 16.3104C42.5489 16.5817 42.6589 16.9557 42.6589 17.4324C42.6589 17.8797 42.5562 18.2317 42.3509 18.4884C42.1455 18.7377 41.8155 18.888 41.3609 18.9394V19.0054C41.6175 19.0274 41.8302 19.1117 41.9989 19.2584C42.1749 19.3977 42.2922 19.5774 42.3509 19.7974L42.8899 21.8654ZM39.1609 18.2904C39.2269 18.2977 39.3552 18.3014 39.5459 18.3014C40.1105 18.3014 40.4405 18.2537 40.5359 18.1584C40.6239 18.0704 40.6679 17.865 40.6679 17.5424C40.6679 17.2417 40.5872 17.0364 40.4259 16.9264C40.2719 16.8164 40.0152 16.7614 39.6559 16.7614C39.5752 16.7614 39.4102 16.7687 39.1609 16.7834V18.2904ZM49.5897 18.3894V21.5244C49.0984 21.6857 48.6327 21.803 48.1927 21.8764C47.7527 21.9497 47.3824 21.9864 47.0817 21.9864C46.0844 21.9864 45.3034 21.726 44.7387 21.2054C44.1741 20.6847 43.8917 19.8854 43.8917 18.8074C43.8917 17.7074 44.1887 16.886 44.7827 16.3434C45.3767 15.7934 46.2127 15.5184 47.2907 15.5184C47.8554 15.5184 48.5337 15.6027 49.3257 15.7714C49.3257 15.918 49.3111 16.138 49.2817 16.4314C49.2524 16.7174 49.2231 16.919 49.1937 17.0364L48.7977 17.0254C48.3137 17.0107 47.9361 17.0034 47.6647 17.0034C46.8507 17.0034 46.4071 17.051 46.3337 17.1464C46.2164 17.2857 46.1321 17.502 46.0807 17.7954C46.0367 18.0887 46.0147 18.371 46.0147 18.6424C46.0147 19.1337 46.0697 19.515 46.1797 19.7864C46.2897 20.0577 46.4584 20.2484 46.6857 20.3584C46.9131 20.4684 47.2211 20.5234 47.6097 20.5234H47.6537V18.3894H49.5897ZM51.0198 15.5954H55.5848V16.9154H52.9998V18.0594H55.1778V19.2474H52.9998V20.5234H55.5738V21.8654H51.0198V15.5954Z" fill="white"/>
<path d="M13.9336 305.098C15.5205 305.098 16.4238 304.126 16.4238 302.637V302.036C16.4238 300.542 15.5156 299.57 13.9287 299.57C12.3467 299.57 11.4385 300.537 11.4385 302.036V302.637C11.4385 304.126 12.3516 305.098 13.9336 305.098ZM13.9336 304.077C13.2061 304.077 12.7715 303.535 12.7715 302.642V302.021C12.7715 301.128 13.2061 300.591 13.9336 300.591C14.6562 300.591 15.0908 301.128 15.0908 302.021V302.642C15.0908 303.535 14.6562 304.077 13.9336 304.077ZM20.5713 304.048C19.9609 304.048 19.5361 303.687 19.5361 302.998V299.668H18.2227V303.145C18.2227 304.336 19.126 305.098 20.5713 305.098C22.0166 305.098 22.9199 304.331 22.9199 303.145V299.668H21.6113V302.998C21.6113 303.682 21.1816 304.048 20.5713 304.048ZM27.292 305V300.688H28.8398V299.668H24.4355V300.688H25.9834V305H27.292Z" fill="white"/>
<path d="M40.5712 324.064L36.4132 321.992L40.5712 319.906V324.064Z" fill="white"/>
<path d="M48.9336 305.098C50.5205 305.098 51.4238 304.126 51.4238 302.637V302.036C51.4238 300.542 50.5156 299.57 48.9287 299.57C47.3467 299.57 46.4385 300.537 46.4385 302.036V302.637C46.4385 304.126 47.3516 305.098 48.9336 305.098ZM48.9336 304.077C48.2061 304.077 47.7715 303.535 47.7715 302.642V302.021C47.7715 301.128 48.2061 300.591 48.9336 300.591C49.6562 300.591 50.0908 301.128 50.0908 302.021V302.642C50.0908 303.535 49.6562 304.077 48.9336 304.077ZM55.5713 304.048C54.9609 304.048 54.5361 303.687 54.5361 302.998V299.668H53.2227V303.145C53.2227 304.336 54.126 305.098 55.5713 305.098C57.0166 305.098 57.9199 304.331 57.9199 303.145V299.668H56.6113V302.998C56.6113 303.682 56.1816 304.048 55.5713 304.048ZM62.292 305V300.688H63.8398V299.668H59.4355V300.688H60.9834V305H62.292Z" fill="white"/>
<path d="M17.2939 60V54.668H15.9854V60H17.2939ZM20.6064 60V56.7529H20.6553L22.9697 60H24.0098V54.668H22.7842V57.8857H22.7354L20.4307 54.668H19.3857V60H20.6064Z" fill="white"/>
<path d="M52.2939 60V54.668H50.9854V60H52.2939ZM55.6064 60V56.7529H55.6553L57.9697 60H59.0098V54.668H57.7842V57.8857H57.7354L55.4307 54.668H54.3857V60H55.6064Z" fill="white"/>
<rect x="34" y="269" width="7" height="7" rx="1" fill="white"/>
<path d="M35.7165 269.87H39.4515V270.95H37.3365V271.886H39.1185V272.858H37.3365V273.902H39.4425V275H35.7165V269.87Z" fill="#457B9D"/>
<rect x="34" y="224" width="7" height="7" rx="1" fill="white"/>
<path d="M36.9199 224.87C37.6219 224.87 38.1949 224.936 38.6389 225.068C39.0889 225.2 39.4369 225.449 39.6829 225.815C39.9349 226.181 40.0609 226.706 40.0609 227.39C40.0609 228.122 39.9289 228.68 39.6649 229.064C39.4009 229.442 39.0469 229.694 38.6029 229.82C38.1589 229.94 37.5979 230 36.9199 230H35.1199V224.87H36.9199ZM38.1259 228.776C38.1979 228.704 38.2489 228.518 38.2789 228.218C38.3089 227.918 38.3239 227.642 38.3239 227.39C38.3239 227.072 38.2999 226.82 38.2519 226.634C38.2099 226.442 38.1319 226.289 38.0179 226.175C37.8379 225.977 37.5289 225.878 37.0909 225.878C37.0129 225.878 36.8959 225.884 36.7399 225.896V228.884C36.8419 228.896 37.0009 228.902 37.2169 228.902C37.4389 228.902 37.6339 228.893 37.8019 228.875C37.9759 228.851 38.0839 228.818 38.1259 228.776Z" fill="#457B9D"/>
<rect x="34" y="179" width="7" height="7" rx="1" fill="white"/>
<path d="M39.6659 184.829C39.4439 184.925 39.1859 184.994 38.8919 185.036C38.5979 185.078 38.3249 185.099 38.0729 185.099C37.2569 185.099 36.6179 184.886 36.1559 184.46C35.6939 184.034 35.4629 183.38 35.4629 182.498C35.4629 181.598 35.7059 180.926 36.1919 180.482C36.6779 180.032 37.3619 179.807 38.2439 179.807C38.6639 179.807 39.1019 179.864 39.5579 179.978C39.5579 180.098 39.5459 180.278 39.5219 180.518C39.4979 180.752 39.4739 180.917 39.4499 181.013H38.8829C38.4689 181.013 38.1419 181.022 37.9019 181.04C37.6679 181.052 37.5269 181.079 37.4789 181.121C37.3889 181.205 37.3199 181.376 37.2719 181.634C37.2239 181.886 37.1999 182.129 37.1999 182.363C37.1999 182.771 37.2509 183.086 37.3529 183.308C37.4549 183.524 37.5839 183.668 37.7399 183.74C37.8899 183.812 38.1389 183.848 38.4869 183.848C38.7629 183.848 39.1229 183.824 39.5669 183.776L39.6659 184.829Z" fill="#457B9D"/>
<rect x="34" y="134" width="7" height="7" rx="1" fill="white"/>
<path d="M38.7092 137.291C39.1172 137.339 39.4082 137.477 39.5822 137.705C39.7562 137.927 39.8432 138.197 39.8432 138.515C39.8432 138.713 39.8132 138.902 39.7532 139.082C39.6932 139.256 39.6212 139.406 39.5372 139.532C39.4532 139.652 39.3812 139.73 39.3212 139.766C39.0812 139.922 38.3492 140 37.1252 140H35.3792V134.87H37.4942C37.9742 134.87 38.3612 134.897 38.6552 134.951C38.9552 134.999 39.1982 135.113 39.3842 135.293C39.5702 135.467 39.6632 135.734 39.6632 136.094C39.6632 136.406 39.5852 136.658 39.4292 136.85C39.2792 137.042 39.0392 137.174 38.7092 137.246V137.291ZM37.9892 135.959C37.9292 135.899 37.8572 135.863 37.7732 135.851C37.6952 135.833 37.5692 135.824 37.3952 135.824C37.2212 135.824 37.0892 135.827 36.9992 135.833V136.931H37.0892C37.1192 136.931 37.2452 136.931 37.4672 136.931C37.6892 136.931 37.8362 136.916 37.9082 136.886C37.9622 136.862 38.0102 136.799 38.0522 136.697C38.1002 136.595 38.1242 136.484 38.1242 136.364C38.1242 136.184 38.0792 136.049 37.9892 135.959ZM38.1422 138.965C38.1842 138.929 38.2172 138.863 38.2412 138.767C38.2712 138.665 38.2862 138.563 38.2862 138.461C38.2862 138.335 38.2682 138.218 38.2322 138.11C38.2022 137.996 38.1602 137.915 38.1062 137.867C38.0522 137.813 37.9742 137.777 37.8722 137.759C37.7762 137.741 37.6112 137.732 37.3772 137.732C37.2272 137.732 37.1012 137.735 36.9992 137.741V139.046C37.2812 139.052 37.5332 139.049 37.7552 139.037C37.9772 139.019 38.1062 138.995 38.1422 138.965Z" fill="#457B9D"/>
<rect x="34" y="89" width="7" height="7" rx="1" fill="white"/>
<path d="M38.2437 93.875H36.7497L36.4797 95H34.8237L36.4797 89.87H38.5947L40.1787 95H38.5137L38.2437 93.875ZM37.4877 90.977L36.9567 92.876H38.0277L37.5237 90.977H37.4877Z" fill="#457B9D"/>
</svg>
