<svg width="30" height="380" viewBox="0 0 30 380" fill="none" xmlns="http://www.w3.org/2000/svg">
<g clip-path="url(#clip0)">
<rect width="30" height="380" fill="#457B9D"/>
<g opacity="0.5">
<path fill-rule="evenodd" clip-rule="evenodd" d="M8.958 375.599C8.803 375.747 8.659 375.851 8.526 375.909C8.393 375.968 8.251 375.998 8.1 375.998C7.948 375.998 7.806 375.97 7.673 375.914C7.54 375.858 7.424 375.781 7.325 375.682C7.109 375.466 7 375.209 7 374.912V369.385C7 369.082 7.078 368.847 7.232 368.68C7.498 368.408 7.75 368.272 7.988 368.272C8.226 368.272 8.404 368.296 8.522 368.346C8.639 368.395 8.738 368.457 8.818 368.531C8.924 368.624 9.002 368.723 9.055 368.828C9.108 368.933 9.151 369.011 9.185 369.06C9.219 369.11 9.275 369.134 9.352 369.134C9.429 369.134 9.496 369.11 9.551 369.06L9.709 368.902C10.16 368.482 10.612 368.272 11.063 368.272C11.861 368.272 12.519 368.599 13.039 369.255C13.088 369.323 13.15 369.357 13.224 369.357C13.354 369.357 13.486 369.256 13.619 369.055C13.752 368.854 13.966 368.674 14.263 368.513C14.56 368.352 14.906 368.272 15.302 368.272C15.698 368.272 16.058 368.344 16.383 368.49C16.707 368.635 16.99 368.834 17.231 369.088C17.738 369.62 17.992 370.263 17.992 371.017V374.912C17.992 375.382 17.769 375.713 17.324 375.905C17.188 375.967 17.044 375.998 16.893 375.998C16.741 375.998 16.599 375.97 16.466 375.914C16.333 375.858 16.217 375.781 16.118 375.682C15.908 375.46 15.803 375.203 15.803 374.912V371.045C15.803 370.736 15.726 370.504 15.571 370.349C15.299 370.077 15.049 369.941 14.82 369.941C14.591 369.941 14.412 369.971 14.282 370.029C14.152 370.088 14.034 370.17 13.929 370.275C13.713 370.492 13.605 370.742 13.605 371.026V374.912C13.605 375.382 13.385 375.713 12.946 375.905C12.81 375.967 12.666 375.998 12.515 375.998C12.363 375.998 12.22 375.97 12.083 375.914C11.947 375.858 11.83 375.781 11.731 375.682C11.515 375.466 11.406 375.209 11.406 374.912V371.045C11.406 370.736 11.329 370.504 11.174 370.349C10.902 370.077 10.618 369.941 10.321 369.941C9.826 369.941 9.483 370.133 9.292 370.516C9.23 370.64 9.199 370.779 9.199 370.934V374.912C9.199 375.215 9.118 375.444 8.958 375.599ZM20.219 369.387C20.219 369.084 20.296 368.849 20.451 368.682C20.716 368.41 21.01 368.274 21.332 368.274C21.641 368.274 21.87 368.355 22.018 368.515C22.29 368.794 22.426 369.084 22.426 369.387V374.915C22.426 375.212 22.349 375.437 22.194 375.592C21.922 375.864 21.672 376 21.443 376C21.214 376 21.032 375.971 20.896 375.912C20.76 375.853 20.642 375.777 20.543 375.685C20.327 375.474 20.219 375.218 20.219 374.915V369.387ZM21.327 365.9C21.065 365.9 20.852 365.687 20.852 365.425C20.852 365.162 21.065 364.95 21.327 364.95C21.589 364.95 21.802 365.162 21.802 365.425C21.802 365.687 21.589 365.9 21.327 365.9ZM21.327 364C21.714 364 22.048 364.142 22.329 364.425C22.611 364.709 22.752 364.996 22.752 365.287C22.752 365.577 22.713 365.807 22.635 365.978C22.558 366.148 22.456 366.297 22.329 366.424C22.048 366.708 21.714 366.849 21.327 366.849C20.94 366.849 20.606 366.708 20.324 366.424C20.043 366.141 19.902 365.857 19.902 365.574C19.902 365.092 20.043 364.709 20.324 364.425C20.606 364.142 20.94 364 21.327 364Z" fill="#1D3557"/>
</g>
<path d="M12.8705 16.0254H15.1505L13.3025 22.8654H10.1705L8.31055 16.0254H10.6025L11.7065 21.3774H11.7665L12.8705 16.0254ZM22.1503 16.0254V19.8534C22.1503 20.6454 22.0623 21.2654 21.8863 21.7134C21.7183 22.1534 21.3983 22.4774 20.9263 22.6854C20.4543 22.8934 19.7663 22.9974 18.8623 22.9974C18.1983 22.9974 17.6383 22.9294 17.1823 22.7934C16.7263 22.6494 16.3623 22.3814 16.0903 21.9894C15.8263 21.5974 15.6943 21.0454 15.6943 20.3334V16.0254H17.8543V19.8774C17.8543 20.3014 17.8743 20.6254 17.9143 20.8494C17.9623 21.0654 18.0663 21.2334 18.2263 21.3534C18.3863 21.4654 18.6303 21.5214 18.9583 21.5214C19.1583 21.5214 19.3463 21.5014 19.5223 21.4614C19.6983 21.4214 19.8183 21.3614 19.8823 21.2814C19.9543 21.1854 19.9903 20.8374 19.9903 20.2374V16.0254H22.1503Z" fill="#A8DADC"/>
<path d="M21.1856 59.9H8.81437C7.26004 59.9 6 61.16 6 62.7144V247.086C6 248.64 7.26004 249.9 8.81437 249.9H21.1856C22.74 249.9 24 248.64 24 247.086V62.7144C24 61.16 22.74 59.9 21.1856 59.9Z" fill="#36617C"/>
<path d="M9.50756 306.152C8.54756 306.152 7.82756 305.928 7.34756 305.48C6.87556 305.024 6.63956 304.308 6.63956 303.332C6.63956 302.796 6.68756 302.328 6.78356 301.928C6.88756 301.52 7.01156 301.236 7.15556 301.076C7.33956 300.868 7.67556 300.696 8.16356 300.56C8.65956 300.424 9.12356 300.356 9.55556 300.356C10.5876 300.356 11.3236 300.576 11.7636 301.016C12.2036 301.456 12.4236 302.16 12.4236 303.128C12.4236 304.168 12.1876 304.932 11.7156 305.42C11.2436 305.908 10.5076 306.152 9.50756 306.152ZM9.54356 304.748C9.85556 304.748 10.0596 304.64 10.1556 304.424C10.2516 304.2 10.2996 303.808 10.2996 303.248C10.2996 302.856 10.2796 302.556 10.2396 302.348C10.1996 302.132 10.1236 301.976 10.0116 301.88C9.90756 301.776 9.74356 301.724 9.51956 301.724C9.19956 301.724 9.01556 301.752 8.96756 301.808C8.90356 301.864 8.85156 302.04 8.81156 302.336C8.77156 302.632 8.75156 302.94 8.75156 303.26C8.75156 303.804 8.80356 304.188 8.90756 304.412C9.01956 304.636 9.23156 304.748 9.54356 304.748ZM18.7268 300.476V305.996H17.0588L16.8308 305.072C16.2548 305.768 15.5668 306.116 14.7668 306.116C14.4788 306.116 14.2068 306.076 13.9508 305.996C13.7028 305.916 13.5148 305.8 13.3868 305.648C13.3148 305.56 13.2588 305.34 13.2188 304.988C13.1868 304.636 13.1708 304.1 13.1708 303.38V300.476H15.2228V303.356C15.2228 303.516 15.2268 303.704 15.2348 303.92C15.2428 304.136 15.2668 304.272 15.3068 304.328C15.3628 304.408 15.5228 304.448 15.7868 304.448L15.9788 304.436C16.2028 304.428 16.4348 304.376 16.6748 304.28V300.476H18.7268ZM22.2548 303.728C22.2548 303.872 22.2588 304.024 22.2668 304.184C22.2748 304.336 22.2988 304.432 22.3388 304.472C22.3948 304.528 22.5908 304.556 22.9268 304.556L23.3348 304.544C23.4068 304.928 23.4428 305.372 23.4428 305.876C23.2908 305.932 23.0668 305.984 22.7708 306.032C22.4828 306.08 22.2068 306.104 21.9428 306.104C21.3908 306.104 20.9628 305.984 20.6588 305.744C20.3628 305.496 20.2148 305.116 20.2148 304.604V301.652H19.3148V300.56L20.2148 300.476L20.7548 299.156L22.2548 299.072V300.476H23.5268V301.652H22.2548V303.728Z" fill="#A8DADC"/>
<path d="M11.7553 259.792C11.4833 259.792 11.2473 259.7 11.0473 259.516C10.8553 259.332 10.7593 259.112 10.7593 258.856C10.7593 258.6 10.8553 258.38 11.0473 258.196C11.2473 258.012 11.4833 257.92 11.7553 257.92C12.0273 257.92 12.2593 258.012 12.4513 258.196C12.6433 258.38 12.7393 258.6 12.7393 258.856C12.7393 259.112 12.6433 259.332 12.4513 259.516C12.2593 259.7 12.0273 259.792 11.7553 259.792ZM10.7233 260.476H12.7753V265.996H10.7233V260.476ZM19.1328 260.824C19.2048 260.912 19.2568 261.132 19.2888 261.484C19.3288 261.836 19.3488 262.372 19.3488 263.092V265.996H17.2968V263.116V262.624C17.2968 262.368 17.2768 262.208 17.2368 262.144C17.1728 262.064 17.0248 262.024 16.7928 262.024C16.6808 262.024 16.5968 262.028 16.5408 262.036C16.3168 262.044 16.0848 262.096 15.8448 262.192V265.996H13.7928V260.476H15.4608L15.6888 261.4C16.2648 260.704 16.9528 260.356 17.7528 260.356C18.0408 260.356 18.3088 260.396 18.5568 260.476C18.8128 260.556 19.0048 260.672 19.1328 260.824Z" fill="#A8DADC"/>
</g>
<defs>
<clipPath id="clip0">
<rect width="30" height="380" fill="white"/>
</clipPath>
</defs>
</svg>
