<svg width="30" height="380" viewBox="0 0 30 380" fill="none" xmlns="http://www.w3.org/2000/svg">
<g clip-path="url(#clip0)">
<rect width="30" height="380" fill="#457B9D"/>
<g opacity="0.3">
<path fill-rule="evenodd" clip-rule="evenodd" d="M8.958 375.599C8.803 375.747 8.659 375.851 8.526 375.909C8.393 375.968 8.251 375.998 8.1 375.998C7.948 375.998 7.806 375.97 7.673 375.914C7.54 375.858 7.424 375.781 7.325 375.682C7.109 375.466 7 375.209 7 374.912V369.385C7 369.082 7.078 368.847 7.232 368.68C7.498 368.408 7.75 368.272 7.988 368.272C8.226 368.272 8.404 368.296 8.522 368.346C8.639 368.395 8.738 368.457 8.818 368.531C8.924 368.624 9.002 368.723 9.055 368.828C9.108 368.933 9.151 369.011 9.185 369.06C9.219 369.11 9.275 369.134 9.352 369.134C9.429 369.134 9.496 369.11 9.551 369.06L9.709 368.902C10.16 368.482 10.612 368.272 11.063 368.272C11.861 368.272 12.519 368.599 13.039 369.255C13.088 369.323 13.15 369.357 13.224 369.357C13.354 369.357 13.486 369.256 13.619 369.055C13.752 368.854 13.966 368.674 14.263 368.513C14.56 368.352 14.906 368.272 15.302 368.272C15.698 368.272 16.058 368.344 16.383 368.49C16.707 368.635 16.99 368.834 17.231 369.088C17.738 369.62 17.992 370.263 17.992 371.017V374.912C17.992 375.382 17.769 375.713 17.324 375.905C17.188 375.967 17.044 375.998 16.893 375.998C16.741 375.998 16.599 375.97 16.466 375.914C16.333 375.858 16.217 375.781 16.118 375.682C15.908 375.46 15.803 375.203 15.803 374.912V371.045C15.803 370.736 15.726 370.504 15.571 370.349C15.299 370.077 15.049 369.941 14.82 369.941C14.591 369.941 14.412 369.971 14.282 370.029C14.152 370.088 14.034 370.17 13.929 370.275C13.713 370.492 13.605 370.742 13.605 371.026V374.912C13.605 375.382 13.385 375.713 12.946 375.905C12.81 375.967 12.666 375.998 12.515 375.998C12.363 375.998 12.22 375.97 12.083 375.914C11.947 375.858 11.83 375.781 11.731 375.682C11.515 375.466 11.406 375.209 11.406 374.912V371.045C11.406 370.736 11.329 370.504 11.174 370.349C10.902 370.077 10.618 369.941 10.321 369.941C9.826 369.941 9.483 370.133 9.292 370.516C9.23 370.64 9.199 370.779 9.199 370.934V374.912C9.199 375.215 9.118 375.444 8.958 375.599ZM20.219 369.387C20.219 369.084 20.296 368.849 20.451 368.682C20.716 368.41 21.01 368.274 21.332 368.274C21.641 368.274 21.87 368.355 22.018 368.515C22.29 368.794 22.426 369.084 22.426 369.387V374.915C22.426 375.212 22.349 375.437 22.194 375.592C21.922 375.864 21.672 376 21.443 376C21.214 376 21.032 375.971 20.896 375.912C20.76 375.853 20.642 375.777 20.543 375.685C20.327 375.474 20.219 375.218 20.219 374.915V369.387ZM21.327 365.9C21.065 365.9 20.852 365.687 20.852 365.425C20.852 365.162 21.065 364.95 21.327 364.95C21.589 364.95 21.802 365.162 21.802 365.425C21.802 365.687 21.589 365.9 21.327 365.9ZM21.327 364C21.714 364 22.048 364.142 22.329 364.425C22.611 364.709 22.752 364.996 22.752 365.287C22.752 365.577 22.713 365.807 22.635 365.978C22.558 366.148 22.456 366.297 22.329 366.424C22.048 366.708 21.714 366.849 21.327 366.849C20.94 366.849 20.606 366.708 20.324 366.424C20.043 366.141 19.902 365.857 19.902 365.574C19.902 365.092 20.043 364.709 20.324 364.425C20.606 364.142 20.94 364 21.327 364Z" fill="#1D3557"/>
</g>
<path d="M12.3147 15.5954H14.4047L12.7107 21.8654H9.83967L8.13467 15.5954H10.2357L11.2477 20.5014H11.3027L12.3147 15.5954ZM21.3711 15.5954V19.1044C21.3711 19.8304 21.2904 20.3987 21.1291 20.8094C20.9751 21.2127 20.6818 21.5097 20.2491 21.7004C19.8164 21.891 19.1858 21.9864 18.3571 21.9864C17.7484 21.9864 17.2351 21.924 16.8171 21.7994C16.3991 21.6674 16.0654 21.4217 15.8161 21.0624C15.5741 20.703 15.4531 20.197 15.4531 19.5444V15.5954H17.4331V19.1264C17.4331 19.515 17.4514 19.812 17.4881 20.0174C17.5321 20.2154 17.6274 20.3694 17.7741 20.4794C17.9208 20.582 18.1444 20.6334 18.4451 20.6334C18.6284 20.6334 18.8008 20.615 18.9621 20.5784C19.1234 20.5417 19.2334 20.4867 19.2921 20.4134C19.3581 20.3254 19.3911 20.0064 19.3911 19.4564V15.5954H21.3711Z" fill="white"/>
<path d="M21.1856 49.9H8.81437C7.26004 49.9 6 51.16 6 52.7144V237.086C6 238.64 7.26004 239.9 8.81437 239.9H21.1856C22.74 239.9 24 238.64 24 237.086V52.7144C24 51.16 22.74 49.9 21.1856 49.9Z" fill="#36617C"/>
<path d="M9.43359 304.093C11.0205 304.093 11.9238 303.122 11.9238 301.632V301.032C11.9238 299.538 11.0156 298.566 9.42871 298.566C7.84668 298.566 6.93848 299.533 6.93848 301.032V301.632C6.93848 303.122 7.85156 304.093 9.43359 304.093ZM9.43359 303.073C8.70605 303.073 8.27148 302.531 8.27148 301.637V301.017C8.27148 300.124 8.70605 299.586 9.43359 299.586C10.1562 299.586 10.5908 300.124 10.5908 301.017V301.637C10.5908 302.531 10.1562 303.073 9.43359 303.073ZM16.0713 303.043C15.4609 303.043 15.0361 302.682 15.0361 301.994V298.664H13.7227V302.14C13.7227 303.332 14.626 304.093 16.0713 304.093C17.5166 304.093 18.4199 303.327 18.4199 302.14V298.664H17.1113V301.994C17.1113 302.677 16.6816 303.043 16.0713 303.043ZM22.792 303.996V299.684H24.3398V298.664H19.9355V299.684H21.4834V303.996H22.792Z" fill="white"/>
<path d="M12.2939 263.996V258.664H10.9854V263.996H12.2939ZM15.6064 263.996V260.749H15.6553L17.9697 263.996H19.0098V258.664H17.7842V261.881H17.7354L15.4307 258.664H14.3857V263.996H15.6064Z" fill="white"/>
</g>
<defs>
<clipPath id="clip0">
<rect width="30" height="380" fill="white"/>
</clipPath>
</defs>
</svg>
