<svg width="75" height="380" viewBox="0 0 75 380" fill="none" xmlns="http://www.w3.org/2000/svg">
<rect width="75" height="380" fill="#457B9D"/>
<g opacity="0.5">
<path fill-rule="evenodd" clip-rule="evenodd" d="M31.958 375.599C31.803 375.747 31.659 375.851 31.526 375.909C31.393 375.968 31.251 375.998 31.1 375.998C30.948 375.998 30.806 375.97 30.673 375.914C30.54 375.858 30.424 375.781 30.325 375.682C30.109 375.466 30 375.209 30 374.912V369.385C30 369.082 30.078 368.847 30.232 368.68C30.498 368.408 30.75 368.272 30.988 368.272C31.226 368.272 31.404 368.296 31.522 368.346C31.639 368.395 31.738 368.457 31.818 368.531C31.924 368.624 32.002 368.723 32.055 368.828C32.108 368.933 32.151 369.011 32.185 369.06C32.219 369.11 32.275 369.134 32.352 369.134C32.429 369.134 32.496 369.11 32.551 369.06L32.709 368.902C33.16 368.482 33.612 368.272 34.063 368.272C34.861 368.272 35.519 368.599 36.039 369.255C36.088 369.323 36.15 369.357 36.224 369.357C36.354 369.357 36.486 369.256 36.619 369.055C36.752 368.854 36.966 368.674 37.263 368.513C37.56 368.352 37.906 368.272 38.302 368.272C38.698 368.272 39.058 368.344 39.383 368.49C39.707 368.635 39.99 368.834 40.231 369.088C40.738 369.62 40.992 370.263 40.992 371.017V374.912C40.992 375.382 40.769 375.713 40.324 375.905C40.188 375.967 40.044 375.998 39.893 375.998C39.741 375.998 39.599 375.97 39.466 375.914C39.333 375.858 39.217 375.781 39.118 375.682C38.908 375.46 38.803 375.203 38.803 374.912V371.045C38.803 370.736 38.726 370.504 38.571 370.349C38.299 370.077 38.049 369.941 37.82 369.941C37.591 369.941 37.412 369.971 37.282 370.029C37.152 370.088 37.034 370.17 36.929 370.275C36.713 370.492 36.605 370.742 36.605 371.026V374.912C36.605 375.382 36.385 375.713 35.946 375.905C35.81 375.967 35.666 375.998 35.515 375.998C35.363 375.998 35.22 375.97 35.083 375.914C34.947 375.858 34.83 375.781 34.731 375.682C34.515 375.466 34.406 375.209 34.406 374.912V371.045C34.406 370.736 34.329 370.504 34.174 370.349C33.902 370.077 33.618 369.941 33.321 369.941C32.826 369.941 32.483 370.133 32.292 370.516C32.23 370.64 32.199 370.779 32.199 370.934V374.912C32.199 375.215 32.118 375.444 31.958 375.599ZM43.219 369.387C43.219 369.084 43.296 368.849 43.451 368.682C43.716 368.41 44.01 368.274 44.332 368.274C44.641 368.274 44.87 368.355 45.018 368.515C45.29 368.794 45.426 369.084 45.426 369.387V374.915C45.426 375.212 45.349 375.437 45.194 375.592C44.922 375.864 44.672 376 44.443 376C44.214 376 44.032 375.971 43.896 375.912C43.76 375.853 43.642 375.777 43.543 375.685C43.327 375.474 43.219 375.218 43.219 374.915V369.387ZM44.327 365.9C44.065 365.9 43.852 365.687 43.852 365.425C43.852 365.162 44.065 364.95 44.327 364.95C44.589 364.95 44.802 365.162 44.802 365.425C44.802 365.687 44.589 365.9 44.327 365.9ZM44.327 364C44.714 364 45.048 364.142 45.329 364.425C45.611 364.709 45.752 364.996 45.752 365.287C45.752 365.577 45.713 365.807 45.635 365.978C45.558 366.148 45.456 366.297 45.329 366.424C45.048 366.708 44.714 366.849 44.327 366.849C43.94 366.849 43.606 366.708 43.324 366.424C43.043 366.141 42.902 365.857 42.902 365.574C42.902 365.092 43.043 364.709 43.324 364.425C43.606 364.142 43.94 364 44.327 364Z" fill="#1D3557"/>
</g>
<path d="M31.7462 22.8654H29.7302L29.5742 19.0974C29.5502 18.3534 29.5222 17.7894 29.4902 17.4054H29.4542C29.3582 17.7094 29.2462 18.1814 29.1182 18.8214L29.0582 19.1214L28.2302 22.8654H26.2142L25.5182 19.4934L25.3982 18.8934C25.2302 18.1494 25.1142 17.6534 25.0502 17.4054H25.0142C24.9822 17.8054 24.9542 18.4574 24.9302 19.3614C24.9222 19.4174 24.9182 19.5054 24.9182 19.6254L24.8102 22.8654H22.7822L23.0702 16.0254H26.5022L27.0902 18.9774L27.2342 19.7694C27.2982 19.5214 27.3582 19.2454 27.4142 18.9414L27.9662 16.0254H31.4702L31.7462 22.8654ZM39.2011 16.0254V19.8534C39.2011 20.6454 39.1131 21.2654 38.9371 21.7134C38.7691 22.1534 38.4491 22.4774 37.9771 22.6854C37.5051 22.8934 36.8171 22.9974 35.9131 22.9974C35.2491 22.9974 34.6891 22.9294 34.2331 22.7934C33.7771 22.6494 33.4131 22.3814 33.1411 21.9894C32.8771 21.5974 32.7451 21.0454 32.7451 20.3334V16.0254H34.9051V19.8774C34.9051 20.3014 34.9251 20.6254 34.9651 20.8494C35.0131 21.0654 35.1171 21.2334 35.2771 21.3534C35.4371 21.4654 35.6811 21.5214 36.0091 21.5214C36.2091 21.5214 36.3971 21.5014 36.5731 21.4614C36.7491 21.4214 36.8691 21.3614 36.9331 21.2814C37.0051 21.1854 37.0411 20.8374 37.0411 20.2374V16.0254H39.2011ZM40.3162 16.0254H42.4762V21.2814H45.2722V22.8654H40.3162V16.0254ZM48.2642 22.8654H46.1042V17.5254H44.1722V16.0254H50.1962V17.5254H48.2642V22.8654ZM50.8991 16.0254H53.0591V22.8654H50.8991V16.0254Z" fill="#A8DADC"/>
<path d="M16.7553 53.796C16.4833 53.796 16.2473 53.704 16.0473 53.52C15.8553 53.336 15.7593 53.116 15.7593 52.86C15.7593 52.604 15.8553 52.384 16.0473 52.2C16.2473 52.016 16.4833 51.924 16.7553 51.924C17.0273 51.924 17.2593 52.016 17.4513 52.2C17.6433 52.384 17.7393 52.604 17.7393 52.86C17.7393 53.116 17.6433 53.336 17.4513 53.52C17.2593 53.704 17.0273 53.796 16.7553 53.796ZM15.7233 54.48H17.7753V60H15.7233V54.48ZM24.1328 54.828C24.2048 54.916 24.2568 55.136 24.2888 55.488C24.3288 55.84 24.3488 56.376 24.3488 57.096V60H22.2968V57.12V56.628C22.2968 56.372 22.2768 56.212 22.2368 56.148C22.1728 56.068 22.0248 56.028 21.7928 56.028C21.6808 56.028 21.5968 56.032 21.5408 56.04C21.3168 56.048 21.0848 56.1 20.8448 56.196V60H18.7928V54.48H20.4608L20.6888 55.404C21.2648 54.708 21.9528 54.36 22.7528 54.36C23.0408 54.36 23.3088 54.4 23.5568 54.48C23.8128 54.56 24.0048 54.676 24.1328 54.828Z" fill="#A8DADC"/>
<path d="M35.9132 79.064V74.906L40.0712 76.992L35.9132 79.064Z" fill="#A8DADC"/>
<path d="M51.7553 53.796C51.4833 53.796 51.2473 53.704 51.0473 53.52C50.8553 53.336 50.7593 53.116 50.7593 52.86C50.7593 52.604 50.8553 52.384 51.0473 52.2C51.2473 52.016 51.4833 51.924 51.7553 51.924C52.0273 51.924 52.2593 52.016 52.4513 52.2C52.6433 52.384 52.7393 52.604 52.7393 52.86C52.7393 53.116 52.6433 53.336 52.4513 53.52C52.2593 53.704 52.0273 53.796 51.7553 53.796ZM50.7233 54.48H52.7753V60H50.7233V54.48ZM59.1328 54.828C59.2048 54.916 59.2568 55.136 59.2888 55.488C59.3288 55.84 59.3488 56.376 59.3488 57.096V60H57.2968V57.12V56.628C57.2968 56.372 57.2768 56.212 57.2368 56.148C57.1728 56.068 57.0248 56.028 56.7928 56.028C56.6808 56.028 56.5968 56.032 56.5408 56.04C56.3168 56.048 56.0848 56.1 55.8448 56.196V60H53.7928V54.48H55.4608L55.6888 55.404C56.2648 54.708 56.9528 54.36 57.7528 54.36C58.0408 54.36 58.3088 54.4 58.5568 54.48C58.8128 54.56 59.0048 54.676 59.1328 54.828Z" fill="#A8DADC"/>
<path d="M14.5076 115.156C13.5476 115.156 12.8276 114.932 12.3476 114.484C11.8756 114.028 11.6396 113.312 11.6396 112.336C11.6396 111.8 11.6876 111.332 11.7836 110.932C11.8876 110.524 12.0116 110.24 12.1556 110.08C12.3396 109.872 12.6756 109.7 13.1636 109.564C13.6596 109.428 14.1236 109.36 14.5556 109.36C15.5876 109.36 16.3236 109.58 16.7636 110.02C17.2036 110.46 17.4236 111.164 17.4236 112.132C17.4236 113.172 17.1876 113.936 16.7156 114.424C16.2436 114.912 15.5076 115.156 14.5076 115.156ZM14.5436 113.752C14.8556 113.752 15.0596 113.644 15.1556 113.428C15.2516 113.204 15.2996 112.812 15.2996 112.252C15.2996 111.86 15.2796 111.56 15.2396 111.352C15.1996 111.136 15.1236 110.98 15.0116 110.884C14.9076 110.78 14.7436 110.728 14.5196 110.728C14.1996 110.728 14.0156 110.756 13.9676 110.812C13.9036 110.868 13.8516 111.044 13.8116 111.34C13.7716 111.636 13.7516 111.944 13.7516 112.264C13.7516 112.808 13.8036 113.192 13.9076 113.416C14.0196 113.64 14.2316 113.752 14.5436 113.752ZM23.7268 109.48V115H22.0588L21.8308 114.076C21.2548 114.772 20.5668 115.12 19.7668 115.12C19.4788 115.12 19.2068 115.08 18.9508 115C18.7028 114.92 18.5148 114.804 18.3868 114.652C18.3148 114.564 18.2588 114.344 18.2188 113.992C18.1868 113.64 18.1708 113.104 18.1708 112.384V109.48H20.2228V112.36C20.2228 112.52 20.2268 112.708 20.2348 112.924C20.2428 113.14 20.2668 113.276 20.3068 113.332C20.3628 113.412 20.5228 113.452 20.7868 113.452L20.9788 113.44C21.2028 113.432 21.4348 113.38 21.6748 113.284V109.48H23.7268ZM27.2548 112.732C27.2548 112.876 27.2588 113.028 27.2668 113.188C27.2748 113.34 27.2988 113.436 27.3388 113.476C27.3948 113.532 27.5908 113.56 27.9268 113.56L28.3348 113.548C28.4068 113.932 28.4428 114.376 28.4428 114.88C28.2908 114.936 28.0668 114.988 27.7708 115.036C27.4828 115.084 27.2068 115.108 26.9428 115.108C26.3908 115.108 25.9628 114.988 25.6588 114.748C25.3628 114.5 25.2148 114.12 25.2148 113.608V110.656H24.3148V109.564L25.2148 109.48L25.7548 108.16L27.2548 108.076V109.48H28.5268V110.656H27.2548V112.732Z" fill="#A8DADC"/>
<path d="M49.5076 115.156C48.5476 115.156 47.8276 114.932 47.3476 114.484C46.8756 114.028 46.6396 113.312 46.6396 112.336C46.6396 111.8 46.6876 111.332 46.7836 110.932C46.8876 110.524 47.0116 110.24 47.1556 110.08C47.3396 109.872 47.6756 109.7 48.1636 109.564C48.6596 109.428 49.1236 109.36 49.5556 109.36C50.5876 109.36 51.3236 109.58 51.7636 110.02C52.2036 110.46 52.4236 111.164 52.4236 112.132C52.4236 113.172 52.1876 113.936 51.7156 114.424C51.2436 114.912 50.5076 115.156 49.5076 115.156ZM49.5436 113.752C49.8556 113.752 50.0596 113.644 50.1556 113.428C50.2516 113.204 50.2996 112.812 50.2996 112.252C50.2996 111.86 50.2796 111.56 50.2396 111.352C50.1996 111.136 50.1236 110.98 50.0116 110.884C49.9076 110.78 49.7436 110.728 49.5196 110.728C49.1996 110.728 49.0156 110.756 48.9676 110.812C48.9036 110.868 48.8516 111.044 48.8116 111.34C48.7716 111.636 48.7516 111.944 48.7516 112.264C48.7516 112.808 48.8036 113.192 48.9076 113.416C49.0196 113.64 49.2316 113.752 49.5436 113.752ZM58.7268 109.48V115H57.0588L56.8308 114.076C56.2548 114.772 55.5668 115.12 54.7668 115.12C54.4788 115.12 54.2068 115.08 53.9508 115C53.7028 114.92 53.5148 114.804 53.3868 114.652C53.3148 114.564 53.2588 114.344 53.2188 113.992C53.1868 113.64 53.1708 113.104 53.1708 112.384V109.48H55.2228V112.36C55.2228 112.52 55.2268 112.708 55.2348 112.924C55.2428 113.14 55.2668 113.276 55.3068 113.332C55.3628 113.412 55.5228 113.452 55.7868 113.452L55.9788 113.44C56.2028 113.432 56.4348 113.38 56.6748 113.284V109.48H58.7268ZM62.2548 112.732C62.2548 112.876 62.2588 113.028 62.2668 113.188C62.2748 113.34 62.2988 113.436 62.3388 113.476C62.3948 113.532 62.5908 113.56 62.9268 113.56L63.3348 113.548C63.4068 113.932 63.4428 114.376 63.4428 114.88C63.2908 114.936 63.0668 114.988 62.7708 115.036C62.4828 115.084 62.2068 115.108 61.9428 115.108C61.3908 115.108 60.9628 114.988 60.6588 114.748C60.3628 114.5 60.2148 114.12 60.2148 113.608V110.656H59.3148V109.564L60.2148 109.48L60.7548 108.16L62.2548 108.076V109.48H63.5268V110.656H62.2548V112.732Z" fill="#A8DADC"/>
<rect x="34.5" y="302" width="6" height="6" rx="1" fill="#A8DADC"/>
<path d="M35.9147 302.69H39.2347V303.65H37.3547V304.482H38.9387V305.346H37.3547V306.274H39.2267V307.25H35.9147V302.69Z" fill="#457B9D"/>
<rect x="34.5" y="257" width="6" height="6" rx="1" fill="#A8DADC"/>
<path d="M36.9844 257.69C37.6084 257.69 38.1177 257.749 38.5124 257.866C38.9124 257.983 39.2217 258.205 39.4404 258.53C39.6644 258.855 39.7764 259.322 39.7764 259.93C39.7764 260.581 39.659 261.077 39.4244 261.418C39.1897 261.754 38.875 261.978 38.4804 262.09C38.0857 262.197 37.587 262.25 36.9844 262.25H35.3844V257.69H36.9844ZM38.0564 261.162C38.1204 261.098 38.1657 260.933 38.1924 260.666C38.219 260.399 38.2324 260.154 38.2324 259.93C38.2324 259.647 38.211 259.423 38.1684 259.258C38.131 259.087 38.0617 258.951 37.9604 258.85C37.8004 258.674 37.5257 258.586 37.1364 258.586C37.067 258.586 36.963 258.591 36.8244 258.602V261.258C36.915 261.269 37.0564 261.274 37.2484 261.274C37.4457 261.274 37.619 261.266 37.7684 261.25C37.923 261.229 38.019 261.199 38.0564 261.162Z" fill="#457B9D"/>
<rect x="34.5" y="212" width="6" height="6" rx="1" fill="#A8DADC"/>
<path d="M39.4252 217.098C39.2279 217.183 38.9986 217.245 38.7372 217.282C38.4759 217.319 38.2332 217.338 38.0092 217.338C37.2839 217.338 36.7159 217.149 36.3052 216.77C35.8946 216.391 35.6892 215.81 35.6892 215.026C35.6892 214.226 35.9052 213.629 36.3372 213.234C36.7692 212.834 37.3772 212.634 38.1612 212.634C38.5346 212.634 38.9239 212.685 39.3292 212.786C39.3292 212.893 39.3186 213.053 39.2972 213.266C39.2759 213.474 39.2546 213.621 39.2332 213.706H38.7292C38.3612 213.706 38.0706 213.714 37.8572 213.73C37.6492 213.741 37.5239 213.765 37.4812 213.802C37.4012 213.877 37.3399 214.029 37.2972 214.258C37.2546 214.482 37.2332 214.698 37.2332 214.906C37.2332 215.269 37.2786 215.549 37.3692 215.746C37.4599 215.938 37.5746 216.066 37.7132 216.13C37.8466 216.194 38.0679 216.226 38.3772 216.226C38.6226 216.226 38.9426 216.205 39.3372 216.162L39.4252 217.098Z" fill="#457B9D"/>
<rect x="34.5" y="167" width="6" height="6" rx="1" fill="#A8DADC"/>
<path d="M38.5748 169.842C38.9375 169.885 39.1962 170.007 39.3508 170.21C39.5055 170.407 39.5828 170.647 39.5828 170.93C39.5828 171.106 39.5562 171.274 39.5028 171.434C39.4495 171.589 39.3855 171.722 39.3108 171.834C39.2362 171.941 39.1722 172.01 39.1188 172.042C38.9055 172.181 38.2548 172.25 37.1668 172.25H35.6148V167.69H37.4948C37.9215 167.69 38.2655 167.714 38.5268 167.762C38.7935 167.805 39.0095 167.906 39.1748 168.066C39.3402 168.221 39.4228 168.458 39.4228 168.778C39.4228 169.055 39.3535 169.279 39.2148 169.45C39.0815 169.621 38.8682 169.738 38.5748 169.802V169.842ZM37.9348 168.658C37.8815 168.605 37.8175 168.573 37.7428 168.562C37.6735 168.546 37.5615 168.538 37.4068 168.538C37.2522 168.538 37.1348 168.541 37.0548 168.546V169.522H37.1348C37.1615 169.522 37.2735 169.522 37.4708 169.522C37.6682 169.522 37.7988 169.509 37.8628 169.482C37.9108 169.461 37.9535 169.405 37.9908 169.314C38.0335 169.223 38.0548 169.125 38.0548 169.018C38.0548 168.858 38.0148 168.738 37.9348 168.658ZM38.0708 171.33C38.1082 171.298 38.1375 171.239 38.1588 171.154C38.1855 171.063 38.1988 170.973 38.1988 170.882C38.1988 170.77 38.1828 170.666 38.1508 170.57C38.1242 170.469 38.0868 170.397 38.0388 170.354C37.9908 170.306 37.9215 170.274 37.8308 170.258C37.7455 170.242 37.5988 170.234 37.3908 170.234C37.2575 170.234 37.1455 170.237 37.0548 170.242V171.402C37.3055 171.407 37.5295 171.405 37.7268 171.394C37.9242 171.378 38.0388 171.357 38.0708 171.33Z" fill="#457B9D"/>
<rect x="34.5" y="122" width="6" height="6" rx="1" fill="#A8DADC"/>
<path d="M38.1611 126.25H36.8331L36.5931 127.25H35.1211L36.5931 122.69H38.4731L39.8811 127.25H38.4011L38.1611 126.25ZM37.4891 123.674L37.0171 125.362H37.9691L37.5211 123.674H37.4891Z" fill="#457B9D"/>
</svg>
