<svg width="75" height="380" viewBox="0 0 75 380" fill="none" xmlns="http://www.w3.org/2000/svg">
<rect width="75" height="380" fill="#457B9D"/>
<g opacity="0.3">
<path fill-rule="evenodd" clip-rule="evenodd" d="M31.958 375.599C31.803 375.747 31.659 375.851 31.526 375.909C31.393 375.968 31.251 375.998 31.1 375.998C30.948 375.998 30.806 375.97 30.673 375.914C30.54 375.858 30.424 375.781 30.325 375.682C30.109 375.466 30 375.209 30 374.912V369.385C30 369.082 30.078 368.847 30.232 368.68C30.498 368.408 30.75 368.272 30.988 368.272C31.226 368.272 31.404 368.296 31.522 368.346C31.639 368.395 31.738 368.457 31.818 368.531C31.924 368.624 32.002 368.723 32.055 368.828C32.108 368.933 32.151 369.011 32.185 369.06C32.219 369.11 32.275 369.134 32.352 369.134C32.429 369.134 32.496 369.11 32.551 369.06L32.709 368.902C33.16 368.482 33.612 368.272 34.063 368.272C34.861 368.272 35.519 368.599 36.039 369.255C36.088 369.323 36.15 369.357 36.224 369.357C36.354 369.357 36.486 369.256 36.619 369.055C36.752 368.854 36.966 368.674 37.263 368.513C37.56 368.352 37.906 368.272 38.302 368.272C38.698 368.272 39.058 368.344 39.383 368.49C39.707 368.635 39.99 368.834 40.231 369.088C40.738 369.62 40.992 370.263 40.992 371.017V374.912C40.992 375.382 40.769 375.713 40.324 375.905C40.188 375.967 40.044 375.998 39.893 375.998C39.741 375.998 39.599 375.97 39.466 375.914C39.333 375.858 39.217 375.781 39.118 375.682C38.908 375.46 38.803 375.203 38.803 374.912V371.045C38.803 370.736 38.726 370.504 38.571 370.349C38.299 370.077 38.049 369.941 37.82 369.941C37.591 369.941 37.412 369.971 37.282 370.029C37.152 370.088 37.034 370.17 36.929 370.275C36.713 370.492 36.605 370.742 36.605 371.026V374.912C36.605 375.382 36.385 375.713 35.946 375.905C35.81 375.967 35.666 375.998 35.515 375.998C35.363 375.998 35.22 375.97 35.083 375.914C34.947 375.858 34.83 375.781 34.731 375.682C34.515 375.466 34.406 375.209 34.406 374.912V371.045C34.406 370.736 34.329 370.504 34.174 370.349C33.902 370.077 33.618 369.941 33.321 369.941C32.826 369.941 32.483 370.133 32.292 370.516C32.23 370.64 32.199 370.779 32.199 370.934V374.912C32.199 375.215 32.118 375.444 31.958 375.599ZM43.219 369.387C43.219 369.084 43.296 368.849 43.451 368.682C43.716 368.41 44.01 368.274 44.332 368.274C44.641 368.274 44.87 368.355 45.018 368.515C45.29 368.794 45.426 369.084 45.426 369.387V374.915C45.426 375.212 45.349 375.437 45.194 375.592C44.922 375.864 44.672 376 44.443 376C44.214 376 44.032 375.971 43.896 375.912C43.76 375.853 43.642 375.777 43.543 375.685C43.327 375.474 43.219 375.218 43.219 374.915V369.387ZM44.327 365.9C44.065 365.9 43.852 365.687 43.852 365.425C43.852 365.162 44.065 364.95 44.327 364.95C44.589 364.95 44.802 365.162 44.802 365.425C44.802 365.687 44.589 365.9 44.327 365.9ZM44.327 364C44.714 364 45.048 364.142 45.329 364.425C45.611 364.709 45.752 364.996 45.752 365.287C45.752 365.577 45.713 365.807 45.635 365.978C45.558 366.148 45.456 366.297 45.329 366.424C45.048 366.708 44.714 366.849 44.327 366.849C43.94 366.849 43.606 366.708 43.324 366.424C43.043 366.141 42.902 365.857 42.902 365.574C42.902 365.092 43.043 364.709 43.324 364.425C43.606 364.142 43.94 364 44.327 364Z" fill="#1D3557"/>
</g>
<path d="M31.6673 21.8654H29.8193L29.6763 18.4114C29.6543 17.7294 29.6287 17.2124 29.5993 16.8604H29.5663C29.4783 17.139 29.3757 17.5717 29.2583 18.1584L29.2033 18.4334L28.4443 21.8654H26.5963L25.9583 18.7744L25.8483 18.2244C25.6943 17.5424 25.588 17.0877 25.5293 16.8604H25.4963C25.467 17.227 25.4413 17.8247 25.4193 18.6534C25.412 18.7047 25.4083 18.7854 25.4083 18.8954L25.3093 21.8654H23.4503L23.7143 15.5954H26.8603L27.3993 18.3014L27.5313 19.0274C27.59 18.8 27.645 18.547 27.6963 18.2684L28.2023 15.5954H31.4143L31.6673 21.8654ZM39.051 15.5954V19.1044C39.051 19.8304 38.9703 20.3987 38.809 20.8094C38.655 21.2127 38.3617 21.5097 37.929 21.7004C37.4963 21.891 36.8657 21.9864 36.037 21.9864C35.4283 21.9864 34.915 21.924 34.497 21.7994C34.079 21.6674 33.7453 21.4217 33.496 21.0624C33.254 20.703 33.133 20.197 33.133 19.5444V15.5954H35.113V19.1264C35.113 19.515 35.1313 19.812 35.168 20.0174C35.212 20.2154 35.3073 20.3694 35.454 20.4794C35.6007 20.582 35.8243 20.6334 36.125 20.6334C36.3083 20.6334 36.4807 20.615 36.642 20.5784C36.8033 20.5417 36.9133 20.4867 36.972 20.4134C37.038 20.3254 37.071 20.0064 37.071 19.4564V15.5954H39.051ZM40.6232 15.5954H42.6032V20.4134H45.1662V21.8654H40.6232V15.5954ZM48.4588 21.8654H46.4788V16.9704H44.7078V15.5954H50.2298V16.9704H48.4588V21.8654ZM51.4242 15.5954H53.4042V21.8654H51.4242V15.5954Z" fill="white"/>
<path d="M17.2939 60V54.668H15.9854V60H17.2939ZM20.6064 60V56.7529H20.6553L22.9697 60H24.0098V54.668H22.7842V57.8857H22.7354L20.4307 54.668H19.3857V60H20.6064Z" fill="white"/>
<path d="M35.9132 79.064V74.906L40.0712 76.992L35.9132 79.064Z" fill="white"/>
<path d="M52.2939 60V54.668H50.9854V60H52.2939ZM55.6064 60V56.7529H55.6553L57.9697 60H59.0098V54.668H57.7842V57.8857H57.7354L55.4307 54.668H54.3857V60H55.6064Z" fill="white"/>
<path d="M14.4336 125.098C16.0205 125.098 16.9238 124.126 16.9238 122.637V122.036C16.9238 120.542 16.0156 119.57 14.4287 119.57C12.8467 119.57 11.9385 120.537 11.9385 122.036V122.637C11.9385 124.126 12.8516 125.098 14.4336 125.098ZM14.4336 124.077C13.7061 124.077 13.2715 123.535 13.2715 122.642V122.021C13.2715 121.128 13.7061 120.591 14.4336 120.591C15.1562 120.591 15.5908 121.128 15.5908 122.021V122.642C15.5908 123.535 15.1562 124.077 14.4336 124.077ZM21.0713 124.048C20.4609 124.048 20.0361 123.687 20.0361 122.998V119.668H18.7227V123.145C18.7227 124.336 19.626 125.098 21.0713 125.098C22.5166 125.098 23.4199 124.331 23.4199 123.145V119.668H22.1113V122.998C22.1113 123.682 21.6816 124.048 21.0713 124.048ZM27.792 125V120.688H29.3398V119.668H24.9355V120.688H26.4834V125H27.792Z" fill="white"/>
<path d="M49.4336 125.098C51.0205 125.098 51.9238 124.126 51.9238 122.637V122.036C51.9238 120.542 51.0156 119.57 49.4287 119.57C47.8467 119.57 46.9385 120.537 46.9385 122.036V122.637C46.9385 124.126 47.8516 125.098 49.4336 125.098ZM49.4336 124.077C48.7061 124.077 48.2715 123.535 48.2715 122.642V122.021C48.2715 121.128 48.7061 120.591 49.4336 120.591C50.1562 120.591 50.5908 121.128 50.5908 122.021V122.642C50.5908 123.535 50.1562 124.077 49.4336 124.077ZM56.0713 124.048C55.4609 124.048 55.0361 123.687 55.0361 122.998V119.668H53.7227V123.145C53.7227 124.336 54.626 125.098 56.0713 125.098C57.5166 125.098 58.4199 124.331 58.4199 123.145V119.668H57.1113V122.998C57.1113 123.682 56.6816 124.048 56.0713 124.048ZM62.792 125V120.688H64.3398V119.668H59.9355V120.688H61.4834V125H62.792Z" fill="white"/>
<rect x="34" y="334" width="7" height="7" rx="1" fill="white"/>
<path d="M35.7165 334.87H39.4515V335.95H37.3365V336.886H39.1185V337.858H37.3365V338.902H39.4425V340H35.7165V334.87Z" fill="#457B9D"/>
<rect x="34" y="289" width="7" height="7" rx="1" fill="white"/>
<path d="M36.9199 289.87C37.6219 289.87 38.1949 289.936 38.6389 290.068C39.0889 290.2 39.4369 290.449 39.6829 290.815C39.9349 291.181 40.0609 291.706 40.0609 292.39C40.0609 293.122 39.9289 293.68 39.6649 294.064C39.4009 294.442 39.0469 294.694 38.6029 294.82C38.1589 294.94 37.5979 295 36.9199 295H35.1199V289.87H36.9199ZM38.1259 293.776C38.1979 293.704 38.2489 293.518 38.2789 293.218C38.3089 292.918 38.3239 292.642 38.3239 292.39C38.3239 292.072 38.2999 291.82 38.2519 291.634C38.2099 291.442 38.1319 291.289 38.0179 291.175C37.8379 290.977 37.5289 290.878 37.0909 290.878C37.0129 290.878 36.8959 290.884 36.7399 290.896V293.884C36.8419 293.896 37.0009 293.902 37.2169 293.902C37.4389 293.902 37.6339 293.893 37.8019 293.875C37.9759 293.851 38.0839 293.818 38.1259 293.776Z" fill="#457B9D"/>
<rect x="34" y="244" width="7" height="7" rx="1" fill="white"/>
<path d="M39.6659 249.829C39.4439 249.925 39.1859 249.994 38.8919 250.036C38.5979 250.078 38.3249 250.099 38.0729 250.099C37.2569 250.099 36.6179 249.886 36.1559 249.46C35.6939 249.034 35.4629 248.38 35.4629 247.498C35.4629 246.598 35.7059 245.926 36.1919 245.482C36.6779 245.032 37.3619 244.807 38.2439 244.807C38.6639 244.807 39.1019 244.864 39.5579 244.978C39.5579 245.098 39.5459 245.278 39.5219 245.518C39.4979 245.752 39.4739 245.917 39.4499 246.013H38.8829C38.4689 246.013 38.1419 246.022 37.9019 246.04C37.6679 246.052 37.5269 246.079 37.4789 246.121C37.3889 246.205 37.3199 246.376 37.2719 246.634C37.2239 246.886 37.1999 247.129 37.1999 247.363C37.1999 247.771 37.2509 248.086 37.3529 248.308C37.4549 248.524 37.5839 248.668 37.7399 248.74C37.8899 248.812 38.1389 248.848 38.4869 248.848C38.7629 248.848 39.1229 248.824 39.5669 248.776L39.6659 249.829Z" fill="#457B9D"/>
<rect x="34" y="199" width="7" height="7" rx="1" fill="white"/>
<path d="M38.7092 202.291C39.1172 202.339 39.4082 202.477 39.5822 202.705C39.7562 202.927 39.8432 203.197 39.8432 203.515C39.8432 203.713 39.8132 203.902 39.7532 204.082C39.6932 204.256 39.6212 204.406 39.5372 204.532C39.4532 204.652 39.3812 204.73 39.3212 204.766C39.0812 204.922 38.3492 205 37.1252 205H35.3792V199.87H37.4942C37.9742 199.87 38.3612 199.897 38.6552 199.951C38.9552 199.999 39.1982 200.113 39.3842 200.293C39.5702 200.467 39.6632 200.734 39.6632 201.094C39.6632 201.406 39.5852 201.658 39.4292 201.85C39.2792 202.042 39.0392 202.174 38.7092 202.246V202.291ZM37.9892 200.959C37.9292 200.899 37.8572 200.863 37.7732 200.851C37.6952 200.833 37.5692 200.824 37.3952 200.824C37.2212 200.824 37.0892 200.827 36.9992 200.833V201.931H37.0892C37.1192 201.931 37.2452 201.931 37.4672 201.931C37.6892 201.931 37.8362 201.916 37.9082 201.886C37.9622 201.862 38.0102 201.799 38.0522 201.697C38.1002 201.595 38.1242 201.484 38.1242 201.364C38.1242 201.184 38.0792 201.049 37.9892 200.959ZM38.1422 203.965C38.1842 203.929 38.2172 203.863 38.2412 203.767C38.2712 203.665 38.2862 203.563 38.2862 203.461C38.2862 203.335 38.2682 203.218 38.2322 203.11C38.2022 202.996 38.1602 202.915 38.1062 202.867C38.0522 202.813 37.9742 202.777 37.8722 202.759C37.7762 202.741 37.6112 202.732 37.3772 202.732C37.2272 202.732 37.1012 202.735 36.9992 202.741V204.046C37.2812 204.052 37.5332 204.049 37.7552 204.037C37.9772 204.019 38.1062 203.995 38.1422 203.965Z" fill="#457B9D"/>
<rect x="34" y="154" width="7" height="7" rx="1" fill="white"/>
<path d="M38.2437 158.875H36.7497L36.4797 160H34.8237L36.4797 154.87H38.5947L40.1787 160H38.5137L38.2437 158.875ZM37.4877 155.977L36.9567 157.876H38.0277L37.5237 155.977H37.4877Z" fill="#457B9D"/>
</svg>
