<svg width="91" height="380" viewBox="0 0 91 380" fill="none" xmlns="http://www.w3.org/2000/svg">
<rect x="0.5" width="90" height="380" fill="#457B9D"/>
<g opacity="0.3">
<path fill-rule="evenodd" clip-rule="evenodd" d="M39.458 375.599C39.303 375.747 39.159 375.851 39.026 375.909C38.893 375.968 38.751 375.998 38.6 375.998C38.448 375.998 38.306 375.97 38.173 375.914C38.04 375.858 37.924 375.781 37.825 375.682C37.609 375.466 37.5 375.209 37.5 374.912V369.385C37.5 369.082 37.578 368.847 37.732 368.68C37.998 368.408 38.25 368.272 38.488 368.272C38.726 368.272 38.904 368.296 39.022 368.346C39.139 368.395 39.238 368.457 39.318 368.531C39.424 368.624 39.502 368.723 39.555 368.828C39.608 368.933 39.651 369.011 39.685 369.06C39.719 369.11 39.775 369.134 39.852 369.134C39.929 369.134 39.996 369.11 40.051 369.06L40.209 368.902C40.66 368.482 41.112 368.272 41.563 368.272C42.361 368.272 43.019 368.599 43.539 369.255C43.588 369.323 43.65 369.357 43.724 369.357C43.854 369.357 43.986 369.256 44.119 369.055C44.252 368.854 44.466 368.674 44.763 368.513C45.06 368.352 45.406 368.272 45.802 368.272C46.198 368.272 46.558 368.344 46.883 368.49C47.207 368.635 47.49 368.834 47.731 369.088C48.238 369.62 48.492 370.263 48.492 371.017V374.912C48.492 375.382 48.269 375.713 47.824 375.905C47.688 375.967 47.544 375.998 47.393 375.998C47.241 375.998 47.099 375.97 46.966 375.914C46.833 375.858 46.717 375.781 46.618 375.682C46.408 375.46 46.303 375.203 46.303 374.912V371.045C46.303 370.736 46.226 370.504 46.071 370.349C45.799 370.077 45.549 369.941 45.32 369.941C45.091 369.941 44.912 369.971 44.782 370.029C44.652 370.088 44.534 370.17 44.429 370.275C44.213 370.492 44.105 370.742 44.105 371.026V374.912C44.105 375.382 43.885 375.713 43.446 375.905C43.31 375.967 43.166 375.998 43.015 375.998C42.863 375.998 42.72 375.97 42.583 375.914C42.447 375.858 42.33 375.781 42.231 375.682C42.015 375.466 41.906 375.209 41.906 374.912V371.045C41.906 370.736 41.829 370.504 41.674 370.349C41.402 370.077 41.118 369.941 40.821 369.941C40.326 369.941 39.983 370.133 39.792 370.516C39.73 370.64 39.699 370.779 39.699 370.934V374.912C39.699 375.215 39.618 375.444 39.458 375.599ZM50.719 369.387C50.719 369.084 50.796 368.849 50.951 368.682C51.216 368.41 51.51 368.274 51.832 368.274C52.141 368.274 52.37 368.355 52.518 368.515C52.79 368.794 52.926 369.084 52.926 369.387V374.915C52.926 375.212 52.849 375.437 52.694 375.592C52.422 375.864 52.172 376 51.943 376C51.714 376 51.532 375.971 51.396 375.912C51.26 375.853 51.142 375.777 51.043 375.685C50.827 375.474 50.719 375.218 50.719 374.915V369.387ZM51.827 365.9C51.565 365.9 51.352 365.687 51.352 365.425C51.352 365.162 51.565 364.95 51.827 364.95C52.089 364.95 52.302 365.162 52.302 365.425C52.302 365.687 52.089 365.9 51.827 365.9ZM51.827 364C52.214 364 52.548 364.142 52.829 364.425C53.111 364.709 53.252 364.996 53.252 365.287C53.252 365.577 53.213 365.807 53.135 365.978C53.058 366.148 52.956 366.297 52.829 366.424C52.548 366.708 52.214 366.849 51.827 366.849C51.44 366.849 51.106 366.708 50.824 366.424C50.543 366.141 50.402 365.857 50.402 365.574C50.402 365.092 50.543 364.709 50.824 364.425C51.106 364.142 51.44 364 51.827 364Z" fill="#1D3557"/>
</g>
<path d="M28.7875 15.5624C29.3815 15.5624 29.8839 15.6174 30.2945 15.7274C30.7052 15.8374 31.0315 16.05 31.2735 16.3654C31.5229 16.6734 31.6475 17.117 31.6475 17.6964C31.6475 17.953 31.6072 18.217 31.5265 18.4884C31.4532 18.7524 31.3579 18.9834 31.2405 19.1814C31.1305 19.3794 31.0315 19.5077 30.9435 19.5664C30.8409 19.6397 30.6135 19.6984 30.2615 19.7424C29.9095 19.779 29.4952 19.7974 29.0185 19.7974C28.8499 19.7974 28.5895 19.79 28.2375 19.7754V21.8654H26.2575V15.5954C27.0275 15.5734 27.8709 15.5624 28.7875 15.5624ZM29.6125 18.3894C29.6859 18.294 29.7225 18.1034 29.7225 17.8174C29.7225 17.4434 29.6419 17.1794 29.4805 17.0254C29.3265 16.8714 29.0552 16.7944 28.6665 16.7944C28.5345 16.7944 28.3915 16.8054 28.2375 16.8274V18.4994C28.3109 18.5067 28.4539 18.5104 28.6665 18.5104C29.2312 18.5104 29.5465 18.47 29.6125 18.3894ZM32.9093 15.5954H34.9003V17.8944H36.6053V15.5954H38.5963V21.8654H36.6053V19.1594H34.9003V21.8654H32.9093V15.5954ZM43.8889 20.4904H42.0629L41.7329 21.8654H39.7089L41.7329 15.5954H44.3179L46.2539 21.8654H44.2189L43.8889 20.4904ZM42.9649 16.9484L42.3159 19.2694H43.6249L43.0089 16.9484H42.9649ZM49.1549 17.2894C49.1549 17.4434 49.2319 17.5644 49.3859 17.6524C49.5472 17.7404 49.7965 17.8357 50.1339 17.9384C50.5372 18.0704 50.8672 18.1987 51.1239 18.3234C51.3879 18.448 51.6152 18.6424 51.8059 18.9064C52.0039 19.1704 52.1029 19.515 52.1029 19.9404C52.1029 21.3044 51.2155 21.9864 49.4409 21.9864C49.1475 21.9864 48.7882 21.9607 48.3629 21.9094C47.9449 21.858 47.5635 21.792 47.2189 21.7114C47.2335 21.5574 47.2629 21.3337 47.3069 21.0404C47.3582 20.7397 47.4059 20.516 47.4499 20.3694C47.7065 20.406 48.0915 20.45 48.6049 20.5014C49.1255 20.5527 49.5179 20.5784 49.7819 20.5784C49.9359 20.5784 50.0275 20.5674 50.0569 20.5454C50.1009 20.516 50.1339 20.4684 50.1559 20.4024C50.1852 20.329 50.1999 20.2667 50.1999 20.2154C50.1999 20.0687 50.1302 19.9587 49.9909 19.8854C49.8515 19.8047 49.6132 19.7094 49.2759 19.5994C48.8725 19.4747 48.5389 19.3464 48.2749 19.2144C48.0109 19.0824 47.7799 18.877 47.5819 18.5984C47.3839 18.3197 47.2849 17.953 47.2849 17.4984C47.2849 17.1757 47.3582 16.8604 47.5049 16.5524C47.6515 16.237 47.8019 16.0244 47.9559 15.9144C48.0732 15.8337 48.3152 15.7567 48.6819 15.6834C49.0485 15.61 49.3932 15.5734 49.7159 15.5734C50.5372 15.5734 51.2082 15.6504 51.7289 15.8044C51.7215 15.951 51.6959 16.1527 51.6519 16.4094C51.6152 16.666 51.5749 16.9007 51.5309 17.1134L51.2779 17.1024C50.3245 17.0364 49.7159 17.0034 49.4519 17.0034C49.3419 17.0034 49.2795 17.007 49.2649 17.0144C49.2355 17.029 49.2099 17.062 49.1879 17.1134C49.1659 17.1647 49.1549 17.2234 49.1549 17.2894ZM53.507 15.5954H58.072V16.9154H55.487V18.0594H57.665V19.2474H55.487V20.5234H58.061V21.8654H53.507V15.5954ZM65.1706 21.8654H63.0916L62.7176 20.2814C62.703 20.2227 62.6773 20.1237 62.6406 19.9844C62.6113 19.8377 62.5746 19.7314 62.5306 19.6654C62.4866 19.592 62.4243 19.5444 62.3436 19.5224C62.1383 19.5297 61.8376 19.5334 61.4416 19.5334V21.8654H59.4616V15.6504C60.349 15.5844 61.1776 15.5514 61.9476 15.5514C62.6443 15.5514 63.209 15.61 63.6416 15.7274C64.0743 15.8374 64.397 16.0317 64.6096 16.3104C64.8296 16.5817 64.9396 16.9557 64.9396 17.4324C64.9396 17.8797 64.837 18.2317 64.6316 18.4884C64.4263 18.7377 64.0963 18.888 63.6416 18.9394V19.0054C63.8983 19.0274 64.111 19.1117 64.2796 19.2584C64.4556 19.3977 64.573 19.5774 64.6316 19.7974L65.1706 21.8654ZM61.4416 18.2904C61.5076 18.2977 61.636 18.3014 61.8266 18.3014C62.3913 18.3014 62.7213 18.2537 62.8166 18.1584C62.9046 18.0704 62.9486 17.865 62.9486 17.5424C62.9486 17.2417 62.868 17.0364 62.7066 16.9264C62.5526 16.8164 62.296 16.7614 61.9366 16.7614C61.856 16.7614 61.691 16.7687 61.4416 16.7834V18.2904Z" fill="white"/>
<rect x="52.495" y="211" width="65" height="28" rx="14" transform="rotate(-90 52.495 211)" fill="#36617C"/>
<path d="M48.4589 140H50.954C52.0819 140 52.9169 139.443 52.9169 138.486C52.9169 137.666 52.2968 137.246 51.6425 137.197V137.144C52.2089 137.036 52.6434 136.641 52.6434 135.981C52.6434 135.166 51.9598 134.668 50.9247 134.668H48.4589V140ZM49.7528 135.571H50.5975C51.0956 135.571 51.3641 135.815 51.3641 136.191C51.3641 136.582 51.0907 136.836 50.4266 136.836H49.7528V135.571ZM49.7528 137.666H50.6659C51.2811 137.666 51.5887 137.949 51.5887 138.389C51.5887 138.823 51.3007 139.102 50.5096 139.102H49.7528V137.666ZM55.9022 140H57.2059V138.086L59.0956 134.668H57.6942L56.5956 136.875H56.5468L55.4481 134.668H54.0126L55.9022 138.115V140ZM64.8446 136.475C64.8446 135.483 64.1561 134.668 62.8866 134.668H60.5331V140H61.8368V138.33H62.8768C64.1464 138.33 64.8446 137.476 64.8446 136.475ZM63.5165 136.504C63.5165 137.041 63.204 137.383 62.662 137.383H61.8319V135.63H62.6132C63.1844 135.63 63.5165 135.947 63.5165 136.504ZM66.9901 140L67.3759 138.75H69.1581L69.5341 140H70.9208L69.0946 134.668H67.5126L65.6815 140H66.9901ZM68.3036 135.801L68.9139 137.842H67.62L68.2401 135.801H68.3036ZM72.1776 138.447C72.1923 139.346 72.91 140.098 74.4384 140.098C75.9423 140.098 76.7382 139.385 76.7382 138.384C76.7382 137.446 76.118 137.036 75.2196 136.86L74.4335 136.709C73.8817 136.597 73.6083 136.436 73.6083 136.123C73.6083 135.781 73.9159 135.522 74.4774 135.522C75.0634 135.522 75.4052 135.815 75.4344 136.187H76.6405C76.6307 135.337 75.8983 134.565 74.4823 134.565C73.1737 134.565 72.2997 135.22 72.2997 136.221C72.2997 137.09 72.8563 137.544 73.8524 137.744L74.5995 137.896C75.1659 138.013 75.4442 138.179 75.4442 138.511C75.4442 138.872 75.1317 139.131 74.4921 139.131C73.8573 139.131 73.4569 138.833 73.4276 138.447H72.1776ZM78.2343 138.447C78.2489 139.346 78.9667 140.098 80.495 140.098C81.9989 140.098 82.7948 139.385 82.7948 138.384C82.7948 137.446 82.1747 137.036 81.2762 136.86L80.4901 136.709C79.9384 136.597 79.6649 136.436 79.6649 136.123C79.6649 135.781 79.9725 135.522 80.5341 135.522C81.12 135.522 81.4618 135.815 81.4911 136.187H82.6971C82.6874 135.337 81.955 134.565 80.5389 134.565C79.2303 134.565 78.3563 135.22 78.3563 136.221C78.3563 137.09 78.913 137.544 79.9091 137.744L80.6561 137.896C81.2225 138.013 81.5009 138.179 81.5009 138.511C81.5009 138.872 81.1884 139.131 80.5487 139.131C79.9139 139.131 79.5135 138.833 79.4843 138.447H78.2343Z" fill="white"/>
<rect x="8.5" y="50" width="30" height="66.1696" rx="15" fill="#36617C"/>
<path d="M15.206 39.668H12.8525V45H14.1367V43.0811H14.9619L15.9238 45H17.374L16.2509 42.9053C16.7392 42.7246 17.2666 42.1875 17.2666 41.4062C17.2666 40.3369 16.5049 39.668 15.206 39.668ZM14.1367 42.1826V40.6201H15.0156C15.5429 40.6201 15.914 40.8984 15.914 41.416C15.914 41.9287 15.5527 42.1826 15.0009 42.1826H14.1367ZM19.915 45L20.3008 43.75H22.083L22.459 45H23.8457L22.0195 39.668H20.4375L18.6064 45H19.915ZM21.2285 40.8008L21.8388 42.8418H20.5449L21.165 40.8008H21.2285ZM27.3535 45V40.6885H28.9013V39.668H24.497V40.6885H26.0449V45H27.3535ZM34.3037 44.0039H31.8476V42.7783H34.1523V41.8506H31.8476V40.6641H34.3037V39.668H30.5537V45H34.3037V44.0039Z" fill="white"/>
<rect x="51.5" y="50" width="30" height="66.1696" rx="15" fill="#36617C"/>
<path d="M56.58 45V42.9736H58.7773V41.9971H56.58V40.6738H58.997V39.668H55.2715V45H56.58ZM65.4541 42.3145C65.4541 40.6348 64.6289 39.668 62.9101 39.668H60.7324V45H62.9101C64.6093 45 65.4541 44.0186 65.4541 42.3145ZM64.1162 42.3389C64.1162 43.6475 63.5351 44.0039 62.6953 44.0039H62.041V40.6641H62.6953C63.75 40.6641 64.1162 41.3525 64.1162 42.3389ZM67.2675 45H69.7627C70.8906 45 71.7256 44.4434 71.7256 43.4863C71.7256 42.666 71.1054 42.2461 70.4511 42.1973V42.1436C71.0175 42.0361 71.4521 41.6406 71.4521 40.9814C71.4521 40.166 70.7685 39.668 69.7334 39.668H67.2675V45ZM68.5615 40.5713H69.4062C69.9043 40.5713 70.1728 40.8154 70.1728 41.1914C70.1728 41.582 69.8994 41.8359 69.2353 41.8359H68.5615V40.5713ZM68.5615 42.666H69.4746C70.0898 42.666 70.3974 42.9492 70.3974 43.3887C70.3974 43.8232 70.1093 44.1016 69.3183 44.1016H68.5615V42.666ZM78.2656 39.668H76.8593L74.8769 41.958H74.8183V39.668H73.5097V45H74.8183V43.374L75.3359 42.8076L76.791 45H78.3388L76.2978 41.9775L78.2656 39.668Z" fill="white"/>
<rect x="8.5" y="145" width="30" height="66.1663" rx="15" fill="#36617C"/>
<path d="M13.9259 137.314C13.9259 135.635 13.1007 134.668 11.3819 134.668H9.20419V140H11.3819C13.0811 140 13.9259 139.019 13.9259 137.314ZM12.588 137.339C12.588 138.647 12.0069 139.004 11.1671 139.004H10.5128V135.664H11.1671C12.2218 135.664 12.588 136.353 12.588 137.339ZM19.4893 139.004H17.0333V137.778H19.338V136.851H17.0333V135.664H19.4893V134.668H15.7393V140H19.4893V139.004ZM25.7364 136.475C25.7364 135.483 25.0479 134.668 23.7784 134.668H21.4249V140H22.7286V138.33H23.7686C25.0382 138.33 25.7364 137.476 25.7364 136.475ZM24.4083 136.504C24.4083 137.041 24.0958 137.383 23.5538 137.383H22.7237V135.63H23.505C24.0763 135.63 24.4083 135.947 24.4083 136.504ZM29.8497 140V135.688H31.3976V134.668H26.9933V135.688H28.5411V140H29.8497ZM37.8058 140V134.668H36.4972V136.792H34.3585V134.668H33.0499V140H34.3585V137.808H36.4972V140H37.8058Z" fill="white"/>
<path d="M60.4336 286.098C62.0205 286.098 62.9238 285.126 62.9238 283.637V283.036C62.9238 281.542 62.0156 280.57 60.4287 280.57C58.8467 280.57 57.9385 281.537 57.9385 283.036V283.637C57.9385 285.126 58.8516 286.098 60.4336 286.098ZM60.4336 285.077C59.7061 285.077 59.2715 284.535 59.2715 283.642V283.021C59.2715 282.128 59.7061 281.591 60.4336 281.591C61.1562 281.591 61.5908 282.128 61.5908 283.021V283.642C61.5908 284.535 61.1562 285.077 60.4336 285.077ZM67.0713 285.048C66.4609 285.048 66.0361 284.687 66.0361 283.998V280.668H64.7227V284.145C64.7227 285.336 65.626 286.098 67.0713 286.098C68.5166 286.098 69.4199 285.331 69.4199 284.145V280.668H68.1113V283.998C68.1113 284.682 67.6816 285.048 67.0713 285.048ZM73.792 286V281.688H75.3398V280.668H70.9355V281.688H72.4834V286H73.792Z" fill="white"/>
<path d="M20.7939 286V280.668H19.4854V286H20.7939ZM24.1064 286V282.753H24.1553L26.4697 286H27.5098V280.668H26.2842V283.886H26.2354L23.9307 280.668H22.8857V286H24.1064Z" fill="white"/>
</svg>
