<svg width="91" height="380" viewBox="0 0 91 380" fill="none" xmlns="http://www.w3.org/2000/svg">
<rect x="0.5" width="90" height="380" fill="#457B9D"/>
<g opacity="0.5">
<path fill-rule="evenodd" clip-rule="evenodd" d="M39.458 375.599C39.303 375.747 39.159 375.851 39.026 375.909C38.893 375.968 38.751 375.998 38.6 375.998C38.448 375.998 38.306 375.97 38.173 375.914C38.04 375.858 37.924 375.781 37.825 375.682C37.609 375.466 37.5 375.209 37.5 374.912V369.385C37.5 369.082 37.578 368.847 37.732 368.68C37.998 368.408 38.25 368.272 38.488 368.272C38.726 368.272 38.904 368.296 39.022 368.346C39.139 368.395 39.238 368.457 39.318 368.531C39.424 368.624 39.502 368.723 39.555 368.828C39.608 368.933 39.651 369.011 39.685 369.06C39.719 369.11 39.775 369.134 39.852 369.134C39.929 369.134 39.996 369.11 40.051 369.06L40.209 368.902C40.66 368.482 41.112 368.272 41.563 368.272C42.361 368.272 43.019 368.599 43.539 369.255C43.588 369.323 43.65 369.357 43.724 369.357C43.854 369.357 43.986 369.256 44.119 369.055C44.252 368.854 44.466 368.674 44.763 368.513C45.06 368.352 45.406 368.272 45.802 368.272C46.198 368.272 46.558 368.344 46.883 368.49C47.207 368.635 47.49 368.834 47.731 369.088C48.238 369.62 48.492 370.263 48.492 371.017V374.912C48.492 375.382 48.269 375.713 47.824 375.905C47.688 375.967 47.544 375.998 47.393 375.998C47.241 375.998 47.099 375.97 46.966 375.914C46.833 375.858 46.717 375.781 46.618 375.682C46.408 375.46 46.303 375.203 46.303 374.912V371.045C46.303 370.736 46.226 370.504 46.071 370.349C45.799 370.077 45.549 369.941 45.32 369.941C45.091 369.941 44.912 369.971 44.782 370.029C44.652 370.088 44.534 370.17 44.429 370.275C44.213 370.492 44.105 370.742 44.105 371.026V374.912C44.105 375.382 43.885 375.713 43.446 375.905C43.31 375.967 43.166 375.998 43.015 375.998C42.863 375.998 42.72 375.97 42.583 375.914C42.447 375.858 42.33 375.781 42.231 375.682C42.015 375.466 41.906 375.209 41.906 374.912V371.045C41.906 370.736 41.829 370.504 41.674 370.349C41.402 370.077 41.118 369.941 40.821 369.941C40.326 369.941 39.983 370.133 39.792 370.516C39.73 370.64 39.699 370.779 39.699 370.934V374.912C39.699 375.215 39.618 375.444 39.458 375.599ZM50.719 369.387C50.719 369.084 50.796 368.849 50.951 368.682C51.216 368.41 51.51 368.274 51.832 368.274C52.141 368.274 52.37 368.355 52.518 368.515C52.79 368.794 52.926 369.084 52.926 369.387V374.915C52.926 375.212 52.849 375.437 52.694 375.592C52.422 375.864 52.172 376 51.943 376C51.714 376 51.532 375.971 51.396 375.912C51.26 375.853 51.142 375.777 51.043 375.685C50.827 375.474 50.719 375.218 50.719 374.915V369.387ZM51.827 365.9C51.565 365.9 51.352 365.687 51.352 365.425C51.352 365.162 51.565 364.95 51.827 364.95C52.089 364.95 52.302 365.162 52.302 365.425C52.302 365.687 52.089 365.9 51.827 365.9ZM51.827 364C52.214 364 52.548 364.142 52.829 364.425C53.111 364.709 53.252 364.996 53.252 365.287C53.252 365.577 53.213 365.807 53.135 365.978C53.058 366.148 52.956 366.297 52.829 366.424C52.548 366.708 52.214 366.849 51.827 366.849C51.44 366.849 51.106 366.708 50.824 366.424C50.543 366.141 50.402 365.857 50.402 365.574C50.402 365.092 50.543 364.709 50.824 364.425C51.106 364.142 51.44 364 51.827 364Z" fill="#1D3557"/>
</g>
<path d="M29.2682 15.9894C29.9162 15.9894 30.4642 16.0494 30.9122 16.1694C31.3602 16.2894 31.7162 16.5214 31.9802 16.8654C32.2522 17.2014 32.3882 17.6854 32.3882 18.3174C32.3882 18.5974 32.3442 18.8854 32.2562 19.1814C32.1762 19.4694 32.0722 19.7214 31.9442 19.9374C31.8242 20.1534 31.7162 20.2934 31.6202 20.3574C31.5082 20.4374 31.2602 20.5014 30.8762 20.5494C30.4922 20.5894 30.0402 20.6094 29.5202 20.6094C29.3362 20.6094 29.0522 20.6014 28.6682 20.5854V22.8654H26.5082V16.0254C27.3482 16.0014 28.2682 15.9894 29.2682 15.9894ZM30.1682 19.0734C30.2482 18.9694 30.2882 18.7614 30.2882 18.4494C30.2882 18.0414 30.2002 17.7534 30.0242 17.5854C29.8562 17.4174 29.5602 17.3334 29.1362 17.3334C28.9922 17.3334 28.8362 17.3454 28.6682 17.3694V19.1934C28.7482 19.2014 28.9042 19.2054 29.1362 19.2054C29.7522 19.2054 30.0962 19.1614 30.1682 19.0734ZM33.1647 16.0254H35.3367V18.5334H37.1967V16.0254H39.3687V22.8654H37.1967V19.9134H35.3367V22.8654H33.1647V16.0254ZM44.5424 21.3654H42.5504L42.1904 22.8654H39.9824L42.1904 16.0254H45.0104L47.1224 22.8654H44.9024L44.5424 21.3654ZM43.5344 17.5014L42.8264 20.0334H44.2544L43.5824 17.5014H43.5344ZM49.6871 17.8734C49.6871 18.0414 49.7711 18.1734 49.9391 18.2694C50.1151 18.3654 50.3871 18.4694 50.7551 18.5814C51.1951 18.7254 51.5551 18.8654 51.8351 19.0014C52.1231 19.1374 52.3711 19.3494 52.5791 19.6374C52.7951 19.9254 52.9031 20.3014 52.9031 20.7654C52.9031 22.2534 51.9351 22.9974 49.9991 22.9974C49.6791 22.9974 49.2871 22.9694 48.8231 22.9134C48.3671 22.8574 47.9511 22.7854 47.5751 22.6974C47.5911 22.5294 47.6231 22.2854 47.6711 21.9654C47.7271 21.6374 47.7791 21.3934 47.8271 21.2334C48.1071 21.2734 48.5271 21.3214 49.0871 21.3774C49.6551 21.4334 50.0831 21.4614 50.3711 21.4614C50.5391 21.4614 50.6391 21.4494 50.6711 21.4254C50.7191 21.3934 50.7551 21.3414 50.7791 21.2694C50.8111 21.1894 50.8271 21.1214 50.8271 21.0654C50.8271 20.9054 50.7511 20.7854 50.5991 20.7054C50.4471 20.6174 50.1871 20.5134 49.8191 20.3934C49.3791 20.2574 49.0151 20.1174 48.7271 19.9734C48.4391 19.8294 48.1871 19.6054 47.9711 19.3014C47.7551 18.9974 47.6471 18.5974 47.6471 18.1014C47.6471 17.7494 47.7271 17.4054 47.8871 17.0694C48.0471 16.7254 48.2111 16.4934 48.3791 16.3734C48.5071 16.2854 48.7711 16.2014 49.1711 16.1214C49.5711 16.0414 49.9471 16.0014 50.2991 16.0014C51.1951 16.0014 51.9271 16.0854 52.4951 16.2534C52.4871 16.4134 52.4591 16.6334 52.4111 16.9134C52.3711 17.1934 52.3271 17.4494 52.2791 17.6814L52.0031 17.6694C50.9631 17.5974 50.2991 17.5614 50.0111 17.5614C49.8911 17.5614 49.8231 17.5654 49.8071 17.5734C49.7751 17.5894 49.7471 17.6254 49.7231 17.6814C49.6991 17.7374 49.6871 17.8014 49.6871 17.8734ZM53.8349 16.0254H58.8149V17.4654H55.9949V18.7134H58.3709V20.0094H55.9949V21.4014H58.8029V22.8654H53.8349V16.0254ZM65.9589 22.8654H63.6909L63.2829 21.1374C63.2669 21.0734 63.2389 20.9654 63.1989 20.8134C63.1669 20.6534 63.1269 20.5374 63.0789 20.4654C63.0309 20.3854 62.9629 20.3334 62.8749 20.3094C62.6509 20.3174 62.3229 20.3214 61.8909 20.3214V22.8654H59.7309V16.0854C60.6989 16.0134 61.6029 15.9774 62.4429 15.9774C63.2029 15.9774 63.8189 16.0414 64.2909 16.1694C64.7629 16.2894 65.1149 16.5014 65.3469 16.8054C65.5869 17.1014 65.7069 17.5094 65.7069 18.0294C65.7069 18.5174 65.5949 18.9014 65.3709 19.1814C65.1469 19.4534 64.7869 19.6174 64.2909 19.6734V19.7454C64.5709 19.7694 64.8029 19.8614 64.9869 20.0214C65.1789 20.1734 65.3069 20.3694 65.3709 20.6094L65.9589 22.8654ZM61.8909 18.9654C61.9629 18.9734 62.1029 18.9774 62.3109 18.9774C62.9269 18.9774 63.2869 18.9254 63.3909 18.8214C63.4869 18.7254 63.5349 18.5014 63.5349 18.1494C63.5349 17.8214 63.4469 17.5974 63.2709 17.4774C63.1029 17.3574 62.8229 17.2974 62.4309 17.2974C62.3429 17.2974 62.1629 17.3054 61.8909 17.3214V18.9654Z" fill="#A8DADC"/>
<rect x="52.495" y="211" width="65" height="28" rx="14" transform="rotate(-90 52.495 211)" fill="#36617C"/>
<path d="M52.0358 134.36C52.6598 134.36 53.1398 134.548 53.4758 134.924C53.8198 135.3 53.9918 135.964 53.9918 136.916C53.9918 137.612 53.9198 138.208 53.7758 138.704C53.6398 139.192 53.4838 139.504 53.3078 139.64C53.0998 139.808 52.7918 139.932 52.3838 140.012C51.9758 140.092 51.5118 140.132 50.9918 140.132C50.5918 140.132 50.1438 140.1 49.6478 140.036C49.1518 139.98 48.7078 139.888 48.3158 139.76V132.8L50.3918 132.716V133.844C50.3918 133.908 50.3878 134.056 50.3798 134.288C50.3798 134.52 50.3718 134.716 50.3558 134.876C50.3398 135.028 50.3158 135.144 50.2838 135.224L50.3558 135.308C50.5398 135.028 50.7718 134.8 51.0518 134.624C51.3318 134.448 51.6598 134.36 52.0358 134.36ZM51.6998 138.692C51.7478 138.612 51.7878 138.424 51.8198 138.128C51.8598 137.832 51.8798 137.548 51.8798 137.276C51.8798 136.956 51.8638 136.704 51.8318 136.52C51.8078 136.336 51.7398 136.192 51.6278 136.088C51.5238 135.976 51.3598 135.92 51.1358 135.92C50.9358 135.92 50.6798 135.948 50.3678 136.004V138.716C50.6638 138.764 50.9718 138.788 51.2918 138.788C51.5238 138.788 51.6598 138.756 51.6998 138.692ZM60.4968 134.48L59.0568 139.1C58.7768 139.988 58.5248 140.632 58.3008 141.032C58.0768 141.44 57.8528 141.724 57.6288 141.884C57.5008 141.972 57.2968 142.04 57.0168 142.088C56.7448 142.136 56.4488 142.16 56.1288 142.16C55.6488 142.16 55.2648 142.116 54.9768 142.028C54.9688 141.836 54.9768 141.6 55.0008 141.32C55.0248 141.048 55.0568 140.816 55.0968 140.624C55.4328 140.64 55.7608 140.648 56.0808 140.648C56.3208 140.648 56.5008 140.644 56.6208 140.636C56.7408 140.404 56.8528 140.16 56.9568 139.904L56.1288 139.856L54.2808 134.48H56.4528L57.4128 138.344L57.4248 138.572H57.4608L58.3248 134.48H60.4968ZM64.7643 134.36C65.3403 134.36 65.7963 134.552 66.1323 134.936C66.4763 135.312 66.6483 135.972 66.6483 136.916C66.6483 137.62 66.5803 138.196 66.4443 138.644C66.3083 139.084 66.1523 139.376 65.9763 139.52C65.8003 139.664 65.4923 139.78 65.0523 139.868C64.6203 139.956 64.1723 140 63.7083 140C63.5723 140 63.3443 139.992 63.0243 139.976V141.68L60.9723 141.764V134.48H62.6523L62.8563 135.332C63.0643 135.036 63.3283 134.8 63.6483 134.624C63.9763 134.448 64.3483 134.36 64.7643 134.36ZM64.2843 138.536C64.3723 138.472 64.4363 138.292 64.4763 137.996C64.5163 137.692 64.5363 137.404 64.5363 137.132C64.5363 136.684 64.4803 136.352 64.3683 136.136C64.2563 135.92 64.0323 135.812 63.6963 135.812C63.4563 135.812 63.2323 135.836 63.0243 135.884V138.548L63.3603 138.584C63.4643 138.592 63.6123 138.596 63.8043 138.596C64.0763 138.596 64.2363 138.576 64.2843 138.536ZM70.7408 140L70.5488 139.244C70.1808 139.844 69.6688 140.144 69.0128 140.144C68.4768 140.144 68.0368 139.996 67.6928 139.7C67.3568 139.396 67.1888 138.972 67.1888 138.428C67.1888 138.092 67.2848 137.8 67.4768 137.552C67.6768 137.296 67.9488 137.116 68.2928 137.012C68.7408 136.884 69.4328 136.812 70.3688 136.796C70.3688 136.268 70.3448 135.988 70.2968 135.956C70.2568 135.924 70.1288 135.908 69.9128 135.908C69.7768 135.908 69.5888 135.916 69.3488 135.932C68.9648 135.948 68.4448 135.992 67.7888 136.064C67.7248 135.632 67.6768 135.168 67.6448 134.672C68.0688 134.584 68.5128 134.512 68.9768 134.456C69.4408 134.392 69.8568 134.36 70.2248 134.36C70.8648 134.36 71.3448 134.468 71.6648 134.684C71.9848 134.892 72.1928 135.168 72.2888 135.512C72.3848 135.856 72.4288 136.292 72.4208 136.82L72.4088 138.584L72.4448 140H70.7408ZM69.7088 138.8C69.9168 138.8 70.1368 138.76 70.3688 138.68V137.792H70.2728C69.6808 137.792 69.3528 137.824 69.2888 137.888C69.2488 137.928 69.2168 137.988 69.1928 138.068C69.1768 138.148 69.1688 138.224 69.1688 138.296C69.1688 138.488 69.2128 138.62 69.3008 138.692C69.3888 138.764 69.5248 138.8 69.7088 138.8ZM77.8113 138.128C77.8113 138.84 77.5833 139.352 77.1273 139.664C76.6793 139.976 76.0393 140.132 75.2073 140.132C74.6233 140.132 73.9513 140.048 73.1913 139.88C73.2073 139.72 73.2433 139.492 73.2993 139.196C73.3633 138.892 73.4153 138.66 73.4553 138.5C73.7433 138.548 74.0633 138.588 74.4153 138.62C74.7673 138.644 75.0673 138.656 75.3153 138.656C75.5313 138.656 75.6633 138.644 75.7113 138.62C75.7193 138.612 75.7273 138.592 75.7353 138.56C75.7513 138.52 75.7593 138.48 75.7593 138.44C75.7593 138.28 75.6593 138.172 75.4593 138.116C75.3953 138.1 75.1513 138.032 74.7273 137.912C74.3033 137.792 73.9553 137.576 73.6833 137.264C73.4193 136.944 73.2873 136.548 73.2873 136.076C73.2873 135.828 73.3433 135.552 73.4553 135.248C73.5673 134.944 73.6873 134.752 73.8153 134.672C73.9113 134.608 74.1433 134.544 74.5113 134.48C74.8793 134.408 75.2193 134.372 75.5313 134.372C76.1953 134.372 76.8633 134.42 77.5353 134.516C77.5353 134.66 77.5153 134.904 77.4753 135.248C77.4353 135.584 77.3993 135.796 77.3673 135.884C76.6873 135.796 76.1393 135.752 75.7233 135.752C75.5073 135.752 75.3673 135.764 75.3033 135.788C75.2873 135.796 75.2713 135.82 75.2553 135.86C75.2393 135.892 75.2313 135.936 75.2313 135.992C75.2313 136.104 75.2673 136.184 75.3393 136.232C75.4113 136.288 75.5993 136.356 75.9033 136.436C76.2633 136.54 76.5713 136.648 76.8273 136.76C77.0913 136.872 77.3193 137.04 77.5113 137.264C77.7113 137.488 77.8113 137.776 77.8113 138.128ZM82.9559 138.128C82.9559 138.84 82.7279 139.352 82.2719 139.664C81.8239 139.976 81.1839 140.132 80.3519 140.132C79.7679 140.132 79.0959 140.048 78.3359 139.88C78.3519 139.72 78.3879 139.492 78.4439 139.196C78.5079 138.892 78.5599 138.66 78.5999 138.5C78.8879 138.548 79.2079 138.588 79.5599 138.62C79.9119 138.644 80.2119 138.656 80.4599 138.656C80.6759 138.656 80.8079 138.644 80.8559 138.62C80.8639 138.612 80.8719 138.592 80.8799 138.56C80.8959 138.52 80.9039 138.48 80.9039 138.44C80.9039 138.28 80.8039 138.172 80.6039 138.116C80.5399 138.1 80.2959 138.032 79.8719 137.912C79.4479 137.792 79.0999 137.576 78.8279 137.264C78.5639 136.944 78.4319 136.548 78.4319 136.076C78.4319 135.828 78.4879 135.552 78.5999 135.248C78.7119 134.944 78.8319 134.752 78.9599 134.672C79.0559 134.608 79.2879 134.544 79.6559 134.48C80.0239 134.408 80.3639 134.372 80.6759 134.372C81.3399 134.372 82.0079 134.42 82.6799 134.516C82.6799 134.66 82.6599 134.904 82.6199 135.248C82.5799 135.584 82.5439 135.796 82.5119 135.884C81.8319 135.796 81.2839 135.752 80.8679 135.752C80.6519 135.752 80.5119 135.764 80.4479 135.788C80.4319 135.796 80.4159 135.82 80.3999 135.86C80.3839 135.892 80.3759 135.936 80.3759 135.992C80.3759 136.104 80.4119 136.184 80.4839 136.232C80.5559 136.288 80.7439 136.356 81.0479 136.436C81.4079 136.54 81.7159 136.648 81.9719 136.76C82.2359 136.872 82.4639 137.04 82.6559 137.264C82.8559 137.488 82.9559 137.776 82.9559 138.128Z" fill="#A8DADC"/>
<rect x="8.5" y="50" width="30" height="66.1696" rx="15" fill="#36617C"/>
<path d="M17.2049 39.36C17.3089 39.36 17.4169 39.372 17.5289 39.396C17.6489 39.42 17.7369 39.448 17.7929 39.48C17.7929 39.656 17.7729 39.948 17.7329 40.356C17.6929 40.756 17.6569 41.04 17.6249 41.208C17.5449 41.2 17.3969 41.196 17.1809 41.196C16.6769 41.196 16.2289 41.224 15.8369 41.28V45H13.7849V39.48H15.5009L15.7409 40.368H15.7529C15.9849 40.064 16.2329 39.82 16.4969 39.636C16.7609 39.452 16.9969 39.36 17.2049 39.36ZM21.2565 45L21.0645 44.244C20.6965 44.844 20.1845 45.144 19.5285 45.144C18.9925 45.144 18.5525 44.996 18.2085 44.7C17.8725 44.396 17.7045 43.972 17.7045 43.428C17.7045 43.092 17.8005 42.8 17.9925 42.552C18.1925 42.296 18.4645 42.116 18.8085 42.012C19.2565 41.884 19.9485 41.812 20.8845 41.796C20.8845 41.268 20.8605 40.988 20.8125 40.956C20.7725 40.924 20.6445 40.908 20.4285 40.908C20.2925 40.908 20.1045 40.916 19.8645 40.932C19.4805 40.948 18.9605 40.992 18.3045 41.064C18.2405 40.632 18.1925 40.168 18.1605 39.672C18.5845 39.584 19.0285 39.512 19.4925 39.456C19.9565 39.392 20.3725 39.36 20.7405 39.36C21.3805 39.36 21.8605 39.468 22.1805 39.684C22.5005 39.892 22.7085 40.168 22.8045 40.512C22.9005 40.856 22.9445 41.292 22.9365 41.82L22.9245 43.584L22.9605 45H21.2565ZM20.2245 43.8C20.4325 43.8 20.6525 43.76 20.8845 43.68V42.792H20.7885C20.1965 42.792 19.8685 42.824 19.8045 42.888C19.7645 42.928 19.7325 42.988 19.7085 43.068C19.6925 43.148 19.6845 43.224 19.6845 43.296C19.6845 43.488 19.7285 43.62 19.8165 43.692C19.9045 43.764 20.0405 43.8 20.2245 43.8ZM26.4071 42.732C26.4071 42.876 26.4111 43.028 26.4191 43.188C26.4271 43.34 26.4511 43.436 26.4911 43.476C26.5471 43.532 26.7431 43.56 27.0791 43.56L27.4871 43.548C27.5591 43.932 27.5951 44.376 27.5951 44.88C27.4431 44.936 27.2191 44.988 26.9231 45.036C26.6351 45.084 26.3591 45.108 26.0951 45.108C25.5431 45.108 25.1151 44.988 24.8111 44.748C24.5151 44.5 24.3671 44.12 24.3671 43.608V40.656H23.4671V39.564L24.3671 39.48L24.9071 38.16L26.4071 38.076V39.48H27.6791V40.656H26.4071V42.732ZM31.6408 43.56C31.8408 43.56 32.2128 43.54 32.7568 43.5C32.8288 43.5 32.9608 43.492 33.1528 43.476L33.3328 44.712C32.7168 45 31.9168 45.144 30.9328 45.144C30.0128 45.144 29.3048 44.912 28.8088 44.448C28.3208 43.984 28.0768 43.284 28.0768 42.348C28.0768 41.868 28.1368 41.404 28.2568 40.956C28.3848 40.508 28.5288 40.196 28.6888 40.02C28.8568 39.844 29.1688 39.692 29.6248 39.564C30.0808 39.436 30.5328 39.372 30.9808 39.372C31.7008 39.372 32.2408 39.5 32.6008 39.756C32.9608 40.012 33.1968 40.368 33.3088 40.824C33.4208 41.272 33.4768 41.876 33.4768 42.636C32.9328 42.668 32.4008 42.684 31.8808 42.684H30.1768C30.1768 42.94 30.2288 43.132 30.3328 43.26C30.4448 43.388 30.6008 43.472 30.8008 43.512C31.0008 43.544 31.2808 43.56 31.6408 43.56ZM30.2968 40.8C30.2488 40.824 30.2128 40.928 30.1888 41.112C30.1648 41.296 30.1488 41.504 30.1408 41.736H30.7648C31.1408 41.736 31.4128 41.732 31.5808 41.724C31.5808 41.34 31.5248 41.068 31.4128 40.908C31.3088 40.748 31.1248 40.668 30.8608 40.668C30.6448 40.668 30.4568 40.712 30.2968 40.8Z" fill="#A8DADC"/>
<rect x="51.5" y="50" width="30" height="66.1696" rx="15" fill="#36617C"/>
<path d="M57.3248 38.856C57.2688 38.912 57.2408 39.084 57.2408 39.372V39.48H58.5128V40.656H57.2408V45H55.1888V40.656H54.2888V39.588L55.1888 39.48V39.3C55.1888 38.948 55.2368 38.612 55.3328 38.292C55.4288 37.972 55.5168 37.78 55.5968 37.716C55.8448 37.508 56.3728 37.404 57.1808 37.404C57.6208 37.404 58.1128 37.436 58.6568 37.5C58.6568 37.596 58.6408 37.788 58.6088 38.076C58.5848 38.364 58.5608 38.608 58.5368 38.808L58.0208 38.796C57.5968 38.796 57.3648 38.816 57.3248 38.856ZM64.529 37.716V45H62.837L62.669 44.076C62.509 44.388 62.273 44.636 61.961 44.82C61.649 45.004 61.297 45.096 60.905 45.096C60.281 45.096 59.781 44.872 59.405 44.424C59.037 43.976 58.853 43.304 58.853 42.408C58.853 41.728 58.933 41.168 59.093 40.728C59.253 40.288 59.441 39.972 59.657 39.78C59.793 39.66 60.069 39.56 60.485 39.48C60.909 39.4 61.285 39.36 61.613 39.36C61.901 39.36 62.197 39.388 62.501 39.444C62.477 39.06 62.465 38.848 62.465 38.808V37.8L64.529 37.716ZM61.805 43.488C62.021 43.488 62.245 43.452 62.477 43.38V40.776C62.245 40.744 61.989 40.728 61.709 40.728C61.469 40.728 61.317 40.748 61.253 40.788C61.165 40.852 61.093 41.036 61.037 41.34C60.989 41.636 60.965 41.948 60.965 42.276C60.965 42.764 61.037 43.088 61.181 43.248C61.333 43.408 61.541 43.488 61.805 43.488ZM69.2215 39.36C69.8455 39.36 70.3255 39.548 70.6615 39.924C71.0055 40.3 71.1775 40.964 71.1775 41.916C71.1775 42.612 71.1055 43.208 70.9615 43.704C70.8255 44.192 70.6695 44.504 70.4935 44.64C70.2855 44.808 69.9775 44.932 69.5695 45.012C69.1615 45.092 68.6975 45.132 68.1775 45.132C67.7775 45.132 67.3295 45.1 66.8335 45.036C66.3375 44.98 65.8935 44.888 65.5015 44.76V37.8L67.5775 37.716V38.844C67.5775 38.908 67.5735 39.056 67.5655 39.288C67.5655 39.52 67.5575 39.716 67.5415 39.876C67.5255 40.028 67.5015 40.144 67.4695 40.224L67.5415 40.308C67.7255 40.028 67.9575 39.8 68.2375 39.624C68.5175 39.448 68.8455 39.36 69.2215 39.36ZM68.8855 43.692C68.9335 43.612 68.9735 43.424 69.0055 43.128C69.0455 42.832 69.0655 42.548 69.0655 42.276C69.0655 41.956 69.0495 41.704 69.0175 41.52C68.9935 41.336 68.9255 41.192 68.8135 41.088C68.7095 40.976 68.5455 40.92 68.3215 40.92C68.1215 40.92 67.8655 40.948 67.5535 41.004V43.716C67.8495 43.764 68.1575 43.788 68.4775 43.788C68.7095 43.788 68.8455 43.756 68.8855 43.692ZM77.8385 45H75.6065L74.4665 42.756C74.3545 42.524 74.2065 42.376 74.0225 42.312V45H71.9705V37.8L74.0225 37.716V41.808C74.2145 41.728 74.3785 41.564 74.5145 41.316L75.5345 39.48L77.7785 39.468L76.6145 41.34C76.4305 41.636 76.2305 41.872 76.0145 42.048C76.1985 42.248 76.4065 42.552 76.6385 42.96L77.8385 45Z" fill="#A8DADC"/>
<rect x="8.5" y="145" width="30" height="66.1663" rx="15" fill="#36617C"/>
<path d="M14.0926 132.716V140H12.4006L12.2326 139.076C12.0726 139.388 11.8366 139.636 11.5246 139.82C11.2126 140.004 10.8606 140.096 10.4686 140.096C9.84458 140.096 9.34458 139.872 8.96858 139.424C8.60058 138.976 8.41658 138.304 8.41658 137.408C8.41658 136.728 8.49658 136.168 8.65658 135.728C8.81658 135.288 9.00458 134.972 9.22058 134.78C9.35658 134.66 9.63258 134.56 10.0486 134.48C10.4726 134.4 10.8486 134.36 11.1766 134.36C11.4646 134.36 11.7606 134.388 12.0646 134.444C12.0406 134.06 12.0286 133.848 12.0286 133.808V132.8L14.0926 132.716ZM11.3686 138.488C11.5846 138.488 11.8086 138.452 12.0406 138.38V135.776C11.8086 135.744 11.5526 135.728 11.2726 135.728C11.0326 135.728 10.8806 135.748 10.8166 135.788C10.7286 135.852 10.6566 136.036 10.6006 136.34C10.5526 136.636 10.5286 136.948 10.5286 137.276C10.5286 137.764 10.6006 138.088 10.7446 138.248C10.8966 138.408 11.1046 138.488 11.3686 138.488ZM18.4251 138.56C18.6251 138.56 18.9971 138.54 19.5411 138.5C19.6131 138.5 19.7451 138.492 19.9371 138.476L20.1171 139.712C19.5011 140 18.7011 140.144 17.7171 140.144C16.7971 140.144 16.0891 139.912 15.5931 139.448C15.1051 138.984 14.8611 138.284 14.8611 137.348C14.8611 136.868 14.9211 136.404 15.0411 135.956C15.1691 135.508 15.3131 135.196 15.4731 135.02C15.6411 134.844 15.9531 134.692 16.4091 134.564C16.8651 134.436 17.3171 134.372 17.7651 134.372C18.4851 134.372 19.0251 134.5 19.3851 134.756C19.7451 135.012 19.9811 135.368 20.0931 135.824C20.2051 136.272 20.2611 136.876 20.2611 137.636C19.7171 137.668 19.1851 137.684 18.6651 137.684H16.9611C16.9611 137.94 17.0131 138.132 17.1171 138.26C17.2291 138.388 17.3851 138.472 17.5851 138.512C17.7851 138.544 18.0651 138.56 18.4251 138.56ZM17.0811 135.8C17.0331 135.824 16.9971 135.928 16.9731 136.112C16.9491 136.296 16.9331 136.504 16.9251 136.736H17.5491C17.9251 136.736 18.1971 136.732 18.3651 136.724C18.3651 136.34 18.3091 136.068 18.1971 135.908C18.0931 135.748 17.9091 135.668 17.6451 135.668C17.4291 135.668 17.2411 135.712 17.0811 135.8ZM24.7753 134.36C25.3513 134.36 25.8073 134.552 26.1433 134.936C26.4873 135.312 26.6593 135.972 26.6593 136.916C26.6593 137.62 26.5913 138.196 26.4553 138.644C26.3193 139.084 26.1633 139.376 25.9873 139.52C25.8113 139.664 25.5033 139.78 25.0633 139.868C24.6313 139.956 24.1833 140 23.7193 140C23.5833 140 23.3553 139.992 23.0353 139.976V141.68L20.9833 141.764V134.48H22.6633L22.8673 135.332C23.0753 135.036 23.3393 134.8 23.6593 134.624C23.9873 134.448 24.3593 134.36 24.7753 134.36ZM24.2953 138.536C24.3833 138.472 24.4473 138.292 24.4873 137.996C24.5273 137.692 24.5473 137.404 24.5473 137.132C24.5473 136.684 24.4913 136.352 24.3793 136.136C24.2673 135.92 24.0433 135.812 23.7073 135.812C23.4673 135.812 23.2433 135.836 23.0353 135.884V138.548L23.3713 138.584C23.4753 138.592 23.6233 138.596 23.8153 138.596C24.0873 138.596 24.2473 138.576 24.2953 138.536ZM30.0078 137.732C30.0078 137.876 30.0118 138.028 30.0198 138.188C30.0278 138.34 30.0518 138.436 30.0918 138.476C30.1478 138.532 30.3438 138.56 30.6798 138.56L31.0878 138.548C31.1598 138.932 31.1958 139.376 31.1958 139.88C31.0438 139.936 30.8198 139.988 30.5238 140.036C30.2358 140.084 29.9598 140.108 29.6958 140.108C29.1438 140.108 28.7158 139.988 28.4118 139.748C28.1158 139.5 27.9678 139.12 27.9678 138.608V135.656H27.0678V134.564L27.9678 134.48L28.5078 133.16L30.0078 133.076V134.48H31.2798V135.656H30.0078V137.732ZM37.2335 134.828C37.3055 134.916 37.3575 135.136 37.3895 135.488C37.4295 135.84 37.4495 136.376 37.4495 137.096V140H35.3975V137.12C35.3975 137.088 35.3975 136.932 35.3975 136.652C35.3975 136.364 35.3775 136.188 35.3375 136.124C35.3135 136.092 35.2535 136.068 35.1575 136.052C35.0695 136.036 34.9655 136.028 34.8455 136.028L34.6415 136.04C34.4175 136.048 34.1855 136.1 33.9455 136.196V140H31.8935V132.8L33.9455 132.716V134.12C33.9455 134.696 33.9255 135.08 33.8855 135.272L33.8975 135.284C34.4415 134.668 35.0935 134.36 35.8535 134.36C36.1415 134.36 36.4095 134.4 36.6575 134.48C36.9135 134.56 37.1055 134.676 37.2335 134.828Z" fill="#A8DADC"/>
<path d="M61.0076 287.156C60.0476 287.156 59.3276 286.932 58.8476 286.484C58.3756 286.028 58.1396 285.312 58.1396 284.336C58.1396 283.8 58.1876 283.332 58.2836 282.932C58.3876 282.524 58.5116 282.24 58.6556 282.08C58.8396 281.872 59.1756 281.7 59.6636 281.564C60.1596 281.428 60.6236 281.36 61.0556 281.36C62.0876 281.36 62.8236 281.58 63.2636 282.02C63.7036 282.46 63.9236 283.164 63.9236 284.132C63.9236 285.172 63.6876 285.936 63.2156 286.424C62.7436 286.912 62.0076 287.156 61.0076 287.156ZM61.0436 285.752C61.3556 285.752 61.5596 285.644 61.6556 285.428C61.7516 285.204 61.7996 284.812 61.7996 284.252C61.7996 283.86 61.7796 283.56 61.7396 283.352C61.6996 283.136 61.6236 282.98 61.5116 282.884C61.4076 282.78 61.2436 282.728 61.0196 282.728C60.6996 282.728 60.5156 282.756 60.4676 282.812C60.4036 282.868 60.3516 283.044 60.3116 283.34C60.2716 283.636 60.2516 283.944 60.2516 284.264C60.2516 284.808 60.3036 285.192 60.4076 285.416C60.5196 285.64 60.7316 285.752 61.0436 285.752ZM70.2268 281.48V287H68.5588L68.3308 286.076C67.7548 286.772 67.0668 287.12 66.2668 287.12C65.9788 287.12 65.7068 287.08 65.4508 287C65.2028 286.92 65.0148 286.804 64.8868 286.652C64.8148 286.564 64.7588 286.344 64.7188 285.992C64.6868 285.64 64.6708 285.104 64.6708 284.384V281.48H66.7228V284.36C66.7228 284.52 66.7268 284.708 66.7348 284.924C66.7428 285.14 66.7668 285.276 66.8068 285.332C66.8628 285.412 67.0228 285.452 67.2868 285.452L67.4788 285.44C67.7028 285.432 67.9348 285.38 68.1748 285.284V281.48H70.2268ZM73.7548 284.732C73.7548 284.876 73.7588 285.028 73.7668 285.188C73.7748 285.34 73.7988 285.436 73.8388 285.476C73.8948 285.532 74.0908 285.56 74.4268 285.56L74.8348 285.548C74.9068 285.932 74.9428 286.376 74.9428 286.88C74.7908 286.936 74.5668 286.988 74.2708 287.036C73.9828 287.084 73.7068 287.108 73.4428 287.108C72.8908 287.108 72.4628 286.988 72.1588 286.748C71.8628 286.5 71.7148 286.12 71.7148 285.608V282.656H70.8148V281.564L71.7148 281.48L72.2548 280.16L73.7548 280.076V281.48H75.0268V282.656H73.7548V284.732Z" fill="#A8DADC"/>
<path d="M20.2553 280.796C19.9833 280.796 19.7473 280.704 19.5473 280.52C19.3553 280.336 19.2593 280.116 19.2593 279.86C19.2593 279.604 19.3553 279.384 19.5473 279.2C19.7473 279.016 19.9833 278.924 20.2553 278.924C20.5273 278.924 20.7593 279.016 20.9513 279.2C21.1433 279.384 21.2393 279.604 21.2393 279.86C21.2393 280.116 21.1433 280.336 20.9513 280.52C20.7593 280.704 20.5273 280.796 20.2553 280.796ZM19.2233 281.48H21.2753V287H19.2233V281.48ZM27.6328 281.828C27.7048 281.916 27.7568 282.136 27.7888 282.488C27.8288 282.84 27.8488 283.376 27.8488 284.096V287H25.7968V284.12V283.628C25.7968 283.372 25.7768 283.212 25.7368 283.148C25.6728 283.068 25.5248 283.028 25.2928 283.028C25.1808 283.028 25.0968 283.032 25.0408 283.04C24.8168 283.048 24.5848 283.1 24.3448 283.196V287H22.2928V281.48H23.9608L24.1888 282.404C24.7648 281.708 25.4528 281.36 26.2528 281.36C26.5408 281.36 26.8088 281.4 27.0568 281.48C27.3128 281.56 27.5048 281.676 27.6328 281.828Z" fill="#A8DADC"/>
</svg>
