<svg width="120" height="380" viewBox="0 0 120 380" fill="none" xmlns="http://www.w3.org/2000/svg">
<rect width="120" height="380" fill="#457B9D"/>
<g opacity="0.3">
<path fill-rule="evenodd" clip-rule="evenodd" d="M53.958 375.599C53.803 375.747 53.659 375.851 53.526 375.909C53.393 375.968 53.251 375.998 53.1 375.998C52.948 375.998 52.806 375.97 52.673 375.914C52.54 375.858 52.424 375.781 52.325 375.682C52.109 375.466 52 375.209 52 374.912V369.385C52 369.082 52.078 368.847 52.232 368.68C52.498 368.408 52.75 368.272 52.988 368.272C53.226 368.272 53.404 368.296 53.522 368.346C53.639 368.395 53.738 368.457 53.818 368.531C53.924 368.624 54.002 368.723 54.055 368.828C54.108 368.933 54.151 369.011 54.185 369.06C54.219 369.11 54.275 369.134 54.352 369.134C54.429 369.134 54.496 369.11 54.551 369.06L54.709 368.902C55.16 368.482 55.612 368.272 56.063 368.272C56.861 368.272 57.519 368.599 58.039 369.255C58.088 369.323 58.15 369.357 58.224 369.357C58.354 369.357 58.486 369.256 58.619 369.055C58.752 368.854 58.966 368.674 59.263 368.513C59.56 368.352 59.906 368.272 60.302 368.272C60.698 368.272 61.058 368.344 61.383 368.49C61.707 368.635 61.99 368.834 62.231 369.088C62.738 369.62 62.992 370.263 62.992 371.017V374.912C62.992 375.382 62.769 375.713 62.324 375.905C62.188 375.967 62.044 375.998 61.893 375.998C61.741 375.998 61.599 375.97 61.466 375.914C61.333 375.858 61.217 375.781 61.118 375.682C60.908 375.46 60.803 375.203 60.803 374.912V371.045C60.803 370.736 60.726 370.504 60.571 370.349C60.299 370.077 60.049 369.941 59.82 369.941C59.591 369.941 59.412 369.971 59.282 370.029C59.152 370.088 59.034 370.17 58.929 370.275C58.713 370.492 58.605 370.742 58.605 371.026V374.912C58.605 375.382 58.385 375.713 57.946 375.905C57.81 375.967 57.666 375.998 57.515 375.998C57.363 375.998 57.22 375.97 57.083 375.914C56.947 375.858 56.83 375.781 56.731 375.682C56.515 375.466 56.406 375.209 56.406 374.912V371.045C56.406 370.736 56.329 370.504 56.174 370.349C55.902 370.077 55.618 369.941 55.321 369.941C54.826 369.941 54.483 370.133 54.292 370.516C54.23 370.64 54.199 370.779 54.199 370.934V374.912C54.199 375.215 54.118 375.444 53.958 375.599ZM65.219 369.387C65.219 369.084 65.296 368.849 65.451 368.682C65.716 368.41 66.01 368.274 66.332 368.274C66.641 368.274 66.87 368.355 67.018 368.515C67.29 368.794 67.426 369.084 67.426 369.387V374.915C67.426 375.212 67.349 375.437 67.194 375.592C66.922 375.864 66.672 376 66.443 376C66.214 376 66.032 375.971 65.896 375.912C65.76 375.853 65.642 375.777 65.543 375.685C65.327 375.474 65.219 375.218 65.219 374.915V369.387ZM66.327 365.9C66.065 365.9 65.852 365.687 65.852 365.425C65.852 365.162 66.065 364.95 66.327 364.95C66.589 364.95 66.802 365.162 66.802 365.425C66.802 365.687 66.589 365.9 66.327 365.9ZM66.327 364C66.714 364 67.048 364.142 67.329 364.425C67.611 364.709 67.752 364.996 67.752 365.287C67.752 365.577 67.713 365.807 67.635 365.978C67.558 366.148 67.456 366.297 67.329 366.424C67.048 366.708 66.714 366.849 66.327 366.849C65.94 366.849 65.606 366.708 65.324 366.424C65.043 366.141 64.902 365.857 64.902 365.574C64.902 365.092 65.043 364.709 65.324 364.425C65.606 364.142 65.94 364 66.327 364Z" fill="#1D3557"/>
</g>
<path d="M19.2652 23.3834L17.5932 21.9314C17.2852 21.9827 16.9955 22.0084 16.7242 22.0084C15.6315 22.0084 14.8102 21.7517 14.2602 21.2384C13.7175 20.7177 13.4462 19.8854 13.4462 18.7414C13.4462 17.6194 13.7469 16.8017 14.3482 16.2884C14.9495 15.775 15.7452 15.5184 16.7352 15.5184C18.8179 15.5184 19.8592 16.556 19.8592 18.6314C19.8592 19.768 19.5732 20.626 19.0012 21.2054L20.2222 22.0524L19.2652 23.3834ZM16.6802 20.7104C16.8855 20.7104 17.0579 20.6774 17.1972 20.6114C17.3365 20.538 17.4465 20.4134 17.5272 20.2374C17.6812 19.9367 17.7582 19.4454 17.7582 18.7634C17.7582 18.096 17.6812 17.612 17.5272 17.3114C17.3732 17.0034 17.0909 16.842 16.6802 16.8274C16.5262 16.8274 16.3649 16.8457 16.1962 16.8824C16.0349 16.9117 15.9322 16.9557 15.8882 17.0144C15.8002 17.117 15.7305 17.337 15.6792 17.6744C15.6352 18.0044 15.6132 18.3674 15.6132 18.7634C15.6132 19.3794 15.6719 19.8304 15.7892 20.1164C15.8699 20.329 15.9835 20.483 16.1302 20.5784C16.2769 20.6664 16.4602 20.7104 16.6802 20.7104ZM27.2013 15.5954V19.1044C27.2013 19.8304 27.1206 20.3987 26.9593 20.8094C26.8053 21.2127 26.5119 21.5097 26.0793 21.7004C25.6466 21.891 25.0159 21.9864 24.1873 21.9864C23.5786 21.9864 23.0653 21.924 22.6473 21.7994C22.2293 21.6674 21.8956 21.4217 21.6463 21.0624C21.4043 20.703 21.2833 20.197 21.2833 19.5444V15.5954H23.2633V19.1264C23.2633 19.515 23.2816 19.812 23.3183 20.0174C23.3623 20.2154 23.4576 20.3694 23.6043 20.4794C23.7509 20.582 23.9746 20.6334 24.2753 20.6334C24.4586 20.6334 24.6309 20.615 24.7923 20.5784C24.9536 20.5417 25.0636 20.4867 25.1223 20.4134C25.1883 20.3254 25.2213 20.0064 25.2213 19.4564V15.5954H27.2013ZM32.3181 20.4904H30.4921L30.1621 21.8654H28.1381L30.1621 15.5954H32.7471L34.6831 21.8654H32.6481L32.3181 20.4904ZM31.3941 16.9484L30.7451 19.2694H32.0541L31.4381 16.9484H31.3941ZM37.9801 15.5954C38.8381 15.5954 39.5384 15.676 40.0811 15.8374C40.6311 15.9987 41.0564 16.303 41.3571 16.7504C41.6651 17.1977 41.8191 17.8394 41.8191 18.6754C41.8191 19.57 41.6577 20.252 41.3351 20.7214C41.0124 21.1834 40.5797 21.4914 40.0371 21.6454C39.4944 21.792 38.8087 21.8654 37.9801 21.8654H35.7801V15.5954H37.9801ZM39.4541 20.3694C39.5421 20.2814 39.6044 20.054 39.6411 19.6874C39.6777 19.3207 39.6961 18.9834 39.6961 18.6754C39.6961 18.2867 39.6667 17.9787 39.6081 17.7514C39.5567 17.5167 39.4614 17.3297 39.3221 17.1904C39.1021 16.9484 38.7244 16.8274 38.1891 16.8274C38.0937 16.8274 37.9507 16.8347 37.7601 16.8494V20.5014C37.8847 20.516 38.0791 20.5234 38.3431 20.5234C38.6144 20.5234 38.8527 20.5124 39.0581 20.4904C39.2707 20.461 39.4027 20.4207 39.4541 20.3694ZM43.072 18.2464H46.372V19.8194H43.072V18.2464ZM51.4779 15.5954H53.5679L51.8739 21.8654H49.0029L47.2979 15.5954H49.3989L50.4109 20.5014H50.4659L51.4779 15.5954ZM59.5883 21.6564C59.317 21.7737 59.0016 21.858 58.6423 21.9094C58.283 21.9607 57.9493 21.9864 57.6413 21.9864C56.644 21.9864 55.863 21.726 55.2983 21.2054C54.7336 20.6847 54.4513 19.8854 54.4513 18.8074C54.4513 17.7074 54.7483 16.886 55.3423 16.3434C55.9363 15.7934 56.7723 15.5184 57.8503 15.5184C58.3636 15.5184 58.899 15.588 59.4563 15.7274C59.4563 15.874 59.4416 16.094 59.4123 16.3874C59.383 16.6734 59.3536 16.875 59.3243 16.9924H58.6313C58.1253 16.9924 57.7256 17.0034 57.4323 17.0254C57.1463 17.04 56.974 17.073 56.9153 17.1244C56.8053 17.227 56.721 17.436 56.6623 17.7514C56.6036 18.0594 56.5743 18.3564 56.5743 18.6424C56.5743 19.141 56.6366 19.526 56.7613 19.7974C56.886 20.0614 57.0436 20.2374 57.2343 20.3254C57.4176 20.4134 57.722 20.4574 58.1473 20.4574C58.4846 20.4574 58.9246 20.428 59.4673 20.3694L59.5883 21.6564ZM64.4909 20.4904H62.6649L62.3349 21.8654H60.3109L62.3349 15.5954H64.9199L66.8559 21.8654H64.8209L64.4909 20.4904ZM63.5669 16.9484L62.9179 19.2694H64.2269L63.6109 16.9484H63.5669ZM71.1912 20.3694C70.8906 20.3694 70.6412 20.2704 70.4432 20.0724C70.2526 19.8744 70.1572 19.6067 70.1572 19.2694C70.1572 18.976 70.2562 18.7304 70.4542 18.5324C70.6596 18.327 70.9162 18.2244 71.2242 18.2244C71.5176 18.2244 71.7632 18.327 71.9612 18.5324C72.1592 18.7304 72.2582 18.976 72.2582 19.2694C72.2582 19.6067 72.1592 19.8744 71.9612 20.0724C71.7706 20.2704 71.5139 20.3694 71.1912 20.3694ZM84.1977 21.8654H82.3497L82.2067 18.4114C82.1847 17.7294 82.159 17.2124 82.1297 16.8604H82.0967C82.0087 17.139 81.906 17.5717 81.7887 18.1584L81.7337 18.4334L80.9747 21.8654H79.1267L78.4887 18.7744L78.3787 18.2244C78.2247 17.5424 78.1184 17.0877 78.0597 16.8604H78.0267C77.9974 17.227 77.9717 17.8247 77.9497 18.6534C77.9424 18.7047 77.9387 18.7854 77.9387 18.8954L77.8397 21.8654H75.9807L76.2447 15.5954H79.3907L79.9297 18.3014L80.0617 19.0274C80.1204 18.8 80.1754 18.547 80.2267 18.2684L80.7327 15.5954H83.9447L84.1977 21.8654ZM85.7294 15.5954H87.7094V21.8654H85.7294V15.5954ZM90.3959 18.6534L88.9219 15.5954H90.9459L91.9579 18.0594L93.0029 15.5954H94.9719L93.5199 18.6534L95.0709 21.8764H93.0469L91.9579 19.2144L90.8359 21.8764H88.8009L90.3959 18.6534ZM96.0983 15.5954H100.663V16.9154H98.0783V18.0594H100.256V19.2474H98.0783V20.5234H100.652V21.8654H96.0983V15.5954ZM107.762 21.8654H105.683L105.309 20.2814C105.294 20.2227 105.269 20.1237 105.232 19.9844C105.203 19.8377 105.166 19.7314 105.122 19.6654C105.078 19.592 105.016 19.5444 104.935 19.5224C104.73 19.5297 104.429 19.5334 104.033 19.5334V21.8654H102.053V15.6504C102.94 15.5844 103.769 15.5514 104.539 15.5514C105.236 15.5514 105.8 15.61 106.233 15.7274C106.666 15.8374 106.988 16.0317 107.201 16.3104C107.421 16.5817 107.531 16.9557 107.531 17.4324C107.531 17.8797 107.428 18.2317 107.223 18.4884C107.018 18.7377 106.688 18.888 106.233 18.9394V19.0054C106.49 19.0274 106.702 19.1117 106.871 19.2584C107.047 19.3977 107.164 19.5774 107.223 19.7974L107.762 21.8654ZM104.033 18.2904C104.099 18.2977 104.227 18.3014 104.418 18.3014C104.983 18.3014 105.313 18.2537 105.408 18.1584C105.496 18.0704 105.54 17.865 105.54 17.5424C105.54 17.2417 105.459 17.0364 105.298 16.9264C105.144 16.8164 104.887 16.7614 104.528 16.7614C104.447 16.7614 104.282 16.7687 104.033 16.7834V18.2904Z" fill="white"/>
<path d="M93.1211 356V352.65H93.1895L94.415 355.219H95.1963L96.417 352.65H96.4756V356H97.6572V350.668H96.3193L94.835 353.764H94.791L93.3066 350.668H91.9639V356H93.1211ZM101.067 356V350.668H99.7588V356H101.067ZM107.686 350.668H106.226L105.176 352.484H105.117L104.067 350.668H102.534L104.229 353.314L102.529 356H103.936L105.029 354.228H105.088L106.182 356H107.666L105.923 353.334L107.686 350.668Z" fill="white"/>
<path d="M6 189C6 183.477 10.4772 179 16 179H26C31.5228 179 36 183.477 36 189V224C36 232.284 29.2843 239 21 239C12.7157 239 6 232.284 6 224V189Z" fill="#36617C"/>
<path d="M32 189C32 183.477 36.4772 179 42 179H52C57.5228 179 62 183.477 62 189V224C62 232.284 55.2843 239 47 239C38.7157 239 32 232.284 32 224V189Z" fill="#36617C"/>
<path d="M84 189C84 183.477 88.4772 179 94 179H104C109.523 179 114 183.477 114 189V224C114 232.284 107.284 239 99 239C90.7157 239 84 232.284 84 224V189Z" fill="#36617C"/>
<path d="M58 189C58 183.477 62.4772 179 68 179H78C83.5228 179 88 183.477 88 189V224C88 232.284 81.2843 239 73 239C64.7157 239 58 232.284 58 224V189Z" fill="#36617C"/>
<path d="M19.6865 45L20.0723 43.75H21.8545L22.2305 45H23.6172L21.791 39.668H20.209L18.3779 45H19.6865ZM21 40.8008L21.6104 42.8418H20.3164L20.9365 40.8008H21Z" fill="white"/>
<path d="M44.4248 45H46.9199C48.0479 45 48.8828 44.4434 48.8828 43.4863C48.8828 42.666 48.2627 42.2461 47.6084 42.1973V42.1436C48.1748 42.0361 48.6094 41.6406 48.6094 40.9814C48.6094 40.166 47.9258 39.668 46.8906 39.668H44.4248V45ZM45.7188 40.5713H46.5635C47.0615 40.5713 47.3301 40.8154 47.3301 41.1914C47.3301 41.582 47.0566 41.8359 46.3926 41.8359H45.7188V40.5713ZM45.7188 42.666H46.6318C47.2471 42.666 47.5547 42.9492 47.5547 43.3887C47.5547 43.8232 47.2666 44.1016 46.4756 44.1016H45.7188V42.666Z" fill="white"/>
<path d="M14 253H51" stroke="white" stroke-width="0.5"/>
<path d="M69 253H106" stroke="white" stroke-width="0.5"/>
<path d="M57.2939 256V250.668H55.9854V256H57.2939ZM60.6064 256V252.753H60.6553L62.9697 256H64.0098V250.668H62.7842V253.886H62.7354L60.4307 250.668H59.3857V256H60.6064Z" fill="white"/>
<path d="M14 171H38" stroke="white" stroke-width="0.5"/>
<path d="M82 171H106" stroke="white" stroke-width="0.5"/>
<path d="M46.6807 172.96H44.3906V168.668H43.082V174H46.6807V172.96ZM49.6465 174V168.668H48.3379V174H49.6465ZM52.959 174V170.753H53.0078L55.3223 174H56.3623V168.668H55.1367V171.886H55.0879L52.7832 168.668H51.7383V174H52.959ZM58.918 174.728L60.8711 167.965H59.7285L57.7754 174.728H58.918ZM66.0293 173.004H63.5732V171.778H65.8779V170.851H63.5732V169.664H66.0293V168.668H62.2793V174H66.0293V173.004ZM72.4912 168.668H71.0312L69.9814 170.484H69.9229L68.873 168.668H67.3398L69.0342 171.314L67.335 174H68.7412L69.835 172.228H69.8936L70.9873 174H72.4717L70.7285 171.334L72.4912 168.668ZM78.3037 170.475C78.3037 169.483 77.6152 168.668 76.3457 168.668H73.9922V174H75.2959V172.33H76.3359C77.6055 172.33 78.3037 171.476 78.3037 170.475ZM76.9756 170.504C76.9756 171.041 76.6631 171.383 76.1211 171.383H75.291V169.63H76.0723C76.6436 169.63 76.9756 169.947 76.9756 170.504Z" fill="white"/>
<path d="M14 311H48" stroke="white" stroke-width="0.5"/>
<path d="M72 311H106" stroke="white" stroke-width="0.5"/>
<path d="M54.4336 314.098C56.0205 314.098 56.9238 313.126 56.9238 311.637V311.036C56.9238 309.542 56.0156 308.57 54.4287 308.57C52.8467 308.57 51.9385 309.537 51.9385 311.036V311.637C51.9385 313.126 52.8516 314.098 54.4336 314.098ZM54.4336 313.077C53.7061 313.077 53.2715 312.535 53.2715 311.642V311.021C53.2715 310.128 53.7061 309.591 54.4336 309.591C55.1562 309.591 55.5908 310.128 55.5908 311.021V311.642C55.5908 312.535 55.1562 313.077 54.4336 313.077ZM61.0713 313.048C60.4609 313.048 60.0361 312.687 60.0361 311.998V308.668H58.7227V312.145C58.7227 313.336 59.626 314.098 61.0713 314.098C62.5166 314.098 63.4199 313.331 63.4199 312.145V308.668H62.1113V311.998C62.1113 312.682 61.6816 313.048 61.0713 313.048ZM67.792 314V309.688H69.3398V308.668H64.9355V309.688H66.4834V314H67.792Z" fill="white"/>
<path d="M71.4893 42.041C71.4893 41.1279 71.8799 40.6055 72.583 40.6055C73.2031 40.6055 73.6133 41.0254 73.6133 41.6309H74.8682V41.4893C74.8682 40.3223 73.8916 39.5703 72.5732 39.5703C71.0352 39.5703 70.1562 40.5371 70.1562 42.041V42.6416C70.1562 44.1357 71.0352 45.0977 72.5732 45.0977C73.877 45.0977 74.8682 44.3701 74.8682 43.2227V43.0762H73.6133C73.6133 43.6523 73.2031 44.0674 72.5781 44.0674C71.8799 44.0674 71.4893 43.5449 71.4893 42.6465V42.041Z" fill="white"/>
<path d="M102 42.3145C102 40.6348 101.175 39.668 99.4561 39.668H97.2783V45H99.4561C101.155 45 102 44.0186 102 42.3145ZM100.662 42.3389C100.662 43.6475 100.081 44.0039 99.2412 44.0039H98.5869V40.6641H99.2412C100.296 40.6641 100.662 41.3525 100.662 42.3389Z" fill="white"/>
<path d="M32.9132 294.314V290.156L37.0712 292.242L32.9132 294.314Z" fill="white"/>
<path d="M57.9132 294.314V290.156L62.0712 292.242L57.9132 294.314Z" fill="white"/>
<path d="M84.4132 294.314V290.156L88.5712 292.242L84.4132 294.314Z" fill="white"/>
</svg>
