<svg width="120" height="380" viewBox="0 0 120 380" fill="none" xmlns="http://www.w3.org/2000/svg">
<rect width="120" height="380" fill="#457B9D"/>
<g opacity="0.5">
<path fill-rule="evenodd" clip-rule="evenodd" d="M53.958 375.599C53.803 375.747 53.659 375.851 53.526 375.909C53.393 375.968 53.251 375.998 53.1 375.998C52.948 375.998 52.806 375.97 52.673 375.914C52.54 375.858 52.424 375.781 52.325 375.682C52.109 375.466 52 375.209 52 374.912V369.385C52 369.082 52.078 368.847 52.232 368.68C52.498 368.408 52.75 368.272 52.988 368.272C53.226 368.272 53.404 368.296 53.522 368.346C53.639 368.395 53.738 368.457 53.818 368.531C53.924 368.624 54.002 368.723 54.055 368.828C54.108 368.933 54.151 369.011 54.185 369.06C54.219 369.11 54.275 369.134 54.352 369.134C54.429 369.134 54.496 369.11 54.551 369.06L54.709 368.902C55.16 368.482 55.612 368.272 56.063 368.272C56.861 368.272 57.519 368.599 58.039 369.255C58.088 369.323 58.15 369.357 58.224 369.357C58.354 369.357 58.486 369.256 58.619 369.055C58.752 368.854 58.966 368.674 59.263 368.513C59.56 368.352 59.906 368.272 60.302 368.272C60.698 368.272 61.058 368.344 61.383 368.49C61.707 368.635 61.99 368.834 62.231 369.088C62.738 369.62 62.992 370.263 62.992 371.017V374.912C62.992 375.382 62.769 375.713 62.324 375.905C62.188 375.967 62.044 375.998 61.893 375.998C61.741 375.998 61.599 375.97 61.466 375.914C61.333 375.858 61.217 375.781 61.118 375.682C60.908 375.46 60.803 375.203 60.803 374.912V371.045C60.803 370.736 60.726 370.504 60.571 370.349C60.299 370.077 60.049 369.941 59.82 369.941C59.591 369.941 59.412 369.971 59.282 370.029C59.152 370.088 59.034 370.17 58.929 370.275C58.713 370.492 58.605 370.742 58.605 371.026V374.912C58.605 375.382 58.385 375.713 57.946 375.905C57.81 375.967 57.666 375.998 57.515 375.998C57.363 375.998 57.22 375.97 57.083 375.914C56.947 375.858 56.83 375.781 56.731 375.682C56.515 375.466 56.406 375.209 56.406 374.912V371.045C56.406 370.736 56.329 370.504 56.174 370.349C55.902 370.077 55.618 369.941 55.321 369.941C54.826 369.941 54.483 370.133 54.292 370.516C54.23 370.64 54.199 370.779 54.199 370.934V374.912C54.199 375.215 54.118 375.444 53.958 375.599ZM65.219 369.387C65.219 369.084 65.296 368.849 65.451 368.682C65.716 368.41 66.01 368.274 66.332 368.274C66.641 368.274 66.87 368.355 67.018 368.515C67.29 368.794 67.426 369.084 67.426 369.387V374.915C67.426 375.212 67.349 375.437 67.194 375.592C66.922 375.864 66.672 376 66.443 376C66.214 376 66.032 375.971 65.896 375.912C65.76 375.853 65.642 375.777 65.543 375.685C65.327 375.474 65.219 375.218 65.219 374.915V369.387ZM66.327 365.9C66.065 365.9 65.852 365.687 65.852 365.425C65.852 365.162 66.065 364.95 66.327 364.95C66.589 364.95 66.802 365.162 66.802 365.425C66.802 365.687 66.589 365.9 66.327 365.9ZM66.327 364C66.714 364 67.048 364.142 67.329 364.425C67.611 364.709 67.752 364.996 67.752 365.287C67.752 365.577 67.713 365.807 67.635 365.978C67.558 366.148 67.456 366.297 67.329 366.424C67.048 366.708 66.714 366.849 66.327 366.849C65.94 366.849 65.606 366.708 65.324 366.424C65.043 366.141 64.902 365.857 64.902 365.574C64.902 365.092 65.043 364.709 65.324 364.425C65.606 364.142 65.94 364 66.327 364Z" fill="#1D3557"/>
</g>
<path d="M18.8096 24.5214L16.9856 22.9374C16.6496 22.9934 16.3336 23.0214 16.0376 23.0214C14.8456 23.0214 13.9496 22.7414 13.3496 22.1814C12.7576 21.6134 12.4616 20.7054 12.4616 19.4574C12.4616 18.2334 12.7896 17.3414 13.4456 16.7814C14.1016 16.2214 14.9696 15.9414 16.0496 15.9414C18.3216 15.9414 19.4576 17.0734 19.4576 19.3374C19.4576 20.5774 19.1456 21.5134 18.5216 22.1454L19.8536 23.0694L18.8096 24.5214ZM15.9896 21.6054C16.2136 21.6054 16.4016 21.5694 16.5536 21.4974C16.7056 21.4174 16.8256 21.2814 16.9136 21.0894C17.0816 20.7614 17.1656 20.2254 17.1656 19.4814C17.1656 18.7534 17.0816 18.2254 16.9136 17.8974C16.7456 17.5614 16.4376 17.3854 15.9896 17.3694C15.8216 17.3694 15.6456 17.3894 15.4616 17.4294C15.2856 17.4614 15.1736 17.5094 15.1256 17.5734C15.0296 17.6854 14.9536 17.9254 14.8976 18.2934C14.8496 18.6534 14.8256 19.0494 14.8256 19.4814C14.8256 20.1534 14.8896 20.6454 15.0176 20.9574C15.1056 21.1894 15.2296 21.3574 15.3896 21.4614C15.5496 21.5574 15.7496 21.6054 15.9896 21.6054ZM26.8671 16.0254V19.8534C26.8671 20.6454 26.7791 21.2654 26.6031 21.7134C26.4351 22.1534 26.1151 22.4774 25.6431 22.6854C25.1711 22.8934 24.4831 22.9974 23.5791 22.9974C22.9151 22.9974 22.3551 22.9294 21.8991 22.7934C21.4431 22.6494 21.0791 22.3814 20.8071 21.9894C20.5431 21.5974 20.4111 21.0454 20.4111 20.3334V16.0254H22.5711V19.8774C22.5711 20.3014 22.5911 20.6254 22.6311 20.8494C22.6791 21.0654 22.7831 21.2334 22.9431 21.3534C23.1031 21.4654 23.3471 21.5214 23.6751 21.5214C23.8751 21.5214 24.0631 21.5014 24.2391 21.4614C24.4151 21.4214 24.5351 21.3614 24.5991 21.2814C24.6711 21.1854 24.7071 20.8374 24.7071 20.2374V16.0254H26.8671ZM31.8491 21.3654H29.8571L29.4971 22.8654H27.2891L29.4971 16.0254H32.3171L34.4291 22.8654H32.2091L31.8491 21.3654ZM30.8411 17.5014L30.1331 20.0334H31.5611L30.8891 17.5014H30.8411ZM37.4258 16.0254C38.3618 16.0254 39.1258 16.1134 39.7178 16.2894C40.3178 16.4654 40.7818 16.7974 41.1098 17.2854C41.4458 17.7734 41.6138 18.4734 41.6138 19.3854C41.6138 20.3614 41.4378 21.1054 41.0858 21.6174C40.7338 22.1214 40.2618 22.4574 39.6698 22.6254C39.0778 22.7854 38.3298 22.8654 37.4258 22.8654H35.0258V16.0254H37.4258ZM39.0338 21.2334C39.1298 21.1374 39.1978 20.8894 39.2378 20.4894C39.2778 20.0894 39.2978 19.7214 39.2978 19.3854C39.2978 18.9614 39.2658 18.6254 39.2018 18.3774C39.1458 18.1214 39.0418 17.9174 38.8898 17.7654C38.6498 17.5014 38.2378 17.3694 37.6538 17.3694C37.5498 17.3694 37.3938 17.3774 37.1858 17.3934V21.3774C37.3218 21.3934 37.5338 21.4014 37.8218 21.4014C38.1178 21.4014 38.3778 21.3894 38.6018 21.3654C38.8338 21.3334 38.9778 21.2894 39.0338 21.2334ZM42.3807 18.9174H45.9807V20.6334H42.3807V18.9174ZM50.9506 16.0254H53.2306L51.3826 22.8654H48.2506L46.3906 16.0254H48.6826L49.7866 21.3774H49.8466L50.9506 16.0254ZM59.1984 22.6374C58.9024 22.7654 58.5584 22.8574 58.1664 22.9134C57.7744 22.9694 57.4104 22.9974 57.0744 22.9974C55.9864 22.9974 55.1344 22.7134 54.5184 22.1454C53.9024 21.5774 53.5944 20.7054 53.5944 19.5294C53.5944 18.3294 53.9184 17.4334 54.5664 16.8414C55.2144 16.2414 56.1264 15.9414 57.3024 15.9414C57.8624 15.9414 58.4464 16.0174 59.0544 16.1694C59.0544 16.3294 59.0384 16.5694 59.0064 16.8894C58.9744 17.2014 58.9424 17.4214 58.9104 17.5494H58.1544C57.6024 17.5494 57.1664 17.5614 56.8464 17.5854C56.5344 17.6014 56.3464 17.6374 56.2824 17.6934C56.1624 17.8054 56.0704 18.0334 56.0064 18.3774C55.9424 18.7134 55.9104 19.0374 55.9104 19.3494C55.9104 19.8934 55.9784 20.3134 56.1144 20.6094C56.2504 20.8974 56.4224 21.0894 56.6304 21.1854C56.8304 21.2814 57.1624 21.3294 57.6264 21.3294C57.9944 21.3294 58.4744 21.2974 59.0664 21.2334L59.1984 22.6374ZM63.9467 21.3654H61.9547L61.5947 22.8654H59.3867L61.5947 16.0254H64.4147L66.5267 22.8654H64.3067L63.9467 21.3654ZM62.9387 17.5014L62.2307 20.0334H63.6587L62.9867 17.5014H62.9387ZM72.5161 14.8494H74.1121L70.0441 24.7374H68.4481L72.5161 14.8494ZM85.4591 22.8654H83.4431L83.2871 19.0974C83.2631 18.3534 83.2351 17.7894 83.2031 17.4054H83.1671C83.0711 17.7094 82.9591 18.1814 82.8311 18.8214L82.7711 19.1214L81.9431 22.8654H79.9271L79.2311 19.4934L79.1111 18.8934C78.9431 18.1494 78.8271 17.6534 78.7631 17.4054H78.7271C78.6951 17.8054 78.6671 18.4574 78.6431 19.3614C78.6351 19.4174 78.6311 19.5054 78.6311 19.6254L78.5231 22.8654H76.4951L76.7831 16.0254H80.2151L80.8031 18.9774L80.9471 19.7694C81.0111 19.5214 81.0711 19.2454 81.1271 18.9414L81.6791 16.0254H85.1831L85.4591 22.8654ZM86.53 16.0254H88.69V22.8654H86.53V16.0254ZM91.0207 19.3614L89.4127 16.0254H91.6207L92.7247 18.7134L93.8647 16.0254H96.0127L94.4287 19.3614L96.1207 22.8774H93.9127L92.7247 19.9734L91.5007 22.8774H89.2807L91.0207 19.3614ZM96.6416 16.0254H101.622V17.4654H98.8016V18.7134H101.178V20.0094H98.8016V21.4014H101.61V22.8654H96.6416V16.0254ZM108.766 22.8654H106.498L106.09 21.1374C106.074 21.0734 106.046 20.9654 106.006 20.8134C105.974 20.6534 105.934 20.5374 105.886 20.4654C105.838 20.3854 105.77 20.3334 105.682 20.3094C105.458 20.3174 105.13 20.3214 104.698 20.3214V22.8654H102.538V16.0854C103.506 16.0134 104.41 15.9774 105.25 15.9774C106.01 15.9774 106.626 16.0414 107.098 16.1694C107.57 16.2894 107.922 16.5014 108.154 16.8054C108.394 17.1014 108.514 17.5094 108.514 18.0294C108.514 18.5174 108.402 18.9014 108.178 19.1814C107.954 19.4534 107.594 19.6174 107.098 19.6734V19.7454C107.378 19.7694 107.61 19.8614 107.794 20.0214C107.986 20.1734 108.114 20.3694 108.178 20.6094L108.766 22.8654ZM104.698 18.9654C104.77 18.9734 104.91 18.9774 105.118 18.9774C105.734 18.9774 106.094 18.9254 106.198 18.8214C106.294 18.7254 106.342 18.5014 106.342 18.1494C106.342 17.8214 106.254 17.5974 106.078 17.4774C105.91 17.3574 105.63 17.2974 105.238 17.2974C105.15 17.2974 104.97 17.3054 104.698 17.3214V18.9654Z" fill="#A8DADC"/>
<path d="M98.5751 340.864C98.7031 341.056 98.7671 341.8 98.7671 343.096V346H96.7151V343.3V342.652C96.7151 342.356 96.6871 342.18 96.6311 342.124C96.5671 342.06 96.4311 342.028 96.2231 342.028L96.0791 342.04C95.8311 342.056 95.5951 342.112 95.3711 342.208C95.3791 342.376 95.3831 342.672 95.3831 343.096V346H93.3311V343.3V342.58C93.3311 342.332 93.3031 342.18 93.2471 342.124C93.1831 342.06 93.0471 342.028 92.8391 342.028L92.6951 342.04C92.4711 342.048 92.2391 342.1 91.9991 342.196V346H89.9471V340.48H91.6151L91.8311 341.38C92.0951 341.028 92.3991 340.772 92.7431 340.612C93.0871 340.444 93.4351 340.36 93.7871 340.36C94.0831 340.36 94.3631 340.404 94.6271 340.492C94.8991 340.58 95.0871 340.704 95.1911 340.864C95.2391 340.936 95.2791 341.068 95.3111 341.26C95.5671 340.948 95.8591 340.72 96.1871 340.576C96.5151 340.432 96.8431 340.36 97.1711 340.36C97.4671 340.36 97.7471 340.404 98.0111 340.492C98.2831 340.58 98.4711 340.704 98.5751 340.864ZM100.789 339.796C100.517 339.796 100.281 339.704 100.081 339.52C99.8885 339.336 99.7925 339.116 99.7925 338.86C99.7925 338.604 99.8885 338.384 100.081 338.2C100.281 338.016 100.517 337.924 100.789 337.924C101.061 337.924 101.293 338.016 101.485 338.2C101.677 338.384 101.773 338.604 101.773 338.86C101.773 339.116 101.677 339.336 101.485 339.52C101.293 339.704 101.061 339.796 100.789 339.796ZM99.7565 340.48H101.809V346H99.7565V340.48ZM103.834 343.18L102.454 340.48H104.446L105.442 342.616L106.45 340.48H108.43L107.062 343.18L108.562 346H106.558L105.442 343.72L104.326 346H102.322L103.834 343.18Z" fill="#A8DADC"/>
<path d="M6 196C6 190.477 10.4772 186 16 186H26C31.5228 186 36 190.477 36 196V231C36 239.284 29.2843 246 21 246C12.7157 246 6 239.284 6 231V196Z" fill="#36617C"/>
<path d="M32 196C32 190.477 36.4772 186 42 186H52C57.5228 186 62 190.477 62 196V231C62 239.284 55.2843 246 47 246C38.7157 246 32 239.284 32 231V196Z" fill="#36617C"/>
<path d="M84 196C84 190.477 88.4772 186 94 186H104C109.523 186 114 190.477 114 196V231C114 239.284 107.284 246 99 246C90.7157 246 84 239.284 84 231V196Z" fill="#36617C"/>
<path d="M58 196C58 190.477 62.4772 186 68 186H78C83.5228 186 88 190.477 88 196V231C88 239.284 81.2843 246 73 246C64.7157 246 58 239.284 58 231V196Z" fill="#36617C"/>
<path d="M21.9916 46H19.9996L19.6396 47.5H17.4316L19.6396 40.66H22.4596L24.5716 47.5H22.3516L21.9916 46ZM20.9836 42.136L20.2756 44.668H21.7036L21.0316 42.136H20.9836Z" fill="#A8DADC"/>
<path d="M48.6123 43.888C49.1563 43.952 49.5443 44.136 49.7763 44.44C50.0083 44.736 50.1243 45.096 50.1243 45.52C50.1243 45.784 50.0843 46.036 50.0043 46.276C49.9243 46.508 49.8283 46.708 49.7163 46.876C49.6043 47.036 49.5083 47.14 49.4283 47.188C49.1083 47.396 48.1323 47.5 46.5003 47.5H44.1723V40.66H46.9923C47.6323 40.66 48.1483 40.696 48.5403 40.768C48.9403 40.832 49.2643 40.984 49.5123 41.224C49.7603 41.456 49.8843 41.812 49.8843 42.292C49.8843 42.708 49.7803 43.044 49.5723 43.3C49.3723 43.556 49.0523 43.732 48.6123 43.828V43.888ZM47.6523 42.112C47.5723 42.032 47.4763 41.984 47.3643 41.968C47.2603 41.944 47.0923 41.932 46.8603 41.932C46.6283 41.932 46.4523 41.936 46.3323 41.944V43.408H46.4523C46.4923 43.408 46.6603 43.408 46.9563 43.408C47.2523 43.408 47.4483 43.388 47.5443 43.348C47.6163 43.316 47.6803 43.232 47.7363 43.096C47.8003 42.96 47.8323 42.812 47.8323 42.652C47.8323 42.412 47.7723 42.232 47.6523 42.112ZM47.8563 46.12C47.9123 46.072 47.9563 45.984 47.9883 45.856C48.0283 45.72 48.0483 45.584 48.0483 45.448C48.0483 45.28 48.0243 45.124 47.9763 44.98C47.9363 44.828 47.8803 44.72 47.8083 44.656C47.7363 44.584 47.6323 44.536 47.4963 44.512C47.3683 44.488 47.1483 44.476 46.8363 44.476C46.6363 44.476 46.4683 44.48 46.3323 44.488V46.228C46.7083 46.236 47.0443 46.232 47.3403 46.216C47.6363 46.192 47.8083 46.16 47.8563 46.12Z" fill="#A8DADC"/>
<path d="M14 254H51" stroke="#A8DADC" stroke-width="0.5"/>
<path d="M69 254H106" stroke="#A8DADC" stroke-width="0.5"/>
<path d="M56.7553 250.796C56.4833 250.796 56.2473 250.704 56.0473 250.52C55.8553 250.336 55.7593 250.116 55.7593 249.86C55.7593 249.604 55.8553 249.384 56.0473 249.2C56.2473 249.016 56.4833 248.924 56.7553 248.924C57.0273 248.924 57.2593 249.016 57.4513 249.2C57.6433 249.384 57.7393 249.604 57.7393 249.86C57.7393 250.116 57.6433 250.336 57.4513 250.52C57.2593 250.704 57.0273 250.796 56.7553 250.796ZM55.7233 251.48H57.7753V257H55.7233V251.48ZM64.1328 251.828C64.2048 251.916 64.2568 252.136 64.2888 252.488C64.3288 252.84 64.3488 253.376 64.3488 254.096V257H62.2968V254.12V253.628C62.2968 253.372 62.2768 253.212 62.2368 253.148C62.1728 253.068 62.0248 253.028 61.7928 253.028C61.6808 253.028 61.5968 253.032 61.5408 253.04C61.3168 253.048 61.0848 253.1 60.8448 253.196V257H58.7928V251.48H60.4608L60.6888 252.404C61.2648 251.708 61.9528 251.36 62.7528 251.36C63.0408 251.36 63.3088 251.4 63.5568 251.48C63.8128 251.56 64.0048 251.676 64.1328 251.828Z" fill="#A8DADC"/>
<path d="M14 179H38" stroke="#A8DADC" stroke-width="0.5"/>
<path d="M82 179H106" stroke="#A8DADC" stroke-width="0.5"/>
<path d="M41.9186 174.8L43.9706 174.716V182H41.9186V174.8ZM46.0561 175.796C45.7841 175.796 45.5481 175.704 45.3481 175.52C45.1561 175.336 45.0601 175.116 45.0601 174.86C45.0601 174.604 45.1561 174.384 45.3481 174.2C45.5481 174.016 45.7841 173.924 46.0561 173.924C46.3281 173.924 46.5601 174.016 46.7521 174.2C46.9441 174.384 47.0401 174.604 47.0401 174.86C47.0401 175.116 46.9441 175.336 46.7521 175.52C46.5601 175.704 46.3281 175.796 46.0561 175.796ZM45.0241 176.48H47.0761V182H45.0241V176.48ZM53.4336 176.828C53.5056 176.916 53.5576 177.136 53.5896 177.488C53.6296 177.84 53.6496 178.376 53.6496 179.096V182H51.5976V179.12V178.628C51.5976 178.372 51.5776 178.212 51.5376 178.148C51.4736 178.068 51.3256 178.028 51.0936 178.028C50.9816 178.028 50.8976 178.032 50.8416 178.04C50.6176 178.048 50.3856 178.1 50.1456 178.196V182H48.0936V176.48H49.7616L49.9896 177.404C50.5656 176.708 51.2536 176.36 52.0536 176.36C52.3416 176.36 52.6096 176.4 52.8576 176.48C53.1136 176.56 53.3056 176.676 53.4336 176.828ZM58.2935 173.984H59.8895L55.8215 183.872H54.2255L58.2935 173.984ZM63.8517 180.56C64.0517 180.56 64.4237 180.54 64.9677 180.5C65.0397 180.5 65.1717 180.492 65.3637 180.476L65.5437 181.712C64.9277 182 64.1277 182.144 63.1437 182.144C62.2237 182.144 61.5157 181.912 61.0197 181.448C60.5317 180.984 60.2877 180.284 60.2877 179.348C60.2877 178.868 60.3477 178.404 60.4677 177.956C60.5957 177.508 60.7397 177.196 60.8997 177.02C61.0677 176.844 61.3797 176.692 61.8357 176.564C62.2917 176.436 62.7437 176.372 63.1917 176.372C63.9117 176.372 64.4517 176.5 64.8117 176.756C65.1717 177.012 65.4077 177.368 65.5197 177.824C65.6317 178.272 65.6877 178.876 65.6877 179.636C65.1437 179.668 64.6117 179.684 64.0917 179.684H62.3877C62.3877 179.94 62.4397 180.132 62.5437 180.26C62.6557 180.388 62.8117 180.472 63.0117 180.512C63.2117 180.544 63.4917 180.56 63.8517 180.56ZM62.5077 177.8C62.4597 177.824 62.4237 177.928 62.3997 178.112C62.3757 178.296 62.3597 178.504 62.3517 178.736H62.9757C63.3517 178.736 63.6237 178.732 63.7917 178.724C63.7917 178.34 63.7357 178.068 63.6237 177.908C63.5197 177.748 63.3357 177.668 63.0717 177.668C62.8557 177.668 62.6677 177.712 62.5077 177.8ZM67.418 179.18L66.038 176.48H68.03L69.026 178.616L70.034 176.48H72.014L70.646 179.18L72.146 182H70.142L69.026 179.72L67.91 182H65.906L67.418 179.18ZM76.4129 176.36C76.9889 176.36 77.4449 176.552 77.7809 176.936C78.1249 177.312 78.2969 177.972 78.2969 178.916C78.2969 179.62 78.2289 180.196 78.0929 180.644C77.9569 181.084 77.8009 181.376 77.6249 181.52C77.4489 181.664 77.1409 181.78 76.7009 181.868C76.2689 181.956 75.8209 182 75.3569 182C75.2209 182 74.9929 181.992 74.6729 181.976V183.68L72.6209 183.764V176.48H74.3009L74.5049 177.332C74.7129 177.036 74.9769 176.8 75.2969 176.624C75.6249 176.448 75.9969 176.36 76.4129 176.36ZM75.9329 180.536C76.0209 180.472 76.0849 180.292 76.1249 179.996C76.1649 179.692 76.1849 179.404 76.1849 179.132C76.1849 178.684 76.1289 178.352 76.0169 178.136C75.9049 177.92 75.6809 177.812 75.3449 177.812C75.1049 177.812 74.8809 177.836 74.6729 177.884V180.548L75.0089 180.584C75.1129 180.592 75.2609 180.596 75.4529 180.596C75.7249 180.596 75.8849 180.576 75.9329 180.536Z" fill="#A8DADC"/>
<path d="M14 304H48" stroke="#A8DADC" stroke-width="0.5"/>
<path d="M72 304H106" stroke="#A8DADC" stroke-width="0.5"/>
<path d="M54.5076 307.156C53.5476 307.156 52.8276 306.932 52.3476 306.484C51.8756 306.028 51.6396 305.312 51.6396 304.336C51.6396 303.8 51.6876 303.332 51.7836 302.932C51.8876 302.524 52.0116 302.24 52.1556 302.08C52.3396 301.872 52.6756 301.7 53.1636 301.564C53.6596 301.428 54.1236 301.36 54.5556 301.36C55.5876 301.36 56.3236 301.58 56.7636 302.02C57.2036 302.46 57.4236 303.164 57.4236 304.132C57.4236 305.172 57.1876 305.936 56.7156 306.424C56.2436 306.912 55.5076 307.156 54.5076 307.156ZM54.5436 305.752C54.8556 305.752 55.0596 305.644 55.1556 305.428C55.2516 305.204 55.2996 304.812 55.2996 304.252C55.2996 303.86 55.2796 303.56 55.2396 303.352C55.1996 303.136 55.1236 302.98 55.0116 302.884C54.9076 302.78 54.7436 302.728 54.5196 302.728C54.1996 302.728 54.0156 302.756 53.9676 302.812C53.9036 302.868 53.8516 303.044 53.8116 303.34C53.7716 303.636 53.7516 303.944 53.7516 304.264C53.7516 304.808 53.8036 305.192 53.9076 305.416C54.0196 305.64 54.2316 305.752 54.5436 305.752ZM63.7268 301.48V307H62.0588L61.8308 306.076C61.2548 306.772 60.5668 307.12 59.7668 307.12C59.4788 307.12 59.2068 307.08 58.9508 307C58.7028 306.92 58.5148 306.804 58.3868 306.652C58.3148 306.564 58.2588 306.344 58.2188 305.992C58.1868 305.64 58.1708 305.104 58.1708 304.384V301.48H60.2228V304.36C60.2228 304.52 60.2268 304.708 60.2348 304.924C60.2428 305.14 60.2668 305.276 60.3068 305.332C60.3628 305.412 60.5228 305.452 60.7868 305.452L60.9788 305.44C61.2028 305.432 61.4348 305.38 61.6748 305.284V301.48H63.7268ZM67.2548 304.732C67.2548 304.876 67.2588 305.028 67.2668 305.188C67.2748 305.34 67.2988 305.436 67.3388 305.476C67.3948 305.532 67.5908 305.56 67.9268 305.56L68.3348 305.548C68.4068 305.932 68.4428 306.376 68.4428 306.88C68.2908 306.936 68.0668 306.988 67.7708 307.036C67.4828 307.084 67.2068 307.108 66.9428 307.108C66.3908 307.108 65.9628 306.988 65.6588 306.748C65.3628 306.5 65.2148 306.12 65.2148 305.608V302.656H64.3148V301.564L65.2148 301.48L65.7548 300.16L67.2548 300.076V301.48H68.5268V302.656H67.2548V304.732Z" fill="#A8DADC"/>
<path d="M75.8878 47.272C75.5918 47.4 75.2478 47.492 74.8558 47.548C74.4638 47.604 74.0998 47.632 73.7638 47.632C72.6758 47.632 71.8238 47.348 71.2078 46.78C70.5918 46.212 70.2838 45.34 70.2838 44.164C70.2838 42.964 70.6078 42.068 71.2558 41.476C71.9038 40.876 72.8158 40.576 73.9918 40.576C74.5518 40.576 75.1358 40.652 75.7438 40.804C75.7438 40.964 75.7278 41.204 75.6958 41.524C75.6638 41.836 75.6318 42.056 75.5998 42.184H74.8438C74.2918 42.184 73.8558 42.196 73.5358 42.22C73.2238 42.236 73.0358 42.272 72.9718 42.328C72.8518 42.44 72.7598 42.668 72.6958 43.012C72.6318 43.348 72.5998 43.672 72.5998 43.984C72.5998 44.528 72.6678 44.948 72.8038 45.244C72.9398 45.532 73.1118 45.724 73.3198 45.82C73.5198 45.916 73.8518 45.964 74.3158 45.964C74.6838 45.964 75.1638 45.932 75.7558 45.868L75.8878 47.272Z" fill="#A8DADC"/>
<path d="M98.2266 40.66C99.1626 40.66 99.9266 40.748 100.519 40.924C101.119 41.1 101.583 41.432 101.911 41.92C102.247 42.408 102.415 43.108 102.415 44.02C102.415 44.996 102.239 45.74 101.887 46.252C101.535 46.756 101.063 47.092 100.471 47.26C99.8786 47.42 99.1306 47.5 98.2266 47.5H95.8266V40.66H98.2266ZM99.8346 45.868C99.9306 45.772 99.9986 45.524 100.039 45.124C100.079 44.724 100.099 44.356 100.099 44.02C100.099 43.596 100.067 43.26 100.003 43.012C99.9466 42.756 99.8426 42.552 99.6906 42.4C99.4506 42.136 99.0386 42.004 98.4546 42.004C98.3506 42.004 98.1946 42.012 97.9866 42.028V46.012C98.1226 46.028 98.3346 46.036 98.6226 46.036C98.9186 46.036 99.1786 46.024 99.4026 46C99.6346 45.968 99.7786 45.924 99.8346 45.868Z" fill="#A8DADC"/>
<path d="M32.9132 293.314V289.156L37.0712 291.242L32.9132 293.314Z" fill="#A8DADC"/>
<path d="M57.9132 293.314V289.156L62.0712 291.242L57.9132 293.314Z" fill="#A8DADC"/>
<path d="M84.4132 293.314V289.156L88.5712 291.242L84.4132 293.314Z" fill="#A8DADC"/>
</svg>
