<svg width="60" height="380" viewBox="0 0 60 380" fill="none" xmlns="http://www.w3.org/2000/svg">
<rect width="60" height="380" fill="#457B9D"/>
<g opacity="0.5">
<path fill-rule="evenodd" clip-rule="evenodd" d="M23.958 375.599C23.803 375.747 23.659 375.851 23.526 375.909C23.393 375.968 23.251 375.998 23.1 375.998C22.948 375.998 22.806 375.97 22.673 375.914C22.54 375.858 22.424 375.781 22.325 375.682C22.109 375.466 22 375.209 22 374.912V369.385C22 369.082 22.078 368.847 22.232 368.68C22.498 368.408 22.75 368.272 22.988 368.272C23.226 368.272 23.404 368.296 23.522 368.346C23.639 368.395 23.738 368.457 23.818 368.531C23.924 368.624 24.002 368.723 24.055 368.828C24.108 368.933 24.151 369.011 24.185 369.06C24.219 369.11 24.275 369.134 24.352 369.134C24.429 369.134 24.496 369.11 24.551 369.06L24.709 368.902C25.16 368.482 25.612 368.272 26.063 368.272C26.861 368.272 27.519 368.599 28.039 369.255C28.088 369.323 28.15 369.357 28.224 369.357C28.354 369.357 28.486 369.256 28.619 369.055C28.752 368.854 28.966 368.674 29.263 368.513C29.56 368.352 29.906 368.272 30.302 368.272C30.698 368.272 31.058 368.344 31.383 368.49C31.707 368.635 31.99 368.834 32.231 369.088C32.738 369.62 32.992 370.263 32.992 371.017V374.912C32.992 375.382 32.769 375.713 32.324 375.905C32.188 375.967 32.044 375.998 31.893 375.998C31.741 375.998 31.599 375.97 31.466 375.914C31.333 375.858 31.217 375.781 31.118 375.682C30.908 375.46 30.803 375.203 30.803 374.912V371.045C30.803 370.736 30.726 370.504 30.571 370.349C30.299 370.077 30.049 369.941 29.82 369.941C29.591 369.941 29.412 369.971 29.282 370.029C29.152 370.088 29.034 370.17 28.929 370.275C28.713 370.492 28.605 370.742 28.605 371.026V374.912C28.605 375.382 28.385 375.713 27.946 375.905C27.81 375.967 27.666 375.998 27.515 375.998C27.363 375.998 27.22 375.97 27.083 375.914C26.947 375.858 26.83 375.781 26.731 375.682C26.515 375.466 26.406 375.209 26.406 374.912V371.045C26.406 370.736 26.329 370.504 26.174 370.349C25.902 370.077 25.618 369.941 25.321 369.941C24.826 369.941 24.483 370.133 24.292 370.516C24.23 370.64 24.199 370.779 24.199 370.934V374.912C24.199 375.215 24.118 375.444 23.958 375.599ZM35.219 369.387C35.219 369.084 35.296 368.849 35.451 368.682C35.716 368.41 36.01 368.274 36.332 368.274C36.641 368.274 36.87 368.355 37.018 368.515C37.29 368.794 37.426 369.084 37.426 369.387V374.915C37.426 375.212 37.349 375.437 37.194 375.592C36.922 375.864 36.672 376 36.443 376C36.214 376 36.032 375.971 35.896 375.912C35.76 375.853 35.642 375.777 35.543 375.685C35.327 375.474 35.219 375.218 35.219 374.915V369.387ZM36.327 365.9C36.065 365.9 35.852 365.687 35.852 365.425C35.852 365.162 36.065 364.95 36.327 364.95C36.589 364.95 36.802 365.162 36.802 365.425C36.802 365.687 36.589 365.9 36.327 365.9ZM36.327 364C36.714 364 37.048 364.142 37.329 364.425C37.611 364.709 37.752 364.996 37.752 365.287C37.752 365.577 37.713 365.807 37.635 365.978C37.558 366.148 37.456 366.297 37.329 366.424C37.048 366.708 36.714 366.849 36.327 366.849C35.94 366.849 35.606 366.708 35.324 366.424C35.043 366.141 34.902 365.857 34.902 365.574C34.902 365.092 35.043 364.709 35.324 364.425C35.606 364.142 35.94 364 36.327 364Z" fill="#1D3557"/>
</g>
<path d="M14.9257 22.8654H12.6577L12.2497 21.1374C12.2337 21.0734 12.2057 20.9654 12.1657 20.8134C12.1337 20.6534 12.0937 20.5374 12.0457 20.4654C11.9977 20.3854 11.9297 20.3334 11.8417 20.3094C11.6177 20.3174 11.2897 20.3214 10.8577 20.3214V22.8654H8.69766V16.0854C9.66566 16.0134 10.5697 15.9774 11.4097 15.9774C12.1697 15.9774 12.7857 16.0414 13.2577 16.1694C13.7297 16.2894 14.0817 16.5014 14.3137 16.8054C14.5537 17.1014 14.6737 17.5094 14.6737 18.0294C14.6737 18.5174 14.5617 18.9014 14.3377 19.1814C14.1137 19.4534 13.7537 19.6174 13.2577 19.6734V19.7454C13.5377 19.7694 13.7697 19.8614 13.9537 20.0214C14.1457 20.1734 14.2737 20.3694 14.3377 20.6094L14.9257 22.8654ZM10.8577 18.9654C10.9297 18.9734 11.0697 18.9774 11.2777 18.9774C11.8937 18.9774 12.2537 18.9254 12.3577 18.8214C12.4537 18.7254 12.5017 18.5014 12.5017 18.1494C12.5017 17.8214 12.4137 17.5974 12.2377 17.4774C12.0697 17.3574 11.7897 17.2974 11.3977 17.2974C11.3097 17.2974 11.1297 17.3054 10.8577 17.3214V18.9654ZM15.5986 16.0254H20.5786V17.4654H17.7586V18.7134H20.1346V20.0094H17.7586V21.4014H20.5666V22.8654H15.5986V16.0254ZM23.4625 17.8734C23.4625 18.0414 23.5465 18.1734 23.7145 18.2694C23.8905 18.3654 24.1625 18.4694 24.5305 18.5814C24.9705 18.7254 25.3305 18.8654 25.6105 19.0014C25.8985 19.1374 26.1465 19.3494 26.3545 19.6374C26.5705 19.9254 26.6785 20.3014 26.6785 20.7654C26.6785 22.2534 25.7105 22.9974 23.7745 22.9974C23.4545 22.9974 23.0625 22.9694 22.5985 22.9134C22.1425 22.8574 21.7265 22.7854 21.3505 22.6974C21.3665 22.5294 21.3985 22.2854 21.4465 21.9654C21.5025 21.6374 21.5545 21.3934 21.6025 21.2334C21.8825 21.2734 22.3025 21.3214 22.8625 21.3774C23.4305 21.4334 23.8585 21.4614 24.1465 21.4614C24.3145 21.4614 24.4145 21.4494 24.4465 21.4254C24.4945 21.3934 24.5305 21.3414 24.5545 21.2694C24.5865 21.1894 24.6025 21.1214 24.6025 21.0654C24.6025 20.9054 24.5265 20.7854 24.3745 20.7054C24.2225 20.6174 23.9625 20.5134 23.5945 20.3934C23.1545 20.2574 22.7905 20.1174 22.5025 19.9734C22.2145 19.8294 21.9625 19.6054 21.7465 19.3014C21.5305 18.9974 21.4225 18.5974 21.4225 18.1014C21.4225 17.7494 21.5025 17.4054 21.6625 17.0694C21.8225 16.7254 21.9865 16.4934 22.1545 16.3734C22.2825 16.2854 22.5465 16.2014 22.9465 16.1214C23.3465 16.0414 23.7225 16.0014 24.0745 16.0014C24.9705 16.0014 25.7025 16.0854 26.2705 16.2534C26.2625 16.4134 26.2345 16.6334 26.1865 16.9134C26.1465 17.1934 26.1025 17.4494 26.0545 17.6814L25.7785 17.6694C24.7385 17.5974 24.0745 17.5614 23.7865 17.5614C23.6665 17.5614 23.5985 17.5654 23.5825 17.5734C23.5505 17.5894 23.5225 17.6254 23.4985 17.6814C23.4745 17.7374 23.4625 17.8014 23.4625 17.8734ZM33.0343 22.6374C32.7383 22.7654 32.3943 22.8574 32.0023 22.9134C31.6103 22.9694 31.2463 22.9974 30.9103 22.9974C29.8223 22.9974 28.9703 22.7134 28.3543 22.1454C27.7383 21.5774 27.4303 20.7054 27.4303 19.5294C27.4303 18.3294 27.7543 17.4334 28.4023 16.8414C29.0503 16.2414 29.9623 15.9414 31.1383 15.9414C31.6983 15.9414 32.2823 16.0174 32.8903 16.1694C32.8903 16.3294 32.8743 16.5694 32.8423 16.8894C32.8103 17.2014 32.7783 17.4214 32.7463 17.5494H31.9903C31.4383 17.5494 31.0023 17.5614 30.6823 17.5854C30.3703 17.6014 30.1823 17.6374 30.1183 17.6934C29.9983 17.8054 29.9063 18.0334 29.8423 18.3774C29.7783 18.7134 29.7463 19.0374 29.7463 19.3494C29.7463 19.8934 29.8143 20.3134 29.9503 20.6094C30.0863 20.8974 30.2583 21.0894 30.4663 21.1854C30.6663 21.2814 30.9983 21.3294 31.4623 21.3294C31.8303 21.3294 32.3103 21.2974 32.9023 21.2334L33.0343 22.6374ZM37.7827 21.3654H35.7907L35.4307 22.8654H33.2227L35.4307 16.0254H38.2507L40.3627 22.8654H38.1427L37.7827 21.3654ZM36.7747 17.5014L36.0667 20.0334H37.4947L36.8227 17.5014H36.7747ZM40.9354 16.0254H43.0954V21.2814H45.8914V22.8654H40.9354V16.0254ZM46.6064 16.0254H51.5864V17.4654H48.7664V18.7134H51.1424V20.0094H48.7664V21.4014H51.5744V22.8654H46.6064V16.0254Z" fill="#A8DADC"/>
<path d="M24.5076 297.156C23.5476 297.156 22.8276 296.932 22.3476 296.484C21.8756 296.028 21.6396 295.312 21.6396 294.336C21.6396 293.8 21.6876 293.332 21.7836 292.932C21.8876 292.524 22.0116 292.24 22.1556 292.08C22.3396 291.872 22.6756 291.7 23.1636 291.564C23.6596 291.428 24.1236 291.36 24.5556 291.36C25.5876 291.36 26.3236 291.58 26.7636 292.02C27.2036 292.46 27.4236 293.164 27.4236 294.132C27.4236 295.172 27.1876 295.936 26.7156 296.424C26.2436 296.912 25.5076 297.156 24.5076 297.156ZM24.5436 295.752C24.8556 295.752 25.0596 295.644 25.1556 295.428C25.2516 295.204 25.2996 294.812 25.2996 294.252C25.2996 293.86 25.2796 293.56 25.2396 293.352C25.1996 293.136 25.1236 292.98 25.0116 292.884C24.9076 292.78 24.7436 292.728 24.5196 292.728C24.1996 292.728 24.0156 292.756 23.9676 292.812C23.9036 292.868 23.8516 293.044 23.8116 293.34C23.7716 293.636 23.7516 293.944 23.7516 294.264C23.7516 294.808 23.8036 295.192 23.9076 295.416C24.0196 295.64 24.2316 295.752 24.5436 295.752ZM33.7268 291.48V297H32.0588L31.8308 296.076C31.2548 296.772 30.5668 297.12 29.7668 297.12C29.4788 297.12 29.2068 297.08 28.9508 297C28.7028 296.92 28.5148 296.804 28.3868 296.652C28.3148 296.564 28.2588 296.344 28.2188 295.992C28.1868 295.64 28.1708 295.104 28.1708 294.384V291.48H30.2228V294.36C30.2228 294.52 30.2268 294.708 30.2348 294.924C30.2428 295.14 30.2668 295.276 30.3068 295.332C30.3628 295.412 30.5228 295.452 30.7868 295.452L30.9788 295.44C31.2028 295.432 31.4348 295.38 31.6748 295.284V291.48H33.7268ZM37.2548 294.732C37.2548 294.876 37.2588 295.028 37.2668 295.188C37.2748 295.34 37.2988 295.436 37.3388 295.476C37.3948 295.532 37.5908 295.56 37.9268 295.56L38.3348 295.548C38.4068 295.932 38.4428 296.376 38.4428 296.88C38.2908 296.936 38.0668 296.988 37.7708 297.036C37.4828 297.084 37.2068 297.108 36.9428 297.108C36.3908 297.108 35.9628 296.988 35.6588 296.748C35.3628 296.5 35.2148 296.12 35.2148 295.608V292.656H34.3148V291.564L35.2148 291.48L35.7548 290.16L37.2548 290.076V291.48H38.5268V292.656H37.2548V294.732Z" fill="#A8DADC"/>
<path d="M19.6087 96.807C20.1067 96.807 20.5207 96.873 20.8507 97.005C21.1807 97.131 21.4417 97.389 21.6337 97.779C21.8257 98.163 21.9217 98.724 21.9217 99.462C21.9217 100.17 21.8287 100.719 21.6427 101.109C21.4567 101.493 21.1957 101.757 20.8597 101.901C20.5297 102.045 20.1157 102.117 19.6177 102.117C18.8977 102.117 18.3457 101.928 17.9617 101.55C17.5777 101.166 17.3857 100.509 17.3857 99.579C17.3857 98.643 17.5717 97.947 17.9437 97.491C18.3157 97.035 18.8707 96.807 19.6087 96.807ZM19.6627 100.956C19.9627 100.956 20.1577 100.839 20.2477 100.605C20.3377 100.365 20.3827 99.99 20.3827 99.48C20.3827 98.958 20.3287 98.574 20.2207 98.328C20.1127 98.076 19.9087 97.95 19.6087 97.95C19.3987 97.95 19.2577 97.986 19.1857 98.058C19.1317 98.118 19.0837 98.298 19.0417 98.598C19.0057 98.898 18.9877 99.204 18.9877 99.516C18.9877 100.044 19.0387 100.416 19.1407 100.632C19.2487 100.848 19.4227 100.956 19.6627 100.956ZM25.6329 96.87H27.3429L25.9569 102H23.6079L22.2129 96.87H23.9319L24.7599 100.884H24.8049L25.6329 96.87ZM29.0052 99.039H31.7052V100.326H29.0052V99.039ZM35.7602 98.796C36.3722 98.796 36.8222 98.952 37.1102 99.264C37.3982 99.57 37.5422 99.966 37.5422 100.452C37.5422 101.556 36.7772 102.108 35.2472 102.108C34.7552 102.108 34.1942 102.06 33.5642 101.964L33.7622 100.974C34.2602 101.028 34.6322 101.055 34.8782 101.055C35.2442 101.055 35.5232 101.004 35.7152 100.902C35.9072 100.8 36.0032 100.626 36.0032 100.38C36.0032 100.296 35.9882 100.209 35.9582 100.119C35.9342 100.023 35.8952 99.963 35.8412 99.939C35.8172 99.927 35.7512 99.915 35.6432 99.903C35.5412 99.891 35.4182 99.885 35.2742 99.885C34.8302 99.885 34.3952 99.921 33.9692 99.993L33.9242 99.948L34.2932 96.87H37.3352V98.067L35.4092 98.058L35.3102 98.823C35.4722 98.805 35.6222 98.796 35.7602 98.796ZM41.1895 96.87H42.8995L41.5135 102H39.1645L37.7695 96.87H39.4885L40.3165 100.884H40.3615L41.1895 96.87Z" fill="#A8DADC"/>
<path d="M17.5037 136.807C18.0017 136.807 18.4157 136.873 18.7457 137.005C19.0757 137.131 19.3367 137.389 19.5287 137.779C19.7207 138.163 19.8167 138.724 19.8167 139.462C19.8167 140.17 19.7237 140.719 19.5377 141.109C19.3517 141.493 19.0907 141.757 18.7547 141.901C18.4247 142.045 18.0107 142.117 17.5127 142.117C16.7927 142.117 16.2407 141.928 15.8567 141.55C15.4727 141.166 15.2807 140.509 15.2807 139.579C15.2807 138.643 15.4667 137.947 15.8387 137.491C16.2107 137.035 16.7657 136.807 17.5037 136.807ZM17.5577 140.956C17.8577 140.956 18.0527 140.839 18.1427 140.605C18.2327 140.365 18.2777 139.99 18.2777 139.48C18.2777 138.958 18.2237 138.574 18.1157 138.328C18.0077 138.076 17.8037 137.95 17.5037 137.95C17.2937 137.95 17.1527 137.986 17.0807 138.058C17.0267 138.118 16.9787 138.298 16.9367 138.598C16.9007 138.898 16.8827 139.204 16.8827 139.516C16.8827 140.044 16.9337 140.416 17.0357 140.632C17.1437 140.848 17.3177 140.956 17.5577 140.956ZM23.5279 136.87H25.2379L23.8519 142H21.5029L20.1079 136.87H21.8269L22.6549 140.884H22.6999L23.5279 136.87ZM26.9002 139.039H29.6002V140.326H26.9002V139.039ZM34.1322 136.87V142H32.5572V138.166L31.4412 138.4L31.2702 137.455L32.8632 136.87H34.1322ZM37.2703 136.807C37.7683 136.807 38.1823 136.873 38.5123 137.005C38.8423 137.131 39.1033 137.389 39.2953 137.779C39.4873 138.163 39.5833 138.724 39.5833 139.462C39.5833 140.17 39.4903 140.719 39.3043 141.109C39.1183 141.493 38.8573 141.757 38.5213 141.901C38.1913 142.045 37.7773 142.117 37.2793 142.117C36.5593 142.117 36.0073 141.928 35.6233 141.55C35.2393 141.166 35.0473 140.509 35.0473 139.579C35.0473 138.643 35.2333 137.947 35.6053 137.491C35.9773 137.035 36.5323 136.807 37.2703 136.807ZM37.3243 140.956C37.6243 140.956 37.8193 140.839 37.9093 140.605C37.9993 140.365 38.0443 139.99 38.0443 139.48C38.0443 138.958 37.9903 138.574 37.8823 138.328C37.7743 138.076 37.5703 137.95 37.2703 137.95C37.0603 137.95 36.9193 137.986 36.8473 138.058C36.7933 138.118 36.7453 138.298 36.7033 138.598C36.6673 138.898 36.6493 139.204 36.6493 139.516C36.6493 140.044 36.7003 140.416 36.8023 140.632C36.9103 140.848 37.0843 140.956 37.3243 140.956ZM43.2945 136.87H45.0045L43.6185 142H41.2695L39.8745 136.87H41.5935L42.4215 140.884H42.4665L43.2945 136.87Z" fill="#A8DADC"/>
<path d="M18.8129 175.87V181H17.2379V177.166L16.1219 177.4L15.9509 176.455L17.5439 175.87H18.8129ZM22.8599 175.87H24.5699L23.1839 181H20.8349L19.4399 175.87H21.1589L21.9869 179.884H22.0319L22.8599 175.87ZM27.7138 174.988H28.9108L25.8598 182.404H24.6628L27.7138 174.988ZM31.9544 181.117C31.0604 181.117 30.3884 180.907 29.9384 180.487C29.4944 180.061 29.2724 179.38 29.2724 178.444C29.2724 177.526 29.5184 176.857 30.0104 176.437C30.5024 176.017 31.1534 175.807 31.9634 175.807C33.6674 175.807 34.5194 176.656 34.5194 178.354C34.5194 179.212 34.3094 179.887 33.8894 180.379C33.4754 180.871 32.8304 181.117 31.9544 181.117ZM31.9184 180.055C32.0864 180.055 32.2274 180.028 32.3414 179.974C32.4554 179.914 32.5454 179.812 32.6114 179.668C32.7374 179.422 32.8004 179.02 32.8004 178.462C32.8004 177.916 32.7374 177.52 32.6114 177.274C32.4854 177.022 32.2544 176.89 31.9184 176.878C31.7924 176.878 31.6604 176.893 31.5224 176.923C31.3904 176.947 31.3064 176.983 31.2704 177.031C31.1984 177.115 31.1414 177.295 31.0994 177.571C31.0634 177.841 31.0454 178.138 31.0454 178.462C31.0454 178.966 31.0934 179.335 31.1894 179.569C31.2554 179.743 31.3484 179.869 31.4684 179.947C31.5884 180.019 31.7384 180.055 31.9184 180.055ZM39.2586 180.829C39.0366 180.925 38.7786 180.994 38.4846 181.036C38.1906 181.078 37.9176 181.099 37.6656 181.099C36.8496 181.099 36.2106 180.886 35.7486 180.46C35.2866 180.034 35.0556 179.38 35.0556 178.498C35.0556 177.598 35.2986 176.926 35.7846 176.482C36.2706 176.032 36.9546 175.807 37.8366 175.807C38.2566 175.807 38.6946 175.864 39.1506 175.978C39.1506 176.098 39.1386 176.278 39.1146 176.518C39.0906 176.752 39.0666 176.917 39.0426 177.013H38.4756C38.0616 177.013 37.7346 177.022 37.4946 177.04C37.2606 177.052 37.1196 177.079 37.0716 177.121C36.9816 177.205 36.9126 177.376 36.8646 177.634C36.8166 177.886 36.7926 178.129 36.7926 178.363C36.7926 178.771 36.8436 179.086 36.9456 179.308C37.0476 179.524 37.1766 179.668 37.3326 179.74C37.4826 179.812 37.7316 179.848 38.0796 179.848C38.3556 179.848 38.7156 179.824 39.1596 179.776L39.2586 180.829ZM42.5409 181H40.9209V176.995H39.4719V175.87H43.9899V176.995H42.5409V181Z" fill="#A8DADC"/>
<path d="M9.94635 234.156V239.856H8.19635V235.596L6.95635 235.856L6.76635 234.806L8.53635 234.156H9.94635Z" fill="#A8DADC"/>
<path d="M25.5198 229.55V230.88H21.1298V229.77C21.4698 229.497 21.7932 229.234 22.0998 228.98C22.4065 228.72 22.7498 228.417 23.1298 228.07C23.3165 227.904 23.4532 227.724 23.5398 227.53C23.6265 227.337 23.6698 227.154 23.6698 226.98C23.6698 226.8 23.6265 226.66 23.5398 226.56C23.4665 226.487 23.0798 226.45 22.3798 226.45L21.7098 226.46C21.6232 226.467 21.5165 226.47 21.3898 226.47C21.3698 226.377 21.3465 226.194 21.3198 225.92C21.2998 225.647 21.2898 225.444 21.2898 225.31C22.0432 225.177 22.6698 225.11 23.1698 225.11C23.8498 225.11 24.3898 225.24 24.7898 225.5C25.1965 225.754 25.3998 226.194 25.3998 226.82C25.3998 227.12 25.3232 227.43 25.1698 227.75C25.0165 228.064 24.7165 228.394 24.2698 228.74C23.9698 228.974 23.5765 229.25 23.0898 229.57L25.5198 229.55Z" fill="#A8DADC"/>
<path d="M38.08 228.121C38.5533 228.155 38.8933 228.288 39.1 228.521C39.3066 228.755 39.41 229.045 39.41 229.391C39.41 229.891 39.2233 230.311 38.85 230.651C38.4766 230.985 37.88 231.151 37.06 231.151C36.5066 231.151 35.89 231.098 35.21 230.991L35.41 229.891C36.01 229.918 36.4033 229.931 36.59 229.931C36.9566 229.931 37.2233 229.885 37.39 229.791C37.5633 229.698 37.65 229.515 37.65 229.241C37.65 229.048 37.5866 228.905 37.46 228.811C37.34 228.711 37.1666 228.648 36.94 228.621C36.7133 228.595 36.39 228.581 35.97 228.581V227.651C36.39 227.651 36.7066 227.641 36.92 227.621C37.14 227.595 37.3066 227.538 37.42 227.451C37.54 227.365 37.6 227.228 37.6 227.041C37.6 226.881 37.5966 226.755 37.59 226.661C37.5833 226.568 37.56 226.508 37.52 226.481C37.4666 226.448 37.23 226.431 36.81 226.431C36.43 226.431 35.9666 226.445 35.42 226.471L35.32 225.411C36.0466 225.311 36.63 225.261 37.07 225.261C37.71 225.261 38.2333 225.385 38.64 225.631C39.0533 225.878 39.26 226.278 39.26 226.831C39.26 227.111 39.1666 227.378 38.98 227.631C38.8 227.878 38.5 228.031 38.08 228.091V228.121Z" fill="#A8DADC"/>
<path d="M53.4986 238.676H52.6386V239.856H50.8886V238.676H48.7586L48.4186 237.656C48.7053 237.136 49.0786 236.556 49.5386 235.916C49.9986 235.276 50.4486 234.689 50.8886 234.156H52.6386V237.516H53.4986V238.676ZM50.9186 235.746C50.5386 236.293 50.1553 236.883 49.7686 237.516H50.9186V235.746Z" fill="#A8DADC"/>
<path d="M16.1029 59.039H18.8029V60.326H16.1029V59.039ZM21.5044 58.796C22.1164 58.796 22.5664 58.952 22.8544 59.264C23.1424 59.57 23.2864 59.966 23.2864 60.452C23.2864 61.556 22.5214 62.108 20.9914 62.108C20.4994 62.108 19.9384 62.06 19.3084 61.964L19.5064 60.974C20.0044 61.028 20.3764 61.055 20.6224 61.055C20.9884 61.055 21.2674 61.004 21.4594 60.902C21.6514 60.8 21.7474 60.626 21.7474 60.38C21.7474 60.296 21.7324 60.209 21.7024 60.119C21.6784 60.023 21.6394 59.963 21.5854 59.939C21.5614 59.927 21.4954 59.915 21.3874 59.903C21.2854 59.891 21.1624 59.885 21.0184 59.885C20.5744 59.885 20.1394 59.921 19.7134 59.993L19.6684 59.948L20.0374 56.87H23.0794V58.067L21.1534 58.058L21.0544 58.823C21.2164 58.805 21.3664 58.796 21.5044 58.796ZM26.9337 56.87H28.6437L27.2577 62H24.9087L23.5137 56.87H25.2327L26.0607 60.884H26.1057L26.9337 56.87ZM30.306 59.039H33.006V60.326H30.306V59.039ZM37.061 58.796C37.673 58.796 38.123 58.952 38.411 59.264C38.699 59.57 38.843 59.966 38.843 60.452C38.843 61.556 38.078 62.108 36.548 62.108C36.056 62.108 35.495 62.06 34.865 61.964L35.063 60.974C35.561 61.028 35.933 61.055 36.179 61.055C36.545 61.055 36.824 61.004 37.016 60.902C37.208 60.8 37.304 60.626 37.304 60.38C37.304 60.296 37.289 60.209 37.259 60.119C37.235 60.023 37.196 59.963 37.142 59.939C37.118 59.927 37.052 59.915 36.944 59.903C36.842 59.891 36.719 59.885 36.575 59.885C36.131 59.885 35.696 59.921 35.27 59.993L35.225 59.948L35.594 56.87H38.636V58.067L36.71 58.058L36.611 58.823C36.773 58.805 36.923 58.796 37.061 58.796ZM42.4903 56.87H44.2003L42.8143 62H40.4653L39.0703 56.87H40.7893L41.6173 60.884H41.6623L42.4903 56.87Z" fill="#A8DADC"/>
<path d="M26.7553 38.796C26.4833 38.796 26.2473 38.704 26.0473 38.52C25.8553 38.336 25.7593 38.116 25.7593 37.86C25.7593 37.604 25.8553 37.384 26.0473 37.2C26.2473 37.016 26.4833 36.924 26.7553 36.924C27.0273 36.924 27.2593 37.016 27.4513 37.2C27.6433 37.384 27.7393 37.604 27.7393 37.86C27.7393 38.116 27.6433 38.336 27.4513 38.52C27.2593 38.704 27.0273 38.796 26.7553 38.796ZM25.7233 39.48H27.7753V45H25.7233V39.48ZM34.1328 39.828C34.2048 39.916 34.2568 40.136 34.2888 40.488C34.3288 40.84 34.3488 41.376 34.3488 42.096V45H32.2968V42.12V41.628C32.2968 41.372 32.2768 41.212 32.2368 41.148C32.1728 41.068 32.0248 41.028 31.7928 41.028C31.6808 41.028 31.5968 41.032 31.5408 41.04C31.3168 41.048 31.0848 41.1 30.8448 41.196V45H28.7928V39.48H30.4608L30.6888 40.404C31.2648 39.708 31.9528 39.36 32.7528 39.36C33.0408 39.36 33.3088 39.4 33.5568 39.48C33.8128 39.56 34.0048 39.676 34.1328 39.828Z" fill="#A8DADC"/>
<rect x="9" y="74" width="6" height="6" rx="1" fill="#A8DADC"/>
<path d="M12.9973 74.69V79.25H11.5973V75.842L10.6053 76.05L10.4533 75.21L11.8693 74.69H12.9973Z" fill="#457B9D"/>
<rect x="9" y="114" width="6" height="6" rx="1" fill="#A8DADC"/>
<path d="M13.76 118.186V119.25H10.248V118.362C10.52 118.143 10.7787 117.933 11.024 117.73C11.2693 117.522 11.544 117.279 11.848 117.002C11.9973 116.869 12.1067 116.725 12.176 116.57C12.2453 116.415 12.28 116.269 12.28 116.13C12.28 115.986 12.2453 115.874 12.176 115.794C12.1173 115.735 11.808 115.706 11.248 115.706L10.712 115.714C10.6427 115.719 10.5573 115.722 10.456 115.722C10.44 115.647 10.4213 115.501 10.4 115.282C10.384 115.063 10.376 114.901 10.376 114.794C10.9787 114.687 11.48 114.634 11.88 114.634C12.424 114.634 12.856 114.738 13.176 114.946C13.5013 115.149 13.664 115.501 13.664 116.002C13.664 116.242 13.6027 116.49 13.48 116.746C13.3573 116.997 13.1173 117.261 12.76 117.538C12.52 117.725 12.2053 117.946 11.816 118.202L13.76 118.186Z" fill="#457B9D"/>
<rect x="9" y="154" width="6" height="6" rx="1" fill="#A8DADC"/>
<path d="M12.5899 156.922C12.9686 156.949 13.2406 157.055 13.4059 157.242C13.5713 157.429 13.6539 157.661 13.6539 157.938C13.6539 158.338 13.5046 158.674 13.2059 158.946C12.9073 159.213 12.4299 159.346 11.7739 159.346C11.3313 159.346 10.8379 159.303 10.2939 159.218L10.4539 158.338C10.9339 158.359 11.2486 158.37 11.3979 158.37C11.6913 158.37 11.9046 158.333 12.0379 158.258C12.1766 158.183 12.2459 158.037 12.2459 157.818C12.2459 157.663 12.1953 157.549 12.0939 157.474C11.9979 157.394 11.8593 157.343 11.6779 157.322C11.4966 157.301 11.2379 157.29 10.9019 157.29V156.546C11.2379 156.546 11.4913 156.538 11.6619 156.522C11.8379 156.501 11.9713 156.455 12.0619 156.386C12.1579 156.317 12.2059 156.207 12.2059 156.058C12.2059 155.93 12.2033 155.829 12.1979 155.754C12.1926 155.679 12.1739 155.631 12.1419 155.61C12.0993 155.583 11.9099 155.57 11.5739 155.57C11.2699 155.57 10.8993 155.581 10.4619 155.602L10.3819 154.754C10.9633 154.674 11.4299 154.634 11.7819 154.634C12.2939 154.634 12.7126 154.733 13.0379 154.93C13.3686 155.127 13.5339 155.447 13.5339 155.89C13.5339 156.114 13.4593 156.327 13.3099 156.53C13.1659 156.727 12.9259 156.85 12.5899 156.898V156.922Z" fill="#457B9D"/>
<rect x="9" y="194" width="6" height="6" rx="1" fill="#A8DADC"/>
<path d="M13.9989 198.306H13.3109V199.25H11.9109V198.306H10.2069L9.93491 197.49C10.1642 197.074 10.4629 196.61 10.8309 196.098C11.1989 195.586 11.5589 195.117 11.9109 194.69H13.3109V197.378H13.9989V198.306ZM11.9349 195.962C11.6309 196.399 11.3242 196.871 11.0149 197.378H11.9349V195.962Z" fill="#457B9D"/>
</svg>
