<svg width="60" height="380" viewBox="0 0 60 380" fill="none" xmlns="http://www.w3.org/2000/svg">
<rect width="60" height="380" fill="#457B9D"/>
<g opacity="0.3">
<path fill-rule="evenodd" clip-rule="evenodd" d="M23.958 375.599C23.803 375.747 23.659 375.851 23.526 375.909C23.393 375.968 23.251 375.998 23.1 375.998C22.948 375.998 22.806 375.97 22.673 375.914C22.54 375.858 22.424 375.781 22.325 375.682C22.109 375.466 22 375.209 22 374.912V369.385C22 369.082 22.078 368.847 22.232 368.68C22.498 368.408 22.75 368.272 22.988 368.272C23.226 368.272 23.404 368.296 23.522 368.346C23.639 368.395 23.738 368.457 23.818 368.531C23.924 368.624 24.002 368.723 24.055 368.828C24.108 368.933 24.151 369.011 24.185 369.06C24.219 369.11 24.275 369.134 24.352 369.134C24.429 369.134 24.496 369.11 24.551 369.06L24.709 368.902C25.16 368.482 25.612 368.272 26.063 368.272C26.861 368.272 27.519 368.599 28.039 369.255C28.088 369.323 28.15 369.357 28.224 369.357C28.354 369.357 28.486 369.256 28.619 369.055C28.752 368.854 28.966 368.674 29.263 368.513C29.56 368.352 29.906 368.272 30.302 368.272C30.698 368.272 31.058 368.344 31.383 368.49C31.707 368.635 31.99 368.834 32.231 369.088C32.738 369.62 32.992 370.263 32.992 371.017V374.912C32.992 375.382 32.769 375.713 32.324 375.905C32.188 375.967 32.044 375.998 31.893 375.998C31.741 375.998 31.599 375.97 31.466 375.914C31.333 375.858 31.217 375.781 31.118 375.682C30.908 375.46 30.803 375.203 30.803 374.912V371.045C30.803 370.736 30.726 370.504 30.571 370.349C30.299 370.077 30.049 369.941 29.82 369.941C29.591 369.941 29.412 369.971 29.282 370.029C29.152 370.088 29.034 370.17 28.929 370.275C28.713 370.492 28.605 370.742 28.605 371.026V374.912C28.605 375.382 28.385 375.713 27.946 375.905C27.81 375.967 27.666 375.998 27.515 375.998C27.363 375.998 27.22 375.97 27.083 375.914C26.947 375.858 26.83 375.781 26.731 375.682C26.515 375.466 26.406 375.209 26.406 374.912V371.045C26.406 370.736 26.329 370.504 26.174 370.349C25.902 370.077 25.618 369.941 25.321 369.941C24.826 369.941 24.483 370.133 24.292 370.516C24.23 370.64 24.199 370.779 24.199 370.934V374.912C24.199 375.215 24.118 375.444 23.958 375.599ZM35.219 369.387C35.219 369.084 35.296 368.849 35.451 368.682C35.716 368.41 36.01 368.274 36.332 368.274C36.641 368.274 36.87 368.355 37.018 368.515C37.29 368.794 37.426 369.084 37.426 369.387V374.915C37.426 375.212 37.349 375.437 37.194 375.592C36.922 375.864 36.672 376 36.443 376C36.214 376 36.032 375.971 35.896 375.912C35.76 375.853 35.642 375.777 35.543 375.685C35.327 375.474 35.219 375.218 35.219 374.915V369.387ZM36.327 365.9C36.065 365.9 35.852 365.687 35.852 365.425C35.852 365.162 36.065 364.95 36.327 364.95C36.589 364.95 36.802 365.162 36.802 365.425C36.802 365.687 36.589 365.9 36.327 365.9ZM36.327 364C36.714 364 37.048 364.142 37.329 364.425C37.611 364.709 37.752 364.996 37.752 365.287C37.752 365.577 37.713 365.807 37.635 365.978C37.558 366.148 37.456 366.297 37.329 366.424C37.048 366.708 36.714 366.849 36.327 366.849C35.94 366.849 35.606 366.708 35.324 366.424C35.043 366.141 34.902 365.857 34.902 365.574C34.902 365.092 35.043 364.709 35.324 364.425C35.606 364.142 35.94 364 36.327 364Z" fill="#1D3557"/>
</g>
<path d="M14.5319 21.8654H12.4529L12.0789 20.2814C12.0642 20.2227 12.0385 20.1237 12.0019 19.9844C11.9725 19.8377 11.9359 19.7314 11.8919 19.6654C11.8479 19.592 11.7855 19.5444 11.7049 19.5224C11.4995 19.5297 11.1989 19.5334 10.8029 19.5334V21.8654H8.82285V15.6504C9.71019 15.5844 10.5389 15.5514 11.3089 15.5514C12.0055 15.5514 12.5702 15.61 13.0029 15.7274C13.4355 15.8374 13.7582 16.0317 13.9709 16.3104C14.1909 16.5817 14.3009 16.9557 14.3009 17.4324C14.3009 17.8797 14.1982 18.2317 13.9929 18.4884C13.7875 18.7377 13.4575 18.888 13.0029 18.9394V19.0054C13.2595 19.0274 13.4722 19.1117 13.6409 19.2584C13.8169 19.3977 13.9342 19.5774 13.9929 19.7974L14.5319 21.8654ZM10.8029 18.2904C10.8689 18.2977 10.9972 18.3014 11.1879 18.3014C11.7525 18.3014 12.0825 18.2537 12.1779 18.1584C12.2659 18.0704 12.3099 17.865 12.3099 17.5424C12.3099 17.2417 12.2292 17.0364 12.0679 16.9264C11.9139 16.8164 11.6572 16.7614 11.2979 16.7614C11.2172 16.7614 11.0522 16.7687 10.8029 16.7834V18.2904ZM15.6987 15.5954H20.2637V16.9154H17.6787V18.0594H19.8567V19.2474H17.6787V20.5234H20.2527V21.8654H15.6987V15.5954ZM23.4573 17.2894C23.4573 17.4434 23.5343 17.5644 23.6883 17.6524C23.8497 17.7404 24.099 17.8357 24.4363 17.9384C24.8397 18.0704 25.1697 18.1987 25.4263 18.3234C25.6903 18.448 25.9177 18.6424 26.1083 18.9064C26.3063 19.1704 26.4053 19.515 26.4053 19.9404C26.4053 21.3044 25.518 21.9864 23.7433 21.9864C23.45 21.9864 23.0907 21.9607 22.6653 21.9094C22.2473 21.858 21.866 21.792 21.5213 21.7114C21.536 21.5574 21.5653 21.3337 21.6093 21.0404C21.6607 20.7397 21.7083 20.516 21.7523 20.3694C22.009 20.406 22.394 20.45 22.9073 20.5014C23.428 20.5527 23.8203 20.5784 24.0843 20.5784C24.2383 20.5784 24.33 20.5674 24.3593 20.5454C24.4033 20.516 24.4363 20.4684 24.4583 20.4024C24.4877 20.329 24.5023 20.2667 24.5023 20.2154C24.5023 20.0687 24.4327 19.9587 24.2933 19.8854C24.154 19.8047 23.9157 19.7094 23.5783 19.5994C23.175 19.4747 22.8413 19.3464 22.5773 19.2144C22.3133 19.0824 22.0823 18.877 21.8843 18.5984C21.6863 18.3197 21.5873 17.953 21.5873 17.4984C21.5873 17.1757 21.6607 16.8604 21.8073 16.5524C21.954 16.237 22.1043 16.0244 22.2583 15.9144C22.3757 15.8337 22.6177 15.7567 22.9843 15.6834C23.351 15.61 23.6957 15.5734 24.0183 15.5734C24.8397 15.5734 25.5107 15.6504 26.0313 15.8044C26.024 15.951 25.9983 16.1527 25.9543 16.4094C25.9177 16.666 25.8773 16.9007 25.8333 17.1134L25.5803 17.1024C24.627 17.0364 24.0183 17.0034 23.7543 17.0034C23.6443 17.0034 23.582 17.007 23.5673 17.0144C23.538 17.029 23.5123 17.062 23.4903 17.1134C23.4683 17.1647 23.4573 17.2234 23.4573 17.2894ZM32.7815 21.6564C32.5101 21.7737 32.1948 21.858 31.8355 21.9094C31.4761 21.9607 31.1425 21.9864 30.8345 21.9864C29.8371 21.9864 29.0561 21.726 28.4915 21.2054C27.9268 20.6847 27.6445 19.8854 27.6445 18.8074C27.6445 17.7074 27.9415 16.886 28.5355 16.3434C29.1295 15.7934 29.9655 15.5184 31.0435 15.5184C31.5568 15.5184 32.0921 15.588 32.6495 15.7274C32.6495 15.874 32.6348 16.094 32.6055 16.3874C32.5761 16.6734 32.5468 16.875 32.5175 16.9924H31.8245C31.3185 16.9924 30.9188 17.0034 30.6255 17.0254C30.3395 17.04 30.1671 17.073 30.1085 17.1244C29.9985 17.227 29.9141 17.436 29.8555 17.7514C29.7968 18.0594 29.7675 18.3564 29.7675 18.6424C29.7675 19.141 29.8298 19.526 29.9545 19.7974C30.0791 20.0614 30.2368 20.2374 30.4275 20.3254C30.6108 20.4134 30.9151 20.4574 31.3405 20.4574C31.6778 20.4574 32.1178 20.428 32.6605 20.3694L32.7815 21.6564ZM37.6841 20.4904H35.8581L35.5281 21.8654H33.5041L35.5281 15.5954H38.1131L40.0491 21.8654H38.0141L37.6841 20.4904ZM36.7601 16.9484L36.1111 19.2694H37.4201L36.8041 16.9484H36.7601ZM41.1241 15.5954H43.1041V20.4134H45.6671V21.8654H41.1241V15.5954ZM46.8725 15.5954H51.4375V16.9154H48.8525V18.0594H51.0305V19.2474H48.8525V20.5234H51.4265V21.8654H46.8725V15.5954Z" fill="white"/>
<path d="M23.9336 295.098C25.5205 295.098 26.4238 294.126 26.4238 292.637V292.036C26.4238 290.542 25.5156 289.57 23.9287 289.57C22.3467 289.57 21.4385 290.537 21.4385 292.036V292.637C21.4385 294.126 22.3516 295.098 23.9336 295.098ZM23.9336 294.077C23.2061 294.077 22.7715 293.535 22.7715 292.642V292.021C22.7715 291.128 23.2061 290.591 23.9336 290.591C24.6562 290.591 25.0908 291.128 25.0908 292.021V292.642C25.0908 293.535 24.6562 294.077 23.9336 294.077ZM30.5713 294.048C29.9609 294.048 29.5361 293.687 29.5361 292.998V289.668H28.2227V293.145C28.2227 294.336 29.126 295.098 30.5713 295.098C32.0166 295.098 32.9199 294.331 32.9199 293.145V289.668H31.6113V292.998C31.6113 293.682 31.1816 294.048 30.5713 294.048ZM37.292 295V290.688H38.8398V289.668H34.4355V290.688H35.9834V295H37.292Z" fill="white"/>
<path d="M19.543 120.461C19.543 122.019 20.3291 123.098 21.7451 123.098C23.2246 123.098 23.9717 121.926 23.9717 120.461V120.202C23.9717 118.635 23.1904 117.57 21.7695 117.57C20.3633 117.57 19.543 118.645 19.543 120.202V120.461ZM20.8516 120.207C20.8516 119.118 21.2178 118.576 21.7549 118.576C22.2969 118.576 22.6631 119.123 22.6631 120.207V120.456C22.6631 121.54 22.2969 122.092 21.7549 122.092C21.2178 122.092 20.8516 121.545 20.8516 120.456V120.207ZM28.251 120.866V119.787H25.6484V120.866H28.251ZM29.9961 121.56C30.0254 122.429 30.8262 123.098 32.0762 123.098C33.3799 123.098 34.2686 122.355 34.2686 121.188C34.2686 120.056 33.4189 119.445 32.457 119.445C31.8125 119.445 31.4268 119.729 31.3193 119.899H31.2559L31.3682 118.654H33.9365V117.668H30.3379L30.1133 120.803H31.2656C31.3682 120.622 31.6318 120.368 32.0908 120.368C32.6084 120.368 33.0186 120.71 33.0186 121.228C33.0186 121.789 32.5938 122.131 32.0859 122.131C31.6465 122.131 31.251 121.916 31.1777 121.56H29.9961ZM39.0215 123L40.8184 117.668H39.3682L38.2695 121.672H38.2061L37.0928 117.668H35.5742L37.3955 123H39.0215Z" fill="white"/>
<path d="M17.0615 164.461C17.0615 166.019 17.8477 167.098 19.2637 167.098C20.7432 167.098 21.4902 165.926 21.4902 164.461V164.202C21.4902 162.635 20.709 161.57 19.2881 161.57C17.8818 161.57 17.0615 162.645 17.0615 164.202V164.461ZM18.3701 164.207C18.3701 163.118 18.7363 162.576 19.2734 162.576C19.8154 162.576 20.1816 163.123 20.1816 164.207V164.456C20.1816 165.54 19.8154 166.092 19.2734 166.092C18.7363 166.092 18.3701 165.545 18.3701 164.456V164.207ZM25.7695 164.866V163.787H23.167V164.866H25.7695ZM30.1025 167V161.668H28.8086L27.4756 162.557V163.67L28.7451 162.825H28.8086V167H30.1025ZM32.3604 164.461C32.3604 166.019 33.1465 167.098 34.5625 167.098C36.042 167.098 36.7891 165.926 36.7891 164.461V164.202C36.7891 162.635 36.0078 161.57 34.5869 161.57C33.1807 161.57 32.3604 162.645 32.3604 164.202V164.461ZM33.6689 164.207C33.6689 163.118 34.0352 162.576 34.5723 162.576C35.1143 162.576 35.4805 163.123 35.4805 164.207V164.456C35.4805 165.54 35.1143 166.092 34.5723 166.092C34.0352 166.092 33.6689 165.545 33.6689 164.456V164.207ZM41.5029 167L43.2998 161.668H41.8496L40.751 165.672H40.6875L39.5742 161.668H38.0557L39.877 167H41.5029Z" fill="white"/>
<path d="M16.8994 211V205.668H15.6055L14.2725 206.557V207.67L15.542 206.825H15.6055V211H16.8994ZM22.2432 211L24.04 205.668H22.5898L21.4912 209.672H21.4277L20.3145 205.668H18.7959L20.6172 211H22.2432ZM25.8779 211.728L27.8311 204.965H26.6885L24.7354 211.728H25.8779ZM31.5049 211.098C33.0918 211.098 33.9951 210.126 33.9951 208.637V208.036C33.9951 206.542 33.0869 205.57 31.5 205.57C29.918 205.57 29.0098 206.537 29.0098 208.036V208.637C29.0098 210.126 29.9229 211.098 31.5049 211.098ZM31.5049 210.077C30.7773 210.077 30.3428 209.535 30.3428 208.642V208.021C30.3428 207.128 30.7773 206.591 31.5049 206.591C32.2275 206.591 32.6621 207.128 32.6621 208.021V208.642C32.6621 209.535 32.2275 210.077 31.5049 210.077ZM36.9658 208.041C36.9658 207.128 37.3564 206.605 38.0596 206.605C38.6797 206.605 39.0898 207.025 39.0898 207.631H40.3447V207.489C40.3447 206.322 39.3682 205.57 38.0498 205.57C36.5117 205.57 35.6328 206.537 35.6328 208.041V208.642C35.6328 210.136 36.5117 211.098 38.0498 211.098C39.3535 211.098 40.3447 210.37 40.3447 209.223V209.076H39.0898C39.0898 209.652 38.6797 210.067 38.0547 210.067C37.3564 210.067 36.9658 209.545 36.9658 208.646V208.041ZM44.5312 211V206.688H46.0791V205.668H41.6748V206.688H43.2227V211H44.5312Z" fill="white"/>
<path d="M9.94635 235.156V240.856H8.19635V236.596L6.95635 236.856L6.76635 235.806L8.53635 235.156H9.94635Z" fill="white"/>
<path d="M24.5198 230.55V231.88H20.1298V230.77C20.4698 230.497 20.7932 230.234 21.0998 229.98C21.4065 229.72 21.7498 229.417 22.1298 229.07C22.3165 228.904 22.4532 228.724 22.5398 228.53C22.6265 228.337 22.6698 228.154 22.6698 227.98C22.6698 227.8 22.6265 227.66 22.5398 227.56C22.4665 227.487 22.0798 227.45 21.3798 227.45L20.7098 227.46C20.6232 227.467 20.5165 227.47 20.3898 227.47C20.3698 227.377 20.3465 227.194 20.3198 226.92C20.2998 226.647 20.2898 226.444 20.2898 226.31C21.0432 226.177 21.6698 226.11 22.1698 226.11C22.8498 226.11 23.3898 226.24 23.7898 226.5C24.1965 226.754 24.3998 227.194 24.3998 227.82C24.3998 228.12 24.3232 228.43 24.1698 228.75C24.0165 229.064 23.7165 229.394 23.2698 229.74C22.9698 229.974 22.5765 230.25 22.0898 230.57L24.5198 230.55Z" fill="white"/>
<path d="M39.08 229.121C39.5533 229.155 39.8933 229.288 40.1 229.521C40.3066 229.755 40.41 230.045 40.41 230.391C40.41 230.891 40.2233 231.311 39.85 231.651C39.4766 231.985 38.88 232.151 38.06 232.151C37.5066 232.151 36.89 232.098 36.21 231.991L36.41 230.891C37.01 230.918 37.4033 230.931 37.59 230.931C37.9566 230.931 38.2233 230.885 38.39 230.791C38.5633 230.698 38.65 230.515 38.65 230.241C38.65 230.048 38.5866 229.905 38.46 229.811C38.34 229.711 38.1666 229.648 37.94 229.621C37.7133 229.595 37.39 229.581 36.97 229.581V228.651C37.39 228.651 37.7066 228.641 37.92 228.621C38.14 228.595 38.3066 228.538 38.42 228.451C38.54 228.365 38.6 228.228 38.6 228.041C38.6 227.881 38.5966 227.755 38.59 227.661C38.5833 227.568 38.56 227.508 38.52 227.481C38.4666 227.448 38.23 227.431 37.81 227.431C37.43 227.431 36.9666 227.445 36.42 227.471L36.32 226.411C37.0466 226.311 37.63 226.261 38.07 226.261C38.71 226.261 39.2333 226.385 39.64 226.631C40.0533 226.878 40.26 227.278 40.26 227.831C40.26 228.111 40.1666 228.378 39.98 228.631C39.8 228.878 39.5 229.031 39.08 229.091V229.121Z" fill="white"/>
<path d="M53.4986 239.676H52.6386V240.856H50.8886V239.676H48.7586L48.4186 238.656C48.7053 238.136 49.0786 237.556 49.5386 236.916C49.9986 236.276 50.4486 235.689 50.8886 235.156H52.6386V238.516H53.4986V239.676ZM50.9186 236.746C50.5386 237.293 50.1553 237.883 49.7686 238.516H50.9186V236.746Z" fill="white"/>
<path d="M20.0547 76.8662V75.7871H17.4521V76.8662H20.0547ZM21.7998 77.5596C21.8291 78.4287 22.6299 79.0977 23.8799 79.0977C25.1836 79.0977 26.0723 78.3555 26.0723 77.1885C26.0723 76.0557 25.2227 75.4453 24.2607 75.4453C23.6162 75.4453 23.2305 75.7285 23.123 75.8994H23.0596L23.1719 74.6543H25.7402V73.668H22.1416L21.917 76.8027H23.0693C23.1719 76.6221 23.4355 76.3682 23.8945 76.3682C24.4121 76.3682 24.8223 76.71 24.8223 77.2275C24.8223 77.7891 24.3975 78.1309 23.8896 78.1309C23.4502 78.1309 23.0547 77.916 22.9814 77.5596H21.7998ZM30.293 76.8662V75.7871H27.6904V76.8662H30.293ZM32.0381 77.5596C32.0674 78.4287 32.8682 79.0977 34.1182 79.0977C35.4219 79.0977 36.3105 78.3555 36.3105 77.1885C36.3105 76.0557 35.4609 75.4453 34.499 75.4453C33.8545 75.4453 33.4688 75.7285 33.3613 75.8994H33.2979L33.4102 74.6543H35.9785V73.668H32.3799L32.1553 76.8027H33.3076C33.4102 76.6221 33.6738 76.3682 34.1328 76.3682C34.6504 76.3682 35.0605 76.71 35.0605 77.2275C35.0605 77.7891 34.6357 78.1309 34.1279 78.1309C33.6885 78.1309 33.293 77.916 33.2197 77.5596H32.0381ZM41.0635 79L42.8604 73.668H41.4102L40.3115 77.6719H40.248L39.1348 73.668H37.6162L39.4375 79H41.0635Z" fill="white"/>
<path d="M27.2939 40V34.668H25.9854V40H27.2939ZM30.6064 40V36.7529H30.6553L32.9697 40H34.0098V34.668H32.7842V37.8857H32.7354L30.4307 34.668H29.3857V40H30.6064Z" fill="white"/>
<rect x="8" y="53.5" width="7" height="7" rx="1" fill="white"/>
<path d="M12.622 54.37V59.5H11.047V55.666L9.93098 55.9L9.75998 54.955L11.353 54.37H12.622Z" fill="#457B9D"/>
<rect x="8" y="97.5" width="7" height="7" rx="1" fill="white"/>
<path d="M13.48 102.303V103.5H9.529V102.501C9.835 102.255 10.126 102.018 10.402 101.79C10.678 101.556 10.987 101.283 11.329 100.971C11.497 100.821 11.62 100.659 11.698 100.485C11.776 100.311 11.815 100.146 11.815 99.99C11.815 99.828 11.776 99.702 11.698 99.612C11.632 99.546 11.284 99.513 10.654 99.513L10.051 99.522C9.973 99.528 9.877 99.531 9.763 99.531C9.745 99.447 9.724 99.282 9.7 99.036C9.682 98.79 9.673 98.607 9.673 98.487C10.351 98.367 10.915 98.307 11.365 98.307C11.977 98.307 12.463 98.424 12.823 98.658C13.189 98.886 13.372 99.282 13.372 99.846C13.372 100.116 13.303 100.395 13.165 100.683C13.027 100.965 12.757 101.262 12.355 101.574C12.085 101.784 11.731 102.033 11.293 102.321L13.48 102.303Z" fill="#457B9D"/>
<rect x="8" y="141.5" width="7" height="7" rx="1" fill="white"/>
<path d="M12.1637 144.881C12.5897 144.911 12.8957 145.031 13.0817 145.241C13.2677 145.451 13.3607 145.712 13.3607 146.024C13.3607 146.474 13.1927 146.852 12.8567 147.158C12.5207 147.458 11.9837 147.608 11.2457 147.608C10.7477 147.608 10.1927 147.56 9.58068 147.464L9.76068 146.474C10.3007 146.498 10.6547 146.51 10.8227 146.51C11.1527 146.51 11.3927 146.468 11.5427 146.384C11.6987 146.3 11.7767 146.135 11.7767 145.889C11.7767 145.715 11.7197 145.586 11.6057 145.502C11.4977 145.412 11.3417 145.355 11.1377 145.331C10.9337 145.307 10.6427 145.295 10.2647 145.295V144.458C10.6427 144.458 10.9277 144.449 11.1197 144.431C11.3177 144.407 11.4677 144.356 11.5697 144.278C11.6777 144.2 11.7317 144.077 11.7317 143.909C11.7317 143.765 11.7287 143.651 11.7227 143.567C11.7167 143.483 11.6957 143.429 11.6597 143.405C11.6117 143.375 11.3987 143.36 11.0207 143.36C10.6787 143.36 10.2617 143.372 9.76968 143.396L9.67968 142.442C10.3337 142.352 10.8587 142.307 11.2547 142.307C11.8307 142.307 12.3017 142.418 12.6677 142.64C13.0397 142.862 13.2257 143.222 13.2257 143.72C13.2257 143.972 13.1417 144.212 12.9737 144.44C12.8117 144.662 12.5417 144.8 12.1637 144.854V144.881Z" fill="#457B9D"/>
<rect x="8" y="185.5" width="7" height="7" rx="1" fill="white"/>
<path d="M13.7488 190.438H12.9748V191.5H11.3998V190.438H9.48277L9.17677 189.52C9.43477 189.052 9.77077 188.53 10.1848 187.954C10.5988 187.378 11.0038 186.85 11.3998 186.37H12.9748V189.394H13.7488V190.438ZM11.4268 187.801C11.0848 188.293 10.7398 188.824 10.3918 189.394H11.4268V187.801Z" fill="#457B9D"/>
</svg>
