<svg width="91" height="380" viewBox="0 0 91 380" fill="none" xmlns="http://www.w3.org/2000/svg">
<rect x="0.5" width="90" height="380" fill="#457B9D"/>
<g opacity="0.5">
<path fill-rule="evenodd" clip-rule="evenodd" d="M39.458 375.599C39.303 375.747 39.159 375.851 39.026 375.909C38.893 375.968 38.751 375.998 38.6 375.998C38.448 375.998 38.306 375.97 38.173 375.914C38.04 375.858 37.924 375.781 37.825 375.682C37.609 375.466 37.5 375.209 37.5 374.912V369.385C37.5 369.082 37.578 368.847 37.732 368.68C37.998 368.408 38.25 368.272 38.488 368.272C38.726 368.272 38.904 368.296 39.022 368.346C39.139 368.395 39.238 368.457 39.318 368.531C39.424 368.624 39.502 368.723 39.555 368.828C39.608 368.933 39.651 369.011 39.685 369.06C39.719 369.11 39.775 369.134 39.852 369.134C39.929 369.134 39.996 369.11 40.051 369.06L40.209 368.902C40.66 368.482 41.112 368.272 41.563 368.272C42.361 368.272 43.019 368.599 43.539 369.255C43.588 369.323 43.65 369.357 43.724 369.357C43.854 369.357 43.986 369.256 44.119 369.055C44.252 368.854 44.466 368.674 44.763 368.513C45.06 368.352 45.406 368.272 45.802 368.272C46.198 368.272 46.558 368.344 46.883 368.49C47.207 368.635 47.49 368.834 47.731 369.088C48.238 369.62 48.492 370.263 48.492 371.017V374.912C48.492 375.382 48.269 375.713 47.824 375.905C47.688 375.967 47.544 375.998 47.393 375.998C47.241 375.998 47.099 375.97 46.966 375.914C46.833 375.858 46.717 375.781 46.618 375.682C46.408 375.46 46.303 375.203 46.303 374.912V371.045C46.303 370.736 46.226 370.504 46.071 370.349C45.799 370.077 45.549 369.941 45.32 369.941C45.091 369.941 44.912 369.971 44.782 370.029C44.652 370.088 44.534 370.17 44.429 370.275C44.213 370.492 44.105 370.742 44.105 371.026V374.912C44.105 375.382 43.885 375.713 43.446 375.905C43.31 375.967 43.166 375.998 43.015 375.998C42.863 375.998 42.72 375.97 42.583 375.914C42.447 375.858 42.33 375.781 42.231 375.682C42.015 375.466 41.906 375.209 41.906 374.912V371.045C41.906 370.736 41.829 370.504 41.674 370.349C41.402 370.077 41.118 369.941 40.821 369.941C40.326 369.941 39.983 370.133 39.792 370.516C39.73 370.64 39.699 370.779 39.699 370.934V374.912C39.699 375.215 39.618 375.444 39.458 375.599ZM50.719 369.387C50.719 369.084 50.796 368.849 50.951 368.682C51.216 368.41 51.51 368.274 51.832 368.274C52.141 368.274 52.37 368.355 52.518 368.515C52.79 368.794 52.926 369.084 52.926 369.387V374.915C52.926 375.212 52.849 375.437 52.694 375.592C52.422 375.864 52.172 376 51.943 376C51.714 376 51.532 375.971 51.396 375.912C51.26 375.853 51.142 375.777 51.043 375.685C50.827 375.474 50.719 375.218 50.719 374.915V369.387ZM51.827 365.9C51.565 365.9 51.352 365.687 51.352 365.425C51.352 365.162 51.565 364.95 51.827 364.95C52.089 364.95 52.302 365.162 52.302 365.425C52.302 365.687 52.089 365.9 51.827 365.9ZM51.827 364C52.214 364 52.548 364.142 52.829 364.425C53.111 364.709 53.252 364.996 53.252 365.287C53.252 365.577 53.213 365.807 53.135 365.978C53.058 366.148 52.956 366.297 52.829 366.424C52.548 366.708 52.214 366.849 51.827 366.849C51.44 366.849 51.106 366.708 50.824 366.424C50.543 366.141 50.402 365.857 50.402 365.574C50.402 365.092 50.543 364.709 50.824 364.425C51.106 364.142 51.44 364 51.827 364Z" fill="#1D3557"/>
</g>
<path d="M32.6815 22.8654H30.4135L30.0055 21.1374C29.9895 21.0734 29.9615 20.9654 29.9215 20.8134C29.8895 20.6534 29.8495 20.5374 29.8015 20.4654C29.7535 20.3854 29.6855 20.3334 29.5975 20.3094C29.3735 20.3174 29.0455 20.3214 28.6135 20.3214V22.8654H26.4535V16.0854C27.4215 16.0134 28.3255 15.9774 29.1655 15.9774C29.9255 15.9774 30.5415 16.0414 31.0135 16.1694C31.4855 16.2894 31.8375 16.5014 32.0695 16.8054C32.3095 17.1014 32.4295 17.5094 32.4295 18.0294C32.4295 18.5174 32.3175 18.9014 32.0935 19.1814C31.8695 19.4534 31.5095 19.6174 31.0135 19.6734V19.7454C31.2935 19.7694 31.5255 19.8614 31.7095 20.0214C31.9015 20.1734 32.0295 20.3694 32.0935 20.6094L32.6815 22.8654ZM28.6135 18.9654C28.6855 18.9734 28.8255 18.9774 29.0335 18.9774C29.6495 18.9774 30.0095 18.9254 30.1135 18.8214C30.2095 18.7254 30.2575 18.5014 30.2575 18.1494C30.2575 17.8214 30.1695 17.5974 29.9935 17.4774C29.8255 17.3574 29.5455 17.2974 29.1535 17.2974C29.0655 17.2974 28.8855 17.3054 28.6135 17.3214V18.9654ZM33.3545 16.0254H38.3345V17.4654H35.5145V18.7134H37.8905V20.0094H35.5145V21.4014H38.3225V22.8654H33.3545V16.0254ZM43.2104 16.0254H45.4904L43.6424 22.8654H40.5104L38.6504 16.0254H40.9424L42.0464 21.3774H42.1064L43.2104 16.0254ZM46.0341 16.0254H51.0141V17.4654H48.1941V18.7134H50.5701V20.0094H48.1941V21.4014H51.0021V22.8654H46.0341V16.0254ZM58.1581 22.8654H55.8901L55.4821 21.1374C55.4661 21.0734 55.4381 20.9654 55.3981 20.8134C55.3661 20.6534 55.3261 20.5374 55.2781 20.4654C55.2301 20.3854 55.1621 20.3334 55.0741 20.3094C54.8501 20.3174 54.5221 20.3214 54.0901 20.3214V22.8654H51.9301V16.0854C52.8981 16.0134 53.8021 15.9774 54.6421 15.9774C55.4021 15.9774 56.0181 16.0414 56.4901 16.1694C56.9621 16.2894 57.3141 16.5014 57.5461 16.8054C57.7861 17.1014 57.9061 17.5094 57.9061 18.0294C57.9061 18.5174 57.7941 18.9014 57.5701 19.1814C57.3461 19.4534 56.9861 19.6174 56.4901 19.6734V19.7454C56.7701 19.7694 57.0021 19.8614 57.1861 20.0214C57.3781 20.1734 57.5061 20.3694 57.5701 20.6094L58.1581 22.8654ZM54.0901 18.9654C54.1621 18.9734 54.3021 18.9774 54.5101 18.9774C55.1261 18.9774 55.4861 18.9254 55.5901 18.8214C55.6861 18.7254 55.7341 18.5014 55.7341 18.1494C55.7341 17.8214 55.6461 17.5974 55.4701 17.4774C55.3021 17.3574 55.0221 17.2974 54.6301 17.2974C54.5421 17.2974 54.3621 17.3054 54.0901 17.3214V18.9654ZM63.331 19.2534C63.875 19.3174 64.263 19.5014 64.495 19.8054C64.727 20.1014 64.843 20.4614 64.843 20.8854C64.843 21.1494 64.803 21.4014 64.723 21.6414C64.643 21.8734 64.547 22.0734 64.435 22.2414C64.323 22.4014 64.227 22.5054 64.147 22.5534C63.827 22.7614 62.851 22.8654 61.219 22.8654H58.891V16.0254H61.711C62.351 16.0254 62.867 16.0614 63.259 16.1334C63.659 16.1974 63.983 16.3494 64.231 16.5894C64.479 16.8214 64.603 17.1774 64.603 17.6574C64.603 18.0734 64.499 18.4094 64.291 18.6654C64.091 18.9214 63.771 19.0974 63.331 19.1934V19.2534ZM62.371 17.4774C62.291 17.3974 62.195 17.3494 62.083 17.3334C61.979 17.3094 61.811 17.2974 61.579 17.2974C61.347 17.2974 61.171 17.3014 61.051 17.3094V18.7734H61.171C61.211 18.7734 61.379 18.7734 61.675 18.7734C61.971 18.7734 62.167 18.7534 62.263 18.7134C62.335 18.6814 62.399 18.5974 62.455 18.4614C62.519 18.3254 62.551 18.1774 62.551 18.0174C62.551 17.7774 62.491 17.5974 62.371 17.4774ZM62.575 21.4854C62.631 21.4374 62.675 21.3494 62.707 21.2214C62.747 21.0854 62.767 20.9494 62.767 20.8134C62.767 20.6454 62.743 20.4894 62.695 20.3454C62.655 20.1934 62.599 20.0854 62.527 20.0214C62.455 19.9494 62.351 19.9014 62.215 19.8774C62.087 19.8534 61.867 19.8414 61.555 19.8414C61.355 19.8414 61.187 19.8454 61.051 19.8534V21.5934C61.427 21.6014 61.763 21.5974 62.059 21.5814C62.355 21.5574 62.527 21.5254 62.575 21.4854Z" fill="#A8DADC"/>
<rect x="52.495" y="211" width="65" height="28" rx="14" transform="rotate(-90 52.495 211)" fill="#36617C"/>
<path d="M52.0358 134.36C52.6598 134.36 53.1398 134.548 53.4758 134.924C53.8198 135.3 53.9918 135.964 53.9918 136.916C53.9918 137.612 53.9198 138.208 53.7758 138.704C53.6398 139.192 53.4838 139.504 53.3078 139.64C53.0998 139.808 52.7918 139.932 52.3838 140.012C51.9758 140.092 51.5118 140.132 50.9918 140.132C50.5918 140.132 50.1438 140.1 49.6478 140.036C49.1518 139.98 48.7078 139.888 48.3158 139.76V132.8L50.3918 132.716V133.844C50.3918 133.908 50.3878 134.056 50.3798 134.288C50.3798 134.52 50.3718 134.716 50.3558 134.876C50.3398 135.028 50.3158 135.144 50.2838 135.224L50.3558 135.308C50.5398 135.028 50.7718 134.8 51.0518 134.624C51.3318 134.448 51.6598 134.36 52.0358 134.36ZM51.6998 138.692C51.7478 138.612 51.7878 138.424 51.8198 138.128C51.8598 137.832 51.8798 137.548 51.8798 137.276C51.8798 136.956 51.8638 136.704 51.8318 136.52C51.8078 136.336 51.7398 136.192 51.6278 136.088C51.5238 135.976 51.3598 135.92 51.1358 135.92C50.9358 135.92 50.6798 135.948 50.3678 136.004V138.716C50.6638 138.764 50.9718 138.788 51.2918 138.788C51.5238 138.788 51.6598 138.756 51.6998 138.692ZM60.4968 134.48L59.0568 139.1C58.7768 139.988 58.5248 140.632 58.3008 141.032C58.0768 141.44 57.8528 141.724 57.6288 141.884C57.5008 141.972 57.2968 142.04 57.0168 142.088C56.7448 142.136 56.4488 142.16 56.1288 142.16C55.6488 142.16 55.2648 142.116 54.9768 142.028C54.9688 141.836 54.9768 141.6 55.0008 141.32C55.0248 141.048 55.0568 140.816 55.0968 140.624C55.4328 140.64 55.7608 140.648 56.0808 140.648C56.3208 140.648 56.5008 140.644 56.6208 140.636C56.7408 140.404 56.8528 140.16 56.9568 139.904L56.1288 139.856L54.2808 134.48H56.4528L57.4128 138.344L57.4248 138.572H57.4608L58.3248 134.48H60.4968ZM64.7643 134.36C65.3403 134.36 65.7963 134.552 66.1323 134.936C66.4763 135.312 66.6483 135.972 66.6483 136.916C66.6483 137.62 66.5803 138.196 66.4443 138.644C66.3083 139.084 66.1523 139.376 65.9763 139.52C65.8003 139.664 65.4923 139.78 65.0523 139.868C64.6203 139.956 64.1723 140 63.7083 140C63.5723 140 63.3443 139.992 63.0243 139.976V141.68L60.9723 141.764V134.48H62.6523L62.8563 135.332C63.0643 135.036 63.3283 134.8 63.6483 134.624C63.9763 134.448 64.3483 134.36 64.7643 134.36ZM64.2843 138.536C64.3723 138.472 64.4363 138.292 64.4763 137.996C64.5163 137.692 64.5363 137.404 64.5363 137.132C64.5363 136.684 64.4803 136.352 64.3683 136.136C64.2563 135.92 64.0323 135.812 63.6963 135.812C63.4563 135.812 63.2323 135.836 63.0243 135.884V138.548L63.3603 138.584C63.4643 138.592 63.6123 138.596 63.8043 138.596C64.0763 138.596 64.2363 138.576 64.2843 138.536ZM70.7408 140L70.5488 139.244C70.1808 139.844 69.6688 140.144 69.0128 140.144C68.4768 140.144 68.0368 139.996 67.6928 139.7C67.3568 139.396 67.1888 138.972 67.1888 138.428C67.1888 138.092 67.2848 137.8 67.4768 137.552C67.6768 137.296 67.9488 137.116 68.2928 137.012C68.7408 136.884 69.4328 136.812 70.3688 136.796C70.3688 136.268 70.3448 135.988 70.2968 135.956C70.2568 135.924 70.1288 135.908 69.9128 135.908C69.7768 135.908 69.5888 135.916 69.3488 135.932C68.9648 135.948 68.4448 135.992 67.7888 136.064C67.7248 135.632 67.6768 135.168 67.6448 134.672C68.0688 134.584 68.5128 134.512 68.9768 134.456C69.4408 134.392 69.8568 134.36 70.2248 134.36C70.8648 134.36 71.3448 134.468 71.6648 134.684C71.9848 134.892 72.1928 135.168 72.2888 135.512C72.3848 135.856 72.4288 136.292 72.4208 136.82L72.4088 138.584L72.4448 140H70.7408ZM69.7088 138.8C69.9168 138.8 70.1368 138.76 70.3688 138.68V137.792H70.2728C69.6808 137.792 69.3528 137.824 69.2888 137.888C69.2488 137.928 69.2168 137.988 69.1928 138.068C69.1768 138.148 69.1688 138.224 69.1688 138.296C69.1688 138.488 69.2128 138.62 69.3008 138.692C69.3888 138.764 69.5248 138.8 69.7088 138.8ZM77.8113 138.128C77.8113 138.84 77.5833 139.352 77.1273 139.664C76.6793 139.976 76.0393 140.132 75.2073 140.132C74.6233 140.132 73.9513 140.048 73.1913 139.88C73.2073 139.72 73.2433 139.492 73.2993 139.196C73.3633 138.892 73.4153 138.66 73.4553 138.5C73.7433 138.548 74.0633 138.588 74.4153 138.62C74.7673 138.644 75.0673 138.656 75.3153 138.656C75.5313 138.656 75.6633 138.644 75.7113 138.62C75.7193 138.612 75.7273 138.592 75.7353 138.56C75.7513 138.52 75.7593 138.48 75.7593 138.44C75.7593 138.28 75.6593 138.172 75.4593 138.116C75.3953 138.1 75.1513 138.032 74.7273 137.912C74.3033 137.792 73.9553 137.576 73.6833 137.264C73.4193 136.944 73.2873 136.548 73.2873 136.076C73.2873 135.828 73.3433 135.552 73.4553 135.248C73.5673 134.944 73.6873 134.752 73.8153 134.672C73.9113 134.608 74.1433 134.544 74.5113 134.48C74.8793 134.408 75.2193 134.372 75.5313 134.372C76.1953 134.372 76.8633 134.42 77.5353 134.516C77.5353 134.66 77.5153 134.904 77.4753 135.248C77.4353 135.584 77.3993 135.796 77.3673 135.884C76.6873 135.796 76.1393 135.752 75.7233 135.752C75.5073 135.752 75.3673 135.764 75.3033 135.788C75.2873 135.796 75.2713 135.82 75.2553 135.86C75.2393 135.892 75.2313 135.936 75.2313 135.992C75.2313 136.104 75.2673 136.184 75.3393 136.232C75.4113 136.288 75.5993 136.356 75.9033 136.436C76.2633 136.54 76.5713 136.648 76.8273 136.76C77.0913 136.872 77.3193 137.04 77.5113 137.264C77.7113 137.488 77.8113 137.776 77.8113 138.128ZM82.9559 138.128C82.9559 138.84 82.7279 139.352 82.2719 139.664C81.8239 139.976 81.1839 140.132 80.3519 140.132C79.7679 140.132 79.0959 140.048 78.3359 139.88C78.3519 139.72 78.3879 139.492 78.4439 139.196C78.5079 138.892 78.5599 138.66 78.5999 138.5C78.8879 138.548 79.2079 138.588 79.5599 138.62C79.9119 138.644 80.2119 138.656 80.4599 138.656C80.6759 138.656 80.8079 138.644 80.8559 138.62C80.8639 138.612 80.8719 138.592 80.8799 138.56C80.8959 138.52 80.9039 138.48 80.9039 138.44C80.9039 138.28 80.8039 138.172 80.6039 138.116C80.5399 138.1 80.2959 138.032 79.8719 137.912C79.4479 137.792 79.0999 137.576 78.8279 137.264C78.5639 136.944 78.4319 136.548 78.4319 136.076C78.4319 135.828 78.4879 135.552 78.5999 135.248C78.7119 134.944 78.8319 134.752 78.9599 134.672C79.0559 134.608 79.2879 134.544 79.6559 134.48C80.0239 134.408 80.3639 134.372 80.6759 134.372C81.3399 134.372 82.0079 134.42 82.6799 134.516C82.6799 134.66 82.6599 134.904 82.6199 135.248C82.5799 135.584 82.5439 135.796 82.5119 135.884C81.8319 135.796 81.2839 135.752 80.8679 135.752C80.6519 135.752 80.5119 135.764 80.4479 135.788C80.4319 135.796 80.4159 135.82 80.3999 135.86C80.3839 135.892 80.3759 135.936 80.3759 135.992C80.3759 136.104 80.4119 136.184 80.4839 136.232C80.5559 136.288 80.7439 136.356 81.0479 136.436C81.4079 136.54 81.7159 136.648 81.9719 136.76C82.2359 136.872 82.4639 137.04 82.6559 137.264C82.8559 137.488 82.9559 137.776 82.9559 138.128Z" fill="#A8DADC"/>
<rect x="8.5" y="50" width="30" height="66.1696" rx="15" fill="#36617C"/>
<path d="M14.0876 37.716V45H12.3956L12.2276 44.076C12.0676 44.388 11.8316 44.636 11.5196 44.82C11.2076 45.004 10.8556 45.096 10.4636 45.096C9.83961 45.096 9.33961 44.872 8.96361 44.424C8.59561 43.976 8.41161 43.304 8.41161 42.408C8.41161 41.728 8.49161 41.168 8.65161 40.728C8.81161 40.288 8.99961 39.972 9.21561 39.78C9.35161 39.66 9.62761 39.56 10.0436 39.48C10.4676 39.4 10.8436 39.36 11.1716 39.36C11.4596 39.36 11.7556 39.388 12.0596 39.444C12.0356 39.06 12.0236 38.848 12.0236 38.808V37.8L14.0876 37.716ZM11.3636 43.488C11.5796 43.488 11.8036 43.452 12.0356 43.38V40.776C11.8036 40.744 11.5476 40.728 11.2676 40.728C11.0276 40.728 10.8756 40.748 10.8116 40.788C10.7236 40.852 10.6516 41.036 10.5956 41.34C10.5476 41.636 10.5236 41.948 10.5236 42.276C10.5236 42.764 10.5956 43.088 10.7396 43.248C10.8916 43.408 11.0996 43.488 11.3636 43.488ZM18.4201 43.56C18.6201 43.56 18.9921 43.54 19.5361 43.5C19.6081 43.5 19.7401 43.492 19.9321 43.476L20.1121 44.712C19.4961 45 18.6961 45.144 17.7121 45.144C16.7921 45.144 16.0841 44.912 15.5881 44.448C15.1001 43.984 14.8561 43.284 14.8561 42.348C14.8561 41.868 14.9161 41.404 15.0361 40.956C15.1641 40.508 15.3081 40.196 15.4681 40.02C15.6361 39.844 15.9481 39.692 16.4041 39.564C16.8601 39.436 17.3121 39.372 17.7601 39.372C18.4801 39.372 19.0201 39.5 19.3801 39.756C19.7401 40.012 19.9761 40.368 20.0881 40.824C20.2001 41.272 20.2561 41.876 20.2561 42.636C19.7121 42.668 19.1801 42.684 18.6601 42.684H16.9561C16.9561 42.94 17.0081 43.132 17.1121 43.26C17.2241 43.388 17.3801 43.472 17.5801 43.512C17.7801 43.544 18.0601 43.56 18.4201 43.56ZM17.0761 40.8C17.0281 40.824 16.9921 40.928 16.9681 41.112C16.9441 41.296 16.9281 41.504 16.9201 41.736H17.5441C17.9201 41.736 18.1921 41.732 18.3601 41.724C18.3601 41.34 18.3041 41.068 18.1921 40.908C18.0881 40.748 17.9041 40.668 17.6401 40.668C17.4241 40.668 17.2361 40.712 17.0761 40.8ZM25.6223 44.832C24.9743 45.048 24.2503 45.156 23.4503 45.156C22.5543 45.156 21.8823 44.932 21.4343 44.484C20.9943 44.028 20.7743 43.32 20.7743 42.36C20.7743 41.888 20.8383 41.424 20.9663 40.968C21.0943 40.504 21.2303 40.192 21.3743 40.032C21.5423 39.848 21.8703 39.692 22.3583 39.564C22.8543 39.436 23.3663 39.372 23.8943 39.372C24.4463 39.372 25.0023 39.42 25.5623 39.516C25.5463 39.716 25.5183 39.952 25.4783 40.224C25.4463 40.488 25.4103 40.724 25.3703 40.932C24.8743 40.9 24.4063 40.884 23.9663 40.884C23.5343 40.884 23.2583 40.908 23.1383 40.956C23.0743 40.98 23.0143 41.144 22.9583 41.448C22.9103 41.752 22.8863 42.036 22.8863 42.3C22.8863 42.652 22.9343 42.924 23.0303 43.116C23.1343 43.3 23.2943 43.428 23.5103 43.5C23.7263 43.572 24.0183 43.608 24.3863 43.608C24.5463 43.608 24.8983 43.592 25.4423 43.56L25.6223 44.832ZM29.5984 45L29.4064 44.244C29.0384 44.844 28.5264 45.144 27.8704 45.144C27.3344 45.144 26.8944 44.996 26.5504 44.7C26.2144 44.396 26.0464 43.972 26.0464 43.428C26.0464 43.092 26.1424 42.8 26.3344 42.552C26.5344 42.296 26.8064 42.116 27.1504 42.012C27.5984 41.884 28.2904 41.812 29.2264 41.796C29.2264 41.268 29.2024 40.988 29.1544 40.956C29.1144 40.924 28.9864 40.908 28.7704 40.908C28.6344 40.908 28.4464 40.916 28.2064 40.932C27.8224 40.948 27.3024 40.992 26.6464 41.064C26.5824 40.632 26.5344 40.168 26.5024 39.672C26.9264 39.584 27.3704 39.512 27.8344 39.456C28.2984 39.392 28.7144 39.36 29.0824 39.36C29.7224 39.36 30.2024 39.468 30.5224 39.684C30.8424 39.892 31.0504 40.168 31.1464 40.512C31.2424 40.856 31.2864 41.292 31.2784 41.82L31.2664 43.584L31.3024 45H29.5984ZM28.5664 43.8C28.7744 43.8 28.9944 43.76 29.2264 43.68V42.792H29.1304C28.5384 42.792 28.2104 42.824 28.1464 42.888C28.1064 42.928 28.0744 42.988 28.0504 43.068C28.0344 43.148 28.0264 43.224 28.0264 43.296C28.0264 43.488 28.0704 43.62 28.1584 43.692C28.2464 43.764 28.3824 43.8 28.5664 43.8ZM37.9169 39.48L36.4769 44.1C36.1969 44.988 35.9449 45.632 35.7209 46.032C35.4969 46.44 35.2729 46.724 35.0489 46.884C34.9209 46.972 34.7169 47.04 34.4369 47.088C34.1649 47.136 33.8689 47.16 33.5489 47.16C33.0689 47.16 32.6849 47.116 32.3969 47.028C32.3889 46.836 32.3969 46.6 32.4209 46.32C32.4449 46.048 32.4769 45.816 32.5169 45.624C32.8529 45.64 33.1809 45.648 33.5009 45.648C33.7409 45.648 33.9209 45.644 34.0409 45.636C34.1609 45.404 34.2729 45.16 34.3769 44.904L33.5489 44.856L31.7009 39.48H33.8729L34.8329 43.344L34.8449 43.572H34.8809L35.7449 39.48H37.9169Z" fill="#A8DADC"/>
<rect x="51.5" y="50" width="30" height="66.1696" rx="15" fill="#36617C"/>
<path d="M58.1735 37.716V45H56.4815L56.3135 44.076C56.1535 44.388 55.9175 44.636 55.6055 44.82C55.2935 45.004 54.9415 45.096 54.5495 45.096C53.9255 45.096 53.4255 44.872 53.0495 44.424C52.6815 43.976 52.4975 43.304 52.4975 42.408C52.4975 41.728 52.5775 41.168 52.7375 40.728C52.8975 40.288 53.0855 39.972 53.3015 39.78C53.4375 39.66 53.7135 39.56 54.1295 39.48C54.5535 39.4 54.9295 39.36 55.2575 39.36C55.5455 39.36 55.8415 39.388 56.1455 39.444C56.1215 39.06 56.1095 38.848 56.1095 38.808V37.8L58.1735 37.716ZM55.4495 43.488C55.6655 43.488 55.8895 43.452 56.1215 43.38V40.776C55.8895 40.744 55.6335 40.728 55.3535 40.728C55.1135 40.728 54.9615 40.748 54.8975 40.788C54.8095 40.852 54.7375 41.036 54.6815 41.34C54.6335 41.636 54.6095 41.948 54.6095 42.276C54.6095 42.764 54.6815 43.088 54.8255 43.248C54.9775 43.408 55.1855 43.488 55.4495 43.488ZM62.446 45L62.254 44.244C61.886 44.844 61.374 45.144 60.718 45.144C60.182 45.144 59.742 44.996 59.398 44.7C59.062 44.396 58.894 43.972 58.894 43.428C58.894 43.092 58.99 42.8 59.182 42.552C59.382 42.296 59.654 42.116 59.998 42.012C60.446 41.884 61.138 41.812 62.074 41.796C62.074 41.268 62.05 40.988 62.002 40.956C61.962 40.924 61.834 40.908 61.618 40.908C61.482 40.908 61.294 40.916 61.054 40.932C60.67 40.948 60.15 40.992 59.494 41.064C59.43 40.632 59.382 40.168 59.35 39.672C59.774 39.584 60.218 39.512 60.682 39.456C61.146 39.392 61.562 39.36 61.93 39.36C62.57 39.36 63.05 39.468 63.37 39.684C63.69 39.892 63.898 40.168 63.994 40.512C64.09 40.856 64.134 41.292 64.126 41.82L64.114 43.584L64.15 45H62.446ZM61.414 43.8C61.622 43.8 61.842 43.76 62.074 43.68V42.792H61.978C61.386 42.792 61.058 42.824 60.994 42.888C60.954 42.928 60.922 42.988 60.898 43.068C60.882 43.148 60.874 43.224 60.874 43.296C60.874 43.488 60.918 43.62 61.006 43.692C61.094 43.764 61.23 43.8 61.414 43.8ZM73.6805 39.864C73.8085 40.056 73.8725 40.8 73.8725 42.096V45H71.8205V42.3V41.652C71.8205 41.356 71.7925 41.18 71.7365 41.124C71.6725 41.06 71.5365 41.028 71.3285 41.028L71.1845 41.04C70.9365 41.056 70.7005 41.112 70.4765 41.208C70.4845 41.376 70.4885 41.672 70.4885 42.096V45H68.4365V42.3V41.58C68.4365 41.332 68.4085 41.18 68.3525 41.124C68.2885 41.06 68.1525 41.028 67.9445 41.028L67.8005 41.04C67.5765 41.048 67.3445 41.1 67.1045 41.196V45H65.0525V39.48H66.7205L66.9365 40.38C67.2005 40.028 67.5045 39.772 67.8485 39.612C68.1925 39.444 68.5405 39.36 68.8925 39.36C69.1885 39.36 69.4685 39.404 69.7325 39.492C70.0045 39.58 70.1925 39.704 70.2965 39.864C70.3445 39.936 70.3845 40.068 70.4165 40.26C70.6725 39.948 70.9645 39.72 71.2925 39.576C71.6205 39.432 71.9485 39.36 72.2765 39.36C72.5725 39.36 72.8525 39.404 73.1165 39.492C73.3885 39.58 73.5765 39.704 73.6805 39.864ZM78.618 39.36C79.194 39.36 79.65 39.552 79.986 39.936C80.33 40.312 80.502 40.972 80.502 41.916C80.502 42.62 80.434 43.196 80.298 43.644C80.162 44.084 80.006 44.376 79.83 44.52C79.654 44.664 79.346 44.78 78.906 44.868C78.474 44.956 78.026 45 77.562 45C77.426 45 77.198 44.992 76.878 44.976V46.68L74.826 46.764V39.48H76.506L76.71 40.332C76.918 40.036 77.182 39.8 77.502 39.624C77.83 39.448 78.202 39.36 78.618 39.36ZM78.138 43.536C78.226 43.472 78.29 43.292 78.33 42.996C78.37 42.692 78.39 42.404 78.39 42.132C78.39 41.684 78.334 41.352 78.222 41.136C78.11 40.92 77.886 40.812 77.55 40.812C77.31 40.812 77.086 40.836 76.878 40.884V43.548L77.214 43.584C77.318 43.592 77.466 43.596 77.658 43.596C77.93 43.596 78.09 43.576 78.138 43.536Z" fill="#A8DADC"/>
<rect x="8.5" y="145" width="30" height="66.1663" rx="15" fill="#36617C"/>
<path d="M13.4784 134.36C14.1024 134.36 14.5824 134.548 14.9184 134.924C15.2624 135.3 15.4344 135.964 15.4344 136.916C15.4344 137.612 15.3624 138.208 15.2184 138.704C15.0824 139.192 14.9264 139.504 14.7504 139.64C14.5424 139.808 14.2344 139.932 13.8264 140.012C13.4184 140.092 12.9544 140.132 12.4344 140.132C12.0344 140.132 11.5864 140.1 11.0904 140.036C10.5944 139.98 10.1504 139.888 9.75844 139.76V132.8L11.8344 132.716V133.844C11.8344 133.908 11.8304 134.056 11.8224 134.288C11.8224 134.52 11.8144 134.716 11.7984 134.876C11.7824 135.028 11.7584 135.144 11.7264 135.224L11.7984 135.308C11.9824 135.028 12.2144 134.8 12.4944 134.624C12.7744 134.448 13.1024 134.36 13.4784 134.36ZM13.1424 138.692C13.1904 138.612 13.2304 138.424 13.2624 138.128C13.3024 137.832 13.3224 137.548 13.3224 137.276C13.3224 136.956 13.3064 136.704 13.2744 136.52C13.2504 136.336 13.1824 136.192 13.0704 136.088C12.9664 135.976 12.8024 135.92 12.5784 135.92C12.3784 135.92 12.1224 135.948 11.8104 136.004V138.716C12.1064 138.764 12.4144 138.788 12.7344 138.788C12.9664 138.788 13.1024 138.756 13.1424 138.692ZM16.2635 132.8L18.3155 132.716V140H16.2635V132.8ZM22.6809 138.56C22.8809 138.56 23.2529 138.54 23.7969 138.5C23.8689 138.5 24.0009 138.492 24.1929 138.476L24.3729 139.712C23.7569 140 22.9569 140.144 21.9729 140.144C21.0529 140.144 20.3449 139.912 19.8489 139.448C19.3609 138.984 19.1169 138.284 19.1169 137.348C19.1169 136.868 19.1769 136.404 19.2969 135.956C19.4249 135.508 19.5689 135.196 19.7289 135.02C19.8969 134.844 20.2089 134.692 20.6649 134.564C21.1209 134.436 21.5729 134.372 22.0209 134.372C22.7409 134.372 23.2809 134.5 23.6409 134.756C24.0009 135.012 24.2369 135.368 24.3489 135.824C24.4609 136.272 24.5169 136.876 24.5169 137.636C23.9729 137.668 23.4409 137.684 22.9209 137.684H21.2169C21.2169 137.94 21.2689 138.132 21.3729 138.26C21.4849 138.388 21.6409 138.472 21.8409 138.512C22.0409 138.544 22.3209 138.56 22.6809 138.56ZM21.3369 135.8C21.2889 135.824 21.2529 135.928 21.2289 136.112C21.2049 136.296 21.1889 136.504 21.1809 136.736H21.8049C22.1809 136.736 22.4529 136.732 22.6209 136.724C22.6209 136.34 22.5649 136.068 22.4529 135.908C22.3489 135.748 22.1649 135.668 21.9009 135.668C21.6849 135.668 21.4969 135.712 21.3369 135.8ZM30.5792 134.828C30.6512 134.916 30.7032 135.136 30.7352 135.488C30.7752 135.84 30.7952 136.376 30.7952 137.096V140H28.7432V137.12V136.628C28.7432 136.372 28.7232 136.212 28.6832 136.148C28.6192 136.068 28.4712 136.028 28.2392 136.028C28.1272 136.028 28.0432 136.032 27.9872 136.04C27.7632 136.048 27.5312 136.1 27.2912 136.196V140H25.2392V134.48H26.9072L27.1352 135.404C27.7112 134.708 28.3992 134.36 29.1992 134.36C29.4872 134.36 29.7552 134.4 30.0032 134.48C30.2592 134.56 30.4512 134.676 30.5792 134.828ZM37.2391 132.716V140H35.5471L35.3791 139.076C35.2191 139.388 34.9831 139.636 34.6711 139.82C34.3591 140.004 34.0071 140.096 33.6151 140.096C32.9911 140.096 32.4911 139.872 32.1151 139.424C31.7471 138.976 31.5631 138.304 31.5631 137.408C31.5631 136.728 31.6431 136.168 31.8031 135.728C31.9631 135.288 32.1511 134.972 32.3671 134.78C32.5031 134.66 32.7791 134.56 33.1951 134.48C33.6191 134.4 33.9951 134.36 34.3231 134.36C34.6111 134.36 34.9071 134.388 35.2111 134.444C35.1871 134.06 35.1751 133.848 35.1751 133.808V132.8L37.2391 132.716ZM34.5151 138.488C34.7311 138.488 34.9551 138.452 35.1871 138.38V135.776C34.9551 135.744 34.6991 135.728 34.4191 135.728C34.1791 135.728 34.0271 135.748 33.9631 135.788C33.8751 135.852 33.8031 136.036 33.7471 136.34C33.6991 136.636 33.6751 136.948 33.6751 137.276C33.6751 137.764 33.7471 138.088 33.8911 138.248C34.0431 138.408 34.2511 138.488 34.5151 138.488Z" fill="#A8DADC"/>
<path d="M61.0076 287.156C60.0476 287.156 59.3276 286.932 58.8476 286.484C58.3756 286.028 58.1396 285.312 58.1396 284.336C58.1396 283.8 58.1876 283.332 58.2836 282.932C58.3876 282.524 58.5116 282.24 58.6556 282.08C58.8396 281.872 59.1756 281.7 59.6636 281.564C60.1596 281.428 60.6236 281.36 61.0556 281.36C62.0876 281.36 62.8236 281.58 63.2636 282.02C63.7036 282.46 63.9236 283.164 63.9236 284.132C63.9236 285.172 63.6876 285.936 63.2156 286.424C62.7436 286.912 62.0076 287.156 61.0076 287.156ZM61.0436 285.752C61.3556 285.752 61.5596 285.644 61.6556 285.428C61.7516 285.204 61.7996 284.812 61.7996 284.252C61.7996 283.86 61.7796 283.56 61.7396 283.352C61.6996 283.136 61.6236 282.98 61.5116 282.884C61.4076 282.78 61.2436 282.728 61.0196 282.728C60.6996 282.728 60.5156 282.756 60.4676 282.812C60.4036 282.868 60.3516 283.044 60.3116 283.34C60.2716 283.636 60.2516 283.944 60.2516 284.264C60.2516 284.808 60.3036 285.192 60.4076 285.416C60.5196 285.64 60.7316 285.752 61.0436 285.752ZM70.2268 281.48V287H68.5588L68.3308 286.076C67.7548 286.772 67.0668 287.12 66.2668 287.12C65.9788 287.12 65.7068 287.08 65.4508 287C65.2028 286.92 65.0148 286.804 64.8868 286.652C64.8148 286.564 64.7588 286.344 64.7188 285.992C64.6868 285.64 64.6708 285.104 64.6708 284.384V281.48H66.7228V284.36C66.7228 284.52 66.7268 284.708 66.7348 284.924C66.7428 285.14 66.7668 285.276 66.8068 285.332C66.8628 285.412 67.0228 285.452 67.2868 285.452L67.4788 285.44C67.7028 285.432 67.9348 285.38 68.1748 285.284V281.48H70.2268ZM73.7548 284.732C73.7548 284.876 73.7588 285.028 73.7668 285.188C73.7748 285.34 73.7988 285.436 73.8388 285.476C73.8948 285.532 74.0908 285.56 74.4268 285.56L74.8348 285.548C74.9068 285.932 74.9428 286.376 74.9428 286.88C74.7908 286.936 74.5668 286.988 74.2708 287.036C73.9828 287.084 73.7068 287.108 73.4428 287.108C72.8908 287.108 72.4628 286.988 72.1588 286.748C71.8628 286.5 71.7148 286.12 71.7148 285.608V282.656H70.8148V281.564L71.7148 281.48L72.2548 280.16L73.7548 280.076V281.48H75.0268V282.656H73.7548V284.732Z" fill="#A8DADC"/>
<path d="M20.2553 280.796C19.9833 280.796 19.7473 280.704 19.5473 280.52C19.3553 280.336 19.2593 280.116 19.2593 279.86C19.2593 279.604 19.3553 279.384 19.5473 279.2C19.7473 279.016 19.9833 278.924 20.2553 278.924C20.5273 278.924 20.7593 279.016 20.9513 279.2C21.1433 279.384 21.2393 279.604 21.2393 279.86C21.2393 280.116 21.1433 280.336 20.9513 280.52C20.7593 280.704 20.5273 280.796 20.2553 280.796ZM19.2233 281.48H21.2753V287H19.2233V281.48ZM27.6328 281.828C27.7048 281.916 27.7568 282.136 27.7888 282.488C27.8288 282.84 27.8488 283.376 27.8488 284.096V287H25.7968V284.12V283.628C25.7968 283.372 25.7768 283.212 25.7368 283.148C25.6728 283.068 25.5248 283.028 25.2928 283.028C25.1808 283.028 25.0968 283.032 25.0408 283.04C24.8168 283.048 24.5848 283.1 24.3448 283.196V287H22.2928V281.48H23.9608L24.1888 282.404C24.7648 281.708 25.4528 281.36 26.2528 281.36C26.5408 281.36 26.8088 281.4 27.0568 281.48C27.3128 281.56 27.5048 281.676 27.6328 281.828Z" fill="#A8DADC"/>
</svg>
