<svg width="90" height="380" viewBox="0 0 90 380" fill="none" xmlns="http://www.w3.org/2000/svg">
<rect width="90" height="380" fill="#457B9D"/>
<g opacity="0.3">
<path fill-rule="evenodd" clip-rule="evenodd" d="M38.958 375.599C38.803 375.747 38.659 375.851 38.526 375.909C38.393 375.968 38.251 375.998 38.1 375.998C37.948 375.998 37.806 375.97 37.673 375.914C37.54 375.858 37.424 375.781 37.325 375.682C37.109 375.466 37 375.209 37 374.912V369.385C37 369.082 37.078 368.847 37.232 368.68C37.498 368.408 37.75 368.272 37.988 368.272C38.226 368.272 38.404 368.296 38.522 368.346C38.639 368.395 38.738 368.457 38.818 368.531C38.924 368.624 39.002 368.723 39.055 368.828C39.108 368.933 39.151 369.011 39.185 369.06C39.219 369.11 39.275 369.134 39.352 369.134C39.429 369.134 39.496 369.11 39.551 369.06L39.709 368.902C40.16 368.482 40.612 368.272 41.063 368.272C41.861 368.272 42.519 368.599 43.039 369.255C43.088 369.323 43.15 369.357 43.224 369.357C43.354 369.357 43.486 369.256 43.619 369.055C43.752 368.854 43.966 368.674 44.263 368.513C44.56 368.352 44.906 368.272 45.302 368.272C45.698 368.272 46.058 368.344 46.383 368.49C46.707 368.635 46.99 368.834 47.231 369.088C47.738 369.62 47.992 370.263 47.992 371.017V374.912C47.992 375.382 47.769 375.713 47.324 375.905C47.188 375.967 47.044 375.998 46.893 375.998C46.741 375.998 46.599 375.97 46.466 375.914C46.333 375.858 46.217 375.781 46.118 375.682C45.908 375.46 45.803 375.203 45.803 374.912V371.045C45.803 370.736 45.726 370.504 45.571 370.349C45.299 370.077 45.049 369.941 44.82 369.941C44.591 369.941 44.412 369.971 44.282 370.029C44.152 370.088 44.034 370.17 43.929 370.275C43.713 370.492 43.605 370.742 43.605 371.026V374.912C43.605 375.382 43.385 375.713 42.946 375.905C42.81 375.967 42.666 375.998 42.515 375.998C42.363 375.998 42.22 375.97 42.083 375.914C41.947 375.858 41.83 375.781 41.731 375.682C41.515 375.466 41.406 375.209 41.406 374.912V371.045C41.406 370.736 41.329 370.504 41.174 370.349C40.902 370.077 40.618 369.941 40.321 369.941C39.826 369.941 39.483 370.133 39.292 370.516C39.23 370.64 39.199 370.779 39.199 370.934V374.912C39.199 375.215 39.118 375.444 38.958 375.599ZM50.219 369.387C50.219 369.084 50.296 368.849 50.451 368.682C50.716 368.41 51.01 368.274 51.332 368.274C51.641 368.274 51.87 368.355 52.018 368.515C52.29 368.794 52.426 369.084 52.426 369.387V374.915C52.426 375.212 52.349 375.437 52.194 375.592C51.922 375.864 51.672 376 51.443 376C51.214 376 51.032 375.971 50.896 375.912C50.76 375.853 50.642 375.777 50.543 375.685C50.327 375.474 50.219 375.218 50.219 374.915V369.387ZM51.327 365.9C51.065 365.9 50.852 365.687 50.852 365.425C50.852 365.162 51.065 364.95 51.327 364.95C51.589 364.95 51.802 365.162 51.802 365.425C51.802 365.687 51.589 365.9 51.327 365.9ZM51.327 364C51.714 364 52.048 364.142 52.329 364.425C52.611 364.709 52.752 364.996 52.752 365.287C52.752 365.577 52.713 365.807 52.635 365.978C52.558 366.148 52.456 366.297 52.329 366.424C52.048 366.708 51.714 366.849 51.327 366.849C50.94 366.849 50.606 366.708 50.324 366.424C50.043 366.141 49.902 365.857 49.902 365.574C49.902 365.092 50.043 364.709 50.324 364.425C50.606 364.142 50.94 364 51.327 364Z" fill="#1D3557"/>
</g>
<path d="M32.3747 21.8654H30.2957L29.9217 20.2814C29.9071 20.2227 29.8814 20.1237 29.8447 19.9844C29.8154 19.8377 29.7787 19.7314 29.7347 19.6654C29.6907 19.592 29.6284 19.5444 29.5477 19.5224C29.3424 19.5297 29.0417 19.5334 28.6457 19.5334V21.8654H26.6657V15.6504C27.5531 15.5844 28.3817 15.5514 29.1517 15.5514C29.8484 15.5514 30.4131 15.61 30.8457 15.7274C31.2784 15.8374 31.6011 16.0317 31.8137 16.3104C32.0337 16.5817 32.1437 16.9557 32.1437 17.4324C32.1437 17.8797 32.0411 18.2317 31.8357 18.4884C31.6304 18.7377 31.3004 18.888 30.8457 18.9394V19.0054C31.1024 19.0274 31.3151 19.1117 31.4837 19.2584C31.6597 19.3977 31.7771 19.5774 31.8357 19.7974L32.3747 21.8654ZM28.6457 18.2904C28.7117 18.2977 28.8401 18.3014 29.0307 18.3014C29.5954 18.3014 29.9254 18.2537 30.0207 18.1584C30.1087 18.0704 30.1527 17.865 30.1527 17.5424C30.1527 17.2417 30.0721 17.0364 29.9107 16.9264C29.7567 16.8164 29.5001 16.7614 29.1407 16.7614C29.0601 16.7614 28.8951 16.7687 28.6457 16.7834V18.2904ZM33.5416 15.5954H38.1066V16.9154H35.5216V18.0594H37.6996V19.2474H35.5216V20.5234H38.0956V21.8654H33.5416V15.5954ZM43.1262 15.5954H45.2162L43.5222 21.8654H40.6512L38.9462 15.5954H41.0472L42.0592 20.5014H42.1142L43.1262 15.5954ZM46.2646 15.5954H50.8296V16.9154H48.2446V18.0594H50.4226V19.2474H48.2446V20.5234H50.8186V21.8654H46.2646V15.5954ZM57.9282 21.8654H55.8492L55.4752 20.2814C55.4606 20.2227 55.4349 20.1237 55.3982 19.9844C55.3689 19.8377 55.3322 19.7314 55.2882 19.6654C55.2442 19.592 55.1819 19.5444 55.1012 19.5224C54.8959 19.5297 54.5952 19.5334 54.1992 19.5334V21.8654H52.2192V15.6504C53.1066 15.5844 53.9352 15.5514 54.7052 15.5514C55.4019 15.5514 55.9666 15.61 56.3992 15.7274C56.8319 15.8374 57.1546 16.0317 57.3672 16.3104C57.5872 16.5817 57.6972 16.9557 57.6972 17.4324C57.6972 17.8797 57.5946 18.2317 57.3892 18.4884C57.1839 18.7377 56.8539 18.888 56.3992 18.9394V19.0054C56.6559 19.0274 56.8686 19.1117 57.0372 19.2584C57.2132 19.3977 57.3306 19.5774 57.3892 19.7974L57.9282 21.8654ZM54.1992 18.2904C54.2652 18.2977 54.3936 18.3014 54.5842 18.3014C55.1489 18.3014 55.4789 18.2537 55.5742 18.1584C55.6622 18.0704 55.7062 17.865 55.7062 17.5424C55.7062 17.2417 55.6256 17.0364 55.4642 16.9264C55.3102 16.8164 55.0536 16.7614 54.6942 16.7614C54.6136 16.7614 54.4486 16.7687 54.1992 16.7834V18.2904ZM63.2201 18.5544C63.7188 18.613 64.0744 18.7817 64.2871 19.0604C64.4998 19.3317 64.6061 19.6617 64.6061 20.0504C64.6061 20.2924 64.5694 20.5234 64.4961 20.7434C64.4228 20.956 64.3348 21.1394 64.2321 21.2934C64.1294 21.44 64.0414 21.5354 63.9681 21.5794C63.6748 21.77 62.7801 21.8654 61.2841 21.8654H59.1501V15.5954H61.7351C62.3218 15.5954 62.7948 15.6284 63.1541 15.6944C63.5208 15.753 63.8178 15.8924 64.0451 16.1124C64.2724 16.325 64.3861 16.6514 64.3861 17.0914C64.3861 17.4727 64.2908 17.7807 64.1001 18.0154C63.9168 18.25 63.6234 18.4114 63.2201 18.4994V18.5544ZM62.3401 16.9264C62.2668 16.853 62.1788 16.809 62.0761 16.7944C61.9808 16.7724 61.8268 16.7614 61.6141 16.7614C61.4014 16.7614 61.2401 16.765 61.1301 16.7724V18.1144H61.2401C61.2768 18.1144 61.4308 18.1144 61.7021 18.1144C61.9734 18.1144 62.1531 18.096 62.2411 18.0594C62.3071 18.03 62.3658 17.953 62.4171 17.8284C62.4758 17.7037 62.5051 17.568 62.5051 17.4214C62.5051 17.2014 62.4501 17.0364 62.3401 16.9264ZM62.5271 20.6004C62.5784 20.5564 62.6188 20.4757 62.6481 20.3584C62.6848 20.2337 62.7031 20.109 62.7031 19.9844C62.7031 19.8304 62.6811 19.6874 62.6371 19.5554C62.6004 19.416 62.5491 19.317 62.4831 19.2584C62.4171 19.1924 62.3218 19.1484 62.1971 19.1264C62.0798 19.1044 61.8781 19.0934 61.5921 19.0934C61.4088 19.0934 61.2548 19.097 61.1301 19.1044V20.6994C61.4748 20.7067 61.7828 20.703 62.0541 20.6884C62.3254 20.6664 62.4831 20.637 62.5271 20.6004Z" fill="white"/>
<rect x="51.995" y="211" width="65" height="28" rx="14" transform="rotate(-90 51.995 211)" fill="#36617C"/>
<path d="M47.9589 140H50.454C51.5819 140 52.4169 139.443 52.4169 138.486C52.4169 137.666 51.7968 137.246 51.1425 137.197V137.144C51.7089 137.036 52.1434 136.641 52.1434 135.981C52.1434 135.166 51.4598 134.668 50.4247 134.668H47.9589V140ZM49.2528 135.571H50.0975C50.5956 135.571 50.8641 135.815 50.8641 136.191C50.8641 136.582 50.5907 136.836 49.9266 136.836H49.2528V135.571ZM49.2528 137.666H50.1659C50.7811 137.666 51.0887 137.949 51.0887 138.389C51.0887 138.823 50.8007 139.102 50.0096 139.102H49.2528V137.666ZM55.4022 140H56.7059V138.086L58.5956 134.668H57.1942L56.0956 136.875H56.0468L54.9481 134.668H53.5126L55.4022 138.115V140ZM64.3446 136.475C64.3446 135.483 63.6561 134.668 62.3866 134.668H60.0331V140H61.3368V138.33H62.3768C63.6464 138.33 64.3446 137.476 64.3446 136.475ZM63.0165 136.504C63.0165 137.041 62.704 137.383 62.162 137.383H61.3319V135.63H62.1132C62.6844 135.63 63.0165 135.947 63.0165 136.504ZM66.4901 140L66.8759 138.75H68.6581L69.0341 140H70.4208L68.5946 134.668H67.0126L65.1815 140H66.4901ZM67.8036 135.801L68.4139 137.842H67.12L67.7401 135.801H67.8036ZM71.6776 138.447C71.6923 139.346 72.41 140.098 73.9384 140.098C75.4423 140.098 76.2382 139.385 76.2382 138.384C76.2382 137.446 75.618 137.036 74.7196 136.86L73.9335 136.709C73.3817 136.597 73.1083 136.436 73.1083 136.123C73.1083 135.781 73.4159 135.522 73.9774 135.522C74.5634 135.522 74.9052 135.815 74.9344 136.187H76.1405C76.1307 135.337 75.3983 134.565 73.9823 134.565C72.6737 134.565 71.7997 135.22 71.7997 136.221C71.7997 137.09 72.3563 137.544 73.3524 137.744L74.0995 137.896C74.6659 138.013 74.9442 138.179 74.9442 138.511C74.9442 138.872 74.6317 139.131 73.9921 139.131C73.3573 139.131 72.9569 138.833 72.9276 138.447H71.6776ZM77.7343 138.447C77.7489 139.346 78.4667 140.098 79.995 140.098C81.4989 140.098 82.2948 139.385 82.2948 138.384C82.2948 137.446 81.6747 137.036 80.7762 136.86L79.9901 136.709C79.4384 136.597 79.1649 136.436 79.1649 136.123C79.1649 135.781 79.4725 135.522 80.0341 135.522C80.62 135.522 80.9618 135.815 80.9911 136.187H82.1971C82.1874 135.337 81.455 134.565 80.0389 134.565C78.7303 134.565 77.8563 135.22 77.8563 136.221C77.8563 137.09 78.413 137.544 79.4091 137.744L80.1561 137.896C80.7225 138.013 81.0009 138.179 81.0009 138.511C81.0009 138.872 80.6884 139.131 80.0487 139.131C79.4139 139.131 79.0135 138.833 78.9843 138.447H77.7343Z" fill="white"/>
<rect x="8" y="50" width="30" height="66.1696" rx="15" fill="#36617C"/>
<path d="M13.1064 42.3145C13.1064 40.6348 12.2812 39.668 10.5625 39.668H8.38477V45H10.5625C12.2617 45 13.1064 44.0186 13.1064 42.3145ZM11.7686 42.3389C11.7686 43.6475 11.1875 44.0039 10.3477 44.0039H9.69336V40.6641H10.3477C11.4023 40.6641 11.7686 41.3525 11.7686 42.3389ZM18.6699 44.0039H16.2139V42.7783H18.5186V41.8506H16.2139V40.6641H18.6699V39.668H14.9199V45H18.6699V44.0039ZM21.709 42.041C21.709 41.1279 22.0996 40.6055 22.8027 40.6055C23.4229 40.6055 23.833 41.0254 23.833 41.6309H25.0879V41.4893C25.0879 40.3223 24.1113 39.5703 22.793 39.5703C21.2549 39.5703 20.376 40.5371 20.376 42.041V42.6416C20.376 44.1357 21.2549 45.0977 22.793 45.0977C24.0967 45.0977 25.0879 44.3701 25.0879 43.2227V43.0762H23.833C23.833 43.6523 23.4229 44.0674 22.7979 44.0674C22.0996 44.0674 21.709 43.5449 21.709 42.6465V42.041ZM27.7168 45L28.1025 43.75H29.8848L30.2607 45H31.6475L29.8213 39.668H28.2393L26.4082 45H27.7168ZM29.0303 40.8008L29.6406 42.8418H28.3467L28.9668 40.8008H29.0303ZM34.0762 45H35.3799V43.0859L37.2695 39.668H35.8682L34.7695 41.875H34.7207L33.6221 39.668H32.1865L34.0762 43.1152V45Z" fill="white"/>
<rect x="51" y="50" width="30" height="66.1696" rx="15" fill="#36617C"/>
<path d="M58.4824 42.3145C58.4824 40.6348 57.6572 39.668 55.9385 39.668H53.7607V45H55.9385C57.6377 45 58.4824 44.0186 58.4824 42.3145ZM57.1445 42.3389C57.1445 43.6475 56.5635 44.0039 55.7236 44.0039H55.0693V40.6641H55.7236C56.7783 40.6641 57.1445 41.3525 57.1445 42.3389ZM60.999 45L61.3848 43.75H63.167L63.543 45H64.9297L63.1035 39.668H61.5215L59.6904 45H60.999ZM62.3125 40.8008L62.9229 42.8418H61.6289L62.249 40.8008H62.3125ZM67.6758 45V41.6504H67.7441L68.9697 44.2188H69.751L70.9717 41.6504H71.0303V45H72.2119V39.668H70.874L69.3896 42.7637H69.3457L67.8613 39.668H66.5186V45H67.6758ZM78.625 41.4746C78.625 40.4834 77.9365 39.668 76.667 39.668H74.3135V45H75.6172V43.3301H76.6572C77.9268 43.3301 78.625 42.4756 78.625 41.4746ZM77.2969 41.5039C77.2969 42.041 76.9844 42.3828 76.4424 42.3828H75.6123V40.6299H76.3936C76.9648 40.6299 77.2969 40.9473 77.2969 41.5039Z" fill="white"/>
<rect x="8" y="145" width="30" height="66.1663" rx="15" fill="#36617C"/>
<path d="M8.33118 140H10.8263C11.9542 140 12.7892 139.443 12.7892 138.486C12.7892 137.666 12.1691 137.246 11.5148 137.197V137.144C12.0812 137.036 12.5157 136.641 12.5157 135.981C12.5157 135.166 11.8322 134.668 10.797 134.668H8.33118V140ZM9.62512 135.571H10.4698C10.9679 135.571 11.2365 135.815 11.2365 136.191C11.2365 136.582 10.963 136.836 10.299 136.836H9.62512V135.571ZM9.62512 137.666H10.5382C11.1534 137.666 11.4611 137.949 11.4611 138.389C11.4611 138.823 11.173 139.102 10.382 139.102H9.62512V137.666ZM18.172 138.96H15.882V134.668H14.5734V140H18.172V138.96ZM23.5792 139.004H21.1232V137.778H23.4279V136.851H21.1232V135.664H23.5792V134.668H19.8292V140H23.5792V139.004ZM26.7355 140V136.753H26.7843L29.0988 140H30.1388V134.668H28.9132V137.886H28.8644L26.5597 134.668H25.5148V140H26.7355ZM36.9572 137.314C36.9572 135.635 36.132 134.668 34.4132 134.668H32.2355V140H34.4132C36.1124 140 36.9572 139.019 36.9572 137.314ZM35.6193 137.339C35.6193 138.647 35.0382 139.004 34.1984 139.004H33.5441V135.664H34.1984C35.2531 135.664 35.6193 136.353 35.6193 137.339Z" fill="white"/>
<path d="M59.9336 286.098C61.5205 286.098 62.4238 285.126 62.4238 283.637V283.036C62.4238 281.542 61.5156 280.57 59.9287 280.57C58.3467 280.57 57.4385 281.537 57.4385 283.036V283.637C57.4385 285.126 58.3516 286.098 59.9336 286.098ZM59.9336 285.077C59.2061 285.077 58.7715 284.535 58.7715 283.642V283.021C58.7715 282.128 59.2061 281.591 59.9336 281.591C60.6562 281.591 61.0908 282.128 61.0908 283.021V283.642C61.0908 284.535 60.6562 285.077 59.9336 285.077ZM66.5713 285.048C65.9609 285.048 65.5361 284.687 65.5361 283.998V280.668H64.2227V284.145C64.2227 285.336 65.126 286.098 66.5713 286.098C68.0166 286.098 68.9199 285.331 68.9199 284.145V280.668H67.6113V283.998C67.6113 284.682 67.1816 285.048 66.5713 285.048ZM73.292 286V281.688H74.8398V280.668H70.4355V281.688H71.9834V286H73.292Z" fill="white"/>
<path d="M20.2939 286V280.668H18.9854V286H20.2939ZM23.6064 286V282.753H23.6553L25.9697 286H27.0098V280.668H25.7842V283.886H25.7354L23.4307 280.668H22.3857V286H23.6064Z" fill="white"/>
</svg>
