<svg width="91" height="380" viewBox="0 0 91 380" fill="none" xmlns="http://www.w3.org/2000/svg">
<rect x="0.25" width="90" height="380" fill="#457B9D"/>
<g opacity="0.5">
<path fill-rule="evenodd" clip-rule="evenodd" d="M39.208 375.599C39.053 375.747 38.909 375.851 38.776 375.909C38.643 375.968 38.501 375.998 38.35 375.998C38.198 375.998 38.056 375.97 37.923 375.914C37.79 375.858 37.674 375.781 37.575 375.682C37.359 375.466 37.25 375.209 37.25 374.912V369.385C37.25 369.082 37.328 368.847 37.482 368.68C37.748 368.408 38 368.272 38.238 368.272C38.476 368.272 38.654 368.296 38.772 368.346C38.889 368.395 38.988 368.457 39.068 368.531C39.174 368.624 39.252 368.723 39.305 368.828C39.358 368.933 39.401 369.011 39.435 369.06C39.469 369.11 39.525 369.134 39.602 369.134C39.679 369.134 39.746 369.11 39.801 369.06L39.959 368.902C40.41 368.482 40.862 368.272 41.313 368.272C42.111 368.272 42.769 368.599 43.289 369.255C43.338 369.323 43.4 369.357 43.474 369.357C43.604 369.357 43.736 369.256 43.869 369.055C44.002 368.854 44.216 368.674 44.513 368.513C44.81 368.352 45.156 368.272 45.552 368.272C45.948 368.272 46.308 368.344 46.633 368.49C46.957 368.635 47.24 368.834 47.481 369.088C47.988 369.62 48.242 370.263 48.242 371.017V374.912C48.242 375.382 48.019 375.713 47.574 375.905C47.438 375.967 47.294 375.998 47.143 375.998C46.991 375.998 46.849 375.97 46.716 375.914C46.583 375.858 46.467 375.781 46.368 375.682C46.158 375.46 46.053 375.203 46.053 374.912V371.045C46.053 370.736 45.976 370.504 45.821 370.349C45.549 370.077 45.299 369.941 45.07 369.941C44.841 369.941 44.662 369.971 44.532 370.029C44.402 370.088 44.284 370.17 44.179 370.275C43.963 370.492 43.855 370.742 43.855 371.026V374.912C43.855 375.382 43.635 375.713 43.196 375.905C43.06 375.967 42.916 375.998 42.765 375.998C42.613 375.998 42.47 375.97 42.333 375.914C42.197 375.858 42.08 375.781 41.981 375.682C41.765 375.466 41.656 375.209 41.656 374.912V371.045C41.656 370.736 41.579 370.504 41.424 370.349C41.152 370.077 40.868 369.941 40.571 369.941C40.076 369.941 39.733 370.133 39.542 370.516C39.48 370.64 39.449 370.779 39.449 370.934V374.912C39.449 375.215 39.368 375.444 39.208 375.599ZM50.469 369.387C50.469 369.084 50.546 368.849 50.701 368.682C50.966 368.41 51.26 368.274 51.582 368.274C51.891 368.274 52.12 368.355 52.268 368.515C52.54 368.794 52.676 369.084 52.676 369.387V374.915C52.676 375.212 52.599 375.437 52.444 375.592C52.172 375.864 51.922 376 51.693 376C51.464 376 51.282 375.971 51.146 375.912C51.01 375.853 50.892 375.777 50.793 375.685C50.577 375.474 50.469 375.218 50.469 374.915V369.387ZM51.577 365.9C51.315 365.9 51.102 365.687 51.102 365.425C51.102 365.162 51.315 364.95 51.577 364.95C51.839 364.95 52.052 365.162 52.052 365.425C52.052 365.687 51.839 365.9 51.577 365.9ZM51.577 364C51.964 364 52.298 364.142 52.579 364.425C52.861 364.709 53.002 364.996 53.002 365.287C53.002 365.577 52.963 365.807 52.885 365.978C52.808 366.148 52.706 366.297 52.579 366.424C52.298 366.708 51.964 366.849 51.577 366.849C51.19 366.849 50.856 366.708 50.574 366.424C50.293 366.141 50.152 365.857 50.152 365.574C50.152 365.092 50.293 364.709 50.574 364.425C50.856 364.142 51.19 364 51.577 364Z" fill="#1D3557"/>
</g>
<path d="M24.0995 22.8654H21.8315L21.4235 21.1374C21.4075 21.0734 21.3795 20.9654 21.3395 20.8134C21.3075 20.6534 21.2675 20.5374 21.2195 20.4654C21.1715 20.3854 21.1035 20.3334 21.0155 20.3094C20.7915 20.3174 20.4635 20.3214 20.0315 20.3214V22.8654H17.8715V16.0854C18.8395 16.0134 19.7435 15.9774 20.5835 15.9774C21.3435 15.9774 21.9595 16.0414 22.4315 16.1694C22.9035 16.2894 23.2555 16.5014 23.4875 16.8054C23.7275 17.1014 23.8475 17.5094 23.8475 18.0294C23.8475 18.5174 23.7355 18.9014 23.5115 19.1814C23.2875 19.4534 22.9275 19.6174 22.4315 19.6734V19.7454C22.7115 19.7694 22.9435 19.8614 23.1275 20.0214C23.3195 20.1734 23.4475 20.3694 23.5115 20.6094L24.0995 22.8654ZM20.0315 18.9654C20.1035 18.9734 20.2435 18.9774 20.4515 18.9774C21.0675 18.9774 21.4275 18.9254 21.5315 18.8214C21.6275 18.7254 21.6755 18.5014 21.6755 18.1494C21.6755 17.8214 21.5875 17.5974 21.4115 17.4774C21.2435 17.3574 20.9635 17.2974 20.5715 17.2974C20.4835 17.2974 20.3035 17.3054 20.0315 17.3214V18.9654ZM24.7724 16.0254H29.7524V17.4654H26.9324V18.7134H29.3084V20.0094H26.9324V21.4014H29.7404V22.8654H24.7724V16.0254ZM34.6284 16.0254H36.9084L35.0604 22.8654H31.9284L30.0684 16.0254H32.3604L33.4644 21.3774H33.5244L34.6284 16.0254ZM37.4521 16.0254H42.4321V17.4654H39.6121V18.7134H41.9881V20.0094H39.6121V21.4014H42.4201V22.8654H37.4521V16.0254ZM49.576 22.8654H47.308L46.9 21.1374C46.884 21.0734 46.856 20.9654 46.816 20.8134C46.784 20.6534 46.744 20.5374 46.696 20.4654C46.648 20.3854 46.58 20.3334 46.492 20.3094C46.268 20.3174 45.94 20.3214 45.508 20.3214V22.8654H43.348V16.0854C44.316 16.0134 45.22 15.9774 46.06 15.9774C46.82 15.9774 47.436 16.0414 47.908 16.1694C48.38 16.2894 48.732 16.5014 48.964 16.8054C49.204 17.1014 49.324 17.5094 49.324 18.0294C49.324 18.5174 49.212 18.9014 48.988 19.1814C48.764 19.4534 48.404 19.6174 47.908 19.6734V19.7454C48.188 19.7694 48.42 19.8614 48.604 20.0214C48.796 20.1734 48.924 20.3694 48.988 20.6094L49.576 22.8654ZM45.508 18.9654C45.58 18.9734 45.72 18.9774 45.928 18.9774C46.544 18.9774 46.904 18.9254 47.008 18.8214C47.104 18.7254 47.152 18.5014 47.152 18.1494C47.152 17.8214 47.064 17.5974 46.888 17.4774C46.72 17.3574 46.44 17.2974 46.048 17.2974C45.96 17.2974 45.78 17.3054 45.508 17.3214V18.9654ZM54.749 19.2534C55.293 19.3174 55.681 19.5014 55.913 19.8054C56.145 20.1014 56.261 20.4614 56.261 20.8854C56.261 21.1494 56.221 21.4014 56.141 21.6414C56.061 21.8734 55.965 22.0734 55.853 22.2414C55.741 22.4014 55.645 22.5054 55.565 22.5534C55.245 22.7614 54.269 22.8654 52.637 22.8654H50.309V16.0254H53.129C53.769 16.0254 54.285 16.0614 54.677 16.1334C55.077 16.1974 55.401 16.3494 55.649 16.5894C55.897 16.8214 56.021 17.1774 56.021 17.6574C56.021 18.0734 55.917 18.4094 55.709 18.6654C55.509 18.9214 55.189 19.0974 54.749 19.1934V19.2534ZM53.789 17.4774C53.709 17.3974 53.613 17.3494 53.501 17.3334C53.397 17.3094 53.229 17.2974 52.997 17.2974C52.765 17.2974 52.589 17.3014 52.469 17.3094V18.7734H52.589C52.629 18.7734 52.797 18.7734 53.093 18.7734C53.389 18.7734 53.585 18.7534 53.681 18.7134C53.753 18.6814 53.817 18.5974 53.873 18.4614C53.937 18.3254 53.969 18.1774 53.969 18.0174C53.969 17.7774 53.909 17.5974 53.789 17.4774ZM53.993 21.4854C54.049 21.4374 54.093 21.3494 54.125 21.2214C54.165 21.0854 54.185 20.9494 54.185 20.8134C54.185 20.6454 54.161 20.4894 54.113 20.3454C54.073 20.1934 54.017 20.0854 53.945 20.0214C53.873 19.9494 53.769 19.9014 53.633 19.8774C53.505 19.8534 53.285 19.8414 52.973 19.8414C52.773 19.8414 52.605 19.8454 52.469 19.8534V21.5934C52.845 21.6014 53.181 21.5974 53.477 21.5814C53.773 21.5574 53.945 21.5254 53.993 21.4854ZM56.9725 18.9174H60.5725V20.6334H56.9725V18.9174ZM63.5504 17.8734C63.5504 18.0414 63.6344 18.1734 63.8024 18.2694C63.9784 18.3654 64.2504 18.4694 64.6184 18.5814C65.0584 18.7254 65.4184 18.8654 65.6984 19.0014C65.9864 19.1374 66.2344 19.3494 66.4424 19.6374C66.6584 19.9254 66.7664 20.3014 66.7664 20.7654C66.7664 22.2534 65.7984 22.9974 63.8624 22.9974C63.5424 22.9974 63.1504 22.9694 62.6864 22.9134C62.2304 22.8574 61.8144 22.7854 61.4384 22.6974C61.4544 22.5294 61.4864 22.2854 61.5344 21.9654C61.5904 21.6374 61.6424 21.3934 61.6904 21.2334C61.9704 21.2734 62.3904 21.3214 62.9504 21.3774C63.5184 21.4334 63.9464 21.4614 64.2344 21.4614C64.4024 21.4614 64.5024 21.4494 64.5344 21.4254C64.5824 21.3934 64.6184 21.3414 64.6424 21.2694C64.6744 21.1894 64.6904 21.1214 64.6904 21.0654C64.6904 20.9054 64.6144 20.7854 64.4624 20.7054C64.3104 20.6174 64.0504 20.5134 63.6824 20.3934C63.2424 20.2574 62.8784 20.1174 62.5904 19.9734C62.3024 19.8294 62.0504 19.6054 61.8344 19.3014C61.6184 18.9974 61.5104 18.5974 61.5104 18.1014C61.5104 17.7494 61.5904 17.4054 61.7504 17.0694C61.9104 16.7254 62.0744 16.4934 62.2424 16.3734C62.3704 16.2854 62.6344 16.2014 63.0344 16.1214C63.4344 16.0414 63.8104 16.0014 64.1624 16.0014C65.0584 16.0014 65.7904 16.0854 66.3584 16.2534C66.3504 16.4134 66.3224 16.6334 66.2744 16.9134C66.2344 17.1934 66.1904 17.4494 66.1424 17.6814L65.8664 17.6694C64.8264 17.5974 64.1624 17.5614 63.8744 17.5614C63.7544 17.5614 63.6864 17.5654 63.6704 17.5734C63.6384 17.5894 63.6104 17.6254 63.5864 17.6814C63.5624 17.7374 63.5504 17.8014 63.5504 17.8734ZM71.2056 22.8654H69.0456V17.5254H67.1136V16.0254H73.1376V17.5254H71.2056V22.8654Z" fill="#A8DADC"/>
<rect x="52.245" y="211" width="65" height="28" rx="14" transform="rotate(-90 52.245 211)" fill="#36617C"/>
<path d="M51.7858 134.36C52.4098 134.36 52.8898 134.548 53.2258 134.924C53.5698 135.3 53.7418 135.964 53.7418 136.916C53.7418 137.612 53.6698 138.208 53.5258 138.704C53.3898 139.192 53.2338 139.504 53.0578 139.64C52.8498 139.808 52.5418 139.932 52.1338 140.012C51.7258 140.092 51.2618 140.132 50.7418 140.132C50.3418 140.132 49.8938 140.1 49.3978 140.036C48.9018 139.98 48.4578 139.888 48.0658 139.76V132.8L50.1418 132.716V133.844C50.1418 133.908 50.1378 134.056 50.1298 134.288C50.1298 134.52 50.1218 134.716 50.1058 134.876C50.0898 135.028 50.0658 135.144 50.0338 135.224L50.1058 135.308C50.2898 135.028 50.5218 134.8 50.8018 134.624C51.0818 134.448 51.4098 134.36 51.7858 134.36ZM51.4498 138.692C51.4978 138.612 51.5378 138.424 51.5698 138.128C51.6098 137.832 51.6298 137.548 51.6298 137.276C51.6298 136.956 51.6138 136.704 51.5818 136.52C51.5578 136.336 51.4898 136.192 51.3778 136.088C51.2738 135.976 51.1098 135.92 50.8858 135.92C50.6858 135.92 50.4298 135.948 50.1178 136.004V138.716C50.4138 138.764 50.7218 138.788 51.0418 138.788C51.2738 138.788 51.4098 138.756 51.4498 138.692ZM60.2468 134.48L58.8068 139.1C58.5268 139.988 58.2748 140.632 58.0508 141.032C57.8268 141.44 57.6028 141.724 57.3788 141.884C57.2508 141.972 57.0468 142.04 56.7668 142.088C56.4948 142.136 56.1988 142.16 55.8788 142.16C55.3988 142.16 55.0148 142.116 54.7268 142.028C54.7188 141.836 54.7268 141.6 54.7508 141.32C54.7748 141.048 54.8068 140.816 54.8468 140.624C55.1828 140.64 55.5108 140.648 55.8308 140.648C56.0708 140.648 56.2508 140.644 56.3708 140.636C56.4908 140.404 56.6028 140.16 56.7068 139.904L55.8788 139.856L54.0308 134.48H56.2028L57.1628 138.344L57.1748 138.572H57.2108L58.0748 134.48H60.2468ZM64.5143 134.36C65.0903 134.36 65.5463 134.552 65.8823 134.936C66.2263 135.312 66.3983 135.972 66.3983 136.916C66.3983 137.62 66.3303 138.196 66.1943 138.644C66.0583 139.084 65.9023 139.376 65.7263 139.52C65.5503 139.664 65.2423 139.78 64.8023 139.868C64.3703 139.956 63.9223 140 63.4583 140C63.3223 140 63.0943 139.992 62.7743 139.976V141.68L60.7223 141.764V134.48H62.4023L62.6063 135.332C62.8143 135.036 63.0783 134.8 63.3983 134.624C63.7263 134.448 64.0983 134.36 64.5143 134.36ZM64.0343 138.536C64.1223 138.472 64.1863 138.292 64.2263 137.996C64.2663 137.692 64.2863 137.404 64.2863 137.132C64.2863 136.684 64.2303 136.352 64.1183 136.136C64.0063 135.92 63.7823 135.812 63.4463 135.812C63.2063 135.812 62.9823 135.836 62.7743 135.884V138.548L63.1103 138.584C63.2143 138.592 63.3623 138.596 63.5543 138.596C63.8263 138.596 63.9863 138.576 64.0343 138.536ZM70.4908 140L70.2988 139.244C69.9308 139.844 69.4188 140.144 68.7628 140.144C68.2268 140.144 67.7868 139.996 67.4428 139.7C67.1068 139.396 66.9388 138.972 66.9388 138.428C66.9388 138.092 67.0348 137.8 67.2268 137.552C67.4268 137.296 67.6988 137.116 68.0428 137.012C68.4908 136.884 69.1828 136.812 70.1188 136.796C70.1188 136.268 70.0948 135.988 70.0468 135.956C70.0068 135.924 69.8788 135.908 69.6628 135.908C69.5268 135.908 69.3388 135.916 69.0988 135.932C68.7148 135.948 68.1948 135.992 67.5388 136.064C67.4748 135.632 67.4268 135.168 67.3948 134.672C67.8188 134.584 68.2628 134.512 68.7268 134.456C69.1908 134.392 69.6068 134.36 69.9748 134.36C70.6148 134.36 71.0948 134.468 71.4148 134.684C71.7348 134.892 71.9428 135.168 72.0388 135.512C72.1348 135.856 72.1788 136.292 72.1708 136.82L72.1588 138.584L72.1948 140H70.4908ZM69.4588 138.8C69.6668 138.8 69.8868 138.76 70.1188 138.68V137.792H70.0228C69.4308 137.792 69.1028 137.824 69.0388 137.888C68.9988 137.928 68.9668 137.988 68.9428 138.068C68.9268 138.148 68.9188 138.224 68.9188 138.296C68.9188 138.488 68.9628 138.62 69.0508 138.692C69.1388 138.764 69.2748 138.8 69.4588 138.8ZM77.5613 138.128C77.5613 138.84 77.3333 139.352 76.8773 139.664C76.4293 139.976 75.7893 140.132 74.9573 140.132C74.3733 140.132 73.7013 140.048 72.9413 139.88C72.9573 139.72 72.9933 139.492 73.0493 139.196C73.1133 138.892 73.1653 138.66 73.2053 138.5C73.4933 138.548 73.8133 138.588 74.1653 138.62C74.5173 138.644 74.8173 138.656 75.0653 138.656C75.2813 138.656 75.4133 138.644 75.4613 138.62C75.4693 138.612 75.4773 138.592 75.4853 138.56C75.5013 138.52 75.5093 138.48 75.5093 138.44C75.5093 138.28 75.4093 138.172 75.2093 138.116C75.1453 138.1 74.9013 138.032 74.4773 137.912C74.0533 137.792 73.7053 137.576 73.4333 137.264C73.1693 136.944 73.0373 136.548 73.0373 136.076C73.0373 135.828 73.0933 135.552 73.2053 135.248C73.3173 134.944 73.4373 134.752 73.5653 134.672C73.6613 134.608 73.8933 134.544 74.2613 134.48C74.6293 134.408 74.9693 134.372 75.2813 134.372C75.9453 134.372 76.6133 134.42 77.2853 134.516C77.2853 134.66 77.2653 134.904 77.2253 135.248C77.1853 135.584 77.1493 135.796 77.1173 135.884C76.4373 135.796 75.8893 135.752 75.4733 135.752C75.2573 135.752 75.1173 135.764 75.0533 135.788C75.0373 135.796 75.0213 135.82 75.0053 135.86C74.9893 135.892 74.9813 135.936 74.9813 135.992C74.9813 136.104 75.0173 136.184 75.0893 136.232C75.1613 136.288 75.3493 136.356 75.6533 136.436C76.0133 136.54 76.3213 136.648 76.5773 136.76C76.8413 136.872 77.0693 137.04 77.2613 137.264C77.4613 137.488 77.5613 137.776 77.5613 138.128ZM82.7059 138.128C82.7059 138.84 82.4779 139.352 82.0219 139.664C81.5739 139.976 80.9339 140.132 80.1019 140.132C79.5179 140.132 78.8459 140.048 78.0859 139.88C78.1019 139.72 78.1379 139.492 78.1939 139.196C78.2579 138.892 78.3099 138.66 78.3499 138.5C78.6379 138.548 78.9579 138.588 79.3099 138.62C79.6619 138.644 79.9619 138.656 80.2099 138.656C80.4259 138.656 80.5579 138.644 80.6059 138.62C80.6139 138.612 80.6219 138.592 80.6299 138.56C80.6459 138.52 80.6539 138.48 80.6539 138.44C80.6539 138.28 80.5539 138.172 80.3539 138.116C80.2899 138.1 80.0459 138.032 79.6219 137.912C79.1979 137.792 78.8499 137.576 78.5779 137.264C78.3139 136.944 78.1819 136.548 78.1819 136.076C78.1819 135.828 78.2379 135.552 78.3499 135.248C78.4619 134.944 78.5819 134.752 78.7099 134.672C78.8059 134.608 79.0379 134.544 79.4059 134.48C79.7739 134.408 80.1139 134.372 80.4259 134.372C81.0899 134.372 81.7579 134.42 82.4299 134.516C82.4299 134.66 82.4099 134.904 82.3699 135.248C82.3299 135.584 82.2939 135.796 82.2619 135.884C81.5819 135.796 81.0339 135.752 80.6179 135.752C80.4019 135.752 80.2619 135.764 80.1979 135.788C80.1819 135.796 80.1659 135.82 80.1499 135.86C80.1339 135.892 80.1259 135.936 80.1259 135.992C80.1259 136.104 80.1619 136.184 80.2339 136.232C80.3059 136.288 80.4939 136.356 80.7979 136.436C81.1579 136.54 81.4659 136.648 81.7219 136.76C81.9859 136.872 82.2139 137.04 82.4059 137.264C82.6059 137.488 82.7059 137.776 82.7059 138.128Z" fill="#A8DADC"/>
<rect x="8.25" y="50" width="30" height="66.1696" rx="15" fill="#36617C"/>
<path d="M13.8376 37.716V45H12.1456L11.9776 44.076C11.8176 44.388 11.5816 44.636 11.2696 44.82C10.9576 45.004 10.6056 45.096 10.2136 45.096C9.58961 45.096 9.08961 44.872 8.71361 44.424C8.34561 43.976 8.16161 43.304 8.16161 42.408C8.16161 41.728 8.24161 41.168 8.40161 40.728C8.56161 40.288 8.74961 39.972 8.96561 39.78C9.10161 39.66 9.37761 39.56 9.79361 39.48C10.2176 39.4 10.5936 39.36 10.9216 39.36C11.2096 39.36 11.5056 39.388 11.8096 39.444C11.7856 39.06 11.7736 38.848 11.7736 38.808V37.8L13.8376 37.716ZM11.1136 43.488C11.3296 43.488 11.5536 43.452 11.7856 43.38V40.776C11.5536 40.744 11.2976 40.728 11.0176 40.728C10.7776 40.728 10.6256 40.748 10.5616 40.788C10.4736 40.852 10.4016 41.036 10.3456 41.34C10.2976 41.636 10.2736 41.948 10.2736 42.276C10.2736 42.764 10.3456 43.088 10.4896 43.248C10.6416 43.408 10.8496 43.488 11.1136 43.488ZM18.1701 43.56C18.3701 43.56 18.7421 43.54 19.2861 43.5C19.3581 43.5 19.4901 43.492 19.6821 43.476L19.8621 44.712C19.2461 45 18.4461 45.144 17.4621 45.144C16.5421 45.144 15.8341 44.912 15.3381 44.448C14.8501 43.984 14.6061 43.284 14.6061 42.348C14.6061 41.868 14.6661 41.404 14.7861 40.956C14.9141 40.508 15.0581 40.196 15.2181 40.02C15.3861 39.844 15.6981 39.692 16.1541 39.564C16.6101 39.436 17.0621 39.372 17.5101 39.372C18.2301 39.372 18.7701 39.5 19.1301 39.756C19.4901 40.012 19.7261 40.368 19.8381 40.824C19.9501 41.272 20.0061 41.876 20.0061 42.636C19.4621 42.668 18.9301 42.684 18.4101 42.684H16.7061C16.7061 42.94 16.7581 43.132 16.8621 43.26C16.9741 43.388 17.1301 43.472 17.3301 43.512C17.5301 43.544 17.8101 43.56 18.1701 43.56ZM16.8261 40.8C16.7781 40.824 16.7421 40.928 16.7181 41.112C16.6941 41.296 16.6781 41.504 16.6701 41.736H17.2941C17.6701 41.736 17.9421 41.732 18.1101 41.724C18.1101 41.34 18.0541 41.068 17.9421 40.908C17.8381 40.748 17.6541 40.668 17.3901 40.668C17.1741 40.668 16.9861 40.712 16.8261 40.8ZM25.3723 44.832C24.7243 45.048 24.0003 45.156 23.2003 45.156C22.3043 45.156 21.6323 44.932 21.1843 44.484C20.7443 44.028 20.5243 43.32 20.5243 42.36C20.5243 41.888 20.5883 41.424 20.7163 40.968C20.8443 40.504 20.9803 40.192 21.1243 40.032C21.2923 39.848 21.6203 39.692 22.1083 39.564C22.6043 39.436 23.1163 39.372 23.6443 39.372C24.1963 39.372 24.7523 39.42 25.3123 39.516C25.2963 39.716 25.2683 39.952 25.2283 40.224C25.1963 40.488 25.1603 40.724 25.1203 40.932C24.6243 40.9 24.1563 40.884 23.7163 40.884C23.2843 40.884 23.0083 40.908 22.8883 40.956C22.8243 40.98 22.7643 41.144 22.7083 41.448C22.6603 41.752 22.6363 42.036 22.6363 42.3C22.6363 42.652 22.6843 42.924 22.7803 43.116C22.8843 43.3 23.0443 43.428 23.2603 43.5C23.4763 43.572 23.7683 43.608 24.1363 43.608C24.2963 43.608 24.6483 43.592 25.1923 43.56L25.3723 44.832ZM29.3484 45L29.1564 44.244C28.7884 44.844 28.2764 45.144 27.6204 45.144C27.0844 45.144 26.6444 44.996 26.3004 44.7C25.9644 44.396 25.7964 43.972 25.7964 43.428C25.7964 43.092 25.8924 42.8 26.0844 42.552C26.2844 42.296 26.5564 42.116 26.9004 42.012C27.3484 41.884 28.0404 41.812 28.9764 41.796C28.9764 41.268 28.9524 40.988 28.9044 40.956C28.8644 40.924 28.7364 40.908 28.5204 40.908C28.3844 40.908 28.1964 40.916 27.9564 40.932C27.5724 40.948 27.0524 40.992 26.3964 41.064C26.3324 40.632 26.2844 40.168 26.2524 39.672C26.6764 39.584 27.1204 39.512 27.5844 39.456C28.0484 39.392 28.4644 39.36 28.8324 39.36C29.4724 39.36 29.9524 39.468 30.2724 39.684C30.5924 39.892 30.8004 40.168 30.8964 40.512C30.9924 40.856 31.0364 41.292 31.0284 41.82L31.0164 43.584L31.0524 45H29.3484ZM28.3164 43.8C28.5244 43.8 28.7444 43.76 28.9764 43.68V42.792H28.8804C28.2884 42.792 27.9604 42.824 27.8964 42.888C27.8564 42.928 27.8244 42.988 27.8004 43.068C27.7844 43.148 27.7764 43.224 27.7764 43.296C27.7764 43.488 27.8204 43.62 27.9084 43.692C27.9964 43.764 28.1324 43.8 28.3164 43.8ZM37.6669 39.48L36.2269 44.1C35.9469 44.988 35.6949 45.632 35.4709 46.032C35.2469 46.44 35.0229 46.724 34.7989 46.884C34.6709 46.972 34.4669 47.04 34.1869 47.088C33.9149 47.136 33.6189 47.16 33.2989 47.16C32.8189 47.16 32.4349 47.116 32.1469 47.028C32.1389 46.836 32.1469 46.6 32.1709 46.32C32.1949 46.048 32.2269 45.816 32.2669 45.624C32.6029 45.64 32.9309 45.648 33.2509 45.648C33.4909 45.648 33.6709 45.644 33.7909 45.636C33.9109 45.404 34.0229 45.16 34.1269 44.904L33.2989 44.856L31.4509 39.48H33.6229L34.5829 43.344L34.5949 43.572H34.6309L35.4949 39.48H37.6669Z" fill="#A8DADC"/>
<rect x="51.25" y="50" width="30" height="66.1696" rx="15" fill="#36617C"/>
<path d="M57.9235 37.716V45H56.2315L56.0635 44.076C55.9035 44.388 55.6675 44.636 55.3555 44.82C55.0435 45.004 54.6915 45.096 54.2995 45.096C53.6755 45.096 53.1755 44.872 52.7995 44.424C52.4315 43.976 52.2475 43.304 52.2475 42.408C52.2475 41.728 52.3275 41.168 52.4875 40.728C52.6475 40.288 52.8355 39.972 53.0515 39.78C53.1875 39.66 53.4635 39.56 53.8795 39.48C54.3035 39.4 54.6795 39.36 55.0075 39.36C55.2955 39.36 55.5915 39.388 55.8955 39.444C55.8715 39.06 55.8595 38.848 55.8595 38.808V37.8L57.9235 37.716ZM55.1995 43.488C55.4155 43.488 55.6395 43.452 55.8715 43.38V40.776C55.6395 40.744 55.3835 40.728 55.1035 40.728C54.8635 40.728 54.7115 40.748 54.6475 40.788C54.5595 40.852 54.4875 41.036 54.4315 41.34C54.3835 41.636 54.3595 41.948 54.3595 42.276C54.3595 42.764 54.4315 43.088 54.5755 43.248C54.7275 43.408 54.9355 43.488 55.1995 43.488ZM62.196 45L62.004 44.244C61.636 44.844 61.124 45.144 60.468 45.144C59.932 45.144 59.492 44.996 59.148 44.7C58.812 44.396 58.644 43.972 58.644 43.428C58.644 43.092 58.74 42.8 58.932 42.552C59.132 42.296 59.404 42.116 59.748 42.012C60.196 41.884 60.888 41.812 61.824 41.796C61.824 41.268 61.8 40.988 61.752 40.956C61.712 40.924 61.584 40.908 61.368 40.908C61.232 40.908 61.044 40.916 60.804 40.932C60.42 40.948 59.9 40.992 59.244 41.064C59.18 40.632 59.132 40.168 59.1 39.672C59.524 39.584 59.968 39.512 60.432 39.456C60.896 39.392 61.312 39.36 61.68 39.36C62.32 39.36 62.8 39.468 63.12 39.684C63.44 39.892 63.648 40.168 63.744 40.512C63.84 40.856 63.884 41.292 63.876 41.82L63.864 43.584L63.9 45H62.196ZM61.164 43.8C61.372 43.8 61.592 43.76 61.824 43.68V42.792H61.728C61.136 42.792 60.808 42.824 60.744 42.888C60.704 42.928 60.672 42.988 60.648 43.068C60.632 43.148 60.624 43.224 60.624 43.296C60.624 43.488 60.668 43.62 60.756 43.692C60.844 43.764 60.98 43.8 61.164 43.8ZM73.4305 39.864C73.5585 40.056 73.6225 40.8 73.6225 42.096V45H71.5705V42.3V41.652C71.5705 41.356 71.5425 41.18 71.4865 41.124C71.4225 41.06 71.2865 41.028 71.0785 41.028L70.9345 41.04C70.6865 41.056 70.4505 41.112 70.2265 41.208C70.2345 41.376 70.2385 41.672 70.2385 42.096V45H68.1865V42.3V41.58C68.1865 41.332 68.1585 41.18 68.1025 41.124C68.0385 41.06 67.9025 41.028 67.6945 41.028L67.5505 41.04C67.3265 41.048 67.0945 41.1 66.8545 41.196V45H64.8025V39.48H66.4705L66.6865 40.38C66.9505 40.028 67.2545 39.772 67.5985 39.612C67.9425 39.444 68.2905 39.36 68.6425 39.36C68.9385 39.36 69.2185 39.404 69.4825 39.492C69.7545 39.58 69.9425 39.704 70.0465 39.864C70.0945 39.936 70.1345 40.068 70.1665 40.26C70.4225 39.948 70.7145 39.72 71.0425 39.576C71.3705 39.432 71.6985 39.36 72.0265 39.36C72.3225 39.36 72.6025 39.404 72.8665 39.492C73.1385 39.58 73.3265 39.704 73.4305 39.864ZM78.368 39.36C78.944 39.36 79.4 39.552 79.736 39.936C80.08 40.312 80.252 40.972 80.252 41.916C80.252 42.62 80.184 43.196 80.048 43.644C79.912 44.084 79.756 44.376 79.58 44.52C79.404 44.664 79.096 44.78 78.656 44.868C78.224 44.956 77.776 45 77.312 45C77.176 45 76.948 44.992 76.628 44.976V46.68L74.576 46.764V39.48H76.256L76.46 40.332C76.668 40.036 76.932 39.8 77.252 39.624C77.58 39.448 77.952 39.36 78.368 39.36ZM77.888 43.536C77.976 43.472 78.04 43.292 78.08 42.996C78.12 42.692 78.14 42.404 78.14 42.132C78.14 41.684 78.084 41.352 77.972 41.136C77.86 40.92 77.636 40.812 77.3 40.812C77.06 40.812 76.836 40.836 76.628 40.884V43.548L76.964 43.584C77.068 43.592 77.216 43.596 77.408 43.596C77.68 43.596 77.84 43.576 77.888 43.536Z" fill="#A8DADC"/>
<rect x="8.25" y="145" width="30" height="66.1663" rx="15" fill="#36617C"/>
<path d="M13.2284 134.36C13.8524 134.36 14.3324 134.548 14.6684 134.924C15.0124 135.3 15.1844 135.964 15.1844 136.916C15.1844 137.612 15.1124 138.208 14.9684 138.704C14.8324 139.192 14.6764 139.504 14.5004 139.64C14.2924 139.808 13.9844 139.932 13.5764 140.012C13.1684 140.092 12.7044 140.132 12.1844 140.132C11.7844 140.132 11.3364 140.1 10.8404 140.036C10.3444 139.98 9.90044 139.888 9.50844 139.76V132.8L11.5844 132.716V133.844C11.5844 133.908 11.5804 134.056 11.5724 134.288C11.5724 134.52 11.5644 134.716 11.5484 134.876C11.5324 135.028 11.5084 135.144 11.4764 135.224L11.5484 135.308C11.7324 135.028 11.9644 134.8 12.2444 134.624C12.5244 134.448 12.8524 134.36 13.2284 134.36ZM12.8924 138.692C12.9404 138.612 12.9804 138.424 13.0124 138.128C13.0524 137.832 13.0724 137.548 13.0724 137.276C13.0724 136.956 13.0564 136.704 13.0244 136.52C13.0004 136.336 12.9324 136.192 12.8204 136.088C12.7164 135.976 12.5524 135.92 12.3284 135.92C12.1284 135.92 11.8724 135.948 11.5604 136.004V138.716C11.8564 138.764 12.1644 138.788 12.4844 138.788C12.7164 138.788 12.8524 138.756 12.8924 138.692ZM16.0135 132.8L18.0655 132.716V140H16.0135V132.8ZM22.4309 138.56C22.6309 138.56 23.0029 138.54 23.5469 138.5C23.6189 138.5 23.7509 138.492 23.9429 138.476L24.1229 139.712C23.5069 140 22.7069 140.144 21.7229 140.144C20.8029 140.144 20.0949 139.912 19.5989 139.448C19.1109 138.984 18.8669 138.284 18.8669 137.348C18.8669 136.868 18.9269 136.404 19.0469 135.956C19.1749 135.508 19.3189 135.196 19.4789 135.02C19.6469 134.844 19.9589 134.692 20.4149 134.564C20.8709 134.436 21.3229 134.372 21.7709 134.372C22.4909 134.372 23.0309 134.5 23.3909 134.756C23.7509 135.012 23.9869 135.368 24.0989 135.824C24.2109 136.272 24.2669 136.876 24.2669 137.636C23.7229 137.668 23.1909 137.684 22.6709 137.684H20.9669C20.9669 137.94 21.0189 138.132 21.1229 138.26C21.2349 138.388 21.3909 138.472 21.5909 138.512C21.7909 138.544 22.0709 138.56 22.4309 138.56ZM21.0869 135.8C21.0389 135.824 21.0029 135.928 20.9789 136.112C20.9549 136.296 20.9389 136.504 20.9309 136.736H21.5549C21.9309 136.736 22.2029 136.732 22.3709 136.724C22.3709 136.34 22.3149 136.068 22.2029 135.908C22.0989 135.748 21.9149 135.668 21.6509 135.668C21.4349 135.668 21.2469 135.712 21.0869 135.8ZM30.3292 134.828C30.4012 134.916 30.4532 135.136 30.4852 135.488C30.5252 135.84 30.5452 136.376 30.5452 137.096V140H28.4932V137.12V136.628C28.4932 136.372 28.4732 136.212 28.4332 136.148C28.3692 136.068 28.2212 136.028 27.9892 136.028C27.8772 136.028 27.7932 136.032 27.7372 136.04C27.5132 136.048 27.2812 136.1 27.0412 136.196V140H24.9892V134.48H26.6572L26.8852 135.404C27.4612 134.708 28.1492 134.36 28.9492 134.36C29.2372 134.36 29.5052 134.4 29.7532 134.48C30.0092 134.56 30.2012 134.676 30.3292 134.828ZM36.9891 132.716V140H35.2971L35.1291 139.076C34.9691 139.388 34.7331 139.636 34.4211 139.82C34.1091 140.004 33.7571 140.096 33.3651 140.096C32.7411 140.096 32.2411 139.872 31.8651 139.424C31.4971 138.976 31.3131 138.304 31.3131 137.408C31.3131 136.728 31.3931 136.168 31.5531 135.728C31.7131 135.288 31.9011 134.972 32.1171 134.78C32.2531 134.66 32.5291 134.56 32.9451 134.48C33.3691 134.4 33.7451 134.36 34.0731 134.36C34.3611 134.36 34.6571 134.388 34.9611 134.444C34.9371 134.06 34.9251 133.848 34.9251 133.808V132.8L36.9891 132.716ZM34.2651 138.488C34.4811 138.488 34.7051 138.452 34.9371 138.38V135.776C34.7051 135.744 34.4491 135.728 34.1691 135.728C33.9291 135.728 33.7771 135.748 33.7131 135.788C33.6251 135.852 33.5531 136.036 33.4971 136.34C33.4491 136.636 33.4251 136.948 33.4251 137.276C33.4251 137.764 33.4971 138.088 33.6411 138.248C33.7931 138.408 34.0011 138.488 34.2651 138.488Z" fill="#A8DADC"/>
<path d="M61.8835 287.156C60.9235 287.156 60.2035 286.932 59.7235 286.484C59.2515 286.028 59.0155 285.312 59.0155 284.336C59.0155 283.8 59.0635 283.332 59.1595 282.932C59.2635 282.524 59.3875 282.24 59.5315 282.08C59.7155 281.872 60.0515 281.7 60.5395 281.564C61.0355 281.428 61.4995 281.36 61.9315 281.36C62.9635 281.36 63.6995 281.58 64.1395 282.02C64.5795 282.46 64.7995 283.164 64.7995 284.132C64.7995 285.172 64.5635 285.936 64.0915 286.424C63.6195 286.912 62.8835 287.156 61.8835 287.156ZM61.9195 285.752C62.2315 285.752 62.4355 285.644 62.5315 285.428C62.6275 285.204 62.6755 284.812 62.6755 284.252C62.6755 283.86 62.6555 283.56 62.6155 283.352C62.5755 283.136 62.4995 282.98 62.3875 282.884C62.2835 282.78 62.1195 282.728 61.8955 282.728C61.5755 282.728 61.3915 282.756 61.3435 282.812C61.2795 282.868 61.2275 283.044 61.1875 283.34C61.1475 283.636 61.1275 283.944 61.1275 284.264C61.1275 284.808 61.1795 285.192 61.2835 285.416C61.3955 285.64 61.6075 285.752 61.9195 285.752ZM71.1028 281.48V287H69.4348L69.2068 286.076C68.6308 286.772 67.9428 287.12 67.1428 287.12C66.8548 287.12 66.5828 287.08 66.3268 287C66.0788 286.92 65.8908 286.804 65.7628 286.652C65.6908 286.564 65.6348 286.344 65.5948 285.992C65.5628 285.64 65.5468 285.104 65.5468 284.384V281.48H67.5988V284.36C67.5988 284.52 67.6028 284.708 67.6108 284.924C67.6188 285.14 67.6428 285.276 67.6828 285.332C67.7388 285.412 67.8988 285.452 68.1628 285.452L68.3548 285.44C68.5788 285.432 68.8108 285.38 69.0508 285.284V281.48H71.1028ZM74.6307 284.732C74.6307 284.876 74.6347 285.028 74.6427 285.188C74.6507 285.34 74.6747 285.436 74.7147 285.476C74.7707 285.532 74.9667 285.56 75.3027 285.56L75.7107 285.548C75.7827 285.932 75.8187 286.376 75.8187 286.88C75.6667 286.936 75.4427 286.988 75.1467 287.036C74.8587 287.084 74.5827 287.108 74.3187 287.108C73.7667 287.108 73.3387 286.988 73.0347 286.748C72.7387 286.5 72.5907 286.12 72.5907 285.608V282.656H71.6907V281.564L72.5907 281.48L73.1307 280.16L74.6307 280.076V281.48H75.9027V282.656H74.6307V284.732Z" fill="#A8DADC"/>
<path d="M19.1313 280.796C18.8593 280.796 18.6233 280.704 18.4233 280.52C18.2313 280.336 18.1353 280.116 18.1353 279.86C18.1353 279.604 18.2313 279.384 18.4233 279.2C18.6233 279.016 18.8593 278.924 19.1313 278.924C19.4033 278.924 19.6353 279.016 19.8273 279.2C20.0193 279.384 20.1153 279.604 20.1153 279.86C20.1153 280.116 20.0193 280.336 19.8273 280.52C19.6353 280.704 19.4033 280.796 19.1313 280.796ZM18.0993 281.48H20.1513V287H18.0993V281.48ZM26.5088 281.828C26.5808 281.916 26.6328 282.136 26.6648 282.488C26.7048 282.84 26.7248 283.376 26.7248 284.096V287H24.6728V284.12V283.628C24.6728 283.372 24.6528 283.212 24.6128 283.148C24.5488 283.068 24.4008 283.028 24.1688 283.028C24.0568 283.028 23.9728 283.032 23.9168 283.04C23.6928 283.048 23.4608 283.1 23.2208 283.196V287H21.1688V281.48H22.8368L23.0648 282.404C23.6408 281.708 24.3288 281.36 25.1288 281.36C25.4168 281.36 25.6848 281.4 25.9328 281.48C26.1888 281.56 26.3808 281.676 26.5088 281.828Z" fill="#A8DADC"/>
<rect x="42.376" y="334" width="6" height="6" rx="1" fill="#A8DADC"/>
<path d="M47.6077 339.25H46.0957L45.8237 338.098C45.813 338.055 45.7943 337.983 45.7677 337.882C45.7463 337.775 45.7197 337.698 45.6877 337.65C45.6557 337.597 45.6103 337.562 45.5517 337.546C45.4023 337.551 45.1837 337.554 44.8957 337.554V339.25H43.4557V334.73C44.101 334.682 44.7037 334.658 45.2637 334.658C45.7703 334.658 46.181 334.701 46.4957 334.786C46.8103 334.866 47.045 335.007 47.1997 335.21C47.3597 335.407 47.4397 335.679 47.4397 336.026C47.4397 336.351 47.365 336.607 47.2157 336.794C47.0663 336.975 46.8263 337.085 46.4957 337.122V337.17C46.6823 337.186 46.837 337.247 46.9597 337.354C47.0877 337.455 47.173 337.586 47.2157 337.746L47.6077 339.25ZM44.8957 336.65C44.9437 336.655 45.037 336.658 45.1757 336.658C45.5863 336.658 45.8263 336.623 45.8957 336.554C45.9597 336.49 45.9917 336.341 45.9917 336.106C45.9917 335.887 45.933 335.738 45.8157 335.658C45.7037 335.578 45.517 335.538 45.2557 335.538C45.197 335.538 45.077 335.543 44.8957 335.554V336.65Z" fill="#457B9D"/>
<rect x="42.376" y="300" width="6" height="6" rx="1" fill="#A8DADC"/>
<path d="M43.8576 300.69H45.2976V304.194H47.1616V305.25H43.8576V300.69Z" fill="#457B9D"/>
</svg>
