<svg width="61" height="380" viewBox="0 0 61 380" fill="none" xmlns="http://www.w3.org/2000/svg">
<rect x="0.75" width="60" height="380" fill="#457B9D"/>
<g opacity="0.5">
<path fill-rule="evenodd" clip-rule="evenodd" d="M24.708 375.599C24.553 375.747 24.409 375.851 24.276 375.909C24.143 375.968 24.001 375.998 23.85 375.998C23.698 375.998 23.556 375.97 23.423 375.914C23.29 375.858 23.174 375.781 23.075 375.682C22.859 375.466 22.75 375.209 22.75 374.912V369.385C22.75 369.082 22.828 368.847 22.982 368.68C23.248 368.408 23.5 368.272 23.738 368.272C23.976 368.272 24.154 368.296 24.272 368.346C24.389 368.395 24.488 368.457 24.568 368.531C24.674 368.624 24.752 368.723 24.805 368.828C24.858 368.933 24.901 369.011 24.935 369.06C24.969 369.11 25.025 369.134 25.102 369.134C25.179 369.134 25.246 369.11 25.301 369.06L25.459 368.902C25.91 368.482 26.362 368.272 26.813 368.272C27.611 368.272 28.269 368.599 28.789 369.255C28.838 369.323 28.9 369.357 28.974 369.357C29.104 369.357 29.236 369.256 29.369 369.055C29.502 368.854 29.716 368.674 30.013 368.513C30.31 368.352 30.656 368.272 31.052 368.272C31.448 368.272 31.808 368.344 32.133 368.49C32.457 368.635 32.74 368.834 32.981 369.088C33.488 369.62 33.742 370.263 33.742 371.017V374.912C33.742 375.382 33.519 375.713 33.074 375.905C32.938 375.967 32.794 375.998 32.643 375.998C32.491 375.998 32.349 375.97 32.216 375.914C32.083 375.858 31.967 375.781 31.868 375.682C31.658 375.46 31.553 375.203 31.553 374.912V371.045C31.553 370.736 31.476 370.504 31.321 370.349C31.049 370.077 30.799 369.941 30.57 369.941C30.341 369.941 30.162 369.971 30.032 370.029C29.902 370.088 29.784 370.17 29.679 370.275C29.463 370.492 29.355 370.742 29.355 371.026V374.912C29.355 375.382 29.135 375.713 28.696 375.905C28.56 375.967 28.416 375.998 28.265 375.998C28.113 375.998 27.97 375.97 27.833 375.914C27.697 375.858 27.58 375.781 27.481 375.682C27.265 375.466 27.156 375.209 27.156 374.912V371.045C27.156 370.736 27.079 370.504 26.924 370.349C26.652 370.077 26.368 369.941 26.071 369.941C25.576 369.941 25.233 370.133 25.042 370.516C24.98 370.64 24.949 370.779 24.949 370.934V374.912C24.949 375.215 24.868 375.444 24.708 375.599ZM35.969 369.387C35.969 369.084 36.046 368.849 36.201 368.682C36.466 368.41 36.76 368.274 37.082 368.274C37.391 368.274 37.62 368.355 37.768 368.515C38.04 368.794 38.176 369.084 38.176 369.387V374.915C38.176 375.212 38.099 375.437 37.944 375.592C37.672 375.864 37.422 376 37.193 376C36.964 376 36.782 375.971 36.646 375.912C36.51 375.853 36.392 375.777 36.293 375.685C36.077 375.474 35.969 375.218 35.969 374.915V369.387ZM37.077 365.9C36.815 365.9 36.602 365.687 36.602 365.425C36.602 365.162 36.815 364.95 37.077 364.95C37.339 364.95 37.552 365.162 37.552 365.425C37.552 365.687 37.339 365.9 37.077 365.9ZM37.077 364C37.464 364 37.798 364.142 38.079 364.425C38.361 364.709 38.502 364.996 38.502 365.287C38.502 365.577 38.463 365.807 38.385 365.978C38.308 366.148 38.206 366.297 38.079 366.424C37.798 366.708 37.464 366.849 37.077 366.849C36.69 366.849 36.356 366.708 36.074 366.424C35.793 366.141 35.652 365.857 35.652 365.574C35.652 365.092 35.793 364.709 36.074 364.425C36.356 364.142 36.69 364 37.077 364Z" fill="#1D3557"/>
</g>
<path d="M11.272 22.8654H9.11198V17.5254H7.17998V16.0254H13.204V17.5254H11.272V22.8654ZM13.9069 16.0254H16.0669V22.8654H13.9069V16.0254ZM19.2856 20.1054V22.8654H17.2816V16.0254H19.3096L21.1216 18.7854C21.3936 19.1934 21.6016 19.5374 21.7456 19.8174H21.7816V18.6654V16.0254H23.7736V22.8654H21.7336L19.8736 19.9854L19.3336 19.1694H19.2976L19.2856 20.1054ZM28.4796 20.6814V22.8654H26.3196V20.7054L24.0156 16.0254H26.2116L27.1236 18.2454C27.2196 18.4694 27.3076 18.7054 27.3876 18.9534H27.4116C27.4996 18.6814 27.5876 18.4374 27.6756 18.2214L28.5756 16.0254H30.7596L28.4796 20.6814ZM32.9606 17.8734C32.9606 18.0414 33.0446 18.1734 33.2126 18.2694C33.3886 18.3654 33.6606 18.4694 34.0286 18.5814C34.4686 18.7254 34.8286 18.8654 35.1086 19.0014C35.3966 19.1374 35.6446 19.3494 35.8526 19.6374C36.0686 19.9254 36.1766 20.3014 36.1766 20.7654C36.1766 22.2534 35.2086 22.9974 33.2726 22.9974C32.9526 22.9974 32.5606 22.9694 32.0966 22.9134C31.6406 22.8574 31.2246 22.7854 30.8486 22.6974C30.8646 22.5294 30.8966 22.2854 30.9446 21.9654C31.0006 21.6374 31.0526 21.3934 31.1006 21.2334C31.3806 21.2734 31.8006 21.3214 32.3606 21.3774C32.9286 21.4334 33.3566 21.4614 33.6446 21.4614C33.8126 21.4614 33.9126 21.4494 33.9446 21.4254C33.9926 21.3934 34.0286 21.3414 34.0526 21.2694C34.0846 21.1894 34.1006 21.1214 34.1006 21.0654C34.1006 20.9054 34.0246 20.7854 33.8726 20.7054C33.7206 20.6174 33.4606 20.5134 33.0926 20.3934C32.6526 20.2574 32.2886 20.1174 32.0006 19.9734C31.7126 19.8294 31.4606 19.6054 31.2446 19.3014C31.0286 18.9974 30.9206 18.5974 30.9206 18.1014C30.9206 17.7494 31.0006 17.4054 31.1606 17.0694C31.3206 16.7254 31.4846 16.4934 31.6526 16.3734C31.7806 16.2854 32.0446 16.2014 32.4446 16.1214C32.8446 16.0414 33.2206 16.0014 33.5726 16.0014C34.4686 16.0014 35.2006 16.0854 35.7686 16.2534C35.7606 16.4134 35.7326 16.6334 35.6846 16.9134C35.6446 17.1934 35.6006 17.4494 35.5526 17.6814L35.2766 17.6694C34.2366 17.5974 33.5726 17.5614 33.2846 17.5614C33.1646 17.5614 33.0966 17.5654 33.0806 17.5734C33.0486 17.5894 33.0206 17.6254 32.9966 17.6814C32.9726 17.7374 32.9606 17.8014 32.9606 17.8734ZM41.1284 21.3654H39.1364L38.7764 22.8654H36.5684L38.7764 16.0254H41.5964L43.7084 22.8654H41.4884L41.1284 21.3654ZM40.1204 17.5014L39.4124 20.0334H40.8404L40.1684 17.5014H40.1204ZM48.0441 22.8654H45.3441L43.5801 16.0254H45.8841L46.7961 21.0534H46.8561L47.8281 16.0254H50.0841L51.0801 21.0534H51.1161L52.0401 16.0254H54.2481L52.4841 22.8654H49.7961L48.9801 18.4974H48.9081L48.0441 22.8654Z" fill="#A8DADC"/>
<path d="M21.1905 250.345H23.3385L21.6585 255.865H18.8145L17.1345 250.345H19.2825L20.1825 254.581H20.3025L21.1905 250.345ZM27.5103 247.849H29.1063L25.0383 257.737H23.4423L27.5103 247.849ZM32.3845 256.021C31.4245 256.021 30.7045 255.797 30.2245 255.349C29.7525 254.893 29.5165 254.177 29.5165 253.201C29.5165 252.665 29.5645 252.197 29.6605 251.797C29.7645 251.389 29.8885 251.105 30.0325 250.945C30.2165 250.737 30.5525 250.565 31.0405 250.429C31.5365 250.293 32.0005 250.225 32.4325 250.225C33.4645 250.225 34.2005 250.445 34.6405 250.885C35.0805 251.325 35.3005 252.029 35.3005 252.997C35.3005 254.037 35.0645 254.801 34.5925 255.289C34.1205 255.777 33.3845 256.021 32.3845 256.021ZM32.4205 254.617C32.7325 254.617 32.9365 254.509 33.0325 254.293C33.1285 254.069 33.1765 253.677 33.1765 253.117C33.1765 252.725 33.1565 252.425 33.1165 252.217C33.0765 252.001 33.0005 251.845 32.8885 251.749C32.7845 251.645 32.6205 251.593 32.3965 251.593C32.0765 251.593 31.8925 251.621 31.8445 251.677C31.7805 251.733 31.7285 251.909 31.6885 252.205C31.6485 252.501 31.6285 252.809 31.6285 253.129C31.6285 253.673 31.6805 254.057 31.7845 254.281C31.8965 254.505 32.1085 254.617 32.4205 254.617ZM40.7278 255.697C40.0798 255.913 39.3558 256.021 38.5558 256.021C37.6598 256.021 36.9878 255.797 36.5398 255.349C36.0998 254.893 35.8798 254.185 35.8798 253.225C35.8798 252.753 35.9438 252.289 36.0718 251.833C36.1998 251.369 36.3358 251.057 36.4798 250.897C36.6478 250.713 36.9758 250.557 37.4638 250.429C37.9598 250.301 38.4718 250.237 38.9998 250.237C39.5518 250.237 40.1078 250.285 40.6678 250.381C40.6518 250.581 40.6238 250.817 40.5838 251.089C40.5518 251.353 40.5158 251.589 40.4758 251.797C39.9798 251.765 39.5118 251.749 39.0718 251.749C38.6398 251.749 38.3638 251.773 38.2438 251.821C38.1798 251.845 38.1198 252.009 38.0638 252.313C38.0158 252.617 37.9918 252.901 37.9918 253.165C37.9918 253.517 38.0398 253.789 38.1358 253.981C38.2398 254.165 38.3998 254.293 38.6158 254.365C38.8318 254.437 39.1238 254.473 39.4918 254.473C39.6518 254.473 40.0038 254.457 40.5478 254.425L40.7278 255.697ZM43.9598 253.597C43.9598 253.741 43.9638 253.893 43.9718 254.053C43.9798 254.205 44.0038 254.301 44.0438 254.341C44.0998 254.397 44.2958 254.425 44.6318 254.425L45.0398 254.413C45.1118 254.797 45.1478 255.241 45.1478 255.745C44.9958 255.801 44.7718 255.853 44.4758 255.901C44.1878 255.949 43.9118 255.973 43.6478 255.973C43.0958 255.973 42.6678 255.853 42.3638 255.613C42.0678 255.365 41.9198 254.985 41.9198 254.473V251.521H41.0198V250.429L41.9198 250.345L42.4598 249.025L43.9598 248.941V250.345H45.2318V251.521H43.9598V253.597Z" fill="#A8DADC"/>
<path d="M13.45 202.225C14.074 202.225 14.554 202.413 14.89 202.789C15.234 203.165 15.406 203.829 15.406 204.781C15.406 205.477 15.334 206.073 15.19 206.569C15.054 207.057 14.898 207.369 14.722 207.505C14.514 207.673 14.206 207.797 13.798 207.877C13.39 207.957 12.926 207.997 12.406 207.997C12.006 207.997 11.558 207.965 11.062 207.901C10.566 207.845 10.122 207.753 9.73 207.625V200.665L11.806 200.581V201.709C11.806 201.773 11.802 201.921 11.794 202.153C11.794 202.385 11.786 202.581 11.77 202.741C11.754 202.893 11.73 203.009 11.698 203.089L11.77 203.173C11.954 202.893 12.186 202.665 12.466 202.489C12.746 202.313 13.074 202.225 13.45 202.225ZM13.114 206.557C13.162 206.477 13.202 206.289 13.234 205.993C13.274 205.697 13.294 205.413 13.294 205.141C13.294 204.821 13.278 204.569 13.246 204.385C13.222 204.201 13.154 204.057 13.042 203.953C12.938 203.841 12.774 203.785 12.55 203.785C12.35 203.785 12.094 203.813 11.782 203.869V206.581C12.078 206.629 12.386 206.653 12.706 206.653C12.938 206.653 13.074 206.621 13.114 206.557ZM19.487 207.865L19.295 207.109C18.927 207.709 18.415 208.009 17.759 208.009C17.223 208.009 16.783 207.861 16.439 207.565C16.103 207.261 15.935 206.837 15.935 206.293C15.935 205.957 16.031 205.665 16.223 205.417C16.423 205.161 16.695 204.981 17.039 204.877C17.487 204.749 18.179 204.677 19.115 204.661C19.115 204.133 19.091 203.853 19.043 203.821C19.003 203.789 18.875 203.773 18.659 203.773C18.523 203.773 18.335 203.781 18.095 203.797C17.711 203.813 17.191 203.857 16.535 203.929C16.471 203.497 16.423 203.033 16.391 202.537C16.815 202.449 17.259 202.377 17.723 202.321C18.187 202.257 18.603 202.225 18.971 202.225C19.611 202.225 20.091 202.333 20.411 202.549C20.731 202.757 20.939 203.033 21.035 203.377C21.131 203.721 21.175 204.157 21.167 204.685L21.155 206.449L21.191 207.865H19.487ZM18.455 206.665C18.663 206.665 18.883 206.625 19.115 206.545V205.657H19.019C18.427 205.657 18.099 205.689 18.035 205.753C17.995 205.793 17.963 205.853 17.939 205.933C17.923 206.013 17.915 206.089 17.915 206.161C17.915 206.353 17.959 206.485 18.047 206.557C18.135 206.629 18.271 206.665 18.455 206.665ZM26.5576 205.993C26.5576 206.705 26.3296 207.217 25.8736 207.529C25.4256 207.841 24.7856 207.997 23.9536 207.997C23.3696 207.997 22.6976 207.913 21.9376 207.745C21.9536 207.585 21.9896 207.357 22.0456 207.061C22.1096 206.757 22.1616 206.525 22.2016 206.365C22.4896 206.413 22.8096 206.453 23.1616 206.485C23.5136 206.509 23.8136 206.521 24.0616 206.521C24.2776 206.521 24.4096 206.509 24.4576 206.485C24.4656 206.477 24.4736 206.457 24.4816 206.425C24.4976 206.385 24.5056 206.345 24.5056 206.305C24.5056 206.145 24.4056 206.037 24.2056 205.981C24.1416 205.965 23.8976 205.897 23.4736 205.777C23.0496 205.657 22.7016 205.441 22.4296 205.129C22.1656 204.809 22.0336 204.413 22.0336 203.941C22.0336 203.693 22.0896 203.417 22.2016 203.113C22.3136 202.809 22.4336 202.617 22.5616 202.537C22.6576 202.473 22.8896 202.409 23.2576 202.345C23.6256 202.273 23.9656 202.237 24.2776 202.237C24.9416 202.237 25.6096 202.285 26.2816 202.381C26.2816 202.525 26.2616 202.769 26.2216 203.113C26.1816 203.449 26.1456 203.661 26.1136 203.749C25.4336 203.661 24.8856 203.617 24.4696 203.617C24.2536 203.617 24.1136 203.629 24.0496 203.653C24.0336 203.661 24.0176 203.685 24.0016 203.725C23.9856 203.757 23.9776 203.801 23.9776 203.857C23.9776 203.969 24.0136 204.049 24.0856 204.097C24.1576 204.153 24.3456 204.221 24.6496 204.301C25.0096 204.405 25.3176 204.513 25.5736 204.625C25.8376 204.737 26.0656 204.905 26.2576 205.129C26.4576 205.353 26.5576 205.641 26.5576 205.993ZM30.5861 206.425C30.7861 206.425 31.1581 206.405 31.7021 206.365C31.7741 206.365 31.9061 206.357 32.0981 206.341L32.2781 207.577C31.6621 207.865 30.8621 208.009 29.8781 208.009C28.9581 208.009 28.2501 207.777 27.7541 207.313C27.2661 206.849 27.0221 206.149 27.0221 205.213C27.0221 204.733 27.0821 204.269 27.2021 203.821C27.3301 203.373 27.4741 203.061 27.6341 202.885C27.8021 202.709 28.1141 202.557 28.5701 202.429C29.0261 202.301 29.4781 202.237 29.9261 202.237C30.6461 202.237 31.1861 202.365 31.5461 202.621C31.9061 202.877 32.1421 203.233 32.2541 203.689C32.3661 204.137 32.4221 204.741 32.4221 205.501C31.8781 205.533 31.3461 205.549 30.8261 205.549H29.1221C29.1221 205.805 29.1741 205.997 29.2781 206.125C29.3901 206.253 29.5461 206.337 29.7461 206.377C29.9461 206.409 30.2261 206.425 30.5861 206.425ZM29.2421 203.665C29.1941 203.689 29.1581 203.793 29.1341 203.977C29.1101 204.161 29.0941 204.369 29.0861 204.601H29.7101C30.0861 204.601 30.3581 204.597 30.5261 204.589C30.5261 204.205 30.4701 203.933 30.3581 203.773C30.2541 203.613 30.0701 203.533 29.8061 203.533C29.5901 203.533 29.4021 203.577 29.2421 203.665ZM37.565 201.721C37.509 201.777 37.481 201.949 37.481 202.237V202.345H38.753V203.521H37.481V207.865H35.429V203.521H34.529V202.453L35.429 202.345V202.165C35.429 201.813 35.477 201.477 35.573 201.157C35.669 200.837 35.757 200.645 35.837 200.581C36.085 200.373 36.613 200.269 37.421 200.269C37.861 200.269 38.353 200.301 38.897 200.365C38.897 200.461 38.881 200.653 38.849 200.941C38.825 201.229 38.801 201.473 38.777 201.673L38.261 201.661C37.837 201.661 37.605 201.681 37.565 201.721ZM42.6933 202.225C42.7973 202.225 42.9053 202.237 43.0173 202.261C43.1373 202.285 43.2253 202.313 43.2813 202.345C43.2813 202.521 43.2613 202.813 43.2213 203.221C43.1813 203.621 43.1453 203.905 43.1133 204.073C43.0333 204.065 42.8853 204.061 42.6693 204.061C42.1653 204.061 41.7173 204.089 41.3253 204.145V207.865H39.2733V202.345H40.9893L41.2293 203.233H41.2413C41.4733 202.929 41.7213 202.685 41.9853 202.501C42.2493 202.317 42.4853 202.225 42.6933 202.225ZM47.1681 206.425C47.3681 206.425 47.7401 206.405 48.2841 206.365C48.3561 206.365 48.4881 206.357 48.6801 206.341L48.8601 207.577C48.2441 207.865 47.4441 208.009 46.4601 208.009C45.5401 208.009 44.8321 207.777 44.3361 207.313C43.8481 206.849 43.6041 206.149 43.6041 205.213C43.6041 204.733 43.6641 204.269 43.7841 203.821C43.9121 203.373 44.0561 203.061 44.2161 202.885C44.3841 202.709 44.6961 202.557 45.1521 202.429C45.6081 202.301 46.0601 202.237 46.5081 202.237C47.2281 202.237 47.7681 202.365 48.1281 202.621C48.4881 202.877 48.7241 203.233 48.8361 203.689C48.9481 204.137 49.0041 204.741 49.0041 205.501C48.4601 205.533 47.9281 205.549 47.4081 205.549H45.7041C45.7041 205.805 45.7561 205.997 45.8601 206.125C45.9721 206.253 46.1281 206.337 46.3281 206.377C46.5281 206.409 46.8081 206.425 47.1681 206.425ZM45.8241 203.665C45.7761 203.689 45.7401 203.793 45.7161 203.977C45.6921 204.161 45.6761 204.369 45.6681 204.601H46.2921C46.6681 204.601 46.9401 204.597 47.1081 204.589C47.1081 204.205 47.0521 203.933 46.9401 203.773C46.8361 203.613 46.6521 203.533 46.3881 203.533C46.1721 203.533 45.9841 203.577 45.8241 203.665ZM52.5584 202.237C53.4144 202.237 54.2984 202.357 55.2104 202.597V209.545L53.1584 209.629V208.045C53.1584 207.741 53.2184 207.385 53.3384 206.977L53.3024 206.953C53.1024 207.313 52.8424 207.569 52.5224 207.721C52.2024 207.865 51.9024 207.937 51.6224 207.937C50.9984 207.937 50.4944 207.717 50.1104 207.277C49.7264 206.829 49.5344 206.157 49.5344 205.261C49.5344 204.661 49.6104 204.117 49.7624 203.629C49.9144 203.141 50.0984 202.825 50.3144 202.681C50.5464 202.529 50.8624 202.417 51.2624 202.345C51.6624 202.273 52.0944 202.237 52.5584 202.237ZM52.4864 206.269C52.6784 206.269 52.9024 206.233 53.1584 206.161V203.653C53.0624 203.637 52.9184 203.621 52.7264 203.605C52.6544 203.597 52.5464 203.593 52.4024 203.593C52.0904 203.593 51.9144 203.625 51.8744 203.689C51.8024 203.801 51.7464 204.005 51.7064 204.301C51.6664 204.581 51.6464 204.853 51.6464 205.117C51.6464 205.533 51.7144 205.829 51.8504 206.005C51.9864 206.181 52.1984 206.269 52.4864 206.269Z" fill="#A8DADC"/>
<path d="M11.31 223.5H9.318L8.958 225H6.75L8.958 218.16H11.778L13.89 225H11.67L11.31 223.5ZM10.302 219.636L9.594 222.168H11.022L10.35 219.636H10.302Z" fill="#A8DADC"/>
<path d="M52.714 224.772C52.418 224.9 52.074 224.992 51.682 225.048C51.29 225.104 50.926 225.132 50.59 225.132C49.502 225.132 48.65 224.848 48.034 224.28C47.418 223.712 47.11 222.84 47.11 221.664C47.11 220.464 47.434 219.568 48.082 218.976C48.73 218.376 49.642 218.076 50.818 218.076C51.378 218.076 51.962 218.152 52.57 218.304C52.57 218.464 52.554 218.704 52.522 219.024C52.49 219.336 52.458 219.556 52.426 219.684H51.67C51.118 219.684 50.682 219.696 50.362 219.72C50.05 219.736 49.862 219.772 49.798 219.828C49.678 219.94 49.586 220.168 49.522 220.512C49.458 220.848 49.426 221.172 49.426 221.484C49.426 222.028 49.494 222.448 49.63 222.744C49.766 223.032 49.938 223.224 50.146 223.32C50.346 223.416 50.678 223.464 51.142 223.464C51.51 223.464 51.99 223.432 52.582 223.368L52.714 224.772Z" fill="#A8DADC"/>
<path d="M25.2576 306.021C24.2976 306.021 23.5776 305.797 23.0976 305.349C22.6256 304.893 22.3896 304.177 22.3896 303.201C22.3896 302.665 22.4376 302.197 22.5336 301.797C22.6376 301.389 22.7616 301.105 22.9056 300.945C23.0896 300.737 23.4256 300.565 23.9136 300.429C24.4096 300.293 24.8736 300.225 25.3056 300.225C26.3376 300.225 27.0736 300.445 27.5136 300.885C27.9536 301.325 28.1736 302.029 28.1736 302.997C28.1736 304.037 27.9376 304.801 27.4656 305.289C26.9936 305.777 26.2576 306.021 25.2576 306.021ZM25.2936 304.617C25.6056 304.617 25.8096 304.509 25.9056 304.293C26.0016 304.069 26.0496 303.677 26.0496 303.117C26.0496 302.725 26.0296 302.425 25.9896 302.217C25.9496 302.001 25.8736 301.845 25.7616 301.749C25.6576 301.645 25.4936 301.593 25.2696 301.593C24.9496 301.593 24.7656 301.621 24.7176 301.677C24.6536 301.733 24.6016 301.909 24.5616 302.205C24.5216 302.501 24.5016 302.809 24.5016 303.129C24.5016 303.673 24.5536 304.057 24.6576 304.281C24.7696 304.505 24.9816 304.617 25.2936 304.617ZM34.4768 300.345V305.865H32.8088L32.5808 304.941C32.0048 305.637 31.3168 305.985 30.5168 305.985C30.2288 305.985 29.9568 305.945 29.7008 305.865C29.4528 305.785 29.2648 305.669 29.1368 305.517C29.0648 305.429 29.0088 305.209 28.9688 304.857C28.9368 304.505 28.9208 303.969 28.9208 303.249V300.345H30.9728V303.225C30.9728 303.385 30.9768 303.573 30.9848 303.789C30.9928 304.005 31.0168 304.141 31.0568 304.197C31.1128 304.277 31.2728 304.317 31.5368 304.317L31.7288 304.305C31.9528 304.297 32.1848 304.245 32.4248 304.149V300.345H34.4768ZM38.0048 303.597C38.0048 303.741 38.0088 303.893 38.0168 304.053C38.0248 304.205 38.0488 304.301 38.0888 304.341C38.1448 304.397 38.3408 304.425 38.6768 304.425L39.0848 304.413C39.1568 304.797 39.1928 305.241 39.1928 305.745C39.0408 305.801 38.8168 305.853 38.5208 305.901C38.2328 305.949 37.9568 305.973 37.6928 305.973C37.1408 305.973 36.7128 305.853 36.4088 305.613C36.1128 305.365 35.9648 304.985 35.9648 304.473V301.521H35.0648V300.429L35.9648 300.345L36.5048 299.025L38.0048 298.941V300.345H39.2768V301.521H38.0048V303.597Z" fill="#A8DADC"/>
<path d="M23.2408 38.856C23.1848 38.912 23.1568 39.084 23.1568 39.372V39.48H24.4288V40.656H23.1568V45H21.1048V40.656H20.2048V39.588L21.1048 39.48V39.3C21.1048 38.948 21.1528 38.612 21.2488 38.292C21.3448 37.972 21.4328 37.78 21.5128 37.716C21.7608 37.508 22.2888 37.404 23.0968 37.404C23.5368 37.404 24.0288 37.436 24.5728 37.5C24.5728 37.596 24.5568 37.788 24.5248 38.076C24.5008 38.364 24.4768 38.608 24.4528 38.808L23.9368 38.796C23.5128 38.796 23.2808 38.816 23.2408 38.856ZM28.369 39.36C28.473 39.36 28.581 39.372 28.693 39.396C28.813 39.42 28.901 39.448 28.957 39.48C28.957 39.656 28.937 39.948 28.897 40.356C28.857 40.756 28.821 41.04 28.789 41.208C28.709 41.2 28.561 41.196 28.345 41.196C27.841 41.196 27.393 41.224 27.001 41.28V45H24.949V39.48H26.665L26.905 40.368H26.917C27.149 40.064 27.397 39.82 27.661 39.636C27.925 39.452 28.161 39.36 28.369 39.36ZM32.8439 43.56C33.0439 43.56 33.4159 43.54 33.9599 43.5C34.0319 43.5 34.1639 43.492 34.3559 43.476L34.5359 44.712C33.9199 45 33.1199 45.144 32.1359 45.144C31.2159 45.144 30.5079 44.912 30.0119 44.448C29.5239 43.984 29.2799 43.284 29.2799 42.348C29.2799 41.868 29.3399 41.404 29.4599 40.956C29.5879 40.508 29.7319 40.196 29.8919 40.02C30.0599 39.844 30.3719 39.692 30.8279 39.564C31.2839 39.436 31.7359 39.372 32.1839 39.372C32.9039 39.372 33.4439 39.5 33.8039 39.756C34.1639 40.012 34.3999 40.368 34.5119 40.824C34.6239 41.272 34.6799 41.876 34.6799 42.636C34.1359 42.668 33.6039 42.684 33.0839 42.684H31.3799C31.3799 42.94 31.4319 43.132 31.5359 43.26C31.6479 43.388 31.8039 43.472 32.0039 43.512C32.2039 43.544 32.4839 43.56 32.8439 43.56ZM31.4999 40.8C31.4519 40.824 31.4159 40.928 31.3919 41.112C31.3679 41.296 31.3519 41.504 31.3439 41.736H31.9679C32.3439 41.736 32.6159 41.732 32.7839 41.724C32.7839 41.34 32.7279 41.068 32.6159 40.908C32.5119 40.748 32.3279 40.668 32.0639 40.668C31.8479 40.668 31.6599 40.712 31.4999 40.8ZM38.2342 39.372C39.0902 39.372 39.9742 39.492 40.8862 39.732V46.68L38.8342 46.764V45.18C38.8342 44.876 38.8942 44.52 39.0142 44.112L38.9782 44.088C38.7782 44.448 38.5182 44.704 38.1982 44.856C37.8782 45 37.5782 45.072 37.2982 45.072C36.6742 45.072 36.1702 44.852 35.7862 44.412C35.4022 43.964 35.2102 43.292 35.2102 42.396C35.2102 41.796 35.2862 41.252 35.4382 40.764C35.5902 40.276 35.7742 39.96 35.9902 39.816C36.2222 39.664 36.5382 39.552 36.9382 39.48C37.3382 39.408 37.7702 39.372 38.2342 39.372ZM38.1622 43.404C38.3542 43.404 38.5782 43.368 38.8342 43.296V40.788C38.7382 40.772 38.5942 40.756 38.4022 40.74C38.3302 40.732 38.2222 40.728 38.0782 40.728C37.7662 40.728 37.5902 40.76 37.5502 40.824C37.4782 40.936 37.4222 41.14 37.3822 41.436C37.3422 41.716 37.3222 41.988 37.3222 42.252C37.3222 42.668 37.3902 42.964 37.5262 43.14C37.6622 43.316 37.8742 43.404 38.1622 43.404Z" fill="#A8DADC"/>
<rect x="15.75" y="119" width="30" height="66.1696" rx="15" fill="#36617C"/>
<path d="M28.5614 108.891C28.6894 109.083 28.7534 109.827 28.7534 111.123V114.027H26.7014V111.327V110.679C26.7014 110.383 26.6734 110.207 26.6174 110.151C26.5534 110.087 26.4174 110.055 26.2094 110.055L26.0654 110.067C25.8174 110.083 25.5814 110.139 25.3574 110.235C25.3654 110.403 25.3694 110.699 25.3694 111.123V114.027H23.3174V111.327V110.607C23.3174 110.359 23.2894 110.207 23.2334 110.151C23.1694 110.087 23.0334 110.055 22.8254 110.055L22.6814 110.067C22.4574 110.075 22.2254 110.127 21.9854 110.223V114.027H19.9334V108.507H21.6014L21.8174 109.407C22.0814 109.055 22.3854 108.799 22.7294 108.639C23.0734 108.471 23.4214 108.387 23.7734 108.387C24.0694 108.387 24.3494 108.431 24.6134 108.519C24.8854 108.607 25.0734 108.731 25.1774 108.891C25.2254 108.963 25.2654 109.095 25.2974 109.287C25.5534 108.975 25.8454 108.747 26.1734 108.603C26.5014 108.459 26.8294 108.387 27.1574 108.387C27.4534 108.387 27.7334 108.431 27.9974 108.519C28.2694 108.607 28.4574 108.731 28.5614 108.891ZM32.3708 114.183C31.4108 114.183 30.6908 113.959 30.2108 113.511C29.7388 113.055 29.5028 112.339 29.5028 111.363C29.5028 110.827 29.5508 110.359 29.6468 109.959C29.7508 109.551 29.8748 109.267 30.0188 109.107C30.2028 108.899 30.5388 108.727 31.0268 108.591C31.5228 108.455 31.9868 108.387 32.4188 108.387C33.4508 108.387 34.1868 108.607 34.6268 109.047C35.0668 109.487 35.2868 110.191 35.2868 111.159C35.2868 112.199 35.0508 112.963 34.5788 113.451C34.1068 113.939 33.3708 114.183 32.3708 114.183ZM32.4068 112.779C32.7188 112.779 32.9228 112.671 33.0188 112.455C33.1148 112.231 33.1628 111.839 33.1628 111.279C33.1628 110.887 33.1428 110.587 33.1028 110.379C33.0628 110.163 32.9868 110.007 32.8748 109.911C32.7708 109.807 32.6068 109.755 32.3828 109.755C32.0628 109.755 31.8788 109.783 31.8308 109.839C31.7668 109.895 31.7148 110.071 31.6748 110.367C31.6348 110.663 31.6148 110.971 31.6148 111.291C31.6148 111.835 31.6668 112.219 31.7708 112.443C31.8828 112.667 32.0948 112.779 32.4068 112.779ZM41.5661 106.743V114.027H39.8741L39.7061 113.103C39.5461 113.415 39.3101 113.663 38.9981 113.847C38.6861 114.031 38.3341 114.123 37.9421 114.123C37.3181 114.123 36.8181 113.899 36.4421 113.451C36.0741 113.003 35.8901 112.331 35.8901 111.435C35.8901 110.755 35.9701 110.195 36.1301 109.755C36.2901 109.315 36.4781 108.999 36.6941 108.807C36.8301 108.687 37.1061 108.587 37.5221 108.507C37.9461 108.427 38.3221 108.387 38.6501 108.387C38.9381 108.387 39.2341 108.415 39.5381 108.471C39.5141 108.087 39.5021 107.875 39.5021 107.835V106.827L41.5661 106.743ZM38.8421 112.515C39.0581 112.515 39.2821 112.479 39.5141 112.407V109.803C39.2821 109.771 39.0261 109.755 38.7461 109.755C38.5061 109.755 38.3541 109.775 38.2901 109.815C38.2021 109.879 38.1301 110.063 38.0741 110.367C38.0261 110.663 38.0021 110.975 38.0021 111.303C38.0021 111.791 38.0741 112.115 38.2181 112.275C38.3701 112.435 38.5781 112.515 38.8421 112.515Z" fill="#A8DADC"/>
</svg>
