<svg width="61" height="380" viewBox="0 0 61 380" fill="none" xmlns="http://www.w3.org/2000/svg">
<rect x="0.75" width="60" height="380" fill="#457B9D"/>
<g opacity="0.3">
<path fill-rule="evenodd" clip-rule="evenodd" d="M24.708 375.599C24.553 375.747 24.409 375.851 24.276 375.909C24.143 375.968 24.001 375.998 23.85 375.998C23.698 375.998 23.556 375.97 23.423 375.914C23.29 375.858 23.174 375.781 23.075 375.682C22.859 375.466 22.75 375.209 22.75 374.912V369.385C22.75 369.082 22.828 368.847 22.982 368.68C23.248 368.408 23.5 368.272 23.738 368.272C23.976 368.272 24.154 368.296 24.272 368.346C24.389 368.395 24.488 368.457 24.568 368.531C24.674 368.624 24.752 368.723 24.805 368.828C24.858 368.933 24.901 369.011 24.935 369.06C24.969 369.11 25.025 369.134 25.102 369.134C25.179 369.134 25.246 369.11 25.301 369.06L25.459 368.902C25.91 368.482 26.362 368.272 26.813 368.272C27.611 368.272 28.269 368.599 28.789 369.255C28.838 369.323 28.9 369.357 28.974 369.357C29.104 369.357 29.236 369.256 29.369 369.055C29.502 368.854 29.716 368.674 30.013 368.513C30.31 368.352 30.656 368.272 31.052 368.272C31.448 368.272 31.808 368.344 32.133 368.49C32.457 368.635 32.74 368.834 32.981 369.088C33.488 369.62 33.742 370.263 33.742 371.017V374.912C33.742 375.382 33.519 375.713 33.074 375.905C32.938 375.967 32.794 375.998 32.643 375.998C32.491 375.998 32.349 375.97 32.216 375.914C32.083 375.858 31.967 375.781 31.868 375.682C31.658 375.46 31.553 375.203 31.553 374.912V371.045C31.553 370.736 31.476 370.504 31.321 370.349C31.049 370.077 30.799 369.941 30.57 369.941C30.341 369.941 30.162 369.971 30.032 370.029C29.902 370.088 29.784 370.17 29.679 370.275C29.463 370.492 29.355 370.742 29.355 371.026V374.912C29.355 375.382 29.135 375.713 28.696 375.905C28.56 375.967 28.416 375.998 28.265 375.998C28.113 375.998 27.97 375.97 27.833 375.914C27.697 375.858 27.58 375.781 27.481 375.682C27.265 375.466 27.156 375.209 27.156 374.912V371.045C27.156 370.736 27.079 370.504 26.924 370.349C26.652 370.077 26.368 369.941 26.071 369.941C25.576 369.941 25.233 370.133 25.042 370.516C24.98 370.64 24.949 370.779 24.949 370.934V374.912C24.949 375.215 24.868 375.444 24.708 375.599ZM35.969 369.387C35.969 369.084 36.046 368.849 36.201 368.682C36.466 368.41 36.76 368.274 37.082 368.274C37.391 368.274 37.62 368.355 37.768 368.515C38.04 368.794 38.176 369.084 38.176 369.387V374.915C38.176 375.212 38.099 375.437 37.944 375.592C37.672 375.864 37.422 376 37.193 376C36.964 376 36.782 375.971 36.646 375.912C36.51 375.853 36.392 375.777 36.293 375.685C36.077 375.474 35.969 375.218 35.969 374.915V369.387ZM37.077 365.9C36.815 365.9 36.602 365.687 36.602 365.425C36.602 365.162 36.815 364.95 37.077 364.95C37.339 364.95 37.552 365.162 37.552 365.425C37.552 365.687 37.339 365.9 37.077 365.9ZM37.077 364C37.464 364 37.798 364.142 38.079 364.425C38.361 364.709 38.502 364.996 38.502 365.287C38.502 365.577 38.463 365.807 38.385 365.978C38.308 366.148 38.206 366.297 38.079 366.424C37.798 366.708 37.464 366.849 37.077 366.849C36.69 366.849 36.356 366.708 36.074 366.424C35.793 366.141 35.652 365.857 35.652 365.574C35.652 365.092 35.793 364.709 36.074 364.425C36.356 364.142 36.69 364 37.077 364Z" fill="#1D3557"/>
</g>
<path d="M11.7452 21.8654H9.76515V16.9704H7.99415V15.5954H13.5162V16.9704H11.7452V21.8654ZM14.7105 15.5954H16.6905V21.8654H14.7105V15.5954ZM20.191 19.3354V21.8654H18.354V15.5954H20.213L21.874 18.1254C22.1233 18.4994 22.314 18.8147 22.446 19.0714H22.479V18.0154V15.5954H24.305V21.8654H22.435L20.73 19.2254L20.235 18.4774H20.202L20.191 19.3354ZM29.1688 19.8634V21.8654H27.1888V19.8854L25.0768 15.5954H27.0898L27.9258 17.6304C28.0138 17.8357 28.0945 18.052 28.1678 18.2794H28.1898C28.2705 18.03 28.3511 17.8064 28.4318 17.6084L29.2568 15.5954H31.2588L29.1688 19.8634ZM33.8264 17.2894C33.8264 17.4434 33.9034 17.5644 34.0574 17.6524C34.2187 17.7404 34.468 17.8357 34.8054 17.9384C35.2087 18.0704 35.5387 18.1987 35.7954 18.3234C36.0594 18.448 36.2867 18.6424 36.4774 18.9064C36.6754 19.1704 36.7744 19.515 36.7744 19.9404C36.7744 21.3044 35.887 21.9864 34.1124 21.9864C33.819 21.9864 33.4597 21.9607 33.0344 21.9094C32.6164 21.858 32.235 21.792 31.8904 21.7114C31.905 21.5574 31.9344 21.3337 31.9784 21.0404C32.0297 20.7397 32.0774 20.516 32.1214 20.3694C32.378 20.406 32.763 20.45 33.2764 20.5014C33.797 20.5527 34.1894 20.5784 34.4534 20.5784C34.6074 20.5784 34.699 20.5674 34.7284 20.5454C34.7724 20.516 34.8054 20.4684 34.8274 20.4024C34.8567 20.329 34.8714 20.2667 34.8714 20.2154C34.8714 20.0687 34.8017 19.9587 34.6624 19.8854C34.523 19.8047 34.2847 19.7094 33.9474 19.5994C33.544 19.4747 33.2104 19.3464 32.9464 19.2144C32.6824 19.0824 32.4514 18.877 32.2534 18.5984C32.0554 18.3197 31.9564 17.953 31.9564 17.4984C31.9564 17.1757 32.0297 16.8604 32.1764 16.5524C32.323 16.237 32.4734 16.0244 32.6274 15.9144C32.7447 15.8337 32.9867 15.7567 33.3534 15.6834C33.72 15.61 34.0647 15.5734 34.3874 15.5734C35.2087 15.5734 35.8797 15.6504 36.4004 15.8044C36.393 15.951 36.3674 16.1527 36.3234 16.4094C36.2867 16.666 36.2464 16.9007 36.2024 17.1134L35.9494 17.1024C34.996 17.0364 34.3874 17.0034 34.1234 17.0034C34.0134 17.0034 33.951 17.007 33.9364 17.0144C33.907 17.029 33.8814 17.062 33.8594 17.1134C33.8374 17.1647 33.8264 17.2234 33.8264 17.2894ZM41.8635 20.4904H40.0375L39.7075 21.8654H37.6835L39.7075 15.5954H42.2925L44.2285 21.8654H42.1935L41.8635 20.4904ZM40.9395 16.9484L40.2905 19.2694H41.5995L40.9835 16.9484H40.9395ZM48.7529 21.8654H46.2779L44.6609 15.5954H46.7729L47.6089 20.2044H47.6639L48.5549 15.5954H50.6229L51.5359 20.2044H51.5689L52.4159 15.5954H54.4399L52.8229 21.8654H50.3589L49.6109 17.8614H49.5449L48.7529 21.8654Z" fill="white"/>
<path d="M20.5361 255L22.333 249.668H20.8828L19.7842 253.672H19.7207L18.6074 249.668H17.0889L18.9102 255H20.5361ZM24.1709 255.728L26.124 248.965H24.9814L23.0283 255.728H24.1709ZM29.7979 255.098C31.3848 255.098 32.2881 254.126 32.2881 252.637V252.036C32.2881 250.542 31.3799 249.57 29.793 249.57C28.2109 249.57 27.3027 250.537 27.3027 252.036V252.637C27.3027 254.126 28.2158 255.098 29.7979 255.098ZM29.7979 254.077C29.0703 254.077 28.6357 253.535 28.6357 252.642V252.021C28.6357 251.128 29.0703 250.591 29.7979 250.591C30.5205 250.591 30.9551 251.128 30.9551 252.021V252.642C30.9551 253.535 30.5205 254.077 29.7979 254.077ZM35.2588 252.041C35.2588 251.128 35.6494 250.605 36.3525 250.605C36.9727 250.605 37.3828 251.025 37.3828 251.631H38.6377V251.489C38.6377 250.322 37.6611 249.57 36.3428 249.57C34.8047 249.57 33.9258 250.537 33.9258 252.041V252.642C33.9258 254.136 34.8047 255.098 36.3428 255.098C37.6465 255.098 38.6377 254.37 38.6377 253.223V253.076H37.3828C37.3828 253.652 36.9727 254.067 36.3477 254.067C35.6494 254.067 35.2588 253.545 35.2588 252.646V252.041ZM42.8242 255V250.688H44.3721V249.668H39.9678V250.688H41.5156V255H42.8242Z" fill="white"/>
<path d="M6.75977 207H9.25488C10.3828 207 11.2178 206.443 11.2178 205.486C11.2178 204.666 10.5977 204.246 9.94336 204.197V204.144C10.5098 204.036 10.9443 203.641 10.9443 202.981C10.9443 202.166 10.2607 201.668 9.22559 201.668H6.75977V207ZM8.05371 202.571H8.89844C9.39648 202.571 9.66504 202.815 9.66504 203.191C9.66504 203.582 9.3916 203.836 8.72754 203.836H8.05371V202.571ZM8.05371 204.666H8.9668C9.58203 204.666 9.88965 204.949 9.88965 205.389C9.88965 205.823 9.60156 206.102 8.81055 206.102H8.05371V204.666ZM13.793 207L14.1787 205.75H15.9609L16.3369 207H17.7236L15.8975 201.668H14.3154L12.4844 207H13.793ZM15.1064 202.801L15.7168 204.842H14.4229L15.043 202.801H15.1064ZM18.9805 205.447C18.9951 206.346 19.7129 207.098 21.2412 207.098C22.7451 207.098 23.541 206.385 23.541 205.384C23.541 204.446 22.9209 204.036 22.0225 203.86L21.2363 203.709C20.6846 203.597 20.4111 203.436 20.4111 203.123C20.4111 202.781 20.7188 202.522 21.2803 202.522C21.8662 202.522 22.208 202.815 22.2373 203.187H23.4434C23.4336 202.337 22.7012 201.565 21.2852 201.565C19.9766 201.565 19.1025 202.22 19.1025 203.221C19.1025 204.09 19.6592 204.544 20.6553 204.744L21.4023 204.896C21.9688 205.013 22.2471 205.179 22.2471 205.511C22.2471 205.872 21.9346 206.131 21.2949 206.131C20.6602 206.131 20.2598 205.833 20.2305 205.447H18.9805ZM29.1094 206.004H26.6533V204.778H28.958V203.851H26.6533V202.664H29.1094V201.668H25.3594V207H29.1094V206.004ZM35.0801 207V204.974H37.2773V203.997H35.0801V202.674H37.4971V201.668H33.7715V207H35.0801ZM41.5859 201.668H39.2324V207H40.5166V205.081H41.3418L42.3037 207H43.7539L42.6309 204.905C43.1191 204.725 43.6465 204.188 43.6465 203.406C43.6465 202.337 42.8848 201.668 41.5859 201.668ZM40.5166 204.183V202.62H41.3955C41.9229 202.62 42.2939 202.898 42.2939 203.416C42.2939 203.929 41.9326 204.183 41.3809 204.183H40.5166ZM49.2539 206.004H46.7979V204.778H49.1025V203.851H46.7979V202.664H49.2539V201.668H45.5039V207H49.2539V206.004ZM55.8672 207.493L55.1738 206.526C55.6816 206.087 55.96 205.433 55.96 204.632V204.051C55.96 202.562 55.0127 201.57 53.4648 201.57C51.9268 201.57 50.9746 202.557 50.9746 204.051V204.632C50.9746 206.116 51.9268 207.098 53.4648 207.098C53.748 207.098 54.0166 207.059 54.251 206.99L54.6123 207.493H55.8672ZM52.2588 204.036C52.2588 203.128 52.7275 202.586 53.4648 202.586C54.2021 202.586 54.6709 203.128 54.6709 204.036V204.803C54.6709 205.159 54.5879 205.447 54.4316 205.647L54.2021 205.354H53.1279L53.6504 206.087C53.5576 206.121 53.4502 206.136 53.3379 206.136C52.6738 206.077 52.2588 205.54 52.2588 204.656V204.036Z" fill="white"/>
<path d="M8.33691 223L8.72266 221.75H10.5049L10.8809 223H12.2676L10.4414 217.668H8.85938L7.02832 223H8.33691ZM9.65039 218.801L10.2607 220.842H8.9668L9.58691 218.801H9.65039Z" fill="white"/>
<path d="M48.6494 220.041C48.6494 219.128 49.04 218.605 49.7432 218.605C50.3633 218.605 50.7734 219.025 50.7734 219.631H52.0283V219.489C52.0283 218.322 51.0518 217.57 49.7334 217.57C48.1953 217.57 47.3164 218.537 47.3164 220.041V220.642C47.3164 222.136 48.1953 223.098 49.7334 223.098C51.0371 223.098 52.0283 222.37 52.0283 221.223V221.076H50.7734C50.7734 221.652 50.3633 222.067 49.7383 222.067C49.04 222.067 48.6494 221.545 48.6494 220.646V220.041Z" fill="white"/>
<path d="M25.1836 305.098C26.7705 305.098 27.6738 304.126 27.6738 302.637V302.036C27.6738 300.542 26.7656 299.57 25.1787 299.57C23.5967 299.57 22.6885 300.537 22.6885 302.036V302.637C22.6885 304.126 23.6016 305.098 25.1836 305.098ZM25.1836 304.077C24.4561 304.077 24.0215 303.535 24.0215 302.642V302.021C24.0215 301.128 24.4561 300.591 25.1836 300.591C25.9062 300.591 26.3408 301.128 26.3408 302.021V302.642C26.3408 303.535 25.9062 304.077 25.1836 304.077ZM31.8213 304.048C31.2109 304.048 30.7861 303.687 30.7861 302.998V299.668H29.4727V303.145C29.4727 304.336 30.376 305.098 31.8213 305.098C33.2666 305.098 34.1699 304.331 34.1699 303.145V299.668H32.8613V302.998C32.8613 303.682 32.4316 304.048 31.8213 304.048ZM38.542 305V300.688H40.0898V299.668H35.6855V300.688H37.2334V305H38.542Z" fill="white"/>
<path d="M20.5742 45V42.9736H22.7715V41.9971H20.5742V40.6738H22.9912V39.668H19.2656V45H20.5742ZM27.0801 39.668H24.7266V45H26.0107V43.0811H26.8359L27.7979 45H29.248L28.125 42.9053C28.6133 42.7246 29.1406 42.1875 29.1406 41.4062C29.1406 40.3369 28.3789 39.668 27.0801 39.668ZM26.0107 42.1826V40.6201H26.8896C27.417 40.6201 27.7881 40.8984 27.7881 41.416C27.7881 41.9287 27.4268 42.1826 26.875 42.1826H26.0107ZM34.748 44.0039H32.292V42.7783H34.5967V41.8506H32.292V40.6641H34.748V39.668H30.998V45H34.748V44.0039ZM41.3613 45.4932L40.668 44.5264C41.1758 44.0869 41.4541 43.4326 41.4541 42.6318V42.0508C41.4541 40.5615 40.5068 39.5703 38.959 39.5703C37.4209 39.5703 36.4688 40.5566 36.4688 42.0508V42.6318C36.4688 44.1162 37.4209 45.0977 38.959 45.0977C39.2422 45.0977 39.5107 45.0586 39.7451 44.9902L40.1064 45.4932H41.3613ZM37.7529 42.0361C37.7529 41.1279 38.2217 40.5859 38.959 40.5859C39.6963 40.5859 40.165 41.1279 40.165 42.0361V42.8027C40.165 43.1592 40.082 43.4473 39.9258 43.6475L39.6963 43.3545H38.6221L39.1445 44.0869C39.0518 44.1211 38.9443 44.1357 38.832 44.1357C38.168 44.0771 37.7529 43.54 37.7529 42.6562V42.0361Z" fill="white"/>
<rect x="15.75" y="119" width="30" height="66.1696" rx="15" fill="#36617C"/>
<path d="M22.4814 114V110.65H22.5498L23.7754 113.219H24.5566L25.7773 110.65H25.8359V114H27.0176V108.668H25.6797L24.1953 111.764H24.1514L22.667 108.668H21.3242V114H22.4814ZM31.3848 114.098C32.9717 114.098 33.875 113.126 33.875 111.637V111.036C33.875 109.542 32.9668 108.57 31.3799 108.57C29.7979 108.57 28.8896 109.537 28.8896 111.036V111.637C28.8896 113.126 29.8027 114.098 31.3848 114.098ZM31.3848 113.077C30.6572 113.077 30.2227 112.535 30.2227 111.642V111.021C30.2227 110.128 30.6572 109.591 31.3848 109.591C32.1074 109.591 32.542 110.128 32.542 111.021V111.642C32.542 112.535 32.1074 113.077 31.3848 113.077ZM40.4639 111.314C40.4639 109.635 39.6387 108.668 37.9199 108.668H35.7422V114H37.9199C39.6191 114 40.4639 113.019 40.4639 111.314ZM39.126 111.339C39.126 112.647 38.5449 113.004 37.7051 113.004H37.0508V109.664H37.7051C38.7598 109.664 39.126 110.353 39.126 111.339Z" fill="white"/>
</svg>
