<svg width="90" height="380" viewBox="0 0 90 380" fill="none" xmlns="http://www.w3.org/2000/svg">
<g clip-path="url(#clip0)">
<rect width="90" height="380" fill="#457B9D"/>
<g opacity="0.3">
<path fill-rule="evenodd" clip-rule="evenodd" d="M38.958 375.599C38.803 375.747 38.659 375.851 38.526 375.909C38.393 375.968 38.251 375.998 38.1 375.998C37.948 375.998 37.806 375.97 37.673 375.914C37.54 375.858 37.424 375.781 37.325 375.682C37.109 375.466 37 375.209 37 374.912V369.385C37 369.082 37.078 368.847 37.232 368.68C37.498 368.408 37.75 368.272 37.988 368.272C38.226 368.272 38.404 368.296 38.522 368.346C38.639 368.395 38.738 368.457 38.818 368.531C38.924 368.624 39.002 368.723 39.055 368.828C39.108 368.933 39.151 369.011 39.185 369.06C39.219 369.11 39.275 369.134 39.352 369.134C39.429 369.134 39.496 369.11 39.551 369.06L39.709 368.902C40.16 368.482 40.612 368.272 41.063 368.272C41.861 368.272 42.519 368.599 43.039 369.255C43.088 369.323 43.15 369.357 43.224 369.357C43.354 369.357 43.486 369.256 43.619 369.055C43.752 368.854 43.966 368.674 44.263 368.513C44.56 368.352 44.906 368.272 45.302 368.272C45.698 368.272 46.058 368.344 46.383 368.49C46.707 368.635 46.99 368.834 47.231 369.088C47.738 369.62 47.992 370.263 47.992 371.017V374.912C47.992 375.382 47.769 375.713 47.324 375.905C47.188 375.967 47.044 375.998 46.893 375.998C46.741 375.998 46.599 375.97 46.466 375.914C46.333 375.858 46.217 375.781 46.118 375.682C45.908 375.46 45.803 375.203 45.803 374.912V371.045C45.803 370.736 45.726 370.504 45.571 370.349C45.299 370.077 45.049 369.941 44.82 369.941C44.591 369.941 44.412 369.971 44.282 370.029C44.152 370.088 44.034 370.17 43.929 370.275C43.713 370.492 43.605 370.742 43.605 371.026V374.912C43.605 375.382 43.385 375.713 42.946 375.905C42.81 375.967 42.666 375.998 42.515 375.998C42.363 375.998 42.22 375.97 42.083 375.914C41.947 375.858 41.83 375.781 41.731 375.682C41.515 375.466 41.406 375.209 41.406 374.912V371.045C41.406 370.736 41.329 370.504 41.174 370.349C40.902 370.077 40.618 369.941 40.321 369.941C39.826 369.941 39.483 370.133 39.292 370.516C39.23 370.64 39.199 370.779 39.199 370.934V374.912C39.199 375.215 39.118 375.444 38.958 375.599ZM50.219 369.387C50.219 369.084 50.296 368.849 50.451 368.682C50.716 368.41 51.01 368.274 51.332 368.274C51.641 368.274 51.87 368.355 52.018 368.515C52.29 368.794 52.426 369.084 52.426 369.387V374.915C52.426 375.212 52.349 375.437 52.194 375.592C51.922 375.864 51.672 376 51.443 376C51.214 376 51.032 375.971 50.896 375.912C50.76 375.853 50.642 375.777 50.543 375.685C50.327 375.474 50.219 375.218 50.219 374.915V369.387ZM51.327 365.9C51.065 365.9 50.852 365.687 50.852 365.425C50.852 365.162 51.065 364.95 51.327 364.95C51.589 364.95 51.802 365.162 51.802 365.425C51.802 365.687 51.589 365.9 51.327 365.9ZM51.327 364C51.714 364 52.048 364.142 52.329 364.425C52.611 364.709 52.752 364.996 52.752 365.287C52.752 365.577 52.713 365.807 52.635 365.978C52.558 366.148 52.456 366.297 52.329 366.424C52.048 366.708 51.714 366.849 51.327 366.849C50.94 366.849 50.606 366.708 50.324 366.424C50.043 366.141 49.902 365.857 49.902 365.574C49.902 365.092 50.043 364.709 50.324 364.425C50.606 364.142 50.94 364 51.327 364Z" fill="#1D3557"/>
</g>
<path d="M12.3769 17.2894C12.3769 17.4434 12.4539 17.5644 12.6079 17.6524C12.7692 17.7404 13.0185 17.8357 13.3559 17.9384C13.7592 18.0704 14.0892 18.1987 14.3459 18.3234C14.6099 18.448 14.8372 18.6424 15.0279 18.9064C15.2259 19.1704 15.3249 19.515 15.3249 19.9404C15.3249 21.3044 14.4375 21.9864 12.6629 21.9864C12.3695 21.9864 12.0102 21.9607 11.5849 21.9094C11.1669 21.858 10.7855 21.792 10.4409 21.7114C10.4555 21.5574 10.4849 21.3337 10.5289 21.0404C10.5802 20.7397 10.6279 20.516 10.6719 20.3694C10.9285 20.406 11.3135 20.45 11.8269 20.5014C12.3475 20.5527 12.7399 20.5784 13.0039 20.5784C13.1579 20.5784 13.2495 20.5674 13.2789 20.5454C13.3229 20.516 13.3559 20.4684 13.3779 20.4024C13.4072 20.329 13.4219 20.2667 13.4219 20.2154C13.4219 20.0687 13.3522 19.9587 13.2129 19.8854C13.0735 19.8047 12.8352 19.7094 12.4979 19.5994C12.0945 19.4747 11.7609 19.3464 11.4969 19.2144C11.2329 19.0824 11.0019 18.877 10.8039 18.5984C10.6059 18.3197 10.5069 17.953 10.5069 17.4984C10.5069 17.1757 10.5802 16.8604 10.7269 16.5524C10.8735 16.237 11.0239 16.0244 11.1779 15.9144C11.2952 15.8337 11.5372 15.7567 11.9039 15.6834C12.2705 15.61 12.6152 15.5734 12.9379 15.5734C13.7592 15.5734 14.4302 15.6504 14.9509 15.8044C14.9435 15.951 14.9179 16.1527 14.8739 16.4094C14.8372 16.666 14.7969 16.9007 14.7529 17.1134L14.4999 17.1024C13.5465 17.0364 12.9379 17.0034 12.6739 17.0034C12.5639 17.0034 12.5015 17.007 12.4869 17.0144C12.4575 17.029 12.4319 17.062 12.4099 17.1134C12.3879 17.1647 12.3769 17.2234 12.3769 17.2894ZM16.795 15.5954H18.775V21.8654H16.795V15.5954ZM25.9165 18.3894V21.5244C25.4251 21.6857 24.9595 21.803 24.5195 21.8764C24.0795 21.9497 23.7091 21.9864 23.4085 21.9864C22.4111 21.9864 21.6301 21.726 21.0655 21.2054C20.5008 20.6847 20.2185 19.8854 20.2185 18.8074C20.2185 17.7074 20.5155 16.886 21.1095 16.3434C21.7035 15.7934 22.5395 15.5184 23.6175 15.5184C24.1821 15.5184 24.8605 15.6027 25.6525 15.7714C25.6525 15.918 25.6378 16.138 25.6085 16.4314C25.5791 16.7174 25.5498 16.919 25.5205 17.0364L25.1245 17.0254C24.6405 17.0107 24.2628 17.0034 23.9915 17.0034C23.1775 17.0034 22.7338 17.051 22.6605 17.1464C22.5431 17.2857 22.4588 17.502 22.4075 17.7954C22.3635 18.0887 22.3415 18.371 22.3415 18.6424C22.3415 19.1337 22.3965 19.515 22.5065 19.7864C22.6165 20.0577 22.7851 20.2484 23.0125 20.3584C23.2398 20.4684 23.5478 20.5234 23.9365 20.5234H23.9805V18.3894H25.9165ZM29.2386 19.3354V21.8654H27.4016V15.5954H29.2606L30.9216 18.1254C31.1709 18.4994 31.3616 18.8147 31.4936 19.0714H31.5266V18.0154V15.5954H33.3526V21.8654H31.4826L29.7776 19.2254L29.2826 18.4774H29.2496L29.2386 19.3354ZM38.6177 20.4904H36.7917L36.4617 21.8654H34.4377L36.4617 15.5954H39.0467L40.9827 21.8654H38.9477L38.6177 20.4904ZM37.6937 16.9484L37.0447 19.2694H38.3537L37.7377 16.9484H37.6937ZM42.0577 15.5954H44.0377V20.4134H46.6007V21.8654H42.0577V15.5954ZM52.2654 15.5954C53.1234 15.5954 53.8238 15.676 54.3664 15.8374C54.9164 15.9987 55.3418 16.303 55.6424 16.7504C55.9504 17.1977 56.1044 17.8394 56.1044 18.6754C56.1044 19.57 55.9431 20.252 55.6204 20.7214C55.2978 21.1834 54.8651 21.4914 54.3224 21.6454C53.7798 21.792 53.0941 21.8654 52.2654 21.8654H50.0654V15.5954H52.2654ZM53.7394 20.3694C53.8274 20.2814 53.8898 20.054 53.9264 19.6874C53.9631 19.3207 53.9814 18.9834 53.9814 18.6754C53.9814 18.2867 53.9521 17.9787 53.8934 17.7514C53.8421 17.5167 53.7468 17.3297 53.6074 17.1904C53.3874 16.9484 53.0098 16.8274 52.4744 16.8274C52.3791 16.8274 52.2361 16.8347 52.0454 16.8494V20.5014C52.1701 20.516 52.3644 20.5234 52.6284 20.5234C52.8998 20.5234 53.1381 20.5124 53.3434 20.4904C53.5561 20.461 53.6881 20.4207 53.7394 20.3694ZM57.4784 15.5954H62.0434V16.9154H59.4584V18.0594H61.6364V19.2474H59.4584V20.5234H62.0324V21.8654H57.4784V15.5954ZM63.411 15.5954H65.391V20.4134H67.954V21.8654H63.411V15.5954ZM72.8445 20.4904H71.0185L70.6885 21.8654H68.6645L70.6885 15.5954H73.2735L75.2095 21.8654H73.1745L72.8445 20.4904ZM71.9205 16.9484L71.2715 19.2694H72.5805L71.9645 16.9484H71.9205ZM78.9658 19.8634V21.8654H76.9858V19.8854L74.8738 15.5954H76.8868L77.7228 17.6304C77.8108 17.8357 77.8914 18.052 77.9648 18.2794H77.9868C78.0674 18.03 78.1481 17.8064 78.2288 17.6084L79.0538 15.5954H81.0558L78.9658 19.8634Z" fill="white"/>
<rect x="8" y="30" width="60" height="20" rx="5" fill="#36617C"/>
<path d="M20.2939 155V149.668H18.9854V155H20.2939ZM23.6064 155V151.753H23.6553L25.9697 155H27.0098V149.668H25.7842V152.886H25.7354L23.4307 149.668H22.3857V155H23.6064Z" fill="white"/>
<path d="M60.9336 155.098C62.5205 155.098 63.4238 154.126 63.4238 152.637V152.036C63.4238 150.542 62.5156 149.57 60.9287 149.57C59.3467 149.57 58.4385 150.537 58.4385 152.036V152.637C58.4385 154.126 59.3516 155.098 60.9336 155.098ZM60.9336 154.077C60.2061 154.077 59.7715 153.535 59.7715 152.642V152.021C59.7715 151.128 60.2061 150.591 60.9336 150.591C61.6562 150.591 62.0908 151.128 62.0908 152.021V152.642C62.0908 153.535 61.6562 154.077 60.9336 154.077ZM67.5713 154.048C66.9609 154.048 66.5361 153.687 66.5361 152.998V149.668H65.2227V153.145C65.2227 154.336 66.126 155.098 67.5713 155.098C69.0166 155.098 69.9199 154.331 69.9199 153.145V149.668H68.6113V152.998C68.6113 153.682 68.1816 154.048 67.5713 154.048ZM74.292 155V150.688H75.8398V149.668H71.4355V150.688H72.9834V155H74.292Z" fill="white"/>
<path opacity="0.5" d="M0 195H90" stroke="#1D3557"/>
<rect x="8" y="75" width="30" height="66.17" rx="15" fill="#36617C"/>
<path d="M15.1748 70V65.6885H16.7227V64.668H12.3184V65.6885H13.8662V70H15.1748ZM19.6836 70V64.668H18.375V70H19.6836ZM22.9424 70V66.6504H23.0107L24.2363 69.2188H25.0176L26.2383 66.6504H26.2969V70H27.4785V64.668H26.1406L24.6562 67.7637H24.6123L23.1279 64.668H21.7852V70H22.9424ZM33.3301 69.0039H30.874V67.7783H33.1787V66.8506H30.874V65.6641H33.3301V64.668H29.5801V70H33.3301V69.0039Z" fill="white"/>
<path d="M55.2246 64.4473C55.2393 65.3457 55.957 66.0977 57.4854 66.0977C58.9893 66.0977 59.7852 65.3848 59.7852 64.3838C59.7852 63.4463 59.165 63.0361 58.2666 62.8604L57.4805 62.709C56.9287 62.5967 56.6553 62.4355 56.6553 62.123C56.6553 61.7812 56.9629 61.5225 57.5244 61.5225C58.1104 61.5225 58.4521 61.8154 58.4814 62.1865H59.6875C59.6777 61.3369 58.9453 60.5654 57.5293 60.5654C56.2207 60.5654 55.3467 61.2197 55.3467 62.2207C55.3467 63.0898 55.9033 63.5439 56.8994 63.7441L57.6465 63.8955C58.2129 64.0127 58.4912 64.1787 58.4912 64.5107C58.4912 64.8721 58.1787 65.1309 57.5391 65.1309C56.9043 65.1309 56.5039 64.833 56.4746 64.4473H55.2246ZM65.3535 65.0039H62.8975V63.7783H65.2021V62.8506H62.8975V61.6641H65.3535V60.668H61.6035V66H65.3535V65.0039ZM68.5098 66V62.7529H68.5586L70.873 66H71.9131V60.668H70.6875V63.8857H70.6387L68.334 60.668H67.2891V66H68.5098ZM78.7314 63.3145C78.7314 61.6348 77.9062 60.668 76.1875 60.668H74.0098V66H76.1875C77.8867 66 78.7314 65.0186 78.7314 63.3145ZM77.3936 63.3389C77.3936 64.6475 76.8125 65.0039 75.9727 65.0039H75.3184V61.6641H75.9727C77.0273 61.6641 77.3936 62.3525 77.3936 63.3389ZM60.2686 70.4746C60.2686 69.4834 59.5801 68.668 58.3105 68.668H55.957V74H57.2607V72.3301H58.3008C59.5703 72.3301 60.2686 71.4756 60.2686 70.4746ZM58.9404 70.5039C58.9404 71.041 58.6279 71.3828 58.0859 71.3828H57.2559V69.6299H58.0371C58.6084 69.6299 58.9404 69.9473 58.9404 70.5039ZM64.2402 74.0977C65.8271 74.0977 66.7305 73.126 66.7305 71.6367V71.0361C66.7305 69.542 65.8223 68.5703 64.2354 68.5703C62.6533 68.5703 61.7451 69.5371 61.7451 71.0361V71.6367C61.7451 73.126 62.6582 74.0977 64.2402 74.0977ZM64.2402 73.0771C63.5127 73.0771 63.0781 72.5352 63.0781 71.6416V71.0215C63.0781 70.1279 63.5127 69.5908 64.2402 69.5908C64.9629 69.5908 65.3975 70.1279 65.3975 71.0215V71.6416C65.3975 72.5352 64.9629 73.0771 64.2402 73.0771ZM68.2754 72.4473C68.29 73.3457 69.0078 74.0977 70.5361 74.0977C72.04 74.0977 72.8359 73.3848 72.8359 72.3838C72.8359 71.4463 72.2158 71.0361 71.3174 70.8604L70.5312 70.709C69.9795 70.5967 69.7061 70.4355 69.7061 70.123C69.7061 69.7812 70.0137 69.5225 70.5752 69.5225C71.1611 69.5225 71.5029 69.8154 71.5322 70.1865H72.7383C72.7285 69.3369 71.9961 68.5654 70.5801 68.5654C69.2715 68.5654 68.3975 69.2197 68.3975 70.2207C68.3975 71.0898 68.9541 71.5439 69.9502 71.7441L70.6973 71.8955C71.2637 72.0127 71.542 72.1787 71.542 72.5107C71.542 72.8721 71.2295 73.1309 70.5898 73.1309C69.9551 73.1309 69.5547 72.833 69.5254 72.4473H68.2754ZM77.0029 74V69.6885H78.5508V68.668H74.1465V69.6885H75.6943V74H77.0029Z" fill="white"/>
<path d="M73.9629 42V38.6504H74.0312L75.2568 41.2188H76.0381L77.2588 38.6504H77.3174V42H78.499V36.668H77.1611L75.6768 39.7637H75.6328L74.1484 36.668H72.8057V42H73.9629ZM80.2783 40.4473C80.293 41.3457 81.0107 42.0977 82.5391 42.0977C84.043 42.0977 84.8389 41.3848 84.8389 40.3838C84.8389 39.4463 84.2188 39.0361 83.3203 38.8604L82.5342 38.709C81.9824 38.5967 81.709 38.4355 81.709 38.123C81.709 37.7812 82.0166 37.5225 82.5781 37.5225C83.1641 37.5225 83.5059 37.8154 83.5352 38.1865H84.7412C84.7314 37.3369 83.999 36.5654 82.583 36.5654C81.2744 36.5654 80.4004 37.2197 80.4004 38.2207C80.4004 39.0898 80.957 39.5439 81.9531 39.7441L82.7002 39.8955C83.2666 40.0127 83.5449 40.1787 83.5449 40.5107C83.5449 40.8721 83.2324 41.1309 82.5928 41.1309C81.958 41.1309 81.5576 40.833 81.5283 40.4473H80.2783Z" fill="white"/>
<path d="M63.1074 107.475C63.1074 106.483 62.4189 105.668 61.1494 105.668H58.7959V111H60.0996V109.33H61.1396C62.4092 109.33 63.1074 108.476 63.1074 107.475ZM61.7793 107.504C61.7793 108.041 61.4668 108.383 60.9248 108.383H60.0947V106.63H60.876C61.4473 106.63 61.7793 106.947 61.7793 107.504ZM67.167 105.668H64.8135V111H66.0977V109.081H66.9229L67.8848 111H69.335L68.2119 108.905C68.7002 108.725 69.2275 108.188 69.2275 107.406C69.2275 106.337 68.4658 105.668 67.167 105.668ZM66.0977 108.183V106.62H66.9766C67.5039 106.62 67.875 106.898 67.875 107.416C67.875 107.929 67.5137 108.183 66.9619 108.183H66.0977ZM74.835 110.004H72.3789V108.778H74.6836V107.851H72.3789V106.664H74.835V105.668H71.085V111H74.835V110.004Z" fill="white"/>
<rect x="20" y="204" width="50" height="20" rx="5" fill="#36617C"/>
<path d="M20.2939 329V323.668H18.9854V329H20.2939ZM23.6064 329V325.753H23.6553L25.9697 329H27.0098V323.668H25.7842V326.886H25.7354L23.4307 323.668H22.3857V329H23.6064Z" fill="white"/>
<path d="M60.9336 329.098C62.5205 329.098 63.4238 328.126 63.4238 326.637V326.036C63.4238 324.542 62.5156 323.57 60.9287 323.57C59.3467 323.57 58.4385 324.537 58.4385 326.036V326.637C58.4385 328.126 59.3516 329.098 60.9336 329.098ZM60.9336 328.077C60.2061 328.077 59.7715 327.535 59.7715 326.642V326.021C59.7715 325.128 60.2061 324.591 60.9336 324.591C61.6562 324.591 62.0908 325.128 62.0908 326.021V326.642C62.0908 327.535 61.6562 328.077 60.9336 328.077ZM67.5713 328.048C66.9609 328.048 66.5361 327.687 66.5361 326.998V323.668H65.2227V327.145C65.2227 328.336 66.126 329.098 67.5713 329.098C69.0166 329.098 69.9199 328.331 69.9199 327.145V323.668H68.6113V326.998C68.6113 327.682 68.1816 328.048 67.5713 328.048ZM74.292 329V324.688H75.8398V323.668H71.4355V324.688H72.9834V329H74.292Z" fill="white"/>
<rect x="8" y="249" width="30" height="66.17" rx="15" fill="#36617C"/>
<path d="M15.1748 244V239.688H16.7227V238.668H12.3184V239.688H13.8662V244H15.1748ZM19.6836 244V238.668H18.375V244H19.6836ZM22.9424 244V240.65H23.0107L24.2363 243.219H25.0176L26.2383 240.65H26.2969V244H27.4785V238.668H26.1406L24.6562 241.764H24.6123L23.1279 238.668H21.7852V244H22.9424ZM33.3301 243.004H30.874V241.778H33.1787V240.851H30.874V239.664H33.3301V238.668H29.5801V244H33.3301V243.004Z" fill="white"/>
<path d="M55.2246 238.447C55.2393 239.346 55.957 240.098 57.4854 240.098C58.9893 240.098 59.7852 239.385 59.7852 238.384C59.7852 237.446 59.165 237.036 58.2666 236.86L57.4805 236.709C56.9287 236.597 56.6553 236.436 56.6553 236.123C56.6553 235.781 56.9629 235.522 57.5244 235.522C58.1104 235.522 58.4521 235.815 58.4814 236.187H59.6875C59.6777 235.337 58.9453 234.565 57.5293 234.565C56.2207 234.565 55.3467 235.22 55.3467 236.221C55.3467 237.09 55.9033 237.544 56.8994 237.744L57.6465 237.896C58.2129 238.013 58.4912 238.179 58.4912 238.511C58.4912 238.872 58.1787 239.131 57.5391 239.131C56.9043 239.131 56.5039 238.833 56.4746 238.447H55.2246ZM65.3535 239.004H62.8975V237.778H65.2021V236.851H62.8975V235.664H65.3535V234.668H61.6035V240H65.3535V239.004ZM68.5098 240V236.753H68.5586L70.873 240H71.9131V234.668H70.6875V237.886H70.6387L68.334 234.668H67.2891V240H68.5098ZM78.7314 237.314C78.7314 235.635 77.9062 234.668 76.1875 234.668H74.0098V240H76.1875C77.8867 240 78.7314 239.019 78.7314 237.314ZM77.3936 237.339C77.3936 238.647 76.8125 239.004 75.9727 239.004H75.3184V235.664H75.9727C77.0273 235.664 77.3936 236.353 77.3936 237.339ZM60.2686 244.475C60.2686 243.483 59.5801 242.668 58.3105 242.668H55.957V248H57.2607V246.33H58.3008C59.5703 246.33 60.2686 245.476 60.2686 244.475ZM58.9404 244.504C58.9404 245.041 58.6279 245.383 58.0859 245.383H57.2559V243.63H58.0371C58.6084 243.63 58.9404 243.947 58.9404 244.504ZM64.2402 248.098C65.8271 248.098 66.7305 247.126 66.7305 245.637V245.036C66.7305 243.542 65.8223 242.57 64.2354 242.57C62.6533 242.57 61.7451 243.537 61.7451 245.036V245.637C61.7451 247.126 62.6582 248.098 64.2402 248.098ZM64.2402 247.077C63.5127 247.077 63.0781 246.535 63.0781 245.642V245.021C63.0781 244.128 63.5127 243.591 64.2402 243.591C64.9629 243.591 65.3975 244.128 65.3975 245.021V245.642C65.3975 246.535 64.9629 247.077 64.2402 247.077ZM68.2754 246.447C68.29 247.346 69.0078 248.098 70.5361 248.098C72.04 248.098 72.8359 247.385 72.8359 246.384C72.8359 245.446 72.2158 245.036 71.3174 244.86L70.5312 244.709C69.9795 244.597 69.7061 244.436 69.7061 244.123C69.7061 243.781 70.0137 243.522 70.5752 243.522C71.1611 243.522 71.5029 243.815 71.5322 244.187H72.7383C72.7285 243.337 71.9961 242.565 70.5801 242.565C69.2715 242.565 68.3975 243.22 68.3975 244.221C68.3975 245.09 68.9541 245.544 69.9502 245.744L70.6973 245.896C71.2637 246.013 71.542 246.179 71.542 246.511C71.542 246.872 71.2295 247.131 70.5898 247.131C69.9551 247.131 69.5547 246.833 69.5254 246.447H68.2754ZM77.0029 248V243.688H78.5508V242.668H74.1465V243.688H75.6943V248H77.0029Z" fill="white"/>
<path d="M73.9629 216V212.65H74.0312L75.2568 215.219H76.0381L77.2588 212.65H77.3174V216H78.499V210.668H77.1611L75.6768 213.764H75.6328L74.1484 210.668H72.8057V216H73.9629ZM80.2783 214.447C80.293 215.346 81.0107 216.098 82.5391 216.098C84.043 216.098 84.8389 215.385 84.8389 214.384C84.8389 213.446 84.2188 213.036 83.3203 212.86L82.5342 212.709C81.9824 212.597 81.709 212.436 81.709 212.123C81.709 211.781 82.0166 211.522 82.5781 211.522C83.1641 211.522 83.5059 211.815 83.5352 212.187H84.7412C84.7314 211.337 83.999 210.565 82.583 210.565C81.2744 210.565 80.4004 211.22 80.4004 212.221C80.4004 213.09 80.957 213.544 81.9531 213.744L82.7002 213.896C83.2666 214.013 83.5449 214.179 83.5449 214.511C83.5449 214.872 83.2324 215.131 82.5928 215.131C81.958 215.131 81.5576 214.833 81.5283 214.447H80.2783Z" fill="white"/>
<path d="M63.1074 281.475C63.1074 280.483 62.4189 279.668 61.1494 279.668H58.7959V285H60.0996V283.33H61.1396C62.4092 283.33 63.1074 282.476 63.1074 281.475ZM61.7793 281.504C61.7793 282.041 61.4668 282.383 60.9248 282.383H60.0947V280.63H60.876C61.4473 280.63 61.7793 280.947 61.7793 281.504ZM67.167 279.668H64.8135V285H66.0977V283.081H66.9229L67.8848 285H69.335L68.2119 282.905C68.7002 282.725 69.2275 282.188 69.2275 281.406C69.2275 280.337 68.4658 279.668 67.167 279.668ZM66.0977 282.183V280.62H66.9766C67.5039 280.62 67.875 280.898 67.875 281.416C67.875 281.929 67.5137 282.183 66.9619 282.183H66.0977ZM74.835 284.004H72.3789V282.778H74.6836V281.851H72.3789V280.664H74.835V279.668H71.085V285H74.835V284.004Z" fill="white"/>
</g>
<defs>
<clipPath id="clip0">
<rect width="90" height="380" fill="white"/>
</clipPath>
</defs>
</svg>
