<svg width="90" height="380" viewBox="0 0 90 380" fill="none" xmlns="http://www.w3.org/2000/svg">
<rect width="90" height="380" fill="#457B9D"/>
<g opacity="0.5">
<path fill-rule="evenodd" clip-rule="evenodd" d="M38.958 375.599C38.803 375.747 38.659 375.851 38.526 375.909C38.393 375.968 38.251 375.998 38.1 375.998C37.948 375.998 37.806 375.97 37.673 375.914C37.54 375.858 37.424 375.781 37.325 375.682C37.109 375.466 37 375.209 37 374.912V369.385C37 369.082 37.078 368.847 37.232 368.68C37.498 368.408 37.75 368.272 37.988 368.272C38.226 368.272 38.404 368.296 38.522 368.346C38.639 368.395 38.738 368.457 38.818 368.531C38.924 368.624 39.002 368.723 39.055 368.828C39.108 368.933 39.151 369.011 39.185 369.06C39.219 369.11 39.275 369.134 39.352 369.134C39.429 369.134 39.496 369.11 39.551 369.06L39.709 368.902C40.16 368.482 40.612 368.272 41.063 368.272C41.861 368.272 42.519 368.599 43.039 369.255C43.088 369.323 43.15 369.357 43.224 369.357C43.354 369.357 43.486 369.256 43.619 369.055C43.752 368.854 43.966 368.674 44.263 368.513C44.56 368.352 44.906 368.272 45.302 368.272C45.698 368.272 46.058 368.344 46.383 368.49C46.707 368.635 46.99 368.834 47.231 369.088C47.738 369.62 47.992 370.263 47.992 371.017V374.912C47.992 375.382 47.769 375.713 47.324 375.905C47.188 375.967 47.044 375.998 46.893 375.998C46.741 375.998 46.599 375.97 46.466 375.914C46.333 375.858 46.217 375.781 46.118 375.682C45.908 375.46 45.803 375.203 45.803 374.912V371.045C45.803 370.736 45.726 370.504 45.571 370.349C45.299 370.077 45.049 369.941 44.82 369.941C44.591 369.941 44.412 369.971 44.282 370.029C44.152 370.088 44.034 370.17 43.929 370.275C43.713 370.492 43.605 370.742 43.605 371.026V374.912C43.605 375.382 43.385 375.713 42.946 375.905C42.81 375.967 42.666 375.998 42.515 375.998C42.363 375.998 42.22 375.97 42.083 375.914C41.947 375.858 41.83 375.781 41.731 375.682C41.515 375.466 41.406 375.209 41.406 374.912V371.045C41.406 370.736 41.329 370.504 41.174 370.349C40.902 370.077 40.618 369.941 40.321 369.941C39.826 369.941 39.483 370.133 39.292 370.516C39.23 370.64 39.199 370.779 39.199 370.934V374.912C39.199 375.215 39.118 375.444 38.958 375.599ZM50.219 369.387C50.219 369.084 50.296 368.849 50.451 368.682C50.716 368.41 51.01 368.274 51.332 368.274C51.641 368.274 51.87 368.355 52.018 368.515C52.29 368.794 52.426 369.084 52.426 369.387V374.915C52.426 375.212 52.349 375.437 52.194 375.592C51.922 375.864 51.672 376 51.443 376C51.214 376 51.032 375.971 50.896 375.912C50.76 375.853 50.642 375.777 50.543 375.685C50.327 375.474 50.219 375.218 50.219 374.915V369.387ZM51.327 365.9C51.065 365.9 50.852 365.687 50.852 365.425C50.852 365.162 51.065 364.95 51.327 364.95C51.589 364.95 51.802 365.162 51.802 365.425C51.802 365.687 51.589 365.9 51.327 365.9ZM51.327 364C51.714 364 52.048 364.142 52.329 364.425C52.611 364.709 52.752 364.996 52.752 365.287C52.752 365.577 52.713 365.807 52.635 365.978C52.558 366.148 52.456 366.297 52.329 366.424C52.048 366.708 51.714 366.849 51.327 366.849C50.94 366.849 50.606 366.708 50.324 366.424C50.043 366.141 49.902 365.857 49.902 365.574C49.902 365.092 50.043 364.709 50.324 364.425C50.606 364.142 50.94 364 51.327 364Z" fill="#1D3557"/>
</g>
<path d="M12.6657 17.8734C12.6657 18.0414 12.7497 18.1734 12.9177 18.2694C13.0937 18.3654 13.3657 18.4694 13.7337 18.5814C14.1737 18.7254 14.5337 18.8654 14.8137 19.0014C15.1017 19.1374 15.3497 19.3494 15.5577 19.6374C15.7737 19.9254 15.8817 20.3014 15.8817 20.7654C15.8817 22.2534 14.9137 22.9974 12.9777 22.9974C12.6577 22.9974 12.2657 22.9694 11.8017 22.9134C11.3457 22.8574 10.9297 22.7854 10.5537 22.6974C10.5697 22.5294 10.6017 22.2854 10.6497 21.9654C10.7057 21.6374 10.7577 21.3934 10.8057 21.2334C11.0857 21.2734 11.5057 21.3214 12.0657 21.3774C12.6337 21.4334 13.0617 21.4614 13.3497 21.4614C13.5177 21.4614 13.6177 21.4494 13.6497 21.4254C13.6977 21.3934 13.7337 21.3414 13.7577 21.2694C13.7897 21.1894 13.8057 21.1214 13.8057 21.0654C13.8057 20.9054 13.7297 20.7854 13.5777 20.7054C13.4257 20.6174 13.1657 20.5134 12.7977 20.3934C12.3577 20.2574 11.9937 20.1174 11.7057 19.9734C11.4177 19.8294 11.1657 19.6054 10.9497 19.3014C10.7337 18.9974 10.6257 18.5974 10.6257 18.1014C10.6257 17.7494 10.7057 17.4054 10.8657 17.0694C11.0257 16.7254 11.1897 16.4934 11.3577 16.3734C11.4857 16.2854 11.7497 16.2014 12.1497 16.1214C12.5497 16.0414 12.9257 16.0014 13.2777 16.0014C14.1737 16.0014 14.9057 16.0854 15.4737 16.2534C15.4657 16.4134 15.4377 16.6334 15.3897 16.9134C15.3497 17.1934 15.3057 17.4494 15.2577 17.6814L14.9817 17.6694C13.9417 17.5974 13.2777 17.5614 12.9897 17.5614C12.8697 17.5614 12.8017 17.5654 12.7857 17.5734C12.7537 17.5894 12.7257 17.6254 12.7017 17.6814C12.6777 17.7374 12.6657 17.8014 12.6657 17.8734ZM16.8854 16.0254H19.0454V22.8654H16.8854V16.0254ZM26.2362 19.0734V22.4934C25.7002 22.6694 25.1922 22.7974 24.7122 22.8774C24.2322 22.9574 23.8282 22.9974 23.5002 22.9974C22.4122 22.9974 21.5602 22.7134 20.9442 22.1454C20.3282 21.5774 20.0202 20.7054 20.0202 19.5294C20.0202 18.3294 20.3442 17.4334 20.9922 16.8414C21.6402 16.2414 22.5522 15.9414 23.7282 15.9414C24.3442 15.9414 25.0842 16.0334 25.9482 16.2174C25.9482 16.3774 25.9322 16.6174 25.9002 16.9374C25.8682 17.2494 25.8362 17.4694 25.8042 17.5974L25.3722 17.5854C24.8442 17.5694 24.4322 17.5614 24.1362 17.5614C23.2482 17.5614 22.7642 17.6134 22.6842 17.7174C22.5562 17.8694 22.4642 18.1054 22.4082 18.4254C22.3602 18.7454 22.3362 19.0534 22.3362 19.3494C22.3362 19.8854 22.3962 20.3014 22.5162 20.5974C22.6362 20.8934 22.8202 21.1014 23.0682 21.2214C23.3162 21.3414 23.6522 21.4014 24.0762 21.4014H24.1242V19.0734H26.2362ZM29.2603 20.1054V22.8654H27.2563V16.0254H29.2843L31.0963 18.7854C31.3683 19.1934 31.5763 19.5374 31.7203 19.8174H31.7563V18.6654V16.0254H33.7483V22.8654H31.7083L29.8483 19.9854L29.3083 19.1694H29.2723L29.2603 20.1054ZM38.892 21.3654H36.9L36.54 22.8654H34.332L36.54 16.0254H39.36L41.472 22.8654H39.252L38.892 21.3654ZM37.884 17.5014L37.176 20.0334H38.604L37.932 17.5014H37.884ZM42.0448 16.0254H44.2048V21.2814H47.0008V22.8654H42.0448V16.0254ZM51.9805 16.0254C52.9165 16.0254 53.6805 16.1134 54.2725 16.2894C54.8725 16.4654 55.3365 16.7974 55.6645 17.2854C56.0005 17.7734 56.1685 18.4734 56.1685 19.3854C56.1685 20.3614 55.9925 21.1054 55.6405 21.6174C55.2885 22.1214 54.8165 22.4574 54.2245 22.6254C53.6325 22.7854 52.8845 22.8654 51.9805 22.8654H49.5805V16.0254H51.9805ZM53.5885 21.2334C53.6845 21.1374 53.7525 20.8894 53.7925 20.4894C53.8325 20.0894 53.8525 19.7214 53.8525 19.3854C53.8525 18.9614 53.8205 18.6254 53.7565 18.3774C53.7005 18.1214 53.5965 17.9174 53.4445 17.7654C53.2045 17.5014 52.7925 17.3694 52.2085 17.3694C52.1045 17.3694 51.9485 17.3774 51.7405 17.3934V21.3774C51.8765 21.3934 52.0885 21.4014 52.3765 21.4014C52.6725 21.4014 52.9325 21.3894 53.1565 21.3654C53.3885 21.3334 53.5325 21.2894 53.5885 21.2334ZM57.0673 16.0254H62.0473V17.4654H59.2273V18.7134H61.6033V20.0094H59.2273V21.4014H62.0353V22.8654H57.0673V16.0254ZM62.9393 16.0254H65.0993V21.2814H67.8953V22.8654H62.9393V16.0254ZM72.6303 21.3654H70.6383L70.2783 22.8654H68.0703L70.2783 16.0254H73.0983L75.2103 22.8654H72.9903L72.6303 21.3654ZM71.6223 17.5014L70.9143 20.0334H72.3423L71.6703 17.5014H71.6223ZM78.7081 20.6814V22.8654H76.5481V20.7054L74.2441 16.0254H76.4401L77.3521 18.2454C77.4481 18.4694 77.5361 18.7054 77.6161 18.9534H77.6401C77.7281 18.6814 77.8161 18.4374 77.9041 18.2214L78.8041 16.0254H80.9881L78.7081 20.6814Z" fill="#A8DADC"/>
<rect x="8" y="30" width="60" height="20" rx="5" fill="#36617C"/>
<path d="M19.7553 150.893C19.4833 150.893 19.2473 150.801 19.0473 150.617C18.8553 150.433 18.7593 150.213 18.7593 149.957C18.7593 149.701 18.8553 149.481 19.0473 149.297C19.2473 149.113 19.4833 149.021 19.7553 149.021C20.0273 149.021 20.2593 149.113 20.4513 149.297C20.6433 149.481 20.7393 149.701 20.7393 149.957C20.7393 150.213 20.6433 150.433 20.4513 150.617C20.2593 150.801 20.0273 150.893 19.7553 150.893ZM18.7233 151.577H20.7753V157.097H18.7233V151.577ZM27.1328 151.925C27.2048 152.013 27.2568 152.233 27.2888 152.585C27.3288 152.937 27.3488 153.473 27.3488 154.193V157.097H25.2968V154.217V153.725C25.2968 153.469 25.2768 153.309 25.2368 153.245C25.1728 153.165 25.0248 153.125 24.7928 153.125C24.6808 153.125 24.5968 153.129 24.5408 153.137C24.3168 153.145 24.0848 153.197 23.8448 153.293V157.097H21.7928V151.577H23.4608L23.6888 152.501C24.2648 151.805 24.9528 151.457 25.7528 151.457C26.0408 151.457 26.3088 151.497 26.5568 151.577C26.8128 151.657 27.0048 151.773 27.1328 151.925Z" fill="#A8DADC"/>
<path d="M62.5076 157.253C61.5476 157.253 60.8276 157.029 60.3476 156.581C59.8756 156.125 59.6396 155.409 59.6396 154.433C59.6396 153.897 59.6876 153.429 59.7836 153.029C59.8876 152.621 60.0116 152.337 60.1556 152.177C60.3396 151.969 60.6756 151.797 61.1636 151.661C61.6596 151.525 62.1236 151.457 62.5556 151.457C63.5876 151.457 64.3236 151.677 64.7636 152.117C65.2036 152.557 65.4236 153.261 65.4236 154.229C65.4236 155.269 65.1876 156.033 64.7156 156.521C64.2436 157.009 63.5076 157.253 62.5076 157.253ZM62.5436 155.849C62.8556 155.849 63.0596 155.741 63.1556 155.525C63.2516 155.301 63.2996 154.909 63.2996 154.349C63.2996 153.957 63.2796 153.657 63.2396 153.449C63.1996 153.233 63.1236 153.077 63.0116 152.981C62.9076 152.877 62.7436 152.825 62.5196 152.825C62.1996 152.825 62.0156 152.853 61.9676 152.909C61.9036 152.965 61.8516 153.141 61.8116 153.437C61.7716 153.733 61.7516 154.041 61.7516 154.361C61.7516 154.905 61.8036 155.289 61.9076 155.513C62.0196 155.737 62.2316 155.849 62.5436 155.849ZM71.7268 151.577V157.097H70.0588L69.8308 156.173C69.2548 156.869 68.5668 157.217 67.7668 157.217C67.4788 157.217 67.2068 157.177 66.9508 157.097C66.7028 157.017 66.5148 156.901 66.3868 156.749C66.3148 156.661 66.2588 156.441 66.2188 156.089C66.1868 155.737 66.1708 155.201 66.1708 154.481V151.577H68.2228V154.457C68.2228 154.617 68.2268 154.805 68.2348 155.021C68.2428 155.237 68.2668 155.373 68.3068 155.429C68.3628 155.509 68.5228 155.549 68.7868 155.549L68.9788 155.537C69.2028 155.529 69.4348 155.477 69.6748 155.381V151.577H71.7268ZM75.2548 154.829C75.2548 154.973 75.2588 155.125 75.2668 155.285C75.2748 155.437 75.2988 155.533 75.3388 155.573C75.3948 155.629 75.5908 155.657 75.9268 155.657L76.3348 155.645C76.4068 156.029 76.4428 156.473 76.4428 156.977C76.2908 157.033 76.0668 157.085 75.7708 157.133C75.4828 157.181 75.2068 157.205 74.9428 157.205C74.3908 157.205 73.9628 157.085 73.6588 156.845C73.3628 156.597 73.2148 156.217 73.2148 155.705V152.753H72.3148V151.661L73.2148 151.577L73.7548 150.257L75.2548 150.173V151.577H76.5268V152.753H75.2548V154.829Z" fill="#A8DADC"/>
<path d="M5 195H85" stroke="#1D3557" stroke-width="0.5"/>
<rect x="8" y="75" width="30" height="66.17" rx="15" fill="#36617C"/>
<path d="M14.4286 68.7936C14.4286 68.9376 14.4326 69.0896 14.4406 69.2496C14.4486 69.4016 14.4726 69.4976 14.5126 69.5376C14.5686 69.5936 14.7646 69.6216 15.1006 69.6216L15.5086 69.6096C15.5806 69.9936 15.6166 70.4376 15.6166 70.9416C15.4646 70.9976 15.2406 71.0496 14.9446 71.0976C14.6566 71.1456 14.3806 71.1696 14.1166 71.1696C13.5646 71.1696 13.1366 71.0496 12.8326 70.8096C12.5366 70.5616 12.3886 70.1816 12.3886 69.6696V66.7176H11.4886V65.6256L12.3886 65.5416L12.9286 64.2216L14.4286 64.1376V65.5416H15.7006V66.7176H14.4286V68.7936ZM17.3823 64.8576C17.1103 64.8576 16.8743 64.7656 16.6743 64.5816C16.4823 64.3976 16.3863 64.1776 16.3863 63.9216C16.3863 63.6656 16.4823 63.4456 16.6743 63.2616C16.8743 63.0776 17.1103 62.9856 17.3823 62.9856C17.6543 62.9856 17.8863 63.0776 18.0783 63.2616C18.2703 63.4456 18.3663 63.6656 18.3663 63.9216C18.3663 64.1776 18.2703 64.3976 18.0783 64.5816C17.8863 64.7656 17.6543 64.8576 17.3823 64.8576ZM16.3503 65.5416H18.4023V71.0616H16.3503V65.5416ZM28.0477 65.9256C28.1757 66.1176 28.2397 66.8616 28.2397 68.1576V71.0616H26.1877V68.3616V67.7136C26.1877 67.4176 26.1597 67.2416 26.1037 67.1856C26.0397 67.1216 25.9037 67.0896 25.6957 67.0896L25.5517 67.1016C25.3037 67.1176 25.0677 67.1736 24.8437 67.2696C24.8517 67.4376 24.8557 67.7336 24.8557 68.1576V71.0616H22.8037V68.3616V67.6416C22.8037 67.3936 22.7757 67.2416 22.7197 67.1856C22.6557 67.1216 22.5197 67.0896 22.3117 67.0896L22.1677 67.1016C21.9437 67.1096 21.7117 67.1616 21.4717 67.2576V71.0616H19.4197V65.5416H21.0877L21.3037 66.4416C21.5677 66.0896 21.8717 65.8336 22.2157 65.6736C22.5597 65.5056 22.9077 65.4216 23.2597 65.4216C23.5557 65.4216 23.8357 65.4656 24.0997 65.5536C24.3717 65.6416 24.5597 65.7656 24.6637 65.9256C24.7117 65.9976 24.7517 66.1296 24.7837 66.3216C25.0397 66.0096 25.3317 65.7816 25.6597 65.6376C25.9877 65.4936 26.3157 65.4216 26.6437 65.4216C26.9397 65.4216 27.2197 65.4656 27.4837 65.5536C27.7557 65.6416 27.9437 65.7656 28.0477 65.9256ZM32.5412 69.6216C32.7412 69.6216 33.1132 69.6016 33.6572 69.5616C33.7292 69.5616 33.8612 69.5536 34.0532 69.5376L34.2332 70.7736C33.6172 71.0616 32.8172 71.2056 31.8332 71.2056C30.9132 71.2056 30.2052 70.9736 29.7092 70.5096C29.2212 70.0456 28.9772 69.3456 28.9772 68.4096C28.9772 67.9296 29.0372 67.4656 29.1572 67.0176C29.2852 66.5696 29.4292 66.2576 29.5892 66.0816C29.7572 65.9056 30.0692 65.7536 30.5252 65.6256C30.9812 65.4976 31.4332 65.4336 31.8812 65.4336C32.6012 65.4336 33.1412 65.5616 33.5012 65.8176C33.8612 66.0736 34.0972 66.4296 34.2092 66.8856C34.3212 67.3336 34.3772 67.9376 34.3772 68.6976C33.8332 68.7296 33.3012 68.7456 32.7812 68.7456H31.0772C31.0772 69.0016 31.1292 69.1936 31.2332 69.3216C31.3452 69.4496 31.5012 69.5336 31.7012 69.5736C31.9012 69.6056 32.1812 69.6216 32.5412 69.6216ZM31.1972 66.8616C31.1492 66.8856 31.1132 66.9896 31.0892 67.1736C31.0652 67.3576 31.0492 67.5656 31.0412 67.7976H31.6652C32.0412 67.7976 32.3132 67.7936 32.4812 67.7856C32.4812 67.4016 32.4252 67.1296 32.3132 66.9696C32.2092 66.8096 32.0252 66.7296 31.7612 66.7296C31.5452 66.7296 31.3572 66.7736 31.1972 66.8616Z" fill="#A8DADC"/>
<path d="M59.9384 62.128C59.9384 62.84 59.7104 63.352 59.2544 63.664C58.8064 63.976 58.1664 64.132 57.3344 64.132C56.7504 64.132 56.0784 64.048 55.3184 63.88C55.3344 63.72 55.3704 63.492 55.4264 63.196C55.4904 62.892 55.5424 62.66 55.5824 62.5C55.8704 62.548 56.1904 62.588 56.5424 62.62C56.8944 62.644 57.1944 62.656 57.4424 62.656C57.6584 62.656 57.7904 62.644 57.8384 62.62C57.8464 62.612 57.8544 62.592 57.8624 62.56C57.8784 62.52 57.8864 62.48 57.8864 62.44C57.8864 62.28 57.7864 62.172 57.5864 62.116C57.5224 62.1 57.2784 62.032 56.8544 61.912C56.4304 61.792 56.0824 61.576 55.8104 61.264C55.5464 60.944 55.4144 60.548 55.4144 60.076C55.4144 59.828 55.4704 59.552 55.5824 59.248C55.6944 58.944 55.8144 58.752 55.9424 58.672C56.0384 58.608 56.2704 58.544 56.6384 58.48C57.0064 58.408 57.3464 58.372 57.6584 58.372C58.3224 58.372 58.9904 58.42 59.6624 58.516C59.6624 58.66 59.6424 58.904 59.6024 59.248C59.5624 59.584 59.5264 59.796 59.4944 59.884C58.8144 59.796 58.2664 59.752 57.8504 59.752C57.6344 59.752 57.4944 59.764 57.4304 59.788C57.4144 59.796 57.3984 59.82 57.3824 59.86C57.3664 59.892 57.3584 59.936 57.3584 59.992C57.3584 60.104 57.3944 60.184 57.4664 60.232C57.5384 60.288 57.7264 60.356 58.0304 60.436C58.3904 60.54 58.6984 60.648 58.9544 60.76C59.2184 60.872 59.4464 61.04 59.6384 61.264C59.8384 61.488 59.9384 61.776 59.9384 62.128ZM63.967 62.56C64.167 62.56 64.539 62.54 65.083 62.5C65.155 62.5 65.287 62.492 65.479 62.476L65.659 63.712C65.043 64 64.243 64.144 63.259 64.144C62.339 64.144 61.631 63.912 61.135 63.448C60.647 62.984 60.403 62.284 60.403 61.348C60.403 60.868 60.463 60.404 60.583 59.956C60.711 59.508 60.855 59.196 61.015 59.02C61.183 58.844 61.495 58.692 61.951 58.564C62.407 58.436 62.859 58.372 63.307 58.372C64.027 58.372 64.567 58.5 64.927 58.756C65.287 59.012 65.523 59.368 65.635 59.824C65.747 60.272 65.803 60.876 65.803 61.636C65.259 61.668 64.727 61.684 64.207 61.684H62.503C62.503 61.94 62.555 62.132 62.659 62.26C62.771 62.388 62.927 62.472 63.127 62.512C63.327 62.544 63.607 62.56 63.967 62.56ZM62.623 59.8C62.575 59.824 62.539 59.928 62.515 60.112C62.491 60.296 62.475 60.504 62.467 60.736H63.091C63.467 60.736 63.739 60.732 63.907 60.724C63.907 60.34 63.851 60.068 63.739 59.908C63.635 59.748 63.451 59.668 63.187 59.668C62.971 59.668 62.783 59.712 62.623 59.8ZM71.8652 58.828C71.9372 58.916 71.9892 59.136 72.0212 59.488C72.0612 59.84 72.0812 60.376 72.0812 61.096V64H70.0292V61.12V60.628C70.0292 60.372 70.0092 60.212 69.9692 60.148C69.9052 60.068 69.7572 60.028 69.5252 60.028C69.4132 60.028 69.3292 60.032 69.2732 60.04C69.0492 60.048 68.8172 60.1 68.5772 60.196V64H66.5252V58.48H68.1932L68.4212 59.404C68.9972 58.708 69.6852 58.36 70.4852 58.36C70.7732 58.36 71.0412 58.4 71.2892 58.48C71.5452 58.56 71.7372 58.676 71.8652 58.828ZM78.5251 56.716V64H76.8331L76.6651 63.076C76.5051 63.388 76.2691 63.636 75.9571 63.82C75.6451 64.004 75.2931 64.096 74.9011 64.096C74.2771 64.096 73.7771 63.872 73.4011 63.424C73.0331 62.976 72.8491 62.304 72.8491 61.408C72.8491 60.728 72.9291 60.168 73.0891 59.728C73.2491 59.288 73.4371 58.972 73.6531 58.78C73.7891 58.66 74.0651 58.56 74.4811 58.48C74.9051 58.4 75.2811 58.36 75.6091 58.36C75.8971 58.36 76.1931 58.388 76.4971 58.444C76.4731 58.06 76.4611 57.848 76.4611 57.808V56.8L78.5251 56.716ZM75.8011 62.488C76.0171 62.488 76.2411 62.452 76.4731 62.38V59.776C76.2411 59.744 75.9851 59.728 75.7051 59.728C75.4651 59.728 75.3131 59.748 75.2491 59.788C75.1611 59.852 75.0891 60.036 75.0331 60.34C74.9851 60.636 74.9611 60.948 74.9611 61.276C74.9611 61.764 75.0331 62.088 75.1771 62.248C75.3291 62.408 75.5371 62.488 75.8011 62.488ZM60.075 68.36C60.651 68.36 61.107 68.552 61.443 68.936C61.787 69.312 61.959 69.972 61.959 70.916C61.959 71.62 61.891 72.196 61.755 72.644C61.619 73.084 61.463 73.376 61.287 73.52C61.111 73.664 60.803 73.78 60.363 73.868C59.931 73.956 59.483 74 59.019 74C58.883 74 58.655 73.992 58.335 73.976V75.68L56.283 75.764V68.48H57.963L58.167 69.332C58.375 69.036 58.639 68.8 58.959 68.624C59.287 68.448 59.659 68.36 60.075 68.36ZM59.595 72.536C59.683 72.472 59.747 72.292 59.787 71.996C59.827 71.692 59.847 71.404 59.847 71.132C59.847 70.684 59.791 70.352 59.679 70.136C59.567 69.92 59.343 69.812 59.007 69.812C58.767 69.812 58.543 69.836 58.335 69.884V72.548L58.671 72.584C58.775 72.592 58.923 72.596 59.115 72.596C59.387 72.596 59.547 72.576 59.595 72.536ZM65.4275 74.156C64.4675 74.156 63.7475 73.932 63.2675 73.484C62.7955 73.028 62.5595 72.312 62.5595 71.336C62.5595 70.8 62.6075 70.332 62.7035 69.932C62.8075 69.524 62.9315 69.24 63.0755 69.08C63.2595 68.872 63.5955 68.7 64.0835 68.564C64.5795 68.428 65.0435 68.36 65.4755 68.36C66.5075 68.36 67.2435 68.58 67.6835 69.02C68.1235 69.46 68.3435 70.164 68.3435 71.132C68.3435 72.172 68.1075 72.936 67.6355 73.424C67.1635 73.912 66.4275 74.156 65.4275 74.156ZM65.4635 72.752C65.7755 72.752 65.9795 72.644 66.0755 72.428C66.1715 72.204 66.2195 71.812 66.2195 71.252C66.2195 70.86 66.1995 70.56 66.1595 70.352C66.1195 70.136 66.0435 69.98 65.9315 69.884C65.8275 69.78 65.6635 69.728 65.4395 69.728C65.1195 69.728 64.9355 69.756 64.8875 69.812C64.8235 69.868 64.7715 70.044 64.7315 70.34C64.6915 70.636 64.6715 70.944 64.6715 71.264C64.6715 71.808 64.7235 72.192 64.8275 72.416C64.9395 72.64 65.1515 72.752 65.4635 72.752ZM73.5908 72.128C73.5908 72.84 73.3628 73.352 72.9068 73.664C72.4588 73.976 71.8188 74.132 70.9868 74.132C70.4028 74.132 69.7308 74.048 68.9708 73.88C68.9868 73.72 69.0228 73.492 69.0788 73.196C69.1428 72.892 69.1948 72.66 69.2348 72.5C69.5228 72.548 69.8428 72.588 70.1948 72.62C70.5468 72.644 70.8468 72.656 71.0948 72.656C71.3108 72.656 71.4428 72.644 71.4908 72.62C71.4988 72.612 71.5068 72.592 71.5148 72.56C71.5308 72.52 71.5388 72.48 71.5388 72.44C71.5388 72.28 71.4388 72.172 71.2388 72.116C71.1748 72.1 70.9308 72.032 70.5068 71.912C70.0828 71.792 69.7348 71.576 69.4628 71.264C69.1988 70.944 69.0668 70.548 69.0668 70.076C69.0668 69.828 69.1228 69.552 69.2348 69.248C69.3468 68.944 69.4668 68.752 69.5948 68.672C69.6908 68.608 69.9228 68.544 70.2908 68.48C70.6588 68.408 70.9988 68.372 71.3108 68.372C71.9748 68.372 72.6428 68.42 73.3148 68.516C73.3148 68.66 73.2948 68.904 73.2548 69.248C73.2148 69.584 73.1788 69.796 73.1468 69.884C72.4668 69.796 71.9188 69.752 71.5028 69.752C71.2868 69.752 71.1468 69.764 71.0828 69.788C71.0668 69.796 71.0508 69.82 71.0348 69.86C71.0188 69.892 71.0108 69.936 71.0108 69.992C71.0108 70.104 71.0468 70.184 71.1188 70.232C71.1908 70.288 71.3788 70.356 71.6828 70.436C72.0428 70.54 72.3508 70.648 72.6068 70.76C72.8708 70.872 73.0988 71.04 73.2908 71.264C73.4908 71.488 73.5908 71.776 73.5908 72.128ZM76.8153 71.732C76.8153 71.876 76.8193 72.028 76.8273 72.188C76.8353 72.34 76.8593 72.436 76.8993 72.476C76.9553 72.532 77.1513 72.56 77.4873 72.56L77.8953 72.548C77.9673 72.932 78.0033 73.376 78.0033 73.88C77.8513 73.936 77.6273 73.988 77.3313 74.036C77.0433 74.084 76.7673 74.108 76.5033 74.108C75.9513 74.108 75.5233 73.988 75.2193 73.748C74.9233 73.5 74.7753 73.12 74.7753 72.608V69.656H73.8753V68.564L74.7753 68.48L75.3153 67.16L76.8153 67.076V68.48H78.0873V69.656H76.8153V71.732Z" fill="#A8DADC"/>
<path d="M81.12 37.364C81.248 37.556 81.312 38.3 81.312 39.596V42.5H79.26V39.8V39.152C79.26 38.856 79.232 38.68 79.176 38.624C79.112 38.56 78.976 38.528 78.768 38.528L78.624 38.54C78.376 38.556 78.14 38.612 77.916 38.708C77.924 38.876 77.928 39.172 77.928 39.596V42.5H75.876V39.8V39.08C75.876 38.832 75.848 38.68 75.792 38.624C75.728 38.56 75.592 38.528 75.384 38.528L75.24 38.54C75.016 38.548 74.784 38.6 74.544 38.696V42.5H72.492V36.98H74.16L74.376 37.88C74.64 37.528 74.944 37.272 75.288 37.112C75.632 36.944 75.98 36.86 76.332 36.86C76.628 36.86 76.908 36.904 77.172 36.992C77.444 37.08 77.632 37.204 77.736 37.364C77.784 37.436 77.824 37.568 77.856 37.76C78.112 37.448 78.404 37.22 78.732 37.076C79.06 36.932 79.388 36.86 79.716 36.86C80.012 36.86 80.292 36.904 80.556 36.992C80.828 37.08 81.016 37.204 81.12 37.364ZM86.7294 40.628C86.7294 41.34 86.5014 41.852 86.0454 42.164C85.5974 42.476 84.9574 42.632 84.1254 42.632C83.5414 42.632 82.8694 42.548 82.1094 42.38C82.1254 42.22 82.1614 41.992 82.2174 41.696C82.2814 41.392 82.3334 41.16 82.3734 41C82.6614 41.048 82.9814 41.088 83.3334 41.12C83.6854 41.144 83.9854 41.156 84.2334 41.156C84.4494 41.156 84.5814 41.144 84.6294 41.12C84.6374 41.112 84.6454 41.092 84.6534 41.06C84.6694 41.02 84.6774 40.98 84.6774 40.94C84.6774 40.78 84.5774 40.672 84.3774 40.616C84.3134 40.6 84.0694 40.532 83.6454 40.412C83.2214 40.292 82.8734 40.076 82.6014 39.764C82.3374 39.444 82.2054 39.048 82.2054 38.576C82.2054 38.328 82.2614 38.052 82.3734 37.748C82.4854 37.444 82.6054 37.252 82.7334 37.172C82.8294 37.108 83.0614 37.044 83.4294 36.98C83.7974 36.908 84.1374 36.872 84.4494 36.872C85.1134 36.872 85.7814 36.92 86.4534 37.016C86.4534 37.16 86.4334 37.404 86.3934 37.748C86.3534 38.084 86.3174 38.296 86.2854 38.384C85.6054 38.296 85.0574 38.252 84.6414 38.252C84.4254 38.252 84.2854 38.264 84.2214 38.288C84.2054 38.296 84.1894 38.32 84.1734 38.36C84.1574 38.392 84.1494 38.436 84.1494 38.492C84.1494 38.604 84.1854 38.684 84.2574 38.732C84.3294 38.788 84.5174 38.856 84.8214 38.936C85.1814 39.04 85.4894 39.148 85.7454 39.26C86.0094 39.372 86.2374 39.54 86.4294 39.764C86.6294 39.988 86.7294 40.276 86.7294 40.628Z" fill="#A8DADC"/>
<path d="M62.784 105.36C63.36 105.36 63.816 105.552 64.152 105.936C64.496 106.312 64.668 106.972 64.668 107.916C64.668 108.62 64.6 109.196 64.464 109.644C64.328 110.084 64.172 110.376 63.996 110.52C63.82 110.664 63.512 110.78 63.072 110.868C62.64 110.956 62.192 111 61.728 111C61.592 111 61.364 110.992 61.044 110.976V112.68L58.992 112.764V105.48H60.672L60.876 106.332C61.084 106.036 61.348 105.8 61.668 105.624C61.996 105.448 62.368 105.36 62.784 105.36ZM62.304 109.536C62.392 109.472 62.456 109.292 62.496 108.996C62.536 108.692 62.556 108.404 62.556 108.132C62.556 107.684 62.5 107.352 62.388 107.136C62.276 106.92 62.052 106.812 61.716 106.812C61.476 106.812 61.252 106.836 61.044 106.884V109.548L61.38 109.584C61.484 109.592 61.632 109.596 61.824 109.596C62.096 109.596 62.256 109.576 62.304 109.536ZM68.8925 105.36C68.9965 105.36 69.1045 105.372 69.2165 105.396C69.3365 105.42 69.4245 105.448 69.4805 105.48C69.4805 105.656 69.4605 105.948 69.4205 106.356C69.3805 106.756 69.3445 107.04 69.3125 107.208C69.2325 107.2 69.0845 107.196 68.8685 107.196C68.3645 107.196 67.9165 107.224 67.5245 107.28V111H65.4725V105.48H67.1885L67.4285 106.368H67.4405C67.6725 106.064 67.9205 105.82 68.1845 105.636C68.4485 105.452 68.6845 105.36 68.8925 105.36ZM73.3673 109.56C73.5673 109.56 73.9393 109.54 74.4833 109.5C74.5553 109.5 74.6873 109.492 74.8793 109.476L75.0593 110.712C74.4433 111 73.6433 111.144 72.6593 111.144C71.7393 111.144 71.0313 110.912 70.5353 110.448C70.0473 109.984 69.8033 109.284 69.8033 108.348C69.8033 107.868 69.8633 107.404 69.9833 106.956C70.1113 106.508 70.2553 106.196 70.4153 106.02C70.5833 105.844 70.8953 105.692 71.3513 105.564C71.8073 105.436 72.2593 105.372 72.7073 105.372C73.4273 105.372 73.9673 105.5 74.3273 105.756C74.6873 106.012 74.9233 106.368 75.0353 106.824C75.1473 107.272 75.2033 107.876 75.2033 108.636C74.6593 108.668 74.1273 108.684 73.6073 108.684H71.9033C71.9033 108.94 71.9553 109.132 72.0593 109.26C72.1713 109.388 72.3273 109.472 72.5273 109.512C72.7273 109.544 73.0073 109.56 73.3673 109.56ZM72.0233 106.8C71.9753 106.824 71.9393 106.928 71.9153 107.112C71.8913 107.296 71.8753 107.504 71.8673 107.736H72.4913C72.8673 107.736 73.1393 107.732 73.3073 107.724C73.3073 107.34 73.2513 107.068 73.1393 106.908C73.0353 106.748 72.8513 106.668 72.5873 106.668C72.3713 106.668 72.1833 106.712 72.0233 106.8Z" fill="#A8DADC"/>
<rect x="20" y="204" width="50" height="20" rx="5" fill="#36617C"/>
<path d="M19.7553 324.893C19.4833 324.893 19.2473 324.801 19.0473 324.617C18.8553 324.433 18.7593 324.213 18.7593 323.957C18.7593 323.701 18.8553 323.481 19.0473 323.297C19.2473 323.113 19.4833 323.021 19.7553 323.021C20.0273 323.021 20.2593 323.113 20.4513 323.297C20.6433 323.481 20.7393 323.701 20.7393 323.957C20.7393 324.213 20.6433 324.433 20.4513 324.617C20.2593 324.801 20.0273 324.893 19.7553 324.893ZM18.7233 325.577H20.7753V331.097H18.7233V325.577ZM27.1328 325.925C27.2048 326.013 27.2568 326.233 27.2888 326.585C27.3288 326.937 27.3488 327.473 27.3488 328.193V331.097H25.2968V328.217V327.725C25.2968 327.469 25.2768 327.309 25.2368 327.245C25.1728 327.165 25.0248 327.125 24.7928 327.125C24.6808 327.125 24.5968 327.129 24.5408 327.137C24.3168 327.145 24.0848 327.197 23.8448 327.293V331.097H21.7928V325.577H23.4608L23.6888 326.501C24.2648 325.805 24.9528 325.457 25.7528 325.457C26.0408 325.457 26.3088 325.497 26.5568 325.577C26.8128 325.657 27.0048 325.773 27.1328 325.925Z" fill="#A8DADC"/>
<path d="M62.5076 331.253C61.5476 331.253 60.8276 331.029 60.3476 330.581C59.8756 330.125 59.6396 329.409 59.6396 328.433C59.6396 327.897 59.6876 327.429 59.7836 327.029C59.8876 326.621 60.0116 326.337 60.1556 326.177C60.3396 325.969 60.6756 325.797 61.1636 325.661C61.6596 325.525 62.1236 325.457 62.5556 325.457C63.5876 325.457 64.3236 325.677 64.7636 326.117C65.2036 326.557 65.4236 327.261 65.4236 328.229C65.4236 329.269 65.1876 330.033 64.7156 330.521C64.2436 331.009 63.5076 331.253 62.5076 331.253ZM62.5436 329.849C62.8556 329.849 63.0596 329.741 63.1556 329.525C63.2516 329.301 63.2996 328.909 63.2996 328.349C63.2996 327.957 63.2796 327.657 63.2396 327.449C63.1996 327.233 63.1236 327.077 63.0116 326.981C62.9076 326.877 62.7436 326.825 62.5196 326.825C62.1996 326.825 62.0156 326.853 61.9676 326.909C61.9036 326.965 61.8516 327.141 61.8116 327.437C61.7716 327.733 61.7516 328.041 61.7516 328.361C61.7516 328.905 61.8036 329.289 61.9076 329.513C62.0196 329.737 62.2316 329.849 62.5436 329.849ZM71.7268 325.577V331.097H70.0588L69.8308 330.173C69.2548 330.869 68.5668 331.217 67.7668 331.217C67.4788 331.217 67.2068 331.177 66.9508 331.097C66.7028 331.017 66.5148 330.901 66.3868 330.749C66.3148 330.661 66.2588 330.441 66.2188 330.089C66.1868 329.737 66.1708 329.201 66.1708 328.481V325.577H68.2228V328.457C68.2228 328.617 68.2268 328.805 68.2348 329.021C68.2428 329.237 68.2668 329.373 68.3068 329.429C68.3628 329.509 68.5228 329.549 68.7868 329.549L68.9788 329.537C69.2028 329.529 69.4348 329.477 69.6748 329.381V325.577H71.7268ZM75.2548 328.829C75.2548 328.973 75.2588 329.125 75.2668 329.285C75.2748 329.437 75.2988 329.533 75.3388 329.573C75.3948 329.629 75.5908 329.657 75.9268 329.657L76.3348 329.645C76.4068 330.029 76.4428 330.473 76.4428 330.977C76.2908 331.033 76.0668 331.085 75.7708 331.133C75.4828 331.181 75.2068 331.205 74.9428 331.205C74.3908 331.205 73.9628 331.085 73.6588 330.845C73.3628 330.597 73.2148 330.217 73.2148 329.705V326.753H72.3148V325.661L73.2148 325.577L73.7548 324.257L75.2548 324.173V325.577H76.5268V326.753H75.2548V328.829Z" fill="#A8DADC"/>
<rect x="8" y="249" width="30" height="66.17" rx="15" fill="#36617C"/>
<path d="M14.4286 242.794C14.4286 242.938 14.4326 243.09 14.4406 243.25C14.4486 243.402 14.4726 243.498 14.5126 243.538C14.5686 243.594 14.7646 243.622 15.1006 243.622L15.5086 243.61C15.5806 243.994 15.6166 244.438 15.6166 244.942C15.4646 244.998 15.2406 245.05 14.9446 245.098C14.6566 245.146 14.3806 245.17 14.1166 245.17C13.5646 245.17 13.1366 245.05 12.8326 244.81C12.5366 244.562 12.3886 244.182 12.3886 243.67V240.718H11.4886V239.626L12.3886 239.542L12.9286 238.222L14.4286 238.138V239.542H15.7006V240.718H14.4286V242.794ZM17.3823 238.858C17.1103 238.858 16.8743 238.766 16.6743 238.582C16.4823 238.398 16.3863 238.178 16.3863 237.922C16.3863 237.666 16.4823 237.446 16.6743 237.262C16.8743 237.078 17.1103 236.986 17.3823 236.986C17.6543 236.986 17.8863 237.078 18.0783 237.262C18.2703 237.446 18.3663 237.666 18.3663 237.922C18.3663 238.178 18.2703 238.398 18.0783 238.582C17.8863 238.766 17.6543 238.858 17.3823 238.858ZM16.3503 239.542H18.4023V245.062H16.3503V239.542ZM28.0477 239.926C28.1757 240.118 28.2397 240.862 28.2397 242.158V245.062H26.1877V242.362V241.714C26.1877 241.418 26.1597 241.242 26.1037 241.186C26.0397 241.122 25.9037 241.09 25.6957 241.09L25.5517 241.102C25.3037 241.118 25.0677 241.174 24.8437 241.27C24.8517 241.438 24.8557 241.734 24.8557 242.158V245.062H22.8037V242.362V241.642C22.8037 241.394 22.7757 241.242 22.7197 241.186C22.6557 241.122 22.5197 241.09 22.3117 241.09L22.1677 241.102C21.9437 241.11 21.7117 241.162 21.4717 241.258V245.062H19.4197V239.542H21.0877L21.3037 240.442C21.5677 240.09 21.8717 239.834 22.2157 239.674C22.5597 239.506 22.9077 239.422 23.2597 239.422C23.5557 239.422 23.8357 239.466 24.0997 239.554C24.3717 239.642 24.5597 239.766 24.6637 239.926C24.7117 239.998 24.7517 240.13 24.7837 240.322C25.0397 240.01 25.3317 239.782 25.6597 239.638C25.9877 239.494 26.3157 239.422 26.6437 239.422C26.9397 239.422 27.2197 239.466 27.4837 239.554C27.7557 239.642 27.9437 239.766 28.0477 239.926ZM32.5412 243.622C32.7412 243.622 33.1132 243.602 33.6572 243.562C33.7292 243.562 33.8612 243.554 34.0532 243.538L34.2332 244.774C33.6172 245.062 32.8172 245.206 31.8332 245.206C30.9132 245.206 30.2052 244.974 29.7092 244.51C29.2212 244.046 28.9772 243.346 28.9772 242.41C28.9772 241.93 29.0372 241.466 29.1572 241.018C29.2852 240.57 29.4292 240.258 29.5892 240.082C29.7572 239.906 30.0692 239.754 30.5252 239.626C30.9812 239.498 31.4332 239.434 31.8812 239.434C32.6012 239.434 33.1412 239.562 33.5012 239.818C33.8612 240.074 34.0972 240.43 34.2092 240.886C34.3212 241.334 34.3772 241.938 34.3772 242.698C33.8332 242.73 33.3012 242.746 32.7812 242.746H31.0772C31.0772 243.002 31.1292 243.194 31.2332 243.322C31.3452 243.45 31.5012 243.534 31.7012 243.574C31.9012 243.606 32.1812 243.622 32.5412 243.622ZM31.1972 240.862C31.1492 240.886 31.1132 240.99 31.0892 241.174C31.0652 241.358 31.0492 241.566 31.0412 241.798H31.6652C32.0412 241.798 32.3132 241.794 32.4812 241.786C32.4812 241.402 32.4252 241.13 32.3132 240.97C32.2092 240.81 32.0252 240.73 31.7612 240.73C31.5452 240.73 31.3572 240.774 31.1972 240.862Z" fill="#A8DADC"/>
<path d="M59.9384 236.128C59.9384 236.84 59.7104 237.352 59.2544 237.664C58.8064 237.976 58.1664 238.132 57.3344 238.132C56.7504 238.132 56.0784 238.048 55.3184 237.88C55.3344 237.72 55.3704 237.492 55.4264 237.196C55.4904 236.892 55.5424 236.66 55.5824 236.5C55.8704 236.548 56.1904 236.588 56.5424 236.62C56.8944 236.644 57.1944 236.656 57.4424 236.656C57.6584 236.656 57.7904 236.644 57.8384 236.62C57.8464 236.612 57.8544 236.592 57.8624 236.56C57.8784 236.52 57.8864 236.48 57.8864 236.44C57.8864 236.28 57.7864 236.172 57.5864 236.116C57.5224 236.1 57.2784 236.032 56.8544 235.912C56.4304 235.792 56.0824 235.576 55.8104 235.264C55.5464 234.944 55.4144 234.548 55.4144 234.076C55.4144 233.828 55.4704 233.552 55.5824 233.248C55.6944 232.944 55.8144 232.752 55.9424 232.672C56.0384 232.608 56.2704 232.544 56.6384 232.48C57.0064 232.408 57.3464 232.372 57.6584 232.372C58.3224 232.372 58.9904 232.42 59.6624 232.516C59.6624 232.66 59.6424 232.904 59.6024 233.248C59.5624 233.584 59.5264 233.796 59.4944 233.884C58.8144 233.796 58.2664 233.752 57.8504 233.752C57.6344 233.752 57.4944 233.764 57.4304 233.788C57.4144 233.796 57.3984 233.82 57.3824 233.86C57.3664 233.892 57.3584 233.936 57.3584 233.992C57.3584 234.104 57.3944 234.184 57.4664 234.232C57.5384 234.288 57.7264 234.356 58.0304 234.436C58.3904 234.54 58.6984 234.648 58.9544 234.76C59.2184 234.872 59.4464 235.04 59.6384 235.264C59.8384 235.488 59.9384 235.776 59.9384 236.128ZM63.967 236.56C64.167 236.56 64.539 236.54 65.083 236.5C65.155 236.5 65.287 236.492 65.479 236.476L65.659 237.712C65.043 238 64.243 238.144 63.259 238.144C62.339 238.144 61.631 237.912 61.135 237.448C60.647 236.984 60.403 236.284 60.403 235.348C60.403 234.868 60.463 234.404 60.583 233.956C60.711 233.508 60.855 233.196 61.015 233.02C61.183 232.844 61.495 232.692 61.951 232.564C62.407 232.436 62.859 232.372 63.307 232.372C64.027 232.372 64.567 232.5 64.927 232.756C65.287 233.012 65.523 233.368 65.635 233.824C65.747 234.272 65.803 234.876 65.803 235.636C65.259 235.668 64.727 235.684 64.207 235.684H62.503C62.503 235.94 62.555 236.132 62.659 236.26C62.771 236.388 62.927 236.472 63.127 236.512C63.327 236.544 63.607 236.56 63.967 236.56ZM62.623 233.8C62.575 233.824 62.539 233.928 62.515 234.112C62.491 234.296 62.475 234.504 62.467 234.736H63.091C63.467 234.736 63.739 234.732 63.907 234.724C63.907 234.34 63.851 234.068 63.739 233.908C63.635 233.748 63.451 233.668 63.187 233.668C62.971 233.668 62.783 233.712 62.623 233.8ZM71.8652 232.828C71.9372 232.916 71.9892 233.136 72.0212 233.488C72.0612 233.84 72.0812 234.376 72.0812 235.096V238H70.0292V235.12V234.628C70.0292 234.372 70.0092 234.212 69.9692 234.148C69.9052 234.068 69.7572 234.028 69.5252 234.028C69.4132 234.028 69.3292 234.032 69.2732 234.04C69.0492 234.048 68.8172 234.1 68.5772 234.196V238H66.5252V232.48H68.1932L68.4212 233.404C68.9972 232.708 69.6852 232.36 70.4852 232.36C70.7732 232.36 71.0412 232.4 71.2892 232.48C71.5452 232.56 71.7372 232.676 71.8652 232.828ZM78.5251 230.716V238H76.8331L76.6651 237.076C76.5051 237.388 76.2691 237.636 75.9571 237.82C75.6451 238.004 75.2931 238.096 74.9011 238.096C74.2771 238.096 73.7771 237.872 73.4011 237.424C73.0331 236.976 72.8491 236.304 72.8491 235.408C72.8491 234.728 72.9291 234.168 73.0891 233.728C73.2491 233.288 73.4371 232.972 73.6531 232.78C73.7891 232.66 74.0651 232.56 74.4811 232.48C74.9051 232.4 75.2811 232.36 75.6091 232.36C75.8971 232.36 76.1931 232.388 76.4971 232.444C76.4731 232.06 76.4611 231.848 76.4611 231.808V230.8L78.5251 230.716ZM75.8011 236.488C76.0171 236.488 76.2411 236.452 76.4731 236.38V233.776C76.2411 233.744 75.9851 233.728 75.7051 233.728C75.4651 233.728 75.3131 233.748 75.2491 233.788C75.1611 233.852 75.0891 234.036 75.0331 234.34C74.9851 234.636 74.9611 234.948 74.9611 235.276C74.9611 235.764 75.0331 236.088 75.1771 236.248C75.3291 236.408 75.5371 236.488 75.8011 236.488ZM60.075 242.36C60.651 242.36 61.107 242.552 61.443 242.936C61.787 243.312 61.959 243.972 61.959 244.916C61.959 245.62 61.891 246.196 61.755 246.644C61.619 247.084 61.463 247.376 61.287 247.52C61.111 247.664 60.803 247.78 60.363 247.868C59.931 247.956 59.483 248 59.019 248C58.883 248 58.655 247.992 58.335 247.976V249.68L56.283 249.764V242.48H57.963L58.167 243.332C58.375 243.036 58.639 242.8 58.959 242.624C59.287 242.448 59.659 242.36 60.075 242.36ZM59.595 246.536C59.683 246.472 59.747 246.292 59.787 245.996C59.827 245.692 59.847 245.404 59.847 245.132C59.847 244.684 59.791 244.352 59.679 244.136C59.567 243.92 59.343 243.812 59.007 243.812C58.767 243.812 58.543 243.836 58.335 243.884V246.548L58.671 246.584C58.775 246.592 58.923 246.596 59.115 246.596C59.387 246.596 59.547 246.576 59.595 246.536ZM65.4275 248.156C64.4675 248.156 63.7475 247.932 63.2675 247.484C62.7955 247.028 62.5595 246.312 62.5595 245.336C62.5595 244.8 62.6075 244.332 62.7035 243.932C62.8075 243.524 62.9315 243.24 63.0755 243.08C63.2595 242.872 63.5955 242.7 64.0835 242.564C64.5795 242.428 65.0435 242.36 65.4755 242.36C66.5075 242.36 67.2435 242.58 67.6835 243.02C68.1235 243.46 68.3435 244.164 68.3435 245.132C68.3435 246.172 68.1075 246.936 67.6355 247.424C67.1635 247.912 66.4275 248.156 65.4275 248.156ZM65.4635 246.752C65.7755 246.752 65.9795 246.644 66.0755 246.428C66.1715 246.204 66.2195 245.812 66.2195 245.252C66.2195 244.86 66.1995 244.56 66.1595 244.352C66.1195 244.136 66.0435 243.98 65.9315 243.884C65.8275 243.78 65.6635 243.728 65.4395 243.728C65.1195 243.728 64.9355 243.756 64.8875 243.812C64.8235 243.868 64.7715 244.044 64.7315 244.34C64.6915 244.636 64.6715 244.944 64.6715 245.264C64.6715 245.808 64.7235 246.192 64.8275 246.416C64.9395 246.64 65.1515 246.752 65.4635 246.752ZM73.5908 246.128C73.5908 246.84 73.3628 247.352 72.9068 247.664C72.4588 247.976 71.8188 248.132 70.9868 248.132C70.4028 248.132 69.7308 248.048 68.9708 247.88C68.9868 247.72 69.0228 247.492 69.0788 247.196C69.1428 246.892 69.1948 246.66 69.2348 246.5C69.5228 246.548 69.8428 246.588 70.1948 246.62C70.5468 246.644 70.8468 246.656 71.0948 246.656C71.3108 246.656 71.4428 246.644 71.4908 246.62C71.4988 246.612 71.5068 246.592 71.5148 246.56C71.5308 246.52 71.5388 246.48 71.5388 246.44C71.5388 246.28 71.4388 246.172 71.2388 246.116C71.1748 246.1 70.9308 246.032 70.5068 245.912C70.0828 245.792 69.7348 245.576 69.4628 245.264C69.1988 244.944 69.0668 244.548 69.0668 244.076C69.0668 243.828 69.1228 243.552 69.2348 243.248C69.3468 242.944 69.4668 242.752 69.5948 242.672C69.6908 242.608 69.9228 242.544 70.2908 242.48C70.6588 242.408 70.9988 242.372 71.3108 242.372C71.9748 242.372 72.6428 242.42 73.3148 242.516C73.3148 242.66 73.2948 242.904 73.2548 243.248C73.2148 243.584 73.1788 243.796 73.1468 243.884C72.4668 243.796 71.9188 243.752 71.5028 243.752C71.2868 243.752 71.1468 243.764 71.0828 243.788C71.0668 243.796 71.0508 243.82 71.0348 243.86C71.0188 243.892 71.0108 243.936 71.0108 243.992C71.0108 244.104 71.0468 244.184 71.1188 244.232C71.1908 244.288 71.3788 244.356 71.6828 244.436C72.0428 244.54 72.3508 244.648 72.6068 244.76C72.8708 244.872 73.0988 245.04 73.2908 245.264C73.4908 245.488 73.5908 245.776 73.5908 246.128ZM76.8153 245.732C76.8153 245.876 76.8193 246.028 76.8273 246.188C76.8353 246.34 76.8593 246.436 76.8993 246.476C76.9553 246.532 77.1513 246.56 77.4873 246.56L77.8953 246.548C77.9673 246.932 78.0033 247.376 78.0033 247.88C77.8513 247.936 77.6273 247.988 77.3313 248.036C77.0433 248.084 76.7673 248.108 76.5033 248.108C75.9513 248.108 75.5233 247.988 75.2193 247.748C74.9233 247.5 74.7753 247.12 74.7753 246.608V243.656H73.8753V242.564L74.7753 242.48L75.3153 241.16L76.8153 241.076V242.48H78.0873V243.656H76.8153V245.732Z" fill="#A8DADC"/>
<path d="M81.12 211.364C81.248 211.556 81.312 212.3 81.312 213.596V216.5H79.26V213.8V213.152C79.26 212.856 79.232 212.68 79.176 212.624C79.112 212.56 78.976 212.528 78.768 212.528L78.624 212.54C78.376 212.556 78.14 212.612 77.916 212.708C77.924 212.876 77.928 213.172 77.928 213.596V216.5H75.876V213.8V213.08C75.876 212.832 75.848 212.68 75.792 212.624C75.728 212.56 75.592 212.528 75.384 212.528L75.24 212.54C75.016 212.548 74.784 212.6 74.544 212.696V216.5H72.492V210.98H74.16L74.376 211.88C74.64 211.528 74.944 211.272 75.288 211.112C75.632 210.944 75.98 210.86 76.332 210.86C76.628 210.86 76.908 210.904 77.172 210.992C77.444 211.08 77.632 211.204 77.736 211.364C77.784 211.436 77.824 211.568 77.856 211.76C78.112 211.448 78.404 211.22 78.732 211.076C79.06 210.932 79.388 210.86 79.716 210.86C80.012 210.86 80.292 210.904 80.556 210.992C80.828 211.08 81.016 211.204 81.12 211.364ZM86.7294 214.628C86.7294 215.34 86.5014 215.852 86.0454 216.164C85.5974 216.476 84.9574 216.632 84.1254 216.632C83.5414 216.632 82.8694 216.548 82.1094 216.38C82.1254 216.22 82.1614 215.992 82.2174 215.696C82.2814 215.392 82.3334 215.16 82.3734 215C82.6614 215.048 82.9814 215.088 83.3334 215.12C83.6854 215.144 83.9854 215.156 84.2334 215.156C84.4494 215.156 84.5814 215.144 84.6294 215.12C84.6374 215.112 84.6454 215.092 84.6534 215.06C84.6694 215.02 84.6774 214.98 84.6774 214.94C84.6774 214.78 84.5774 214.672 84.3774 214.616C84.3134 214.6 84.0694 214.532 83.6454 214.412C83.2214 214.292 82.8734 214.076 82.6014 213.764C82.3374 213.444 82.2054 213.048 82.2054 212.576C82.2054 212.328 82.2614 212.052 82.3734 211.748C82.4854 211.444 82.6054 211.252 82.7334 211.172C82.8294 211.108 83.0614 211.044 83.4294 210.98C83.7974 210.908 84.1374 210.872 84.4494 210.872C85.1134 210.872 85.7814 210.92 86.4534 211.016C86.4534 211.16 86.4334 211.404 86.3934 211.748C86.3534 212.084 86.3174 212.296 86.2854 212.384C85.6054 212.296 85.0574 212.252 84.6414 212.252C84.4254 212.252 84.2854 212.264 84.2214 212.288C84.2054 212.296 84.1894 212.32 84.1734 212.36C84.1574 212.392 84.1494 212.436 84.1494 212.492C84.1494 212.604 84.1854 212.684 84.2574 212.732C84.3294 212.788 84.5174 212.856 84.8214 212.936C85.1814 213.04 85.4894 213.148 85.7454 213.26C86.0094 213.372 86.2374 213.54 86.4294 213.764C86.6294 213.988 86.7294 214.276 86.7294 214.628Z" fill="#A8DADC"/>
<path d="M62.784 279.36C63.36 279.36 63.816 279.552 64.152 279.936C64.496 280.312 64.668 280.972 64.668 281.916C64.668 282.62 64.6 283.196 64.464 283.644C64.328 284.084 64.172 284.376 63.996 284.52C63.82 284.664 63.512 284.78 63.072 284.868C62.64 284.956 62.192 285 61.728 285C61.592 285 61.364 284.992 61.044 284.976V286.68L58.992 286.764V279.48H60.672L60.876 280.332C61.084 280.036 61.348 279.8 61.668 279.624C61.996 279.448 62.368 279.36 62.784 279.36ZM62.304 283.536C62.392 283.472 62.456 283.292 62.496 282.996C62.536 282.692 62.556 282.404 62.556 282.132C62.556 281.684 62.5 281.352 62.388 281.136C62.276 280.92 62.052 280.812 61.716 280.812C61.476 280.812 61.252 280.836 61.044 280.884V283.548L61.38 283.584C61.484 283.592 61.632 283.596 61.824 283.596C62.096 283.596 62.256 283.576 62.304 283.536ZM68.8925 279.36C68.9965 279.36 69.1045 279.372 69.2165 279.396C69.3365 279.42 69.4245 279.448 69.4805 279.48C69.4805 279.656 69.4605 279.948 69.4205 280.356C69.3805 280.756 69.3445 281.04 69.3125 281.208C69.2325 281.2 69.0845 281.196 68.8685 281.196C68.3645 281.196 67.9165 281.224 67.5245 281.28V285H65.4725V279.48H67.1885L67.4285 280.368H67.4405C67.6725 280.064 67.9205 279.82 68.1845 279.636C68.4485 279.452 68.6845 279.36 68.8925 279.36ZM73.3673 283.56C73.5673 283.56 73.9393 283.54 74.4833 283.5C74.5553 283.5 74.6873 283.492 74.8793 283.476L75.0593 284.712C74.4433 285 73.6433 285.144 72.6593 285.144C71.7393 285.144 71.0313 284.912 70.5353 284.448C70.0473 283.984 69.8033 283.284 69.8033 282.348C69.8033 281.868 69.8633 281.404 69.9833 280.956C70.1113 280.508 70.2553 280.196 70.4153 280.02C70.5833 279.844 70.8953 279.692 71.3513 279.564C71.8073 279.436 72.2593 279.372 72.7073 279.372C73.4273 279.372 73.9673 279.5 74.3273 279.756C74.6873 280.012 74.9233 280.368 75.0353 280.824C75.1473 281.272 75.2033 281.876 75.2033 282.636C74.6593 282.668 74.1273 282.684 73.6073 282.684H71.9033C71.9033 282.94 71.9553 283.132 72.0593 283.26C72.1713 283.388 72.3273 283.472 72.5273 283.512C72.7273 283.544 73.0073 283.56 73.3673 283.56ZM72.0233 280.8C71.9753 280.824 71.9393 280.928 71.9153 281.112C71.8913 281.296 71.8753 281.504 71.8673 281.736H72.4913C72.8673 281.736 73.1393 281.732 73.3073 281.724C73.3073 281.34 73.2513 281.068 73.1393 280.908C73.0353 280.748 72.8513 280.668 72.5873 280.668C72.3713 280.668 72.1833 280.712 72.0233 280.8Z" fill="#A8DADC"/>
</svg>
