<svg width="60" height="380" viewBox="0 0 60 380" fill="none" xmlns="http://www.w3.org/2000/svg">
<rect width="60" height="380" fill="#457B9D"/>
<g opacity="0.5">
<path fill-rule="evenodd" clip-rule="evenodd" d="M23.958 375.599C23.803 375.747 23.659 375.851 23.526 375.909C23.393 375.968 23.251 375.998 23.1 375.998C22.948 375.998 22.806 375.97 22.673 375.914C22.54 375.858 22.424 375.781 22.325 375.682C22.109 375.466 22 375.209 22 374.912V369.385C22 369.082 22.078 368.847 22.232 368.68C22.498 368.408 22.75 368.272 22.988 368.272C23.226 368.272 23.404 368.296 23.522 368.346C23.639 368.395 23.738 368.457 23.818 368.531C23.924 368.624 24.002 368.723 24.055 368.828C24.108 368.933 24.151 369.011 24.185 369.06C24.219 369.11 24.275 369.134 24.352 369.134C24.429 369.134 24.496 369.11 24.551 369.06L24.709 368.902C25.16 368.482 25.612 368.272 26.063 368.272C26.861 368.272 27.519 368.599 28.039 369.255C28.088 369.323 28.15 369.357 28.224 369.357C28.354 369.357 28.486 369.256 28.619 369.055C28.752 368.854 28.966 368.674 29.263 368.513C29.56 368.352 29.906 368.272 30.302 368.272C30.698 368.272 31.058 368.344 31.383 368.49C31.707 368.635 31.99 368.834 32.231 369.088C32.738 369.62 32.992 370.263 32.992 371.017V374.912C32.992 375.382 32.769 375.713 32.324 375.905C32.188 375.967 32.044 375.998 31.893 375.998C31.741 375.998 31.599 375.97 31.466 375.914C31.333 375.858 31.217 375.781 31.118 375.682C30.908 375.46 30.803 375.203 30.803 374.912V371.045C30.803 370.736 30.726 370.504 30.571 370.349C30.299 370.077 30.049 369.941 29.82 369.941C29.591 369.941 29.412 369.971 29.282 370.029C29.152 370.088 29.034 370.17 28.929 370.275C28.713 370.492 28.605 370.742 28.605 371.026V374.912C28.605 375.382 28.385 375.713 27.946 375.905C27.81 375.967 27.666 375.998 27.515 375.998C27.363 375.998 27.22 375.97 27.083 375.914C26.947 375.858 26.83 375.781 26.731 375.682C26.515 375.466 26.406 375.209 26.406 374.912V371.045C26.406 370.736 26.329 370.504 26.174 370.349C25.902 370.077 25.618 369.941 25.321 369.941C24.826 369.941 24.483 370.133 24.292 370.516C24.23 370.64 24.199 370.779 24.199 370.934V374.912C24.199 375.215 24.118 375.444 23.958 375.599ZM35.219 369.387C35.219 369.084 35.296 368.849 35.451 368.682C35.716 368.41 36.01 368.274 36.332 368.274C36.641 368.274 36.87 368.355 37.018 368.515C37.29 368.794 37.426 369.084 37.426 369.387V374.915C37.426 375.212 37.349 375.437 37.194 375.592C36.922 375.864 36.672 376 36.443 376C36.214 376 36.032 375.971 35.896 375.912C35.76 375.853 35.642 375.777 35.543 375.685C35.327 375.474 35.219 375.218 35.219 374.915V369.387ZM36.327 365.9C36.065 365.9 35.852 365.687 35.852 365.425C35.852 365.162 36.065 364.95 36.327 364.95C36.589 364.95 36.802 365.162 36.802 365.425C36.802 365.687 36.589 365.9 36.327 365.9ZM36.327 364C36.714 364 37.048 364.142 37.329 364.425C37.611 364.709 37.752 364.996 37.752 365.287C37.752 365.577 37.713 365.807 37.635 365.978C37.558 366.148 37.456 366.297 37.329 366.424C37.048 366.708 36.714 366.849 36.327 366.849C35.94 366.849 35.606 366.708 35.324 366.424C35.043 366.141 34.902 365.857 34.902 365.574C34.902 365.092 35.043 364.709 35.324 364.425C35.606 364.142 35.94 364 36.327 364Z" fill="#1D3557"/>
</g>
<path d="M11.4966 22.8654H9.33659V17.5254H7.40459V16.0254H13.4286V17.5254H11.4966V22.8654ZM14.1315 16.0254H16.2915V22.8654H14.1315V16.0254ZM19.5103 20.1054V22.8654H17.5063V16.0254H19.5343L21.3463 18.7854C21.6183 19.1934 21.8263 19.5374 21.9703 19.8174H22.0063V18.6654V16.0254H23.9983V22.8654H21.9583L20.0983 19.9854L19.5583 19.1694H19.5223L19.5103 20.1054ZM28.7042 20.6814V22.8654H26.5442V20.7054L24.2402 16.0254H26.4362L27.3482 18.2454C27.4442 18.4694 27.5322 18.7054 27.6122 18.9534H27.6362C27.7242 18.6814 27.8122 18.4374 27.9002 18.2214L28.8002 16.0254H30.9842L28.7042 20.6814ZM33.1852 17.8734C33.1852 18.0414 33.2692 18.1734 33.4372 18.2694C33.6132 18.3654 33.8852 18.4694 34.2532 18.5814C34.6932 18.7254 35.0532 18.8654 35.3332 19.0014C35.6212 19.1374 35.8692 19.3494 36.0772 19.6374C36.2932 19.9254 36.4012 20.3014 36.4012 20.7654C36.4012 22.2534 35.4332 22.9974 33.4972 22.9974C33.1772 22.9974 32.7852 22.9694 32.3212 22.9134C31.8652 22.8574 31.4492 22.7854 31.0732 22.6974C31.0892 22.5294 31.1212 22.2854 31.1692 21.9654C31.2252 21.6374 31.2772 21.3934 31.3252 21.2334C31.6052 21.2734 32.0252 21.3214 32.5852 21.3774C33.1532 21.4334 33.5812 21.4614 33.8692 21.4614C34.0372 21.4614 34.1372 21.4494 34.1692 21.4254C34.2172 21.3934 34.2532 21.3414 34.2772 21.2694C34.3092 21.1894 34.3252 21.1214 34.3252 21.0654C34.3252 20.9054 34.2492 20.7854 34.0972 20.7054C33.9452 20.6174 33.6852 20.5134 33.3172 20.3934C32.8772 20.2574 32.5132 20.1174 32.2252 19.9734C31.9372 19.8294 31.6852 19.6054 31.4692 19.3014C31.2532 18.9974 31.1452 18.5974 31.1452 18.1014C31.1452 17.7494 31.2252 17.4054 31.3852 17.0694C31.5452 16.7254 31.7092 16.4934 31.8772 16.3734C32.0052 16.2854 32.2692 16.2014 32.6692 16.1214C33.0692 16.0414 33.4452 16.0014 33.7972 16.0014C34.6932 16.0014 35.4252 16.0854 35.9932 16.2534C35.9852 16.4134 35.9572 16.6334 35.9092 16.9134C35.8692 17.1934 35.8252 17.4494 35.7772 17.6814L35.5012 17.6694C34.4612 17.5974 33.7972 17.5614 33.5092 17.5614C33.3892 17.5614 33.3212 17.5654 33.3052 17.5734C33.2732 17.5894 33.2452 17.6254 33.2212 17.6814C33.1972 17.7374 33.1852 17.8014 33.1852 17.8734ZM37.405 16.0254H39.565V22.8654H37.405V16.0254ZM42.7837 20.1054V22.8654H40.7797V16.0254H42.8077L44.6197 18.7854C44.8917 19.1934 45.0997 19.5374 45.2437 19.8174H45.2797V18.6654V16.0254H47.2717V22.8654H45.2317L43.3717 19.9854L42.8317 19.1694H42.7957L42.7837 20.1054ZM48.3955 16.0254H53.3755V17.4654H50.5555V18.7134H52.9315V20.0094H50.5555V21.4014H53.3635V22.8654H48.3955V16.0254Z" fill="#A8DADC"/>
<path d="M20.4405 250.345H22.5885L20.9085 255.865H18.0645L16.3845 250.345H18.5325L19.4325 254.581H19.5525L20.4405 250.345ZM26.7603 247.849H28.3563L24.2883 257.737H22.6923L26.7603 247.849ZM31.6345 256.021C30.6745 256.021 29.9545 255.797 29.4745 255.349C29.0025 254.893 28.7665 254.177 28.7665 253.201C28.7665 252.665 28.8145 252.197 28.9105 251.797C29.0145 251.389 29.1385 251.105 29.2825 250.945C29.4665 250.737 29.8025 250.565 30.2905 250.429C30.7865 250.293 31.2505 250.225 31.6825 250.225C32.7145 250.225 33.4505 250.445 33.8905 250.885C34.3305 251.325 34.5505 252.029 34.5505 252.997C34.5505 254.037 34.3145 254.801 33.8425 255.289C33.3705 255.777 32.6345 256.021 31.6345 256.021ZM31.6705 254.617C31.9825 254.617 32.1865 254.509 32.2825 254.293C32.3785 254.069 32.4265 253.677 32.4265 253.117C32.4265 252.725 32.4065 252.425 32.3665 252.217C32.3265 252.001 32.2505 251.845 32.1385 251.749C32.0345 251.645 31.8705 251.593 31.6465 251.593C31.3265 251.593 31.1425 251.621 31.0945 251.677C31.0305 251.733 30.9785 251.909 30.9385 252.205C30.8985 252.501 30.8785 252.809 30.8785 253.129C30.8785 253.673 30.9305 254.057 31.0345 254.281C31.1465 254.505 31.3585 254.617 31.6705 254.617ZM39.9778 255.697C39.3298 255.913 38.6058 256.021 37.8058 256.021C36.9098 256.021 36.2378 255.797 35.7898 255.349C35.3498 254.893 35.1298 254.185 35.1298 253.225C35.1298 252.753 35.1938 252.289 35.3218 251.833C35.4498 251.369 35.5858 251.057 35.7298 250.897C35.8978 250.713 36.2258 250.557 36.7138 250.429C37.2098 250.301 37.7218 250.237 38.2498 250.237C38.8018 250.237 39.3578 250.285 39.9178 250.381C39.9018 250.581 39.8738 250.817 39.8338 251.089C39.8018 251.353 39.7658 251.589 39.7258 251.797C39.2298 251.765 38.7618 251.749 38.3218 251.749C37.8898 251.749 37.6138 251.773 37.4938 251.821C37.4298 251.845 37.3698 252.009 37.3138 252.313C37.2658 252.617 37.2418 252.901 37.2418 253.165C37.2418 253.517 37.2898 253.789 37.3858 253.981C37.4898 254.165 37.6498 254.293 37.8658 254.365C38.0818 254.437 38.3738 254.473 38.7418 254.473C38.9018 254.473 39.2538 254.457 39.7978 254.425L39.9778 255.697ZM43.2098 253.597C43.2098 253.741 43.2138 253.893 43.2218 254.053C43.2298 254.205 43.2538 254.301 43.2938 254.341C43.3498 254.397 43.5458 254.425 43.8818 254.425L44.2898 254.413C44.3618 254.797 44.3978 255.241 44.3978 255.745C44.2458 255.801 44.0218 255.853 43.7258 255.901C43.4378 255.949 43.1618 255.973 42.8978 255.973C42.3458 255.973 41.9178 255.853 41.6138 255.613C41.3178 255.365 41.1698 254.985 41.1698 254.473V251.521H40.2698V250.429L41.1698 250.345L41.7098 249.025L43.2098 248.941V250.345H44.4818V251.521H43.2098V253.597Z" fill="#A8DADC"/>
<path d="M12.7 202.225C13.324 202.225 13.804 202.413 14.14 202.789C14.484 203.165 14.656 203.829 14.656 204.781C14.656 205.477 14.584 206.073 14.44 206.569C14.304 207.057 14.148 207.369 13.972 207.505C13.764 207.673 13.456 207.797 13.048 207.877C12.64 207.957 12.176 207.997 11.656 207.997C11.256 207.997 10.808 207.965 10.312 207.901C9.816 207.845 9.372 207.753 8.98 207.625V200.665L11.056 200.581V201.709C11.056 201.773 11.052 201.921 11.044 202.153C11.044 202.385 11.036 202.581 11.02 202.741C11.004 202.893 10.98 203.009 10.948 203.089L11.02 203.173C11.204 202.893 11.436 202.665 11.716 202.489C11.996 202.313 12.324 202.225 12.7 202.225ZM12.364 206.557C12.412 206.477 12.452 206.289 12.484 205.993C12.524 205.697 12.544 205.413 12.544 205.141C12.544 204.821 12.528 204.569 12.496 204.385C12.472 204.201 12.404 204.057 12.292 203.953C12.188 203.841 12.024 203.785 11.8 203.785C11.6 203.785 11.344 203.813 11.032 203.869V206.581C11.328 206.629 11.636 206.653 11.956 206.653C12.188 206.653 12.324 206.621 12.364 206.557ZM18.737 207.865L18.545 207.109C18.177 207.709 17.665 208.009 17.009 208.009C16.473 208.009 16.033 207.861 15.689 207.565C15.353 207.261 15.185 206.837 15.185 206.293C15.185 205.957 15.281 205.665 15.473 205.417C15.673 205.161 15.945 204.981 16.289 204.877C16.737 204.749 17.429 204.677 18.365 204.661C18.365 204.133 18.341 203.853 18.293 203.821C18.253 203.789 18.125 203.773 17.909 203.773C17.773 203.773 17.585 203.781 17.345 203.797C16.961 203.813 16.441 203.857 15.785 203.929C15.721 203.497 15.673 203.033 15.641 202.537C16.065 202.449 16.509 202.377 16.973 202.321C17.437 202.257 17.853 202.225 18.221 202.225C18.861 202.225 19.341 202.333 19.661 202.549C19.981 202.757 20.189 203.033 20.285 203.377C20.381 203.721 20.425 204.157 20.417 204.685L20.405 206.449L20.441 207.865H18.737ZM17.705 206.665C17.913 206.665 18.133 206.625 18.365 206.545V205.657H18.269C17.677 205.657 17.349 205.689 17.285 205.753C17.245 205.793 17.213 205.853 17.189 205.933C17.173 206.013 17.165 206.089 17.165 206.161C17.165 206.353 17.209 206.485 17.297 206.557C17.385 206.629 17.521 206.665 17.705 206.665ZM25.8076 205.993C25.8076 206.705 25.5796 207.217 25.1236 207.529C24.6756 207.841 24.0356 207.997 23.2036 207.997C22.6196 207.997 21.9476 207.913 21.1876 207.745C21.2036 207.585 21.2396 207.357 21.2956 207.061C21.3596 206.757 21.4116 206.525 21.4516 206.365C21.7396 206.413 22.0596 206.453 22.4116 206.485C22.7636 206.509 23.0636 206.521 23.3116 206.521C23.5276 206.521 23.6596 206.509 23.7076 206.485C23.7156 206.477 23.7236 206.457 23.7316 206.425C23.7476 206.385 23.7556 206.345 23.7556 206.305C23.7556 206.145 23.6556 206.037 23.4556 205.981C23.3916 205.965 23.1476 205.897 22.7236 205.777C22.2996 205.657 21.9516 205.441 21.6796 205.129C21.4156 204.809 21.2836 204.413 21.2836 203.941C21.2836 203.693 21.3396 203.417 21.4516 203.113C21.5636 202.809 21.6836 202.617 21.8116 202.537C21.9076 202.473 22.1396 202.409 22.5076 202.345C22.8756 202.273 23.2156 202.237 23.5276 202.237C24.1916 202.237 24.8596 202.285 25.5316 202.381C25.5316 202.525 25.5116 202.769 25.4716 203.113C25.4316 203.449 25.3956 203.661 25.3636 203.749C24.6836 203.661 24.1356 203.617 23.7196 203.617C23.5036 203.617 23.3636 203.629 23.2996 203.653C23.2836 203.661 23.2676 203.685 23.2516 203.725C23.2356 203.757 23.2276 203.801 23.2276 203.857C23.2276 203.969 23.2636 204.049 23.3356 204.097C23.4076 204.153 23.5956 204.221 23.8996 204.301C24.2596 204.405 24.5676 204.513 24.8236 204.625C25.0876 204.737 25.3156 204.905 25.5076 205.129C25.7076 205.353 25.8076 205.641 25.8076 205.993ZM29.8361 206.425C30.0361 206.425 30.4081 206.405 30.9521 206.365C31.0241 206.365 31.1561 206.357 31.3481 206.341L31.5281 207.577C30.9121 207.865 30.1121 208.009 29.1281 208.009C28.2081 208.009 27.5001 207.777 27.0041 207.313C26.5161 206.849 26.2721 206.149 26.2721 205.213C26.2721 204.733 26.3321 204.269 26.4521 203.821C26.5801 203.373 26.7241 203.061 26.8841 202.885C27.0521 202.709 27.3641 202.557 27.8201 202.429C28.2761 202.301 28.7281 202.237 29.1761 202.237C29.8961 202.237 30.4361 202.365 30.7961 202.621C31.1561 202.877 31.3921 203.233 31.5041 203.689C31.6161 204.137 31.6721 204.741 31.6721 205.501C31.1281 205.533 30.5961 205.549 30.0761 205.549H28.3721C28.3721 205.805 28.4241 205.997 28.5281 206.125C28.6401 206.253 28.7961 206.337 28.9961 206.377C29.1961 206.409 29.4761 206.425 29.8361 206.425ZM28.4921 203.665C28.4441 203.689 28.4081 203.793 28.3841 203.977C28.3601 204.161 28.3441 204.369 28.3361 204.601H28.9601C29.3361 204.601 29.6081 204.597 29.7761 204.589C29.7761 204.205 29.7201 203.933 29.6081 203.773C29.5041 203.613 29.3201 203.533 29.0561 203.533C28.8401 203.533 28.6521 203.577 28.4921 203.665ZM36.815 201.721C36.759 201.777 36.731 201.949 36.731 202.237V202.345H38.003V203.521H36.731V207.865H34.679V203.521H33.779V202.453L34.679 202.345V202.165C34.679 201.813 34.727 201.477 34.823 201.157C34.919 200.837 35.007 200.645 35.087 200.581C35.335 200.373 35.863 200.269 36.671 200.269C37.111 200.269 37.603 200.301 38.147 200.365C38.147 200.461 38.131 200.653 38.099 200.941C38.075 201.229 38.051 201.473 38.027 201.673L37.511 201.661C37.087 201.661 36.855 201.681 36.815 201.721ZM41.9433 202.225C42.0473 202.225 42.1553 202.237 42.2673 202.261C42.3873 202.285 42.4753 202.313 42.5313 202.345C42.5313 202.521 42.5113 202.813 42.4713 203.221C42.4313 203.621 42.3953 203.905 42.3633 204.073C42.2833 204.065 42.1353 204.061 41.9193 204.061C41.4153 204.061 40.9673 204.089 40.5753 204.145V207.865H38.5233V202.345H40.2393L40.4793 203.233H40.4913C40.7233 202.929 40.9713 202.685 41.2353 202.501C41.4993 202.317 41.7353 202.225 41.9433 202.225ZM46.4181 206.425C46.6181 206.425 46.9901 206.405 47.5341 206.365C47.6061 206.365 47.7381 206.357 47.9301 206.341L48.1101 207.577C47.4941 207.865 46.6941 208.009 45.7101 208.009C44.7901 208.009 44.0821 207.777 43.5861 207.313C43.0981 206.849 42.8541 206.149 42.8541 205.213C42.8541 204.733 42.9141 204.269 43.0341 203.821C43.1621 203.373 43.3061 203.061 43.4661 202.885C43.6341 202.709 43.9461 202.557 44.4021 202.429C44.8581 202.301 45.3101 202.237 45.7581 202.237C46.4781 202.237 47.0181 202.365 47.3781 202.621C47.7381 202.877 47.9741 203.233 48.0861 203.689C48.1981 204.137 48.2541 204.741 48.2541 205.501C47.7101 205.533 47.1781 205.549 46.6581 205.549H44.9541C44.9541 205.805 45.0061 205.997 45.1101 206.125C45.2221 206.253 45.3781 206.337 45.5781 206.377C45.7781 206.409 46.0581 206.425 46.4181 206.425ZM45.0741 203.665C45.0261 203.689 44.9901 203.793 44.9661 203.977C44.9421 204.161 44.9261 204.369 44.9181 204.601H45.5421C45.9181 204.601 46.1901 204.597 46.3581 204.589C46.3581 204.205 46.3021 203.933 46.1901 203.773C46.0861 203.613 45.9021 203.533 45.6381 203.533C45.4221 203.533 45.2341 203.577 45.0741 203.665ZM51.8084 202.237C52.6644 202.237 53.5484 202.357 54.4604 202.597V209.545L52.4084 209.629V208.045C52.4084 207.741 52.4684 207.385 52.5884 206.977L52.5524 206.953C52.3524 207.313 52.0924 207.569 51.7724 207.721C51.4524 207.865 51.1524 207.937 50.8724 207.937C50.2484 207.937 49.7444 207.717 49.3604 207.277C48.9764 206.829 48.7844 206.157 48.7844 205.261C48.7844 204.661 48.8604 204.117 49.0124 203.629C49.1644 203.141 49.3484 202.825 49.5644 202.681C49.7964 202.529 50.1124 202.417 50.5124 202.345C50.9124 202.273 51.3444 202.237 51.8084 202.237ZM51.7364 206.269C51.9284 206.269 52.1524 206.233 52.4084 206.161V203.653C52.3124 203.637 52.1684 203.621 51.9764 203.605C51.9044 203.597 51.7964 203.593 51.6524 203.593C51.3404 203.593 51.1644 203.625 51.1244 203.689C51.0524 203.801 50.9964 204.005 50.9564 204.301C50.9164 204.581 50.8964 204.853 50.8964 205.117C50.8964 205.533 50.9644 205.829 51.1004 206.005C51.2364 206.181 51.4484 206.269 51.7364 206.269Z" fill="#A8DADC"/>
<path d="M10.56 223.5H8.568L8.208 225H6L8.208 218.16H11.028L13.14 225H10.92L10.56 223.5ZM9.552 219.636L8.844 222.168H10.272L9.6 219.636H9.552Z" fill="#A8DADC"/>
<path d="M51.964 224.772C51.668 224.9 51.324 224.992 50.932 225.048C50.54 225.104 50.176 225.132 49.84 225.132C48.752 225.132 47.9 224.848 47.284 224.28C46.668 223.712 46.36 222.84 46.36 221.664C46.36 220.464 46.684 219.568 47.332 218.976C47.98 218.376 48.892 218.076 50.068 218.076C50.628 218.076 51.212 218.152 51.82 218.304C51.82 218.464 51.804 218.704 51.772 219.024C51.74 219.336 51.708 219.556 51.676 219.684H50.92C50.368 219.684 49.932 219.696 49.612 219.72C49.3 219.736 49.112 219.772 49.048 219.828C48.928 219.94 48.836 220.168 48.772 220.512C48.708 220.848 48.676 221.172 48.676 221.484C48.676 222.028 48.744 222.448 48.88 222.744C49.016 223.032 49.188 223.224 49.396 223.32C49.596 223.416 49.928 223.464 50.392 223.464C50.76 223.464 51.24 223.432 51.832 223.368L51.964 224.772Z" fill="#A8DADC"/>
<path d="M24.5076 306.021C23.5476 306.021 22.8276 305.797 22.3476 305.349C21.8756 304.893 21.6396 304.177 21.6396 303.201C21.6396 302.665 21.6876 302.197 21.7836 301.797C21.8876 301.389 22.0116 301.105 22.1556 300.945C22.3396 300.737 22.6756 300.565 23.1636 300.429C23.6596 300.293 24.1236 300.225 24.5556 300.225C25.5876 300.225 26.3236 300.445 26.7636 300.885C27.2036 301.325 27.4236 302.029 27.4236 302.997C27.4236 304.037 27.1876 304.801 26.7156 305.289C26.2436 305.777 25.5076 306.021 24.5076 306.021ZM24.5436 304.617C24.8556 304.617 25.0596 304.509 25.1556 304.293C25.2516 304.069 25.2996 303.677 25.2996 303.117C25.2996 302.725 25.2796 302.425 25.2396 302.217C25.1996 302.001 25.1236 301.845 25.0116 301.749C24.9076 301.645 24.7436 301.593 24.5196 301.593C24.1996 301.593 24.0156 301.621 23.9676 301.677C23.9036 301.733 23.8516 301.909 23.8116 302.205C23.7716 302.501 23.7516 302.809 23.7516 303.129C23.7516 303.673 23.8036 304.057 23.9076 304.281C24.0196 304.505 24.2316 304.617 24.5436 304.617ZM33.7268 300.345V305.865H32.0588L31.8308 304.941C31.2548 305.637 30.5668 305.985 29.7668 305.985C29.4788 305.985 29.2068 305.945 28.9508 305.865C28.7028 305.785 28.5148 305.669 28.3868 305.517C28.3148 305.429 28.2588 305.209 28.2188 304.857C28.1868 304.505 28.1708 303.969 28.1708 303.249V300.345H30.2228V303.225C30.2228 303.385 30.2268 303.573 30.2348 303.789C30.2428 304.005 30.2668 304.141 30.3068 304.197C30.3628 304.277 30.5228 304.317 30.7868 304.317L30.9788 304.305C31.2028 304.297 31.4348 304.245 31.6748 304.149V300.345H33.7268ZM37.2548 303.597C37.2548 303.741 37.2588 303.893 37.2668 304.053C37.2748 304.205 37.2988 304.301 37.3388 304.341C37.3948 304.397 37.5908 304.425 37.9268 304.425L38.3348 304.413C38.4068 304.797 38.4428 305.241 38.4428 305.745C38.2908 305.801 38.0668 305.853 37.7708 305.901C37.4828 305.949 37.2068 305.973 36.9428 305.973C36.3908 305.973 35.9628 305.853 35.6588 305.613C35.3628 305.365 35.2148 304.985 35.2148 304.473V301.521H34.3148V300.429L35.2148 300.345L35.7548 299.025L37.2548 298.941V300.345H38.5268V301.521H37.2548V303.597Z" fill="#A8DADC"/>
<path d="M22.4908 38.856C22.4348 38.912 22.4068 39.084 22.4068 39.372V39.48H23.6788V40.656H22.4068V45H20.3548V40.656H19.4548V39.588L20.3548 39.48V39.3C20.3548 38.948 20.4028 38.612 20.4988 38.292C20.5948 37.972 20.6828 37.78 20.7628 37.716C21.0108 37.508 21.5388 37.404 22.3468 37.404C22.7868 37.404 23.2788 37.436 23.8228 37.5C23.8228 37.596 23.8068 37.788 23.7748 38.076C23.7508 38.364 23.7268 38.608 23.7028 38.808L23.1868 38.796C22.7628 38.796 22.5308 38.816 22.4908 38.856ZM27.619 39.36C27.723 39.36 27.831 39.372 27.943 39.396C28.063 39.42 28.151 39.448 28.207 39.48C28.207 39.656 28.187 39.948 28.147 40.356C28.107 40.756 28.071 41.04 28.039 41.208C27.959 41.2 27.811 41.196 27.595 41.196C27.091 41.196 26.643 41.224 26.251 41.28V45H24.199V39.48H25.915L26.155 40.368H26.167C26.399 40.064 26.647 39.82 26.911 39.636C27.175 39.452 27.411 39.36 27.619 39.36ZM32.0939 43.56C32.2939 43.56 32.6659 43.54 33.2099 43.5C33.2819 43.5 33.4139 43.492 33.6059 43.476L33.7859 44.712C33.1699 45 32.3699 45.144 31.3859 45.144C30.4659 45.144 29.7579 44.912 29.2619 44.448C28.7739 43.984 28.5299 43.284 28.5299 42.348C28.5299 41.868 28.5899 41.404 28.7099 40.956C28.8379 40.508 28.9819 40.196 29.1419 40.02C29.3099 39.844 29.6219 39.692 30.0779 39.564C30.5339 39.436 30.9859 39.372 31.4339 39.372C32.1539 39.372 32.6939 39.5 33.0539 39.756C33.4139 40.012 33.6499 40.368 33.7619 40.824C33.8739 41.272 33.9299 41.876 33.9299 42.636C33.3859 42.668 32.8539 42.684 32.3339 42.684H30.6299C30.6299 42.94 30.6819 43.132 30.7859 43.26C30.8979 43.388 31.0539 43.472 31.2539 43.512C31.4539 43.544 31.7339 43.56 32.0939 43.56ZM30.7499 40.8C30.7019 40.824 30.6659 40.928 30.6419 41.112C30.6179 41.296 30.6019 41.504 30.5939 41.736H31.2179C31.5939 41.736 31.8659 41.732 32.0339 41.724C32.0339 41.34 31.9779 41.068 31.8659 40.908C31.7619 40.748 31.5779 40.668 31.3139 40.668C31.0979 40.668 30.9099 40.712 30.7499 40.8ZM37.4842 39.372C38.3402 39.372 39.2242 39.492 40.1362 39.732V46.68L38.0842 46.764V45.18C38.0842 44.876 38.1442 44.52 38.2642 44.112L38.2282 44.088C38.0282 44.448 37.7682 44.704 37.4482 44.856C37.1282 45 36.8282 45.072 36.5482 45.072C35.9242 45.072 35.4202 44.852 35.0362 44.412C34.6522 43.964 34.4602 43.292 34.4602 42.396C34.4602 41.796 34.5362 41.252 34.6882 40.764C34.8402 40.276 35.0242 39.96 35.2402 39.816C35.4722 39.664 35.7882 39.552 36.1882 39.48C36.5882 39.408 37.0202 39.372 37.4842 39.372ZM37.4122 43.404C37.6042 43.404 37.8282 43.368 38.0842 43.296V40.788C37.9882 40.772 37.8442 40.756 37.6522 40.74C37.5802 40.732 37.4722 40.728 37.3282 40.728C37.0162 40.728 36.8402 40.76 36.8002 40.824C36.7282 40.936 36.6722 41.14 36.6322 41.436C36.5922 41.716 36.5722 41.988 36.5722 42.252C36.5722 42.668 36.6402 42.964 36.7762 43.14C36.9122 43.316 37.1242 43.404 37.4122 43.404Z" fill="#A8DADC"/>
</svg>
