<svg width="60" height="380" viewBox="0 0 60 380" fill="none" xmlns="http://www.w3.org/2000/svg">
<rect width="60" height="380" fill="#457B9D"/>
<g opacity="0.3">
<path fill-rule="evenodd" clip-rule="evenodd" d="M23.958 375.599C23.803 375.747 23.659 375.851 23.526 375.909C23.393 375.968 23.251 375.998 23.1 375.998C22.948 375.998 22.806 375.97 22.673 375.914C22.54 375.858 22.424 375.781 22.325 375.682C22.109 375.466 22 375.209 22 374.912V369.385C22 369.082 22.078 368.847 22.232 368.68C22.498 368.408 22.75 368.272 22.988 368.272C23.226 368.272 23.404 368.296 23.522 368.346C23.639 368.395 23.738 368.457 23.818 368.531C23.924 368.624 24.002 368.723 24.055 368.828C24.108 368.933 24.151 369.011 24.185 369.06C24.219 369.11 24.275 369.134 24.352 369.134C24.429 369.134 24.496 369.11 24.551 369.06L24.709 368.902C25.16 368.482 25.612 368.272 26.063 368.272C26.861 368.272 27.519 368.599 28.039 369.255C28.088 369.323 28.15 369.357 28.224 369.357C28.354 369.357 28.486 369.256 28.619 369.055C28.752 368.854 28.966 368.674 29.263 368.513C29.56 368.352 29.906 368.272 30.302 368.272C30.698 368.272 31.058 368.344 31.383 368.49C31.707 368.635 31.99 368.834 32.231 369.088C32.738 369.62 32.992 370.263 32.992 371.017V374.912C32.992 375.382 32.769 375.713 32.324 375.905C32.188 375.967 32.044 375.998 31.893 375.998C31.741 375.998 31.599 375.97 31.466 375.914C31.333 375.858 31.217 375.781 31.118 375.682C30.908 375.46 30.803 375.203 30.803 374.912V371.045C30.803 370.736 30.726 370.504 30.571 370.349C30.299 370.077 30.049 369.941 29.82 369.941C29.591 369.941 29.412 369.971 29.282 370.029C29.152 370.088 29.034 370.17 28.929 370.275C28.713 370.492 28.605 370.742 28.605 371.026V374.912C28.605 375.382 28.385 375.713 27.946 375.905C27.81 375.967 27.666 375.998 27.515 375.998C27.363 375.998 27.22 375.97 27.083 375.914C26.947 375.858 26.83 375.781 26.731 375.682C26.515 375.466 26.406 375.209 26.406 374.912V371.045C26.406 370.736 26.329 370.504 26.174 370.349C25.902 370.077 25.618 369.941 25.321 369.941C24.826 369.941 24.483 370.133 24.292 370.516C24.23 370.64 24.199 370.779 24.199 370.934V374.912C24.199 375.215 24.118 375.444 23.958 375.599ZM35.219 369.387C35.219 369.084 35.296 368.849 35.451 368.682C35.716 368.41 36.01 368.274 36.332 368.274C36.641 368.274 36.87 368.355 37.018 368.515C37.29 368.794 37.426 369.084 37.426 369.387V374.915C37.426 375.212 37.349 375.437 37.194 375.592C36.922 375.864 36.672 376 36.443 376C36.214 376 36.032 375.971 35.896 375.912C35.76 375.853 35.642 375.777 35.543 375.685C35.327 375.474 35.219 375.218 35.219 374.915V369.387ZM36.327 365.9C36.065 365.9 35.852 365.687 35.852 365.425C35.852 365.162 36.065 364.95 36.327 364.95C36.589 364.95 36.802 365.162 36.802 365.425C36.802 365.687 36.589 365.9 36.327 365.9ZM36.327 364C36.714 364 37.048 364.142 37.329 364.425C37.611 364.709 37.752 364.996 37.752 365.287C37.752 365.577 37.713 365.807 37.635 365.978C37.558 366.148 37.456 366.297 37.329 366.424C37.048 366.708 36.714 366.849 36.327 366.849C35.94 366.849 35.606 366.708 35.324 366.424C35.043 366.141 34.902 365.857 34.902 365.574C34.902 365.092 35.043 364.709 35.324 364.425C35.606 364.142 35.94 364 36.327 364Z" fill="#1D3557"/>
</g>
<path d="M11.1552 21.8654H9.17521V16.9704H7.40421V15.5954H12.9262V16.9704H11.1552V21.8654ZM14.1206 15.5954H16.1006V21.8654H14.1206V15.5954ZM19.6011 19.3354V21.8654H17.7641V15.5954H19.6231L21.2841 18.1254C21.5334 18.4994 21.7241 18.8147 21.8561 19.0714H21.8891V18.0154V15.5954H23.7151V21.8654H21.8451L20.1401 19.2254L19.6451 18.4774H19.6121L19.6011 19.3354ZM28.5789 19.8634V21.8654H26.5989V19.8854L24.4869 15.5954H26.4999L27.3359 17.6304C27.4239 17.8357 27.5045 18.052 27.5779 18.2794H27.5999C27.6805 18.03 27.7612 17.8064 27.8419 17.6084L28.6669 15.5954H30.6689L28.5789 19.8634ZM33.2364 17.2894C33.2364 17.4434 33.3134 17.5644 33.4674 17.6524C33.6288 17.7404 33.8781 17.8357 34.2154 17.9384C34.6188 18.0704 34.9488 18.1987 35.2054 18.3234C35.4694 18.448 35.6968 18.6424 35.8874 18.9064C36.0854 19.1704 36.1844 19.515 36.1844 19.9404C36.1844 21.3044 35.2971 21.9864 33.5224 21.9864C33.2291 21.9864 32.8698 21.9607 32.4444 21.9094C32.0264 21.858 31.6451 21.792 31.3004 21.7114C31.3151 21.5574 31.3444 21.3337 31.3884 21.0404C31.4398 20.7397 31.4874 20.516 31.5314 20.3694C31.7881 20.406 32.1731 20.45 32.6864 20.5014C33.2071 20.5527 33.5994 20.5784 33.8634 20.5784C34.0174 20.5784 34.1091 20.5674 34.1384 20.5454C34.1824 20.516 34.2154 20.4684 34.2374 20.4024C34.2668 20.329 34.2814 20.2667 34.2814 20.2154C34.2814 20.0687 34.2118 19.9587 34.0724 19.8854C33.9331 19.8047 33.6948 19.7094 33.3574 19.5994C32.9541 19.4747 32.6204 19.3464 32.3564 19.2144C32.0924 19.0824 31.8614 18.877 31.6634 18.5984C31.4654 18.3197 31.3664 17.953 31.3664 17.4984C31.3664 17.1757 31.4398 16.8604 31.5864 16.5524C31.7331 16.237 31.8834 16.0244 32.0374 15.9144C32.1548 15.8337 32.3968 15.7567 32.7634 15.6834C33.1301 15.61 33.4748 15.5734 33.7974 15.5734C34.6188 15.5734 35.2898 15.6504 35.8104 15.8044C35.8031 15.951 35.7774 16.1527 35.7334 16.4094C35.6968 16.666 35.6564 16.9007 35.6124 17.1134L35.3594 17.1024C34.4061 17.0364 33.7974 17.0034 33.5334 17.0034C33.4234 17.0034 33.3611 17.007 33.3464 17.0144C33.3171 17.029 33.2914 17.062 33.2694 17.1134C33.2474 17.1647 33.2364 17.2234 33.2364 17.2894ZM37.6546 15.5954H39.6346V21.8654H37.6546V15.5954ZM43.135 19.3354V21.8654H41.298V15.5954H43.157L44.818 18.1254C45.0674 18.4994 45.258 18.8147 45.39 19.0714H45.423V18.0154V15.5954H47.249V21.8654H45.379L43.674 19.2254L43.179 18.4774H43.146L43.135 19.3354ZM48.8292 15.5954H53.3942V16.9154H50.8092V18.0594H52.9872V19.2474H50.8092V20.5234H53.3832V21.8654H48.8292V15.5954Z" fill="white"/>
<path d="M19.7861 255L21.583 249.668H20.1328L19.0342 253.672H18.9707L17.8574 249.668H16.3389L18.1602 255H19.7861ZM23.4209 255.728L25.374 248.965H24.2314L22.2783 255.728H23.4209ZM29.0479 255.098C30.6348 255.098 31.5381 254.126 31.5381 252.637V252.036C31.5381 250.542 30.6299 249.57 29.043 249.57C27.4609 249.57 26.5527 250.537 26.5527 252.036V252.637C26.5527 254.126 27.4658 255.098 29.0479 255.098ZM29.0479 254.077C28.3203 254.077 27.8857 253.535 27.8857 252.642V252.021C27.8857 251.128 28.3203 250.591 29.0479 250.591C29.7705 250.591 30.2051 251.128 30.2051 252.021V252.642C30.2051 253.535 29.7705 254.077 29.0479 254.077ZM34.5088 252.041C34.5088 251.128 34.8994 250.605 35.6025 250.605C36.2227 250.605 36.6328 251.025 36.6328 251.631H37.8877V251.489C37.8877 250.322 36.9111 249.57 35.5928 249.57C34.0547 249.57 33.1758 250.537 33.1758 252.041V252.642C33.1758 254.136 34.0547 255.098 35.5928 255.098C36.8965 255.098 37.8877 254.37 37.8877 253.223V253.076H36.6328C36.6328 253.652 36.2227 254.067 35.5977 254.067C34.8994 254.067 34.5088 253.545 34.5088 252.646V252.041ZM42.0742 255V250.688H43.6221V249.668H39.2178V250.688H40.7656V255H42.0742Z" fill="white"/>
<path d="M6.00977 207H8.50488C9.63281 207 10.4678 206.443 10.4678 205.486C10.4678 204.666 9.84766 204.246 9.19336 204.197V204.144C9.75977 204.036 10.1943 203.641 10.1943 202.981C10.1943 202.166 9.51074 201.668 8.47559 201.668H6.00977V207ZM7.30371 202.571H8.14844C8.64648 202.571 8.91504 202.815 8.91504 203.191C8.91504 203.582 8.6416 203.836 7.97754 203.836H7.30371V202.571ZM7.30371 204.666H8.2168C8.83203 204.666 9.13965 204.949 9.13965 205.389C9.13965 205.823 8.85156 206.102 8.06055 206.102H7.30371V204.666ZM13.043 207L13.4287 205.75H15.2109L15.5869 207H16.9736L15.1475 201.668H13.5654L11.7344 207H13.043ZM14.3564 202.801L14.9668 204.842H13.6729L14.293 202.801H14.3564ZM18.2305 205.447C18.2451 206.346 18.9629 207.098 20.4912 207.098C21.9951 207.098 22.791 206.385 22.791 205.384C22.791 204.446 22.1709 204.036 21.2725 203.86L20.4863 203.709C19.9346 203.597 19.6611 203.436 19.6611 203.123C19.6611 202.781 19.9688 202.522 20.5303 202.522C21.1162 202.522 21.458 202.815 21.4873 203.187H22.6934C22.6836 202.337 21.9512 201.565 20.5352 201.565C19.2266 201.565 18.3525 202.22 18.3525 203.221C18.3525 204.09 18.9092 204.544 19.9053 204.744L20.6523 204.896C21.2188 205.013 21.4971 205.179 21.4971 205.511C21.4971 205.872 21.1846 206.131 20.5449 206.131C19.9102 206.131 19.5098 205.833 19.4805 205.447H18.2305ZM28.3594 206.004H25.9033V204.778H28.208V203.851H25.9033V202.664H28.3594V201.668H24.6094V207H28.3594V206.004ZM34.3301 207V204.974H36.5273V203.997H34.3301V202.674H36.7471V201.668H33.0215V207H34.3301ZM40.8359 201.668H38.4824V207H39.7666V205.081H40.5918L41.5537 207H43.0039L41.8809 204.905C42.3691 204.725 42.8965 204.188 42.8965 203.406C42.8965 202.337 42.1348 201.668 40.8359 201.668ZM39.7666 204.183V202.62H40.6455C41.1729 202.62 41.5439 202.898 41.5439 203.416C41.5439 203.929 41.1826 204.183 40.6309 204.183H39.7666ZM48.5039 206.004H46.0479V204.778H48.3525V203.851H46.0479V202.664H48.5039V201.668H44.7539V207H48.5039V206.004ZM55.1172 207.493L54.4238 206.526C54.9316 206.087 55.21 205.433 55.21 204.632V204.051C55.21 202.562 54.2627 201.57 52.7148 201.57C51.1768 201.57 50.2246 202.557 50.2246 204.051V204.632C50.2246 206.116 51.1768 207.098 52.7148 207.098C52.998 207.098 53.2666 207.059 53.501 206.99L53.8623 207.493H55.1172ZM51.5088 204.036C51.5088 203.128 51.9775 202.586 52.7148 202.586C53.4521 202.586 53.9209 203.128 53.9209 204.036V204.803C53.9209 205.159 53.8379 205.447 53.6816 205.647L53.4521 205.354H52.3779L52.9004 206.087C52.8076 206.121 52.7002 206.136 52.5879 206.136C51.9238 206.077 51.5088 205.54 51.5088 204.656V204.036Z" fill="white"/>
<path d="M7.58691 223L7.97266 221.75H9.75488L10.1309 223H11.5176L9.69141 217.668H8.10938L6.27832 223H7.58691ZM8.90039 218.801L9.51074 220.842H8.2168L8.83691 218.801H8.90039Z" fill="white"/>
<path d="M47.8994 220.041C47.8994 219.128 48.29 218.605 48.9932 218.605C49.6133 218.605 50.0234 219.025 50.0234 219.631H51.2783V219.489C51.2783 218.322 50.3018 217.57 48.9834 217.57C47.4453 217.57 46.5664 218.537 46.5664 220.041V220.642C46.5664 222.136 47.4453 223.098 48.9834 223.098C50.2871 223.098 51.2783 222.37 51.2783 221.223V221.076H50.0234C50.0234 221.652 49.6133 222.067 48.9883 222.067C48.29 222.067 47.8994 221.545 47.8994 220.646V220.041Z" fill="white"/>
<path d="M24.4336 305.098C26.0205 305.098 26.9238 304.126 26.9238 302.637V302.036C26.9238 300.542 26.0156 299.57 24.4287 299.57C22.8467 299.57 21.9385 300.537 21.9385 302.036V302.637C21.9385 304.126 22.8516 305.098 24.4336 305.098ZM24.4336 304.077C23.7061 304.077 23.2715 303.535 23.2715 302.642V302.021C23.2715 301.128 23.7061 300.591 24.4336 300.591C25.1562 300.591 25.5908 301.128 25.5908 302.021V302.642C25.5908 303.535 25.1562 304.077 24.4336 304.077ZM31.0713 304.048C30.4609 304.048 30.0361 303.687 30.0361 302.998V299.668H28.7227V303.145C28.7227 304.336 29.626 305.098 31.0713 305.098C32.5166 305.098 33.4199 304.331 33.4199 303.145V299.668H32.1113V302.998C32.1113 303.682 31.6816 304.048 31.0713 304.048ZM37.792 305V300.688H39.3398V299.668H34.9355V300.688H36.4834V305H37.792Z" fill="white"/>
<path d="M19.8242 45V42.9736H22.0215V41.9971H19.8242V40.6738H22.2412V39.668H18.5156V45H19.8242ZM26.3301 39.668H23.9766V45H25.2607V43.0811H26.0859L27.0479 45H28.498L27.375 42.9053C27.8633 42.7246 28.3906 42.1875 28.3906 41.4062C28.3906 40.3369 27.6289 39.668 26.3301 39.668ZM25.2607 42.1826V40.6201H26.1396C26.667 40.6201 27.0381 40.8984 27.0381 41.416C27.0381 41.9287 26.6768 42.1826 26.125 42.1826H25.2607ZM33.998 44.0039H31.542V42.7783H33.8467V41.8506H31.542V40.6641H33.998V39.668H30.248V45H33.998V44.0039ZM40.6113 45.4932L39.918 44.5264C40.4258 44.0869 40.7041 43.4326 40.7041 42.6318V42.0508C40.7041 40.5615 39.7568 39.5703 38.209 39.5703C36.6709 39.5703 35.7188 40.5566 35.7188 42.0508V42.6318C35.7188 44.1162 36.6709 45.0977 38.209 45.0977C38.4922 45.0977 38.7607 45.0586 38.9951 44.9902L39.3564 45.4932H40.6113ZM37.0029 42.0361C37.0029 41.1279 37.4717 40.5859 38.209 40.5859C38.9463 40.5859 39.415 41.1279 39.415 42.0361V42.8027C39.415 43.1592 39.332 43.4473 39.1758 43.6475L38.9463 43.3545H37.8721L38.3945 44.0869C38.3018 44.1211 38.1943 44.1357 38.082 44.1357C37.418 44.0771 37.0029 43.54 37.0029 42.6562V42.0361Z" fill="white"/>
</svg>
