<svg width="90" height="380" viewBox="0 0 90 380" fill="none" xmlns="http://www.w3.org/2000/svg">
<rect width="90" height="380" fill="#457B9D"/>
<g opacity="0.5">
<path fill-rule="evenodd" clip-rule="evenodd" d="M38.958 375.599C38.803 375.747 38.659 375.851 38.526 375.909C38.393 375.968 38.251 375.998 38.1 375.998C37.948 375.998 37.806 375.97 37.673 375.914C37.54 375.858 37.424 375.781 37.325 375.682C37.109 375.466 37 375.209 37 374.912V369.385C37 369.082 37.078 368.847 37.232 368.68C37.498 368.408 37.75 368.272 37.988 368.272C38.226 368.272 38.404 368.296 38.522 368.346C38.639 368.395 38.738 368.457 38.818 368.531C38.924 368.624 39.002 368.723 39.055 368.828C39.108 368.933 39.151 369.011 39.185 369.06C39.219 369.11 39.275 369.134 39.352 369.134C39.429 369.134 39.496 369.11 39.551 369.06L39.709 368.902C40.16 368.482 40.612 368.272 41.063 368.272C41.861 368.272 42.519 368.599 43.039 369.255C43.088 369.323 43.15 369.357 43.224 369.357C43.354 369.357 43.486 369.256 43.619 369.055C43.752 368.854 43.966 368.674 44.263 368.513C44.56 368.352 44.906 368.272 45.302 368.272C45.698 368.272 46.058 368.344 46.383 368.49C46.707 368.635 46.99 368.834 47.231 369.088C47.738 369.62 47.992 370.263 47.992 371.017V374.912C47.992 375.382 47.769 375.713 47.324 375.905C47.188 375.967 47.044 375.998 46.893 375.998C46.741 375.998 46.599 375.97 46.466 375.914C46.333 375.858 46.217 375.781 46.118 375.682C45.908 375.46 45.803 375.203 45.803 374.912V371.045C45.803 370.736 45.726 370.504 45.571 370.349C45.299 370.077 45.049 369.941 44.82 369.941C44.591 369.941 44.412 369.971 44.282 370.029C44.152 370.088 44.034 370.17 43.929 370.275C43.713 370.492 43.605 370.742 43.605 371.026V374.912C43.605 375.382 43.385 375.713 42.946 375.905C42.81 375.967 42.666 375.998 42.515 375.998C42.363 375.998 42.22 375.97 42.083 375.914C41.947 375.858 41.83 375.781 41.731 375.682C41.515 375.466 41.406 375.209 41.406 374.912V371.045C41.406 370.736 41.329 370.504 41.174 370.349C40.902 370.077 40.618 369.941 40.321 369.941C39.826 369.941 39.483 370.133 39.292 370.516C39.23 370.64 39.199 370.779 39.199 370.934V374.912C39.199 375.215 39.118 375.444 38.958 375.599ZM50.219 369.387C50.219 369.084 50.296 368.849 50.451 368.682C50.716 368.41 51.01 368.274 51.332 368.274C51.641 368.274 51.87 368.355 52.018 368.515C52.29 368.794 52.426 369.084 52.426 369.387V374.915C52.426 375.212 52.349 375.437 52.194 375.592C51.922 375.864 51.672 376 51.443 376C51.214 376 51.032 375.971 50.896 375.912C50.76 375.853 50.642 375.777 50.543 375.685C50.327 375.474 50.219 375.218 50.219 374.915V369.387ZM51.327 365.9C51.065 365.9 50.852 365.687 50.852 365.425C50.852 365.162 51.065 364.95 51.327 364.95C51.589 364.95 51.802 365.162 51.802 365.425C51.802 365.687 51.589 365.9 51.327 365.9ZM51.327 364C51.714 364 52.048 364.142 52.329 364.425C52.611 364.709 52.752 364.996 52.752 365.287C52.752 365.577 52.713 365.807 52.635 365.978C52.558 366.148 52.456 366.297 52.329 366.424C52.048 366.708 51.714 366.849 51.327 366.849C50.94 366.849 50.606 366.708 50.324 366.424C50.043 366.141 49.902 365.857 49.902 365.574C49.902 365.092 50.043 364.709 50.324 364.425C50.606 364.142 50.94 364 51.327 364Z" fill="#1D3557"/>
</g>
<path d="M32.6168 17.8734C32.6168 18.0414 32.7008 18.1734 32.8688 18.2694C33.0448 18.3654 33.3168 18.4694 33.6848 18.5814C34.1248 18.7254 34.4848 18.8654 34.7648 19.0014C35.0528 19.1374 35.3008 19.3494 35.5088 19.6374C35.7248 19.9254 35.8328 20.3014 35.8328 20.7654C35.8328 22.2534 34.8648 22.9974 32.9288 22.9974C32.6088 22.9974 32.2168 22.9694 31.7528 22.9134C31.2968 22.8574 30.8808 22.7854 30.5048 22.6974C30.5208 22.5294 30.5528 22.2854 30.6008 21.9654C30.6568 21.6374 30.7088 21.3934 30.7568 21.2334C31.0368 21.2734 31.4568 21.3214 32.0168 21.3774C32.5848 21.4334 33.0128 21.4614 33.3008 21.4614C33.4688 21.4614 33.5688 21.4494 33.6008 21.4254C33.6488 21.3934 33.6848 21.3414 33.7088 21.2694C33.7408 21.1894 33.7568 21.1214 33.7568 21.0654C33.7568 20.9054 33.6808 20.7854 33.5288 20.7054C33.3768 20.6174 33.1168 20.5134 32.7488 20.3934C32.3088 20.2574 31.9448 20.1174 31.6568 19.9734C31.3688 19.8294 31.1168 19.6054 30.9008 19.3014C30.6848 18.9974 30.5768 18.5974 30.5768 18.1014C30.5768 17.7494 30.6568 17.4054 30.8168 17.0694C30.9768 16.7254 31.1408 16.4934 31.3088 16.3734C31.4368 16.2854 31.7008 16.2014 32.1008 16.1214C32.5008 16.0414 32.8768 16.0014 33.2288 16.0014C34.1248 16.0014 34.8568 16.0854 35.4248 16.2534C35.4168 16.4134 35.3888 16.6334 35.3408 16.9134C35.3008 17.1934 35.2568 17.4494 35.2088 17.6814L34.9328 17.6694C33.8928 17.5974 33.2288 17.5614 32.9408 17.5614C32.8208 17.5614 32.7528 17.5654 32.7368 17.5734C32.7048 17.5894 32.6768 17.6254 32.6528 17.6814C32.6288 17.7374 32.6168 17.8014 32.6168 17.8734ZM40.272 22.8654H38.112V17.5254H36.18V16.0254H42.204V17.5254H40.272V22.8654ZM42.8349 16.0254H47.8149V17.4654H44.9949V18.7134H47.3709V20.0094H44.9949V21.4014H47.8029V22.8654H42.8349V16.0254ZM51.4909 15.9894C52.1389 15.9894 52.6869 16.0494 53.1349 16.1694C53.5829 16.2894 53.9389 16.5214 54.2029 16.8654C54.4749 17.2014 54.6109 17.6854 54.6109 18.3174C54.6109 18.5974 54.5669 18.8854 54.4789 19.1814C54.3989 19.4694 54.2949 19.7214 54.1669 19.9374C54.0469 20.1534 53.9389 20.2934 53.8429 20.3574C53.7309 20.4374 53.4829 20.5014 53.0989 20.5494C52.7149 20.5894 52.2629 20.6094 51.7429 20.6094C51.5589 20.6094 51.2749 20.6014 50.8909 20.5854V22.8654H48.7309V16.0254C49.5709 16.0014 50.4909 15.9894 51.4909 15.9894ZM52.3909 19.0734C52.4709 18.9694 52.5109 18.7614 52.5109 18.4494C52.5109 18.0414 52.4229 17.7534 52.2469 17.5854C52.0789 17.4174 51.7829 17.3334 51.3589 17.3334C51.2149 17.3334 51.0589 17.3454 50.8909 17.3694V19.1934C50.9709 19.2014 51.1269 19.2054 51.3589 19.2054C51.9749 19.2054 52.3189 19.1614 52.3909 19.0734ZM57.3434 17.8734C57.3434 18.0414 57.4274 18.1734 57.5954 18.2694C57.7714 18.3654 58.0434 18.4694 58.4114 18.5814C58.8514 18.7254 59.2114 18.8654 59.4914 19.0014C59.7794 19.1374 60.0274 19.3494 60.2354 19.6374C60.4514 19.9254 60.5594 20.3014 60.5594 20.7654C60.5594 22.2534 59.5914 22.9974 57.6554 22.9974C57.3354 22.9974 56.9434 22.9694 56.4794 22.9134C56.0234 22.8574 55.6074 22.7854 55.2314 22.6974C55.2474 22.5294 55.2794 22.2854 55.3274 21.9654C55.3834 21.6374 55.4354 21.3934 55.4834 21.2334C55.7634 21.2734 56.1834 21.3214 56.7434 21.3774C57.3114 21.4334 57.7394 21.4614 58.0274 21.4614C58.1954 21.4614 58.2954 21.4494 58.3274 21.4254C58.3754 21.3934 58.4114 21.3414 58.4354 21.2694C58.4674 21.1894 58.4834 21.1214 58.4834 21.0654C58.4834 20.9054 58.4074 20.7854 58.2554 20.7054C58.1034 20.6174 57.8434 20.5134 57.4754 20.3934C57.0354 20.2574 56.6714 20.1174 56.3834 19.9734C56.0954 19.8294 55.8434 19.6054 55.6274 19.3014C55.4114 18.9974 55.3034 18.5974 55.3034 18.1014C55.3034 17.7494 55.3834 17.4054 55.5434 17.0694C55.7034 16.7254 55.8674 16.4934 56.0354 16.3734C56.1634 16.2854 56.4274 16.2014 56.8274 16.1214C57.2274 16.0414 57.6034 16.0014 57.9554 16.0014C58.8514 16.0014 59.5834 16.0854 60.1514 16.2534C60.1434 16.4134 60.1154 16.6334 60.0674 16.9134C60.0274 17.1934 59.9834 17.4494 59.9354 17.6814L59.6594 17.6694C58.6194 17.5974 57.9554 17.5614 57.6674 17.5614C57.5474 17.5614 57.4794 17.5654 57.4634 17.5734C57.4314 17.5894 57.4034 17.6254 57.3794 17.6814C57.3554 17.7374 57.3434 17.8014 57.3434 17.8734Z" fill="#A8DADC"/>
<rect x="9" y="50" width="30" height="20" rx="5" fill="#36617C"/>
<rect x="49" y="50" width="30" height="20" rx="5" fill="#36617C"/>
<rect x="9" y="150" width="30" height="20" rx="5" fill="#36617C"/>
<rect x="49" y="150" width="30" height="20" rx="5" fill="#36617C"/>
<rect x="9" y="250" width="30" height="20" rx="5" fill="#36617C"/>
<rect x="49" y="250" width="30" height="20" rx="5" fill="#36617C"/>
<path d="M11.8515 111.457C11.9555 111.457 12.0635 111.469 12.1755 111.493C12.2955 111.517 12.3835 111.545 12.4395 111.577C12.4395 111.753 12.4195 112.045 12.3795 112.453C12.3395 112.853 12.3035 113.137 12.2715 113.305C12.1915 113.297 12.0435 113.293 11.8275 113.293C11.3235 113.293 10.8755 113.321 10.4835 113.377V117.097H8.43145V111.577H10.1475L10.3875 112.465H10.3995C10.6315 112.161 10.8795 111.917 11.1435 111.733C11.4075 111.549 11.6435 111.457 11.8515 111.457ZM17.4423 115.225C17.4423 115.937 17.2143 116.449 16.7583 116.761C16.3103 117.073 15.6703 117.229 14.8383 117.229C14.2543 117.229 13.5823 117.145 12.8223 116.977C12.8383 116.817 12.8743 116.589 12.9303 116.293C12.9943 115.989 13.0463 115.757 13.0863 115.597C13.3743 115.645 13.6943 115.685 14.0463 115.717C14.3983 115.741 14.6983 115.753 14.9463 115.753C15.1623 115.753 15.2943 115.741 15.3423 115.717C15.3503 115.709 15.3583 115.689 15.3663 115.657C15.3823 115.617 15.3903 115.577 15.3903 115.537C15.3903 115.377 15.2903 115.269 15.0903 115.213C15.0263 115.197 14.7823 115.129 14.3583 115.009C13.9343 114.889 13.5863 114.673 13.3143 114.361C13.0503 114.041 12.9183 113.645 12.9183 113.173C12.9183 112.925 12.9743 112.649 13.0863 112.345C13.1983 112.041 13.3183 111.849 13.4463 111.769C13.5423 111.705 13.7743 111.641 14.1423 111.577C14.5103 111.505 14.8503 111.469 15.1623 111.469C15.8263 111.469 16.4943 111.517 17.1663 111.613C17.1663 111.757 17.1463 112.001 17.1063 112.345C17.0663 112.681 17.0303 112.893 16.9983 112.981C16.3183 112.893 15.7703 112.849 15.3543 112.849C15.1383 112.849 14.9983 112.861 14.9343 112.885C14.9183 112.893 14.9023 112.917 14.8863 112.957C14.8703 112.989 14.8623 113.033 14.8623 113.089C14.8623 113.201 14.8983 113.281 14.9703 113.329C15.0423 113.385 15.2303 113.453 15.5343 113.533C15.8943 113.637 16.2023 113.745 16.4583 113.857C16.7223 113.969 16.9503 114.137 17.1423 114.361C17.3423 114.585 17.4423 114.873 17.4423 115.225ZM20.6669 114.829C20.6669 114.973 20.6709 115.125 20.6789 115.285C20.6869 115.437 20.7109 115.533 20.7509 115.573C20.8069 115.629 21.0029 115.657 21.3389 115.657L21.7469 115.645C21.8189 116.029 21.8549 116.473 21.8549 116.977C21.7029 117.033 21.4789 117.085 21.1829 117.133C20.8949 117.181 20.6189 117.205 20.3549 117.205C19.8029 117.205 19.3749 117.085 19.0709 116.845C18.7749 116.597 18.6269 116.217 18.6269 115.705V112.753H17.7269V111.661L18.6269 111.577L19.1669 110.257L20.6669 110.173V111.577H21.9389V112.753H20.6669V114.829Z" fill="#A8DADC"/>
<path d="M37.0579 116.929C36.4099 117.145 35.6859 117.253 34.8859 117.253C33.9899 117.253 33.3179 117.029 32.8699 116.581C32.4299 116.125 32.2099 115.417 32.2099 114.457C32.2099 113.985 32.2739 113.521 32.4019 113.065C32.5299 112.601 32.6659 112.289 32.8099 112.129C32.9779 111.945 33.3059 111.789 33.7939 111.661C34.2899 111.533 34.8019 111.469 35.3299 111.469C35.8819 111.469 36.4379 111.517 36.9979 111.613C36.9819 111.813 36.9539 112.049 36.9139 112.321C36.8819 112.585 36.8459 112.821 36.8059 113.029C36.3099 112.997 35.8419 112.981 35.4019 112.981C34.9699 112.981 34.6939 113.005 34.5739 113.053C34.5099 113.077 34.4499 113.241 34.3939 113.545C34.3459 113.849 34.3219 114.133 34.3219 114.397C34.3219 114.749 34.3699 115.021 34.4659 115.213C34.5699 115.397 34.7299 115.525 34.9459 115.597C35.1619 115.669 35.4539 115.705 35.8219 115.705C35.9819 115.705 36.3339 115.689 36.8779 115.657L37.0579 116.929ZM37.7819 109.897L39.8339 109.813V117.097H37.7819V109.897ZM46.7194 117.097H44.4874L43.3474 114.853C43.2354 114.621 43.0874 114.473 42.9034 114.409V117.097H40.8514V109.897L42.9034 109.813V113.905C43.0954 113.825 43.2594 113.661 43.3954 113.413L44.4154 111.577L46.6594 111.565L45.4954 113.437C45.3114 113.733 45.1114 113.969 44.8954 114.145C45.0794 114.345 45.2874 114.649 45.5194 115.057L46.7194 117.097ZM50.0288 110.893C49.7568 110.893 49.5208 110.801 49.3208 110.617C49.1288 110.433 49.0328 110.213 49.0328 109.957C49.0328 109.701 49.1288 109.481 49.3208 109.297C49.5208 109.113 49.7568 109.021 50.0288 109.021C50.3008 109.021 50.5328 109.113 50.7248 109.297C50.9168 109.481 51.0128 109.701 51.0128 109.957C51.0128 110.213 50.9168 110.433 50.7248 110.617C50.5328 110.801 50.3008 110.893 50.0288 110.893ZM48.9968 111.577H51.0488V117.097H48.9968V111.577ZM57.4062 111.925C57.4782 112.013 57.5302 112.233 57.5622 112.585C57.6022 112.937 57.6222 113.473 57.6222 114.193V117.097H55.5702V114.217V113.725C55.5702 113.469 55.5502 113.309 55.5102 113.245C55.4462 113.165 55.2982 113.125 55.0662 113.125C54.9542 113.125 54.8702 113.129 54.8142 113.137C54.5902 113.145 54.3582 113.197 54.1182 113.293V117.097H52.0662V111.577H53.7342L53.9622 112.501C54.5382 111.805 55.2262 111.457 56.0262 111.457C56.3142 111.457 56.5822 111.497 56.8302 111.577C57.0862 111.657 57.2782 111.773 57.4062 111.925Z" fill="#A8DADC"/>
<path d="M69.5076 117.253C68.5476 117.253 67.8276 117.029 67.3476 116.581C66.8756 116.125 66.6396 115.409 66.6396 114.433C66.6396 113.897 66.6876 113.429 66.7836 113.029C66.8876 112.621 67.0116 112.337 67.1556 112.177C67.3396 111.969 67.6756 111.797 68.1636 111.661C68.6596 111.525 69.1236 111.457 69.5556 111.457C70.5876 111.457 71.3236 111.677 71.7636 112.117C72.2036 112.557 72.4236 113.261 72.4236 114.229C72.4236 115.269 72.1876 116.033 71.7156 116.521C71.2436 117.009 70.5076 117.253 69.5076 117.253ZM69.5436 115.849C69.8556 115.849 70.0596 115.741 70.1556 115.525C70.2516 115.301 70.2996 114.909 70.2996 114.349C70.2996 113.957 70.2796 113.657 70.2396 113.449C70.1996 113.233 70.1236 113.077 70.0116 112.981C69.9076 112.877 69.7436 112.825 69.5196 112.825C69.1996 112.825 69.0156 112.853 68.9676 112.909C68.9036 112.965 68.8516 113.141 68.8116 113.437C68.7716 113.733 68.7516 114.041 68.7516 114.361C68.7516 114.905 68.8036 115.289 68.9076 115.513C69.0196 115.737 69.2316 115.849 69.5436 115.849ZM78.7268 111.577V117.097H77.0588L76.8308 116.173C76.2548 116.869 75.5668 117.217 74.7668 117.217C74.4788 117.217 74.2068 117.177 73.9508 117.097C73.7028 117.017 73.5148 116.901 73.3868 116.749C73.3148 116.661 73.2588 116.441 73.2188 116.089C73.1868 115.737 73.1708 115.201 73.1708 114.481V111.577H75.2228V114.457C75.2228 114.617 75.2268 114.805 75.2348 115.021C75.2428 115.237 75.2668 115.373 75.3068 115.429C75.3628 115.509 75.5228 115.549 75.7868 115.549L75.9788 115.537C76.2028 115.529 76.4348 115.477 76.6748 115.381V111.577H78.7268ZM82.2548 114.829C82.2548 114.973 82.2588 115.125 82.2668 115.285C82.2748 115.437 82.2988 115.533 82.3388 115.573C82.3948 115.629 82.5908 115.657 82.9268 115.657L83.3348 115.645C83.4068 116.029 83.4428 116.473 83.4428 116.977C83.2908 117.033 83.0668 117.085 82.7708 117.133C82.4828 117.181 82.2068 117.205 81.9428 117.205C81.3908 117.205 80.9628 117.085 80.6588 116.845C80.3628 116.597 80.2148 116.217 80.2148 115.705V112.753H79.3148V111.661L80.2148 111.577L80.7548 110.257L82.2548 110.173V111.577H83.5268V112.753H82.2548V114.829Z" fill="#A8DADC"/>
<path d="M11.8515 211.457C11.9555 211.457 12.0635 211.469 12.1755 211.493C12.2955 211.517 12.3835 211.545 12.4395 211.577C12.4395 211.753 12.4195 212.045 12.3795 212.453C12.3395 212.853 12.3035 213.137 12.2715 213.305C12.1915 213.297 12.0435 213.293 11.8275 213.293C11.3235 213.293 10.8755 213.321 10.4835 213.377V217.097H8.43145V211.577H10.1475L10.3875 212.465H10.3995C10.6315 212.161 10.8795 211.917 11.1435 211.733C11.4075 211.549 11.6435 211.457 11.8515 211.457ZM17.4423 215.225C17.4423 215.937 17.2143 216.449 16.7583 216.761C16.3103 217.073 15.6703 217.229 14.8383 217.229C14.2543 217.229 13.5823 217.145 12.8223 216.977C12.8383 216.817 12.8743 216.589 12.9303 216.293C12.9943 215.989 13.0463 215.757 13.0863 215.597C13.3743 215.645 13.6943 215.685 14.0463 215.717C14.3983 215.741 14.6983 215.753 14.9463 215.753C15.1623 215.753 15.2943 215.741 15.3423 215.717C15.3503 215.709 15.3583 215.689 15.3663 215.657C15.3823 215.617 15.3903 215.577 15.3903 215.537C15.3903 215.377 15.2903 215.269 15.0903 215.213C15.0263 215.197 14.7823 215.129 14.3583 215.009C13.9343 214.889 13.5863 214.673 13.3143 214.361C13.0503 214.041 12.9183 213.645 12.9183 213.173C12.9183 212.925 12.9743 212.649 13.0863 212.345C13.1983 212.041 13.3183 211.849 13.4463 211.769C13.5423 211.705 13.7743 211.641 14.1423 211.577C14.5103 211.505 14.8503 211.469 15.1623 211.469C15.8263 211.469 16.4943 211.517 17.1663 211.613C17.1663 211.757 17.1463 212.001 17.1063 212.345C17.0663 212.681 17.0303 212.893 16.9983 212.981C16.3183 212.893 15.7703 212.849 15.3543 212.849C15.1383 212.849 14.9983 212.861 14.9343 212.885C14.9183 212.893 14.9023 212.917 14.8863 212.957C14.8703 212.989 14.8623 213.033 14.8623 213.089C14.8623 213.201 14.8983 213.281 14.9703 213.329C15.0423 213.385 15.2303 213.453 15.5343 213.533C15.8943 213.637 16.2023 213.745 16.4583 213.857C16.7223 213.969 16.9503 214.137 17.1423 214.361C17.3423 214.585 17.4423 214.873 17.4423 215.225ZM20.6669 214.829C20.6669 214.973 20.6709 215.125 20.6789 215.285C20.6869 215.437 20.7109 215.533 20.7509 215.573C20.8069 215.629 21.0029 215.657 21.3389 215.657L21.7469 215.645C21.8189 216.029 21.8549 216.473 21.8549 216.977C21.7029 217.033 21.4789 217.085 21.1829 217.133C20.8949 217.181 20.6189 217.205 20.3549 217.205C19.8029 217.205 19.3749 217.085 19.0709 216.845C18.7749 216.597 18.6269 216.217 18.6269 215.705V212.753H17.7269V211.661L18.6269 211.577L19.1669 210.257L20.6669 210.173V211.577H21.9389V212.753H20.6669V214.829Z" fill="#A8DADC"/>
<path d="M37.0579 216.929C36.4099 217.145 35.6859 217.253 34.8859 217.253C33.9899 217.253 33.3179 217.029 32.8699 216.581C32.4299 216.125 32.2099 215.417 32.2099 214.457C32.2099 213.985 32.2739 213.521 32.4019 213.065C32.5299 212.601 32.6659 212.289 32.8099 212.129C32.9779 211.945 33.3059 211.789 33.7939 211.661C34.2899 211.533 34.8019 211.469 35.3299 211.469C35.8819 211.469 36.4379 211.517 36.9979 211.613C36.9819 211.813 36.9539 212.049 36.9139 212.321C36.8819 212.585 36.8459 212.821 36.8059 213.029C36.3099 212.997 35.8419 212.981 35.4019 212.981C34.9699 212.981 34.6939 213.005 34.5739 213.053C34.5099 213.077 34.4499 213.241 34.3939 213.545C34.3459 213.849 34.3219 214.133 34.3219 214.397C34.3219 214.749 34.3699 215.021 34.4659 215.213C34.5699 215.397 34.7299 215.525 34.9459 215.597C35.1619 215.669 35.4539 215.705 35.8219 215.705C35.9819 215.705 36.3339 215.689 36.8779 215.657L37.0579 216.929ZM37.7819 209.897L39.8339 209.813V217.097H37.7819V209.897ZM46.7194 217.097H44.4874L43.3474 214.853C43.2354 214.621 43.0874 214.473 42.9034 214.409V217.097H40.8514V209.897L42.9034 209.813V213.905C43.0954 213.825 43.2594 213.661 43.3954 213.413L44.4154 211.577L46.6594 211.565L45.4954 213.437C45.3114 213.733 45.1114 213.969 44.8954 214.145C45.0794 214.345 45.2874 214.649 45.5194 215.057L46.7194 217.097ZM50.0288 210.893C49.7568 210.893 49.5208 210.801 49.3208 210.617C49.1288 210.433 49.0328 210.213 49.0328 209.957C49.0328 209.701 49.1288 209.481 49.3208 209.297C49.5208 209.113 49.7568 209.021 50.0288 209.021C50.3008 209.021 50.5328 209.113 50.7248 209.297C50.9168 209.481 51.0128 209.701 51.0128 209.957C51.0128 210.213 50.9168 210.433 50.7248 210.617C50.5328 210.801 50.3008 210.893 50.0288 210.893ZM48.9968 211.577H51.0488V217.097H48.9968V211.577ZM57.4062 211.925C57.4782 212.013 57.5302 212.233 57.5622 212.585C57.6022 212.937 57.6222 213.473 57.6222 214.193V217.097H55.5702V214.217V213.725C55.5702 213.469 55.5502 213.309 55.5102 213.245C55.4462 213.165 55.2982 213.125 55.0662 213.125C54.9542 213.125 54.8702 213.129 54.8142 213.137C54.5902 213.145 54.3582 213.197 54.1182 213.293V217.097H52.0662V211.577H53.7342L53.9622 212.501C54.5382 211.805 55.2262 211.457 56.0262 211.457C56.3142 211.457 56.5822 211.497 56.8302 211.577C57.0862 211.657 57.2782 211.773 57.4062 211.925Z" fill="#A8DADC"/>
<path d="M69.5076 217.253C68.5476 217.253 67.8276 217.029 67.3476 216.581C66.8756 216.125 66.6396 215.409 66.6396 214.433C66.6396 213.897 66.6876 213.429 66.7836 213.029C66.8876 212.621 67.0116 212.337 67.1556 212.177C67.3396 211.969 67.6756 211.797 68.1636 211.661C68.6596 211.525 69.1236 211.457 69.5556 211.457C70.5876 211.457 71.3236 211.677 71.7636 212.117C72.2036 212.557 72.4236 213.261 72.4236 214.229C72.4236 215.269 72.1876 216.033 71.7156 216.521C71.2436 217.009 70.5076 217.253 69.5076 217.253ZM69.5436 215.849C69.8556 215.849 70.0596 215.741 70.1556 215.525C70.2516 215.301 70.2996 214.909 70.2996 214.349C70.2996 213.957 70.2796 213.657 70.2396 213.449C70.1996 213.233 70.1236 213.077 70.0116 212.981C69.9076 212.877 69.7436 212.825 69.5196 212.825C69.1996 212.825 69.0156 212.853 68.9676 212.909C68.9036 212.965 68.8516 213.141 68.8116 213.437C68.7716 213.733 68.7516 214.041 68.7516 214.361C68.7516 214.905 68.8036 215.289 68.9076 215.513C69.0196 215.737 69.2316 215.849 69.5436 215.849ZM78.7268 211.577V217.097H77.0588L76.8308 216.173C76.2548 216.869 75.5668 217.217 74.7668 217.217C74.4788 217.217 74.2068 217.177 73.9508 217.097C73.7028 217.017 73.5148 216.901 73.3868 216.749C73.3148 216.661 73.2588 216.441 73.2188 216.089C73.1868 215.737 73.1708 215.201 73.1708 214.481V211.577H75.2228V214.457C75.2228 214.617 75.2268 214.805 75.2348 215.021C75.2428 215.237 75.2668 215.373 75.3068 215.429C75.3628 215.509 75.5228 215.549 75.7868 215.549L75.9788 215.537C76.2028 215.529 76.4348 215.477 76.6748 215.381V211.577H78.7268ZM82.2548 214.829C82.2548 214.973 82.2588 215.125 82.2668 215.285C82.2748 215.437 82.2988 215.533 82.3388 215.573C82.3948 215.629 82.5908 215.657 82.9268 215.657L83.3348 215.645C83.4068 216.029 83.4428 216.473 83.4428 216.977C83.2908 217.033 83.0668 217.085 82.7708 217.133C82.4828 217.181 82.2068 217.205 81.9428 217.205C81.3908 217.205 80.9628 217.085 80.6588 216.845C80.3628 216.597 80.2148 216.217 80.2148 215.705V212.753H79.3148V211.661L80.2148 211.577L80.7548 210.257L82.2548 210.173V211.577H83.5268V212.753H82.2548V214.829Z" fill="#A8DADC"/>
<path d="M11.8515 311.457C11.9555 311.457 12.0635 311.469 12.1755 311.493C12.2955 311.517 12.3835 311.545 12.4395 311.577C12.4395 311.753 12.4195 312.045 12.3795 312.453C12.3395 312.853 12.3035 313.137 12.2715 313.305C12.1915 313.297 12.0435 313.293 11.8275 313.293C11.3235 313.293 10.8755 313.321 10.4835 313.377V317.097H8.43145V311.577H10.1475L10.3875 312.465H10.3995C10.6315 312.161 10.8795 311.917 11.1435 311.733C11.4075 311.549 11.6435 311.457 11.8515 311.457ZM17.4423 315.225C17.4423 315.937 17.2143 316.449 16.7583 316.761C16.3103 317.073 15.6703 317.229 14.8383 317.229C14.2543 317.229 13.5823 317.145 12.8223 316.977C12.8383 316.817 12.8743 316.589 12.9303 316.293C12.9943 315.989 13.0463 315.757 13.0863 315.597C13.3743 315.645 13.6943 315.685 14.0463 315.717C14.3983 315.741 14.6983 315.753 14.9463 315.753C15.1623 315.753 15.2943 315.741 15.3423 315.717C15.3503 315.709 15.3583 315.689 15.3663 315.657C15.3823 315.617 15.3903 315.577 15.3903 315.537C15.3903 315.377 15.2903 315.269 15.0903 315.213C15.0263 315.197 14.7823 315.129 14.3583 315.009C13.9343 314.889 13.5863 314.673 13.3143 314.361C13.0503 314.041 12.9183 313.645 12.9183 313.173C12.9183 312.925 12.9743 312.649 13.0863 312.345C13.1983 312.041 13.3183 311.849 13.4463 311.769C13.5423 311.705 13.7743 311.641 14.1423 311.577C14.5103 311.505 14.8503 311.469 15.1623 311.469C15.8263 311.469 16.4943 311.517 17.1663 311.613C17.1663 311.757 17.1463 312.001 17.1063 312.345C17.0663 312.681 17.0303 312.893 16.9983 312.981C16.3183 312.893 15.7703 312.849 15.3543 312.849C15.1383 312.849 14.9983 312.861 14.9343 312.885C14.9183 312.893 14.9023 312.917 14.8863 312.957C14.8703 312.989 14.8623 313.033 14.8623 313.089C14.8623 313.201 14.8983 313.281 14.9703 313.329C15.0423 313.385 15.2303 313.453 15.5343 313.533C15.8943 313.637 16.2023 313.745 16.4583 313.857C16.7223 313.969 16.9503 314.137 17.1423 314.361C17.3423 314.585 17.4423 314.873 17.4423 315.225ZM20.6669 314.829C20.6669 314.973 20.6709 315.125 20.6789 315.285C20.6869 315.437 20.7109 315.533 20.7509 315.573C20.8069 315.629 21.0029 315.657 21.3389 315.657L21.7469 315.645C21.8189 316.029 21.8549 316.473 21.8549 316.977C21.7029 317.033 21.4789 317.085 21.1829 317.133C20.8949 317.181 20.6189 317.205 20.3549 317.205C19.8029 317.205 19.3749 317.085 19.0709 316.845C18.7749 316.597 18.6269 316.217 18.6269 315.705V312.753H17.7269V311.661L18.6269 311.577L19.1669 310.257L20.6669 310.173V311.577H21.9389V312.753H20.6669V314.829Z" fill="#A8DADC"/>
<path d="M37.0579 316.929C36.4099 317.145 35.6859 317.253 34.8859 317.253C33.9899 317.253 33.3179 317.029 32.8699 316.581C32.4299 316.125 32.2099 315.417 32.2099 314.457C32.2099 313.985 32.2739 313.521 32.4019 313.065C32.5299 312.601 32.6659 312.289 32.8099 312.129C32.9779 311.945 33.3059 311.789 33.7939 311.661C34.2899 311.533 34.8019 311.469 35.3299 311.469C35.8819 311.469 36.4379 311.517 36.9979 311.613C36.9819 311.813 36.9539 312.049 36.9139 312.321C36.8819 312.585 36.8459 312.821 36.8059 313.029C36.3099 312.997 35.8419 312.981 35.4019 312.981C34.9699 312.981 34.6939 313.005 34.5739 313.053C34.5099 313.077 34.4499 313.241 34.3939 313.545C34.3459 313.849 34.3219 314.133 34.3219 314.397C34.3219 314.749 34.3699 315.021 34.4659 315.213C34.5699 315.397 34.7299 315.525 34.9459 315.597C35.1619 315.669 35.4539 315.705 35.8219 315.705C35.9819 315.705 36.3339 315.689 36.8779 315.657L37.0579 316.929ZM37.7819 309.897L39.8339 309.813V317.097H37.7819V309.897ZM46.7194 317.097H44.4874L43.3474 314.853C43.2354 314.621 43.0874 314.473 42.9034 314.409V317.097H40.8514V309.897L42.9034 309.813V313.905C43.0954 313.825 43.2594 313.661 43.3954 313.413L44.4154 311.577L46.6594 311.565L45.4954 313.437C45.3114 313.733 45.1114 313.969 44.8954 314.145C45.0794 314.345 45.2874 314.649 45.5194 315.057L46.7194 317.097ZM50.0288 310.893C49.7568 310.893 49.5208 310.801 49.3208 310.617C49.1288 310.433 49.0328 310.213 49.0328 309.957C49.0328 309.701 49.1288 309.481 49.3208 309.297C49.5208 309.113 49.7568 309.021 50.0288 309.021C50.3008 309.021 50.5328 309.113 50.7248 309.297C50.9168 309.481 51.0128 309.701 51.0128 309.957C51.0128 310.213 50.9168 310.433 50.7248 310.617C50.5328 310.801 50.3008 310.893 50.0288 310.893ZM48.9968 311.577H51.0488V317.097H48.9968V311.577ZM57.4062 311.925C57.4782 312.013 57.5302 312.233 57.5622 312.585C57.6022 312.937 57.6222 313.473 57.6222 314.193V317.097H55.5702V314.217V313.725C55.5702 313.469 55.5502 313.309 55.5102 313.245C55.4462 313.165 55.2982 313.125 55.0662 313.125C54.9542 313.125 54.8702 313.129 54.8142 313.137C54.5902 313.145 54.3582 313.197 54.1182 313.293V317.097H52.0662V311.577H53.7342L53.9622 312.501C54.5382 311.805 55.2262 311.457 56.0262 311.457C56.3142 311.457 56.5822 311.497 56.8302 311.577C57.0862 311.657 57.2782 311.773 57.4062 311.925Z" fill="#A8DADC"/>
<path d="M69.5076 317.253C68.5476 317.253 67.8276 317.029 67.3476 316.581C66.8756 316.125 66.6396 315.409 66.6396 314.433C66.6396 313.897 66.6876 313.429 66.7836 313.029C66.8876 312.621 67.0116 312.337 67.1556 312.177C67.3396 311.969 67.6756 311.797 68.1636 311.661C68.6596 311.525 69.1236 311.457 69.5556 311.457C70.5876 311.457 71.3236 311.677 71.7636 312.117C72.2036 312.557 72.4236 313.261 72.4236 314.229C72.4236 315.269 72.1876 316.033 71.7156 316.521C71.2436 317.009 70.5076 317.253 69.5076 317.253ZM69.5436 315.849C69.8556 315.849 70.0596 315.741 70.1556 315.525C70.2516 315.301 70.2996 314.909 70.2996 314.349C70.2996 313.957 70.2796 313.657 70.2396 313.449C70.1996 313.233 70.1236 313.077 70.0116 312.981C69.9076 312.877 69.7436 312.825 69.5196 312.825C69.1996 312.825 69.0156 312.853 68.9676 312.909C68.9036 312.965 68.8516 313.141 68.8116 313.437C68.7716 313.733 68.7516 314.041 68.7516 314.361C68.7516 314.905 68.8036 315.289 68.9076 315.513C69.0196 315.737 69.2316 315.849 69.5436 315.849ZM78.7268 311.577V317.097H77.0588L76.8308 316.173C76.2548 316.869 75.5668 317.217 74.7668 317.217C74.4788 317.217 74.2068 317.177 73.9508 317.097C73.7028 317.017 73.5148 316.901 73.3868 316.749C73.3148 316.661 73.2588 316.441 73.2188 316.089C73.1868 315.737 73.1708 315.201 73.1708 314.481V311.577H75.2228V314.457C75.2228 314.617 75.2268 314.805 75.2348 315.021C75.2428 315.237 75.2668 315.373 75.3068 315.429C75.3628 315.509 75.5228 315.549 75.7868 315.549L75.9788 315.537C76.2028 315.529 76.4348 315.477 76.6748 315.381V311.577H78.7268ZM82.2548 314.829C82.2548 314.973 82.2588 315.125 82.2668 315.285C82.2748 315.437 82.2988 315.533 82.3388 315.573C82.3948 315.629 82.5908 315.657 82.9268 315.657L83.3348 315.645C83.4068 316.029 83.4428 316.473 83.4428 316.977C83.2908 317.033 83.0668 317.085 82.7708 317.133C82.4828 317.181 82.2068 317.205 81.9428 317.205C81.3908 317.205 80.9628 317.085 80.6588 316.845C80.3628 316.597 80.2148 316.217 80.2148 315.705V312.753H79.3148V311.661L80.2148 311.577L80.7548 310.257L82.2548 310.173V311.577H83.5268V312.753H82.2548V314.829Z" fill="#A8DADC"/>
</svg>
