<svg width="91" height="380" viewBox="0 0 91 380" fill="none" xmlns="http://www.w3.org/2000/svg">
<g clip-path="url(#clip0)">
<rect x="0.6875" width="90" height="380" fill="#457B9D"/>
<g opacity="0.3">
<path fill-rule="evenodd" clip-rule="evenodd" d="M39.6455 375.599C39.4905 375.747 39.3465 375.851 39.2135 375.909C39.0805 375.968 38.9385 375.998 38.7875 375.998C38.6355 375.998 38.4935 375.97 38.3605 375.914C38.2275 375.858 38.1115 375.781 38.0125 375.682C37.7965 375.466 37.6875 375.209 37.6875 374.912V369.385C37.6875 369.082 37.7655 368.847 37.9195 368.68C38.1855 368.408 38.4375 368.272 38.6755 368.272C38.9135 368.272 39.0915 368.296 39.2095 368.346C39.3265 368.395 39.4255 368.457 39.5055 368.531C39.6115 368.624 39.6895 368.723 39.7425 368.828C39.7955 368.933 39.8385 369.011 39.8725 369.06C39.9065 369.11 39.9625 369.134 40.0395 369.134C40.1165 369.134 40.1835 369.11 40.2385 369.06L40.3965 368.902C40.8475 368.482 41.2995 368.272 41.7505 368.272C42.5485 368.272 43.2065 368.599 43.7265 369.255C43.7755 369.323 43.8375 369.357 43.9115 369.357C44.0415 369.357 44.1735 369.256 44.3065 369.055C44.4395 368.854 44.6535 368.674 44.9505 368.513C45.2475 368.352 45.5935 368.272 45.9895 368.272C46.3855 368.272 46.7455 368.344 47.0705 368.49C47.3945 368.635 47.6775 368.834 47.9185 369.088C48.4255 369.62 48.6795 370.263 48.6795 371.017V374.912C48.6795 375.382 48.4565 375.713 48.0115 375.905C47.8755 375.967 47.7315 375.998 47.5805 375.998C47.4285 375.998 47.2865 375.97 47.1535 375.914C47.0205 375.858 46.9045 375.781 46.8055 375.682C46.5955 375.46 46.4905 375.203 46.4905 374.912V371.045C46.4905 370.736 46.4135 370.504 46.2585 370.349C45.9865 370.077 45.7365 369.941 45.5075 369.941C45.2785 369.941 45.0995 369.971 44.9695 370.029C44.8395 370.088 44.7215 370.17 44.6165 370.275C44.4005 370.492 44.2925 370.742 44.2925 371.026V374.912C44.2925 375.382 44.0725 375.713 43.6335 375.905C43.4975 375.967 43.3535 375.998 43.2025 375.998C43.0505 375.998 42.9075 375.97 42.7705 375.914C42.6345 375.858 42.5175 375.781 42.4185 375.682C42.2025 375.466 42.0935 375.209 42.0935 374.912V371.045C42.0935 370.736 42.0165 370.504 41.8615 370.349C41.5895 370.077 41.3055 369.941 41.0085 369.941C40.5135 369.941 40.1705 370.133 39.9795 370.516C39.9175 370.64 39.8865 370.779 39.8865 370.934V374.912C39.8865 375.215 39.8055 375.444 39.6455 375.599ZM50.9065 369.387C50.9065 369.084 50.9835 368.849 51.1385 368.682C51.4035 368.41 51.6975 368.274 52.0195 368.274C52.3285 368.274 52.5575 368.355 52.7055 368.515C52.9775 368.794 53.1135 369.084 53.1135 369.387V374.915C53.1135 375.212 53.0365 375.437 52.8815 375.592C52.6095 375.864 52.3595 376 52.1305 376C51.9015 376 51.7195 375.971 51.5835 375.912C51.4475 375.853 51.3295 375.777 51.2305 375.685C51.0145 375.474 50.9065 375.218 50.9065 374.915V369.387ZM52.0145 365.9C51.7525 365.9 51.5395 365.687 51.5395 365.425C51.5395 365.162 51.7525 364.95 52.0145 364.95C52.2765 364.95 52.4895 365.162 52.4895 365.425C52.4895 365.687 52.2765 365.9 52.0145 365.9ZM52.0145 364C52.4015 364 52.7355 364.142 53.0165 364.425C53.2985 364.709 53.4395 364.996 53.4395 365.287C53.4395 365.577 53.4005 365.807 53.3225 365.978C53.2455 366.148 53.1435 366.297 53.0165 366.424C52.7355 366.708 52.4015 366.849 52.0145 366.849C51.6275 366.849 51.2935 366.708 51.0115 366.424C50.7305 366.141 50.5895 365.857 50.5895 365.574C50.5895 365.092 50.7305 364.709 51.0115 364.425C51.2935 364.142 51.6275 364 52.0145 364Z" fill="#1D3557"/>
</g>
<path d="M33.2779 17.2894C33.2779 17.4434 33.3549 17.5644 33.5089 17.6524C33.6703 17.7404 33.9196 17.8357 34.2569 17.9384C34.6603 18.0704 34.9903 18.1987 35.2469 18.3234C35.5109 18.448 35.7383 18.6424 35.9289 18.9064C36.1269 19.1704 36.2259 19.515 36.2259 19.9404C36.2259 21.3044 35.3386 21.9864 33.5639 21.9864C33.2706 21.9864 32.9113 21.9607 32.4859 21.9094C32.0679 21.858 31.6866 21.792 31.3419 21.7114C31.3566 21.5574 31.3859 21.3337 31.4299 21.0404C31.4813 20.7397 31.5289 20.516 31.5729 20.3694C31.8296 20.406 32.2146 20.45 32.7279 20.5014C33.2486 20.5527 33.6409 20.5784 33.9049 20.5784C34.0589 20.5784 34.1506 20.5674 34.1799 20.5454C34.2239 20.516 34.2569 20.4684 34.2789 20.4024C34.3083 20.329 34.3229 20.2667 34.3229 20.2154C34.3229 20.0687 34.2533 19.9587 34.1139 19.8854C33.9746 19.8047 33.7363 19.7094 33.3989 19.5994C32.9956 19.4747 32.6619 19.3464 32.3979 19.2144C32.1339 19.0824 31.9029 18.877 31.7049 18.5984C31.5069 18.3197 31.4079 17.953 31.4079 17.4984C31.4079 17.1757 31.4813 16.8604 31.6279 16.5524C31.7746 16.237 31.9249 16.0244 32.0789 15.9144C32.1963 15.8337 32.4383 15.7567 32.8049 15.6834C33.1716 15.61 33.5163 15.5734 33.8389 15.5734C34.6603 15.5734 35.3313 15.6504 35.8519 15.8044C35.8446 15.951 35.8189 16.1527 35.7749 16.4094C35.7383 16.666 35.6979 16.9007 35.6539 17.1134L35.4009 17.1024C34.4476 17.0364 33.8389 17.0034 33.5749 17.0034C33.4649 17.0034 33.4026 17.007 33.3879 17.0144C33.3586 17.029 33.3329 17.062 33.3109 17.1134C33.2889 17.1647 33.2779 17.2234 33.2779 17.2894ZM40.8452 21.8654H38.8652V16.9704H37.0942V15.5954H42.6162V16.9704H40.8452V21.8654ZM43.7445 15.5954H48.3095V16.9154H45.7245V18.0594H47.9025V19.2474H45.7245V20.5234H48.2985V21.8654H43.7445V15.5954ZM52.2291 15.5624C52.8231 15.5624 53.3255 15.6174 53.7361 15.7274C54.1468 15.8374 54.4731 16.05 54.7151 16.3654C54.9645 16.6734 55.0891 17.117 55.0891 17.6964C55.0891 17.953 55.0488 18.217 54.9681 18.4884C54.8948 18.7524 54.7995 18.9834 54.6821 19.1814C54.5721 19.3794 54.4731 19.5077 54.3851 19.5664C54.2825 19.6397 54.0551 19.6984 53.7031 19.7424C53.3511 19.779 52.9368 19.7974 52.4601 19.7974C52.2915 19.7974 52.0311 19.79 51.6791 19.7754V21.8654H49.6991V15.5954C50.4691 15.5734 51.3125 15.5624 52.2291 15.5624ZM53.0541 18.3894C53.1275 18.294 53.1641 18.1034 53.1641 17.8174C53.1641 17.4434 53.0835 17.1794 52.9221 17.0254C52.7681 16.8714 52.4968 16.7944 52.1081 16.7944C51.9761 16.7944 51.8331 16.8054 51.6791 16.8274V18.4994C51.7525 18.5067 51.8955 18.5104 52.1081 18.5104C52.6728 18.5104 52.9881 18.47 53.0541 18.3894ZM58.1439 17.2894C58.1439 17.4434 58.2209 17.5644 58.3749 17.6524C58.5363 17.7404 58.7856 17.8357 59.1229 17.9384C59.5263 18.0704 59.8563 18.1987 60.1129 18.3234C60.3769 18.448 60.6043 18.6424 60.7949 18.9064C60.9929 19.1704 61.0919 19.515 61.0919 19.9404C61.0919 21.3044 60.2046 21.9864 58.4299 21.9864C58.1366 21.9864 57.7773 21.9607 57.3519 21.9094C56.9339 21.858 56.5526 21.792 56.2079 21.7114C56.2226 21.5574 56.2519 21.3337 56.2959 21.0404C56.3473 20.7397 56.3949 20.516 56.4389 20.3694C56.6956 20.406 57.0806 20.45 57.5939 20.5014C58.1146 20.5527 58.5069 20.5784 58.7709 20.5784C58.9249 20.5784 59.0166 20.5674 59.0459 20.5454C59.0899 20.516 59.1229 20.4684 59.1449 20.4024C59.1743 20.329 59.1889 20.2667 59.1889 20.2154C59.1889 20.0687 59.1193 19.9587 58.9799 19.8854C58.8406 19.8047 58.6023 19.7094 58.2649 19.5994C57.8616 19.4747 57.5279 19.3464 57.2639 19.2144C56.9999 19.0824 56.7689 18.877 56.5709 18.5984C56.3729 18.3197 56.2739 17.953 56.2739 17.4984C56.2739 17.1757 56.3473 16.8604 56.4939 16.5524C56.6406 16.237 56.7909 16.0244 56.9449 15.9144C57.0623 15.8337 57.3043 15.7567 57.6709 15.6834C58.0376 15.61 58.3823 15.5734 58.7049 15.5734C59.5263 15.5734 60.1973 15.6504 60.7179 15.8044C60.7106 15.951 60.6849 16.1527 60.6409 16.4094C60.6043 16.666 60.5639 16.9007 60.5199 17.1134L60.2669 17.1024C59.3136 17.0364 58.7049 17.0034 58.4409 17.0034C58.3309 17.0034 58.2686 17.007 58.2539 17.0144C58.2246 17.029 58.1989 17.062 58.1769 17.1134C58.1549 17.1647 58.1439 17.2234 58.1439 17.2894Z" fill="white"/>
<rect x="9.6875" y="30" width="30" height="20" rx="5" fill="#36617C"/>
<rect x="49.6875" y="30" width="30" height="20" rx="5" fill="#36617C"/>
<path d="M11.1826 96.668H8.8291V102H10.1133V100.081H10.9385L11.9004 102H13.3506L12.2275 99.9053C12.7158 99.7246 13.2432 99.1875 13.2432 98.4062C13.2432 97.3369 12.4814 96.668 11.1826 96.668ZM10.1133 99.1826V97.6201H10.9922C11.5195 97.6201 11.8906 97.8984 11.8906 98.416C11.8906 98.9287 11.5293 99.1826 10.9775 99.1826H10.1133ZM14.7783 100.447C14.793 101.346 15.5107 102.098 17.0391 102.098C18.543 102.098 19.3389 101.385 19.3389 100.384C19.3389 99.4463 18.7188 99.0361 17.8203 98.8604L17.0342 98.709C16.4824 98.5967 16.209 98.4355 16.209 98.123C16.209 97.7812 16.5166 97.5225 17.0781 97.5225C17.6641 97.5225 18.0059 97.8154 18.0352 98.1865H19.2412C19.2314 97.3369 18.499 96.5654 17.083 96.5654C15.7744 96.5654 14.9004 97.2197 14.9004 98.2207C14.9004 99.0898 15.457 99.5439 16.4531 99.7441L17.2002 99.8955C17.7666 100.013 18.0449 100.179 18.0449 100.511C18.0449 100.872 17.7324 101.131 17.0928 101.131C16.458 101.131 16.0576 100.833 16.0283 100.447H14.7783ZM23.5059 102V97.6885H25.0537V96.668H20.6494V97.6885H22.1973V102H23.5059Z" fill="white"/>
<path d="M38.8936 99.041C38.8936 98.1279 39.2842 97.6055 39.9873 97.6055C40.6074 97.6055 41.0176 98.0254 41.0176 98.6309H42.2725V98.4893C42.2725 97.3223 41.2959 96.5703 39.9775 96.5703C38.4395 96.5703 37.5605 97.5371 37.5605 99.041V99.6416C37.5605 101.136 38.4395 102.098 39.9775 102.098C41.2812 102.098 42.2725 101.37 42.2725 100.223V100.076H41.0176C41.0176 100.652 40.6074 101.067 39.9824 101.067C39.2842 101.067 38.8936 100.545 38.8936 99.6465V99.041ZM47.709 100.96H45.4189V96.668H44.1104V102H47.709V100.96ZM54.1221 96.668H52.7158L50.7334 98.958H50.6748V96.668H49.3662V102H50.6748V100.374L51.1924 99.8076L52.6475 102H54.1953L52.1543 98.9775L54.1221 96.668Z" fill="white"/>
<path d="M68.6211 102.098C70.208 102.098 71.1113 101.126 71.1113 99.6367V99.0361C71.1113 97.542 70.2031 96.5703 68.6162 96.5703C67.0342 96.5703 66.126 97.5371 66.126 99.0361V99.6367C66.126 101.126 67.0391 102.098 68.6211 102.098ZM68.6211 101.077C67.8936 101.077 67.459 100.535 67.459 99.6416V99.0215C67.459 98.1279 67.8936 97.5908 68.6211 97.5908C69.3438 97.5908 69.7783 98.1279 69.7783 99.0215V99.6416C69.7783 100.535 69.3438 101.077 68.6211 101.077ZM75.2588 101.048C74.6484 101.048 74.2236 100.687 74.2236 99.998V96.668H72.9102V100.145C72.9102 101.336 73.8135 102.098 75.2588 102.098C76.7041 102.098 77.6074 101.331 77.6074 100.145V96.668H76.2988V99.998C76.2988 100.682 75.8691 101.048 75.2588 101.048ZM81.9795 102V97.6885H83.5273V96.668H79.123V97.6885H80.6709V102H81.9795Z" fill="white"/>
<rect x="9.6875" y="144" width="30" height="20" rx="5" fill="#36617C"/>
<rect x="49.6875" y="144" width="30" height="20" rx="5" fill="#36617C"/>
<path d="M11.1826 210.668H8.8291V216H10.1133V214.081H10.9385L11.9004 216H13.3506L12.2275 213.905C12.7158 213.725 13.2432 213.188 13.2432 212.406C13.2432 211.337 12.4814 210.668 11.1826 210.668ZM10.1133 213.183V211.62H10.9922C11.5195 211.62 11.8906 211.898 11.8906 212.416C11.8906 212.929 11.5293 213.183 10.9775 213.183H10.1133ZM14.7783 214.447C14.793 215.346 15.5107 216.098 17.0391 216.098C18.543 216.098 19.3389 215.385 19.3389 214.384C19.3389 213.446 18.7188 213.036 17.8203 212.86L17.0342 212.709C16.4824 212.597 16.209 212.436 16.209 212.123C16.209 211.781 16.5166 211.522 17.0781 211.522C17.6641 211.522 18.0059 211.815 18.0352 212.187H19.2412C19.2314 211.337 18.499 210.565 17.083 210.565C15.7744 210.565 14.9004 211.22 14.9004 212.221C14.9004 213.09 15.457 213.544 16.4531 213.744L17.2002 213.896C17.7666 214.013 18.0449 214.179 18.0449 214.511C18.0449 214.872 17.7324 215.131 17.0928 215.131C16.458 215.131 16.0576 214.833 16.0283 214.447H14.7783ZM23.5059 216V211.688H25.0537V210.668H20.6494V211.688H22.1973V216H23.5059Z" fill="white"/>
<path d="M38.8936 213.041C38.8936 212.128 39.2842 211.605 39.9873 211.605C40.6074 211.605 41.0176 212.025 41.0176 212.631H42.2725V212.489C42.2725 211.322 41.2959 210.57 39.9775 210.57C38.4395 210.57 37.5605 211.537 37.5605 213.041V213.642C37.5605 215.136 38.4395 216.098 39.9775 216.098C41.2812 216.098 42.2725 215.37 42.2725 214.223V214.076H41.0176C41.0176 214.652 40.6074 215.067 39.9824 215.067C39.2842 215.067 38.8936 214.545 38.8936 213.646V213.041ZM47.709 214.96H45.4189V210.668H44.1104V216H47.709V214.96ZM54.1221 210.668H52.7158L50.7334 212.958H50.6748V210.668H49.3662V216H50.6748V214.374L51.1924 213.808L52.6475 216H54.1953L52.1543 212.978L54.1221 210.668Z" fill="white"/>
<path d="M68.6211 216.098C70.208 216.098 71.1113 215.126 71.1113 213.637V213.036C71.1113 211.542 70.2031 210.57 68.6162 210.57C67.0342 210.57 66.126 211.537 66.126 213.036V213.637C66.126 215.126 67.0391 216.098 68.6211 216.098ZM68.6211 215.077C67.8936 215.077 67.459 214.535 67.459 213.642V213.021C67.459 212.128 67.8936 211.591 68.6211 211.591C69.3438 211.591 69.7783 212.128 69.7783 213.021V213.642C69.7783 214.535 69.3438 215.077 68.6211 215.077ZM75.2588 215.048C74.6484 215.048 74.2236 214.687 74.2236 213.998V210.668H72.9102V214.145C72.9102 215.336 73.8135 216.098 75.2588 216.098C76.7041 216.098 77.6074 215.331 77.6074 214.145V210.668H76.2988V213.998C76.2988 214.682 75.8691 215.048 75.2588 215.048ZM81.9795 216V211.688H83.5273V210.668H79.123V211.688H80.6709V216H81.9795Z" fill="white"/>
<line opacity="0.5" x1="-0.3125" y1="138" x2="89.6875" y2="138" stroke="#1D3557"/>
<line opacity="0.5" x1="-0.3125" y1="252" x2="89.6875" y2="252" stroke="#1D3557"/>
<rect x="9.6875" y="258" width="30" height="20" rx="5" fill="#36617C"/>
<rect x="49.6875" y="258" width="30" height="20" rx="5" fill="#36617C"/>
<path d="M11.1826 324.668H8.8291V330H10.1133V328.081H10.9385L11.9004 330H13.3506L12.2275 327.905C12.7158 327.725 13.2432 327.188 13.2432 326.406C13.2432 325.337 12.4814 324.668 11.1826 324.668ZM10.1133 327.183V325.62H10.9922C11.5195 325.62 11.8906 325.898 11.8906 326.416C11.8906 326.929 11.5293 327.183 10.9775 327.183H10.1133ZM14.7783 328.447C14.793 329.346 15.5107 330.098 17.0391 330.098C18.543 330.098 19.3389 329.385 19.3389 328.384C19.3389 327.446 18.7188 327.036 17.8203 326.86L17.0342 326.709C16.4824 326.597 16.209 326.436 16.209 326.123C16.209 325.781 16.5166 325.522 17.0781 325.522C17.6641 325.522 18.0059 325.815 18.0352 326.187H19.2412C19.2314 325.337 18.499 324.565 17.083 324.565C15.7744 324.565 14.9004 325.22 14.9004 326.221C14.9004 327.09 15.457 327.544 16.4531 327.744L17.2002 327.896C17.7666 328.013 18.0449 328.179 18.0449 328.511C18.0449 328.872 17.7324 329.131 17.0928 329.131C16.458 329.131 16.0576 328.833 16.0283 328.447H14.7783ZM23.5059 330V325.688H25.0537V324.668H20.6494V325.688H22.1973V330H23.5059Z" fill="white"/>
<path d="M38.8936 327.041C38.8936 326.128 39.2842 325.605 39.9873 325.605C40.6074 325.605 41.0176 326.025 41.0176 326.631H42.2725V326.489C42.2725 325.322 41.2959 324.57 39.9775 324.57C38.4395 324.57 37.5605 325.537 37.5605 327.041V327.642C37.5605 329.136 38.4395 330.098 39.9775 330.098C41.2812 330.098 42.2725 329.37 42.2725 328.223V328.076H41.0176C41.0176 328.652 40.6074 329.067 39.9824 329.067C39.2842 329.067 38.8936 328.545 38.8936 327.646V327.041ZM47.709 328.96H45.4189V324.668H44.1104V330H47.709V328.96ZM54.1221 324.668H52.7158L50.7334 326.958H50.6748V324.668H49.3662V330H50.6748V328.374L51.1924 327.808L52.6475 330H54.1953L52.1543 326.978L54.1221 324.668Z" fill="white"/>
<path d="M68.6211 330.098C70.208 330.098 71.1113 329.126 71.1113 327.637V327.036C71.1113 325.542 70.2031 324.57 68.6162 324.57C67.0342 324.57 66.126 325.537 66.126 327.036V327.637C66.126 329.126 67.0391 330.098 68.6211 330.098ZM68.6211 329.077C67.8936 329.077 67.459 328.535 67.459 327.642V327.021C67.459 326.128 67.8936 325.591 68.6211 325.591C69.3438 325.591 69.7783 326.128 69.7783 327.021V327.642C69.7783 328.535 69.3438 329.077 68.6211 329.077ZM75.2588 329.048C74.6484 329.048 74.2236 328.687 74.2236 327.998V324.668H72.9102V328.145C72.9102 329.336 73.8135 330.098 75.2588 330.098C76.7041 330.098 77.6074 329.331 77.6074 328.145V324.668H76.2988V327.998C76.2988 328.682 75.8691 329.048 75.2588 329.048ZM81.9795 330V325.688H83.5273V324.668H79.123V325.688H80.6709V330H81.9795Z" fill="white"/>
</g>
<defs>
<clipPath id="clip0">
<rect width="90" height="380" fill="white" transform="translate(0.6875)"/>
</clipPath>
</defs>
</svg>
