<svg width="60" height="380" viewBox="0 0 60 380" fill="none" xmlns="http://www.w3.org/2000/svg">
<rect width="60" height="380" fill="#457B9D"/>
<g opacity="0.3">
<path fill-rule="evenodd" clip-rule="evenodd" d="M23.958 375.599C23.803 375.747 23.659 375.851 23.526 375.909C23.393 375.968 23.251 375.998 23.1 375.998C22.948 375.998 22.806 375.97 22.673 375.914C22.54 375.858 22.424 375.781 22.325 375.682C22.109 375.466 22 375.209 22 374.912V369.385C22 369.082 22.078 368.847 22.232 368.68C22.498 368.408 22.75 368.272 22.988 368.272C23.226 368.272 23.404 368.296 23.522 368.346C23.639 368.395 23.738 368.457 23.818 368.531C23.924 368.624 24.002 368.723 24.055 368.828C24.108 368.933 24.151 369.011 24.185 369.06C24.219 369.11 24.275 369.134 24.352 369.134C24.429 369.134 24.496 369.11 24.551 369.06L24.709 368.902C25.16 368.482 25.612 368.272 26.063 368.272C26.861 368.272 27.519 368.599 28.039 369.255C28.088 369.323 28.15 369.357 28.224 369.357C28.354 369.357 28.486 369.256 28.619 369.055C28.752 368.854 28.966 368.674 29.263 368.513C29.56 368.352 29.906 368.272 30.302 368.272C30.698 368.272 31.058 368.344 31.383 368.49C31.707 368.635 31.99 368.834 32.231 369.088C32.738 369.62 32.992 370.263 32.992 371.017V374.912C32.992 375.382 32.769 375.713 32.324 375.905C32.188 375.967 32.044 375.998 31.893 375.998C31.741 375.998 31.599 375.97 31.466 375.914C31.333 375.858 31.217 375.781 31.118 375.682C30.908 375.46 30.803 375.203 30.803 374.912V371.045C30.803 370.736 30.726 370.504 30.571 370.349C30.299 370.077 30.049 369.941 29.82 369.941C29.591 369.941 29.412 369.971 29.282 370.029C29.152 370.088 29.034 370.17 28.929 370.275C28.713 370.492 28.605 370.742 28.605 371.026V374.912C28.605 375.382 28.385 375.713 27.946 375.905C27.81 375.967 27.666 375.998 27.515 375.998C27.363 375.998 27.22 375.97 27.083 375.914C26.947 375.858 26.83 375.781 26.731 375.682C26.515 375.466 26.406 375.209 26.406 374.912V371.045C26.406 370.736 26.329 370.504 26.174 370.349C25.902 370.077 25.618 369.941 25.321 369.941C24.826 369.941 24.483 370.133 24.292 370.516C24.23 370.64 24.199 370.779 24.199 370.934V374.912C24.199 375.215 24.118 375.444 23.958 375.599ZM35.219 369.387C35.219 369.084 35.296 368.849 35.451 368.682C35.716 368.41 36.01 368.274 36.332 368.274C36.641 368.274 36.87 368.355 37.018 368.515C37.29 368.794 37.426 369.084 37.426 369.387V374.915C37.426 375.212 37.349 375.437 37.194 375.592C36.922 375.864 36.672 376 36.443 376C36.214 376 36.032 375.971 35.896 375.912C35.76 375.853 35.642 375.777 35.543 375.685C35.327 375.474 35.219 375.218 35.219 374.915V369.387ZM36.327 365.9C36.065 365.9 35.852 365.687 35.852 365.425C35.852 365.162 36.065 364.95 36.327 364.95C36.589 364.95 36.802 365.162 36.802 365.425C36.802 365.687 36.589 365.9 36.327 365.9ZM36.327 364C36.714 364 37.048 364.142 37.329 364.425C37.611 364.709 37.752 364.996 37.752 365.287C37.752 365.577 37.713 365.807 37.635 365.978C37.558 366.148 37.456 366.297 37.329 366.424C37.048 366.708 36.714 366.849 36.327 366.849C35.94 366.849 35.606 366.708 35.324 366.424C35.043 366.141 34.902 365.857 34.902 365.574C34.902 365.092 35.043 364.709 35.324 364.425C35.606 364.142 35.94 364 36.327 364Z" fill="#1D3557"/>
</g>
<path d="M20.5832 17.2894C20.5832 17.4434 20.6602 17.5644 20.8142 17.6524C20.9755 17.7404 21.2249 17.8357 21.5622 17.9384C21.9655 18.0704 22.2955 18.1987 22.5522 18.3234C22.8162 18.448 23.0435 18.6424 23.2342 18.9064C23.4322 19.1704 23.5312 19.515 23.5312 19.9404C23.5312 21.3044 22.6439 21.9864 20.8692 21.9864C20.5759 21.9864 20.2165 21.9607 19.7912 21.9094C19.3732 21.858 18.9919 21.792 18.6472 21.7114C18.6619 21.5574 18.6912 21.3337 18.7352 21.0404C18.7865 20.7397 18.8342 20.516 18.8782 20.3694C19.1349 20.406 19.5199 20.45 20.0332 20.5014C20.5539 20.5527 20.9462 20.5784 21.2102 20.5784C21.3642 20.5784 21.4559 20.5674 21.4852 20.5454C21.5292 20.516 21.5622 20.4684 21.5842 20.4024C21.6135 20.329 21.6282 20.2667 21.6282 20.2154C21.6282 20.0687 21.5585 19.9587 21.4192 19.8854C21.2799 19.8047 21.0415 19.7094 20.7042 19.5994C20.3009 19.4747 19.9672 19.3464 19.7032 19.2144C19.4392 19.0824 19.2082 18.877 19.0102 18.5984C18.8122 18.3197 18.7132 17.953 18.7132 17.4984C18.7132 17.1757 18.7865 16.8604 18.9332 16.5524C19.0799 16.237 19.2302 16.0244 19.3842 15.9144C19.5015 15.8337 19.7435 15.7567 20.1102 15.6834C20.4769 15.61 20.8215 15.5734 21.1442 15.5734C21.9655 15.5734 22.6365 15.6504 23.1572 15.8044C23.1499 15.951 23.1242 16.1527 23.0802 16.4094C23.0435 16.666 23.0032 16.9007 22.9592 17.1134L22.7062 17.1024C21.7529 17.0364 21.1442 17.0034 20.8802 17.0034C20.7702 17.0034 20.7079 17.007 20.6932 17.0144C20.6639 17.029 20.6382 17.062 20.6162 17.1134C20.5942 17.1647 20.5832 17.2234 20.5832 17.2894ZM24.8143 18.2464H28.1143V19.8194H24.8143V18.2464ZM33.2201 15.5954H35.3101L33.6161 21.8654H30.7451L29.0401 15.5954H31.1411L32.1531 20.5014H32.2081L33.2201 15.5954ZM42.2766 15.5954V19.1044C42.2766 19.8304 42.1959 20.3987 42.0346 20.8094C41.8806 21.2127 41.5872 21.5097 41.1546 21.7004C40.7219 21.891 40.0912 21.9864 39.2626 21.9864C38.6539 21.9864 38.1406 21.924 37.7226 21.7994C37.3046 21.6674 36.9709 21.4217 36.7216 21.0624C36.4796 20.703 36.3586 20.197 36.3586 19.5444V15.5954H38.3386V19.1264C38.3386 19.515 38.3569 19.812 38.3936 20.0174C38.4376 20.2154 38.5329 20.3694 38.6796 20.4794C38.8262 20.582 39.0499 20.6334 39.3506 20.6334C39.5339 20.6334 39.7062 20.615 39.8676 20.5784C40.0289 20.5417 40.1389 20.4867 40.1976 20.4134C40.2636 20.3254 40.2966 20.0064 40.2966 19.4564V15.5954H42.2766Z" fill="white"/>
<path d="M47.1856 49.9H12.8144C11.26 49.9 10 51.16 10 52.7144V237.086C10 238.64 11.26 239.9 12.8144 239.9H47.1856C48.74 239.9 50 238.64 50 237.086V52.7144C50 51.16 48.74 49.9 47.1856 49.9Z" fill="#36617C"/>
<path d="M12.2939 264.996V259.664H10.9854V264.996H12.2939ZM15.6064 264.996V261.749H15.6553L17.9697 264.996H19.0098V259.664H17.7842V262.881H17.7354L15.4307 259.664H14.3857V264.996H15.6064Z" fill="white"/>
<path d="M38.4336 265.098C40.0205 265.098 40.9238 264.126 40.9238 262.637V262.036C40.9238 260.542 40.0156 259.57 38.4287 259.57C36.8467 259.57 35.9385 260.537 35.9385 262.036V262.637C35.9385 264.126 36.8516 265.098 38.4336 265.098ZM38.4336 264.077C37.7061 264.077 37.2715 263.535 37.2715 262.642V262.021C37.2715 261.128 37.7061 260.591 38.4336 260.591C39.1562 260.591 39.5908 261.128 39.5908 262.021V262.642C39.5908 263.535 39.1562 264.077 38.4336 264.077ZM45.0713 264.048C44.4609 264.048 44.0361 263.687 44.0361 262.998V259.668H42.7227V263.145C42.7227 264.336 43.626 265.098 45.0713 265.098C46.5166 265.098 47.4199 264.331 47.4199 263.145V259.668H46.1113V262.998C46.1113 263.682 45.6816 264.048 45.0713 264.048ZM51.792 265V260.688H53.3398V259.668H48.9355V260.688H50.4834V265H51.792Z" fill="white"/>
<rect x="26.5" y="334.5" width="7" height="7" rx="1" fill="white"/>
<path d="M32.5106 340.5H30.8096L30.5036 339.204C30.4916 339.156 30.4706 339.075 30.4406 338.961C30.4166 338.841 30.3866 338.754 30.3506 338.7C30.3146 338.64 30.2636 338.601 30.1976 338.583C30.0296 338.589 29.7836 338.592 29.4596 338.592V340.5H27.8396V335.415C28.5656 335.361 29.2436 335.334 29.8736 335.334C30.4436 335.334 30.9056 335.382 31.2596 335.478C31.6136 335.568 31.8776 335.727 32.0516 335.955C32.2316 336.177 32.3216 336.483 32.3216 336.873C32.3216 337.239 32.2376 337.527 32.0696 337.737C31.9016 337.941 31.6316 338.064 31.2596 338.106V338.16C31.4696 338.178 31.6436 338.247 31.7816 338.367C31.9256 338.481 32.0216 338.628 32.0696 338.808L32.5106 340.5ZM29.4596 337.575C29.5136 337.581 29.6186 337.584 29.7746 337.584C30.2366 337.584 30.5066 337.545 30.5846 337.467C30.6566 337.395 30.6926 337.227 30.6926 336.963C30.6926 336.717 30.6266 336.549 30.4946 336.459C30.3686 336.369 30.1586 336.324 29.8646 336.324C29.7986 336.324 29.6636 336.33 29.4596 336.342V337.575Z" fill="#457B9D"/>
<rect x="26.5" y="294.5" width="7" height="7" rx="1" fill="white"/>
<path d="M28.2919 295.37H29.9119V299.312H32.0089V300.5H28.2919V295.37Z" fill="#457B9D"/>
</svg>
