<svg width="60" height="380" viewBox="0 0 60 380" fill="none" xmlns="http://www.w3.org/2000/svg">
<rect width="60" height="380" fill="#457B9D"/>
<g opacity="0.5">
<path fill-rule="evenodd" clip-rule="evenodd" d="M23.958 375.599C23.803 375.747 23.659 375.851 23.526 375.909C23.393 375.968 23.251 375.998 23.1 375.998C22.948 375.998 22.806 375.97 22.673 375.914C22.54 375.858 22.424 375.781 22.325 375.682C22.109 375.466 22 375.209 22 374.912V369.385C22 369.082 22.078 368.847 22.232 368.68C22.498 368.408 22.75 368.272 22.988 368.272C23.226 368.272 23.404 368.296 23.522 368.346C23.639 368.395 23.738 368.457 23.818 368.531C23.924 368.624 24.002 368.723 24.055 368.828C24.108 368.933 24.151 369.011 24.185 369.06C24.219 369.11 24.275 369.134 24.352 369.134C24.429 369.134 24.496 369.11 24.551 369.06L24.709 368.902C25.16 368.482 25.612 368.272 26.063 368.272C26.861 368.272 27.519 368.599 28.039 369.255C28.088 369.323 28.15 369.357 28.224 369.357C28.354 369.357 28.486 369.256 28.619 369.055C28.752 368.854 28.966 368.674 29.263 368.513C29.56 368.352 29.906 368.272 30.302 368.272C30.698 368.272 31.058 368.344 31.383 368.49C31.707 368.635 31.99 368.834 32.231 369.088C32.738 369.62 32.992 370.263 32.992 371.017V374.912C32.992 375.382 32.769 375.713 32.324 375.905C32.188 375.967 32.044 375.998 31.893 375.998C31.741 375.998 31.599 375.97 31.466 375.914C31.333 375.858 31.217 375.781 31.118 375.682C30.908 375.46 30.803 375.203 30.803 374.912V371.045C30.803 370.736 30.726 370.504 30.571 370.349C30.299 370.077 30.049 369.941 29.82 369.941C29.591 369.941 29.412 369.971 29.282 370.029C29.152 370.088 29.034 370.17 28.929 370.275C28.713 370.492 28.605 370.742 28.605 371.026V374.912C28.605 375.382 28.385 375.713 27.946 375.905C27.81 375.967 27.666 375.998 27.515 375.998C27.363 375.998 27.22 375.97 27.083 375.914C26.947 375.858 26.83 375.781 26.731 375.682C26.515 375.466 26.406 375.209 26.406 374.912V371.045C26.406 370.736 26.329 370.504 26.174 370.349C25.902 370.077 25.618 369.941 25.321 369.941C24.826 369.941 24.483 370.133 24.292 370.516C24.23 370.64 24.199 370.779 24.199 370.934V374.912C24.199 375.215 24.118 375.444 23.958 375.599ZM35.219 369.387C35.219 369.084 35.296 368.849 35.451 368.682C35.716 368.41 36.01 368.274 36.332 368.274C36.641 368.274 36.87 368.355 37.018 368.515C37.29 368.794 37.426 369.084 37.426 369.387V374.915C37.426 375.212 37.349 375.437 37.194 375.592C36.922 375.864 36.672 376 36.443 376C36.214 376 36.032 375.971 35.896 375.912C35.76 375.853 35.642 375.777 35.543 375.685C35.327 375.474 35.219 375.218 35.219 374.915V369.387ZM36.327 365.9C36.065 365.9 35.852 365.687 35.852 365.425C35.852 365.162 36.065 364.95 36.327 364.95C36.589 364.95 36.802 365.162 36.802 365.425C36.802 365.687 36.589 365.9 36.327 365.9ZM36.327 364C36.714 364 37.048 364.142 37.329 364.425C37.611 364.709 37.752 364.996 37.752 365.287C37.752 365.577 37.713 365.807 37.635 365.978C37.558 366.148 37.456 366.297 37.329 366.424C37.048 366.708 36.714 366.849 36.327 366.849C35.94 366.849 35.606 366.708 35.324 366.424C35.043 366.141 34.902 365.857 34.902 365.574C34.902 365.092 35.043 364.709 35.324 364.425C35.606 364.142 35.94 364 36.327 364Z" fill="#1D3557"/>
</g>
<path d="M20.5817 17.8734C20.5817 18.0414 20.6657 18.1734 20.8337 18.2694C21.0097 18.3654 21.2817 18.4694 21.6497 18.5814C22.0897 18.7254 22.4497 18.8654 22.7297 19.0014C23.0177 19.1374 23.2657 19.3494 23.4737 19.6374C23.6897 19.9254 23.7977 20.3014 23.7977 20.7654C23.7977 22.2534 22.8297 22.9974 20.8937 22.9974C20.5737 22.9974 20.1817 22.9694 19.7177 22.9134C19.2617 22.8574 18.8457 22.7854 18.4697 22.6974C18.4857 22.5294 18.5177 22.2854 18.5657 21.9654C18.6217 21.6374 18.6737 21.3934 18.7217 21.2334C19.0017 21.2734 19.4217 21.3214 19.9817 21.3774C20.5497 21.4334 20.9777 21.4614 21.2657 21.4614C21.4337 21.4614 21.5337 21.4494 21.5657 21.4254C21.6137 21.3934 21.6497 21.3414 21.6737 21.2694C21.7057 21.1894 21.7217 21.1214 21.7217 21.0654C21.7217 20.9054 21.6457 20.7854 21.4937 20.7054C21.3417 20.6174 21.0817 20.5134 20.7137 20.3934C20.2737 20.2574 19.9097 20.1174 19.6217 19.9734C19.3337 19.8294 19.0817 19.6054 18.8657 19.3014C18.6497 18.9974 18.5417 18.5974 18.5417 18.1014C18.5417 17.7494 18.6217 17.4054 18.7817 17.0694C18.9417 16.7254 19.1057 16.4934 19.2737 16.3734C19.4017 16.2854 19.6657 16.2014 20.0657 16.1214C20.4657 16.0414 20.8417 16.0014 21.1937 16.0014C22.0897 16.0014 22.8217 16.0854 23.3897 16.2534C23.3817 16.4134 23.3537 16.6334 23.3057 16.9134C23.2657 17.1934 23.2217 17.4494 23.1737 17.6814L22.8977 17.6694C21.8577 17.5974 21.1937 17.5614 20.9057 17.5614C20.7857 17.5614 20.7177 17.5654 20.7017 17.5734C20.6697 17.5894 20.6417 17.6254 20.6177 17.6814C20.5937 17.7374 20.5817 17.8014 20.5817 17.8734ZM24.5975 18.9174H28.1975V20.6334H24.5975V18.9174ZM33.1674 16.0254H35.4474L33.5994 22.8654H30.4674L28.6074 16.0254H30.8994L32.0034 21.3774H32.0634L33.1674 16.0254ZM42.4472 16.0254V19.8534C42.4472 20.6454 42.3592 21.2654 42.1832 21.7134C42.0152 22.1534 41.6952 22.4774 41.2232 22.6854C40.7512 22.8934 40.0632 22.9974 39.1592 22.9974C38.4952 22.9974 37.9352 22.9294 37.4792 22.7934C37.0232 22.6494 36.6592 22.3814 36.3872 21.9894C36.1232 21.5974 35.9912 21.0454 35.9912 20.3334V16.0254H38.1512V19.8774C38.1512 20.3014 38.1712 20.6254 38.2112 20.8494C38.2592 21.0654 38.3632 21.2334 38.5232 21.3534C38.6832 21.4654 38.9272 21.5214 39.2552 21.5214C39.4552 21.5214 39.6432 21.5014 39.8192 21.4614C39.9952 21.4214 40.1152 21.3614 40.1792 21.2814C40.2512 21.1854 40.2872 20.8374 40.2872 20.2374V16.0254H42.4472Z" fill="#A8DADC"/>
<path d="M47.1856 59.9H12.8144C11.26 59.9 10 61.16 10 62.7144V247.086C10 248.64 11.26 249.9 12.8144 249.9H47.1856C48.74 249.9 50 248.64 50 247.086V62.7144C50 61.16 48.74 59.9 47.1856 59.9Z" fill="#36617C"/>
<path d="M11.7553 259.792C11.4833 259.792 11.2473 259.7 11.0473 259.516C10.8553 259.332 10.7593 259.112 10.7593 258.856C10.7593 258.6 10.8553 258.38 11.0473 258.196C11.2473 258.012 11.4833 257.92 11.7553 257.92C12.0273 257.92 12.2593 258.012 12.4513 258.196C12.6433 258.38 12.7393 258.6 12.7393 258.856C12.7393 259.112 12.6433 259.332 12.4513 259.516C12.2593 259.7 12.0273 259.792 11.7553 259.792ZM10.7233 260.476H12.7753V265.996H10.7233V260.476ZM19.1328 260.824C19.2048 260.912 19.2568 261.132 19.2888 261.484C19.3288 261.836 19.3488 262.372 19.3488 263.092V265.996H17.2968V263.116V262.624C17.2968 262.368 17.2768 262.208 17.2368 262.144C17.1728 262.064 17.0248 262.024 16.7928 262.024C16.6808 262.024 16.5968 262.028 16.5408 262.036C16.3168 262.044 16.0848 262.096 15.8448 262.192V265.996H13.7928V260.476H15.4608L15.6888 261.4C16.2648 260.704 16.9528 260.356 17.7528 260.356C18.0408 260.356 18.3088 260.396 18.5568 260.476C18.8128 260.556 19.0048 260.672 19.1328 260.824Z" fill="#A8DADC"/>
<path d="M38.5886 266.156C37.6286 266.156 36.9086 265.932 36.4286 265.484C35.9566 265.028 35.7206 264.312 35.7206 263.336C35.7206 262.8 35.7686 262.332 35.8646 261.932C35.9686 261.524 36.0926 261.24 36.2366 261.08C36.4206 260.872 36.7566 260.7 37.2446 260.564C37.7406 260.428 38.2046 260.36 38.6366 260.36C39.6686 260.36 40.4046 260.58 40.8446 261.02C41.2846 261.46 41.5046 262.164 41.5046 263.132C41.5046 264.172 41.2686 264.936 40.7966 265.424C40.3246 265.912 39.5886 266.156 38.5886 266.156ZM38.6246 264.752C38.9366 264.752 39.1406 264.644 39.2366 264.428C39.3326 264.204 39.3806 263.812 39.3806 263.252C39.3806 262.86 39.3606 262.56 39.3206 262.352C39.2806 262.136 39.2046 261.98 39.0926 261.884C38.9886 261.78 38.8246 261.728 38.6006 261.728C38.2806 261.728 38.0966 261.756 38.0486 261.812C37.9846 261.868 37.9326 262.044 37.8926 262.34C37.8526 262.636 37.8326 262.944 37.8326 263.264C37.8326 263.808 37.8846 264.192 37.9886 264.416C38.1006 264.64 38.3126 264.752 38.6246 264.752ZM47.8079 260.48V266H46.1399L45.9119 265.076C45.3359 265.772 44.6479 266.12 43.8479 266.12C43.5599 266.12 43.2879 266.08 43.0319 266C42.7839 265.92 42.5959 265.804 42.4679 265.652C42.3959 265.564 42.3399 265.344 42.2999 264.992C42.2679 264.64 42.2519 264.104 42.2519 263.384V260.48H44.3039V263.36C44.3039 263.52 44.3079 263.708 44.3159 263.924C44.3239 264.14 44.3479 264.276 44.3879 264.332C44.4439 264.412 44.6039 264.452 44.8679 264.452L45.0599 264.44C45.2839 264.432 45.5159 264.38 45.7559 264.284V260.48H47.8079ZM51.3358 263.732C51.3358 263.876 51.3398 264.028 51.3478 264.188C51.3558 264.34 51.3798 264.436 51.4198 264.476C51.4758 264.532 51.6718 264.56 52.0078 264.56L52.4158 264.548C52.4878 264.932 52.5238 265.376 52.5238 265.88C52.3718 265.936 52.1478 265.988 51.8518 266.036C51.5638 266.084 51.2878 266.108 51.0238 266.108C50.4718 266.108 50.0438 265.988 49.7398 265.748C49.4438 265.5 49.2958 265.12 49.2958 264.608V261.656H48.3958V260.564L49.2958 260.48L49.8358 259.16L51.3358 259.076V260.48H52.6078V261.656H51.3358V263.732Z" fill="#A8DADC"/>
<rect x="12" y="336" width="6" height="6" rx="1" fill="#A8DADC"/>
<path d="M17.2317 341.25H15.7197L15.4477 340.098C15.437 340.055 15.4184 339.983 15.3917 339.882C15.3704 339.775 15.3437 339.698 15.3117 339.65C15.2797 339.597 15.2344 339.562 15.1757 339.546C15.0264 339.551 14.8077 339.554 14.5197 339.554V341.25H13.0797V336.73C13.725 336.682 14.3277 336.658 14.8877 336.658C15.3944 336.658 15.805 336.701 16.1197 336.786C16.4344 336.866 16.669 337.007 16.8237 337.21C16.9837 337.407 17.0637 337.679 17.0637 338.026C17.0637 338.351 16.989 338.607 16.8397 338.794C16.6904 338.975 16.4504 339.085 16.1197 339.122V339.17C16.3064 339.186 16.461 339.247 16.5837 339.354C16.7117 339.455 16.797 339.586 16.8397 339.746L17.2317 341.25ZM14.5197 338.65C14.5677 338.655 14.661 338.658 14.7997 338.658C15.2104 338.658 15.4504 338.623 15.5197 338.554C15.5837 338.49 15.6157 338.341 15.6157 338.106C15.6157 337.887 15.557 337.738 15.4397 337.658C15.3277 337.578 15.141 337.538 14.8797 337.538C14.821 337.538 14.701 337.543 14.5197 337.554V338.65Z" fill="#457B9D"/>
<rect x="12" y="296" width="6" height="6" rx="1" fill="#A8DADC"/>
<path d="M13.4817 296.69H14.9217V300.194H16.7857V301.25H13.4817V296.69Z" fill="#457B9D"/>
<rect x="42" y="336" width="6" height="6" rx="1" fill="#A8DADC"/>
<path d="M47.2317 341.25H45.7197L45.4477 340.098C45.437 340.055 45.4184 339.983 45.3917 339.882C45.3704 339.775 45.3437 339.698 45.3117 339.65C45.2797 339.597 45.2344 339.562 45.1757 339.546C45.0264 339.551 44.8077 339.554 44.5197 339.554V341.25H43.0797V336.73C43.725 336.682 44.3277 336.658 44.8877 336.658C45.3944 336.658 45.805 336.701 46.1197 336.786C46.4344 336.866 46.669 337.007 46.8237 337.21C46.9837 337.407 47.0637 337.679 47.0637 338.026C47.0637 338.351 46.989 338.607 46.8397 338.794C46.6904 338.975 46.4504 339.085 46.1197 339.122V339.17C46.3064 339.186 46.461 339.247 46.5837 339.354C46.7117 339.455 46.797 339.586 46.8397 339.746L47.2317 341.25ZM44.5197 338.65C44.5677 338.655 44.661 338.658 44.7997 338.658C45.2104 338.658 45.4504 338.623 45.5197 338.554C45.5837 338.49 45.6157 338.341 45.6157 338.106C45.6157 337.887 45.557 337.738 45.4397 337.658C45.3277 337.578 45.141 337.538 44.8797 337.538C44.821 337.538 44.701 337.543 44.5197 337.554V338.65Z" fill="#457B9D"/>
<rect x="42" y="296" width="6" height="6" rx="1" fill="#A8DADC"/>
<path d="M43.4817 296.69H44.9217V300.194H46.7857V301.25H43.4817V296.69Z" fill="#457B9D"/>
</svg>
