<svg width="91" height="380" viewBox="0 0 91 380" fill="none" xmlns="http://www.w3.org/2000/svg">
<rect x="0.5" width="90" height="380" fill="#457B9D"/>
<g opacity="0.3">
<path fill-rule="evenodd" clip-rule="evenodd" d="M39.458 375.599C39.303 375.747 39.159 375.851 39.026 375.909C38.893 375.968 38.751 375.998 38.6 375.998C38.448 375.998 38.306 375.97 38.173 375.914C38.04 375.858 37.924 375.781 37.825 375.682C37.609 375.466 37.5 375.209 37.5 374.912V369.385C37.5 369.082 37.578 368.847 37.732 368.68C37.998 368.408 38.25 368.272 38.488 368.272C38.726 368.272 38.904 368.296 39.022 368.346C39.139 368.395 39.238 368.457 39.318 368.531C39.424 368.624 39.502 368.723 39.555 368.828C39.608 368.933 39.651 369.011 39.685 369.06C39.719 369.11 39.775 369.134 39.852 369.134C39.929 369.134 39.996 369.11 40.051 369.06L40.209 368.902C40.66 368.482 41.112 368.272 41.563 368.272C42.361 368.272 43.019 368.599 43.539 369.255C43.588 369.323 43.65 369.357 43.724 369.357C43.854 369.357 43.986 369.256 44.119 369.055C44.252 368.854 44.466 368.674 44.763 368.513C45.06 368.352 45.406 368.272 45.802 368.272C46.198 368.272 46.558 368.344 46.883 368.49C47.207 368.635 47.49 368.834 47.731 369.088C48.238 369.62 48.492 370.263 48.492 371.017V374.912C48.492 375.382 48.269 375.713 47.824 375.905C47.688 375.967 47.544 375.998 47.393 375.998C47.241 375.998 47.099 375.97 46.966 375.914C46.833 375.858 46.717 375.781 46.618 375.682C46.408 375.46 46.303 375.203 46.303 374.912V371.045C46.303 370.736 46.226 370.504 46.071 370.349C45.799 370.077 45.549 369.941 45.32 369.941C45.091 369.941 44.912 369.971 44.782 370.029C44.652 370.088 44.534 370.17 44.429 370.275C44.213 370.492 44.105 370.742 44.105 371.026V374.912C44.105 375.382 43.885 375.713 43.446 375.905C43.31 375.967 43.166 375.998 43.015 375.998C42.863 375.998 42.72 375.97 42.583 375.914C42.447 375.858 42.33 375.781 42.231 375.682C42.015 375.466 41.906 375.209 41.906 374.912V371.045C41.906 370.736 41.829 370.504 41.674 370.349C41.402 370.077 41.118 369.941 40.821 369.941C40.326 369.941 39.983 370.133 39.792 370.516C39.73 370.64 39.699 370.779 39.699 370.934V374.912C39.699 375.215 39.618 375.444 39.458 375.599ZM50.719 369.387C50.719 369.084 50.796 368.849 50.951 368.682C51.216 368.41 51.51 368.274 51.832 368.274C52.141 368.274 52.37 368.355 52.518 368.515C52.79 368.794 52.926 369.084 52.926 369.387V374.915C52.926 375.212 52.849 375.437 52.694 375.592C52.422 375.864 52.172 376 51.943 376C51.714 376 51.532 375.971 51.396 375.912C51.26 375.853 51.142 375.777 51.043 375.685C50.827 375.474 50.719 375.218 50.719 374.915V369.387ZM51.827 365.9C51.565 365.9 51.352 365.687 51.352 365.425C51.352 365.162 51.565 364.95 51.827 364.95C52.089 364.95 52.302 365.162 52.302 365.425C52.302 365.687 52.089 365.9 51.827 365.9ZM51.827 364C52.214 364 52.548 364.142 52.829 364.425C53.111 364.709 53.252 364.996 53.252 365.287C53.252 365.577 53.213 365.807 53.135 365.978C53.058 366.148 52.956 366.297 52.829 366.424C52.548 366.708 52.214 366.849 51.827 366.849C51.44 366.849 51.106 366.708 50.824 366.424C50.543 366.141 50.402 365.857 50.402 365.574C50.402 365.092 50.543 364.709 50.824 364.425C51.106 364.142 51.44 364 51.827 364Z" fill="#1D3557"/>
</g>
<path d="M16.171 17.2894C16.171 17.4434 16.248 17.5644 16.402 17.6524C16.5633 17.7404 16.8127 17.8357 17.15 17.9384C17.5533 18.0704 17.8833 18.1987 18.14 18.3234C18.404 18.448 18.6313 18.6424 18.822 18.9064C19.02 19.1704 19.119 19.515 19.119 19.9404C19.119 21.3044 18.2317 21.9864 16.457 21.9864C16.1637 21.9864 15.8043 21.9607 15.379 21.9094C14.961 21.858 14.5797 21.792 14.235 21.7114C14.2497 21.5574 14.279 21.3337 14.323 21.0404C14.3743 20.7397 14.422 20.516 14.466 20.3694C14.7227 20.406 15.1077 20.45 15.621 20.5014C16.1417 20.5527 16.534 20.5784 16.798 20.5784C16.952 20.5784 17.0437 20.5674 17.073 20.5454C17.117 20.516 17.15 20.4684 17.172 20.4024C17.2013 20.329 17.216 20.2667 17.216 20.2154C17.216 20.0687 17.1463 19.9587 17.007 19.8854C16.8677 19.8047 16.6293 19.7094 16.292 19.5994C15.8887 19.4747 15.555 19.3464 15.291 19.2144C15.027 19.0824 14.796 18.877 14.598 18.5984C14.4 18.3197 14.301 17.953 14.301 17.4984C14.301 17.1757 14.3743 16.8604 14.521 16.5524C14.6677 16.237 14.818 16.0244 14.972 15.9144C15.0893 15.8337 15.3313 15.7567 15.698 15.6834C16.0647 15.61 16.4093 15.5734 16.732 15.5734C17.5533 15.5734 18.2243 15.6504 18.745 15.8044C18.7377 15.951 18.712 16.1527 18.668 16.4094C18.6313 16.666 18.591 16.9007 18.547 17.1134L18.294 17.1024C17.3407 17.0364 16.732 17.0034 16.468 17.0034C16.358 17.0034 16.2957 17.007 16.281 17.0144C16.2517 17.029 16.226 17.062 16.204 17.1134C16.182 17.1647 16.171 17.2234 16.171 17.2894ZM26.4411 15.5954V19.1044C26.4411 19.8304 26.3605 20.3987 26.1991 20.8094C26.0451 21.2127 25.7518 21.5097 25.3191 21.7004C24.8865 21.891 24.2558 21.9864 23.4271 21.9864C22.8185 21.9864 22.3051 21.924 21.8871 21.7994C21.4691 21.6674 21.1355 21.4217 20.8861 21.0624C20.6441 20.703 20.5231 20.197 20.5231 19.5444V15.5954H22.5031V19.1264C22.5031 19.515 22.5215 19.812 22.5581 20.0174C22.6021 20.2154 22.6975 20.3694 22.8441 20.4794C22.9908 20.582 23.2145 20.6334 23.5151 20.6334C23.6985 20.6334 23.8708 20.615 24.0321 20.5784C24.1935 20.5417 24.3035 20.4867 24.3621 20.4134C24.4281 20.3254 24.4611 20.0064 24.4611 19.4564V15.5954H26.4411ZM30.5654 15.5624C31.1594 15.5624 31.6617 15.6174 32.0724 15.7274C32.483 15.8374 32.8094 16.05 33.0514 16.3654C33.3007 16.6734 33.4254 17.117 33.4254 17.6964C33.4254 17.953 33.385 18.217 33.3044 18.4884C33.231 18.7524 33.1357 18.9834 33.0184 19.1814C32.9084 19.3794 32.8094 19.5077 32.7214 19.5664C32.6187 19.6397 32.3914 19.6984 32.0394 19.7424C31.6874 19.779 31.273 19.7974 30.7964 19.7974C30.6277 19.7974 30.3674 19.79 30.0154 19.7754V21.8654H28.0354V15.5954C28.8054 15.5734 29.6487 15.5624 30.5654 15.5624ZM31.3904 18.3894C31.4637 18.294 31.5004 18.1034 31.5004 17.8174C31.5004 17.4434 31.4197 17.1794 31.2584 17.0254C31.1044 16.8714 30.833 16.7944 30.4444 16.7944C30.3124 16.7944 30.1694 16.8054 30.0154 16.8274V18.4994C30.0887 18.5067 30.2317 18.5104 30.4444 18.5104C31.009 18.5104 31.3244 18.47 31.3904 18.3894ZM34.6212 15.5954H39.1862V16.9154H36.6012V18.0594H38.7792V19.2474H36.6012V20.5234H39.1752V21.8654H34.6212V15.5954ZM46.2848 21.8654H44.2058L43.8318 20.2814C43.8171 20.2227 43.7914 20.1237 43.7548 19.9844C43.7254 19.8377 43.6888 19.7314 43.6448 19.6654C43.6008 19.592 43.5384 19.5444 43.4578 19.5224C43.2524 19.5297 42.9518 19.5334 42.5558 19.5334V21.8654H40.5758V15.6504C41.4631 15.5844 42.2918 15.5514 43.0618 15.5514C43.7584 15.5514 44.3231 15.61 44.7558 15.7274C45.1884 15.8374 45.5111 16.0317 45.7238 16.3104C45.9438 16.5817 46.0538 16.9557 46.0538 17.4324C46.0538 17.8797 45.9511 18.2317 45.7458 18.4884C45.5404 18.7377 45.2104 18.888 44.7558 18.9394V19.0054C45.0124 19.0274 45.2251 19.1117 45.3938 19.2584C45.5698 19.3977 45.6871 19.5774 45.7458 19.7974L46.2848 21.8654ZM42.5558 18.2904C42.6218 18.2977 42.7501 18.3014 42.9408 18.3014C43.5054 18.3014 43.8354 18.2537 43.9308 18.1584C44.0188 18.0704 44.0628 17.865 44.0628 17.5424C44.0628 17.2417 43.9821 17.0364 43.8208 16.9264C43.6668 16.8164 43.4101 16.7614 43.0508 16.7614C42.9701 16.7614 42.8051 16.7687 42.5558 16.7834V18.2904ZM49.7066 15.5954C50.5646 15.5954 51.265 15.676 51.8076 15.8374C52.3576 15.9987 52.783 16.303 53.0836 16.7504C53.3916 17.1977 53.5456 17.8394 53.5456 18.6754C53.5456 19.57 53.3843 20.252 53.0616 20.7214C52.739 21.1834 52.3063 21.4914 51.7636 21.6454C51.221 21.792 50.5353 21.8654 49.7066 21.8654H47.5066V15.5954H49.7066ZM51.1806 20.3694C51.2686 20.2814 51.331 20.054 51.3676 19.6874C51.4043 19.3207 51.4226 18.9834 51.4226 18.6754C51.4226 18.2867 51.3933 17.9787 51.3346 17.7514C51.2833 17.5167 51.188 17.3297 51.0486 17.1904C50.8286 16.9484 50.451 16.8274 49.9156 16.8274C49.8203 16.8274 49.6773 16.8347 49.4866 16.8494V20.5014C49.6113 20.516 49.8056 20.5234 50.0696 20.5234C50.341 20.5234 50.5793 20.5124 50.7846 20.4904C50.9973 20.461 51.1293 20.4207 51.1806 20.3694ZM60.6836 21.8654H58.6046L58.2306 20.2814C58.2159 20.2227 58.1903 20.1237 58.1536 19.9844C58.1243 19.8377 58.0876 19.7314 58.0436 19.6654C57.9996 19.592 57.9373 19.5444 57.8566 19.5224C57.6513 19.5297 57.3506 19.5334 56.9546 19.5334V21.8654H54.9746V15.6504C55.8619 15.5844 56.6906 15.5514 57.4606 15.5514C58.1573 15.5514 58.7219 15.61 59.1546 15.7274C59.5873 15.8374 59.9099 16.0317 60.1226 16.3104C60.3426 16.5817 60.4526 16.9557 60.4526 17.4324C60.4526 17.8797 60.3499 18.2317 60.1446 18.4884C59.9393 18.7377 59.6093 18.888 59.1546 18.9394V19.0054C59.4113 19.0274 59.6239 19.1117 59.7926 19.2584C59.9686 19.3977 60.0859 19.5774 60.1446 19.7974L60.6836 21.8654ZM56.9546 18.2904C57.0206 18.2977 57.1489 18.3014 57.3396 18.3014C57.9043 18.3014 58.2343 18.2537 58.3296 18.1584C58.4176 18.0704 58.4616 17.865 58.4616 17.5424C58.4616 17.2417 58.3809 17.0364 58.2196 16.9264C58.0656 16.8164 57.8089 16.7614 57.4496 16.7614C57.3689 16.7614 57.2039 16.7687 56.9546 16.7834V18.2904ZM61.9165 15.5954H63.8965V21.8654H61.9165V15.5954ZM69.19 15.5954H71.28L69.586 21.8654H66.715L65.01 15.5954H67.111L68.123 20.5014H68.178L69.19 15.5954ZM72.3284 15.5954H76.8934V16.9154H74.3084V18.0594H76.4864V19.2474H74.3084V20.5234H76.8824V21.8654H72.3284V15.5954Z" fill="white"/>
<rect x="52.495" y="211" width="65" height="28" rx="14" transform="rotate(-90 52.495 211)" fill="#36617C"/>
<path d="M48.4589 140H50.954C52.0819 140 52.9169 139.443 52.9169 138.486C52.9169 137.666 52.2968 137.246 51.6425 137.197V137.144C52.2089 137.036 52.6434 136.641 52.6434 135.981C52.6434 135.166 51.9598 134.668 50.9247 134.668H48.4589V140ZM49.7528 135.571H50.5975C51.0956 135.571 51.3641 135.815 51.3641 136.191C51.3641 136.582 51.0907 136.836 50.4266 136.836H49.7528V135.571ZM49.7528 137.666H50.6659C51.2811 137.666 51.5887 137.949 51.5887 138.389C51.5887 138.823 51.3007 139.102 50.5096 139.102H49.7528V137.666ZM55.9022 140H57.2059V138.086L59.0956 134.668H57.6942L56.5956 136.875H56.5468L55.4481 134.668H54.0126L55.9022 138.115V140ZM64.8446 136.475C64.8446 135.483 64.1561 134.668 62.8866 134.668H60.5331V140H61.8368V138.33H62.8768C64.1464 138.33 64.8446 137.476 64.8446 136.475ZM63.5165 136.504C63.5165 137.041 63.204 137.383 62.662 137.383H61.8319V135.63H62.6132C63.1844 135.63 63.5165 135.947 63.5165 136.504ZM66.9901 140L67.3759 138.75H69.1581L69.5341 140H70.9208L69.0946 134.668H67.5126L65.6815 140H66.9901ZM68.3036 135.801L68.9139 137.842H67.62L68.2401 135.801H68.3036ZM72.1776 138.447C72.1923 139.346 72.91 140.098 74.4384 140.098C75.9423 140.098 76.7382 139.385 76.7382 138.384C76.7382 137.446 76.118 137.036 75.2196 136.86L74.4335 136.709C73.8817 136.597 73.6083 136.436 73.6083 136.123C73.6083 135.781 73.9159 135.522 74.4774 135.522C75.0634 135.522 75.4052 135.815 75.4344 136.187H76.6405C76.6307 135.337 75.8983 134.565 74.4823 134.565C73.1737 134.565 72.2997 135.22 72.2997 136.221C72.2997 137.09 72.8563 137.544 73.8524 137.744L74.5995 137.896C75.1659 138.013 75.4442 138.179 75.4442 138.511C75.4442 138.872 75.1317 139.131 74.4921 139.131C73.8573 139.131 73.4569 138.833 73.4276 138.447H72.1776ZM78.2343 138.447C78.2489 139.346 78.9667 140.098 80.495 140.098C81.9989 140.098 82.7948 139.385 82.7948 138.384C82.7948 137.446 82.1747 137.036 81.2762 136.86L80.4901 136.709C79.9384 136.597 79.6649 136.436 79.6649 136.123C79.6649 135.781 79.9725 135.522 80.5341 135.522C81.12 135.522 81.4618 135.815 81.4911 136.187H82.6971C82.6874 135.337 81.955 134.565 80.5389 134.565C79.2303 134.565 78.3563 135.22 78.3563 136.221C78.3563 137.09 78.913 137.544 79.9091 137.744L80.6561 137.896C81.2225 138.013 81.5009 138.179 81.5009 138.511C81.5009 138.872 81.1884 139.131 80.5487 139.131C79.9139 139.131 79.5135 138.833 79.4843 138.447H78.2343Z" fill="white"/>
<rect x="8.5" y="50" width="30" height="66.1696" rx="15" fill="#36617C"/>
<path d="M14.7002 42.3145C14.7002 40.6348 13.875 39.668 12.1562 39.668H9.97852V45H12.1562C13.8555 45 14.7002 44.0186 14.7002 42.3145ZM13.3623 42.3389C13.3623 43.6475 12.7812 44.0039 11.9414 44.0039H11.2871V40.6641H11.9414C12.9961 40.6641 13.3623 41.3525 13.3623 42.3389ZM18.8672 39.668H16.5137V45H17.7979V43.0811H18.623L19.585 45H21.0352L19.9121 42.9053C20.4004 42.7246 20.9277 42.1875 20.9277 41.4062C20.9277 40.3369 20.166 39.668 18.8672 39.668ZM17.7979 42.1826V40.6201H18.6768C19.2041 40.6201 19.5752 40.8984 19.5752 41.416C19.5752 41.9287 19.2139 42.1826 18.6621 42.1826H17.7979ZM24.0938 45V39.668H22.7852V45H24.0938ZM29.0859 45L30.8828 39.668H29.4326L28.334 43.6719H28.2705L27.1572 39.668H25.6387L27.46 45H29.0859ZM36.1777 44.0039H33.7217V42.7783H36.0264V41.8506H33.7217V40.6641H36.1777V39.668H32.4277V45H36.1777V44.0039Z" fill="white"/>
<rect x="51.4999" y="50" width="30" height="66.1696" rx="15" fill="#36617C"/>
<path d="M57.1787 45V40.6885H58.7266V39.668H54.3223V40.6885H55.8701V45H57.1787ZM62.498 45.0977C64.085 45.0977 64.9883 44.126 64.9883 42.6367V42.0361C64.9883 40.542 64.0801 39.5703 62.4932 39.5703C60.9111 39.5703 60.0029 40.5371 60.0029 42.0361V42.6367C60.0029 44.126 60.916 45.0977 62.498 45.0977ZM62.498 44.0771C61.7705 44.0771 61.3359 43.5352 61.3359 42.6416V42.0215C61.3359 41.1279 61.7705 40.5908 62.498 40.5908C63.2207 40.5908 63.6553 41.1279 63.6553 42.0215V42.6416C63.6553 43.5352 63.2207 44.0771 62.498 44.0771ZM68.0762 45V41.7529H68.125L70.4395 45H71.4795V39.668H70.2539V42.8857H70.2051L67.9004 39.668H66.8555V45H68.0762ZM77.3262 44.0039H74.8701V42.7783H77.1748V41.8506H74.8701V40.6641H77.3262V39.668H73.5762V45H77.3262V44.0039Z" fill="white"/>
<rect x="8.5" y="145" width="30" height="66.1663" rx="15" fill="#36617C"/>
<path d="M17.6769 136.421C17.6427 135.425 16.8273 134.57 15.3771 134.57C13.7853 134.57 12.8966 135.562 12.8966 136.992V137.642C12.8966 139.062 13.673 140.098 15.3624 140.098C16.8566 140.098 17.6818 139.209 17.6818 138.12V137.08H15.4259V137.974H16.4464V138.213C16.4464 138.677 16.0509 139.072 15.382 139.072C14.547 139.072 14.215 138.472 14.215 137.637V137.007C14.215 136.133 14.6154 135.601 15.3673 135.601C15.9825 135.601 16.3536 135.967 16.4073 136.421H17.6769ZM20.3448 140L20.7306 138.75H22.5128L22.8888 140H24.2755L22.4493 134.668H20.8673L19.0363 140H20.3448ZM21.6583 135.801L22.2687 137.842H20.9747L21.5948 135.801H21.6583ZM27.1632 140V134.668H25.8546V140H27.1632ZM30.4757 140V136.753H30.5245L32.839 140H33.879V134.668H32.6534V137.886H32.6046L30.2999 134.668H29.255V140H30.4757Z" fill="white"/>
<path d="M60.4336 286.098C62.0205 286.098 62.9238 285.126 62.9238 283.637V283.036C62.9238 281.542 62.0156 280.57 60.4287 280.57C58.8467 280.57 57.9385 281.537 57.9385 283.036V283.637C57.9385 285.126 58.8516 286.098 60.4336 286.098ZM60.4336 285.077C59.7061 285.077 59.2715 284.535 59.2715 283.642V283.021C59.2715 282.128 59.7061 281.591 60.4336 281.591C61.1562 281.591 61.5908 282.128 61.5908 283.021V283.642C61.5908 284.535 61.1562 285.077 60.4336 285.077ZM67.0713 285.048C66.4609 285.048 66.0361 284.687 66.0361 283.998V280.668H64.7227V284.145C64.7227 285.336 65.626 286.098 67.0713 286.098C68.5166 286.098 69.4199 285.331 69.4199 284.145V280.668H68.1113V283.998C68.1113 284.682 67.6816 285.048 67.0713 285.048ZM73.792 286V281.688H75.3398V280.668H70.9355V281.688H72.4834V286H73.792Z" fill="white"/>
<path d="M20.7939 286V280.668H19.4854V286H20.7939ZM24.1064 286V282.753H24.1553L26.4697 286H27.5098V280.668H26.2842V283.886H26.2354L23.9307 280.668H22.8857V286H24.1064Z" fill="white"/>
</svg>
