<svg width="91" height="380" viewBox="0 0 91 380" fill="none" xmlns="http://www.w3.org/2000/svg">
<rect x="0.5" width="90" height="380" fill="#457B9D"/>
<g opacity="0.5">
<path fill-rule="evenodd" clip-rule="evenodd" d="M39.458 375.599C39.303 375.747 39.159 375.851 39.026 375.909C38.893 375.968 38.751 375.998 38.6 375.998C38.448 375.998 38.306 375.97 38.173 375.914C38.04 375.858 37.924 375.781 37.825 375.682C37.609 375.466 37.5 375.209 37.5 374.912V369.385C37.5 369.082 37.578 368.847 37.732 368.68C37.998 368.408 38.25 368.272 38.488 368.272C38.726 368.272 38.904 368.296 39.022 368.346C39.139 368.395 39.238 368.457 39.318 368.531C39.424 368.624 39.502 368.723 39.555 368.828C39.608 368.933 39.651 369.011 39.685 369.06C39.719 369.11 39.775 369.134 39.852 369.134C39.929 369.134 39.996 369.11 40.051 369.06L40.209 368.902C40.66 368.482 41.112 368.272 41.563 368.272C42.361 368.272 43.019 368.599 43.539 369.255C43.588 369.323 43.65 369.357 43.724 369.357C43.854 369.357 43.986 369.256 44.119 369.055C44.252 368.854 44.466 368.674 44.763 368.513C45.06 368.352 45.406 368.272 45.802 368.272C46.198 368.272 46.558 368.344 46.883 368.49C47.207 368.635 47.49 368.834 47.731 369.088C48.238 369.62 48.492 370.263 48.492 371.017V374.912C48.492 375.382 48.269 375.713 47.824 375.905C47.688 375.967 47.544 375.998 47.393 375.998C47.241 375.998 47.099 375.97 46.966 375.914C46.833 375.858 46.717 375.781 46.618 375.682C46.408 375.46 46.303 375.203 46.303 374.912V371.045C46.303 370.736 46.226 370.504 46.071 370.349C45.799 370.077 45.549 369.941 45.32 369.941C45.091 369.941 44.912 369.971 44.782 370.029C44.652 370.088 44.534 370.17 44.429 370.275C44.213 370.492 44.105 370.742 44.105 371.026V374.912C44.105 375.382 43.885 375.713 43.446 375.905C43.31 375.967 43.166 375.998 43.015 375.998C42.863 375.998 42.72 375.97 42.583 375.914C42.447 375.858 42.33 375.781 42.231 375.682C42.015 375.466 41.906 375.209 41.906 374.912V371.045C41.906 370.736 41.829 370.504 41.674 370.349C41.402 370.077 41.118 369.941 40.821 369.941C40.326 369.941 39.983 370.133 39.792 370.516C39.73 370.64 39.699 370.779 39.699 370.934V374.912C39.699 375.215 39.618 375.444 39.458 375.599ZM50.719 369.387C50.719 369.084 50.796 368.849 50.951 368.682C51.216 368.41 51.51 368.274 51.832 368.274C52.141 368.274 52.37 368.355 52.518 368.515C52.79 368.794 52.926 369.084 52.926 369.387V374.915C52.926 375.212 52.849 375.437 52.694 375.592C52.422 375.864 52.172 376 51.943 376C51.714 376 51.532 375.971 51.396 375.912C51.26 375.853 51.142 375.777 51.043 375.685C50.827 375.474 50.719 375.218 50.719 374.915V369.387ZM51.827 365.9C51.565 365.9 51.352 365.687 51.352 365.425C51.352 365.162 51.565 364.95 51.827 364.95C52.089 364.95 52.302 365.162 52.302 365.425C52.302 365.687 52.089 365.9 51.827 365.9ZM51.827 364C52.214 364 52.548 364.142 52.829 364.425C53.111 364.709 53.252 364.996 53.252 365.287C53.252 365.577 53.213 365.807 53.135 365.978C53.058 366.148 52.956 366.297 52.829 366.424C52.548 366.708 52.214 366.849 51.827 366.849C51.44 366.849 51.106 366.708 50.824 366.424C50.543 366.141 50.402 365.857 50.402 365.574C50.402 365.092 50.543 364.709 50.824 364.425C51.106 364.142 51.44 364 51.827 364Z" fill="#1D3557"/>
</g>
<path d="M16.2047 17.8734C16.2047 18.0414 16.2887 18.1734 16.4567 18.2694C16.6327 18.3654 16.9047 18.4694 17.2727 18.5814C17.7127 18.7254 18.0727 18.8654 18.3527 19.0014C18.6407 19.1374 18.8887 19.3494 19.0967 19.6374C19.3127 19.9254 19.4207 20.3014 19.4207 20.7654C19.4207 22.2534 18.4527 22.9974 16.5167 22.9974C16.1967 22.9974 15.8047 22.9694 15.3407 22.9134C14.8847 22.8574 14.4687 22.7854 14.0927 22.6974C14.1087 22.5294 14.1407 22.2854 14.1887 21.9654C14.2447 21.6374 14.2967 21.3934 14.3447 21.2334C14.6247 21.2734 15.0447 21.3214 15.6047 21.3774C16.1727 21.4334 16.6007 21.4614 16.8887 21.4614C17.0567 21.4614 17.1567 21.4494 17.1887 21.4254C17.2367 21.3934 17.2727 21.3414 17.2967 21.2694C17.3287 21.1894 17.3447 21.1214 17.3447 21.0654C17.3447 20.9054 17.2687 20.7854 17.1167 20.7054C16.9647 20.6174 16.7047 20.5134 16.3367 20.3934C15.8967 20.2574 15.5327 20.1174 15.2447 19.9734C14.9567 19.8294 14.7047 19.6054 14.4887 19.3014C14.2727 18.9974 14.1647 18.5974 14.1647 18.1014C14.1647 17.7494 14.2447 17.4054 14.4047 17.0694C14.5647 16.7254 14.7287 16.4934 14.8967 16.3734C15.0247 16.2854 15.2887 16.2014 15.6887 16.1214C16.0887 16.0414 16.4647 16.0014 16.8167 16.0014C17.7127 16.0014 18.4447 16.0854 19.0127 16.2534C19.0047 16.4134 18.9767 16.6334 18.9287 16.9134C18.8887 17.1934 18.8447 17.4494 18.7967 17.6814L18.5207 17.6694C17.4807 17.5974 16.8167 17.5614 16.5287 17.5614C16.4087 17.5614 16.3407 17.5654 16.3247 17.5734C16.2927 17.5894 16.2647 17.6254 16.2407 17.6814C16.2167 17.7374 16.2047 17.8014 16.2047 17.8734ZM26.8085 16.0254V19.8534C26.8085 20.6454 26.7205 21.2654 26.5445 21.7134C26.3765 22.1534 26.0565 22.4774 25.5845 22.6854C25.1125 22.8934 24.4245 22.9974 23.5205 22.9974C22.8565 22.9974 22.2965 22.9294 21.8405 22.7934C21.3845 22.6494 21.0205 22.3814 20.7485 21.9894C20.4845 21.5974 20.3525 21.0454 20.3525 20.3334V16.0254H22.5125V19.8774C22.5125 20.3014 22.5325 20.6254 22.5725 20.8494C22.6205 21.0654 22.7245 21.2334 22.8845 21.3534C23.0445 21.4654 23.2885 21.5214 23.6165 21.5214C23.8165 21.5214 24.0045 21.5014 24.1805 21.4614C24.3565 21.4214 24.4765 21.3614 24.5405 21.2814C24.6125 21.1854 24.6485 20.8374 24.6485 20.2374V16.0254H26.8085ZM30.7077 15.9894C31.3557 15.9894 31.9037 16.0494 32.3517 16.1694C32.7997 16.2894 33.1557 16.5214 33.4197 16.8654C33.6917 17.2014 33.8277 17.6854 33.8277 18.3174C33.8277 18.5974 33.7837 18.8854 33.6957 19.1814C33.6157 19.4694 33.5117 19.7214 33.3837 19.9374C33.2637 20.1534 33.1557 20.2934 33.0597 20.3574C32.9477 20.4374 32.6997 20.5014 32.3157 20.5494C31.9317 20.5894 31.4797 20.6094 30.9597 20.6094C30.7757 20.6094 30.4917 20.6014 30.1077 20.5854V22.8654H27.9477V16.0254C28.7877 16.0014 29.7077 15.9894 30.7077 15.9894ZM31.6077 19.0734C31.6877 18.9694 31.7277 18.7614 31.7277 18.4494C31.7277 18.0414 31.6397 17.7534 31.4637 17.5854C31.2957 17.4174 30.9997 17.3334 30.5757 17.3334C30.4317 17.3334 30.2757 17.3454 30.1077 17.3694V19.1934C30.1877 19.2014 30.3437 19.2054 30.5757 19.2054C31.1917 19.2054 31.5357 19.1614 31.6077 19.0734ZM34.5322 16.0254H39.5122V17.4654H36.6922V18.7134H39.0682V20.0094H36.6922V21.4014H39.5002V22.8654H34.5322V16.0254ZM46.6561 22.8654H44.3881L43.9801 21.1374C43.9641 21.0734 43.9361 20.9654 43.8961 20.8134C43.8641 20.6534 43.8241 20.5374 43.7761 20.4654C43.7281 20.3854 43.6601 20.3334 43.5721 20.3094C43.3481 20.3174 43.0201 20.3214 42.5881 20.3214V22.8654H40.4281V16.0854C41.3961 16.0134 42.3001 15.9774 43.1401 15.9774C43.9001 15.9774 44.5161 16.0414 44.9881 16.1694C45.4601 16.2894 45.8121 16.5014 46.0441 16.8054C46.2841 17.1014 46.4041 17.5094 46.4041 18.0294C46.4041 18.5174 46.2921 18.9014 46.0681 19.1814C45.8441 19.4534 45.4841 19.6174 44.9881 19.6734V19.7454C45.2681 19.7694 45.5001 19.8614 45.6841 20.0214C45.8761 20.1734 46.0041 20.3694 46.0681 20.6094L46.6561 22.8654ZM42.5881 18.9654C42.6601 18.9734 42.8001 18.9774 43.0081 18.9774C43.6241 18.9774 43.9841 18.9254 44.0881 18.8214C44.1841 18.7254 44.2321 18.5014 44.2321 18.1494C44.2321 17.8214 44.1441 17.5974 43.9681 17.4774C43.8001 17.3574 43.5201 17.2974 43.1281 17.2974C43.0401 17.2974 42.8601 17.3054 42.5881 17.3214V18.9654ZM49.7891 16.0254C50.7251 16.0254 51.4891 16.1134 52.0811 16.2894C52.6811 16.4654 53.1451 16.7974 53.4731 17.2854C53.8091 17.7734 53.9771 18.4734 53.9771 19.3854C53.9771 20.3614 53.8011 21.1054 53.4491 21.6174C53.0971 22.1214 52.6251 22.4574 52.0331 22.6254C51.4411 22.7854 50.6931 22.8654 49.7891 22.8654H47.3891V16.0254H49.7891ZM51.3971 21.2334C51.4931 21.1374 51.5611 20.8894 51.6011 20.4894C51.6411 20.0894 51.6611 19.7214 51.6611 19.3854C51.6611 18.9614 51.6291 18.6254 51.5651 18.3774C51.5091 18.1214 51.4051 17.9174 51.2531 17.7654C51.0131 17.5014 50.6011 17.3694 50.0171 17.3694C49.9131 17.3694 49.7571 17.3774 49.5491 17.3934V21.3774C49.6851 21.3934 49.8971 21.4014 50.1851 21.4014C50.4811 21.4014 50.7411 21.3894 50.9651 21.3654C51.1971 21.3334 51.3411 21.2894 51.3971 21.2334ZM61.1639 22.8654H58.8959L58.4879 21.1374C58.4719 21.0734 58.4439 20.9654 58.4039 20.8134C58.3719 20.6534 58.3319 20.5374 58.2839 20.4654C58.2359 20.3854 58.1679 20.3334 58.0799 20.3094C57.8559 20.3174 57.5279 20.3214 57.0959 20.3214V22.8654H54.9359V16.0854C55.9039 16.0134 56.8079 15.9774 57.6479 15.9774C58.4079 15.9774 59.0239 16.0414 59.4959 16.1694C59.9679 16.2894 60.3199 16.5014 60.5519 16.8054C60.7919 17.1014 60.9119 17.5094 60.9119 18.0294C60.9119 18.5174 60.7999 18.9014 60.5759 19.1814C60.3519 19.4534 59.9919 19.6174 59.4959 19.6734V19.7454C59.7759 19.7694 60.0079 19.8614 60.1919 20.0214C60.3839 20.1734 60.5119 20.3694 60.5759 20.6094L61.1639 22.8654ZM57.0959 18.9654C57.1679 18.9734 57.3079 18.9774 57.5159 18.9774C58.1319 18.9774 58.4919 18.9254 58.5959 18.8214C58.6919 18.7254 58.7399 18.5014 58.7399 18.1494C58.7399 17.8214 58.6519 17.5974 58.4759 17.4774C58.3079 17.3574 58.0279 17.2974 57.6359 17.2974C57.5479 17.2974 57.3679 17.3054 57.0959 17.3214V18.9654ZM61.9089 16.0254H64.0689V22.8654H61.9089V16.0254ZM69.2436 16.0254H71.5236L69.6756 22.8654H66.5436L64.6836 16.0254H66.9756L68.0796 21.3774H68.1396L69.2436 16.0254ZM72.0673 16.0254H77.0473V17.4654H74.2273V18.7134H76.6033V20.0094H74.2273V21.4014H77.0353V22.8654H72.0673V16.0254Z" fill="#A8DADC"/>
<rect x="52.495" y="211" width="65" height="28" rx="14" transform="rotate(-90 52.495 211)" fill="#36617C"/>
<path d="M52.0358 134.36C52.6598 134.36 53.1398 134.548 53.4758 134.924C53.8198 135.3 53.9918 135.964 53.9918 136.916C53.9918 137.612 53.9198 138.208 53.7758 138.704C53.6398 139.192 53.4838 139.504 53.3078 139.64C53.0998 139.808 52.7918 139.932 52.3838 140.012C51.9758 140.092 51.5118 140.132 50.9918 140.132C50.5918 140.132 50.1438 140.1 49.6478 140.036C49.1518 139.98 48.7078 139.888 48.3158 139.76V132.8L50.3918 132.716V133.844C50.3918 133.908 50.3878 134.056 50.3798 134.288C50.3798 134.52 50.3718 134.716 50.3558 134.876C50.3398 135.028 50.3158 135.144 50.2838 135.224L50.3558 135.308C50.5398 135.028 50.7718 134.8 51.0518 134.624C51.3318 134.448 51.6598 134.36 52.0358 134.36ZM51.6998 138.692C51.7478 138.612 51.7878 138.424 51.8198 138.128C51.8598 137.832 51.8798 137.548 51.8798 137.276C51.8798 136.956 51.8638 136.704 51.8318 136.52C51.8078 136.336 51.7398 136.192 51.6278 136.088C51.5238 135.976 51.3598 135.92 51.1358 135.92C50.9358 135.92 50.6798 135.948 50.3678 136.004V138.716C50.6638 138.764 50.9718 138.788 51.2918 138.788C51.5238 138.788 51.6598 138.756 51.6998 138.692ZM60.4968 134.48L59.0568 139.1C58.7768 139.988 58.5248 140.632 58.3008 141.032C58.0768 141.44 57.8528 141.724 57.6288 141.884C57.5008 141.972 57.2968 142.04 57.0168 142.088C56.7448 142.136 56.4488 142.16 56.1288 142.16C55.6488 142.16 55.2648 142.116 54.9768 142.028C54.9688 141.836 54.9768 141.6 55.0008 141.32C55.0248 141.048 55.0568 140.816 55.0968 140.624C55.4328 140.64 55.7608 140.648 56.0808 140.648C56.3208 140.648 56.5008 140.644 56.6208 140.636C56.7408 140.404 56.8528 140.16 56.9568 139.904L56.1288 139.856L54.2808 134.48H56.4528L57.4128 138.344L57.4248 138.572H57.4608L58.3248 134.48H60.4968ZM64.7643 134.36C65.3403 134.36 65.7963 134.552 66.1323 134.936C66.4763 135.312 66.6483 135.972 66.6483 136.916C66.6483 137.62 66.5803 138.196 66.4443 138.644C66.3083 139.084 66.1523 139.376 65.9763 139.52C65.8003 139.664 65.4923 139.78 65.0523 139.868C64.6203 139.956 64.1723 140 63.7083 140C63.5723 140 63.3443 139.992 63.0243 139.976V141.68L60.9723 141.764V134.48H62.6523L62.8563 135.332C63.0643 135.036 63.3283 134.8 63.6483 134.624C63.9763 134.448 64.3483 134.36 64.7643 134.36ZM64.2843 138.536C64.3723 138.472 64.4363 138.292 64.4763 137.996C64.5163 137.692 64.5363 137.404 64.5363 137.132C64.5363 136.684 64.4803 136.352 64.3683 136.136C64.2563 135.92 64.0323 135.812 63.6963 135.812C63.4563 135.812 63.2323 135.836 63.0243 135.884V138.548L63.3603 138.584C63.4643 138.592 63.6123 138.596 63.8043 138.596C64.0763 138.596 64.2363 138.576 64.2843 138.536ZM70.7408 140L70.5488 139.244C70.1808 139.844 69.6688 140.144 69.0128 140.144C68.4768 140.144 68.0368 139.996 67.6928 139.7C67.3568 139.396 67.1888 138.972 67.1888 138.428C67.1888 138.092 67.2848 137.8 67.4768 137.552C67.6768 137.296 67.9488 137.116 68.2928 137.012C68.7408 136.884 69.4328 136.812 70.3688 136.796C70.3688 136.268 70.3448 135.988 70.2968 135.956C70.2568 135.924 70.1288 135.908 69.9128 135.908C69.7768 135.908 69.5888 135.916 69.3488 135.932C68.9648 135.948 68.4448 135.992 67.7888 136.064C67.7248 135.632 67.6768 135.168 67.6448 134.672C68.0688 134.584 68.5128 134.512 68.9768 134.456C69.4408 134.392 69.8568 134.36 70.2248 134.36C70.8648 134.36 71.3448 134.468 71.6648 134.684C71.9848 134.892 72.1928 135.168 72.2888 135.512C72.3848 135.856 72.4288 136.292 72.4208 136.82L72.4088 138.584L72.4448 140H70.7408ZM69.7088 138.8C69.9168 138.8 70.1368 138.76 70.3688 138.68V137.792H70.2728C69.6808 137.792 69.3528 137.824 69.2888 137.888C69.2488 137.928 69.2168 137.988 69.1928 138.068C69.1768 138.148 69.1688 138.224 69.1688 138.296C69.1688 138.488 69.2128 138.62 69.3008 138.692C69.3888 138.764 69.5248 138.8 69.7088 138.8ZM77.8113 138.128C77.8113 138.84 77.5833 139.352 77.1273 139.664C76.6793 139.976 76.0393 140.132 75.2073 140.132C74.6233 140.132 73.9513 140.048 73.1913 139.88C73.2073 139.72 73.2433 139.492 73.2993 139.196C73.3633 138.892 73.4153 138.66 73.4553 138.5C73.7433 138.548 74.0633 138.588 74.4153 138.62C74.7673 138.644 75.0673 138.656 75.3153 138.656C75.5313 138.656 75.6633 138.644 75.7113 138.62C75.7193 138.612 75.7273 138.592 75.7353 138.56C75.7513 138.52 75.7593 138.48 75.7593 138.44C75.7593 138.28 75.6593 138.172 75.4593 138.116C75.3953 138.1 75.1513 138.032 74.7273 137.912C74.3033 137.792 73.9553 137.576 73.6833 137.264C73.4193 136.944 73.2873 136.548 73.2873 136.076C73.2873 135.828 73.3433 135.552 73.4553 135.248C73.5673 134.944 73.6873 134.752 73.8153 134.672C73.9113 134.608 74.1433 134.544 74.5113 134.48C74.8793 134.408 75.2193 134.372 75.5313 134.372C76.1953 134.372 76.8633 134.42 77.5353 134.516C77.5353 134.66 77.5153 134.904 77.4753 135.248C77.4353 135.584 77.3993 135.796 77.3673 135.884C76.6873 135.796 76.1393 135.752 75.7233 135.752C75.5073 135.752 75.3673 135.764 75.3033 135.788C75.2873 135.796 75.2713 135.82 75.2553 135.86C75.2393 135.892 75.2313 135.936 75.2313 135.992C75.2313 136.104 75.2673 136.184 75.3393 136.232C75.4113 136.288 75.5993 136.356 75.9033 136.436C76.2633 136.54 76.5713 136.648 76.8273 136.76C77.0913 136.872 77.3193 137.04 77.5113 137.264C77.7113 137.488 77.8113 137.776 77.8113 138.128ZM82.9559 138.128C82.9559 138.84 82.7279 139.352 82.2719 139.664C81.8239 139.976 81.1839 140.132 80.3519 140.132C79.7679 140.132 79.0959 140.048 78.3359 139.88C78.3519 139.72 78.3879 139.492 78.4439 139.196C78.5079 138.892 78.5599 138.66 78.5999 138.5C78.8879 138.548 79.2079 138.588 79.5599 138.62C79.9119 138.644 80.2119 138.656 80.4599 138.656C80.6759 138.656 80.8079 138.644 80.8559 138.62C80.8639 138.612 80.8719 138.592 80.8799 138.56C80.8959 138.52 80.9039 138.48 80.9039 138.44C80.9039 138.28 80.8039 138.172 80.6039 138.116C80.5399 138.1 80.2959 138.032 79.8719 137.912C79.4479 137.792 79.0999 137.576 78.8279 137.264C78.5639 136.944 78.4319 136.548 78.4319 136.076C78.4319 135.828 78.4879 135.552 78.5999 135.248C78.7119 134.944 78.8319 134.752 78.9599 134.672C79.0559 134.608 79.2879 134.544 79.6559 134.48C80.0239 134.408 80.3639 134.372 80.6759 134.372C81.3399 134.372 82.0079 134.42 82.6799 134.516C82.6799 134.66 82.6599 134.904 82.6199 135.248C82.5799 135.584 82.5439 135.796 82.5119 135.884C81.8319 135.796 81.2839 135.752 80.8679 135.752C80.6519 135.752 80.5119 135.764 80.4479 135.788C80.4319 135.796 80.4159 135.82 80.3999 135.86C80.3839 135.892 80.3759 135.936 80.3759 135.992C80.3759 136.104 80.4119 136.184 80.4839 136.232C80.5559 136.288 80.7439 136.356 81.0479 136.436C81.4079 136.54 81.7159 136.648 81.9719 136.76C82.2359 136.872 82.4639 137.04 82.6559 137.264C82.8559 137.488 82.9559 137.776 82.9559 138.128Z" fill="#A8DADC"/>
<rect x="8.5" y="50" width="30" height="66.1696" rx="15" fill="#36617C"/>
<path d="M16.3806 37.716V45H14.6886L14.5206 44.076C14.3606 44.388 14.1246 44.636 13.8126 44.82C13.5006 45.004 13.1486 45.096 12.7566 45.096C12.1326 45.096 11.6326 44.872 11.2566 44.424C10.8886 43.976 10.7046 43.304 10.7046 42.408C10.7046 41.728 10.7846 41.168 10.9446 40.728C11.1046 40.288 11.2926 39.972 11.5086 39.78C11.6446 39.66 11.9206 39.56 12.3366 39.48C12.7606 39.4 13.1366 39.36 13.4646 39.36C13.7526 39.36 14.0486 39.388 14.3526 39.444C14.3286 39.06 14.3166 38.848 14.3166 38.808V37.8L16.3806 37.716ZM13.6566 43.488C13.8726 43.488 14.0966 43.452 14.3286 43.38V40.776C14.0966 40.744 13.8406 40.728 13.5606 40.728C13.3206 40.728 13.1686 40.748 13.1046 40.788C13.0166 40.852 12.9446 41.036 12.8886 41.34C12.8406 41.636 12.8166 41.948 12.8166 42.276C12.8166 42.764 12.8886 43.088 13.0326 43.248C13.1846 43.408 13.3926 43.488 13.6566 43.488ZM20.785 39.36C20.889 39.36 20.997 39.372 21.109 39.396C21.229 39.42 21.317 39.448 21.373 39.48C21.373 39.656 21.353 39.948 21.313 40.356C21.273 40.756 21.237 41.04 21.205 41.208C21.125 41.2 20.977 41.196 20.761 41.196C20.257 41.196 19.809 41.224 19.417 41.28V45H17.365V39.48H19.081L19.321 40.368H19.333C19.565 40.064 19.813 39.82 20.077 39.636C20.341 39.452 20.577 39.36 20.785 39.36ZM22.9799 38.796C22.7079 38.796 22.4719 38.704 22.2719 38.52C22.0799 38.336 21.9839 38.116 21.9839 37.86C21.9839 37.604 22.0799 37.384 22.2719 37.2C22.4719 37.016 22.7079 36.924 22.9799 36.924C23.2519 36.924 23.4839 37.016 23.6759 37.2C23.8679 37.384 23.9639 37.604 23.9639 37.86C23.9639 38.116 23.8679 38.336 23.6759 38.52C23.4839 38.704 23.2519 38.796 22.9799 38.796ZM21.9479 39.48H23.9999V45H21.9479V39.48ZM28.5694 39.48H30.7174L29.0374 45H26.1934L24.5134 39.48H26.6614L27.5614 43.716H27.6814L28.5694 39.48ZM34.5412 43.56C34.7412 43.56 35.1132 43.54 35.6572 43.5C35.7292 43.5 35.8612 43.492 36.0532 43.476L36.2332 44.712C35.6172 45 34.8172 45.144 33.8332 45.144C32.9132 45.144 32.2052 44.912 31.7092 44.448C31.2212 43.984 30.9772 43.284 30.9772 42.348C30.9772 41.868 31.0372 41.404 31.1572 40.956C31.2852 40.508 31.4292 40.196 31.5892 40.02C31.7572 39.844 32.0692 39.692 32.5252 39.564C32.9812 39.436 33.4332 39.372 33.8812 39.372C34.6012 39.372 35.1412 39.5 35.5012 39.756C35.8612 40.012 36.0972 40.368 36.2092 40.824C36.3212 41.272 36.3772 41.876 36.3772 42.636C35.8332 42.668 35.3012 42.684 34.7812 42.684H33.0772C33.0772 42.94 33.1292 43.132 33.2332 43.26C33.3452 43.388 33.5012 43.472 33.7012 43.512C33.9012 43.544 34.1812 43.56 34.5412 43.56ZM33.1972 40.8C33.1492 40.824 33.1132 40.928 33.0892 41.112C33.0652 41.296 33.0492 41.504 33.0412 41.736H33.6652C34.0412 41.736 34.3132 41.732 34.4812 41.724C34.4812 41.34 34.4252 41.068 34.3132 40.908C34.2092 40.748 34.0252 40.668 33.7612 40.668C33.5452 40.668 33.3572 40.712 33.1972 40.8Z" fill="#A8DADC"/>
<rect x="51.4999" y="50" width="30" height="66.1696" rx="15" fill="#36617C"/>
<path d="M57.4344 42.732C57.4344 42.876 57.4384 43.028 57.4464 43.188C57.4544 43.34 57.4784 43.436 57.5184 43.476C57.5744 43.532 57.7704 43.56 58.1064 43.56L58.5144 43.548C58.5864 43.932 58.6224 44.376 58.6224 44.88C58.4704 44.936 58.2464 44.988 57.9504 45.036C57.6624 45.084 57.3864 45.108 57.1224 45.108C56.5704 45.108 56.1424 44.988 55.8384 44.748C55.5424 44.5 55.3944 44.12 55.3944 43.608V40.656H54.4944V39.564L55.3944 39.48L55.9344 38.16L57.4344 38.076V39.48H58.7064V40.656H57.4344V42.732ZM61.9841 45.156C61.0241 45.156 60.3041 44.932 59.8241 44.484C59.3521 44.028 59.1161 43.312 59.1161 42.336C59.1161 41.8 59.1641 41.332 59.2601 40.932C59.3641 40.524 59.4881 40.24 59.6321 40.08C59.8161 39.872 60.1521 39.7 60.6401 39.564C61.1361 39.428 61.6001 39.36 62.0321 39.36C63.0641 39.36 63.8001 39.58 64.2401 40.02C64.6801 40.46 64.9001 41.164 64.9001 42.132C64.9001 43.172 64.6641 43.936 64.1921 44.424C63.7201 44.912 62.9841 45.156 61.9841 45.156ZM62.0201 43.752C62.3321 43.752 62.5361 43.644 62.6321 43.428C62.7281 43.204 62.7761 42.812 62.7761 42.252C62.7761 41.86 62.7561 41.56 62.7161 41.352C62.6761 41.136 62.6001 40.98 62.4881 40.884C62.3841 40.78 62.2201 40.728 61.9961 40.728C61.6761 40.728 61.4921 40.756 61.4441 40.812C61.3801 40.868 61.3281 41.044 61.2881 41.34C61.2481 41.636 61.2281 41.944 61.2281 42.264C61.2281 42.808 61.2801 43.192 61.3841 43.416C61.4961 43.64 61.7081 43.752 62.0201 43.752ZM71.0234 39.828C71.0954 39.916 71.1474 40.136 71.1794 40.488C71.2194 40.84 71.2394 41.376 71.2394 42.096V45H69.1874V42.12V41.628C69.1874 41.372 69.1674 41.212 69.1274 41.148C69.0634 41.068 68.9154 41.028 68.6834 41.028C68.5714 41.028 68.4874 41.032 68.4314 41.04C68.2074 41.048 67.9754 41.1 67.7354 41.196V45H65.6834V39.48H67.3514L67.5794 40.404C68.1554 39.708 68.8434 39.36 69.6434 39.36C69.9314 39.36 70.1994 39.4 70.4474 39.48C70.7034 39.56 70.8954 39.676 71.0234 39.828ZM75.5353 43.56C75.7353 43.56 76.1073 43.54 76.6513 43.5C76.7233 43.5 76.8553 43.492 77.0473 43.476L77.2273 44.712C76.6113 45 75.8113 45.144 74.8273 45.144C73.9073 45.144 73.1993 44.912 72.7033 44.448C72.2153 43.984 71.9713 43.284 71.9713 42.348C71.9713 41.868 72.0313 41.404 72.1513 40.956C72.2793 40.508 72.4233 40.196 72.5833 40.02C72.7513 39.844 73.0633 39.692 73.5193 39.564C73.9753 39.436 74.4273 39.372 74.8753 39.372C75.5953 39.372 76.1353 39.5 76.4953 39.756C76.8553 40.012 77.0913 40.368 77.2033 40.824C77.3153 41.272 77.3713 41.876 77.3713 42.636C76.8273 42.668 76.2953 42.684 75.7753 42.684H74.0713C74.0713 42.94 74.1233 43.132 74.2273 43.26C74.3393 43.388 74.4953 43.472 74.6953 43.512C74.8953 43.544 75.1753 43.56 75.5353 43.56ZM74.1913 40.8C74.1433 40.824 74.1073 40.928 74.0833 41.112C74.0593 41.296 74.0433 41.504 74.0353 41.736H74.6593C75.0353 41.736 75.3073 41.732 75.4753 41.724C75.4753 41.34 75.4193 41.068 75.3073 40.908C75.2033 40.748 75.0193 40.668 74.7553 40.668C74.5393 40.668 74.3513 40.712 74.1913 40.8Z" fill="#A8DADC"/>
<rect x="8.5" y="145" width="30" height="66.1663" rx="15" fill="#36617C"/>
<path d="M15.3965 134.384C15.7725 134.384 16.1645 134.412 16.5725 134.468C16.9805 134.516 17.4565 134.584 18.0005 134.672V139.448C18.0005 140.592 17.6205 141.48 16.8605 142.112C16.7645 142.192 16.5485 142.26 16.2125 142.316C15.8765 142.372 15.4965 142.4 15.0725 142.4C14.1525 142.4 13.4245 142.28 12.8885 142.04C12.8805 141.864 12.8925 141.632 12.9245 141.344C12.9645 141.056 13.0045 140.828 13.0445 140.66C13.6205 140.748 14.1845 140.792 14.7365 140.792C15.0165 140.792 15.2525 140.776 15.4445 140.744C15.6445 140.72 15.7685 140.68 15.8165 140.624C15.8805 140.56 15.9285 140.32 15.9605 139.904C15.9685 139.792 15.9725 139.628 15.9725 139.412V139.112C15.7725 139.408 15.5165 139.62 15.2045 139.748C14.8925 139.876 14.6125 139.94 14.3645 139.94C13.6925 139.94 13.1845 139.72 12.8405 139.28C12.4965 138.84 12.3245 138.196 12.3245 137.348C12.3245 136.788 12.4005 136.264 12.5525 135.776C12.7125 135.28 12.9285 134.936 13.2005 134.744C13.3765 134.624 13.6605 134.536 14.0525 134.48C14.4525 134.416 14.9005 134.384 15.3965 134.384ZM15.1445 138.44C15.4405 138.44 15.7085 138.392 15.9485 138.296V135.788C15.8605 135.772 15.7285 135.756 15.5525 135.74C15.4725 135.732 15.3525 135.728 15.1925 135.728C14.9445 135.728 14.7885 135.752 14.7245 135.8C14.6365 135.864 14.5645 136.044 14.5085 136.34C14.4605 136.628 14.4365 136.932 14.4365 137.252C14.4365 137.692 14.4845 138 14.5805 138.176C14.6845 138.352 14.8725 138.44 15.1445 138.44ZM22.2616 140L22.0696 139.244C21.7016 139.844 21.1896 140.144 20.5336 140.144C19.9976 140.144 19.5576 139.996 19.2136 139.7C18.8776 139.396 18.7096 138.972 18.7096 138.428C18.7096 138.092 18.8056 137.8 18.9976 137.552C19.1976 137.296 19.4696 137.116 19.8136 137.012C20.2616 136.884 20.9536 136.812 21.8896 136.796C21.8896 136.268 21.8656 135.988 21.8176 135.956C21.7776 135.924 21.6496 135.908 21.4336 135.908C21.2976 135.908 21.1096 135.916 20.8696 135.932C20.4856 135.948 19.9656 135.992 19.3096 136.064C19.2456 135.632 19.1976 135.168 19.1656 134.672C19.5896 134.584 20.0336 134.512 20.4976 134.456C20.9616 134.392 21.3776 134.36 21.7456 134.36C22.3856 134.36 22.8656 134.468 23.1856 134.684C23.5056 134.892 23.7136 135.168 23.8096 135.512C23.9056 135.856 23.9496 136.292 23.9416 136.82L23.9296 138.584L23.9656 140H22.2616ZM21.2296 138.8C21.4376 138.8 21.6576 138.76 21.8896 138.68V137.792H21.7936C21.2016 137.792 20.8736 137.824 20.8096 137.888C20.7696 137.928 20.7376 137.988 20.7136 138.068C20.6976 138.148 20.6896 138.224 20.6896 138.296C20.6896 138.488 20.7336 138.62 20.8216 138.692C20.9096 138.764 21.0456 138.8 21.2296 138.8ZM25.9361 133.796C25.6641 133.796 25.4281 133.704 25.2281 133.52C25.0361 133.336 24.9401 133.116 24.9401 132.86C24.9401 132.604 25.0361 132.384 25.2281 132.2C25.4281 132.016 25.6641 131.924 25.9361 131.924C26.2081 131.924 26.4401 132.016 26.6321 132.2C26.8241 132.384 26.9201 132.604 26.9201 132.86C26.9201 133.116 26.8241 133.336 26.6321 133.52C26.4401 133.704 26.2081 133.796 25.9361 133.796ZM24.9041 134.48H26.9561V140H24.9041V134.48ZM33.3136 134.828C33.3856 134.916 33.4376 135.136 33.4696 135.488C33.5096 135.84 33.5296 136.376 33.5296 137.096V140H31.4776V137.12V136.628C31.4776 136.372 31.4576 136.212 31.4176 136.148C31.3536 136.068 31.2056 136.028 30.9736 136.028C30.8616 136.028 30.7776 136.032 30.7216 136.04C30.4976 136.048 30.2656 136.1 30.0256 136.196V140H27.9736V134.48H29.6416L29.8696 135.404C30.4456 134.708 31.1336 134.36 31.9336 134.36C32.2216 134.36 32.4896 134.4 32.7376 134.48C32.9936 134.56 33.1856 134.676 33.3136 134.828Z" fill="#A8DADC"/>
<path d="M61.0076 287.156C60.0476 287.156 59.3276 286.932 58.8476 286.484C58.3756 286.028 58.1396 285.312 58.1396 284.336C58.1396 283.8 58.1876 283.332 58.2836 282.932C58.3876 282.524 58.5116 282.24 58.6556 282.08C58.8396 281.872 59.1756 281.7 59.6636 281.564C60.1596 281.428 60.6236 281.36 61.0556 281.36C62.0876 281.36 62.8236 281.58 63.2636 282.02C63.7036 282.46 63.9236 283.164 63.9236 284.132C63.9236 285.172 63.6876 285.936 63.2156 286.424C62.7436 286.912 62.0076 287.156 61.0076 287.156ZM61.0436 285.752C61.3556 285.752 61.5596 285.644 61.6556 285.428C61.7516 285.204 61.7996 284.812 61.7996 284.252C61.7996 283.86 61.7796 283.56 61.7396 283.352C61.6996 283.136 61.6236 282.98 61.5116 282.884C61.4076 282.78 61.2436 282.728 61.0196 282.728C60.6996 282.728 60.5156 282.756 60.4676 282.812C60.4036 282.868 60.3516 283.044 60.3116 283.34C60.2716 283.636 60.2516 283.944 60.2516 284.264C60.2516 284.808 60.3036 285.192 60.4076 285.416C60.5196 285.64 60.7316 285.752 61.0436 285.752ZM70.2268 281.48V287H68.5588L68.3308 286.076C67.7548 286.772 67.0668 287.12 66.2668 287.12C65.9788 287.12 65.7068 287.08 65.4508 287C65.2028 286.92 65.0148 286.804 64.8868 286.652C64.8148 286.564 64.7588 286.344 64.7188 285.992C64.6868 285.64 64.6708 285.104 64.6708 284.384V281.48H66.7228V284.36C66.7228 284.52 66.7268 284.708 66.7348 284.924C66.7428 285.14 66.7668 285.276 66.8068 285.332C66.8628 285.412 67.0228 285.452 67.2868 285.452L67.4788 285.44C67.7028 285.432 67.9348 285.38 68.1748 285.284V281.48H70.2268ZM73.7548 284.732C73.7548 284.876 73.7588 285.028 73.7668 285.188C73.7748 285.34 73.7988 285.436 73.8388 285.476C73.8948 285.532 74.0908 285.56 74.4268 285.56L74.8348 285.548C74.9068 285.932 74.9428 286.376 74.9428 286.88C74.7908 286.936 74.5668 286.988 74.2708 287.036C73.9828 287.084 73.7068 287.108 73.4428 287.108C72.8908 287.108 72.4628 286.988 72.1588 286.748C71.8628 286.5 71.7148 286.12 71.7148 285.608V282.656H70.8148V281.564L71.7148 281.48L72.2548 280.16L73.7548 280.076V281.48H75.0268V282.656H73.7548V284.732Z" fill="#A8DADC"/>
<path d="M20.2553 280.796C19.9833 280.796 19.7473 280.704 19.5473 280.52C19.3553 280.336 19.2593 280.116 19.2593 279.86C19.2593 279.604 19.3553 279.384 19.5473 279.2C19.7473 279.016 19.9833 278.924 20.2553 278.924C20.5273 278.924 20.7593 279.016 20.9513 279.2C21.1433 279.384 21.2393 279.604 21.2393 279.86C21.2393 280.116 21.1433 280.336 20.9513 280.52C20.7593 280.704 20.5273 280.796 20.2553 280.796ZM19.2233 281.48H21.2753V287H19.2233V281.48ZM27.6328 281.828C27.7048 281.916 27.7568 282.136 27.7888 282.488C27.8288 282.84 27.8488 283.376 27.8488 284.096V287H25.7968V284.12V283.628C25.7968 283.372 25.7768 283.212 25.7368 283.148C25.6728 283.068 25.5248 283.028 25.2928 283.028C25.1808 283.028 25.0968 283.032 25.0408 283.04C24.8168 283.048 24.5848 283.1 24.3448 283.196V287H22.2928V281.48H23.9608L24.1888 282.404C24.7648 281.708 25.4528 281.36 26.2528 281.36C26.5408 281.36 26.8088 281.4 27.0568 281.48C27.3128 281.56 27.5048 281.676 27.6328 281.828Z" fill="#A8DADC"/>
</svg>
