<svg width="91" height="380" viewBox="0 0 91 380" fill="none" xmlns="http://www.w3.org/2000/svg">
<rect x="0.5" width="90" height="380" fill="#457B9D"/>
<g opacity="0.3">
<path fill-rule="evenodd" clip-rule="evenodd" d="M39.458 375.599C39.303 375.747 39.159 375.851 39.026 375.909C38.893 375.968 38.751 375.998 38.6 375.998C38.448 375.998 38.306 375.97 38.173 375.914C38.04 375.858 37.924 375.781 37.825 375.682C37.609 375.466 37.5 375.209 37.5 374.912V369.385C37.5 369.082 37.578 368.847 37.732 368.68C37.998 368.408 38.25 368.272 38.488 368.272C38.726 368.272 38.904 368.296 39.022 368.346C39.139 368.395 39.238 368.457 39.318 368.531C39.424 368.624 39.502 368.723 39.555 368.828C39.608 368.933 39.651 369.011 39.685 369.06C39.719 369.11 39.775 369.134 39.852 369.134C39.929 369.134 39.996 369.11 40.051 369.06L40.209 368.902C40.66 368.482 41.112 368.272 41.563 368.272C42.361 368.272 43.019 368.599 43.539 369.255C43.588 369.323 43.65 369.357 43.724 369.357C43.854 369.357 43.986 369.256 44.119 369.055C44.252 368.854 44.466 368.674 44.763 368.513C45.06 368.352 45.406 368.272 45.802 368.272C46.198 368.272 46.558 368.344 46.883 368.49C47.207 368.635 47.49 368.834 47.731 369.088C48.238 369.62 48.492 370.263 48.492 371.017V374.912C48.492 375.382 48.269 375.713 47.824 375.905C47.688 375.967 47.544 375.998 47.393 375.998C47.241 375.998 47.099 375.97 46.966 375.914C46.833 375.858 46.717 375.781 46.618 375.682C46.408 375.46 46.303 375.203 46.303 374.912V371.045C46.303 370.736 46.226 370.504 46.071 370.349C45.799 370.077 45.549 369.941 45.32 369.941C45.091 369.941 44.912 369.971 44.782 370.029C44.652 370.088 44.534 370.17 44.429 370.275C44.213 370.492 44.105 370.742 44.105 371.026V374.912C44.105 375.382 43.885 375.713 43.446 375.905C43.31 375.967 43.166 375.998 43.015 375.998C42.863 375.998 42.72 375.97 42.583 375.914C42.447 375.858 42.33 375.781 42.231 375.682C42.015 375.466 41.906 375.209 41.906 374.912V371.045C41.906 370.736 41.829 370.504 41.674 370.349C41.402 370.077 41.118 369.941 40.821 369.941C40.326 369.941 39.983 370.133 39.792 370.516C39.73 370.64 39.699 370.779 39.699 370.934V374.912C39.699 375.215 39.618 375.444 39.458 375.599ZM50.719 369.387C50.719 369.084 50.796 368.849 50.951 368.682C51.216 368.41 51.51 368.274 51.832 368.274C52.141 368.274 52.37 368.355 52.518 368.515C52.79 368.794 52.926 369.084 52.926 369.387V374.915C52.926 375.212 52.849 375.437 52.694 375.592C52.422 375.864 52.172 376 51.943 376C51.714 376 51.532 375.971 51.396 375.912C51.26 375.853 51.142 375.777 51.043 375.685C50.827 375.474 50.719 375.218 50.719 374.915V369.387ZM51.827 365.9C51.565 365.9 51.352 365.687 51.352 365.425C51.352 365.162 51.565 364.95 51.827 364.95C52.089 364.95 52.302 365.162 52.302 365.425C52.302 365.687 52.089 365.9 51.827 365.9ZM51.827 364C52.214 364 52.548 364.142 52.829 364.425C53.111 364.709 53.252 364.996 53.252 365.287C53.252 365.577 53.213 365.807 53.135 365.978C53.058 366.148 52.956 366.297 52.829 366.424C52.548 366.708 52.214 366.849 51.827 366.849C51.44 366.849 51.106 366.708 50.824 366.424C50.543 366.141 50.402 365.857 50.402 365.574C50.402 365.092 50.543 364.709 50.824 364.425C51.106 364.142 51.44 364 51.827 364Z" fill="#1D3557"/>
</g>
<path d="M8.2083 17.2894C8.2083 17.4434 8.2853 17.5644 8.4393 17.6524C8.60063 17.7404 8.84996 17.8357 9.1873 17.9384C9.59063 18.0704 9.92063 18.1987 10.1773 18.3234C10.4413 18.448 10.6686 18.6424 10.8593 18.9064C11.0573 19.1704 11.1563 19.515 11.1563 19.9404C11.1563 21.3044 10.269 21.9864 8.4943 21.9864C8.20096 21.9864 7.84163 21.9607 7.4163 21.9094C6.9983 21.858 6.61696 21.792 6.2723 21.7114C6.28696 21.5574 6.3163 21.3337 6.3603 21.0404C6.41163 20.7397 6.4593 20.516 6.5033 20.3694C6.75996 20.406 7.14496 20.45 7.6583 20.5014C8.17896 20.5527 8.5713 20.5784 8.8353 20.5784C8.9893 20.5784 9.08096 20.5674 9.1103 20.5454C9.1543 20.516 9.1873 20.4684 9.2093 20.4024C9.23863 20.329 9.2533 20.2667 9.2533 20.2154C9.2533 20.0687 9.18363 19.9587 9.0443 19.8854C8.90496 19.8047 8.66663 19.7094 8.3293 19.5994C7.92596 19.4747 7.5923 19.3464 7.3283 19.2144C7.0643 19.0824 6.8333 18.877 6.6353 18.5984C6.4373 18.3197 6.3383 17.953 6.3383 17.4984C6.3383 17.1757 6.41163 16.8604 6.5583 16.5524C6.70496 16.237 6.8553 16.0244 7.0093 15.9144C7.12663 15.8337 7.36863 15.7567 7.7353 15.6834C8.10196 15.61 8.44663 15.5734 8.7693 15.5734C9.59063 15.5734 10.2616 15.6504 10.7823 15.8044C10.775 15.951 10.7493 16.1527 10.7053 16.4094C10.6686 16.666 10.6283 16.9007 10.5843 17.1134L10.3313 17.1024C9.37796 17.0364 8.7693 17.0034 8.5053 17.0034C8.3953 17.0034 8.33296 17.007 8.3183 17.0144C8.28896 17.029 8.2633 17.062 8.2413 17.1134C8.2193 17.1647 8.2083 17.2234 8.2083 17.2894ZM18.4784 15.5954V19.1044C18.4784 19.8304 18.3978 20.3987 18.2364 20.8094C18.0824 21.2127 17.7891 21.5097 17.3564 21.7004C16.9238 21.891 16.2931 21.9864 15.4644 21.9864C14.8558 21.9864 14.3424 21.924 13.9244 21.7994C13.5064 21.6674 13.1728 21.4217 12.9234 21.0624C12.6814 20.703 12.5604 20.197 12.5604 19.5444V15.5954H14.5404V19.1264C14.5404 19.515 14.5588 19.812 14.5954 20.0174C14.6394 20.2154 14.7348 20.3694 14.8814 20.4794C15.0281 20.582 15.2518 20.6334 15.5524 20.6334C15.7358 20.6334 15.9081 20.615 16.0694 20.5784C16.2308 20.5417 16.3408 20.4867 16.3994 20.4134C16.4654 20.3254 16.4984 20.0064 16.4984 19.4564V15.5954H18.4784ZM22.6027 15.5624C23.1967 15.5624 23.699 15.6174 24.1097 15.7274C24.5203 15.8374 24.8467 16.05 25.0887 16.3654C25.338 16.6734 25.4627 17.117 25.4627 17.6964C25.4627 17.953 25.4223 18.217 25.3417 18.4884C25.2683 18.7524 25.173 18.9834 25.0557 19.1814C24.9457 19.3794 24.8467 19.5077 24.7587 19.5664C24.656 19.6397 24.4287 19.6984 24.0767 19.7424C23.7247 19.779 23.3103 19.7974 22.8337 19.7974C22.665 19.7974 22.4047 19.79 22.0527 19.7754V21.8654H20.0727V15.5954C20.8427 15.5734 21.686 15.5624 22.6027 15.5624ZM23.4277 18.3894C23.501 18.294 23.5377 18.1034 23.5377 17.8174C23.5377 17.4434 23.457 17.1794 23.2957 17.0254C23.1417 16.8714 22.8703 16.7944 22.4817 16.7944C22.3497 16.7944 22.2067 16.8054 22.0527 16.8274V18.4994C22.126 18.5067 22.269 18.5104 22.4817 18.5104C23.0463 18.5104 23.3617 18.47 23.4277 18.3894ZM26.6585 15.5954H31.2235V16.9154H28.6385V18.0594H30.8165V19.2474H28.6385V20.5234H31.2125V21.8654H26.6585V15.5954ZM38.3221 21.8654H36.2431L35.8691 20.2814C35.8544 20.2227 35.8288 20.1237 35.7921 19.9844C35.7628 19.8377 35.7261 19.7314 35.6821 19.6654C35.6381 19.592 35.5758 19.5444 35.4951 19.5224C35.2898 19.5297 34.9891 19.5334 34.5931 19.5334V21.8654H32.6131V15.6504C33.5004 15.5844 34.3291 15.5514 35.0991 15.5514C35.7958 15.5514 36.3604 15.61 36.7931 15.7274C37.2258 15.8374 37.5484 16.0317 37.7611 16.3104C37.9811 16.5817 38.0911 16.9557 38.0911 17.4324C38.0911 17.8797 37.9884 18.2317 37.7831 18.4884C37.5778 18.7377 37.2478 18.888 36.7931 18.9394V19.0054C37.0498 19.0274 37.2624 19.1117 37.4311 19.2584C37.6071 19.3977 37.7244 19.5774 37.7831 19.7974L38.3221 21.8654ZM34.5931 18.2904C34.6591 18.2977 34.7874 18.3014 34.9781 18.3014C35.5428 18.3014 35.8728 18.2537 35.9681 18.1584C36.0561 18.0704 36.1001 17.865 36.1001 17.5424C36.1001 17.2417 36.0194 17.0364 35.8581 16.9264C35.7041 16.8164 35.4474 16.7614 35.0881 16.7614C35.0074 16.7614 34.8424 16.7687 34.5931 16.7834V18.2904ZM41.7439 15.5954C42.6019 15.5954 43.3023 15.676 43.8449 15.8374C44.3949 15.9987 44.8203 16.303 45.1209 16.7504C45.4289 17.1977 45.5829 17.8394 45.5829 18.6754C45.5829 19.57 45.4216 20.252 45.0989 20.7214C44.7763 21.1834 44.3436 21.4914 43.8009 21.6454C43.2583 21.792 42.5726 21.8654 41.7439 21.8654H39.5439V15.5954H41.7439ZM43.2179 20.3694C43.3059 20.2814 43.3683 20.054 43.4049 19.6874C43.4416 19.3207 43.4599 18.9834 43.4599 18.6754C43.4599 18.2867 43.4306 17.9787 43.3719 17.7514C43.3206 17.5167 43.2253 17.3297 43.0859 17.1904C42.8659 16.9484 42.4883 16.8274 41.9529 16.8274C41.8576 16.8274 41.7146 16.8347 41.5239 16.8494V20.5014C41.6486 20.516 41.8429 20.5234 42.1069 20.5234C42.3783 20.5234 42.6166 20.5124 42.8219 20.4904C43.0346 20.461 43.1666 20.4207 43.2179 20.3694ZM52.7209 21.8654H50.6419L50.2679 20.2814C50.2532 20.2227 50.2276 20.1237 50.1909 19.9844C50.1616 19.8377 50.1249 19.7314 50.0809 19.6654C50.0369 19.592 49.9746 19.5444 49.8939 19.5224C49.6886 19.5297 49.3879 19.5334 48.9919 19.5334V21.8654H47.0119V15.6504C47.8992 15.5844 48.7279 15.5514 49.4979 15.5514C50.1946 15.5514 50.7592 15.61 51.1919 15.7274C51.6246 15.8374 51.9472 16.0317 52.1599 16.3104C52.3799 16.5817 52.4899 16.9557 52.4899 17.4324C52.4899 17.8797 52.3872 18.2317 52.1819 18.4884C51.9766 18.7377 51.6466 18.888 51.1919 18.9394V19.0054C51.4486 19.0274 51.6612 19.1117 51.8299 19.2584C52.0059 19.3977 52.1232 19.5774 52.1819 19.7974L52.7209 21.8654ZM48.9919 18.2904C49.0579 18.2977 49.1862 18.3014 49.3769 18.3014C49.9416 18.3014 50.2716 18.2537 50.3669 18.1584C50.4549 18.0704 50.4989 17.865 50.4989 17.5424C50.4989 17.2417 50.4182 17.0364 50.2569 16.9264C50.1029 16.8164 49.8462 16.7614 49.4869 16.7614C49.4062 16.7614 49.2412 16.7687 48.9919 16.7834V18.2904ZM53.9538 15.5954H55.9338V21.8654H53.9538V15.5954ZM61.2273 15.5954H63.3173L61.6233 21.8654H58.7523L57.0473 15.5954H59.1483L60.1603 20.5014H60.2153L61.2273 15.5954ZM64.3657 15.5954H68.9307V16.9154H66.3457V18.0594H68.5237V19.2474H66.3457V20.5234H68.9197V21.8654H64.3657V15.5954ZM70.1443 18.2464H73.4443V19.8194H70.1443V18.2464ZM76.7241 17.2894C76.7241 17.4434 76.8011 17.5644 76.9551 17.6524C77.1165 17.7404 77.3658 17.8357 77.7031 17.9384C78.1065 18.0704 78.4365 18.1987 78.6931 18.3234C78.9571 18.448 79.1845 18.6424 79.3751 18.9064C79.5731 19.1704 79.6721 19.515 79.6721 19.9404C79.6721 21.3044 78.7848 21.9864 77.0101 21.9864C76.7168 21.9864 76.3575 21.9607 75.9321 21.9094C75.5141 21.858 75.1328 21.792 74.7881 21.7114C74.8028 21.5574 74.8321 21.3337 74.8761 21.0404C74.9275 20.7397 74.9751 20.516 75.0191 20.3694C75.2758 20.406 75.6608 20.45 76.1741 20.5014C76.6948 20.5527 77.0871 20.5784 77.3511 20.5784C77.5051 20.5784 77.5968 20.5674 77.6261 20.5454C77.6701 20.516 77.7031 20.4684 77.7251 20.4024C77.7545 20.329 77.7691 20.2667 77.7691 20.2154C77.7691 20.0687 77.6995 19.9587 77.5601 19.8854C77.4208 19.8047 77.1825 19.7094 76.8451 19.5994C76.4418 19.4747 76.1081 19.3464 75.8441 19.2144C75.5801 19.0824 75.3491 18.877 75.1511 18.5984C74.9531 18.3197 74.8541 17.953 74.8541 17.4984C74.8541 17.1757 74.9275 16.8604 75.0741 16.5524C75.2208 16.237 75.3711 16.0244 75.5251 15.9144C75.6425 15.8337 75.8845 15.7567 76.2511 15.6834C76.6178 15.61 76.9625 15.5734 77.2851 15.5734C78.1065 15.5734 78.7775 15.6504 79.2981 15.8044C79.2908 15.951 79.2651 16.1527 79.2211 16.4094C79.1845 16.666 79.1441 16.9007 79.1001 17.1134L78.8471 17.1024C77.8938 17.0364 77.2851 17.0034 77.0211 17.0034C76.9111 17.0034 76.8488 17.007 76.8341 17.0144C76.8048 17.029 76.7791 17.062 76.7571 17.1134C76.7351 17.1647 76.7241 17.2234 76.7241 17.2894ZM84.2913 21.8654H82.3113V16.9704H80.5403V15.5954H86.0623V16.9704H84.2913V21.8654Z" fill="white"/>
<rect x="52.495" y="211" width="65" height="28" rx="14" transform="rotate(-90 52.495 211)" fill="#36617C"/>
<path d="M48.4589 140H50.954C52.0819 140 52.9169 139.443 52.9169 138.486C52.9169 137.666 52.2968 137.246 51.6425 137.197V137.144C52.2089 137.036 52.6434 136.641 52.6434 135.981C52.6434 135.166 51.9598 134.668 50.9247 134.668H48.4589V140ZM49.7528 135.571H50.5975C51.0956 135.571 51.3641 135.815 51.3641 136.191C51.3641 136.582 51.0907 136.836 50.4266 136.836H49.7528V135.571ZM49.7528 137.666H50.6659C51.2811 137.666 51.5887 137.949 51.5887 138.389C51.5887 138.823 51.3007 139.102 50.5096 139.102H49.7528V137.666ZM55.9022 140H57.2059V138.086L59.0956 134.668H57.6942L56.5956 136.875H56.5468L55.4481 134.668H54.0126L55.9022 138.115V140ZM64.8446 136.475C64.8446 135.483 64.1561 134.668 62.8866 134.668H60.5331V140H61.8368V138.33H62.8768C64.1464 138.33 64.8446 137.476 64.8446 136.475ZM63.5165 136.504C63.5165 137.041 63.204 137.383 62.662 137.383H61.8319V135.63H62.6132C63.1844 135.63 63.5165 135.947 63.5165 136.504ZM66.9901 140L67.3759 138.75H69.1581L69.5341 140H70.9208L69.0946 134.668H67.5126L65.6815 140H66.9901ZM68.3036 135.801L68.9139 137.842H67.62L68.2401 135.801H68.3036ZM72.1776 138.447C72.1923 139.346 72.91 140.098 74.4384 140.098C75.9423 140.098 76.7382 139.385 76.7382 138.384C76.7382 137.446 76.118 137.036 75.2196 136.86L74.4335 136.709C73.8817 136.597 73.6083 136.436 73.6083 136.123C73.6083 135.781 73.9159 135.522 74.4774 135.522C75.0634 135.522 75.4052 135.815 75.4344 136.187H76.6405C76.6307 135.337 75.8983 134.565 74.4823 134.565C73.1737 134.565 72.2997 135.22 72.2997 136.221C72.2997 137.09 72.8563 137.544 73.8524 137.744L74.5995 137.896C75.1659 138.013 75.4442 138.179 75.4442 138.511C75.4442 138.872 75.1317 139.131 74.4921 139.131C73.8573 139.131 73.4569 138.833 73.4276 138.447H72.1776ZM78.2343 138.447C78.2489 139.346 78.9667 140.098 80.495 140.098C81.9989 140.098 82.7948 139.385 82.7948 138.384C82.7948 137.446 82.1747 137.036 81.2762 136.86L80.4901 136.709C79.9384 136.597 79.6649 136.436 79.6649 136.123C79.6649 135.781 79.9725 135.522 80.5341 135.522C81.12 135.522 81.4618 135.815 81.4911 136.187H82.6971C82.6874 135.337 81.955 134.565 80.5389 134.565C79.2303 134.565 78.3563 135.22 78.3563 136.221C78.3563 137.09 78.913 137.544 79.9091 137.744L80.6561 137.896C81.2225 138.013 81.5009 138.179 81.5009 138.511C81.5009 138.872 81.1884 139.131 80.5487 139.131C79.9139 139.131 79.5135 138.833 79.4843 138.447H78.2343Z" fill="white"/>
<rect x="8.5" y="50" width="30" height="66.1696" rx="15" fill="#36617C"/>
<path d="M14.7002 42.3145C14.7002 40.6348 13.875 39.668 12.1562 39.668H9.97852V45H12.1562C13.8555 45 14.7002 44.0186 14.7002 42.3145ZM13.3623 42.3389C13.3623 43.6475 12.7812 44.0039 11.9414 44.0039H11.2871V40.6641H11.9414C12.9961 40.6641 13.3623 41.3525 13.3623 42.3389ZM18.8672 39.668H16.5137V45H17.7979V43.0811H18.623L19.585 45H21.0352L19.9121 42.9053C20.4004 42.7246 20.9277 42.1875 20.9277 41.4062C20.9277 40.3369 20.166 39.668 18.8672 39.668ZM17.7979 42.1826V40.6201H18.6768C19.2041 40.6201 19.5752 40.8984 19.5752 41.416C19.5752 41.9287 19.2139 42.1826 18.6621 42.1826H17.7979ZM24.0938 45V39.668H22.7852V45H24.0938ZM29.0859 45L30.8828 39.668H29.4326L28.334 43.6719H28.2705L27.1572 39.668H25.6387L27.46 45H29.0859ZM36.1777 44.0039H33.7217V42.7783H36.0264V41.8506H33.7217V40.6641H36.1777V39.668H32.4277V45H36.1777V44.0039Z" fill="white"/>
<rect x="51.5" y="50" width="30" height="66.1696" rx="15" fill="#36617C"/>
<path d="M57.1787 45V40.6885H58.7266V39.668H54.3223V40.6885H55.8701V45H57.1787ZM62.498 45.0977C64.085 45.0977 64.9883 44.126 64.9883 42.6367V42.0361C64.9883 40.542 64.0801 39.5703 62.4932 39.5703C60.9111 39.5703 60.0029 40.5371 60.0029 42.0361V42.6367C60.0029 44.126 60.916 45.0977 62.498 45.0977ZM62.498 44.0771C61.7705 44.0771 61.3359 43.5352 61.3359 42.6416V42.0215C61.3359 41.1279 61.7705 40.5908 62.498 40.5908C63.2207 40.5908 63.6553 41.1279 63.6553 42.0215V42.6416C63.6553 43.5352 63.2207 44.0771 62.498 44.0771ZM68.0762 45V41.7529H68.125L70.4395 45H71.4795V39.668H70.2539V42.8857H70.2051L67.9004 39.668H66.8555V45H68.0762ZM77.3262 44.0039H74.8701V42.7783H77.1748V41.8506H74.8701V40.6641H77.3262V39.668H73.5762V45H77.3262V44.0039Z" fill="white"/>
<rect x="8.5" y="145" width="30" height="66.1663" rx="15" fill="#36617C"/>
<path d="M17.6769 136.421C17.6427 135.425 16.8273 134.57 15.3771 134.57C13.7853 134.57 12.8966 135.562 12.8966 136.992V137.642C12.8966 139.062 13.673 140.098 15.3624 140.098C16.8566 140.098 17.6818 139.209 17.6818 138.12V137.08H15.4259V137.974H16.4464V138.213C16.4464 138.677 16.0509 139.072 15.382 139.072C14.547 139.072 14.215 138.472 14.215 137.637V137.007C14.215 136.133 14.6154 135.601 15.3673 135.601C15.9825 135.601 16.3536 135.967 16.4073 136.421H17.6769ZM20.3448 140L20.7306 138.75H22.5128L22.8888 140H24.2755L22.4493 134.668H20.8673L19.0363 140H20.3448ZM21.6583 135.801L22.2687 137.842H20.9747L21.5948 135.801H21.6583ZM27.1632 140V134.668H25.8546V140H27.1632ZM30.4757 140V136.753H30.5245L32.839 140H33.879V134.668H32.6534V137.886H32.6046L30.2999 134.668H29.255V140H30.4757Z" fill="white"/>
<path d="M60.4336 286.098C62.0205 286.098 62.9238 285.126 62.9238 283.637V283.036C62.9238 281.542 62.0156 280.57 60.4287 280.57C58.8467 280.57 57.9385 281.537 57.9385 283.036V283.637C57.9385 285.126 58.8516 286.098 60.4336 286.098ZM60.4336 285.077C59.7061 285.077 59.2715 284.535 59.2715 283.642V283.021C59.2715 282.128 59.7061 281.591 60.4336 281.591C61.1562 281.591 61.5908 282.128 61.5908 283.021V283.642C61.5908 284.535 61.1562 285.077 60.4336 285.077ZM67.0713 285.048C66.4609 285.048 66.0361 284.687 66.0361 283.998V280.668H64.7227V284.145C64.7227 285.336 65.626 286.098 67.0713 286.098C68.5166 286.098 69.4199 285.331 69.4199 284.145V280.668H68.1113V283.998C68.1113 284.682 67.6816 285.048 67.0713 285.048ZM73.792 286V281.688H75.3398V280.668H70.9355V281.688H72.4834V286H73.792Z" fill="white"/>
<path d="M20.7939 286V280.668H19.4854V286H20.7939ZM24.1064 286V282.753H24.1553L26.4697 286H27.5098V280.668H26.2842V283.886H26.2354L23.9307 280.668H22.8857V286H24.1064Z" fill="white"/>
<rect x="42" y="333.5" width="7" height="7" rx="1" fill="white"/>
<path d="M48.0106 339.5H46.3096L46.0036 338.204C45.9916 338.156 45.9706 338.075 45.9406 337.961C45.9166 337.841 45.8866 337.754 45.8506 337.7C45.8146 337.64 45.7636 337.601 45.6976 337.583C45.5296 337.589 45.2836 337.592 44.9596 337.592V339.5H43.3396V334.415C44.0656 334.361 44.7436 334.334 45.3736 334.334C45.9436 334.334 46.4056 334.382 46.7596 334.478C47.1136 334.568 47.3776 334.727 47.5516 334.955C47.7316 335.177 47.8216 335.483 47.8216 335.873C47.8216 336.239 47.7376 336.527 47.5696 336.737C47.4016 336.941 47.1316 337.064 46.7596 337.106V337.16C46.9696 337.178 47.1436 337.247 47.2816 337.367C47.4256 337.481 47.5216 337.628 47.5696 337.808L48.0106 339.5ZM44.9596 336.575C45.0136 336.581 45.1186 336.584 45.2746 336.584C45.7366 336.584 46.0066 336.545 46.0846 336.467C46.1566 336.395 46.1926 336.227 46.1926 335.963C46.1926 335.717 46.1266 335.549 45.9946 335.459C45.8686 335.369 45.6586 335.324 45.3646 335.324C45.2986 335.324 45.1636 335.33 44.9596 335.342V336.575Z" fill="#457B9D"/>
<rect x="42" y="299.5" width="7" height="7" rx="1" fill="white"/>
<path d="M43.7919 300.37H45.4119V304.312H47.5089V305.5H43.7919V300.37Z" fill="#457B9D"/>
</svg>
