<svg width="91" height="380" viewBox="0 0 91 380" fill="none" xmlns="http://www.w3.org/2000/svg">
<rect x="0.4375" width="90" height="380" fill="#457B9D"/>
<g opacity="0.3">
<path fill-rule="evenodd" clip-rule="evenodd" d="M39.3955 375.599C39.2405 375.747 39.0965 375.851 38.9635 375.909C38.8305 375.968 38.6885 375.998 38.5375 375.998C38.3855 375.998 38.2435 375.97 38.1105 375.914C37.9775 375.858 37.8615 375.781 37.7625 375.682C37.5465 375.466 37.4375 375.209 37.4375 374.912V369.385C37.4375 369.082 37.5155 368.847 37.6695 368.68C37.9355 368.408 38.1875 368.272 38.4255 368.272C38.6635 368.272 38.8415 368.296 38.9595 368.346C39.0765 368.395 39.1755 368.457 39.2555 368.531C39.3615 368.624 39.4395 368.723 39.4925 368.828C39.5455 368.933 39.5885 369.011 39.6225 369.06C39.6565 369.11 39.7125 369.134 39.7895 369.134C39.8665 369.134 39.9335 369.11 39.9885 369.06L40.1465 368.902C40.5975 368.482 41.0495 368.272 41.5005 368.272C42.2985 368.272 42.9565 368.599 43.4765 369.255C43.5255 369.323 43.5875 369.357 43.6615 369.357C43.7915 369.357 43.9235 369.256 44.0565 369.055C44.1895 368.854 44.4035 368.674 44.7005 368.513C44.9975 368.352 45.3435 368.272 45.7395 368.272C46.1355 368.272 46.4955 368.344 46.8205 368.49C47.1445 368.635 47.4275 368.834 47.6685 369.088C48.1755 369.62 48.4295 370.263 48.4295 371.017V374.912C48.4295 375.382 48.2065 375.713 47.7615 375.905C47.6255 375.967 47.4815 375.998 47.3305 375.998C47.1785 375.998 47.0365 375.97 46.9035 375.914C46.7705 375.858 46.6545 375.781 46.5555 375.682C46.3455 375.46 46.2405 375.203 46.2405 374.912V371.045C46.2405 370.736 46.1635 370.504 46.0085 370.349C45.7365 370.077 45.4865 369.941 45.2575 369.941C45.0285 369.941 44.8495 369.971 44.7195 370.029C44.5895 370.088 44.4715 370.17 44.3665 370.275C44.1505 370.492 44.0425 370.742 44.0425 371.026V374.912C44.0425 375.382 43.8225 375.713 43.3835 375.905C43.2475 375.967 43.1035 375.998 42.9525 375.998C42.8005 375.998 42.6575 375.97 42.5205 375.914C42.3845 375.858 42.2675 375.781 42.1685 375.682C41.9525 375.466 41.8435 375.209 41.8435 374.912V371.045C41.8435 370.736 41.7665 370.504 41.6115 370.349C41.3395 370.077 41.0555 369.941 40.7585 369.941C40.2635 369.941 39.9205 370.133 39.7295 370.516C39.6675 370.64 39.6365 370.779 39.6365 370.934V374.912C39.6365 375.215 39.5555 375.444 39.3955 375.599ZM50.6565 369.387C50.6565 369.084 50.7335 368.849 50.8885 368.682C51.1535 368.41 51.4475 368.274 51.7695 368.274C52.0785 368.274 52.3075 368.355 52.4555 368.515C52.7275 368.794 52.8635 369.084 52.8635 369.387V374.915C52.8635 375.212 52.7865 375.437 52.6315 375.592C52.3595 375.864 52.1095 376 51.8805 376C51.6515 376 51.4695 375.971 51.3335 375.912C51.1975 375.853 51.0795 375.777 50.9805 375.685C50.7645 375.474 50.6565 375.218 50.6565 374.915V369.387ZM51.7645 365.9C51.5025 365.9 51.2895 365.687 51.2895 365.425C51.2895 365.162 51.5025 364.95 51.7645 364.95C52.0265 364.95 52.2395 365.162 52.2395 365.425C52.2395 365.687 52.0265 365.9 51.7645 365.9ZM51.7645 364C52.1515 364 52.4855 364.142 52.7665 364.425C53.0485 364.709 53.1895 364.996 53.1895 365.287C53.1895 365.577 53.1505 365.807 53.0725 365.978C52.9955 366.148 52.8935 366.297 52.7665 366.424C52.4855 366.708 52.1515 366.849 51.7645 366.849C51.3775 366.849 51.0435 366.708 50.7615 366.424C50.4805 366.141 50.3395 365.857 50.3395 365.574C50.3395 365.092 50.4805 364.709 50.7615 364.425C51.0435 364.142 51.3775 364 51.7645 364Z" fill="#1D3557"/>
</g>
<path d="M16.2937 21.8654H14.3137V16.9704H12.5427V15.5954H18.0647V16.9704H16.2937V21.8654ZM24.957 21.8654H22.878L22.504 20.2814C22.4894 20.2227 22.4637 20.1237 22.427 19.9844C22.3977 19.8377 22.361 19.7314 22.317 19.6654C22.273 19.592 22.2107 19.5444 22.13 19.5224C21.9247 19.5297 21.624 19.5334 21.228 19.5334V21.8654H19.248V15.6504C20.1354 15.5844 20.964 15.5514 21.734 15.5514C22.4307 15.5514 22.9954 15.61 23.428 15.7274C23.8607 15.8374 24.1834 16.0317 24.396 16.3104C24.616 16.5817 24.726 16.9557 24.726 17.4324C24.726 17.8797 24.6234 18.2317 24.418 18.4884C24.2127 18.7377 23.8827 18.888 23.428 18.9394V19.0054C23.6847 19.0274 23.8974 19.1117 24.066 19.2584C24.242 19.3977 24.3594 19.5774 24.418 19.7974L24.957 21.8654ZM21.228 18.2904C21.294 18.2977 21.4224 18.3014 21.613 18.3014C22.1777 18.3014 22.5077 18.2537 22.603 18.1584C22.691 18.0704 22.735 17.865 22.735 17.5424C22.735 17.2417 22.6544 17.0364 22.493 16.9264C22.339 16.8164 22.0824 16.7614 21.723 16.7614C21.6424 16.7614 21.4774 16.7687 21.228 16.7834V18.2904ZM26.1239 15.5954H30.6889V16.9154H28.1039V18.0594H30.2819V19.2474H28.1039V20.5234H30.6779V21.8654H26.1239V15.5954ZM40.1635 21.8654H38.3155L38.1725 18.4114C38.1505 17.7294 38.1249 17.2124 38.0955 16.8604H38.0625C37.9745 17.139 37.8719 17.5717 37.7545 18.1584L37.6995 18.4334L36.9405 21.8654H35.0925L34.4545 18.7744L34.3445 18.2244C34.1905 17.5424 34.0842 17.0877 34.0255 16.8604H33.9925C33.9632 17.227 33.9375 17.8247 33.9155 18.6534C33.9082 18.7047 33.9045 18.7854 33.9045 18.8954L33.8055 21.8654H31.9465L32.2105 15.5954H35.3565L35.8955 18.3014L36.0275 19.0274C36.0862 18.8 36.1412 18.547 36.1925 18.2684L36.6985 15.5954H39.9105L40.1635 21.8654ZM44.6348 22.0084C43.5421 22.0084 42.7208 21.7517 42.1708 21.2384C41.6281 20.7177 41.3568 19.8854 41.3568 18.7414C41.3568 17.6194 41.6574 16.8017 42.2588 16.2884C42.8601 15.775 43.6558 15.5184 44.6458 15.5184C46.7284 15.5184 47.7698 16.556 47.7698 18.6314C47.7698 19.68 47.5131 20.505 46.9998 21.1064C46.4938 21.7077 45.7054 22.0084 44.6348 22.0084ZM44.5908 20.7104C44.7961 20.7104 44.9684 20.6774 45.1078 20.6114C45.2471 20.538 45.3571 20.4134 45.4378 20.2374C45.5918 19.9367 45.6688 19.4454 45.6688 18.7634C45.6688 18.096 45.5918 17.612 45.4378 17.3114C45.2838 17.0034 45.0014 16.842 44.5908 16.8274C44.4368 16.8274 44.2754 16.8457 44.1068 16.8824C43.9454 16.9117 43.8428 16.9557 43.7988 17.0144C43.7108 17.117 43.6411 17.337 43.5898 17.6744C43.5458 18.0044 43.5238 18.3674 43.5238 18.7634C43.5238 19.3794 43.5824 19.8304 43.6998 20.1164C43.7804 20.329 43.8941 20.483 44.0408 20.5784C44.1874 20.6664 44.3708 20.7104 44.5908 20.7104ZM49.1731 15.5954H51.1531V20.4134H53.7161V21.8654H49.1731V15.5954ZM58.0346 22.0084C56.9419 22.0084 56.1206 21.7517 55.5706 21.2384C55.0279 20.7177 54.7566 19.8854 54.7566 18.7414C54.7566 17.6194 55.0572 16.8017 55.6586 16.2884C56.2599 15.775 57.0556 15.5184 58.0456 15.5184C60.1282 15.5184 61.1696 16.556 61.1696 18.6314C61.1696 19.68 60.9129 20.505 60.3996 21.1064C59.8936 21.7077 59.1052 22.0084 58.0346 22.0084ZM57.9906 20.7104C58.1959 20.7104 58.3682 20.6774 58.5076 20.6114C58.6469 20.538 58.7569 20.4134 58.8376 20.2374C58.9916 19.9367 59.0686 19.4454 59.0686 18.7634C59.0686 18.096 58.9916 17.612 58.8376 17.3114C58.6836 17.0034 58.4012 16.842 57.9906 16.8274C57.8366 16.8274 57.6752 16.8457 57.5066 16.8824C57.3452 16.9117 57.2426 16.9557 57.1986 17.0144C57.1106 17.117 57.0409 17.337 56.9896 17.6744C56.9456 18.0044 56.9236 18.3674 56.9236 18.7634C56.9236 19.3794 56.9822 19.8304 57.0996 20.1164C57.1802 20.329 57.2939 20.483 57.4406 20.5784C57.5872 20.6664 57.7706 20.7104 57.9906 20.7104ZM62.4189 18.2464H65.7189V19.8194H62.4189V18.2464ZM68.9987 17.2894C68.9987 17.4434 69.0757 17.5644 69.2297 17.6524C69.3911 17.7404 69.6404 17.8357 69.9777 17.9384C70.3811 18.0704 70.7111 18.1987 70.9677 18.3234C71.2317 18.448 71.4591 18.6424 71.6497 18.9064C71.8477 19.1704 71.9467 19.515 71.9467 19.9404C71.9467 21.3044 71.0594 21.9864 69.2847 21.9864C68.9914 21.9864 68.6321 21.9607 68.2067 21.9094C67.7887 21.858 67.4074 21.792 67.0627 21.7114C67.0774 21.5574 67.1067 21.3337 67.1507 21.0404C67.2021 20.7397 67.2497 20.516 67.2937 20.3694C67.5504 20.406 67.9354 20.45 68.4487 20.5014C68.9694 20.5527 69.3617 20.5784 69.6257 20.5784C69.7797 20.5784 69.8714 20.5674 69.9007 20.5454C69.9447 20.516 69.9777 20.4684 69.9997 20.4024C70.0291 20.329 70.0437 20.2667 70.0437 20.2154C70.0437 20.0687 69.9741 19.9587 69.8347 19.8854C69.6954 19.8047 69.4571 19.7094 69.1197 19.5994C68.7164 19.4747 68.3827 19.3464 68.1187 19.2144C67.8547 19.0824 67.6237 18.877 67.4257 18.5984C67.2277 18.3197 67.1287 17.953 67.1287 17.4984C67.1287 17.1757 67.2021 16.8604 67.3487 16.5524C67.4954 16.237 67.6457 16.0244 67.7997 15.9144C67.9171 15.8337 68.1591 15.7567 68.5257 15.6834C68.8924 15.61 69.2371 15.5734 69.5597 15.5734C70.3811 15.5734 71.0521 15.6504 71.5727 15.8044C71.5654 15.951 71.5397 16.1527 71.4957 16.4094C71.4591 16.666 71.4187 16.9007 71.3747 17.1134L71.1217 17.1024C70.1684 17.0364 69.5597 17.0034 69.2957 17.0034C69.1857 17.0034 69.1234 17.007 69.1087 17.0144C69.0794 17.029 69.0537 17.062 69.0317 17.1134C69.0097 17.1647 68.9987 17.2234 68.9987 17.2894ZM76.566 21.8654H74.586V16.9704H72.815V15.5954H78.337V16.9704H76.566V21.8654Z" fill="white"/>
<path d="M55.7471 227.668H53.3936V233H54.6777V231.081H55.5029L56.4648 233H57.915L56.792 230.905C57.2803 230.725 57.8076 230.188 57.8076 229.406C57.8076 228.337 57.0459 227.668 55.7471 227.668ZM54.6777 230.183V228.62H55.5566C56.084 228.62 56.4551 228.898 56.4551 229.416C56.4551 229.929 56.0938 230.183 55.542 230.183H54.6777ZM63.415 232.004H60.959V230.778H63.2637V229.851H60.959V228.664H63.415V227.668H59.665V233H63.415V232.004ZM65.0283 231.447C65.043 232.346 65.7607 233.098 67.2891 233.098C68.793 233.098 69.5889 232.385 69.5889 231.384C69.5889 230.446 68.9688 230.036 68.0703 229.86L67.2842 229.709C66.7324 229.597 66.459 229.436 66.459 229.123C66.459 228.781 66.7666 228.522 67.3281 228.522C67.9141 228.522 68.2559 228.815 68.2852 229.187H69.4912C69.4814 228.337 68.749 227.565 67.333 227.565C66.0244 227.565 65.1504 228.22 65.1504 229.221C65.1504 230.09 65.707 230.544 66.7031 230.744L67.4502 230.896C68.0166 231.013 68.2949 231.179 68.2949 231.511C68.2949 231.872 67.9824 232.131 67.3428 232.131C66.708 232.131 66.3076 231.833 66.2783 231.447H65.0283ZM75.1572 232.004H72.7012V230.778H75.0059V229.851H72.7012V228.664H75.1572V227.668H71.4072V233H75.1572V232.004ZM79.4414 233V228.688H80.9893V227.668H76.585V228.688H78.1328V233H79.4414Z" fill="white"/>
<path d="M14.3408 229.475C14.3408 228.483 13.6523 227.668 12.3828 227.668H10.0293V233H11.333V231.33H12.373C13.6426 231.33 14.3408 230.476 14.3408 229.475ZM13.0127 229.504C13.0127 230.041 12.7002 230.383 12.1582 230.383H11.3281V228.63H12.1094C12.6807 228.63 13.0127 228.947 13.0127 229.504ZM20.8027 233V227.668H19.4941V229.792H17.3555V227.668H16.0469V233H17.3555V230.808H19.4941V233H20.8027ZM23.6855 233L24.0713 231.75H25.8535L26.2295 233H27.6162L25.79 227.668H24.208L22.377 233H23.6855ZM24.999 228.801L25.6094 230.842H24.3154L24.9355 228.801H24.999ZM28.873 231.447C28.8877 232.346 29.6055 233.098 31.1338 233.098C32.6377 233.098 33.4336 232.385 33.4336 231.384C33.4336 230.446 32.8135 230.036 31.915 229.86L31.1289 229.709C30.5771 229.597 30.3037 229.436 30.3037 229.123C30.3037 228.781 30.6113 228.522 31.1729 228.522C31.7588 228.522 32.1006 228.815 32.1299 229.187H33.3359C33.3262 228.337 32.5938 227.565 31.1777 227.565C29.8691 227.565 28.9951 228.22 28.9951 229.221C28.9951 230.09 29.5518 230.544 30.5479 230.744L31.2949 230.896C31.8613 231.013 32.1396 231.179 32.1396 231.511C32.1396 231.872 31.8271 232.131 31.1875 232.131C30.5527 232.131 30.1523 231.833 30.123 231.447H28.873ZM39.002 232.004H36.5459V230.778H38.8506V229.851H36.5459V228.664H39.002V227.668H35.252V233H39.002V232.004Z" fill="white"/>
<path d="M60.3711 286.098C61.958 286.098 62.8613 285.126 62.8613 283.637V283.036C62.8613 281.542 61.9531 280.57 60.3662 280.57C58.7842 280.57 57.876 281.537 57.876 283.036V283.637C57.876 285.126 58.7891 286.098 60.3711 286.098ZM60.3711 285.077C59.6436 285.077 59.209 284.535 59.209 283.642V283.021C59.209 282.128 59.6436 281.591 60.3711 281.591C61.0938 281.591 61.5283 282.128 61.5283 283.021V283.642C61.5283 284.535 61.0938 285.077 60.3711 285.077ZM67.0088 285.048C66.3984 285.048 65.9736 284.687 65.9736 283.998V280.668H64.6602V284.145C64.6602 285.336 65.5635 286.098 67.0088 286.098C68.4541 286.098 69.3574 285.331 69.3574 284.145V280.668H68.0488V283.998C68.0488 284.682 67.6191 285.048 67.0088 285.048ZM73.7295 286V281.688H75.2773V280.668H70.873V281.688H72.4209V286H73.7295Z" fill="white"/>
<path d="M20.7314 286V280.668H19.4229V286H20.7314ZM24.0439 286V282.753H24.0928L26.4072 286H27.4473V280.668H26.2217V283.886H26.1729L23.8682 280.668H22.8232V286H24.0439Z" fill="white"/>
<rect x="43.9375" y="333.5" width="7" height="7" rx="1" fill="white"/>
<path d="M49.9481 339.5H48.2471L47.9411 338.204C47.9291 338.156 47.9081 338.075 47.8781 337.961C47.8541 337.841 47.8241 337.754 47.7881 337.7C47.7521 337.64 47.7011 337.601 47.6351 337.583C47.4671 337.589 47.2211 337.592 46.8971 337.592V339.5H45.2771V334.415C46.0031 334.361 46.6811 334.334 47.3111 334.334C47.8811 334.334 48.3431 334.382 48.6971 334.478C49.0511 334.568 49.3151 334.727 49.4891 334.955C49.6691 335.177 49.7591 335.483 49.7591 335.873C49.7591 336.239 49.6751 336.527 49.5071 336.737C49.3391 336.941 49.0691 337.064 48.6971 337.106V337.16C48.9071 337.178 49.0811 337.247 49.2191 337.367C49.3631 337.481 49.4591 337.628 49.5071 337.808L49.9481 339.5ZM46.8971 336.575C46.9511 336.581 47.0561 336.584 47.2121 336.584C47.6741 336.584 47.9441 336.545 48.0221 336.467C48.0941 336.395 48.1301 336.227 48.1301 335.963C48.1301 335.717 48.0641 335.549 47.9321 335.459C47.8061 335.369 47.5961 335.324 47.3021 335.324C47.2361 335.324 47.1011 335.33 46.8971 335.342V336.575Z" fill="#457B9D"/>
<rect x="43.9375" y="299.5" width="7" height="7" rx="1" fill="white"/>
<path d="M45.7294 300.37H47.3494V304.312H49.4464V305.5H45.7294V300.37Z" fill="#457B9D"/>
<rect x="4.9375" y="46.9734" width="37" height="69" rx="18.5" fill="#36617C"/>
<path d="M8.70703 43.4473C8.72168 44.3457 9.43945 45.0977 10.9678 45.0977C12.4717 45.0977 13.2676 44.3848 13.2676 43.3838C13.2676 42.4463 12.6475 42.0361 11.749 41.8604L10.9629 41.709C10.4111 41.5967 10.1377 41.4355 10.1377 41.123C10.1377 40.7812 10.4453 40.5225 11.0068 40.5225C11.5928 40.5225 11.9346 40.8154 11.9639 41.1865H13.1699C13.1602 40.3369 12.4277 39.5654 11.0117 39.5654C9.70312 39.5654 8.8291 40.2197 8.8291 41.2207C8.8291 42.0898 9.38574 42.5439 10.3818 42.7441L11.1289 42.8955C11.6953 43.0127 11.9736 43.1787 11.9736 43.5107C11.9736 43.8721 11.6611 44.1309 11.0215 44.1309C10.3867 44.1309 9.98633 43.833 9.95703 43.4473H8.70703ZM19.8418 45V39.668H18.5332V41.792H16.3945V39.668H15.0859V45H16.3945V42.8076H18.5332V45H19.8418ZM22.7246 45L23.1104 43.75H24.8926L25.2686 45H26.6553L24.8291 39.668H23.2471L21.416 45H22.7246ZM24.0381 40.8008L24.6484 42.8418H23.3545L23.9746 40.8008H24.0381ZM32.5459 41.4746C32.5459 40.4834 31.8574 39.668 30.5879 39.668H28.2344V45H29.5381V43.3301H30.5781C31.8477 43.3301 32.5459 42.4756 32.5459 41.4746ZM31.2178 41.5039C31.2178 42.041 30.9053 42.3828 30.3633 42.3828H29.5332V40.6299H30.3145C30.8857 40.6299 31.2178 40.9473 31.2178 41.5039ZM38.002 44.0039H35.5459V42.7783H37.8506V41.8506H35.5459V40.6641H38.002V39.668H34.252V45H38.002V44.0039Z" fill="white"/>
<path d="M6.9375 82.8212C6.9375 82.8212 8.13032 80.4506 9.4375 80.4941C10.7447 80.5377 11.9375 82.8212 11.9375 82.8212C11.9375 82.8212 13.2859 85.3966 14.4375 85.3966C15.5891 85.3966 16.9375 82.8212 16.9375 82.8212" stroke="white" stroke-width="1.2" stroke-linecap="round"/>
<path d="M31.1875 84.9216L35.6875 81.0252L39.6875 84.9216" stroke="white" stroke-width="1.2" stroke-linecap="round"/>
<rect x="51.4375" y="50" width="30" height="66.1696" rx="15" fill="#36617C"/>
<path d="M51.6709 43.4473C51.6855 44.3457 52.4033 45.0977 53.9316 45.0977C55.4355 45.0977 56.2314 44.3848 56.2314 43.3838C56.2314 42.4463 55.6113 42.0361 54.7129 41.8604L53.9268 41.709C53.375 41.5967 53.1016 41.4355 53.1016 41.123C53.1016 40.7812 53.4092 40.5225 53.9707 40.5225C54.5566 40.5225 54.8984 40.8154 54.9277 41.1865H56.1338C56.124 40.3369 55.3916 39.5654 53.9756 39.5654C52.667 39.5654 51.793 40.2197 51.793 41.2207C51.793 42.0898 52.3496 42.5439 53.3457 42.7441L54.0928 42.8955C54.6592 43.0127 54.9375 43.1787 54.9375 43.5107C54.9375 43.8721 54.625 44.1309 53.9854 44.1309C53.3506 44.1309 52.9502 43.833 52.9209 43.4473H51.6709ZM62.3613 41.4746C62.3613 40.4834 61.6729 39.668 60.4033 39.668H58.0498V45H59.3535V43.3301H60.3936C61.6631 43.3301 62.3613 42.4756 62.3613 41.4746ZM61.0332 41.5039C61.0332 42.041 60.7207 42.3828 60.1787 42.3828H59.3486V40.6299H60.1299C60.7012 40.6299 61.0332 40.9473 61.0332 41.5039ZM67.8174 44.0039H65.3613V42.7783H67.666V41.8506H65.3613V40.6641H67.8174V39.668H64.0674V45H67.8174V44.0039ZM73.5029 44.0039H71.0469V42.7783H73.3516V41.8506H71.0469V40.6641H73.5029V39.668H69.7529V45H73.5029V44.0039ZM80.1602 42.3145C80.1602 40.6348 79.335 39.668 77.6162 39.668H75.4385V45H77.6162C79.3154 45 80.1602 44.0186 80.1602 42.3145ZM78.8223 42.3389C78.8223 43.6475 78.2412 44.0039 77.4014 44.0039H76.7471V40.6641H77.4014C78.4561 40.6641 78.8223 41.3525 78.8223 42.3389Z" fill="white"/>
<rect x="8.4375" y="145" width="30" height="66.1663" rx="15" fill="#36617C"/>
<path d="M8.76868 140H11.2638C12.3917 140 13.2267 139.443 13.2267 138.486C13.2267 137.666 12.6066 137.246 11.9523 137.197V137.144C12.5187 137.036 12.9532 136.641 12.9532 135.981C12.9532 135.166 12.2697 134.668 11.2345 134.668H8.76868V140ZM10.0626 135.571H10.9073C11.4054 135.571 11.674 135.815 11.674 136.191C11.674 136.582 11.4005 136.836 10.7365 136.836H10.0626V135.571ZM10.0626 137.666H10.9757C11.5909 137.666 11.8986 137.949 11.8986 138.389C11.8986 138.823 11.6105 139.102 10.8195 139.102H10.0626V137.666ZM18.6095 138.96H16.3195V134.668H15.0109V140H18.6095V138.96ZM24.0167 139.004H21.5607V137.778H23.8654V136.851H21.5607V135.664H24.0167V134.668H20.2667V140H24.0167V139.004ZM27.173 140V136.753H27.2218L29.5363 140H30.5763V134.668H29.3507V137.886H29.3019L26.9972 134.668H25.9523V140H27.173ZM37.3947 137.314C37.3947 135.635 36.5695 134.668 34.8507 134.668H32.673V140H34.8507C36.5499 140 37.3947 139.019 37.3947 137.314ZM36.0568 137.339C36.0568 138.647 35.4757 139.004 34.6359 139.004H33.9816V135.664H34.6359C35.6906 135.664 36.0568 136.353 36.0568 137.339Z" fill="white"/>
<rect x="52.4325" y="211" width="65" height="28" rx="14" transform="rotate(-90 52.4325 211)" fill="#36617C"/>
<path d="M48.3964 140H50.8915C52.0194 140 52.8544 139.443 52.8544 138.486C52.8544 137.666 52.2343 137.246 51.58 137.197V137.144C52.1464 137.036 52.5809 136.641 52.5809 135.981C52.5809 135.166 51.8973 134.668 50.8622 134.668H48.3964V140ZM49.6903 135.571H50.535C51.0331 135.571 51.3016 135.815 51.3016 136.191C51.3016 136.582 51.0282 136.836 50.3641 136.836H49.6903V135.571ZM49.6903 137.666H50.6034C51.2186 137.666 51.5262 137.949 51.5262 138.389C51.5262 138.823 51.2382 139.102 50.4471 139.102H49.6903V137.666ZM55.8397 140H57.1434V138.086L59.0331 134.668H57.6317L56.5331 136.875H56.4843L55.3856 134.668H53.9501L55.8397 138.115V140ZM64.7821 136.475C64.7821 135.483 64.0936 134.668 62.8241 134.668H60.4706V140H61.7743V138.33H62.8143C64.0839 138.33 64.7821 137.476 64.7821 136.475ZM63.454 136.504C63.454 137.041 63.1415 137.383 62.5995 137.383H61.7694V135.63H62.5507C63.1219 135.63 63.454 135.947 63.454 136.504ZM66.9276 140L67.3134 138.75H69.0956L69.4716 140H70.8583L69.0321 134.668H67.4501L65.619 140H66.9276ZM68.2411 135.801L68.8514 137.842H67.5575L68.1776 135.801H68.2411ZM72.1151 138.447C72.1298 139.346 72.8475 140.098 74.3759 140.098C75.8798 140.098 76.6757 139.385 76.6757 138.384C76.6757 137.446 76.0555 137.036 75.1571 136.86L74.371 136.709C73.8192 136.597 73.5458 136.436 73.5458 136.123C73.5458 135.781 73.8534 135.522 74.4149 135.522C75.0009 135.522 75.3427 135.815 75.3719 136.187H76.578C76.5682 135.337 75.8358 134.565 74.4198 134.565C73.1112 134.565 72.2372 135.22 72.2372 136.221C72.2372 137.09 72.7938 137.544 73.7899 137.744L74.537 137.896C75.1034 138.013 75.3817 138.179 75.3817 138.511C75.3817 138.872 75.0692 139.131 74.4296 139.131C73.7948 139.131 73.3944 138.833 73.3651 138.447H72.1151ZM78.1718 138.447C78.1864 139.346 78.9042 140.098 80.4325 140.098C81.9364 140.098 82.7323 139.385 82.7323 138.384C82.7323 137.446 82.1122 137.036 81.2137 136.86L80.4276 136.709C79.8759 136.597 79.6024 136.436 79.6024 136.123C79.6024 135.781 79.91 135.522 80.4716 135.522C81.0575 135.522 81.3993 135.815 81.4286 136.187H82.6346C82.6249 135.337 81.8925 134.565 80.4764 134.565C79.1678 134.565 78.2938 135.22 78.2938 136.221C78.2938 137.09 78.8505 137.544 79.8466 137.744L80.5936 137.896C81.16 138.013 81.4384 138.179 81.4384 138.511C81.4384 138.872 81.1259 139.131 80.4862 139.131C79.8514 139.131 79.451 138.833 79.4218 138.447H78.1718Z" fill="white"/>
</svg>
