<svg width="91" height="380" viewBox="0 0 91 380" fill="none" xmlns="http://www.w3.org/2000/svg">
<rect x="0.125" width="90" height="380" fill="#457B9D"/>
<g opacity="0.5">
<path fill-rule="evenodd" clip-rule="evenodd" d="M39.083 375.599C38.928 375.747 38.784 375.851 38.651 375.909C38.518 375.968 38.376 375.998 38.225 375.998C38.073 375.998 37.931 375.97 37.798 375.914C37.665 375.858 37.549 375.781 37.45 375.682C37.234 375.466 37.125 375.209 37.125 374.912V369.385C37.125 369.082 37.203 368.847 37.357 368.68C37.623 368.408 37.875 368.272 38.113 368.272C38.351 368.272 38.529 368.296 38.647 368.346C38.764 368.395 38.863 368.457 38.943 368.531C39.049 368.624 39.127 368.723 39.18 368.828C39.233 368.933 39.276 369.011 39.31 369.06C39.344 369.11 39.4 369.134 39.477 369.134C39.554 369.134 39.621 369.11 39.676 369.06L39.834 368.902C40.285 368.482 40.737 368.272 41.188 368.272C41.986 368.272 42.644 368.599 43.164 369.255C43.213 369.323 43.275 369.357 43.349 369.357C43.479 369.357 43.611 369.256 43.744 369.055C43.877 368.854 44.091 368.674 44.388 368.513C44.685 368.352 45.031 368.272 45.427 368.272C45.823 368.272 46.183 368.344 46.508 368.49C46.832 368.635 47.115 368.834 47.356 369.088C47.863 369.62 48.117 370.263 48.117 371.017V374.912C48.117 375.382 47.894 375.713 47.449 375.905C47.313 375.967 47.169 375.998 47.018 375.998C46.866 375.998 46.724 375.97 46.591 375.914C46.458 375.858 46.342 375.781 46.243 375.682C46.033 375.46 45.928 375.203 45.928 374.912V371.045C45.928 370.736 45.851 370.504 45.696 370.349C45.424 370.077 45.174 369.941 44.945 369.941C44.716 369.941 44.537 369.971 44.407 370.029C44.277 370.088 44.159 370.17 44.054 370.275C43.838 370.492 43.73 370.742 43.73 371.026V374.912C43.73 375.382 43.51 375.713 43.071 375.905C42.935 375.967 42.791 375.998 42.64 375.998C42.488 375.998 42.345 375.97 42.208 375.914C42.072 375.858 41.955 375.781 41.856 375.682C41.64 375.466 41.531 375.209 41.531 374.912V371.045C41.531 370.736 41.454 370.504 41.299 370.349C41.027 370.077 40.743 369.941 40.446 369.941C39.951 369.941 39.608 370.133 39.417 370.516C39.355 370.64 39.324 370.779 39.324 370.934V374.912C39.324 375.215 39.243 375.444 39.083 375.599ZM50.344 369.387C50.344 369.084 50.421 368.849 50.576 368.682C50.841 368.41 51.135 368.274 51.457 368.274C51.766 368.274 51.995 368.355 52.143 368.515C52.415 368.794 52.551 369.084 52.551 369.387V374.915C52.551 375.212 52.474 375.437 52.319 375.592C52.047 375.864 51.797 376 51.568 376C51.339 376 51.157 375.971 51.021 375.912C50.885 375.853 50.767 375.777 50.668 375.685C50.452 375.474 50.344 375.218 50.344 374.915V369.387ZM51.452 365.9C51.19 365.9 50.977 365.687 50.977 365.425C50.977 365.162 51.19 364.95 51.452 364.95C51.714 364.95 51.927 365.162 51.927 365.425C51.927 365.687 51.714 365.9 51.452 365.9ZM51.452 364C51.839 364 52.173 364.142 52.454 364.425C52.736 364.709 52.877 364.996 52.877 365.287C52.877 365.577 52.838 365.807 52.76 365.978C52.683 366.148 52.581 366.297 52.454 366.424C52.173 366.708 51.839 366.849 51.452 366.849C51.065 366.849 50.731 366.708 50.449 366.424C50.168 366.141 50.027 365.857 50.027 365.574C50.027 365.092 50.168 364.709 50.449 364.425C50.731 364.142 51.065 364 51.452 364Z" fill="#1D3557"/>
</g>
<path d="M24.3638 22.8654H22.2038V17.5254H20.2718V16.0254H26.2958V17.5254H24.3638V22.8654ZM33.2147 22.8654H30.9467L30.5387 21.1374C30.5227 21.0734 30.4947 20.9654 30.4547 20.8134C30.4227 20.6534 30.3827 20.5374 30.3347 20.4654C30.2867 20.3854 30.2187 20.3334 30.1307 20.3094C29.9067 20.3174 29.5787 20.3214 29.1467 20.3214V22.8654H26.9867V16.0854C27.9547 16.0134 28.8587 15.9774 29.6987 15.9774C30.4587 15.9774 31.0747 16.0414 31.5467 16.1694C32.0187 16.2894 32.3707 16.5014 32.6027 16.8054C32.8427 17.1014 32.9627 17.5094 32.9627 18.0294C32.9627 18.5174 32.8507 18.9014 32.6267 19.1814C32.4027 19.4534 32.0427 19.6174 31.5467 19.6734V19.7454C31.8267 19.7694 32.0587 19.8614 32.2427 20.0214C32.4347 20.1734 32.5627 20.3694 32.6267 20.6094L33.2147 22.8654ZM29.1467 18.9654C29.2187 18.9734 29.3587 18.9774 29.5667 18.9774C30.1827 18.9774 30.5427 18.9254 30.6467 18.8214C30.7427 18.7254 30.7907 18.5014 30.7907 18.1494C30.7907 17.8214 30.7027 17.5974 30.5267 17.4774C30.3587 17.3574 30.0787 17.2974 29.6867 17.2974C29.5987 17.2974 29.4187 17.3054 29.1467 17.3214V18.9654ZM33.8877 16.0254H38.8677V17.4654H36.0477V18.7134H38.4237V20.0094H36.0477V21.4014H38.8557V22.8654H33.8877V16.0254ZM48.6036 22.8654H46.5876L46.4316 19.0974C46.4076 18.3534 46.3796 17.7894 46.3476 17.4054H46.3116C46.2156 17.7094 46.1036 18.1814 45.9756 18.8214L45.9156 19.1214L45.0876 22.8654H43.0716L42.3756 19.4934L42.2556 18.8934C42.0876 18.1494 41.9716 17.6534 41.9076 17.4054H41.8716C41.8396 17.8054 41.8116 18.4574 41.7876 19.3614C41.7796 19.4174 41.7756 19.5054 41.7756 19.6254L41.6676 22.8654H39.6396L39.9276 16.0254H43.3596L43.9476 18.9774L44.0916 19.7694C44.1556 19.5214 44.2156 19.2454 44.2716 18.9414L44.8236 16.0254H48.3276L48.6036 22.8654ZM52.8813 23.0214C51.6893 23.0214 50.7933 22.7414 50.1933 22.1814C49.6013 21.6134 49.3053 20.7054 49.3053 19.4574C49.3053 18.2334 49.6333 17.3414 50.2893 16.7814C50.9453 16.2214 51.8133 15.9414 52.8933 15.9414C55.1653 15.9414 56.3013 17.0734 56.3013 19.3374C56.3013 20.4814 56.0213 21.3814 55.4613 22.0374C54.9093 22.6934 54.0493 23.0214 52.8813 23.0214ZM52.8333 21.6054C53.0573 21.6054 53.2453 21.5694 53.3973 21.4974C53.5493 21.4174 53.6693 21.2814 53.7573 21.0894C53.9253 20.7614 54.0093 20.2254 54.0093 19.4814C54.0093 18.7534 53.9253 18.2254 53.7573 17.8974C53.5893 17.5614 53.2813 17.3854 52.8333 17.3694C52.6653 17.3694 52.4893 17.3894 52.3053 17.4294C52.1293 17.4614 52.0173 17.5094 51.9693 17.5734C51.8733 17.6854 51.7973 17.9254 51.7413 18.2934C51.6933 18.6534 51.6693 19.0494 51.6693 19.4814C51.6693 20.1534 51.7333 20.6454 51.8613 20.9574C51.9493 21.1894 52.0733 21.3574 52.2333 21.4614C52.3933 21.5574 52.5933 21.6054 52.8333 21.6054ZM57.2323 16.0254H59.3923V21.2814H62.1883V22.8654H57.2323V16.0254ZM66.2993 23.0214C65.1073 23.0214 64.2113 22.7414 63.6113 22.1814C63.0193 21.6134 62.7233 20.7054 62.7233 19.4574C62.7233 18.2334 63.0513 17.3414 63.7073 16.7814C64.3633 16.2214 65.2313 15.9414 66.3113 15.9414C68.5833 15.9414 69.7193 17.0734 69.7193 19.3374C69.7193 20.4814 69.4393 21.3814 68.8793 22.0374C68.3273 22.6934 67.4673 23.0214 66.2993 23.0214ZM66.2513 21.6054C66.4753 21.6054 66.6633 21.5694 66.8153 21.4974C66.9673 21.4174 67.0873 21.2814 67.1753 21.0894C67.3433 20.7614 67.4273 20.2254 67.4273 19.4814C67.4273 18.7534 67.3433 18.2254 67.1753 17.8974C67.0073 17.5614 66.6993 17.3854 66.2513 17.3694C66.0833 17.3694 65.9073 17.3894 65.7233 17.4294C65.5473 17.4614 65.4353 17.5094 65.3873 17.5734C65.2913 17.6854 65.2153 17.9254 65.1593 18.2934C65.1113 18.6534 65.0873 19.0494 65.0873 19.4814C65.0873 20.1534 65.1513 20.6454 65.2793 20.9574C65.3673 21.1894 65.4913 21.3574 65.6513 21.4614C65.8113 21.5574 66.0113 21.6054 66.2513 21.6054Z" fill="#A8DADC"/>
<path d="M41.0265 252.316C41.4585 252.836 41.6745 253.448 41.6745 254.152C41.6745 254.704 41.5425 255.2 41.2785 255.64C41.0145 256.08 40.6505 256.428 40.1865 256.684C39.7225 256.932 39.2025 257.056 38.6265 257.056C37.9385 257.056 37.3385 256.88 36.8265 256.528L36.1185 257.236L35.5545 256.672L36.2265 255.988C35.7945 255.468 35.5785 254.856 35.5785 254.152C35.5785 253.608 35.7105 253.116 35.9745 252.676C36.2385 252.228 36.6025 251.88 37.0665 251.632C37.5385 251.376 38.0585 251.248 38.6265 251.248C39.3065 251.248 39.9105 251.424 40.4385 251.776L41.1345 251.08L41.6985 251.644L41.0265 252.316ZM36.6465 254.152C36.6465 254.568 36.7465 254.94 36.9465 255.268L39.7665 252.448C39.4225 252.208 39.0425 252.088 38.6265 252.088C38.2665 252.088 37.9345 252.18 37.6305 252.364C37.3265 252.548 37.0865 252.8 36.9105 253.12C36.7345 253.432 36.6465 253.776 36.6465 254.152ZM40.6065 254.152C40.6065 253.744 40.5065 253.372 40.3065 253.036L37.4865 255.868C37.8305 256.108 38.2105 256.228 38.6265 256.228C38.9945 256.228 39.3265 256.136 39.6225 255.952C39.9265 255.768 40.1665 255.52 40.3425 255.208C40.5185 254.888 40.6065 254.536 40.6065 254.152Z" fill="#A8DADC"/>
<path d="M60.6326 287.156C59.6726 287.156 58.9526 286.932 58.4726 286.484C58.0006 286.028 57.7646 285.312 57.7646 284.336C57.7646 283.8 57.8126 283.332 57.9086 282.932C58.0126 282.524 58.1366 282.24 58.2806 282.08C58.4646 281.872 58.8006 281.7 59.2886 281.564C59.7846 281.428 60.2486 281.36 60.6806 281.36C61.7126 281.36 62.4486 281.58 62.8886 282.02C63.3286 282.46 63.5486 283.164 63.5486 284.132C63.5486 285.172 63.3126 285.936 62.8406 286.424C62.3686 286.912 61.6326 287.156 60.6326 287.156ZM60.6686 285.752C60.9806 285.752 61.1846 285.644 61.2806 285.428C61.3766 285.204 61.4246 284.812 61.4246 284.252C61.4246 283.86 61.4046 283.56 61.3646 283.352C61.3246 283.136 61.2486 282.98 61.1366 282.884C61.0326 282.78 60.8686 282.728 60.6446 282.728C60.3246 282.728 60.1406 282.756 60.0926 282.812C60.0286 282.868 59.9766 283.044 59.9366 283.34C59.8966 283.636 59.8766 283.944 59.8766 284.264C59.8766 284.808 59.9286 285.192 60.0326 285.416C60.1446 285.64 60.3566 285.752 60.6686 285.752ZM69.8518 281.48V287H68.1838L67.9558 286.076C67.3798 286.772 66.6918 287.12 65.8918 287.12C65.6038 287.12 65.3318 287.08 65.0758 287C64.8278 286.92 64.6398 286.804 64.5118 286.652C64.4398 286.564 64.3838 286.344 64.3438 285.992C64.3118 285.64 64.2958 285.104 64.2958 284.384V281.48H66.3478V284.36C66.3478 284.52 66.3518 284.708 66.3598 284.924C66.3678 285.14 66.3918 285.276 66.4318 285.332C66.4878 285.412 66.6478 285.452 66.9118 285.452L67.1038 285.44C67.3278 285.432 67.5598 285.38 67.7998 285.284V281.48H69.8518ZM73.3798 284.732C73.3798 284.876 73.3838 285.028 73.3918 285.188C73.3998 285.34 73.4238 285.436 73.4638 285.476C73.5198 285.532 73.7158 285.56 74.0518 285.56L74.4598 285.548C74.5318 285.932 74.5678 286.376 74.5678 286.88C74.4158 286.936 74.1918 286.988 73.8958 287.036C73.6078 287.084 73.3318 287.108 73.0678 287.108C72.5158 287.108 72.0878 286.988 71.7838 286.748C71.4878 286.5 71.3398 286.12 71.3398 285.608V282.656H70.4398V281.564L71.3398 281.48L71.8798 280.16L73.3798 280.076V281.48H74.6518V282.656H73.3798V284.732Z" fill="#A8DADC"/>
<path d="M19.8803 280.796C19.6083 280.796 19.3723 280.704 19.1723 280.52C18.9803 280.336 18.8843 280.116 18.8843 279.86C18.8843 279.604 18.9803 279.384 19.1723 279.2C19.3723 279.016 19.6083 278.924 19.8803 278.924C20.1523 278.924 20.3843 279.016 20.5763 279.2C20.7683 279.384 20.8643 279.604 20.8643 279.86C20.8643 280.116 20.7683 280.336 20.5763 280.52C20.3843 280.704 20.1523 280.796 19.8803 280.796ZM18.8483 281.48H20.9003V287H18.8483V281.48ZM27.2578 281.828C27.3298 281.916 27.3818 282.136 27.4138 282.488C27.4538 282.84 27.4738 283.376 27.4738 284.096V287H25.4218V284.12V283.628C25.4218 283.372 25.4018 283.212 25.3618 283.148C25.2978 283.068 25.1498 283.028 24.9178 283.028C24.8058 283.028 24.7218 283.032 24.6658 283.04C24.4418 283.048 24.2098 283.1 23.9698 283.196V287H21.9178V281.48H23.5858L23.8138 282.404C24.3898 281.708 25.0778 281.36 25.8778 281.36C26.1658 281.36 26.4338 281.4 26.6818 281.48C26.9378 281.56 27.1298 281.676 27.2578 281.828Z" fill="#A8DADC"/>
<path d="M12.9442 226.36C13.5202 226.36 13.9762 226.552 14.3122 226.936C14.6562 227.312 14.8282 227.972 14.8282 228.916C14.8282 229.62 14.7602 230.196 14.6242 230.644C14.4882 231.084 14.3322 231.376 14.1562 231.52C13.9802 231.664 13.6722 231.78 13.2322 231.868C12.8002 231.956 12.3522 232 11.8882 232C11.7522 232 11.5242 231.992 11.2042 231.976V233.68L9.15216 233.764V226.48H10.8322L11.0362 227.332C11.2442 227.036 11.5082 226.8 11.8282 226.624C12.1562 226.448 12.5282 226.36 12.9442 226.36ZM12.4642 230.536C12.5522 230.472 12.6162 230.292 12.6562 229.996C12.6962 229.692 12.7162 229.404 12.7162 229.132C12.7162 228.684 12.6602 228.352 12.5482 228.136C12.4362 227.92 12.2122 227.812 11.8762 227.812C11.6362 227.812 11.4122 227.836 11.2042 227.884V230.548L11.5402 230.584C11.6442 230.592 11.7922 230.596 11.9842 230.596C12.2562 230.596 12.4162 230.576 12.4642 230.536ZM20.9726 226.828C21.0446 226.916 21.0966 227.136 21.1286 227.488C21.1686 227.84 21.1886 228.376 21.1886 229.096V232H19.1366V229.12C19.1366 229.088 19.1366 228.932 19.1366 228.652C19.1366 228.364 19.1166 228.188 19.0766 228.124C19.0526 228.092 18.9926 228.068 18.8966 228.052C18.8086 228.036 18.7046 228.028 18.5846 228.028L18.3806 228.04C18.1566 228.048 17.9246 228.1 17.6846 228.196V232H15.6326V224.8L17.6846 224.716V226.12C17.6846 226.696 17.6646 227.08 17.6246 227.272L17.6366 227.284C18.1806 226.668 18.8326 226.36 19.5926 226.36C19.8806 226.36 20.1486 226.4 20.3966 226.48C20.6526 226.56 20.8446 226.676 20.9726 226.828ZM25.4245 232L25.2325 231.244C24.8645 231.844 24.3525 232.144 23.6965 232.144C23.1605 232.144 22.7205 231.996 22.3765 231.7C22.0405 231.396 21.8725 230.972 21.8725 230.428C21.8725 230.092 21.9685 229.8 22.1605 229.552C22.3605 229.296 22.6325 229.116 22.9765 229.012C23.4245 228.884 24.1165 228.812 25.0525 228.796C25.0525 228.268 25.0285 227.988 24.9805 227.956C24.9405 227.924 24.8125 227.908 24.5965 227.908C24.4605 227.908 24.2725 227.916 24.0325 227.932C23.6485 227.948 23.1285 227.992 22.4725 228.064C22.4085 227.632 22.3605 227.168 22.3285 226.672C22.7525 226.584 23.1965 226.512 23.6605 226.456C24.1245 226.392 24.5405 226.36 24.9085 226.36C25.5485 226.36 26.0285 226.468 26.3485 226.684C26.6685 226.892 26.8765 227.168 26.9725 227.512C27.0685 227.856 27.1125 228.292 27.1045 228.82L27.0925 230.584L27.1285 232H25.4245ZM24.3925 230.8C24.6005 230.8 24.8205 230.76 25.0525 230.68V229.792H24.9565C24.3645 229.792 24.0365 229.824 23.9725 229.888C23.9325 229.928 23.9005 229.988 23.8765 230.068C23.8605 230.148 23.8525 230.224 23.8525 230.296C23.8525 230.488 23.8965 230.62 23.9845 230.692C24.0725 230.764 24.2085 230.8 24.3925 230.8ZM32.4951 230.128C32.4951 230.84 32.2671 231.352 31.8111 231.664C31.3631 231.976 30.7231 232.132 29.8911 232.132C29.3071 232.132 28.6351 232.048 27.8751 231.88C27.8911 231.72 27.9271 231.492 27.9831 231.196C28.0471 230.892 28.0991 230.66 28.1391 230.5C28.4271 230.548 28.7471 230.588 29.0991 230.62C29.4511 230.644 29.7511 230.656 29.9991 230.656C30.2151 230.656 30.3471 230.644 30.3951 230.62C30.4031 230.612 30.4111 230.592 30.4191 230.56C30.4351 230.52 30.4431 230.48 30.4431 230.44C30.4431 230.28 30.3431 230.172 30.1431 230.116C30.0791 230.1 29.8351 230.032 29.4111 229.912C28.9871 229.792 28.6391 229.576 28.3671 229.264C28.1031 228.944 27.9711 228.548 27.9711 228.076C27.9711 227.828 28.0271 227.552 28.1391 227.248C28.2511 226.944 28.3711 226.752 28.4991 226.672C28.5951 226.608 28.8271 226.544 29.1951 226.48C29.5631 226.408 29.9031 226.372 30.2151 226.372C30.8791 226.372 31.5471 226.42 32.2191 226.516C32.2191 226.66 32.1991 226.904 32.1591 227.248C32.1191 227.584 32.0831 227.796 32.0511 227.884C31.3711 227.796 30.8231 227.752 30.4071 227.752C30.1911 227.752 30.0511 227.764 29.9871 227.788C29.9711 227.796 29.9551 227.82 29.9391 227.86C29.9231 227.892 29.9151 227.936 29.9151 227.992C29.9151 228.104 29.9511 228.184 30.0231 228.232C30.0951 228.288 30.2831 228.356 30.5871 228.436C30.9471 228.54 31.2551 228.648 31.5111 228.76C31.7751 228.872 32.0031 229.04 32.1951 229.264C32.3951 229.488 32.4951 229.776 32.4951 230.128ZM36.5236 230.56C36.7236 230.56 37.0956 230.54 37.6396 230.5C37.7116 230.5 37.8436 230.492 38.0356 230.476L38.2156 231.712C37.5996 232 36.7996 232.144 35.8156 232.144C34.8956 232.144 34.1876 231.912 33.6916 231.448C33.2036 230.984 32.9596 230.284 32.9596 229.348C32.9596 228.868 33.0196 228.404 33.1396 227.956C33.2676 227.508 33.4116 227.196 33.5716 227.02C33.7396 226.844 34.0516 226.692 34.5076 226.564C34.9636 226.436 35.4156 226.372 35.8636 226.372C36.5836 226.372 37.1236 226.5 37.4836 226.756C37.8436 227.012 38.0796 227.368 38.1916 227.824C38.3036 228.272 38.3596 228.876 38.3596 229.636C37.8156 229.668 37.2836 229.684 36.7636 229.684H35.0596C35.0596 229.94 35.1116 230.132 35.2156 230.26C35.3276 230.388 35.4836 230.472 35.6836 230.512C35.8836 230.544 36.1636 230.56 36.5236 230.56ZM35.1796 227.8C35.1316 227.824 35.0956 227.928 35.0716 228.112C35.0476 228.296 35.0316 228.504 35.0236 228.736H35.6476C36.0236 228.736 36.2956 228.732 36.4636 228.724C36.4636 228.34 36.4076 228.068 36.2956 227.908C36.1916 227.748 36.0076 227.668 35.7436 227.668C35.5276 227.668 35.3396 227.712 35.1796 227.8Z" fill="#A8DADC"/>
<rect x="4.625" y="47" width="37" height="69" rx="18.5" fill="#36617C"/>
<path d="M12.6162 43.1546C12.6162 43.8666 12.3882 44.3786 11.9322 44.6906C11.4842 45.0026 10.8442 45.1586 10.0122 45.1586C9.42816 45.1586 8.75616 45.0746 7.99616 44.9066C8.01216 44.7466 8.04816 44.5186 8.10416 44.2226C8.16816 43.9186 8.22016 43.6866 8.26016 43.5266C8.54816 43.5746 8.86816 43.6146 9.22016 43.6466C9.57216 43.6706 9.87216 43.6826 10.1202 43.6826C10.3362 43.6826 10.4682 43.6706 10.5162 43.6466C10.5242 43.6386 10.5322 43.6186 10.5402 43.5866C10.5562 43.5466 10.5642 43.5066 10.5642 43.4666C10.5642 43.3066 10.4642 43.1986 10.2642 43.1426C10.2002 43.1266 9.95616 43.0586 9.53216 42.9386C9.10816 42.8186 8.76016 42.6026 8.48816 42.2906C8.22416 41.9706 8.09216 41.5746 8.09216 41.1026C8.09216 40.8546 8.14816 40.5786 8.26016 40.2746C8.37216 39.9706 8.49216 39.7786 8.62016 39.6986C8.71616 39.6346 8.94816 39.5706 9.31616 39.5066C9.68416 39.4346 10.0242 39.3986 10.3362 39.3986C11.0002 39.3986 11.6682 39.4466 12.3402 39.5426C12.3402 39.6866 12.3202 39.9306 12.2802 40.2746C12.2402 40.6106 12.2042 40.8226 12.1722 40.9106C11.4922 40.8226 10.9442 40.7786 10.5282 40.7786C10.3122 40.7786 10.1722 40.7906 10.1082 40.8146C10.0922 40.8226 10.0762 40.8466 10.0602 40.8866C10.0442 40.9186 10.0362 40.9626 10.0362 41.0186C10.0362 41.1306 10.0722 41.2106 10.1442 41.2586C10.2162 41.3146 10.4042 41.3826 10.7082 41.4626C11.0682 41.5666 11.3762 41.6746 11.6322 41.7866C11.8962 41.8986 12.1242 42.0666 12.3162 42.2906C12.5162 42.5146 12.6162 42.8026 12.6162 43.1546ZM18.6367 39.8546C18.7087 39.9426 18.7607 40.1626 18.7927 40.5146C18.8327 40.8666 18.8527 41.4026 18.8527 42.1226V45.0266H16.8007V42.1466C16.8007 42.1146 16.8007 41.9586 16.8007 41.6786C16.8007 41.3906 16.7807 41.2146 16.7407 41.1506C16.7167 41.1186 16.6567 41.0946 16.5607 41.0786C16.4727 41.0626 16.3687 41.0546 16.2487 41.0546L16.0447 41.0666C15.8207 41.0746 15.5887 41.1266 15.3487 41.2226V45.0266H13.2967V37.8266L15.3487 37.7426V39.1466C15.3487 39.7226 15.3287 40.1066 15.2887 40.2986L15.3007 40.3106C15.8447 39.6946 16.4967 39.3866 17.2567 39.3866C17.5447 39.3866 17.8127 39.4266 18.0607 39.5066C18.3167 39.5866 18.5087 39.7026 18.6367 39.8546ZM23.0886 45.0266L22.8966 44.2706C22.5286 44.8706 22.0166 45.1706 21.3606 45.1706C20.8246 45.1706 20.3846 45.0226 20.0406 44.7266C19.7046 44.4226 19.5366 43.9986 19.5366 43.4546C19.5366 43.1186 19.6326 42.8266 19.8246 42.5786C20.0246 42.3226 20.2966 42.1426 20.6406 42.0386C21.0886 41.9106 21.7806 41.8386 22.7166 41.8226C22.7166 41.2946 22.6926 41.0146 22.6446 40.9826C22.6046 40.9506 22.4766 40.9346 22.2606 40.9346C22.1246 40.9346 21.9366 40.9426 21.6966 40.9586C21.3126 40.9746 20.7926 41.0186 20.1366 41.0906C20.0726 40.6586 20.0246 40.1946 19.9926 39.6986C20.4166 39.6106 20.8606 39.5386 21.3246 39.4826C21.7886 39.4186 22.2046 39.3866 22.5726 39.3866C23.2126 39.3866 23.6926 39.4946 24.0126 39.7106C24.3326 39.9186 24.5406 40.1946 24.6366 40.5386C24.7326 40.8826 24.7766 41.3186 24.7686 41.8466L24.7566 43.6106L24.7926 45.0266H23.0886ZM22.0566 43.8266C22.2646 43.8266 22.4846 43.7866 22.7166 43.7066V42.8186H22.6206C22.0286 42.8186 21.7006 42.8506 21.6366 42.9146C21.5966 42.9546 21.5646 43.0146 21.5406 43.0946C21.5246 43.1746 21.5166 43.2506 21.5166 43.3226C21.5166 43.5146 21.5606 43.6466 21.6486 43.7186C21.7366 43.7906 21.8726 43.8266 22.0566 43.8266ZM29.4871 39.3866C30.0631 39.3866 30.5191 39.5786 30.8551 39.9626C31.1991 40.3386 31.3711 40.9986 31.3711 41.9426C31.3711 42.6466 31.3031 43.2226 31.1671 43.6706C31.0311 44.1106 30.8751 44.4026 30.6991 44.5466C30.5231 44.6906 30.2151 44.8066 29.7751 44.8946C29.3431 44.9826 28.8951 45.0266 28.4311 45.0266C28.2951 45.0266 28.0671 45.0186 27.7471 45.0026V46.7066L25.6951 46.7906V39.5066H27.3751L27.5791 40.3586C27.7871 40.0626 28.0511 39.8266 28.3711 39.6506C28.6991 39.4746 29.0711 39.3866 29.4871 39.3866ZM29.0071 43.5626C29.0951 43.4986 29.1591 43.3186 29.1991 43.0226C29.2391 42.7186 29.2591 42.4306 29.2591 42.1586C29.2591 41.7106 29.2031 41.3786 29.0911 41.1626C28.9791 40.9466 28.7551 40.8386 28.4191 40.8386C28.1791 40.8386 27.9551 40.8626 27.7471 40.9106V43.5746L28.0831 43.6106C28.1871 43.6186 28.3351 43.6226 28.5271 43.6226C28.7991 43.6226 28.9591 43.6026 29.0071 43.5626ZM35.5236 43.5866C35.7236 43.5866 36.0956 43.5666 36.6396 43.5266C36.7116 43.5266 36.8436 43.5186 37.0356 43.5026L37.2156 44.7386C36.5996 45.0266 35.7996 45.1706 34.8156 45.1706C33.8956 45.1706 33.1876 44.9386 32.6916 44.4746C32.2036 44.0106 31.9596 43.3106 31.9596 42.3746C31.9596 41.8946 32.0196 41.4306 32.1396 40.9826C32.2676 40.5346 32.4116 40.2226 32.5716 40.0466C32.7396 39.8706 33.0516 39.7186 33.5076 39.5906C33.9636 39.4626 34.4156 39.3986 34.8636 39.3986C35.5836 39.3986 36.1236 39.5266 36.4836 39.7826C36.8436 40.0386 37.0796 40.3946 37.1916 40.8506C37.3036 41.2986 37.3596 41.9026 37.3596 42.6626C36.8156 42.6946 36.2836 42.7106 35.7636 42.7106H34.0596C34.0596 42.9666 34.1116 43.1586 34.2156 43.2866C34.3276 43.4146 34.4836 43.4986 34.6836 43.5386C34.8836 43.5706 35.1636 43.5866 35.5236 43.5866ZM34.1796 40.8266C34.1316 40.8506 34.0956 40.9546 34.0716 41.1386C34.0476 41.3226 34.0316 41.5306 34.0236 41.7626H34.6476C35.0236 41.7626 35.2956 41.7586 35.4636 41.7506C35.4636 41.3666 35.4076 41.0946 35.2956 40.9346C35.1916 40.7746 35.0076 40.6946 34.7436 40.6946C34.5276 40.6946 34.3396 40.7386 34.1796 40.8266Z" fill="#A8DADC"/>
<path d="M6.625 82.8478C6.625 82.8478 7.81782 80.4772 9.125 80.5207C10.4322 80.5643 11.625 82.8478 11.625 82.8478C11.625 82.8478 12.9734 85.4233 14.125 85.4233C15.2766 85.4233 16.625 82.8478 16.625 82.8478" stroke="#A8DADC" stroke-width="1.2" stroke-linecap="round"/>
<path d="M30.875 84.9482L35.375 81.0518L39.375 84.9482" stroke="#A8DADC" stroke-width="1.2" stroke-linecap="round"/>
<rect x="51.125" y="50" width="30" height="66.1696" rx="15" fill="#36617C"/>
<path d="M55.622 43.1546C55.622 43.8666 55.394 44.3786 54.938 44.6906C54.49 45.0026 53.85 45.1586 53.018 45.1586C52.434 45.1586 51.762 45.0746 51.002 44.9066C51.018 44.7466 51.054 44.5186 51.11 44.2226C51.174 43.9186 51.226 43.6866 51.266 43.5266C51.554 43.5746 51.874 43.6146 52.226 43.6466C52.578 43.6706 52.878 43.6826 53.126 43.6826C53.342 43.6826 53.474 43.6706 53.522 43.6466C53.53 43.6386 53.538 43.6186 53.546 43.5866C53.562 43.5466 53.57 43.5066 53.57 43.4666C53.57 43.3066 53.47 43.1986 53.27 43.1426C53.206 43.1266 52.962 43.0586 52.538 42.9386C52.114 42.8186 51.766 42.6026 51.494 42.2906C51.23 41.9706 51.098 41.5746 51.098 41.1026C51.098 40.8546 51.154 40.5786 51.266 40.2746C51.378 39.9706 51.498 39.7786 51.626 39.6986C51.722 39.6346 51.954 39.5706 52.322 39.5066C52.69 39.4346 53.03 39.3986 53.342 39.3986C54.006 39.3986 54.674 39.4466 55.346 39.5426C55.346 39.6866 55.326 39.9306 55.286 40.2746C55.246 40.6106 55.21 40.8226 55.178 40.9106C54.498 40.8226 53.95 40.7786 53.534 40.7786C53.318 40.7786 53.178 40.7906 53.114 40.8146C53.098 40.8226 53.082 40.8466 53.066 40.8866C53.05 40.9186 53.042 40.9626 53.042 41.0186C53.042 41.1306 53.078 41.2106 53.15 41.2586C53.222 41.3146 53.41 41.3826 53.714 41.4626C54.074 41.5666 54.382 41.6746 54.638 41.7866C54.902 41.8986 55.13 42.0666 55.322 42.2906C55.522 42.5146 55.622 42.8026 55.622 43.1546ZM60.0945 39.3866C60.6705 39.3866 61.1265 39.5786 61.4625 39.9626C61.8065 40.3386 61.9785 40.9986 61.9785 41.9426C61.9785 42.6466 61.9105 43.2226 61.7745 43.6706C61.6385 44.1106 61.4825 44.4026 61.3065 44.5466C61.1305 44.6906 60.8225 44.8066 60.3825 44.8946C59.9505 44.9826 59.5025 45.0266 59.0385 45.0266C58.9025 45.0266 58.6745 45.0186 58.3545 45.0026V46.7066L56.3025 46.7906V39.5066H57.9825L58.1865 40.3586C58.3945 40.0626 58.6585 39.8266 58.9785 39.6506C59.3065 39.4746 59.6785 39.3866 60.0945 39.3866ZM59.6145 43.5626C59.7025 43.4986 59.7665 43.3186 59.8065 43.0226C59.8465 42.7186 59.8665 42.4306 59.8665 42.1586C59.8665 41.7106 59.8105 41.3786 59.6985 41.1626C59.5865 40.9466 59.3625 40.8386 59.0265 40.8386C58.7865 40.8386 58.5625 40.8626 58.3545 40.9106V43.5746L58.6905 43.6106C58.7945 43.6186 58.9425 43.6226 59.1345 43.6226C59.4065 43.6226 59.5665 43.6026 59.6145 43.5626ZM66.131 43.5866C66.331 43.5866 66.703 43.5666 67.247 43.5266C67.319 43.5266 67.451 43.5186 67.643 43.5026L67.823 44.7386C67.207 45.0266 66.407 45.1706 65.423 45.1706C64.503 45.1706 63.795 44.9386 63.299 44.4746C62.811 44.0106 62.567 43.3106 62.567 42.3746C62.567 41.8946 62.627 41.4306 62.747 40.9826C62.875 40.5346 63.019 40.2226 63.179 40.0466C63.347 39.8706 63.659 39.7186 64.115 39.5906C64.571 39.4626 65.023 39.3986 65.471 39.3986C66.191 39.3986 66.731 39.5266 67.091 39.7826C67.451 40.0386 67.687 40.3946 67.799 40.8506C67.911 41.2986 67.967 41.9026 67.967 42.6626C67.423 42.6946 66.891 42.7106 66.371 42.7106H64.667C64.667 42.9666 64.719 43.1586 64.823 43.2866C64.935 43.4146 65.091 43.4986 65.291 43.5386C65.491 43.5706 65.771 43.5866 66.131 43.5866ZM64.787 40.8266C64.739 40.8506 64.703 40.9546 64.679 41.1386C64.655 41.3226 64.639 41.5306 64.631 41.7626H65.255C65.631 41.7626 65.903 41.7586 66.071 41.7506C66.071 41.3666 66.015 41.0946 65.903 40.9346C65.799 40.7746 65.615 40.6946 65.351 40.6946C65.135 40.6946 64.947 40.7386 64.787 40.8266ZM72.0373 43.5866C72.2373 43.5866 72.6093 43.5666 73.1533 43.5266C73.2253 43.5266 73.3573 43.5186 73.5493 43.5026L73.7293 44.7386C73.1133 45.0266 72.3133 45.1706 71.3293 45.1706C70.4093 45.1706 69.7013 44.9386 69.2053 44.4746C68.7173 44.0106 68.4733 43.3106 68.4733 42.3746C68.4733 41.8946 68.5333 41.4306 68.6533 40.9826C68.7813 40.5346 68.9253 40.2226 69.0853 40.0466C69.2533 39.8706 69.5653 39.7186 70.0213 39.5906C70.4773 39.4626 70.9293 39.3986 71.3773 39.3986C72.0973 39.3986 72.6373 39.5266 72.9973 39.7826C73.3573 40.0386 73.5933 40.3946 73.7053 40.8506C73.8173 41.2986 73.8733 41.9026 73.8733 42.6626C73.3293 42.6946 72.7973 42.7106 72.2773 42.7106H70.5733C70.5733 42.9666 70.6253 43.1586 70.7293 43.2866C70.8413 43.4146 70.9973 43.4986 71.1973 43.5386C71.3973 43.5706 71.6773 43.5866 72.0373 43.5866ZM70.6933 40.8266C70.6453 40.8506 70.6093 40.9546 70.5853 41.1386C70.5613 41.3226 70.5453 41.5306 70.5373 41.7626H71.1613C71.5373 41.7626 71.8093 41.7586 71.9773 41.7506C71.9773 41.3666 71.9213 41.0946 71.8093 40.9346C71.7053 40.7746 71.5213 40.6946 71.2573 40.6946C71.0413 40.6946 70.8533 40.7386 70.6933 40.8266ZM80.0915 37.7426V45.0266H78.3995L78.2315 44.1026C78.0715 44.4146 77.8355 44.6626 77.5235 44.8466C77.2115 45.0306 76.8595 45.1226 76.4675 45.1226C75.8435 45.1226 75.3435 44.8986 74.9675 44.4506C74.5995 44.0026 74.4155 43.3306 74.4155 42.4346C74.4155 41.7546 74.4955 41.1946 74.6555 40.7546C74.8155 40.3146 75.0035 39.9986 75.2195 39.8066C75.3555 39.6866 75.6315 39.5866 76.0475 39.5066C76.4715 39.4266 76.8475 39.3866 77.1755 39.3866C77.4635 39.3866 77.7595 39.4146 78.0635 39.4706C78.0395 39.0866 78.0275 38.8746 78.0275 38.8346V37.8266L80.0915 37.7426ZM77.3675 43.5146C77.5835 43.5146 77.8075 43.4786 78.0395 43.4066V40.8026C77.8075 40.7706 77.5515 40.7546 77.2715 40.7546C77.0315 40.7546 76.8795 40.7746 76.8155 40.8146C76.7275 40.8786 76.6555 41.0626 76.5995 41.3666C76.5515 41.6626 76.5275 41.9746 76.5275 42.3026C76.5275 42.7906 76.5995 43.1146 76.7435 43.2746C76.8955 43.4346 77.1035 43.5146 77.3675 43.5146Z" fill="#A8DADC"/>
<rect x="8.125" y="145" width="30" height="66.1663" rx="15" fill="#36617C"/>
<path d="M13.1034 134.39C13.7274 134.39 14.2074 134.578 14.5434 134.954C14.8874 135.33 15.0594 135.994 15.0594 136.946C15.0594 137.642 14.9874 138.238 14.8434 138.734C14.7074 139.222 14.5514 139.534 14.3754 139.67C14.1674 139.838 13.8594 139.962 13.4514 140.042C13.0434 140.122 12.5794 140.162 12.0594 140.162C11.6594 140.162 11.2114 140.13 10.7154 140.066C10.2194 140.01 9.77544 139.918 9.38344 139.79V132.83L11.4594 132.746V133.874C11.4594 133.938 11.4554 134.086 11.4474 134.318C11.4474 134.55 11.4394 134.746 11.4234 134.906C11.4074 135.058 11.3834 135.174 11.3514 135.254L11.4234 135.338C11.6074 135.058 11.8394 134.83 12.1194 134.654C12.3994 134.478 12.7274 134.39 13.1034 134.39ZM12.7674 138.722C12.8154 138.642 12.8554 138.454 12.8874 138.158C12.9274 137.862 12.9474 137.578 12.9474 137.306C12.9474 136.986 12.9314 136.734 12.8994 136.55C12.8754 136.366 12.8074 136.222 12.6954 136.118C12.5914 136.006 12.4274 135.95 12.2034 135.95C12.0034 135.95 11.7474 135.978 11.4354 136.034V138.746C11.7314 138.794 12.0394 138.818 12.3594 138.818C12.5914 138.818 12.7274 138.786 12.7674 138.722ZM15.8885 132.83L17.9405 132.746V140.03H15.8885V132.83ZM22.3059 138.59C22.5059 138.59 22.8779 138.57 23.4219 138.53C23.4939 138.53 23.6259 138.522 23.8179 138.506L23.9979 139.742C23.3819 140.03 22.5819 140.174 21.5979 140.174C20.6779 140.174 19.9699 139.942 19.4739 139.478C18.9859 139.014 18.7419 138.314 18.7419 137.378C18.7419 136.898 18.8019 136.434 18.9219 135.986C19.0499 135.538 19.1939 135.226 19.3539 135.05C19.5219 134.874 19.8339 134.722 20.2899 134.594C20.7459 134.466 21.1979 134.402 21.6459 134.402C22.3659 134.402 22.9059 134.53 23.2659 134.786C23.6259 135.042 23.8619 135.398 23.9739 135.854C24.0859 136.302 24.1419 136.906 24.1419 137.666C23.5979 137.698 23.0659 137.714 22.5459 137.714H20.8419C20.8419 137.97 20.8939 138.162 20.9979 138.29C21.1099 138.418 21.2659 138.502 21.4659 138.542C21.6659 138.574 21.9459 138.59 22.3059 138.59ZM20.9619 135.83C20.9139 135.854 20.8779 135.958 20.8539 136.142C20.8299 136.326 20.8139 136.534 20.8059 136.766H21.4299C21.8059 136.766 22.0779 136.762 22.2459 136.754C22.2459 136.37 22.1899 136.098 22.0779 135.938C21.9739 135.778 21.7899 135.698 21.5259 135.698C21.3099 135.698 21.1219 135.742 20.9619 135.83ZM30.2042 134.858C30.2762 134.946 30.3282 135.166 30.3602 135.518C30.4002 135.87 30.4202 136.406 30.4202 137.126V140.03H28.3682V137.15V136.658C28.3682 136.402 28.3482 136.242 28.3082 136.178C28.2442 136.098 28.0962 136.058 27.8642 136.058C27.7522 136.058 27.6682 136.062 27.6122 136.07C27.3882 136.078 27.1562 136.13 26.9162 136.226V140.03H24.8642V134.51H26.5322L26.7602 135.434C27.3362 134.738 28.0242 134.39 28.8242 134.39C29.1122 134.39 29.3802 134.43 29.6282 134.51C29.8842 134.59 30.0762 134.706 30.2042 134.858ZM36.8641 132.746V140.03H35.1721L35.0041 139.106C34.8441 139.418 34.6081 139.666 34.2961 139.85C33.9841 140.034 33.6321 140.126 33.2401 140.126C32.6161 140.126 32.1161 139.902 31.7401 139.454C31.3721 139.006 31.1881 138.334 31.1881 137.438C31.1881 136.758 31.2681 136.198 31.4281 135.758C31.5881 135.318 31.7761 135.002 31.9921 134.81C32.1281 134.69 32.4041 134.59 32.8201 134.51C33.2441 134.43 33.6201 134.39 33.9481 134.39C34.2361 134.39 34.5321 134.418 34.8361 134.474C34.8121 134.09 34.8001 133.878 34.8001 133.838V132.83L36.8641 132.746ZM34.1401 138.518C34.3561 138.518 34.5801 138.482 34.8121 138.41V135.806C34.5801 135.774 34.3241 135.758 34.0441 135.758C33.8041 135.758 33.6521 135.778 33.5881 135.818C33.5001 135.882 33.4281 136.066 33.3721 136.37C33.3241 136.666 33.3001 136.978 33.3001 137.306C33.3001 137.794 33.3721 138.118 33.5161 138.278C33.6681 138.438 33.8761 138.518 34.1401 138.518Z" fill="#A8DADC"/>
<rect x="52.12" y="211" width="65" height="28" rx="14" transform="rotate(-90 52.12 211)" fill="#36617C"/>
<path d="M51.6608 134.39C52.2848 134.39 52.7648 134.578 53.1008 134.954C53.4448 135.33 53.6168 135.994 53.6168 136.946C53.6168 137.642 53.5448 138.238 53.4008 138.734C53.2648 139.222 53.1088 139.534 52.9328 139.67C52.7248 139.838 52.4168 139.962 52.0088 140.042C51.6008 140.122 51.1368 140.162 50.6168 140.162C50.2168 140.162 49.7688 140.13 49.2728 140.066C48.7768 140.01 48.3328 139.918 47.9408 139.79V132.83L50.0168 132.746V133.874C50.0168 133.938 50.0128 134.086 50.0048 134.318C50.0048 134.55 49.9968 134.746 49.9808 134.906C49.9648 135.058 49.9408 135.174 49.9088 135.254L49.9808 135.338C50.1648 135.058 50.3968 134.83 50.6768 134.654C50.9568 134.478 51.2848 134.39 51.6608 134.39ZM51.3248 138.722C51.3728 138.642 51.4128 138.454 51.4448 138.158C51.4848 137.862 51.5048 137.578 51.5048 137.306C51.5048 136.986 51.4888 136.734 51.4568 136.55C51.4328 136.366 51.3648 136.222 51.2528 136.118C51.1488 136.006 50.9848 135.95 50.7608 135.95C50.5608 135.95 50.3048 135.978 49.9928 136.034V138.746C50.2888 138.794 50.5968 138.818 50.9168 138.818C51.1488 138.818 51.2848 138.786 51.3248 138.722ZM60.1218 134.51L58.6818 139.13C58.4018 140.018 58.1498 140.662 57.9258 141.062C57.7018 141.47 57.4778 141.754 57.2538 141.914C57.1258 142.002 56.9218 142.07 56.6418 142.118C56.3698 142.166 56.0738 142.19 55.7538 142.19C55.2738 142.19 54.8898 142.146 54.6018 142.058C54.5938 141.866 54.6018 141.63 54.6258 141.35C54.6498 141.078 54.6818 140.846 54.7218 140.654C55.0578 140.67 55.3858 140.678 55.7058 140.678C55.9458 140.678 56.1258 140.674 56.2458 140.666C56.3658 140.434 56.4778 140.19 56.5818 139.934L55.7538 139.886L53.9058 134.51H56.0778L57.0378 138.374L57.0498 138.602H57.0858L57.9498 134.51H60.1218ZM64.3893 134.39C64.9653 134.39 65.4213 134.582 65.7573 134.966C66.1013 135.342 66.2733 136.002 66.2733 136.946C66.2733 137.65 66.2053 138.226 66.0693 138.674C65.9333 139.114 65.7773 139.406 65.6013 139.55C65.4253 139.694 65.1173 139.81 64.6773 139.898C64.2453 139.986 63.7973 140.03 63.3333 140.03C63.1973 140.03 62.9693 140.022 62.6493 140.006V141.71L60.5973 141.794V134.51H62.2773L62.4813 135.362C62.6893 135.066 62.9533 134.83 63.2733 134.654C63.6013 134.478 63.9733 134.39 64.3893 134.39ZM63.9093 138.566C63.9973 138.502 64.0613 138.322 64.1013 138.026C64.1413 137.722 64.1613 137.434 64.1613 137.162C64.1613 136.714 64.1053 136.382 63.9933 136.166C63.8813 135.95 63.6573 135.842 63.3213 135.842C63.0813 135.842 62.8573 135.866 62.6493 135.914V138.578L62.9853 138.614C63.0893 138.622 63.2373 138.626 63.4293 138.626C63.7013 138.626 63.8613 138.606 63.9093 138.566ZM70.3658 140.03L70.1738 139.274C69.8058 139.874 69.2938 140.174 68.6378 140.174C68.1018 140.174 67.6618 140.026 67.3178 139.73C66.9818 139.426 66.8138 139.002 66.8138 138.458C66.8138 138.122 66.9098 137.83 67.1018 137.582C67.3018 137.326 67.5738 137.146 67.9178 137.042C68.3658 136.914 69.0578 136.842 69.9938 136.826C69.9938 136.298 69.9698 136.018 69.9218 135.986C69.8818 135.954 69.7538 135.938 69.5378 135.938C69.4018 135.938 69.2138 135.946 68.9738 135.962C68.5898 135.978 68.0698 136.022 67.4138 136.094C67.3498 135.662 67.3018 135.198 67.2698 134.702C67.6938 134.614 68.1378 134.542 68.6018 134.486C69.0658 134.422 69.4818 134.39 69.8498 134.39C70.4898 134.39 70.9698 134.498 71.2898 134.714C71.6098 134.922 71.8178 135.198 71.9138 135.542C72.0098 135.886 72.0538 136.322 72.0458 136.85L72.0338 138.614L72.0698 140.03H70.3658ZM69.3338 138.83C69.5418 138.83 69.7618 138.79 69.9938 138.71V137.822H69.8978C69.3058 137.822 68.9778 137.854 68.9138 137.918C68.8738 137.958 68.8418 138.018 68.8178 138.098C68.8018 138.178 68.7938 138.254 68.7938 138.326C68.7938 138.518 68.8378 138.65 68.9258 138.722C69.0138 138.794 69.1498 138.83 69.3338 138.83ZM77.4363 138.158C77.4363 138.87 77.2083 139.382 76.7523 139.694C76.3043 140.006 75.6643 140.162 74.8323 140.162C74.2483 140.162 73.5763 140.078 72.8163 139.91C72.8323 139.75 72.8683 139.522 72.9243 139.226C72.9883 138.922 73.0403 138.69 73.0803 138.53C73.3683 138.578 73.6883 138.618 74.0403 138.65C74.3923 138.674 74.6923 138.686 74.9403 138.686C75.1563 138.686 75.2883 138.674 75.3363 138.65C75.3443 138.642 75.3523 138.622 75.3603 138.59C75.3763 138.55 75.3843 138.51 75.3843 138.47C75.3843 138.31 75.2843 138.202 75.0843 138.146C75.0203 138.13 74.7763 138.062 74.3523 137.942C73.9283 137.822 73.5803 137.606 73.3083 137.294C73.0443 136.974 72.9123 136.578 72.9123 136.106C72.9123 135.858 72.9683 135.582 73.0803 135.278C73.1923 134.974 73.3123 134.782 73.4403 134.702C73.5363 134.638 73.7683 134.574 74.1363 134.51C74.5043 134.438 74.8443 134.402 75.1563 134.402C75.8203 134.402 76.4883 134.45 77.1603 134.546C77.1603 134.69 77.1403 134.934 77.1003 135.278C77.0603 135.614 77.0243 135.826 76.9923 135.914C76.3123 135.826 75.7643 135.782 75.3483 135.782C75.1323 135.782 74.9923 135.794 74.9283 135.818C74.9123 135.826 74.8963 135.85 74.8803 135.89C74.8643 135.922 74.8563 135.966 74.8563 136.022C74.8563 136.134 74.8923 136.214 74.9643 136.262C75.0363 136.318 75.2243 136.386 75.5283 136.466C75.8883 136.57 76.1963 136.678 76.4523 136.79C76.7163 136.902 76.9443 137.07 77.1363 137.294C77.3363 137.518 77.4363 137.806 77.4363 138.158ZM82.5809 138.158C82.5809 138.87 82.3529 139.382 81.8969 139.694C81.4489 140.006 80.8089 140.162 79.9769 140.162C79.3929 140.162 78.7209 140.078 77.9609 139.91C77.9769 139.75 78.0129 139.522 78.0689 139.226C78.1329 138.922 78.1849 138.69 78.2249 138.53C78.5129 138.578 78.8329 138.618 79.1849 138.65C79.5369 138.674 79.8369 138.686 80.0849 138.686C80.3009 138.686 80.4329 138.674 80.4809 138.65C80.4889 138.642 80.4969 138.622 80.5049 138.59C80.5209 138.55 80.5289 138.51 80.5289 138.47C80.5289 138.31 80.4289 138.202 80.2289 138.146C80.1649 138.13 79.9209 138.062 79.4969 137.942C79.0729 137.822 78.7249 137.606 78.4529 137.294C78.1889 136.974 78.0569 136.578 78.0569 136.106C78.0569 135.858 78.1129 135.582 78.2249 135.278C78.3369 134.974 78.4569 134.782 78.5849 134.702C78.6809 134.638 78.9129 134.574 79.2809 134.51C79.6489 134.438 79.9889 134.402 80.3009 134.402C80.9649 134.402 81.6329 134.45 82.3049 134.546C82.3049 134.69 82.2849 134.934 82.2449 135.278C82.2049 135.614 82.1689 135.826 82.1369 135.914C81.4569 135.826 80.9089 135.782 80.4929 135.782C80.2769 135.782 80.1369 135.794 80.0729 135.818C80.0569 135.826 80.0409 135.85 80.0249 135.89C80.0089 135.922 80.0009 135.966 80.0009 136.022C80.0009 136.134 80.0369 136.214 80.1089 136.262C80.1809 136.318 80.3689 136.386 80.6729 136.466C81.0329 136.57 81.3409 136.678 81.5969 136.79C81.8609 136.902 82.0889 137.07 82.2809 137.294C82.4809 137.518 82.5809 137.806 82.5809 138.158Z" fill="#A8DADC"/>
</svg>
