<svg width="90" height="380" viewBox="0 0 90 380" fill="none" xmlns="http://www.w3.org/2000/svg">
<rect width="90" height="380" fill="#457B9D"/>
<g opacity="0.5">
<path fill-rule="evenodd" clip-rule="evenodd" d="M38.958 375.599C38.803 375.747 38.659 375.851 38.526 375.909C38.393 375.968 38.251 375.998 38.1 375.998C37.948 375.998 37.806 375.97 37.673 375.914C37.54 375.858 37.424 375.781 37.325 375.682C37.109 375.466 37 375.209 37 374.912V369.385C37 369.082 37.078 368.847 37.232 368.68C37.498 368.408 37.75 368.272 37.988 368.272C38.226 368.272 38.404 368.296 38.522 368.346C38.639 368.395 38.738 368.457 38.818 368.531C38.924 368.624 39.002 368.723 39.055 368.828C39.108 368.933 39.151 369.011 39.185 369.06C39.219 369.11 39.275 369.134 39.352 369.134C39.429 369.134 39.496 369.11 39.551 369.06L39.709 368.902C40.16 368.482 40.612 368.272 41.063 368.272C41.861 368.272 42.519 368.599 43.039 369.255C43.088 369.323 43.15 369.357 43.224 369.357C43.354 369.357 43.486 369.256 43.619 369.055C43.752 368.854 43.966 368.674 44.263 368.513C44.56 368.352 44.906 368.272 45.302 368.272C45.698 368.272 46.058 368.344 46.383 368.49C46.707 368.635 46.99 368.834 47.231 369.088C47.738 369.62 47.992 370.263 47.992 371.017V374.912C47.992 375.382 47.769 375.713 47.324 375.905C47.188 375.967 47.044 375.998 46.893 375.998C46.741 375.998 46.599 375.97 46.466 375.914C46.333 375.858 46.217 375.781 46.118 375.682C45.908 375.46 45.803 375.203 45.803 374.912V371.045C45.803 370.736 45.726 370.504 45.571 370.349C45.299 370.077 45.049 369.941 44.82 369.941C44.591 369.941 44.412 369.971 44.282 370.029C44.152 370.088 44.034 370.17 43.929 370.275C43.713 370.492 43.605 370.742 43.605 371.026V374.912C43.605 375.382 43.385 375.713 42.946 375.905C42.81 375.967 42.666 375.998 42.515 375.998C42.363 375.998 42.22 375.97 42.083 375.914C41.947 375.858 41.83 375.781 41.731 375.682C41.515 375.466 41.406 375.209 41.406 374.912V371.045C41.406 370.736 41.329 370.504 41.174 370.349C40.902 370.077 40.618 369.941 40.321 369.941C39.826 369.941 39.483 370.133 39.292 370.516C39.23 370.64 39.199 370.779 39.199 370.934V374.912C39.199 375.215 39.118 375.444 38.958 375.599ZM50.219 369.387C50.219 369.084 50.296 368.849 50.451 368.682C50.716 368.41 51.01 368.274 51.332 368.274C51.641 368.274 51.87 368.355 52.018 368.515C52.29 368.794 52.426 369.084 52.426 369.387V374.915C52.426 375.212 52.349 375.437 52.194 375.592C51.922 375.864 51.672 376 51.443 376C51.214 376 51.032 375.971 50.896 375.912C50.76 375.853 50.642 375.777 50.543 375.685C50.327 375.474 50.219 375.218 50.219 374.915V369.387ZM51.327 365.9C51.065 365.9 50.852 365.687 50.852 365.425C50.852 365.162 51.065 364.95 51.327 364.95C51.589 364.95 51.802 365.162 51.802 365.425C51.802 365.687 51.589 365.9 51.327 365.9ZM51.327 364C51.714 364 52.048 364.142 52.329 364.425C52.611 364.709 52.752 364.996 52.752 365.287C52.752 365.577 52.713 365.807 52.635 365.978C52.558 366.148 52.456 366.297 52.329 366.424C52.048 366.708 51.714 366.849 51.327 366.849C50.94 366.849 50.606 366.708 50.324 366.424C50.043 366.141 49.902 365.857 49.902 365.574C49.902 365.092 50.043 364.709 50.324 364.425C50.606 364.142 50.94 364 51.327 364Z" fill="#1D3557"/>
</g>
<path d="M16.4068 22.8654H14.2468V17.5254H12.3148V16.0254H18.3388V17.5254H16.4068V22.8654ZM25.2577 22.8654H22.9897L22.5817 21.1374C22.5657 21.0734 22.5377 20.9654 22.4977 20.8134C22.4657 20.6534 22.4257 20.5374 22.3777 20.4654C22.3297 20.3854 22.2617 20.3334 22.1737 20.3094C21.9497 20.3174 21.6217 20.3214 21.1897 20.3214V22.8654H19.0297V16.0854C19.9977 16.0134 20.9017 15.9774 21.7417 15.9774C22.5017 15.9774 23.1177 16.0414 23.5897 16.1694C24.0617 16.2894 24.4137 16.5014 24.6457 16.8054C24.8857 17.1014 25.0057 17.5094 25.0057 18.0294C25.0057 18.5174 24.8937 18.9014 24.6697 19.1814C24.4457 19.4534 24.0857 19.6174 23.5897 19.6734V19.7454C23.8697 19.7694 24.1017 19.8614 24.2857 20.0214C24.4777 20.1734 24.6057 20.3694 24.6697 20.6094L25.2577 22.8654ZM21.1897 18.9654C21.2617 18.9734 21.4017 18.9774 21.6097 18.9774C22.2257 18.9774 22.5857 18.9254 22.6897 18.8214C22.7857 18.7254 22.8337 18.5014 22.8337 18.1494C22.8337 17.8214 22.7457 17.5974 22.5697 17.4774C22.4017 17.3574 22.1217 17.2974 21.7297 17.2974C21.6417 17.2974 21.4617 17.3054 21.1897 17.3214V18.9654ZM25.9306 16.0254H30.9106V17.4654H28.0906V18.7134H30.4666V20.0094H28.0906V21.4014H30.8986V22.8654H25.9306V16.0254ZM40.6466 22.8654H38.6306L38.4746 19.0974C38.4506 18.3534 38.4226 17.7894 38.3906 17.4054H38.3546C38.2586 17.7094 38.1466 18.1814 38.0186 18.8214L37.9586 19.1214L37.1306 22.8654H35.1146L34.4186 19.4934L34.2986 18.8934C34.1306 18.1494 34.0146 17.6534 33.9506 17.4054H33.9146C33.8826 17.8054 33.8546 18.4574 33.8306 19.3614C33.8226 19.4174 33.8186 19.5054 33.8186 19.6254L33.7106 22.8654H31.6826L31.9706 16.0254H35.4026L35.9906 18.9774L36.1346 19.7694C36.1986 19.5214 36.2586 19.2454 36.3146 18.9414L36.8666 16.0254H40.3706L40.6466 22.8654ZM44.9243 23.0214C43.7323 23.0214 42.8363 22.7414 42.2363 22.1814C41.6443 21.6134 41.3483 20.7054 41.3483 19.4574C41.3483 18.2334 41.6763 17.3414 42.3323 16.7814C42.9883 16.2214 43.8563 15.9414 44.9363 15.9414C47.2083 15.9414 48.3443 17.0734 48.3443 19.3374C48.3443 20.4814 48.0643 21.3814 47.5043 22.0374C46.9523 22.6934 46.0923 23.0214 44.9243 23.0214ZM44.8763 21.6054C45.1003 21.6054 45.2883 21.5694 45.4403 21.4974C45.5923 21.4174 45.7123 21.2814 45.8003 21.0894C45.9683 20.7614 46.0523 20.2254 46.0523 19.4814C46.0523 18.7534 45.9683 18.2254 45.8003 17.8974C45.6323 17.5614 45.3243 17.3854 44.8763 17.3694C44.7083 17.3694 44.5323 17.3894 44.3483 17.4294C44.1723 17.4614 44.0603 17.5094 44.0123 17.5734C43.9163 17.6854 43.8403 17.9254 43.7843 18.2934C43.7363 18.6534 43.7123 19.0494 43.7123 19.4814C43.7123 20.1534 43.7763 20.6454 43.9043 20.9574C43.9923 21.1894 44.1163 21.3574 44.2763 21.4614C44.4363 21.5574 44.6363 21.6054 44.8763 21.6054ZM49.2752 16.0254H51.4352V21.2814H54.2312V22.8654H49.2752V16.0254ZM58.3423 23.0214C57.1503 23.0214 56.2543 22.7414 55.6543 22.1814C55.0623 21.6134 54.7663 20.7054 54.7663 19.4574C54.7663 18.2334 55.0943 17.3414 55.7503 16.7814C56.4063 16.2214 57.2743 15.9414 58.3543 15.9414C60.6263 15.9414 61.7623 17.0734 61.7623 19.3374C61.7623 20.4814 61.4823 21.3814 60.9223 22.0374C60.3703 22.6934 59.5103 23.0214 58.3423 23.0214ZM58.2943 21.6054C58.5183 21.6054 58.7063 21.5694 58.8583 21.4974C59.0103 21.4174 59.1303 21.2814 59.2183 21.0894C59.3863 20.7614 59.4703 20.2254 59.4703 19.4814C59.4703 18.7534 59.3863 18.2254 59.2183 17.8974C59.0503 17.5614 58.7423 17.3854 58.2943 17.3694C58.1263 17.3694 57.9503 17.3894 57.7663 17.4294C57.5903 17.4614 57.4783 17.5094 57.4303 17.5734C57.3343 17.6854 57.2583 17.9254 57.2023 18.2934C57.1543 18.6534 57.1303 19.0494 57.1303 19.4814C57.1303 20.1534 57.1943 20.6454 57.3223 20.9574C57.4103 21.1894 57.5343 21.3574 57.6943 21.4614C57.8543 21.5574 58.0543 21.6054 58.2943 21.6054ZM62.5252 18.9174H66.1252V20.6334H62.5252V18.9174ZM69.1032 17.8734C69.1032 18.0414 69.1872 18.1734 69.3552 18.2694C69.5312 18.3654 69.8032 18.4694 70.1712 18.5814C70.6112 18.7254 70.9712 18.8654 71.2512 19.0014C71.5392 19.1374 71.7872 19.3494 71.9952 19.6374C72.2112 19.9254 72.3192 20.3014 72.3192 20.7654C72.3192 22.2534 71.3512 22.9974 69.4152 22.9974C69.0952 22.9974 68.7032 22.9694 68.2392 22.9134C67.7832 22.8574 67.3672 22.7854 66.9912 22.6974C67.0072 22.5294 67.0392 22.2854 67.0872 21.9654C67.1432 21.6374 67.1952 21.3934 67.2432 21.2334C67.5232 21.2734 67.9432 21.3214 68.5032 21.3774C69.0712 21.4334 69.4992 21.4614 69.7872 21.4614C69.9552 21.4614 70.0552 21.4494 70.0872 21.4254C70.1352 21.3934 70.1712 21.3414 70.1952 21.2694C70.2272 21.1894 70.2432 21.1214 70.2432 21.0654C70.2432 20.9054 70.1672 20.7854 70.0152 20.7054C69.8632 20.6174 69.6032 20.5134 69.2352 20.3934C68.7952 20.2574 68.4312 20.1174 68.1432 19.9734C67.8552 19.8294 67.6032 19.6054 67.3872 19.3014C67.1712 18.9974 67.0632 18.5974 67.0632 18.1014C67.0632 17.7494 67.1432 17.4054 67.3032 17.0694C67.4632 16.7254 67.6272 16.4934 67.7952 16.3734C67.9232 16.2854 68.1872 16.2014 68.5872 16.1214C68.9872 16.0414 69.3632 16.0014 69.7152 16.0014C70.6112 16.0014 71.3432 16.0854 71.9112 16.2534C71.9032 16.4134 71.8752 16.6334 71.8272 16.9134C71.7872 17.1934 71.7432 17.4494 71.6952 17.6814L71.4192 17.6694C70.3792 17.5974 69.7152 17.5614 69.4272 17.5614C69.3072 17.5614 69.2392 17.5654 69.2232 17.5734C69.1912 17.5894 69.1632 17.6254 69.1392 17.6814C69.1152 17.7374 69.1032 17.8014 69.1032 17.8734ZM76.7583 22.8654H74.5983V17.5254H72.6663V16.0254H78.6903V17.5254H76.7583V22.8654Z" fill="#A8DADC"/>
<path d="M56.9452 226.36C57.0492 226.36 57.1572 226.372 57.2692 226.396C57.3892 226.42 57.4772 226.448 57.5332 226.48C57.5332 226.656 57.5132 226.948 57.4732 227.356C57.4332 227.756 57.3972 228.04 57.3652 228.208C57.2852 228.2 57.1372 228.196 56.9212 228.196C56.4172 228.196 55.9692 228.224 55.5772 228.28V232H53.5252V226.48H55.2412L55.4812 227.368H55.4932C55.7252 227.064 55.9732 226.82 56.2372 226.636C56.5012 226.452 56.7372 226.36 56.9452 226.36ZM61.4201 230.56C61.6201 230.56 61.9921 230.54 62.5361 230.5C62.6081 230.5 62.7401 230.492 62.9321 230.476L63.1121 231.712C62.4961 232 61.6961 232.144 60.7121 232.144C59.7921 232.144 59.0841 231.912 58.5881 231.448C58.1001 230.984 57.8561 230.284 57.8561 229.348C57.8561 228.868 57.9161 228.404 58.0361 227.956C58.1641 227.508 58.3081 227.196 58.4681 227.02C58.6361 226.844 58.9481 226.692 59.4041 226.564C59.8601 226.436 60.3121 226.372 60.7601 226.372C61.4801 226.372 62.0201 226.5 62.3801 226.756C62.7401 227.012 62.9761 227.368 63.0881 227.824C63.2001 228.272 63.2561 228.876 63.2561 229.636C62.7121 229.668 62.1801 229.684 61.6601 229.684H59.9561C59.9561 229.94 60.0081 230.132 60.1121 230.26C60.2241 230.388 60.3801 230.472 60.5801 230.512C60.7801 230.544 61.0601 230.56 61.4201 230.56ZM60.0761 227.8C60.0281 227.824 59.9921 227.928 59.9681 228.112C59.9441 228.296 59.9281 228.504 59.9201 228.736H60.5441C60.9201 228.736 61.1921 228.732 61.3601 228.724C61.3601 228.34 61.3041 228.068 61.1921 227.908C61.0881 227.748 60.9041 227.668 60.6401 227.668C60.4241 227.668 60.2361 227.712 60.0761 227.8ZM68.4423 230.128C68.4423 230.84 68.2143 231.352 67.7583 231.664C67.3103 231.976 66.6703 232.132 65.8383 232.132C65.2543 232.132 64.5823 232.048 63.8223 231.88C63.8383 231.72 63.8743 231.492 63.9303 231.196C63.9943 230.892 64.0463 230.66 64.0863 230.5C64.3743 230.548 64.6943 230.588 65.0463 230.62C65.3983 230.644 65.6983 230.656 65.9463 230.656C66.1623 230.656 66.2943 230.644 66.3423 230.62C66.3503 230.612 66.3583 230.592 66.3663 230.56C66.3823 230.52 66.3903 230.48 66.3903 230.44C66.3903 230.28 66.2903 230.172 66.0903 230.116C66.0263 230.1 65.7823 230.032 65.3583 229.912C64.9343 229.792 64.5863 229.576 64.3143 229.264C64.0503 228.944 63.9183 228.548 63.9183 228.076C63.9183 227.828 63.9743 227.552 64.0863 227.248C64.1983 226.944 64.3183 226.752 64.4463 226.672C64.5423 226.608 64.7743 226.544 65.1423 226.48C65.5103 226.408 65.8503 226.372 66.1623 226.372C66.8263 226.372 67.4943 226.42 68.1663 226.516C68.1663 226.66 68.1463 226.904 68.1063 227.248C68.0663 227.584 68.0303 227.796 67.9983 227.884C67.3183 227.796 66.7703 227.752 66.3543 227.752C66.1383 227.752 65.9983 227.764 65.9343 227.788C65.9183 227.796 65.9023 227.82 65.8863 227.86C65.8703 227.892 65.8623 227.936 65.8623 227.992C65.8623 228.104 65.8983 228.184 65.9703 228.232C66.0423 228.288 66.2303 228.356 66.5343 228.436C66.8943 228.54 67.2023 228.648 67.4583 228.76C67.7223 228.872 67.9503 229.04 68.1423 229.264C68.3423 229.488 68.4423 229.776 68.4423 230.128ZM72.4709 230.56C72.6709 230.56 73.0429 230.54 73.5869 230.5C73.6589 230.5 73.7909 230.492 73.9829 230.476L74.1629 231.712C73.5469 232 72.7469 232.144 71.7629 232.144C70.8429 232.144 70.1349 231.912 69.6389 231.448C69.1509 230.984 68.9069 230.284 68.9069 229.348C68.9069 228.868 68.9669 228.404 69.0869 227.956C69.2149 227.508 69.3589 227.196 69.5189 227.02C69.6869 226.844 69.9989 226.692 70.4549 226.564C70.9109 226.436 71.3629 226.372 71.8109 226.372C72.5309 226.372 73.0709 226.5 73.4309 226.756C73.7909 227.012 74.0269 227.368 74.1389 227.824C74.2509 228.272 74.3069 228.876 74.3069 229.636C73.7629 229.668 73.2309 229.684 72.7109 229.684H71.0069C71.0069 229.94 71.0589 230.132 71.1629 230.26C71.2749 230.388 71.4309 230.472 71.6309 230.512C71.8309 230.544 72.1109 230.56 72.4709 230.56ZM71.1269 227.8C71.0789 227.824 71.0429 227.928 71.0189 228.112C70.9949 228.296 70.9789 228.504 70.9709 228.736H71.5949C71.9709 228.736 72.2429 228.732 72.4109 228.724C72.4109 228.34 72.3549 228.068 72.2429 227.908C72.1389 227.748 71.9549 227.668 71.6909 227.668C71.4749 227.668 71.2869 227.712 71.1269 227.8ZM77.5731 229.732C77.5731 229.876 77.5771 230.028 77.5851 230.188C77.5931 230.34 77.6171 230.436 77.6571 230.476C77.7131 230.532 77.9091 230.56 78.2451 230.56L78.6531 230.548C78.7251 230.932 78.7611 231.376 78.7611 231.88C78.6091 231.936 78.3851 231.988 78.0891 232.036C77.8011 232.084 77.5251 232.108 77.2611 232.108C76.7091 232.108 76.2811 231.988 75.9771 231.748C75.6811 231.5 75.5331 231.12 75.5331 230.608V227.656H74.6331V226.564L75.5331 226.48L76.0731 225.16L77.5731 225.076V226.48H78.8451V227.656H77.5731V229.732Z" fill="#A8DADC"/>
<path d="M12.8192 226.36C13.3952 226.36 13.8512 226.552 14.1872 226.936C14.5312 227.312 14.7032 227.972 14.7032 228.916C14.7032 229.62 14.6352 230.196 14.4992 230.644C14.3632 231.084 14.2072 231.376 14.0312 231.52C13.8552 231.664 13.5472 231.78 13.1072 231.868C12.6752 231.956 12.2272 232 11.7632 232C11.6272 232 11.3992 231.992 11.0792 231.976V233.68L9.02716 233.764V226.48H10.7072L10.9112 227.332C11.1192 227.036 11.3832 226.8 11.7032 226.624C12.0312 226.448 12.4032 226.36 12.8192 226.36ZM12.3392 230.536C12.4272 230.472 12.4912 230.292 12.5312 229.996C12.5712 229.692 12.5912 229.404 12.5912 229.132C12.5912 228.684 12.5352 228.352 12.4232 228.136C12.3112 227.92 12.0872 227.812 11.7512 227.812C11.5112 227.812 11.2872 227.836 11.0792 227.884V230.548L11.4152 230.584C11.5192 230.592 11.6672 230.596 11.8592 230.596C12.1312 230.596 12.2912 230.576 12.3392 230.536ZM20.8476 226.828C20.9196 226.916 20.9716 227.136 21.0036 227.488C21.0436 227.84 21.0636 228.376 21.0636 229.096V232H19.0116V229.12C19.0116 229.088 19.0116 228.932 19.0116 228.652C19.0116 228.364 18.9916 228.188 18.9516 228.124C18.9276 228.092 18.8676 228.068 18.7716 228.052C18.6836 228.036 18.5796 228.028 18.4596 228.028L18.2556 228.04C18.0316 228.048 17.7996 228.1 17.5596 228.196V232H15.5076V224.8L17.5596 224.716V226.12C17.5596 226.696 17.5396 227.08 17.4996 227.272L17.5116 227.284C18.0556 226.668 18.7076 226.36 19.4676 226.36C19.7556 226.36 20.0236 226.4 20.2716 226.48C20.5276 226.56 20.7196 226.676 20.8476 226.828ZM25.2995 232L25.1075 231.244C24.7395 231.844 24.2275 232.144 23.5715 232.144C23.0355 232.144 22.5955 231.996 22.2515 231.7C21.9155 231.396 21.7475 230.972 21.7475 230.428C21.7475 230.092 21.8435 229.8 22.0355 229.552C22.2355 229.296 22.5075 229.116 22.8515 229.012C23.2995 228.884 23.9915 228.812 24.9275 228.796C24.9275 228.268 24.9035 227.988 24.8555 227.956C24.8155 227.924 24.6875 227.908 24.4715 227.908C24.3355 227.908 24.1475 227.916 23.9075 227.932C23.5235 227.948 23.0035 227.992 22.3475 228.064C22.2835 227.632 22.2355 227.168 22.2035 226.672C22.6275 226.584 23.0715 226.512 23.5355 226.456C23.9995 226.392 24.4155 226.36 24.7835 226.36C25.4235 226.36 25.9035 226.468 26.2235 226.684C26.5435 226.892 26.7515 227.168 26.8475 227.512C26.9435 227.856 26.9875 228.292 26.9795 228.82L26.9675 230.584L27.0035 232H25.2995ZM24.2675 230.8C24.4755 230.8 24.6955 230.76 24.9275 230.68V229.792H24.8315C24.2395 229.792 23.9115 229.824 23.8475 229.888C23.8075 229.928 23.7755 229.988 23.7515 230.068C23.7355 230.148 23.7275 230.224 23.7275 230.296C23.7275 230.488 23.7715 230.62 23.8595 230.692C23.9475 230.764 24.0835 230.8 24.2675 230.8ZM32.3701 230.128C32.3701 230.84 32.1421 231.352 31.6861 231.664C31.2381 231.976 30.5981 232.132 29.7661 232.132C29.1821 232.132 28.5101 232.048 27.7501 231.88C27.7661 231.72 27.8021 231.492 27.8581 231.196C27.9221 230.892 27.9741 230.66 28.0141 230.5C28.3021 230.548 28.6221 230.588 28.9741 230.62C29.3261 230.644 29.6261 230.656 29.8741 230.656C30.0901 230.656 30.2221 230.644 30.2701 230.62C30.2781 230.612 30.2861 230.592 30.2941 230.56C30.3101 230.52 30.3181 230.48 30.3181 230.44C30.3181 230.28 30.2181 230.172 30.0181 230.116C29.9541 230.1 29.7101 230.032 29.2861 229.912C28.8621 229.792 28.5141 229.576 28.2421 229.264C27.9781 228.944 27.8461 228.548 27.8461 228.076C27.8461 227.828 27.9021 227.552 28.0141 227.248C28.1261 226.944 28.2461 226.752 28.3741 226.672C28.4701 226.608 28.7021 226.544 29.0701 226.48C29.4381 226.408 29.7781 226.372 30.0901 226.372C30.7541 226.372 31.4221 226.42 32.0941 226.516C32.0941 226.66 32.0741 226.904 32.0341 227.248C31.9941 227.584 31.9581 227.796 31.9261 227.884C31.2461 227.796 30.6981 227.752 30.2821 227.752C30.0661 227.752 29.9261 227.764 29.8621 227.788C29.8461 227.796 29.8301 227.82 29.8141 227.86C29.7981 227.892 29.7901 227.936 29.7901 227.992C29.7901 228.104 29.8261 228.184 29.8981 228.232C29.9701 228.288 30.1581 228.356 30.4621 228.436C30.8221 228.54 31.1301 228.648 31.3861 228.76C31.6501 228.872 31.8781 229.04 32.0701 229.264C32.2701 229.488 32.3701 229.776 32.3701 230.128ZM36.3986 230.56C36.5986 230.56 36.9706 230.54 37.5146 230.5C37.5866 230.5 37.7186 230.492 37.9106 230.476L38.0906 231.712C37.4746 232 36.6746 232.144 35.6906 232.144C34.7706 232.144 34.0626 231.912 33.5666 231.448C33.0786 230.984 32.8346 230.284 32.8346 229.348C32.8346 228.868 32.8946 228.404 33.0146 227.956C33.1426 227.508 33.2866 227.196 33.4466 227.02C33.6146 226.844 33.9266 226.692 34.3826 226.564C34.8386 226.436 35.2906 226.372 35.7386 226.372C36.4586 226.372 36.9986 226.5 37.3586 226.756C37.7186 227.012 37.9546 227.368 38.0666 227.824C38.1786 228.272 38.2346 228.876 38.2346 229.636C37.6906 229.668 37.1586 229.684 36.6386 229.684H34.9346C34.9346 229.94 34.9866 230.132 35.0906 230.26C35.2026 230.388 35.3586 230.472 35.5586 230.512C35.7586 230.544 36.0386 230.56 36.3986 230.56ZM35.0546 227.8C35.0066 227.824 34.9706 227.928 34.9466 228.112C34.9226 228.296 34.9066 228.504 34.8986 228.736H35.5226C35.8986 228.736 36.1706 228.732 36.3386 228.724C36.3386 228.34 36.2826 228.068 36.1706 227.908C36.0666 227.748 35.8826 227.668 35.6186 227.668C35.4026 227.668 35.2146 227.712 35.0546 227.8Z" fill="#A8DADC"/>
<path d="M60.5076 287.156C59.5476 287.156 58.8276 286.932 58.3476 286.484C57.8756 286.028 57.6396 285.312 57.6396 284.336C57.6396 283.8 57.6876 283.332 57.7836 282.932C57.8876 282.524 58.0116 282.24 58.1556 282.08C58.3396 281.872 58.6756 281.7 59.1636 281.564C59.6596 281.428 60.1236 281.36 60.5556 281.36C61.5876 281.36 62.3236 281.58 62.7636 282.02C63.2036 282.46 63.4236 283.164 63.4236 284.132C63.4236 285.172 63.1876 285.936 62.7156 286.424C62.2436 286.912 61.5076 287.156 60.5076 287.156ZM60.5436 285.752C60.8556 285.752 61.0596 285.644 61.1556 285.428C61.2516 285.204 61.2996 284.812 61.2996 284.252C61.2996 283.86 61.2796 283.56 61.2396 283.352C61.1996 283.136 61.1236 282.98 61.0116 282.884C60.9076 282.78 60.7436 282.728 60.5196 282.728C60.1996 282.728 60.0156 282.756 59.9676 282.812C59.9036 282.868 59.8516 283.044 59.8116 283.34C59.7716 283.636 59.7516 283.944 59.7516 284.264C59.7516 284.808 59.8036 285.192 59.9076 285.416C60.0196 285.64 60.2316 285.752 60.5436 285.752ZM69.7268 281.48V287H68.0588L67.8308 286.076C67.2548 286.772 66.5668 287.12 65.7668 287.12C65.4788 287.12 65.2068 287.08 64.9508 287C64.7028 286.92 64.5148 286.804 64.3868 286.652C64.3148 286.564 64.2588 286.344 64.2188 285.992C64.1868 285.64 64.1708 285.104 64.1708 284.384V281.48H66.2228V284.36C66.2228 284.52 66.2268 284.708 66.2348 284.924C66.2428 285.14 66.2668 285.276 66.3068 285.332C66.3628 285.412 66.5228 285.452 66.7868 285.452L66.9788 285.44C67.2028 285.432 67.4348 285.38 67.6748 285.284V281.48H69.7268ZM73.2548 284.732C73.2548 284.876 73.2588 285.028 73.2668 285.188C73.2748 285.34 73.2988 285.436 73.3388 285.476C73.3948 285.532 73.5908 285.56 73.9268 285.56L74.3348 285.548C74.4068 285.932 74.4428 286.376 74.4428 286.88C74.2908 286.936 74.0668 286.988 73.7708 287.036C73.4828 287.084 73.2068 287.108 72.9428 287.108C72.3908 287.108 71.9628 286.988 71.6588 286.748C71.3628 286.5 71.2148 286.12 71.2148 285.608V282.656H70.3148V281.564L71.2148 281.48L71.7548 280.16L73.2548 280.076V281.48H74.5268V282.656H73.2548V284.732Z" fill="#A8DADC"/>
<path d="M19.7553 280.796C19.4833 280.796 19.2473 280.704 19.0473 280.52C18.8553 280.336 18.7593 280.116 18.7593 279.86C18.7593 279.604 18.8553 279.384 19.0473 279.2C19.2473 279.016 19.4833 278.924 19.7553 278.924C20.0273 278.924 20.2593 279.016 20.4513 279.2C20.6433 279.384 20.7393 279.604 20.7393 279.86C20.7393 280.116 20.6433 280.336 20.4513 280.52C20.2593 280.704 20.0273 280.796 19.7553 280.796ZM18.7233 281.48H20.7753V287H18.7233V281.48ZM27.1328 281.828C27.2048 281.916 27.2568 282.136 27.2888 282.488C27.3288 282.84 27.3488 283.376 27.3488 284.096V287H25.2968V284.12V283.628C25.2968 283.372 25.2768 283.212 25.2368 283.148C25.1728 283.068 25.0248 283.028 24.7928 283.028C24.6808 283.028 24.5968 283.032 24.5408 283.04C24.3168 283.048 24.0848 283.1 23.8448 283.196V287H21.7928V281.48H23.4608L23.6888 282.404C24.2648 281.708 24.9528 281.36 25.7528 281.36C26.0408 281.36 26.3088 281.4 26.5568 281.48C26.8128 281.56 27.0048 281.676 27.1328 281.828Z" fill="#A8DADC"/>
<rect x="42" y="334" width="6" height="6" rx="1" fill="#A8DADC"/>
<path d="M47.2317 339.25H45.7197L45.4477 338.098C45.437 338.055 45.4184 337.983 45.3917 337.882C45.3704 337.775 45.3437 337.698 45.3117 337.65C45.2797 337.597 45.2344 337.562 45.1757 337.546C45.0264 337.551 44.8077 337.554 44.5197 337.554V339.25H43.0797V334.73C43.725 334.682 44.3277 334.658 44.8877 334.658C45.3944 334.658 45.805 334.701 46.1197 334.786C46.4344 334.866 46.669 335.007 46.8237 335.21C46.9837 335.407 47.0637 335.679 47.0637 336.026C47.0637 336.351 46.989 336.607 46.8397 336.794C46.6904 336.975 46.4504 337.085 46.1197 337.122V337.17C46.3064 337.186 46.461 337.247 46.5837 337.354C46.7117 337.455 46.797 337.586 46.8397 337.746L47.2317 339.25ZM44.5197 336.65C44.5677 336.655 44.661 336.658 44.7997 336.658C45.2104 336.658 45.4504 336.623 45.5197 336.554C45.5837 336.49 45.6157 336.341 45.6157 336.106C45.6157 335.887 45.557 335.738 45.4397 335.658C45.3277 335.578 45.141 335.538 44.8797 335.538C44.821 335.538 44.701 335.543 44.5197 335.554V336.65Z" fill="#457B9D"/>
<rect x="42" y="300" width="6" height="6" rx="1" fill="#A8DADC"/>
<path d="M43.4817 300.69H44.9217V304.194H46.7857V305.25H43.4817V300.69Z" fill="#457B9D"/>
<rect x="4.5" y="46.9734" width="37" height="69" rx="18.5" fill="#36617C"/>
<path d="M12.4912 43.128C12.4912 43.84 12.2632 44.352 11.8072 44.664C11.3592 44.976 10.7192 45.132 9.88716 45.132C9.30316 45.132 8.63116 45.048 7.87116 44.88C7.88716 44.72 7.92316 44.492 7.97916 44.196C8.04316 43.892 8.09516 43.66 8.13516 43.5C8.42316 43.548 8.74316 43.588 9.09516 43.62C9.44716 43.644 9.74716 43.656 9.99516 43.656C10.2112 43.656 10.3432 43.644 10.3912 43.62C10.3992 43.612 10.4072 43.592 10.4152 43.56C10.4312 43.52 10.4392 43.48 10.4392 43.44C10.4392 43.28 10.3392 43.172 10.1392 43.116C10.0752 43.1 9.83116 43.032 9.40716 42.912C8.98316 42.792 8.63516 42.576 8.36316 42.264C8.09916 41.944 7.96716 41.548 7.96716 41.076C7.96716 40.828 8.02316 40.552 8.13516 40.248C8.24716 39.944 8.36716 39.752 8.49516 39.672C8.59116 39.608 8.82316 39.544 9.19116 39.48C9.55916 39.408 9.89916 39.372 10.2112 39.372C10.8752 39.372 11.5432 39.42 12.2152 39.516C12.2152 39.66 12.1952 39.904 12.1552 40.248C12.1152 40.584 12.0792 40.796 12.0472 40.884C11.3672 40.796 10.8192 40.752 10.4032 40.752C10.1872 40.752 10.0472 40.764 9.98316 40.788C9.96716 40.796 9.95116 40.82 9.93516 40.86C9.91916 40.892 9.91116 40.936 9.91116 40.992C9.91116 41.104 9.94716 41.184 10.0192 41.232C10.0912 41.288 10.2792 41.356 10.5832 41.436C10.9432 41.54 11.2512 41.648 11.5072 41.76C11.7712 41.872 11.9992 42.04 12.1912 42.264C12.3912 42.488 12.4912 42.776 12.4912 43.128ZM18.5117 39.828C18.5837 39.916 18.6357 40.136 18.6677 40.488C18.7077 40.84 18.7277 41.376 18.7277 42.096V45H16.6757V42.12C16.6757 42.088 16.6757 41.932 16.6757 41.652C16.6757 41.364 16.6557 41.188 16.6157 41.124C16.5917 41.092 16.5317 41.068 16.4357 41.052C16.3477 41.036 16.2437 41.028 16.1237 41.028L15.9197 41.04C15.6957 41.048 15.4637 41.1 15.2237 41.196V45H13.1717V37.8L15.2237 37.716V39.12C15.2237 39.696 15.2037 40.08 15.1637 40.272L15.1757 40.284C15.7197 39.668 16.3717 39.36 17.1317 39.36C17.4197 39.36 17.6877 39.4 17.9357 39.48C18.1917 39.56 18.3837 39.676 18.5117 39.828ZM22.9636 45L22.7716 44.244C22.4036 44.844 21.8916 45.144 21.2356 45.144C20.6996 45.144 20.2596 44.996 19.9156 44.7C19.5796 44.396 19.4116 43.972 19.4116 43.428C19.4116 43.092 19.5076 42.8 19.6996 42.552C19.8996 42.296 20.1716 42.116 20.5156 42.012C20.9636 41.884 21.6556 41.812 22.5916 41.796C22.5916 41.268 22.5676 40.988 22.5196 40.956C22.4796 40.924 22.3516 40.908 22.1356 40.908C21.9996 40.908 21.8116 40.916 21.5716 40.932C21.1876 40.948 20.6676 40.992 20.0116 41.064C19.9476 40.632 19.8996 40.168 19.8676 39.672C20.2916 39.584 20.7356 39.512 21.1996 39.456C21.6636 39.392 22.0796 39.36 22.4476 39.36C23.0876 39.36 23.5676 39.468 23.8876 39.684C24.2076 39.892 24.4156 40.168 24.5116 40.512C24.6076 40.856 24.6516 41.292 24.6436 41.82L24.6316 43.584L24.6676 45H22.9636ZM21.9316 43.8C22.1396 43.8 22.3596 43.76 22.5916 43.68V42.792H22.4956C21.9036 42.792 21.5756 42.824 21.5116 42.888C21.4716 42.928 21.4396 42.988 21.4156 43.068C21.3996 43.148 21.3916 43.224 21.3916 43.296C21.3916 43.488 21.4356 43.62 21.5236 43.692C21.6116 43.764 21.7476 43.8 21.9316 43.8ZM29.3621 39.36C29.9381 39.36 30.3941 39.552 30.7301 39.936C31.0741 40.312 31.2461 40.972 31.2461 41.916C31.2461 42.62 31.1781 43.196 31.0421 43.644C30.9061 44.084 30.7501 44.376 30.5741 44.52C30.3981 44.664 30.0901 44.78 29.6501 44.868C29.2181 44.956 28.7701 45 28.3061 45C28.1701 45 27.9421 44.992 27.6221 44.976V46.68L25.5701 46.764V39.48H27.2501L27.4541 40.332C27.6621 40.036 27.9261 39.8 28.2461 39.624C28.5741 39.448 28.9461 39.36 29.3621 39.36ZM28.8821 43.536C28.9701 43.472 29.0341 43.292 29.0741 42.996C29.1141 42.692 29.1341 42.404 29.1341 42.132C29.1341 41.684 29.0781 41.352 28.9661 41.136C28.8541 40.92 28.6301 40.812 28.2941 40.812C28.0541 40.812 27.8301 40.836 27.6221 40.884V43.548L27.9581 43.584C28.0621 43.592 28.2101 43.596 28.4021 43.596C28.6741 43.596 28.8341 43.576 28.8821 43.536ZM35.3986 43.56C35.5986 43.56 35.9706 43.54 36.5146 43.5C36.5866 43.5 36.7186 43.492 36.9106 43.476L37.0906 44.712C36.4746 45 35.6746 45.144 34.6906 45.144C33.7706 45.144 33.0626 44.912 32.5666 44.448C32.0786 43.984 31.8346 43.284 31.8346 42.348C31.8346 41.868 31.8946 41.404 32.0146 40.956C32.1426 40.508 32.2866 40.196 32.4466 40.02C32.6146 39.844 32.9266 39.692 33.3826 39.564C33.8386 39.436 34.2906 39.372 34.7386 39.372C35.4586 39.372 35.9986 39.5 36.3586 39.756C36.7186 40.012 36.9546 40.368 37.0666 40.824C37.1786 41.272 37.2346 41.876 37.2346 42.636C36.6906 42.668 36.1586 42.684 35.6386 42.684H33.9346C33.9346 42.94 33.9866 43.132 34.0906 43.26C34.2026 43.388 34.3586 43.472 34.5586 43.512C34.7586 43.544 35.0386 43.56 35.3986 43.56ZM34.0546 40.8C34.0066 40.824 33.9706 40.928 33.9466 41.112C33.9226 41.296 33.9066 41.504 33.8986 41.736H34.5226C34.8986 41.736 35.1706 41.732 35.3386 41.724C35.3386 41.34 35.2826 41.068 35.1706 40.908C35.0666 40.748 34.8826 40.668 34.6186 40.668C34.4026 40.668 34.2146 40.712 34.0546 40.8Z" fill="#A8DADC"/>
<path d="M6.5 82.8212C6.5 82.8212 7.69282 80.4506 9 80.4941C10.3072 80.5377 11.5 82.8212 11.5 82.8212C11.5 82.8212 12.8484 85.3967 14 85.3967C15.1516 85.3967 16.5 82.8212 16.5 82.8212" stroke="#A8DADC" stroke-width="1.2" stroke-linecap="round"/>
<path d="M30.75 84.9216L35.25 81.0252L39.25 84.9216" stroke="#A8DADC" stroke-width="1.2" stroke-linecap="round"/>
<rect x="51" y="50" width="30" height="66.1696" rx="15" fill="#36617C"/>
<path d="M55.497 43.128C55.497 43.84 55.269 44.352 54.813 44.664C54.365 44.976 53.725 45.132 52.893 45.132C52.309 45.132 51.637 45.048 50.877 44.88C50.893 44.72 50.929 44.492 50.985 44.196C51.049 43.892 51.101 43.66 51.141 43.5C51.429 43.548 51.749 43.588 52.101 43.62C52.453 43.644 52.753 43.656 53.001 43.656C53.217 43.656 53.349 43.644 53.397 43.62C53.405 43.612 53.413 43.592 53.421 43.56C53.437 43.52 53.445 43.48 53.445 43.44C53.445 43.28 53.345 43.172 53.145 43.116C53.081 43.1 52.837 43.032 52.413 42.912C51.989 42.792 51.641 42.576 51.369 42.264C51.105 41.944 50.973 41.548 50.973 41.076C50.973 40.828 51.029 40.552 51.141 40.248C51.253 39.944 51.373 39.752 51.501 39.672C51.597 39.608 51.829 39.544 52.197 39.48C52.565 39.408 52.905 39.372 53.217 39.372C53.881 39.372 54.549 39.42 55.221 39.516C55.221 39.66 55.201 39.904 55.161 40.248C55.121 40.584 55.085 40.796 55.053 40.884C54.373 40.796 53.825 40.752 53.409 40.752C53.193 40.752 53.053 40.764 52.989 40.788C52.973 40.796 52.957 40.82 52.941 40.86C52.925 40.892 52.917 40.936 52.917 40.992C52.917 41.104 52.953 41.184 53.025 41.232C53.097 41.288 53.285 41.356 53.589 41.436C53.949 41.54 54.257 41.648 54.513 41.76C54.777 41.872 55.005 42.04 55.197 42.264C55.397 42.488 55.497 42.776 55.497 43.128ZM59.9695 39.36C60.5455 39.36 61.0015 39.552 61.3375 39.936C61.6815 40.312 61.8535 40.972 61.8535 41.916C61.8535 42.62 61.7855 43.196 61.6495 43.644C61.5135 44.084 61.3575 44.376 61.1815 44.52C61.0055 44.664 60.6975 44.78 60.2575 44.868C59.8255 44.956 59.3775 45 58.9135 45C58.7775 45 58.5495 44.992 58.2295 44.976V46.68L56.1775 46.764V39.48H57.8575L58.0615 40.332C58.2695 40.036 58.5335 39.8 58.8535 39.624C59.1815 39.448 59.5535 39.36 59.9695 39.36ZM59.4895 43.536C59.5775 43.472 59.6415 43.292 59.6815 42.996C59.7215 42.692 59.7415 42.404 59.7415 42.132C59.7415 41.684 59.6855 41.352 59.5735 41.136C59.4615 40.92 59.2375 40.812 58.9015 40.812C58.6615 40.812 58.4375 40.836 58.2295 40.884V43.548L58.5655 43.584C58.6695 43.592 58.8175 43.596 59.0095 43.596C59.2815 43.596 59.4415 43.576 59.4895 43.536ZM66.006 43.56C66.206 43.56 66.578 43.54 67.122 43.5C67.194 43.5 67.326 43.492 67.518 43.476L67.698 44.712C67.082 45 66.282 45.144 65.298 45.144C64.378 45.144 63.67 44.912 63.174 44.448C62.686 43.984 62.442 43.284 62.442 42.348C62.442 41.868 62.502 41.404 62.622 40.956C62.75 40.508 62.894 40.196 63.054 40.02C63.222 39.844 63.534 39.692 63.99 39.564C64.446 39.436 64.898 39.372 65.346 39.372C66.066 39.372 66.606 39.5 66.966 39.756C67.326 40.012 67.562 40.368 67.674 40.824C67.786 41.272 67.842 41.876 67.842 42.636C67.298 42.668 66.766 42.684 66.246 42.684H64.542C64.542 42.94 64.594 43.132 64.698 43.26C64.81 43.388 64.966 43.472 65.166 43.512C65.366 43.544 65.646 43.56 66.006 43.56ZM64.662 40.8C64.614 40.824 64.578 40.928 64.554 41.112C64.53 41.296 64.514 41.504 64.506 41.736H65.13C65.506 41.736 65.778 41.732 65.946 41.724C65.946 41.34 65.89 41.068 65.778 40.908C65.674 40.748 65.49 40.668 65.226 40.668C65.01 40.668 64.822 40.712 64.662 40.8ZM71.9123 43.56C72.1123 43.56 72.4843 43.54 73.0283 43.5C73.1003 43.5 73.2323 43.492 73.4243 43.476L73.6043 44.712C72.9883 45 72.1883 45.144 71.2043 45.144C70.2843 45.144 69.5763 44.912 69.0803 44.448C68.5923 43.984 68.3483 43.284 68.3483 42.348C68.3483 41.868 68.4083 41.404 68.5283 40.956C68.6563 40.508 68.8003 40.196 68.9603 40.02C69.1283 39.844 69.4403 39.692 69.8963 39.564C70.3523 39.436 70.8043 39.372 71.2523 39.372C71.9723 39.372 72.5123 39.5 72.8723 39.756C73.2323 40.012 73.4683 40.368 73.5803 40.824C73.6923 41.272 73.7483 41.876 73.7483 42.636C73.2043 42.668 72.6723 42.684 72.1523 42.684H70.4483C70.4483 42.94 70.5003 43.132 70.6043 43.26C70.7163 43.388 70.8723 43.472 71.0723 43.512C71.2723 43.544 71.5523 43.56 71.9123 43.56ZM70.5683 40.8C70.5203 40.824 70.4843 40.928 70.4603 41.112C70.4363 41.296 70.4203 41.504 70.4123 41.736H71.0363C71.4123 41.736 71.6843 41.732 71.8523 41.724C71.8523 41.34 71.7963 41.068 71.6843 40.908C71.5803 40.748 71.3963 40.668 71.1323 40.668C70.9163 40.668 70.7283 40.712 70.5683 40.8ZM79.9665 37.716V45H78.2745L78.1065 44.076C77.9465 44.388 77.7105 44.636 77.3985 44.82C77.0865 45.004 76.7345 45.096 76.3425 45.096C75.7185 45.096 75.2185 44.872 74.8425 44.424C74.4745 43.976 74.2905 43.304 74.2905 42.408C74.2905 41.728 74.3705 41.168 74.5305 40.728C74.6905 40.288 74.8785 39.972 75.0945 39.78C75.2305 39.66 75.5065 39.56 75.9225 39.48C76.3465 39.4 76.7225 39.36 77.0505 39.36C77.3385 39.36 77.6345 39.388 77.9385 39.444C77.9145 39.06 77.9025 38.848 77.9025 38.808V37.8L79.9665 37.716ZM77.2425 43.488C77.4585 43.488 77.6825 43.452 77.9145 43.38V40.776C77.6825 40.744 77.4265 40.728 77.1465 40.728C76.9065 40.728 76.7545 40.748 76.6905 40.788C76.6025 40.852 76.5305 41.036 76.4745 41.34C76.4265 41.636 76.4025 41.948 76.4025 42.276C76.4025 42.764 76.4745 43.088 76.6185 43.248C76.7705 43.408 76.9785 43.488 77.2425 43.488Z" fill="#A8DADC"/>
<rect x="8" y="145" width="30" height="66.1663" rx="15" fill="#36617C"/>
<path d="M12.9784 134.36C13.6024 134.36 14.0824 134.548 14.4184 134.924C14.7624 135.3 14.9344 135.964 14.9344 136.916C14.9344 137.612 14.8624 138.208 14.7184 138.704C14.5824 139.192 14.4264 139.504 14.2504 139.64C14.0424 139.808 13.7344 139.932 13.3264 140.012C12.9184 140.092 12.4544 140.132 11.9344 140.132C11.5344 140.132 11.0864 140.1 10.5904 140.036C10.0944 139.98 9.65044 139.888 9.25844 139.76V132.8L11.3344 132.716V133.844C11.3344 133.908 11.3304 134.056 11.3224 134.288C11.3224 134.52 11.3144 134.716 11.2984 134.876C11.2824 135.028 11.2584 135.144 11.2264 135.224L11.2984 135.308C11.4824 135.028 11.7144 134.8 11.9944 134.624C12.2744 134.448 12.6024 134.36 12.9784 134.36ZM12.6424 138.692C12.6904 138.612 12.7304 138.424 12.7624 138.128C12.8024 137.832 12.8224 137.548 12.8224 137.276C12.8224 136.956 12.8064 136.704 12.7744 136.52C12.7504 136.336 12.6824 136.192 12.5704 136.088C12.4664 135.976 12.3024 135.92 12.0784 135.92C11.8784 135.92 11.6224 135.948 11.3104 136.004V138.716C11.6064 138.764 11.9144 138.788 12.2344 138.788C12.4664 138.788 12.6024 138.756 12.6424 138.692ZM15.7635 132.8L17.8155 132.716V140H15.7635V132.8ZM22.1809 138.56C22.3809 138.56 22.7529 138.54 23.2969 138.5C23.3689 138.5 23.5009 138.492 23.6929 138.476L23.8729 139.712C23.2569 140 22.4569 140.144 21.4729 140.144C20.5529 140.144 19.8449 139.912 19.3489 139.448C18.8609 138.984 18.6169 138.284 18.6169 137.348C18.6169 136.868 18.6769 136.404 18.7969 135.956C18.9249 135.508 19.0689 135.196 19.2289 135.02C19.3969 134.844 19.7089 134.692 20.1649 134.564C20.6209 134.436 21.0729 134.372 21.5209 134.372C22.2409 134.372 22.7809 134.5 23.1409 134.756C23.5009 135.012 23.7369 135.368 23.8489 135.824C23.9609 136.272 24.0169 136.876 24.0169 137.636C23.4729 137.668 22.9409 137.684 22.4209 137.684H20.7169C20.7169 137.94 20.7689 138.132 20.8729 138.26C20.9849 138.388 21.1409 138.472 21.3409 138.512C21.5409 138.544 21.8209 138.56 22.1809 138.56ZM20.8369 135.8C20.7889 135.824 20.7529 135.928 20.7289 136.112C20.7049 136.296 20.6889 136.504 20.6809 136.736H21.3049C21.6809 136.736 21.9529 136.732 22.1209 136.724C22.1209 136.34 22.0649 136.068 21.9529 135.908C21.8489 135.748 21.6649 135.668 21.4009 135.668C21.1849 135.668 20.9969 135.712 20.8369 135.8ZM30.0792 134.828C30.1512 134.916 30.2032 135.136 30.2352 135.488C30.2752 135.84 30.2952 136.376 30.2952 137.096V140H28.2432V137.12V136.628C28.2432 136.372 28.2232 136.212 28.1832 136.148C28.1192 136.068 27.9712 136.028 27.7392 136.028C27.6272 136.028 27.5432 136.032 27.4872 136.04C27.2632 136.048 27.0312 136.1 26.7912 136.196V140H24.7392V134.48H26.4072L26.6352 135.404C27.2112 134.708 27.8992 134.36 28.6992 134.36C28.9872 134.36 29.2552 134.4 29.5032 134.48C29.7592 134.56 29.9512 134.676 30.0792 134.828ZM36.7391 132.716V140H35.0471L34.8791 139.076C34.7191 139.388 34.4831 139.636 34.1711 139.82C33.8591 140.004 33.5071 140.096 33.1151 140.096C32.4911 140.096 31.9911 139.872 31.6151 139.424C31.2471 138.976 31.0631 138.304 31.0631 137.408C31.0631 136.728 31.1431 136.168 31.3031 135.728C31.4631 135.288 31.6511 134.972 31.8671 134.78C32.0031 134.66 32.2791 134.56 32.6951 134.48C33.1191 134.4 33.4951 134.36 33.8231 134.36C34.1111 134.36 34.4071 134.388 34.7111 134.444C34.6871 134.06 34.6751 133.848 34.6751 133.808V132.8L36.7391 132.716ZM34.0151 138.488C34.2311 138.488 34.4551 138.452 34.6871 138.38V135.776C34.4551 135.744 34.1991 135.728 33.9191 135.728C33.6791 135.728 33.5271 135.748 33.4631 135.788C33.3751 135.852 33.3031 136.036 33.2471 136.34C33.1991 136.636 33.1751 136.948 33.1751 137.276C33.1751 137.764 33.2471 138.088 33.3911 138.248C33.5431 138.408 33.7511 138.488 34.0151 138.488Z" fill="#A8DADC"/>
<rect x="51.995" y="211" width="65" height="28" rx="14" transform="rotate(-90 51.995 211)" fill="#36617C"/>
<path d="M51.5358 134.36C52.1598 134.36 52.6398 134.548 52.9758 134.924C53.3198 135.3 53.4918 135.964 53.4918 136.916C53.4918 137.612 53.4198 138.208 53.2758 138.704C53.1398 139.192 52.9838 139.504 52.8078 139.64C52.5998 139.808 52.2918 139.932 51.8838 140.012C51.4758 140.092 51.0118 140.132 50.4918 140.132C50.0918 140.132 49.6438 140.1 49.1478 140.036C48.6518 139.98 48.2078 139.888 47.8158 139.76V132.8L49.8918 132.716V133.844C49.8918 133.908 49.8878 134.056 49.8798 134.288C49.8798 134.52 49.8718 134.716 49.8558 134.876C49.8398 135.028 49.8158 135.144 49.7838 135.224L49.8558 135.308C50.0398 135.028 50.2718 134.8 50.5518 134.624C50.8318 134.448 51.1598 134.36 51.5358 134.36ZM51.1998 138.692C51.2478 138.612 51.2878 138.424 51.3198 138.128C51.3598 137.832 51.3798 137.548 51.3798 137.276C51.3798 136.956 51.3638 136.704 51.3318 136.52C51.3078 136.336 51.2398 136.192 51.1278 136.088C51.0238 135.976 50.8598 135.92 50.6358 135.92C50.4358 135.92 50.1798 135.948 49.8678 136.004V138.716C50.1638 138.764 50.4718 138.788 50.7918 138.788C51.0238 138.788 51.1598 138.756 51.1998 138.692ZM59.9968 134.48L58.5568 139.1C58.2768 139.988 58.0248 140.632 57.8008 141.032C57.5768 141.44 57.3528 141.724 57.1288 141.884C57.0008 141.972 56.7968 142.04 56.5168 142.088C56.2448 142.136 55.9488 142.16 55.6288 142.16C55.1488 142.16 54.7648 142.116 54.4768 142.028C54.4688 141.836 54.4768 141.6 54.5008 141.32C54.5248 141.048 54.5568 140.816 54.5968 140.624C54.9328 140.64 55.2608 140.648 55.5808 140.648C55.8208 140.648 56.0008 140.644 56.1208 140.636C56.2408 140.404 56.3528 140.16 56.4568 139.904L55.6288 139.856L53.7808 134.48H55.9528L56.9128 138.344L56.9248 138.572H56.9608L57.8248 134.48H59.9968ZM64.2643 134.36C64.8403 134.36 65.2963 134.552 65.6323 134.936C65.9763 135.312 66.1483 135.972 66.1483 136.916C66.1483 137.62 66.0803 138.196 65.9443 138.644C65.8083 139.084 65.6523 139.376 65.4763 139.52C65.3003 139.664 64.9923 139.78 64.5523 139.868C64.1203 139.956 63.6723 140 63.2083 140C63.0723 140 62.8443 139.992 62.5243 139.976V141.68L60.4723 141.764V134.48H62.1523L62.3563 135.332C62.5643 135.036 62.8283 134.8 63.1483 134.624C63.4763 134.448 63.8483 134.36 64.2643 134.36ZM63.7843 138.536C63.8723 138.472 63.9363 138.292 63.9763 137.996C64.0163 137.692 64.0363 137.404 64.0363 137.132C64.0363 136.684 63.9803 136.352 63.8683 136.136C63.7563 135.92 63.5323 135.812 63.1963 135.812C62.9563 135.812 62.7323 135.836 62.5243 135.884V138.548L62.8603 138.584C62.9643 138.592 63.1123 138.596 63.3043 138.596C63.5763 138.596 63.7363 138.576 63.7843 138.536ZM70.2408 140L70.0488 139.244C69.6808 139.844 69.1688 140.144 68.5128 140.144C67.9768 140.144 67.5368 139.996 67.1928 139.7C66.8568 139.396 66.6888 138.972 66.6888 138.428C66.6888 138.092 66.7848 137.8 66.9768 137.552C67.1768 137.296 67.4488 137.116 67.7928 137.012C68.2408 136.884 68.9328 136.812 69.8688 136.796C69.8688 136.268 69.8448 135.988 69.7968 135.956C69.7568 135.924 69.6288 135.908 69.4128 135.908C69.2768 135.908 69.0888 135.916 68.8488 135.932C68.4648 135.948 67.9448 135.992 67.2888 136.064C67.2248 135.632 67.1768 135.168 67.1448 134.672C67.5688 134.584 68.0128 134.512 68.4768 134.456C68.9408 134.392 69.3568 134.36 69.7248 134.36C70.3648 134.36 70.8448 134.468 71.1648 134.684C71.4848 134.892 71.6928 135.168 71.7888 135.512C71.8848 135.856 71.9288 136.292 71.9208 136.82L71.9088 138.584L71.9448 140H70.2408ZM69.2088 138.8C69.4168 138.8 69.6368 138.76 69.8688 138.68V137.792H69.7728C69.1808 137.792 68.8528 137.824 68.7888 137.888C68.7488 137.928 68.7168 137.988 68.6928 138.068C68.6768 138.148 68.6688 138.224 68.6688 138.296C68.6688 138.488 68.7128 138.62 68.8008 138.692C68.8888 138.764 69.0248 138.8 69.2088 138.8ZM77.3113 138.128C77.3113 138.84 77.0833 139.352 76.6273 139.664C76.1793 139.976 75.5393 140.132 74.7073 140.132C74.1233 140.132 73.4513 140.048 72.6913 139.88C72.7073 139.72 72.7433 139.492 72.7993 139.196C72.8633 138.892 72.9153 138.66 72.9553 138.5C73.2433 138.548 73.5633 138.588 73.9153 138.62C74.2673 138.644 74.5673 138.656 74.8153 138.656C75.0313 138.656 75.1633 138.644 75.2113 138.62C75.2193 138.612 75.2273 138.592 75.2353 138.56C75.2513 138.52 75.2593 138.48 75.2593 138.44C75.2593 138.28 75.1593 138.172 74.9593 138.116C74.8953 138.1 74.6513 138.032 74.2273 137.912C73.8033 137.792 73.4553 137.576 73.1833 137.264C72.9193 136.944 72.7873 136.548 72.7873 136.076C72.7873 135.828 72.8433 135.552 72.9553 135.248C73.0673 134.944 73.1873 134.752 73.3153 134.672C73.4113 134.608 73.6433 134.544 74.0113 134.48C74.3793 134.408 74.7193 134.372 75.0313 134.372C75.6953 134.372 76.3633 134.42 77.0353 134.516C77.0353 134.66 77.0153 134.904 76.9753 135.248C76.9353 135.584 76.8993 135.796 76.8673 135.884C76.1873 135.796 75.6393 135.752 75.2233 135.752C75.0073 135.752 74.8673 135.764 74.8033 135.788C74.7873 135.796 74.7713 135.82 74.7553 135.86C74.7393 135.892 74.7313 135.936 74.7313 135.992C74.7313 136.104 74.7673 136.184 74.8393 136.232C74.9113 136.288 75.0993 136.356 75.4033 136.436C75.7633 136.54 76.0713 136.648 76.3273 136.76C76.5913 136.872 76.8193 137.04 77.0113 137.264C77.2113 137.488 77.3113 137.776 77.3113 138.128ZM82.4559 138.128C82.4559 138.84 82.2279 139.352 81.7719 139.664C81.3239 139.976 80.6839 140.132 79.8519 140.132C79.2679 140.132 78.5959 140.048 77.8359 139.88C77.8519 139.72 77.8879 139.492 77.9439 139.196C78.0079 138.892 78.0599 138.66 78.0999 138.5C78.3879 138.548 78.7079 138.588 79.0599 138.62C79.4119 138.644 79.7119 138.656 79.9599 138.656C80.1759 138.656 80.3079 138.644 80.3559 138.62C80.3639 138.612 80.3719 138.592 80.3799 138.56C80.3959 138.52 80.4039 138.48 80.4039 138.44C80.4039 138.28 80.3039 138.172 80.1039 138.116C80.0399 138.1 79.7959 138.032 79.3719 137.912C78.9479 137.792 78.5999 137.576 78.3279 137.264C78.0639 136.944 77.9319 136.548 77.9319 136.076C77.9319 135.828 77.9879 135.552 78.0999 135.248C78.2119 134.944 78.3319 134.752 78.4599 134.672C78.5559 134.608 78.7879 134.544 79.1559 134.48C79.5239 134.408 79.8639 134.372 80.1759 134.372C80.8399 134.372 81.5079 134.42 82.1799 134.516C82.1799 134.66 82.1599 134.904 82.1199 135.248C82.0799 135.584 82.0439 135.796 82.0119 135.884C81.3319 135.796 80.7839 135.752 80.3679 135.752C80.1519 135.752 80.0119 135.764 79.9479 135.788C79.9319 135.796 79.9159 135.82 79.8999 135.86C79.8839 135.892 79.8759 135.936 79.8759 135.992C79.8759 136.104 79.9119 136.184 79.9839 136.232C80.0559 136.288 80.2439 136.356 80.5479 136.436C80.9079 136.54 81.2159 136.648 81.4719 136.76C81.7359 136.872 81.9639 137.04 82.1559 137.264C82.3559 137.488 82.4559 137.776 82.4559 138.128Z" fill="#A8DADC"/>
<path d="M41.0265 252.316C41.4585 252.836 41.6745 253.448 41.6745 254.152C41.6745 254.704 41.5425 255.2 41.2785 255.64C41.0145 256.08 40.6505 256.428 40.1865 256.684C39.7225 256.932 39.2025 257.056 38.6265 257.056C37.9385 257.056 37.3385 256.88 36.8265 256.528L36.1185 257.236L35.5545 256.672L36.2265 255.988C35.7945 255.468 35.5785 254.856 35.5785 254.152C35.5785 253.608 35.7105 253.116 35.9745 252.676C36.2385 252.228 36.6025 251.88 37.0665 251.632C37.5385 251.376 38.0585 251.248 38.6265 251.248C39.3065 251.248 39.9105 251.424 40.4385 251.776L41.1345 251.08L41.6985 251.644L41.0265 252.316ZM36.6465 254.152C36.6465 254.568 36.7465 254.94 36.9465 255.268L39.7665 252.448C39.4225 252.208 39.0425 252.088 38.6265 252.088C38.2665 252.088 37.9345 252.18 37.6305 252.364C37.3265 252.548 37.0865 252.8 36.9105 253.12C36.7345 253.432 36.6465 253.776 36.6465 254.152ZM40.6065 254.152C40.6065 253.744 40.5065 253.372 40.3065 253.036L37.4865 255.868C37.8305 256.108 38.2105 256.228 38.6265 256.228C38.9945 256.228 39.3265 256.136 39.6225 255.952C39.9265 255.768 40.1665 255.52 40.3425 255.208C40.5185 254.888 40.6065 254.536 40.6065 254.152Z" fill="#A8DADC"/>
</svg>
