<svg width="91" height="380" viewBox="0 0 91 380" fill="none" xmlns="http://www.w3.org/2000/svg">
<rect x="0.5625" width="90" height="380" fill="#457B9D"/>
<g opacity="0.3">
<path fill-rule="evenodd" clip-rule="evenodd" d="M39.5205 375.599C39.3655 375.747 39.2215 375.851 39.0885 375.909C38.9555 375.968 38.8135 375.998 38.6625 375.998C38.5105 375.998 38.3685 375.97 38.2355 375.914C38.1025 375.858 37.9865 375.781 37.8875 375.682C37.6715 375.466 37.5625 375.209 37.5625 374.912V369.385C37.5625 369.082 37.6405 368.847 37.7945 368.68C38.0605 368.408 38.3125 368.272 38.5505 368.272C38.7885 368.272 38.9665 368.296 39.0845 368.346C39.2015 368.395 39.3005 368.457 39.3805 368.531C39.4865 368.624 39.5645 368.723 39.6175 368.828C39.6705 368.933 39.7135 369.011 39.7475 369.06C39.7815 369.11 39.8375 369.134 39.9145 369.134C39.9915 369.134 40.0585 369.11 40.1135 369.06L40.2715 368.902C40.7225 368.482 41.1745 368.272 41.6255 368.272C42.4235 368.272 43.0815 368.599 43.6015 369.255C43.6505 369.323 43.7125 369.357 43.7865 369.357C43.9165 369.357 44.0485 369.256 44.1815 369.055C44.3145 368.854 44.5285 368.674 44.8255 368.513C45.1225 368.352 45.4685 368.272 45.8645 368.272C46.2605 368.272 46.6205 368.344 46.9455 368.49C47.2695 368.635 47.5525 368.834 47.7935 369.088C48.3005 369.62 48.5545 370.263 48.5545 371.017V374.912C48.5545 375.382 48.3315 375.713 47.8865 375.905C47.7505 375.967 47.6065 375.998 47.4555 375.998C47.3035 375.998 47.1615 375.97 47.0285 375.914C46.8955 375.858 46.7795 375.781 46.6805 375.682C46.4705 375.46 46.3655 375.203 46.3655 374.912V371.045C46.3655 370.736 46.2885 370.504 46.1335 370.349C45.8615 370.077 45.6115 369.941 45.3825 369.941C45.1535 369.941 44.9745 369.971 44.8445 370.029C44.7145 370.088 44.5965 370.17 44.4915 370.275C44.2755 370.492 44.1675 370.742 44.1675 371.026V374.912C44.1675 375.382 43.9475 375.713 43.5085 375.905C43.3725 375.967 43.2285 375.998 43.0775 375.998C42.9255 375.998 42.7825 375.97 42.6455 375.914C42.5095 375.858 42.3925 375.781 42.2935 375.682C42.0775 375.466 41.9685 375.209 41.9685 374.912V371.045C41.9685 370.736 41.8915 370.504 41.7365 370.349C41.4645 370.077 41.1805 369.941 40.8835 369.941C40.3885 369.941 40.0455 370.133 39.8545 370.516C39.7925 370.64 39.7615 370.779 39.7615 370.934V374.912C39.7615 375.215 39.6805 375.444 39.5205 375.599ZM50.7815 369.387C50.7815 369.084 50.8585 368.849 51.0135 368.682C51.2785 368.41 51.5725 368.274 51.8945 368.274C52.2035 368.274 52.4325 368.355 52.5805 368.515C52.8525 368.794 52.9885 369.084 52.9885 369.387V374.915C52.9885 375.212 52.9115 375.437 52.7565 375.592C52.4845 375.864 52.2345 376 52.0055 376C51.7765 376 51.5945 375.971 51.4585 375.912C51.3225 375.853 51.2045 375.777 51.1055 375.685C50.8895 375.474 50.7815 375.218 50.7815 374.915V369.387ZM51.8895 365.9C51.6275 365.9 51.4145 365.687 51.4145 365.425C51.4145 365.162 51.6275 364.95 51.8895 364.95C52.1515 364.95 52.3645 365.162 52.3645 365.425C52.3645 365.687 52.1515 365.9 51.8895 365.9ZM51.8895 364C52.2765 364 52.6105 364.142 52.8915 364.425C53.1735 364.709 53.3145 364.996 53.3145 365.287C53.3145 365.577 53.2755 365.807 53.1975 365.978C53.1205 366.148 53.0185 366.297 52.8915 366.424C52.6105 366.708 52.2765 366.849 51.8895 366.849C51.5025 366.849 51.1685 366.708 50.8865 366.424C50.6055 366.141 50.4645 365.857 50.4645 365.574C50.4645 365.092 50.6055 364.709 50.8865 364.425C51.1685 364.142 51.5025 364 51.8895 364Z" fill="#1D3557"/>
</g>
<path d="M24.8814 21.8654H22.9014V16.9704H21.1304V15.5954H26.6524V16.9704H24.8814V21.8654ZM33.5447 21.8654H31.4657L31.0917 20.2814C31.0771 20.2227 31.0514 20.1237 31.0147 19.9844C30.9854 19.8377 30.9487 19.7314 30.9047 19.6654C30.8607 19.592 30.7984 19.5444 30.7177 19.5224C30.5124 19.5297 30.2117 19.5334 29.8157 19.5334V21.8654H27.8357V15.6504C28.7231 15.5844 29.5517 15.5514 30.3217 15.5514C31.0184 15.5514 31.5831 15.61 32.0157 15.7274C32.4484 15.8374 32.7711 16.0317 32.9837 16.3104C33.2037 16.5817 33.3137 16.9557 33.3137 17.4324C33.3137 17.8797 33.2111 18.2317 33.0057 18.4884C32.8004 18.7377 32.4704 18.888 32.0157 18.9394V19.0054C32.2724 19.0274 32.4851 19.1117 32.6537 19.2584C32.8297 19.3977 32.9471 19.5774 33.0057 19.7974L33.5447 21.8654ZM29.8157 18.2904C29.8817 18.2977 30.0101 18.3014 30.2007 18.3014C30.7654 18.3014 31.0954 18.2537 31.1907 18.1584C31.2787 18.0704 31.3227 17.865 31.3227 17.5424C31.3227 17.2417 31.2421 17.0364 31.0807 16.9264C30.9267 16.8164 30.6701 16.7614 30.3107 16.7614C30.2301 16.7614 30.0651 16.7687 29.8157 16.7834V18.2904ZM34.7116 15.5954H39.2766V16.9154H36.6916V18.0594H38.8696V19.2474H36.6916V20.5234H39.2656V21.8654H34.7116V15.5954ZM48.7512 21.8654H46.9032L46.7602 18.4114C46.7382 17.7294 46.7125 17.2124 46.6832 16.8604H46.6502C46.5622 17.139 46.4595 17.5717 46.3422 18.1584L46.2872 18.4334L45.5282 21.8654H43.6802L43.0422 18.7744L42.9322 18.2244C42.7782 17.5424 42.6719 17.0877 42.6132 16.8604H42.5802C42.5509 17.227 42.5252 17.8247 42.5032 18.6534C42.4959 18.7047 42.4922 18.7854 42.4922 18.8954L42.3932 21.8654H40.5342L40.7982 15.5954H43.9442L44.4832 18.3014L44.6152 19.0274C44.6739 18.8 44.7289 18.547 44.7802 18.2684L45.2862 15.5954H48.4982L48.7512 21.8654ZM53.2225 22.0084C52.1298 22.0084 51.3085 21.7517 50.7585 21.2384C50.2158 20.7177 49.9445 19.8854 49.9445 18.7414C49.9445 17.6194 50.2451 16.8017 50.8465 16.2884C51.4478 15.775 52.2435 15.5184 53.2335 15.5184C55.3161 15.5184 56.3575 16.556 56.3575 18.6314C56.3575 19.68 56.1008 20.505 55.5875 21.1064C55.0815 21.7077 54.2931 22.0084 53.2225 22.0084ZM53.1785 20.7104C53.3838 20.7104 53.5561 20.6774 53.6955 20.6114C53.8348 20.538 53.9448 20.4134 54.0255 20.2374C54.1795 19.9367 54.2565 19.4454 54.2565 18.7634C54.2565 18.096 54.1795 17.612 54.0255 17.3114C53.8715 17.0034 53.5891 16.842 53.1785 16.8274C53.0245 16.8274 52.8631 16.8457 52.6945 16.8824C52.5331 16.9117 52.4305 16.9557 52.3865 17.0144C52.2985 17.117 52.2288 17.337 52.1775 17.6744C52.1335 18.0044 52.1115 18.3674 52.1115 18.7634C52.1115 19.3794 52.1701 19.8304 52.2875 20.1164C52.3681 20.329 52.4818 20.483 52.6285 20.5784C52.7751 20.6664 52.9585 20.7104 53.1785 20.7104ZM57.7608 15.5954H59.7408V20.4134H62.3038V21.8654H57.7608V15.5954ZM66.6223 22.0084C65.5296 22.0084 64.7083 21.7517 64.1583 21.2384C63.6156 20.7177 63.3443 19.8854 63.3443 18.7414C63.3443 17.6194 63.6449 16.8017 64.2463 16.2884C64.8476 15.775 65.6433 15.5184 66.6333 15.5184C68.7159 15.5184 69.7573 16.556 69.7573 18.6314C69.7573 19.68 69.5006 20.505 68.9873 21.1064C68.4813 21.7077 67.6929 22.0084 66.6223 22.0084ZM66.5783 20.7104C66.7836 20.7104 66.9559 20.6774 67.0953 20.6114C67.2346 20.538 67.3446 20.4134 67.4253 20.2374C67.5793 19.9367 67.6563 19.4454 67.6563 18.7634C67.6563 18.096 67.5793 17.612 67.4253 17.3114C67.2713 17.0034 66.9889 16.842 66.5783 16.8274C66.4243 16.8274 66.2629 16.8457 66.0943 16.8824C65.9329 16.9117 65.8303 16.9557 65.7863 17.0144C65.6983 17.117 65.6286 17.337 65.5773 17.6744C65.5333 18.0044 65.5113 18.3674 65.5113 18.7634C65.5113 19.3794 65.5699 19.8304 65.6873 20.1164C65.7679 20.329 65.8816 20.483 66.0283 20.5784C66.1749 20.6664 66.3583 20.7104 66.5783 20.7104Z" fill="white"/>
<path d="M60.4961 286.098C62.083 286.098 62.9863 285.126 62.9863 283.637V283.036C62.9863 281.542 62.0781 280.57 60.4912 280.57C58.9092 280.57 58.001 281.537 58.001 283.036V283.637C58.001 285.126 58.9141 286.098 60.4961 286.098ZM60.4961 285.077C59.7686 285.077 59.334 284.535 59.334 283.642V283.021C59.334 282.128 59.7686 281.591 60.4961 281.591C61.2188 281.591 61.6533 282.128 61.6533 283.021V283.642C61.6533 284.535 61.2188 285.077 60.4961 285.077ZM67.1338 285.048C66.5234 285.048 66.0986 284.687 66.0986 283.998V280.668H64.7852V284.145C64.7852 285.336 65.6885 286.098 67.1338 286.098C68.5791 286.098 69.4824 285.331 69.4824 284.145V280.668H68.1738V283.998C68.1738 284.682 67.7441 285.048 67.1338 285.048ZM73.8545 286V281.688H75.4023V280.668H70.998V281.688H72.5459V286H73.8545Z" fill="white"/>
<path d="M20.8564 286V280.668H19.5479V286H20.8564ZM24.1689 286V282.753H24.2178L26.5322 286H27.5723V280.668H26.3467V283.886H26.2979L23.9932 280.668H22.9482V286H24.1689Z" fill="white"/>
<path d="M14.4658 229.475C14.4658 228.483 13.7773 227.668 12.5078 227.668H10.1543V233H11.458V231.33H12.498C13.7676 231.33 14.4658 230.476 14.4658 229.475ZM13.1377 229.504C13.1377 230.041 12.8252 230.383 12.2832 230.383H11.4531V228.63H12.2344C12.8057 228.63 13.1377 228.947 13.1377 229.504ZM20.9277 233V227.668H19.6191V229.792H17.4805V227.668H16.1719V233H17.4805V230.808H19.6191V233H20.9277ZM23.8105 233L24.1963 231.75H25.9785L26.3545 233H27.7412L25.915 227.668H24.333L22.502 233H23.8105ZM25.124 228.801L25.7344 230.842H24.4404L25.0605 228.801H25.124ZM28.998 231.447C29.0127 232.346 29.7305 233.098 31.2588 233.098C32.7627 233.098 33.5586 232.385 33.5586 231.384C33.5586 230.446 32.9385 230.036 32.04 229.86L31.2539 229.709C30.7021 229.597 30.4287 229.436 30.4287 229.123C30.4287 228.781 30.7363 228.522 31.2979 228.522C31.8838 228.522 32.2256 228.815 32.2549 229.187H33.4609C33.4512 228.337 32.7188 227.565 31.3027 227.565C29.9941 227.565 29.1201 228.22 29.1201 229.221C29.1201 230.09 29.6768 230.544 30.6729 230.744L31.4199 230.896C31.9863 231.013 32.2646 231.179 32.2646 231.511C32.2646 231.872 31.9521 232.131 31.3125 232.131C30.6777 232.131 30.2773 231.833 30.248 231.447H28.998ZM39.127 232.004H36.6709V230.778H38.9756V229.851H36.6709V228.664H39.127V227.668H35.377V233H39.127V232.004Z" fill="white"/>
<rect x="5.0625" y="47" width="37" height="69" rx="18.5" fill="#36617C"/>
<path d="M8.83203 43.4473C8.84668 44.3457 9.56445 45.0977 11.0928 45.0977C12.5967 45.0977 13.3926 44.3848 13.3926 43.3838C13.3926 42.4463 12.7725 42.0361 11.874 41.8604L11.0879 41.709C10.5361 41.5967 10.2627 41.4355 10.2627 41.123C10.2627 40.7812 10.5703 40.5225 11.1318 40.5225C11.7178 40.5225 12.0596 40.8154 12.0889 41.1865H13.2949C13.2852 40.3369 12.5527 39.5654 11.1367 39.5654C9.82812 39.5654 8.9541 40.2197 8.9541 41.2207C8.9541 42.0898 9.51074 42.5439 10.5068 42.7441L11.2539 42.8955C11.8203 43.0127 12.0986 43.1787 12.0986 43.5107C12.0986 43.8721 11.7861 44.1309 11.1465 44.1309C10.5117 44.1309 10.1113 43.833 10.082 43.4473H8.83203ZM19.9668 45V39.668H18.6582V41.792H16.5195V39.668H15.2109V45H16.5195V42.8076H18.6582V45H19.9668ZM22.8496 45L23.2354 43.75H25.0176L25.3936 45H26.7803L24.9541 39.668H23.3721L21.541 45H22.8496ZM24.1631 40.8008L24.7734 42.8418H23.4795L24.0996 40.8008H24.1631ZM32.6709 41.4746C32.6709 40.4834 31.9824 39.668 30.7129 39.668H28.3594V45H29.6631V43.3301H30.7031C31.9727 43.3301 32.6709 42.4756 32.6709 41.4746ZM31.3428 41.5039C31.3428 42.041 31.0303 42.3828 30.4883 42.3828H29.6582V40.6299H30.4395C31.0107 40.6299 31.3428 40.9473 31.3428 41.5039ZM38.127 44.0039H35.6709V42.7783H37.9756V41.8506H35.6709V40.6641H38.127V39.668H34.377V45H38.127V44.0039Z" fill="white"/>
<path d="M7.0625 82.8478C7.0625 82.8478 8.25532 80.4772 9.5625 80.5207C10.8697 80.5643 12.0625 82.8478 12.0625 82.8478C12.0625 82.8478 13.4109 85.4233 14.5625 85.4233C15.7141 85.4233 17.0625 82.8478 17.0625 82.8478" stroke="white" stroke-width="1.2" stroke-linecap="round"/>
<path d="M31.3125 84.9482L35.8125 81.0518L39.8125 84.9482" stroke="white" stroke-width="1.2" stroke-linecap="round"/>
<rect x="51.5625" y="50" width="30" height="66.1696" rx="15" fill="#36617C"/>
<path d="M51.7959 43.4473C51.8105 44.3457 52.5283 45.0977 54.0566 45.0977C55.5605 45.0977 56.3564 44.3848 56.3564 43.3838C56.3564 42.4463 55.7363 42.0361 54.8379 41.8604L54.0518 41.709C53.5 41.5967 53.2266 41.4355 53.2266 41.123C53.2266 40.7812 53.5342 40.5225 54.0957 40.5225C54.6816 40.5225 55.0234 40.8154 55.0527 41.1865H56.2588C56.249 40.3369 55.5166 39.5654 54.1006 39.5654C52.792 39.5654 51.918 40.2197 51.918 41.2207C51.918 42.0898 52.4746 42.5439 53.4707 42.7441L54.2178 42.8955C54.7842 43.0127 55.0625 43.1787 55.0625 43.5107C55.0625 43.8721 54.75 44.1309 54.1104 44.1309C53.4756 44.1309 53.0752 43.833 53.0459 43.4473H51.7959ZM62.4863 41.4746C62.4863 40.4834 61.7979 39.668 60.5283 39.668H58.1748V45H59.4785V43.3301H60.5186C61.7881 43.3301 62.4863 42.4756 62.4863 41.4746ZM61.1582 41.5039C61.1582 42.041 60.8457 42.3828 60.3037 42.3828H59.4736V40.6299H60.2549C60.8262 40.6299 61.1582 40.9473 61.1582 41.5039ZM67.9424 44.0039H65.4863V42.7783H67.791V41.8506H65.4863V40.6641H67.9424V39.668H64.1924V45H67.9424V44.0039ZM73.6279 44.0039H71.1719V42.7783H73.4766V41.8506H71.1719V40.6641H73.6279V39.668H69.8779V45H73.6279V44.0039ZM80.2852 42.3145C80.2852 40.6348 79.46 39.668 77.7412 39.668H75.5635V45H77.7412C79.4404 45 80.2852 44.0186 80.2852 42.3145ZM78.9473 42.3389C78.9473 43.6475 78.3662 44.0039 77.5264 44.0039H76.8721V40.6641H77.5264C78.5811 40.6641 78.9473 41.3525 78.9473 42.3389Z" fill="white"/>
<rect x="8.5625" y="145" width="30" height="66.1663" rx="15" fill="#36617C"/>
<path d="M8.89368 140H11.3888C12.5167 140 13.3517 139.443 13.3517 138.486C13.3517 137.666 12.7316 137.246 12.0773 137.197V137.144C12.6437 137.036 13.0782 136.641 13.0782 135.981C13.0782 135.166 12.3947 134.668 11.3595 134.668H8.89368V140ZM10.1876 135.571H11.0323C11.5304 135.571 11.799 135.815 11.799 136.191C11.799 136.582 11.5255 136.836 10.8615 136.836H10.1876V135.571ZM10.1876 137.666H11.1007C11.7159 137.666 12.0236 137.949 12.0236 138.389C12.0236 138.823 11.7355 139.102 10.9445 139.102H10.1876V137.666ZM18.7345 138.96H16.4445V134.668H15.1359V140H18.7345V138.96ZM24.1417 139.004H21.6857V137.778H23.9904V136.851H21.6857V135.664H24.1417V134.668H20.3917V140H24.1417V139.004ZM27.298 140V136.753H27.3468L29.6613 140H30.7013V134.668H29.4757V137.886H29.4269L27.1222 134.668H26.0773V140H27.298ZM37.5197 137.314C37.5197 135.635 36.6945 134.668 34.9757 134.668H32.798V140H34.9757C36.6749 140 37.5197 139.019 37.5197 137.314ZM36.1818 137.339C36.1818 138.647 35.6007 139.004 34.7609 139.004H34.1066V135.664H34.7609C35.8156 135.664 36.1818 136.353 36.1818 137.339Z" fill="white"/>
<rect x="52.5575" y="211" width="65" height="28" rx="14" transform="rotate(-90 52.5575 211)" fill="#36617C"/>
<path d="M48.5214 140H51.0165C52.1444 140 52.9794 139.443 52.9794 138.486C52.9794 137.666 52.3593 137.246 51.705 137.197V137.144C52.2714 137.036 52.7059 136.641 52.7059 135.981C52.7059 135.166 52.0223 134.668 50.9872 134.668H48.5214V140ZM49.8153 135.571H50.66C51.1581 135.571 51.4266 135.815 51.4266 136.191C51.4266 136.582 51.1532 136.836 50.4891 136.836H49.8153V135.571ZM49.8153 137.666H50.7284C51.3436 137.666 51.6512 137.949 51.6512 138.389C51.6512 138.823 51.3632 139.102 50.5721 139.102H49.8153V137.666ZM55.9647 140H57.2684V138.086L59.1581 134.668H57.7567L56.6581 136.875H56.6093L55.5106 134.668H54.0751L55.9647 138.115V140ZM64.9071 136.475C64.9071 135.483 64.2186 134.668 62.9491 134.668H60.5956V140H61.8993V138.33H62.9393C64.2089 138.33 64.9071 137.476 64.9071 136.475ZM63.579 136.504C63.579 137.041 63.2665 137.383 62.7245 137.383H61.8944V135.63H62.6757C63.2469 135.63 63.579 135.947 63.579 136.504ZM67.0526 140L67.4384 138.75H69.2206L69.5966 140H70.9833L69.1571 134.668H67.5751L65.744 140H67.0526ZM68.3661 135.801L68.9764 137.842H67.6825L68.3026 135.801H68.3661ZM72.2401 138.447C72.2548 139.346 72.9725 140.098 74.5009 140.098C76.0048 140.098 76.8007 139.385 76.8007 138.384C76.8007 137.446 76.1805 137.036 75.2821 136.86L74.496 136.709C73.9442 136.597 73.6708 136.436 73.6708 136.123C73.6708 135.781 73.9784 135.522 74.5399 135.522C75.1259 135.522 75.4677 135.815 75.4969 136.187H76.703C76.6932 135.337 75.9608 134.565 74.5448 134.565C73.2362 134.565 72.3622 135.22 72.3622 136.221C72.3622 137.09 72.9188 137.544 73.9149 137.744L74.662 137.896C75.2284 138.013 75.5067 138.179 75.5067 138.511C75.5067 138.872 75.1942 139.131 74.5546 139.131C73.9198 139.131 73.5194 138.833 73.4901 138.447H72.2401ZM78.2968 138.447C78.3114 139.346 79.0292 140.098 80.5575 140.098C82.0614 140.098 82.8573 139.385 82.8573 138.384C82.8573 137.446 82.2372 137.036 81.3387 136.86L80.5526 136.709C80.0009 136.597 79.7274 136.436 79.7274 136.123C79.7274 135.781 80.035 135.522 80.5966 135.522C81.1825 135.522 81.5243 135.815 81.5536 136.187H82.7596C82.7499 135.337 82.0175 134.565 80.6014 134.565C79.2928 134.565 78.4188 135.22 78.4188 136.221C78.4188 137.09 78.9755 137.544 79.9716 137.744L80.7186 137.896C81.285 138.013 81.5634 138.179 81.5634 138.511C81.5634 138.872 81.2509 139.131 80.6112 139.131C79.9764 139.131 79.576 138.833 79.5468 138.447H78.2968Z" fill="white"/>
</svg>
