<svg width="90" height="380" viewBox="0 0 90 380" fill="none" xmlns="http://www.w3.org/2000/svg">
<rect width="90" height="380" fill="#457B9D"/>
<g opacity="0.3">
<path fill-rule="evenodd" clip-rule="evenodd" d="M38.958 375.599C38.803 375.747 38.659 375.851 38.526 375.909C38.393 375.968 38.251 375.998 38.1 375.998C37.948 375.998 37.806 375.97 37.673 375.914C37.54 375.858 37.424 375.781 37.325 375.682C37.109 375.466 37 375.209 37 374.912V369.385C37 369.082 37.078 368.847 37.232 368.68C37.498 368.408 37.75 368.272 37.988 368.272C38.226 368.272 38.404 368.296 38.522 368.346C38.639 368.395 38.738 368.457 38.818 368.531C38.924 368.624 39.002 368.723 39.055 368.828C39.108 368.933 39.151 369.011 39.185 369.06C39.219 369.11 39.275 369.134 39.352 369.134C39.429 369.134 39.496 369.11 39.551 369.06L39.709 368.902C40.16 368.482 40.612 368.272 41.063 368.272C41.861 368.272 42.519 368.599 43.039 369.255C43.088 369.323 43.15 369.357 43.224 369.357C43.354 369.357 43.486 369.256 43.619 369.055C43.752 368.854 43.966 368.674 44.263 368.513C44.56 368.352 44.906 368.272 45.302 368.272C45.698 368.272 46.058 368.344 46.383 368.49C46.707 368.635 46.99 368.834 47.231 369.088C47.738 369.62 47.992 370.263 47.992 371.017V374.912C47.992 375.382 47.769 375.713 47.324 375.905C47.188 375.967 47.044 375.998 46.893 375.998C46.741 375.998 46.599 375.97 46.466 375.914C46.333 375.858 46.217 375.781 46.118 375.682C45.908 375.46 45.803 375.203 45.803 374.912V371.045C45.803 370.736 45.726 370.504 45.571 370.349C45.299 370.077 45.049 369.941 44.82 369.941C44.591 369.941 44.412 369.971 44.282 370.029C44.152 370.088 44.034 370.17 43.929 370.275C43.713 370.492 43.605 370.742 43.605 371.026V374.912C43.605 375.382 43.385 375.713 42.946 375.905C42.81 375.967 42.666 375.998 42.515 375.998C42.363 375.998 42.22 375.97 42.083 375.914C41.947 375.858 41.83 375.781 41.731 375.682C41.515 375.466 41.406 375.209 41.406 374.912V371.045C41.406 370.736 41.329 370.504 41.174 370.349C40.902 370.077 40.618 369.941 40.321 369.941C39.826 369.941 39.483 370.133 39.292 370.516C39.23 370.64 39.199 370.779 39.199 370.934V374.912C39.199 375.215 39.118 375.444 38.958 375.599ZM50.219 369.387C50.219 369.084 50.296 368.849 50.451 368.682C50.716 368.41 51.01 368.274 51.332 368.274C51.641 368.274 51.87 368.355 52.018 368.515C52.29 368.794 52.426 369.084 52.426 369.387V374.915C52.426 375.212 52.349 375.437 52.194 375.592C51.922 375.864 51.672 376 51.443 376C51.214 376 51.032 375.971 50.896 375.912C50.76 375.853 50.642 375.777 50.543 375.685C50.327 375.474 50.219 375.218 50.219 374.915V369.387ZM51.327 365.9C51.065 365.9 50.852 365.687 50.852 365.425C50.852 365.162 51.065 364.95 51.327 364.95C51.589 364.95 51.802 365.162 51.802 365.425C51.802 365.687 51.589 365.9 51.327 365.9ZM51.327 364C51.714 364 52.048 364.142 52.329 364.425C52.611 364.709 52.752 364.996 52.752 365.287C52.752 365.577 52.713 365.807 52.635 365.978C52.558 366.148 52.456 366.297 52.329 366.424C52.048 366.708 51.714 366.849 51.327 366.849C50.94 366.849 50.606 366.708 50.324 366.424C50.043 366.141 49.902 365.857 49.902 365.574C49.902 365.092 50.043 364.709 50.324 364.425C50.606 364.142 50.94 364 51.327 364Z" fill="#1D3557"/>
</g>
<path d="M11.96 21.8654H9.97999V16.9704H8.20899V15.5954H13.731V16.9704H11.96V21.8654ZM20.6234 21.8654H18.5444L18.1704 20.2814C18.1557 20.2227 18.13 20.1237 18.0934 19.9844C18.064 19.8377 18.0274 19.7314 17.9834 19.6654C17.9394 19.592 17.877 19.5444 17.7964 19.5224C17.591 19.5297 17.2904 19.5334 16.8944 19.5334V21.8654H14.9144V15.6504C15.8017 15.5844 16.6304 15.5514 17.4004 15.5514C18.097 15.5514 18.6617 15.61 19.0944 15.7274C19.527 15.8374 19.8497 16.0317 20.0624 16.3104C20.2824 16.5817 20.3924 16.9557 20.3924 17.4324C20.3924 17.8797 20.2897 18.2317 20.0844 18.4884C19.879 18.7377 19.549 18.888 19.0944 18.9394V19.0054C19.351 19.0274 19.5637 19.1117 19.7324 19.2584C19.9084 19.3977 20.0257 19.5774 20.0844 19.7974L20.6234 21.8654ZM16.8944 18.2904C16.9604 18.2977 17.0887 18.3014 17.2794 18.3014C17.844 18.3014 18.174 18.2537 18.2694 18.1584C18.3574 18.0704 18.4014 17.865 18.4014 17.5424C18.4014 17.2417 18.3207 17.0364 18.1594 16.9264C18.0054 16.8164 17.7487 16.7614 17.3894 16.7614C17.3087 16.7614 17.1437 16.7687 16.8944 16.7834V18.2904ZM21.8562 15.5954H23.8362V21.8654H21.8562V15.5954ZM30.9777 18.3894V21.5244C30.4864 21.6857 30.0207 21.803 29.5807 21.8764C29.1407 21.9497 28.7704 21.9864 28.4697 21.9864C27.4724 21.9864 26.6914 21.726 26.1267 21.2054C25.562 20.6847 25.2797 19.8854 25.2797 18.8074C25.2797 17.7074 25.5767 16.886 26.1707 16.3434C26.7647 15.7934 27.6007 15.5184 28.6787 15.5184C29.2434 15.5184 29.9217 15.6027 30.7137 15.7714C30.7137 15.918 30.699 16.138 30.6697 16.4314C30.6404 16.7174 30.611 16.919 30.5817 17.0364L30.1857 17.0254C29.7017 17.0107 29.324 17.0034 29.0527 17.0034C28.2387 17.0034 27.795 17.051 27.7217 17.1464C27.6044 17.2857 27.52 17.502 27.4687 17.7954C27.4247 18.0887 27.4027 18.371 27.4027 18.6424C27.4027 19.1337 27.4577 19.515 27.5677 19.7864C27.6777 20.0577 27.8464 20.2484 28.0737 20.3584C28.301 20.4684 28.609 20.5234 28.9977 20.5234H29.0417V18.3894H30.9777ZM37.9408 18.3894V21.5244C37.4495 21.6857 36.9838 21.803 36.5438 21.8764C36.1038 21.9497 35.7335 21.9864 35.4328 21.9864C34.4355 21.9864 33.6545 21.726 33.0898 21.2054C32.5251 20.6847 32.2428 19.8854 32.2428 18.8074C32.2428 17.7074 32.5398 16.886 33.1338 16.3434C33.7278 15.7934 34.5638 15.5184 35.6418 15.5184C36.2065 15.5184 36.8848 15.6027 37.6768 15.7714C37.6768 15.918 37.6621 16.138 37.6328 16.4314C37.6035 16.7174 37.5741 16.919 37.5448 17.0364L37.1488 17.0254C36.6648 17.0107 36.2871 17.0034 36.0158 17.0034C35.2018 17.0034 34.7581 17.051 34.6848 17.1464C34.5675 17.2857 34.4831 17.502 34.4318 17.7954C34.3878 18.0887 34.3658 18.371 34.3658 18.6424C34.3658 19.1337 34.4208 19.515 34.5308 19.7864C34.6408 20.0577 34.8095 20.2484 35.0368 20.3584C35.2641 20.4684 35.5721 20.5234 35.9608 20.5234H36.0048V18.3894H37.9408ZM39.3709 15.5954H43.9359V16.9154H41.3509V18.0594H43.5289V19.2474H41.3509V20.5234H43.9249V21.8654H39.3709V15.5954ZM51.0345 21.8654H48.9555L48.5815 20.2814C48.5668 20.2227 48.5412 20.1237 48.5045 19.9844C48.4752 19.8377 48.4385 19.7314 48.3945 19.6654C48.3505 19.592 48.2882 19.5444 48.2075 19.5224C48.0022 19.5297 47.7015 19.5334 47.3055 19.5334V21.8654H45.3255V15.6504C46.2128 15.5844 47.0415 15.5514 47.8115 15.5514C48.5082 15.5514 49.0728 15.61 49.5055 15.7274C49.9382 15.8374 50.2608 16.0317 50.4735 16.3104C50.6935 16.5817 50.8035 16.9557 50.8035 17.4324C50.8035 17.8797 50.7008 18.2317 50.4955 18.4884C50.2902 18.7377 49.9602 18.888 49.5055 18.9394V19.0054C49.7622 19.0274 49.9748 19.1117 50.1435 19.2584C50.3195 19.3977 50.4368 19.5774 50.4955 19.7974L51.0345 21.8654ZM47.3055 18.2904C47.3715 18.2977 47.4998 18.3014 47.6905 18.3014C48.2552 18.3014 48.5852 18.2537 48.6805 18.1584C48.7685 18.0704 48.8125 17.865 48.8125 17.5424C48.8125 17.2417 48.7318 17.0364 48.5705 16.9264C48.4165 16.8164 48.1598 16.7614 47.8005 16.7614C47.7198 16.7614 47.5548 16.7687 47.3055 16.7834V18.2904ZM54.0603 17.2894C54.0603 17.4434 54.1373 17.5644 54.2913 17.6524C54.4527 17.7404 54.702 17.8357 55.0393 17.9384C55.4427 18.0704 55.7727 18.1987 56.0293 18.3234C56.2933 18.448 56.5207 18.6424 56.7113 18.9064C56.9093 19.1704 57.0083 19.515 57.0083 19.9404C57.0083 21.3044 56.121 21.9864 54.3463 21.9864C54.053 21.9864 53.6937 21.9607 53.2683 21.9094C52.8503 21.858 52.469 21.792 52.1243 21.7114C52.139 21.5574 52.1683 21.3337 52.2123 21.0404C52.2637 20.7397 52.3113 20.516 52.3553 20.3694C52.612 20.406 52.997 20.45 53.5103 20.5014C54.031 20.5527 54.4233 20.5784 54.6873 20.5784C54.8413 20.5784 54.933 20.5674 54.9623 20.5454C55.0063 20.516 55.0393 20.4684 55.0613 20.4024C55.0907 20.329 55.1053 20.2667 55.1053 20.2154C55.1053 20.0687 55.0357 19.9587 54.8963 19.8854C54.757 19.8047 54.5187 19.7094 54.1813 19.5994C53.778 19.4747 53.4443 19.3464 53.1803 19.2144C52.9163 19.0824 52.6853 18.877 52.4873 18.5984C52.2893 18.3197 52.1903 17.953 52.1903 17.4984C52.1903 17.1757 52.2637 16.8604 52.4103 16.5524C52.557 16.237 52.7073 16.0244 52.8613 15.9144C52.9787 15.8337 53.2207 15.7567 53.5873 15.6834C53.954 15.61 54.2987 15.5734 54.6213 15.5734C55.4427 15.5734 56.1137 15.6504 56.6343 15.8044C56.627 15.951 56.6013 16.1527 56.5573 16.4094C56.5207 16.666 56.4803 16.9007 56.4363 17.1134L56.1833 17.1024C55.23 17.0364 54.6213 17.0034 54.3573 17.0034C54.2473 17.0034 54.185 17.007 54.1703 17.0144C54.141 17.029 54.1153 17.062 54.0933 17.1134C54.0713 17.1647 54.0603 17.2234 54.0603 17.2894ZM68.7568 21.8654H66.9088L66.7658 18.4114C66.7438 17.7294 66.7181 17.2124 66.6888 16.8604H66.6558C66.5678 17.139 66.4651 17.5717 66.3478 18.1584L66.2928 18.4334L65.5338 21.8654H63.6858L63.0478 18.7744L62.9378 18.2244C62.7838 17.5424 62.6774 17.0877 62.6188 16.8604H62.5858C62.5564 17.227 62.5308 17.8247 62.5088 18.6534C62.5014 18.7047 62.4978 18.7854 62.4978 18.8954L62.3988 21.8654H60.5398L60.8038 15.5954H63.9498L64.4888 18.3014L64.6208 19.0274C64.6794 18.8 64.7344 18.547 64.7858 18.2684L65.2918 15.5954H68.5038L68.7568 21.8654ZM76.1294 21.8654H73.9624L72.7414 19.5224C72.7194 19.4857 72.6608 19.383 72.5654 19.2144C72.4774 19.0457 72.3784 18.8844 72.2684 18.7304V21.8654H70.2884V15.5954H72.2684V18.4444C72.3931 18.305 72.4994 18.1547 72.5874 17.9934C72.6828 17.8247 72.7378 17.7257 72.7524 17.6964L73.9294 15.5954H76.0194L74.7654 17.6964C74.7434 17.7257 74.6958 17.8027 74.6224 17.9274C74.5491 18.052 74.4684 18.1694 74.3804 18.2794C74.2998 18.382 74.2118 18.4774 74.1164 18.5654C74.2484 18.69 74.3548 18.8147 74.4354 18.9394C74.5234 19.0567 74.6224 19.2144 74.7324 19.4124L76.1294 21.8654ZM80.0583 18.6644C80.579 18.701 80.953 18.8477 81.1803 19.1044C81.4077 19.361 81.5213 19.68 81.5213 20.0614C81.5213 20.6114 81.316 21.0734 80.9053 21.4474C80.4947 21.814 79.8383 21.9974 78.9363 21.9974C78.3277 21.9974 77.6493 21.9387 76.9013 21.8214L77.1213 20.6114C77.7813 20.6407 78.214 20.6554 78.4193 20.6554C78.8227 20.6554 79.116 20.604 79.2993 20.5014C79.49 20.3987 79.5853 20.197 79.5853 19.8964C79.5853 19.6837 79.5157 19.526 79.3763 19.4234C79.2443 19.3134 79.0537 19.2437 78.8043 19.2144C78.555 19.185 78.1993 19.1704 77.7373 19.1704V18.1474C78.1993 18.1474 78.5477 18.1364 78.7823 18.1144C79.0243 18.085 79.2077 18.0227 79.3323 17.9274C79.4643 17.832 79.5303 17.6817 79.5303 17.4764C79.5303 17.3004 79.5267 17.161 79.5193 17.0584C79.512 16.9557 79.4863 16.8897 79.4423 16.8604C79.3837 16.8237 79.1233 16.8054 78.6613 16.8054C78.2433 16.8054 77.7337 16.82 77.1323 16.8494L77.0223 15.6834C77.8217 15.5734 78.4633 15.5184 78.9473 15.5184C79.6513 15.5184 80.227 15.654 80.6743 15.9254C81.129 16.1967 81.3563 16.6367 81.3563 17.2454C81.3563 17.5534 81.2537 17.8467 81.0483 18.1254C80.8503 18.3967 80.5203 18.5654 80.0583 18.6314V18.6644Z" fill="white"/>
<path d="M64.4336 85.0977C66.0205 85.0977 66.9238 84.126 66.9238 82.6367V82.0361C66.9238 80.542 66.0156 79.5703 64.4287 79.5703C62.8467 79.5703 61.9385 80.5371 61.9385 82.0361V82.6367C61.9385 84.126 62.8516 85.0977 64.4336 85.0977ZM64.4336 84.0771C63.7061 84.0771 63.2715 83.5352 63.2715 82.6416V82.0215C63.2715 81.1279 63.7061 80.5908 64.4336 80.5908C65.1562 80.5908 65.5908 81.1279 65.5908 82.0215V82.6416C65.5908 83.5352 65.1562 84.0771 64.4336 84.0771ZM71.0713 84.0479C70.4609 84.0479 70.0361 83.6865 70.0361 82.998V79.668H68.7227V83.1445C68.7227 84.3359 69.626 85.0977 71.0713 85.0977C72.5166 85.0977 73.4199 84.3311 73.4199 83.1445V79.668H72.1113V82.998C72.1113 83.6816 71.6816 84.0479 71.0713 84.0479ZM77.792 85V80.6885H79.3398V79.668H74.9355V80.6885H76.4834V85H77.792Z" fill="white"/>
<path d="M64.4336 245.098C66.0205 245.098 66.9238 244.126 66.9238 242.637V242.036C66.9238 240.542 66.0156 239.57 64.4287 239.57C62.8467 239.57 61.9385 240.537 61.9385 242.036V242.637C61.9385 244.126 62.8516 245.098 64.4336 245.098ZM64.4336 244.077C63.7061 244.077 63.2715 243.535 63.2715 242.642V242.021C63.2715 241.128 63.7061 240.591 64.4336 240.591C65.1562 240.591 65.5908 241.128 65.5908 242.021V242.642C65.5908 243.535 65.1562 244.077 64.4336 244.077ZM71.0713 244.048C70.4609 244.048 70.0361 243.687 70.0361 242.998V239.668H68.7227V243.145C68.7227 244.336 69.626 245.098 71.0713 245.098C72.5166 245.098 73.4199 244.331 73.4199 243.145V239.668H72.1113V242.998C72.1113 243.682 71.6816 244.048 71.0713 244.048ZM77.792 245V240.688H79.3398V239.668H74.9355V240.688H76.4834V245H77.792Z" fill="white"/>
<path d="M29.2983 84.8295H26.8423V83.6039H29.147V82.6761H26.8423V81.4896H29.2983V80.4935H25.5483V85.8256H29.2983V84.8295ZM35.7603 80.4935H34.3003L33.2505 82.3099H33.1919L32.1421 80.4935H30.6089L32.3032 83.14L30.604 85.8256H32.0103L33.104 84.0531H33.1626L34.2563 85.8256H35.7407L33.9976 83.1595L35.7603 80.4935ZM39.7661 85.8256V81.514H41.314V80.4935H36.9097V81.514H38.4575V85.8256H39.7661Z" fill="white"/>
<path d="M14 83H23" stroke="white" stroke-width="0.5"/>
<path d="M44 83H53" stroke="white" stroke-width="0.5"/>
<path d="M29.2983 244.004H26.8423V242.778H29.147V241.851H26.8423V240.664H29.2983V239.668H25.5483V245H29.2983V244.004ZM35.7603 239.668H34.3003L33.2505 241.484H33.1919L32.1421 239.668H30.6089L32.3032 242.314L30.604 245H32.0103L33.104 243.228H33.1626L34.2563 245H35.7407L33.9976 242.334L35.7603 239.668ZM39.7661 245V240.688H41.314V239.668H36.9097V240.688H38.4575V245H39.7661Z" fill="white"/>
<path d="M14 242.174H23" stroke="white" stroke-width="0.5"/>
<path d="M44 242.174H53" stroke="white" stroke-width="0.5"/>
</svg>
