<svg width="90" height="380" viewBox="0 0 90 380" fill="none" xmlns="http://www.w3.org/2000/svg">
<rect width="90" height="380" fill="#457B9D"/>
<g opacity="0.3">
<path fill-rule="evenodd" clip-rule="evenodd" d="M38.958 375.599C38.803 375.747 38.659 375.851 38.526 375.909C38.393 375.968 38.251 375.998 38.1 375.998C37.948 375.998 37.806 375.97 37.673 375.914C37.54 375.858 37.424 375.781 37.325 375.682C37.109 375.466 37 375.209 37 374.912V369.385C37 369.082 37.078 368.847 37.232 368.68C37.498 368.408 37.75 368.272 37.988 368.272C38.226 368.272 38.404 368.296 38.522 368.346C38.639 368.395 38.738 368.457 38.818 368.531C38.924 368.624 39.002 368.723 39.055 368.828C39.108 368.933 39.151 369.011 39.185 369.06C39.219 369.11 39.275 369.134 39.352 369.134C39.429 369.134 39.496 369.11 39.551 369.06L39.709 368.902C40.16 368.482 40.612 368.272 41.063 368.272C41.861 368.272 42.519 368.599 43.039 369.255C43.088 369.323 43.15 369.357 43.224 369.357C43.354 369.357 43.486 369.256 43.619 369.055C43.752 368.854 43.966 368.674 44.263 368.513C44.56 368.352 44.906 368.272 45.302 368.272C45.698 368.272 46.058 368.344 46.383 368.49C46.707 368.635 46.99 368.834 47.231 369.088C47.738 369.62 47.992 370.263 47.992 371.017V374.912C47.992 375.382 47.769 375.713 47.324 375.905C47.188 375.967 47.044 375.998 46.893 375.998C46.741 375.998 46.599 375.97 46.466 375.914C46.333 375.858 46.217 375.781 46.118 375.682C45.908 375.46 45.803 375.203 45.803 374.912V371.045C45.803 370.736 45.726 370.504 45.571 370.349C45.299 370.077 45.049 369.941 44.82 369.941C44.591 369.941 44.412 369.971 44.282 370.029C44.152 370.088 44.034 370.17 43.929 370.275C43.713 370.492 43.605 370.742 43.605 371.026V374.912C43.605 375.382 43.385 375.713 42.946 375.905C42.81 375.967 42.666 375.998 42.515 375.998C42.363 375.998 42.22 375.97 42.083 375.914C41.947 375.858 41.83 375.781 41.731 375.682C41.515 375.466 41.406 375.209 41.406 374.912V371.045C41.406 370.736 41.329 370.504 41.174 370.349C40.902 370.077 40.618 369.941 40.321 369.941C39.826 369.941 39.483 370.133 39.292 370.516C39.23 370.64 39.199 370.779 39.199 370.934V374.912C39.199 375.215 39.118 375.444 38.958 375.599ZM50.219 369.387C50.219 369.084 50.296 368.849 50.451 368.682C50.716 368.41 51.01 368.274 51.332 368.274C51.641 368.274 51.87 368.355 52.018 368.515C52.29 368.794 52.426 369.084 52.426 369.387V374.915C52.426 375.212 52.349 375.437 52.194 375.592C51.922 375.864 51.672 376 51.443 376C51.214 376 51.032 375.971 50.896 375.912C50.76 375.853 50.642 375.777 50.543 375.685C50.327 375.474 50.219 375.218 50.219 374.915V369.387ZM51.327 365.9C51.065 365.9 50.852 365.687 50.852 365.425C50.852 365.162 51.065 364.95 51.327 364.95C51.589 364.95 51.802 365.162 51.802 365.425C51.802 365.687 51.589 365.9 51.327 365.9ZM51.327 364C51.714 364 52.048 364.142 52.329 364.425C52.611 364.709 52.752 364.996 52.752 365.287C52.752 365.577 52.713 365.807 52.635 365.978C52.558 366.148 52.456 366.297 52.329 366.424C52.048 366.708 51.714 366.849 51.327 366.849C50.94 366.849 50.606 366.708 50.324 366.424C50.043 366.141 49.902 365.857 49.902 365.574C49.902 365.092 50.043 364.709 50.324 364.425C50.606 364.142 50.94 364 51.327 364Z" fill="#1D3557"/>
</g>
<path d="M11.8418 21.8654H9.86183V16.9704H8.09083V15.5954H13.6128V16.9704H11.8418V21.8654ZM20.5052 21.8654H18.4262L18.0522 20.2814C18.0375 20.2227 18.0119 20.1237 17.9752 19.9844C17.9459 19.8377 17.9092 19.7314 17.8652 19.6654C17.8212 19.592 17.7589 19.5444 17.6782 19.5224C17.4729 19.5297 17.1722 19.5334 16.7762 19.5334V21.8654H14.7962V15.6504C15.6835 15.5844 16.5122 15.5514 17.2822 15.5514C17.9789 15.5514 18.5435 15.61 18.9762 15.7274C19.4089 15.8374 19.7315 16.0317 19.9442 16.3104C20.1642 16.5817 20.2742 16.9557 20.2742 17.4324C20.2742 17.8797 20.1715 18.2317 19.9662 18.4884C19.7609 18.7377 19.4309 18.888 18.9762 18.9394V19.0054C19.2329 19.0274 19.4455 19.1117 19.6142 19.2584C19.7902 19.3977 19.9075 19.5774 19.9662 19.7974L20.5052 21.8654ZM16.7762 18.2904C16.8422 18.2977 16.9705 18.3014 17.1612 18.3014C17.7259 18.3014 18.0559 18.2537 18.1512 18.1584C18.2392 18.0704 18.2832 17.865 18.2832 17.5424C18.2832 17.2417 18.2025 17.0364 18.0412 16.9264C17.8872 16.8164 17.6305 16.7614 17.2712 16.7614C17.1905 16.7614 17.0255 16.7687 16.7762 16.7834V18.2904ZM21.738 15.5954H23.718V21.8654H21.738V15.5954ZM30.8595 18.3894V21.5244C30.3682 21.6857 29.9025 21.803 29.4625 21.8764C29.0225 21.9497 28.6522 21.9864 28.3515 21.9864C27.3542 21.9864 26.5732 21.726 26.0085 21.2054C25.4439 20.6847 25.1615 19.8854 25.1615 18.8074C25.1615 17.7074 25.4585 16.886 26.0525 16.3434C26.6465 15.7934 27.4825 15.5184 28.5605 15.5184C29.1252 15.5184 29.8035 15.6027 30.5955 15.7714C30.5955 15.918 30.5809 16.138 30.5515 16.4314C30.5222 16.7174 30.4929 16.919 30.4635 17.0364L30.0675 17.0254C29.5835 17.0107 29.2059 17.0034 28.9345 17.0034C28.1205 17.0034 27.6769 17.051 27.6035 17.1464C27.4862 17.2857 27.4019 17.502 27.3505 17.7954C27.3065 18.0887 27.2845 18.371 27.2845 18.6424C27.2845 19.1337 27.3395 19.515 27.4495 19.7864C27.5595 20.0577 27.7282 20.2484 27.9555 20.3584C28.1829 20.4684 28.4909 20.5234 28.8795 20.5234H28.9235V18.3894H30.8595ZM37.8226 18.3894V21.5244C37.3313 21.6857 36.8656 21.803 36.4256 21.8764C35.9856 21.9497 35.6153 21.9864 35.3146 21.9864C34.3173 21.9864 33.5363 21.726 32.9716 21.2054C32.407 20.6847 32.1246 19.8854 32.1246 18.8074C32.1246 17.7074 32.4216 16.886 33.0156 16.3434C33.6096 15.7934 34.4456 15.5184 35.5236 15.5184C36.0883 15.5184 36.7666 15.6027 37.5586 15.7714C37.5586 15.918 37.544 16.138 37.5146 16.4314C37.4853 16.7174 37.456 16.919 37.4266 17.0364L37.0306 17.0254C36.5466 17.0107 36.169 17.0034 35.8976 17.0034C35.0836 17.0034 34.64 17.051 34.5666 17.1464C34.4493 17.2857 34.365 17.502 34.3136 17.7954C34.2696 18.0887 34.2476 18.371 34.2476 18.6424C34.2476 19.1337 34.3026 19.515 34.4126 19.7864C34.5226 20.0577 34.6913 20.2484 34.9186 20.3584C35.146 20.4684 35.454 20.5234 35.8426 20.5234H35.8866V18.3894H37.8226ZM39.2527 15.5954H43.8177V16.9154H41.2327V18.0594H43.4107V19.2474H41.2327V20.5234H43.8067V21.8654H39.2527V15.5954ZM50.9163 21.8654H48.8373L48.4633 20.2814C48.4487 20.2227 48.423 20.1237 48.3863 19.9844C48.357 19.8377 48.3203 19.7314 48.2763 19.6654C48.2323 19.592 48.17 19.5444 48.0893 19.5224C47.884 19.5297 47.5833 19.5334 47.1873 19.5334V21.8654H45.2073V15.6504C46.0947 15.5844 46.9233 15.5514 47.6933 15.5514C48.39 15.5514 48.9547 15.61 49.3873 15.7274C49.82 15.8374 50.1427 16.0317 50.3553 16.3104C50.5753 16.5817 50.6853 16.9557 50.6853 17.4324C50.6853 17.8797 50.5827 18.2317 50.3773 18.4884C50.172 18.7377 49.842 18.888 49.3873 18.9394V19.0054C49.644 19.0274 49.8567 19.1117 50.0253 19.2584C50.2013 19.3977 50.3187 19.5774 50.3773 19.7974L50.9163 21.8654ZM47.1873 18.2904C47.2533 18.2977 47.3817 18.3014 47.5723 18.3014C48.137 18.3014 48.467 18.2537 48.5623 18.1584C48.6503 18.0704 48.6943 17.865 48.6943 17.5424C48.6943 17.2417 48.6137 17.0364 48.4523 16.9264C48.2983 16.8164 48.0417 16.7614 47.6823 16.7614C47.6017 16.7614 47.4367 16.7687 47.1873 16.7834V18.2904ZM53.9422 17.2894C53.9422 17.4434 54.0192 17.5644 54.1732 17.6524C54.3345 17.7404 54.5838 17.8357 54.9212 17.9384C55.3245 18.0704 55.6545 18.1987 55.9112 18.3234C56.1752 18.448 56.4025 18.6424 56.5932 18.9064C56.7912 19.1704 56.8902 19.515 56.8902 19.9404C56.8902 21.3044 56.0028 21.9864 54.2282 21.9864C53.9348 21.9864 53.5755 21.9607 53.1502 21.9094C52.7322 21.858 52.3508 21.792 52.0062 21.7114C52.0208 21.5574 52.0502 21.3337 52.0942 21.0404C52.1455 20.7397 52.1932 20.516 52.2372 20.3694C52.4938 20.406 52.8788 20.45 53.3922 20.5014C53.9128 20.5527 54.3052 20.5784 54.5692 20.5784C54.7232 20.5784 54.8148 20.5674 54.8442 20.5454C54.8882 20.516 54.9212 20.4684 54.9432 20.4024C54.9725 20.329 54.9872 20.2667 54.9872 20.2154C54.9872 20.0687 54.9175 19.9587 54.7782 19.8854C54.6388 19.8047 54.4005 19.7094 54.0632 19.5994C53.6598 19.4747 53.3262 19.3464 53.0622 19.2144C52.7982 19.0824 52.5672 18.877 52.3692 18.5984C52.1712 18.3197 52.0722 17.953 52.0722 17.4984C52.0722 17.1757 52.1455 16.8604 52.2922 16.5524C52.4388 16.237 52.5892 16.0244 52.7432 15.9144C52.8605 15.8337 53.1025 15.7567 53.4692 15.6834C53.8358 15.61 54.1805 15.5734 54.5032 15.5734C55.3245 15.5734 55.9955 15.6504 56.5162 15.8044C56.5088 15.951 56.4832 16.1527 56.4392 16.4094C56.4025 16.666 56.3622 16.9007 56.3182 17.1134L56.0652 17.1024C55.1118 17.0364 54.5032 17.0034 54.2392 17.0034C54.1292 17.0034 54.0668 17.007 54.0522 17.0144C54.0228 17.029 53.9972 17.062 53.9752 17.1134C53.9532 17.1647 53.9422 17.2234 53.9422 17.2894ZM68.6386 21.8654H66.7906L66.6476 18.4114C66.6256 17.7294 66.5999 17.2124 66.5706 16.8604H66.5376C66.4496 17.139 66.3469 17.5717 66.2296 18.1584L66.1746 18.4334L65.4156 21.8654H63.5676L62.9296 18.7744L62.8196 18.2244C62.6656 17.5424 62.5593 17.0877 62.5006 16.8604H62.4676C62.4383 17.227 62.4126 17.8247 62.3906 18.6534C62.3833 18.7047 62.3796 18.7854 62.3796 18.8954L62.2806 21.8654H60.4216L60.6856 15.5954H63.8316L64.3706 18.3014L64.5026 19.0274C64.5613 18.8 64.6163 18.547 64.6676 18.2684L65.1736 15.5954H68.3856L68.6386 21.8654ZM76.0113 21.8654H73.8443L72.6233 19.5224C72.6013 19.4857 72.5426 19.383 72.4473 19.2144C72.3593 19.0457 72.2603 18.8844 72.1503 18.7304V21.8654H70.1703V15.5954H72.1503V18.4444C72.2749 18.305 72.3813 18.1547 72.4693 17.9934C72.5646 17.8247 72.6196 17.7257 72.6343 17.6964L73.8113 15.5954H75.9013L74.6473 17.6964C74.6253 17.7257 74.5776 17.8027 74.5043 17.9274C74.4309 18.052 74.3503 18.1694 74.2623 18.2794C74.1816 18.382 74.0936 18.4774 73.9983 18.5654C74.1303 18.69 74.2366 18.8147 74.3173 18.9394C74.4053 19.0567 74.5043 19.2144 74.6143 19.4124L76.0113 21.8654ZM81.6672 20.4024V21.8654H76.8382V20.6444C77.2122 20.3437 77.5678 20.054 77.9052 19.7754C78.2425 19.4894 78.6202 19.1557 79.0382 18.7744C79.2435 18.591 79.3938 18.393 79.4892 18.1804C79.5845 17.9677 79.6322 17.766 79.6322 17.5754C79.6322 17.3774 79.5845 17.2234 79.4892 17.1134C79.4085 17.0327 78.9832 16.9924 78.2132 16.9924L77.4762 17.0034C77.3808 17.0107 77.2635 17.0144 77.1242 17.0144C77.1022 16.9117 77.0765 16.71 77.0472 16.4094C77.0252 16.1087 77.0142 15.885 77.0142 15.7384C77.8428 15.5917 78.5322 15.5184 79.0822 15.5184C79.8302 15.5184 80.4242 15.6614 80.8642 15.9474C81.3115 16.226 81.5352 16.71 81.5352 17.3994C81.5352 17.7294 81.4508 18.0704 81.2822 18.4224C81.1135 18.767 80.7835 19.13 80.2922 19.5114C79.9622 19.768 79.5295 20.0724 78.9942 20.4244L81.6672 20.4024Z" fill="white"/>
<rect x="6" y="40" width="78" height="20" rx="5" fill="#36617C"/>
<rect x="6" y="205" width="78" height="20" rx="5" fill="#36617C"/>
<path d="M55.1865 70.96H52.8965V66.668H51.5879V72H55.1865V70.96ZM57.8301 72L58.2158 70.75H59.998L60.374 72H61.7607L59.9346 66.668H58.3525L56.5215 72H57.8301ZM59.1436 67.8008L59.7539 69.8418H58.46L59.0801 67.8008H59.1436ZM63.3398 72H65.835C66.9629 72 67.7979 71.4434 67.7979 70.4863C67.7979 69.666 67.1777 69.2461 66.5234 69.1973V69.1436C67.0898 69.0361 67.5244 68.6406 67.5244 67.9814C67.5244 67.166 66.8408 66.668 65.8057 66.668H63.3398V72ZM64.6338 67.5713H65.4785C65.9766 67.5713 66.2451 67.8154 66.2451 68.1914C66.2451 68.582 65.9717 68.8359 65.3076 68.8359H64.6338V67.5713ZM64.6338 69.666H65.5469C66.1621 69.666 66.4697 69.9492 66.4697 70.3887C66.4697 70.8232 66.1816 71.1016 65.3906 71.1016H64.6338V69.666ZM73.332 71.0039H70.876V69.7783H73.1807V68.8506H70.876V67.6641H73.332V66.668H69.582V72H73.332V71.0039ZM78.8662 70.96H76.5762V66.668H75.2676V72H78.8662V70.96Z" fill="white"/>
<path d="M54.6865 235.96H52.3965V231.668H51.0879V237H54.6865V235.96ZM57.3301 237L57.7158 235.75H59.498L59.874 237H61.2607L59.4346 231.668H57.8525L56.0215 237H57.3301ZM58.6436 232.801L59.2539 234.842H57.96L58.5801 232.801H58.6436ZM62.8398 237H65.335C66.4629 237 67.2979 236.443 67.2979 235.486C67.2979 234.666 66.6777 234.246 66.0234 234.197V234.144C66.5898 234.036 67.0244 233.641 67.0244 232.981C67.0244 232.166 66.3408 231.668 65.3057 231.668H62.8398V237ZM64.1338 232.571H64.9785C65.4766 232.571 65.7451 232.815 65.7451 233.191C65.7451 233.582 65.4717 233.836 64.8076 233.836H64.1338V232.571ZM64.1338 234.666H65.0469C65.6621 234.666 65.9697 234.949 65.9697 235.389C65.9697 235.823 65.6816 236.102 64.8906 236.102H64.1338V234.666ZM72.832 236.004H70.376V234.778H72.6807V233.851H70.376V232.664H72.832V231.668H69.082V237H72.832V236.004ZM78.3662 235.96H76.0762V231.668H74.7676V237H78.3662V235.96Z" fill="white"/>
<path d="M38.6211 123.829H36.165V122.604H38.4697V121.676H36.165V120.49H38.6211V119.494H34.8711V124.826H38.6211V123.829ZM45.083 119.494H43.623L42.5732 121.31H42.5146L41.4648 119.494H39.9316L41.626 122.14L39.9268 124.826H41.333L42.4268 123.053H42.4854L43.5791 124.826H45.0635L43.3203 122.16L45.083 119.494ZM49.0889 124.826V120.514H50.6367V119.494H46.2324V120.514H47.7803V124.826H49.0889Z" fill="white"/>
<path d="M38.6211 288.829H36.165V287.604H38.4697V286.676H36.165V285.49H38.6211V284.494H34.8711V289.826H38.6211V288.829ZM45.083 284.494H43.623L42.5732 286.31H42.5146L41.4648 284.494H39.9316L41.626 287.14L39.9268 289.826H41.333L42.4268 288.053H42.4854L43.5791 289.826H45.0635L43.3203 287.16L45.083 284.494ZM49.0889 289.826V285.514H50.6367V284.494H46.2324V285.514H47.7803V289.826H49.0889Z" fill="white"/>
<path d="M13.4336 72.0977C15.0205 72.0977 15.9238 71.126 15.9238 69.6367V69.0361C15.9238 67.542 15.0156 66.5703 13.4287 66.5703C11.8467 66.5703 10.9385 67.5371 10.9385 69.0361V69.6367C10.9385 71.126 11.8516 72.0977 13.4336 72.0977ZM13.4336 71.0771C12.7061 71.0771 12.2715 70.5352 12.2715 69.6416V69.0215C12.2715 68.1279 12.7061 67.5908 13.4336 67.5908C14.1562 67.5908 14.5908 68.1279 14.5908 69.0215V69.6416C14.5908 70.5352 14.1562 71.0771 13.4336 71.0771ZM20.0713 71.0479C19.4609 71.0479 19.0361 70.6865 19.0361 69.998V66.668H17.7227V70.1445C17.7227 71.3359 18.626 72.0977 20.0713 72.0977C21.5166 72.0977 22.4199 71.3311 22.4199 70.1445V66.668H21.1113V69.998C21.1113 70.6816 20.6816 71.0479 20.0713 71.0479ZM26.792 72V67.6885H28.3398V66.668H23.9355V67.6885H25.4834V72H26.792Z" fill="white"/>
<path d="M13.4336 237.098C15.0205 237.098 15.9238 236.126 15.9238 234.637V234.036C15.9238 232.542 15.0156 231.57 13.4287 231.57C11.8467 231.57 10.9385 232.537 10.9385 234.036V234.637C10.9385 236.126 11.8516 237.098 13.4336 237.098ZM13.4336 236.077C12.7061 236.077 12.2715 235.535 12.2715 234.642V234.021C12.2715 233.128 12.7061 232.591 13.4336 232.591C14.1562 232.591 14.5908 233.128 14.5908 234.021V234.642C14.5908 235.535 14.1562 236.077 13.4336 236.077ZM20.0713 236.048C19.4609 236.048 19.0361 235.687 19.0361 234.998V231.668H17.7227V235.145C17.7227 236.336 18.626 237.098 20.0713 237.098C21.5166 237.098 22.4199 236.331 22.4199 235.145V231.668H21.1113V234.998C21.1113 235.682 20.6816 236.048 20.0713 236.048ZM26.792 237V232.688H28.3398V231.668H23.9355V232.688H25.4834V237H26.792Z" fill="white"/>
</svg>
