<svg width="90" height="380" viewBox="0 0 90 380" fill="none" xmlns="http://www.w3.org/2000/svg">
<rect width="90" height="380" fill="#457B9D"/>
<g opacity="0.5">
<path fill-rule="evenodd" clip-rule="evenodd" d="M38.958 375.599C38.803 375.747 38.659 375.851 38.526 375.909C38.393 375.968 38.251 375.998 38.1 375.998C37.948 375.998 37.806 375.97 37.673 375.914C37.54 375.858 37.424 375.781 37.325 375.682C37.109 375.466 37 375.209 37 374.912V369.385C37 369.082 37.078 368.847 37.232 368.68C37.498 368.408 37.75 368.272 37.988 368.272C38.226 368.272 38.404 368.296 38.522 368.346C38.639 368.395 38.738 368.457 38.818 368.531C38.924 368.624 39.002 368.723 39.055 368.828C39.108 368.933 39.151 369.011 39.185 369.06C39.219 369.11 39.275 369.134 39.352 369.134C39.429 369.134 39.496 369.11 39.551 369.06L39.709 368.902C40.16 368.482 40.612 368.272 41.063 368.272C41.861 368.272 42.519 368.599 43.039 369.255C43.088 369.323 43.15 369.357 43.224 369.357C43.354 369.357 43.486 369.256 43.619 369.055C43.752 368.854 43.966 368.674 44.263 368.513C44.56 368.352 44.906 368.272 45.302 368.272C45.698 368.272 46.058 368.344 46.383 368.49C46.707 368.635 46.99 368.834 47.231 369.088C47.738 369.62 47.992 370.263 47.992 371.017V374.912C47.992 375.382 47.769 375.713 47.324 375.905C47.188 375.967 47.044 375.998 46.893 375.998C46.741 375.998 46.599 375.97 46.466 375.914C46.333 375.858 46.217 375.781 46.118 375.682C45.908 375.46 45.803 375.203 45.803 374.912V371.045C45.803 370.736 45.726 370.504 45.571 370.349C45.299 370.077 45.049 369.941 44.82 369.941C44.591 369.941 44.412 369.971 44.282 370.029C44.152 370.088 44.034 370.17 43.929 370.275C43.713 370.492 43.605 370.742 43.605 371.026V374.912C43.605 375.382 43.385 375.713 42.946 375.905C42.81 375.967 42.666 375.998 42.515 375.998C42.363 375.998 42.22 375.97 42.083 375.914C41.947 375.858 41.83 375.781 41.731 375.682C41.515 375.466 41.406 375.209 41.406 374.912V371.045C41.406 370.736 41.329 370.504 41.174 370.349C40.902 370.077 40.618 369.941 40.321 369.941C39.826 369.941 39.483 370.133 39.292 370.516C39.23 370.64 39.199 370.779 39.199 370.934V374.912C39.199 375.215 39.118 375.444 38.958 375.599ZM50.219 369.387C50.219 369.084 50.296 368.849 50.451 368.682C50.716 368.41 51.01 368.274 51.332 368.274C51.641 368.274 51.87 368.355 52.018 368.515C52.29 368.794 52.426 369.084 52.426 369.387V374.915C52.426 375.212 52.349 375.437 52.194 375.592C51.922 375.864 51.672 376 51.443 376C51.214 376 51.032 375.971 50.896 375.912C50.76 375.853 50.642 375.777 50.543 375.685C50.327 375.474 50.219 375.218 50.219 374.915V369.387ZM51.327 365.9C51.065 365.9 50.852 365.687 50.852 365.425C50.852 365.162 51.065 364.95 51.327 364.95C51.589 364.95 51.802 365.162 51.802 365.425C51.802 365.687 51.589 365.9 51.327 365.9ZM51.327 364C51.714 364 52.048 364.142 52.329 364.425C52.611 364.709 52.752 364.996 52.752 365.287C52.752 365.577 52.713 365.807 52.635 365.978C52.558 366.148 52.456 366.297 52.329 366.424C52.048 366.708 51.714 366.849 51.327 366.849C50.94 366.849 50.606 366.708 50.324 366.424C50.043 366.141 49.902 365.857 49.902 365.574C49.902 365.092 50.043 364.709 50.324 364.425C50.606 364.142 50.94 364 51.327 364Z" fill="#1D3557"/>
</g>
<path d="M12.6275 22.8654H10.4675V17.5254H8.53545V16.0254H14.5595V17.5254H12.6275V22.8654ZM21.4784 22.8654H19.2104L18.8024 21.1374C18.7864 21.0734 18.7584 20.9654 18.7184 20.8134C18.6864 20.6534 18.6464 20.5374 18.5984 20.4654C18.5504 20.3854 18.4824 20.3334 18.3944 20.3094C18.1704 20.3174 17.8424 20.3214 17.4104 20.3214V22.8654H15.2504V16.0854C16.2184 16.0134 17.1224 15.9774 17.9624 15.9774C18.7224 15.9774 19.3384 16.0414 19.8104 16.1694C20.2824 16.2894 20.6344 16.5014 20.8664 16.8054C21.1064 17.1014 21.2264 17.5094 21.2264 18.0294C21.2264 18.5174 21.1144 18.9014 20.8904 19.1814C20.6664 19.4534 20.3064 19.6174 19.8104 19.6734V19.7454C20.0904 19.7694 20.3224 19.8614 20.5064 20.0214C20.6984 20.1734 20.8264 20.3694 20.8904 20.6094L21.4784 22.8654ZM17.4104 18.9654C17.4824 18.9734 17.6224 18.9774 17.8304 18.9774C18.4464 18.9774 18.8064 18.9254 18.9104 18.8214C19.0064 18.7254 19.0544 18.5014 19.0544 18.1494C19.0544 17.8214 18.9664 17.5974 18.7904 17.4774C18.6224 17.3574 18.3424 17.2974 17.9504 17.2974C17.8624 17.2974 17.6824 17.3054 17.4104 17.3214V18.9654ZM22.2233 16.0254H24.3833V22.8654H22.2233V16.0254ZM31.574 19.0734V22.4934C31.038 22.6694 30.53 22.7974 30.05 22.8774C29.57 22.9574 29.166 22.9974 28.838 22.9974C27.75 22.9974 26.898 22.7134 26.282 22.1454C25.666 21.5774 25.358 20.7054 25.358 19.5294C25.358 18.3294 25.682 17.4334 26.33 16.8414C26.978 16.2414 27.89 15.9414 29.066 15.9414C29.682 15.9414 30.422 16.0334 31.286 16.2174C31.286 16.3774 31.27 16.6174 31.238 16.9374C31.206 17.2494 31.174 17.4694 31.142 17.5974L30.71 17.5854C30.182 17.5694 29.77 17.5614 29.474 17.5614C28.586 17.5614 28.102 17.6134 28.022 17.7174C27.894 17.8694 27.802 18.1054 27.746 18.4254C27.698 18.7454 27.674 19.0534 27.674 19.3494C27.674 19.8854 27.734 20.3014 27.854 20.5974C27.974 20.8934 28.158 21.1014 28.406 21.2214C28.654 21.3414 28.99 21.4014 29.414 21.4014H29.462V19.0734H31.574ZM38.5701 19.0734V22.4934C38.0341 22.6694 37.5261 22.7974 37.0461 22.8774C36.5661 22.9574 36.1621 22.9974 35.8341 22.9974C34.7461 22.9974 33.8941 22.7134 33.2781 22.1454C32.6621 21.5774 32.3541 20.7054 32.3541 19.5294C32.3541 18.3294 32.6781 17.4334 33.3261 16.8414C33.9741 16.2414 34.8861 15.9414 36.0621 15.9414C36.6781 15.9414 37.4181 16.0334 38.2821 16.2174C38.2821 16.3774 38.2661 16.6174 38.2341 16.9374C38.2021 17.2494 38.1701 17.4694 38.1381 17.5974L37.7061 17.5854C37.1781 17.5694 36.7661 17.5614 36.4701 17.5614C35.5821 17.5614 35.0981 17.6134 35.0181 17.7174C34.8901 17.8694 34.7981 18.1054 34.7421 18.4254C34.6941 18.7454 34.6701 19.0534 34.6701 19.3494C34.6701 19.8854 34.7301 20.3014 34.8501 20.5974C34.9701 20.8934 35.1541 21.1014 35.4021 21.2214C35.6501 21.3414 35.9861 21.4014 36.4101 21.4014H36.4581V19.0734H38.5701ZM39.5302 16.0254H44.5102V17.4654H41.6902V18.7134H44.0662V20.0094H41.6902V21.4014H44.4982V22.8654H39.5302V16.0254ZM51.6542 22.8654H49.3862L48.9782 21.1374C48.9622 21.0734 48.9342 20.9654 48.8942 20.8134C48.8622 20.6534 48.8222 20.5374 48.7742 20.4654C48.7262 20.3854 48.6582 20.3334 48.5702 20.3094C48.3462 20.3174 48.0182 20.3214 47.5862 20.3214V22.8654H45.4262V16.0854C46.3942 16.0134 47.2982 15.9774 48.1382 15.9774C48.8982 15.9774 49.5142 16.0414 49.9862 16.1694C50.4582 16.2894 50.8102 16.5014 51.0422 16.8054C51.2822 17.1014 51.4022 17.5094 51.4022 18.0294C51.4022 18.5174 51.2902 18.9014 51.0662 19.1814C50.8422 19.4534 50.4822 19.6174 49.9862 19.6734V19.7454C50.2662 19.7694 50.4982 19.8614 50.6822 20.0214C50.8742 20.1734 51.0022 20.3694 51.0662 20.6094L51.6542 22.8654ZM47.5862 18.9654C47.6582 18.9734 47.7982 18.9774 48.0062 18.9774C48.6222 18.9774 48.9822 18.9254 49.0862 18.8214C49.1822 18.7254 49.2302 18.5014 49.2302 18.1494C49.2302 17.8214 49.1422 17.5974 48.9662 17.4774C48.7982 17.3574 48.5182 17.2974 48.1262 17.2974C48.0382 17.2974 47.8582 17.3054 47.5862 17.3214V18.9654ZM54.3551 17.8734C54.3551 18.0414 54.4391 18.1734 54.6071 18.2694C54.7831 18.3654 55.0551 18.4694 55.4231 18.5814C55.8631 18.7254 56.2231 18.8654 56.5031 19.0014C56.7911 19.1374 57.0391 19.3494 57.2471 19.6374C57.4631 19.9254 57.5711 20.3014 57.5711 20.7654C57.5711 22.2534 56.6031 22.9974 54.6671 22.9974C54.3471 22.9974 53.9551 22.9694 53.4911 22.9134C53.0351 22.8574 52.6191 22.7854 52.2431 22.6974C52.2591 22.5294 52.2911 22.2854 52.3391 21.9654C52.3951 21.6374 52.4471 21.3934 52.4951 21.2334C52.7751 21.2734 53.1951 21.3214 53.7551 21.3774C54.3231 21.4334 54.7511 21.4614 55.0391 21.4614C55.2071 21.4614 55.3071 21.4494 55.3391 21.4254C55.3871 21.3934 55.4231 21.3414 55.4471 21.2694C55.4791 21.1894 55.4951 21.1214 55.4951 21.0654C55.4951 20.9054 55.4191 20.7854 55.2671 20.7054C55.1151 20.6174 54.8551 20.5134 54.4871 20.3934C54.0471 20.2574 53.6831 20.1174 53.3951 19.9734C53.1071 19.8294 52.8551 19.6054 52.6391 19.3014C52.4231 18.9974 52.3151 18.5974 52.3151 18.1014C52.3151 17.7494 52.3951 17.4054 52.5551 17.0694C52.7151 16.7254 52.8791 16.4934 53.0471 16.3734C53.1751 16.2854 53.4391 16.2014 53.8391 16.1214C54.2391 16.0414 54.6151 16.0014 54.9671 16.0014C55.8631 16.0014 56.5951 16.0854 57.1631 16.2534C57.1551 16.4134 57.1271 16.6334 57.0791 16.9134C57.0391 17.1934 56.9951 17.4494 56.9471 17.6814L56.6711 17.6694C55.6311 17.5974 54.9671 17.5614 54.6791 17.5614C54.5591 17.5614 54.4911 17.5654 54.4751 17.5734C54.4431 17.5894 54.4151 17.6254 54.3911 17.6814C54.3671 17.7374 54.3551 17.8014 54.3551 17.8734ZM69.1876 22.8654H67.1716L67.0156 19.0974C66.9916 18.3534 66.9636 17.7894 66.9316 17.4054H66.8956C66.7996 17.7094 66.6876 18.1814 66.5596 18.8214L66.4996 19.1214L65.6716 22.8654H63.6556L62.9596 19.4934L62.8396 18.8934C62.6716 18.1494 62.5556 17.6534 62.4916 17.4054H62.4556C62.4236 17.8054 62.3956 18.4574 62.3716 19.3614C62.3636 19.4174 62.3596 19.5054 62.3596 19.6254L62.2516 22.8654H60.2236L60.5116 16.0254H63.9436L64.5316 18.9774L64.6756 19.7694C64.7396 19.5214 64.7996 19.2454 64.8556 18.9414L65.4076 16.0254H68.9116L69.1876 22.8654ZM76.6305 22.8654H74.2665L72.9345 20.3094C72.9105 20.2694 72.8465 20.1574 72.7425 19.9734C72.6465 19.7894 72.5385 19.6134 72.4185 19.4454V22.8654H70.2585V16.0254H72.4185V19.1334C72.5545 18.9814 72.6705 18.8174 72.7665 18.6414C72.8705 18.4574 72.9305 18.3494 72.9465 18.3174L74.2305 16.0254H76.5105L75.1425 18.3174C75.1185 18.3494 75.0665 18.4334 74.9865 18.5694C74.9065 18.7054 74.8185 18.8334 74.7225 18.9534C74.6345 19.0654 74.5385 19.1694 74.4345 19.2654C74.5785 19.4014 74.6945 19.5374 74.7825 19.6734C74.8785 19.8014 74.9865 19.9734 75.1065 20.1894L76.6305 22.8654ZM82.2005 21.2694V22.8654H76.9325V21.5334C77.3405 21.2054 77.7285 20.8894 78.0965 20.5854C78.4645 20.2734 78.8765 19.9094 79.3325 19.4934C79.5565 19.2934 79.7205 19.0774 79.8245 18.8454C79.9285 18.6134 79.9805 18.3934 79.9805 18.1854C79.9805 17.9694 79.9285 17.8014 79.8245 17.6814C79.7365 17.5934 79.2725 17.5494 78.4325 17.5494L77.6285 17.5614C77.5245 17.5694 77.3965 17.5734 77.2445 17.5734C77.2205 17.4614 77.1925 17.2414 77.1605 16.9134C77.1365 16.5854 77.1245 16.3414 77.1245 16.1814C78.0285 16.0214 78.7805 15.9414 79.3805 15.9414C80.1965 15.9414 80.8445 16.0974 81.3245 16.4094C81.8125 16.7134 82.0565 17.2414 82.0565 17.9934C82.0565 18.3534 81.9645 18.7254 81.7805 19.1094C81.5965 19.4854 81.2365 19.8814 80.7005 20.2974C80.3405 20.5774 79.8685 20.9094 79.2845 21.2934L82.2005 21.2694Z" fill="#A8DADC"/>
<rect x="6" y="40" width="78" height="20" rx="5" fill="#36617C"/>
<rect x="6" y="200" width="78" height="20" rx="5" fill="#36617C"/>
<path d="M53.2936 66.6256L55.3456 66.5416V73.8256H53.2936V66.6256ZM59.6511 73.8256L59.4591 73.0696C59.0911 73.6696 58.5791 73.9696 57.9231 73.9696C57.3871 73.9696 56.9471 73.8216 56.6031 73.5256C56.2671 73.2216 56.0991 72.7976 56.0991 72.2536C56.0991 71.9176 56.1951 71.6256 56.3871 71.3776C56.5871 71.1216 56.8591 70.9416 57.2031 70.8376C57.6511 70.7096 58.3431 70.6376 59.2791 70.6216C59.2791 70.0936 59.2551 69.8136 59.2071 69.7816C59.1671 69.7496 59.0391 69.7336 58.8231 69.7336C58.6871 69.7336 58.4991 69.7416 58.2591 69.7576C57.8751 69.7736 57.3551 69.8176 56.6991 69.8896C56.6351 69.4576 56.5871 68.9936 56.5551 68.4976C56.9791 68.4096 57.4231 68.3376 57.8871 68.2816C58.3511 68.2176 58.7671 68.1856 59.1351 68.1856C59.7751 68.1856 60.2551 68.2936 60.5751 68.5096C60.8951 68.7176 61.1031 68.9936 61.1991 69.3376C61.2951 69.6816 61.3391 70.1176 61.3311 70.6456L61.3191 72.4096L61.3551 73.8256H59.6511ZM58.6191 72.6256C58.8271 72.6256 59.0471 72.5856 59.2791 72.5056V71.6176H59.1831C58.5911 71.6176 58.2631 71.6496 58.1991 71.7136C58.1591 71.7536 58.1271 71.8136 58.1031 71.8936C58.0871 71.9736 58.0791 72.0496 58.0791 72.1216C58.0791 72.3136 58.1231 72.4456 58.2111 72.5176C58.2991 72.5896 58.4351 72.6256 58.6191 72.6256ZM65.9656 68.1856C66.5896 68.1856 67.0696 68.3736 67.4056 68.7496C67.7496 69.1256 67.9216 69.7896 67.9216 70.7416C67.9216 71.4376 67.8496 72.0336 67.7056 72.5296C67.5696 73.0176 67.4136 73.3296 67.2376 73.4656C67.0296 73.6336 66.7216 73.7576 66.3136 73.8376C65.9056 73.9176 65.4416 73.9576 64.9216 73.9576C64.5216 73.9576 64.0736 73.9256 63.5776 73.8616C63.0816 73.8056 62.6376 73.7136 62.2456 73.5856V66.6256L64.3216 66.5416V67.6696C64.3216 67.7336 64.3176 67.8816 64.3096 68.1136C64.3096 68.3456 64.3016 68.5416 64.2856 68.7016C64.2696 68.8536 64.2456 68.9696 64.2136 69.0496L64.2856 69.1336C64.4696 68.8536 64.7016 68.6256 64.9816 68.4496C65.2616 68.2736 65.5896 68.1856 65.9656 68.1856ZM65.6296 72.5176C65.6776 72.4376 65.7176 72.2496 65.7496 71.9536C65.7896 71.6576 65.8096 71.3736 65.8096 71.1016C65.8096 70.7816 65.7936 70.5296 65.7616 70.3456C65.7376 70.1616 65.6696 70.0176 65.5576 69.9136C65.4536 69.8016 65.2896 69.7456 65.0656 69.7456C64.8656 69.7456 64.6096 69.7736 64.2976 69.8296V72.5416C64.5936 72.5896 64.9016 72.6136 65.2216 72.6136C65.4536 72.6136 65.5896 72.5816 65.6296 72.5176ZM72.0627 72.3856C72.2627 72.3856 72.6347 72.3656 73.1787 72.3256C73.2507 72.3256 73.3827 72.3176 73.5747 72.3016L73.7547 73.5376C73.1387 73.8256 72.3387 73.9696 71.3547 73.9696C70.4347 73.9696 69.7267 73.7376 69.2307 73.2736C68.7427 72.8096 68.4987 72.1096 68.4987 71.1736C68.4987 70.6936 68.5587 70.2296 68.6787 69.7816C68.8067 69.3336 68.9507 69.0216 69.1107 68.8456C69.2787 68.6696 69.5907 68.5176 70.0467 68.3896C70.5027 68.2616 70.9547 68.1976 71.4027 68.1976C72.1227 68.1976 72.6627 68.3256 73.0227 68.5816C73.3827 68.8376 73.6187 69.1936 73.7307 69.6496C73.8427 70.0976 73.8987 70.7016 73.8987 71.4616C73.3547 71.4936 72.8227 71.5096 72.3027 71.5096H70.5987C70.5987 71.7656 70.6507 71.9576 70.7547 72.0856C70.8667 72.2136 71.0227 72.2976 71.2227 72.3376C71.4227 72.3696 71.7027 72.3856 72.0627 72.3856ZM70.7187 69.6256C70.6707 69.6496 70.6347 69.7536 70.6107 69.9376C70.5867 70.1216 70.5707 70.3296 70.5627 70.5616H71.1867C71.5627 70.5616 71.8347 70.5576 72.0027 70.5496C72.0027 70.1656 71.9467 69.8936 71.8347 69.7336C71.7307 69.5736 71.5467 69.4936 71.2827 69.4936C71.0667 69.4936 70.8787 69.5376 70.7187 69.6256ZM74.6569 66.6256L76.7089 66.5416V73.8256H74.6569V66.6256Z" fill="#A8DADC"/>
<path d="M52.7936 226.626L54.8456 226.542V233.826H52.7936V226.626ZM59.1511 233.826L58.9591 233.07C58.5911 233.67 58.0791 233.97 57.4231 233.97C56.8871 233.97 56.4471 233.822 56.1031 233.526C55.7671 233.222 55.5991 232.798 55.5991 232.254C55.5991 231.918 55.6951 231.626 55.8871 231.378C56.0871 231.122 56.3591 230.942 56.7031 230.838C57.1511 230.71 57.8431 230.638 58.7791 230.622C58.7791 230.094 58.7551 229.814 58.7071 229.782C58.6671 229.75 58.5391 229.734 58.3231 229.734C58.1871 229.734 57.9991 229.742 57.7591 229.758C57.3751 229.774 56.8551 229.818 56.1991 229.89C56.1351 229.458 56.0871 228.994 56.0551 228.498C56.4791 228.41 56.9231 228.338 57.3871 228.282C57.8511 228.218 58.2671 228.186 58.6351 228.186C59.2751 228.186 59.7551 228.294 60.0751 228.51C60.3951 228.718 60.6031 228.994 60.6991 229.338C60.7951 229.682 60.8391 230.118 60.8311 230.646L60.8191 232.41L60.8551 233.826H59.1511ZM58.1191 232.626C58.3271 232.626 58.5471 232.586 58.7791 232.506V231.618H58.6831C58.0911 231.618 57.7631 231.65 57.6991 231.714C57.6591 231.754 57.6271 231.814 57.6031 231.894C57.5871 231.974 57.5791 232.05 57.5791 232.122C57.5791 232.314 57.6231 232.446 57.7111 232.518C57.7991 232.59 57.9351 232.626 58.1191 232.626ZM65.4656 228.186C66.0896 228.186 66.5696 228.374 66.9056 228.75C67.2496 229.126 67.4216 229.79 67.4216 230.742C67.4216 231.438 67.3496 232.034 67.2056 232.53C67.0696 233.018 66.9136 233.33 66.7376 233.466C66.5296 233.634 66.2216 233.758 65.8136 233.838C65.4056 233.918 64.9416 233.958 64.4216 233.958C64.0216 233.958 63.5736 233.926 63.0776 233.862C62.5816 233.806 62.1376 233.714 61.7456 233.586V226.626L63.8216 226.542V227.67C63.8216 227.734 63.8176 227.882 63.8096 228.114C63.8096 228.346 63.8016 228.542 63.7856 228.702C63.7696 228.854 63.7456 228.97 63.7136 229.05L63.7856 229.134C63.9696 228.854 64.2016 228.626 64.4816 228.45C64.7616 228.274 65.0896 228.186 65.4656 228.186ZM65.1296 232.518C65.1776 232.438 65.2176 232.25 65.2496 231.954C65.2896 231.658 65.3096 231.374 65.3096 231.102C65.3096 230.782 65.2936 230.53 65.2616 230.346C65.2376 230.162 65.1696 230.018 65.0576 229.914C64.9536 229.802 64.7896 229.746 64.5656 229.746C64.3656 229.746 64.1096 229.774 63.7976 229.83V232.542C64.0936 232.59 64.4016 232.614 64.7216 232.614C64.9536 232.614 65.0896 232.582 65.1296 232.518ZM71.5627 232.386C71.7627 232.386 72.1347 232.366 72.6787 232.326C72.7507 232.326 72.8827 232.318 73.0747 232.302L73.2547 233.538C72.6387 233.826 71.8387 233.97 70.8547 233.97C69.9347 233.97 69.2267 233.738 68.7307 233.274C68.2427 232.81 67.9987 232.11 67.9987 231.174C67.9987 230.694 68.0587 230.23 68.1787 229.782C68.3067 229.334 68.4507 229.022 68.6107 228.846C68.7787 228.67 69.0907 228.518 69.5467 228.39C70.0027 228.262 70.4547 228.198 70.9027 228.198C71.6227 228.198 72.1627 228.326 72.5227 228.582C72.8827 228.838 73.1187 229.194 73.2307 229.65C73.3427 230.098 73.3987 230.702 73.3987 231.462C72.8547 231.494 72.3227 231.51 71.8027 231.51H70.0987C70.0987 231.766 70.1507 231.958 70.2547 232.086C70.3667 232.214 70.5227 232.298 70.7227 232.338C70.9227 232.37 71.2027 232.386 71.5627 232.386ZM70.2187 229.626C70.1707 229.65 70.1347 229.754 70.1107 229.938C70.0867 230.122 70.0707 230.33 70.0627 230.562H70.6867C71.0627 230.562 71.3347 230.558 71.5027 230.55C71.5027 230.166 71.4467 229.894 71.3347 229.734C71.2307 229.574 71.0467 229.494 70.7827 229.494C70.5667 229.494 70.3787 229.538 70.2187 229.626ZM74.1569 226.626L76.2089 226.542V233.826H74.1569V226.626Z" fill="#A8DADC"/>
<path d="M38.0666 125.386C38.2666 125.386 38.6386 125.366 39.1826 125.326C39.2546 125.326 39.3866 125.318 39.5786 125.302L39.7586 126.538C39.1426 126.826 38.3426 126.97 37.3586 126.97C36.4386 126.97 35.7306 126.738 35.2346 126.274C34.7466 125.81 34.5026 125.11 34.5026 124.174C34.5026 123.694 34.5626 123.23 34.6826 122.782C34.8106 122.334 34.9546 122.022 35.1146 121.846C35.2826 121.67 35.5946 121.518 36.0506 121.39C36.5066 121.262 36.9586 121.198 37.4066 121.198C38.1266 121.198 38.6666 121.326 39.0266 121.582C39.3866 121.838 39.6226 122.194 39.7346 122.65C39.8466 123.098 39.9026 123.702 39.9026 124.462C39.3586 124.494 38.8266 124.51 38.3066 124.51H36.6026C36.6026 124.766 36.6546 124.958 36.7586 125.086C36.8706 125.214 37.0266 125.298 37.2266 125.338C37.4266 125.37 37.7066 125.386 38.0666 125.386ZM36.7226 122.626C36.6746 122.65 36.6386 122.754 36.6146 122.938C36.5906 123.122 36.5746 123.33 36.5666 123.562H37.1906C37.5666 123.562 37.8386 123.558 38.0066 123.55C38.0066 123.166 37.9506 122.894 37.8386 122.734C37.7346 122.574 37.5506 122.494 37.2866 122.494C37.0706 122.494 36.8826 122.538 36.7226 122.626ZM41.6328 124.006L40.2528 121.306H42.2448L43.2408 123.442L44.2488 121.306H46.2288L44.8608 124.006L46.3608 126.826H44.3568L43.2408 124.546L42.1248 126.826H40.1208L41.6328 124.006ZM49.3798 124.558C49.3798 124.702 49.3838 124.854 49.3918 125.014C49.3998 125.166 49.4238 125.262 49.4638 125.302C49.5198 125.358 49.7158 125.386 50.0518 125.386L50.4598 125.374C50.5318 125.758 50.5678 126.202 50.5678 126.706C50.4158 126.762 50.1918 126.814 49.8958 126.862C49.6078 126.91 49.3318 126.934 49.0678 126.934C48.5158 126.934 48.0878 126.814 47.7838 126.574C47.4878 126.326 47.3398 125.946 47.3398 125.434V122.482H46.4398V121.39L47.3398 121.306L47.8798 119.986L49.3798 119.902V121.306H50.6518V122.482H49.3798V124.558Z" fill="#A8DADC"/>
<path d="M38.0666 285.386C38.2666 285.386 38.6386 285.366 39.1826 285.326C39.2546 285.326 39.3866 285.318 39.5786 285.302L39.7586 286.538C39.1426 286.826 38.3426 286.97 37.3586 286.97C36.4386 286.97 35.7306 286.738 35.2346 286.274C34.7466 285.81 34.5026 285.11 34.5026 284.174C34.5026 283.694 34.5626 283.23 34.6826 282.782C34.8106 282.334 34.9546 282.022 35.1146 281.846C35.2826 281.67 35.5946 281.518 36.0506 281.39C36.5066 281.262 36.9586 281.198 37.4066 281.198C38.1266 281.198 38.6666 281.326 39.0266 281.582C39.3866 281.838 39.6226 282.194 39.7346 282.65C39.8466 283.098 39.9026 283.702 39.9026 284.462C39.3586 284.494 38.8266 284.51 38.3066 284.51H36.6026C36.6026 284.766 36.6546 284.958 36.7586 285.086C36.8706 285.214 37.0266 285.298 37.2266 285.338C37.4266 285.37 37.7066 285.386 38.0666 285.386ZM36.7226 282.626C36.6746 282.65 36.6386 282.754 36.6146 282.938C36.5906 283.122 36.5746 283.33 36.5666 283.562H37.1906C37.5666 283.562 37.8386 283.558 38.0066 283.55C38.0066 283.166 37.9506 282.894 37.8386 282.734C37.7346 282.574 37.5506 282.494 37.2866 282.494C37.0706 282.494 36.8826 282.538 36.7226 282.626ZM41.6328 284.006L40.2528 281.306H42.2448L43.2408 283.442L44.2488 281.306H46.2288L44.8608 284.006L46.3608 286.826H44.3568L43.2408 284.546L42.1248 286.826H40.1208L41.6328 284.006ZM49.3798 284.558C49.3798 284.702 49.3838 284.854 49.3918 285.014C49.3998 285.166 49.4238 285.262 49.4638 285.302C49.5198 285.358 49.7158 285.386 50.0518 285.386L50.4598 285.374C50.5318 285.758 50.5678 286.202 50.5678 286.706C50.4158 286.762 50.1918 286.814 49.8958 286.862C49.6078 286.91 49.3318 286.934 49.0678 286.934C48.5158 286.934 48.0878 286.814 47.7838 286.574C47.4878 286.326 47.3398 285.946 47.3398 285.434V282.482H46.4398V281.39L47.3398 281.306L47.8798 279.986L49.3798 279.902V281.306H50.6518V282.482H49.3798V284.558Z" fill="#A8DADC"/>
<path d="M13.5076 73.9816C12.5476 73.9816 11.8276 73.7576 11.3476 73.3096C10.8756 72.8536 10.6396 72.1376 10.6396 71.1616C10.6396 70.6256 10.6876 70.1576 10.7836 69.7576C10.8876 69.3496 11.0116 69.0656 11.1556 68.9056C11.3396 68.6976 11.6756 68.5256 12.1636 68.3896C12.6596 68.2536 13.1236 68.1856 13.5556 68.1856C14.5876 68.1856 15.3236 68.4056 15.7636 68.8456C16.2036 69.2856 16.4236 69.9896 16.4236 70.9576C16.4236 71.9976 16.1876 72.7616 15.7156 73.2496C15.2436 73.7376 14.5076 73.9816 13.5076 73.9816ZM13.5436 72.5776C13.8556 72.5776 14.0596 72.4696 14.1556 72.2536C14.2516 72.0296 14.2996 71.6376 14.2996 71.0776C14.2996 70.6856 14.2796 70.3856 14.2396 70.1776C14.1996 69.9616 14.1236 69.8056 14.0116 69.7096C13.9076 69.6056 13.7436 69.5536 13.5196 69.5536C13.1996 69.5536 13.0156 69.5816 12.9676 69.6376C12.9036 69.6936 12.8516 69.8696 12.8116 70.1656C12.7716 70.4616 12.7516 70.7696 12.7516 71.0896C12.7516 71.6336 12.8036 72.0176 12.9076 72.2416C13.0196 72.4656 13.2316 72.5776 13.5436 72.5776ZM22.7268 68.3056V73.8256H21.0588L20.8308 72.9016C20.2548 73.5976 19.5668 73.9456 18.7668 73.9456C18.4788 73.9456 18.2068 73.9056 17.9508 73.8256C17.7028 73.7456 17.5148 73.6296 17.3868 73.4776C17.3148 73.3896 17.2588 73.1696 17.2188 72.8176C17.1868 72.4656 17.1708 71.9296 17.1708 71.2096V68.3056H19.2228V71.1856C19.2228 71.3456 19.2268 71.5336 19.2348 71.7496C19.2428 71.9656 19.2668 72.1016 19.3068 72.1576C19.3628 72.2376 19.5228 72.2776 19.7868 72.2776L19.9788 72.2656C20.2028 72.2576 20.4348 72.2056 20.6748 72.1096V68.3056H22.7268ZM26.2548 71.5576C26.2548 71.7016 26.2588 71.8536 26.2668 72.0136C26.2748 72.1656 26.2988 72.2616 26.3388 72.3016C26.3948 72.3576 26.5908 72.3856 26.9268 72.3856L27.3348 72.3736C27.4068 72.7576 27.4428 73.2016 27.4428 73.7056C27.2908 73.7616 27.0668 73.8136 26.7708 73.8616C26.4828 73.9096 26.2068 73.9336 25.9428 73.9336C25.3908 73.9336 24.9628 73.8136 24.6588 73.5736C24.3628 73.3256 24.2148 72.9456 24.2148 72.4336V69.4816H23.3148V68.3896L24.2148 68.3056L24.7548 66.9856L26.2548 66.9016V68.3056H27.5268V69.4816H26.2548V71.5576Z" fill="#A8DADC"/>
<path d="M13.5076 233.982C12.5476 233.982 11.8276 233.758 11.3476 233.31C10.8756 232.854 10.6396 232.138 10.6396 231.162C10.6396 230.626 10.6876 230.158 10.7836 229.758C10.8876 229.35 11.0116 229.066 11.1556 228.906C11.3396 228.698 11.6756 228.526 12.1636 228.39C12.6596 228.254 13.1236 228.186 13.5556 228.186C14.5876 228.186 15.3236 228.406 15.7636 228.846C16.2036 229.286 16.4236 229.99 16.4236 230.958C16.4236 231.998 16.1876 232.762 15.7156 233.25C15.2436 233.738 14.5076 233.982 13.5076 233.982ZM13.5436 232.578C13.8556 232.578 14.0596 232.47 14.1556 232.254C14.2516 232.03 14.2996 231.638 14.2996 231.078C14.2996 230.686 14.2796 230.386 14.2396 230.178C14.1996 229.962 14.1236 229.806 14.0116 229.71C13.9076 229.606 13.7436 229.554 13.5196 229.554C13.1996 229.554 13.0156 229.582 12.9676 229.638C12.9036 229.694 12.8516 229.87 12.8116 230.166C12.7716 230.462 12.7516 230.77 12.7516 231.09C12.7516 231.634 12.8036 232.018 12.9076 232.242C13.0196 232.466 13.2316 232.578 13.5436 232.578ZM22.7268 228.306V233.826H21.0588L20.8308 232.902C20.2548 233.598 19.5668 233.946 18.7668 233.946C18.4788 233.946 18.2068 233.906 17.9508 233.826C17.7028 233.746 17.5148 233.63 17.3868 233.478C17.3148 233.39 17.2588 233.17 17.2188 232.818C17.1868 232.466 17.1708 231.93 17.1708 231.21V228.306H19.2228V231.186C19.2228 231.346 19.2268 231.534 19.2348 231.75C19.2428 231.966 19.2668 232.102 19.3068 232.158C19.3628 232.238 19.5228 232.278 19.7868 232.278L19.9788 232.266C20.2028 232.258 20.4348 232.206 20.6748 232.11V228.306H22.7268ZM26.2548 231.558C26.2548 231.702 26.2588 231.854 26.2668 232.014C26.2748 232.166 26.2988 232.262 26.3388 232.302C26.3948 232.358 26.5908 232.386 26.9268 232.386L27.3348 232.374C27.4068 232.758 27.4428 233.202 27.4428 233.706C27.2908 233.762 27.0668 233.814 26.7708 233.862C26.4828 233.91 26.2068 233.934 25.9428 233.934C25.3908 233.934 24.9628 233.814 24.6588 233.574C24.3628 233.326 24.2148 232.946 24.2148 232.434V229.482H23.3148V228.39L24.2148 228.306L24.7548 226.986L26.2548 226.902V228.306H27.5268V229.482H26.2548V231.558Z" fill="#A8DADC"/>
</svg>
