<svg width="90" height="380" viewBox="0 0 90 380" fill="none" xmlns="http://www.w3.org/2000/svg">
<rect width="90" height="380" fill="#457B9D"/>
<g opacity="0.5">
<path fill-rule="evenodd" clip-rule="evenodd" d="M38.958 375.599C38.803 375.747 38.659 375.851 38.526 375.909C38.393 375.968 38.251 375.998 38.1 375.998C37.948 375.998 37.806 375.97 37.673 375.914C37.54 375.858 37.424 375.781 37.325 375.682C37.109 375.466 37 375.209 37 374.912V369.385C37 369.082 37.078 368.847 37.232 368.68C37.498 368.408 37.75 368.272 37.988 368.272C38.226 368.272 38.404 368.296 38.522 368.346C38.639 368.395 38.738 368.457 38.818 368.531C38.924 368.624 39.002 368.723 39.055 368.828C39.108 368.933 39.151 369.011 39.185 369.06C39.219 369.11 39.275 369.134 39.352 369.134C39.429 369.134 39.496 369.11 39.551 369.06L39.709 368.902C40.16 368.482 40.612 368.272 41.063 368.272C41.861 368.272 42.519 368.599 43.039 369.255C43.088 369.323 43.15 369.357 43.224 369.357C43.354 369.357 43.486 369.256 43.619 369.055C43.752 368.854 43.966 368.674 44.263 368.513C44.56 368.352 44.906 368.272 45.302 368.272C45.698 368.272 46.058 368.344 46.383 368.49C46.707 368.635 46.99 368.834 47.231 369.088C47.738 369.62 47.992 370.263 47.992 371.017V374.912C47.992 375.382 47.769 375.713 47.324 375.905C47.188 375.967 47.044 375.998 46.893 375.998C46.741 375.998 46.599 375.97 46.466 375.914C46.333 375.858 46.217 375.781 46.118 375.682C45.908 375.46 45.803 375.203 45.803 374.912V371.045C45.803 370.736 45.726 370.504 45.571 370.349C45.299 370.077 45.049 369.941 44.82 369.941C44.591 369.941 44.412 369.971 44.282 370.029C44.152 370.088 44.034 370.17 43.929 370.275C43.713 370.492 43.605 370.742 43.605 371.026V374.912C43.605 375.382 43.385 375.713 42.946 375.905C42.81 375.967 42.666 375.998 42.515 375.998C42.363 375.998 42.22 375.97 42.083 375.914C41.947 375.858 41.83 375.781 41.731 375.682C41.515 375.466 41.406 375.209 41.406 374.912V371.045C41.406 370.736 41.329 370.504 41.174 370.349C40.902 370.077 40.618 369.941 40.321 369.941C39.826 369.941 39.483 370.133 39.292 370.516C39.23 370.64 39.199 370.779 39.199 370.934V374.912C39.199 375.215 39.118 375.444 38.958 375.599ZM50.219 369.387C50.219 369.084 50.296 368.849 50.451 368.682C50.716 368.41 51.01 368.274 51.332 368.274C51.641 368.274 51.87 368.355 52.018 368.515C52.29 368.794 52.426 369.084 52.426 369.387V374.915C52.426 375.212 52.349 375.437 52.194 375.592C51.922 375.864 51.672 376 51.443 376C51.214 376 51.032 375.971 50.896 375.912C50.76 375.853 50.642 375.777 50.543 375.685C50.327 375.474 50.219 375.218 50.219 374.915V369.387ZM51.327 365.9C51.065 365.9 50.852 365.687 50.852 365.425C50.852 365.162 51.065 364.95 51.327 364.95C51.589 364.95 51.802 365.162 51.802 365.425C51.802 365.687 51.589 365.9 51.327 365.9ZM51.327 364C51.714 364 52.048 364.142 52.329 364.425C52.611 364.709 52.752 364.996 52.752 365.287C52.752 365.577 52.713 365.807 52.635 365.978C52.558 366.148 52.456 366.297 52.329 366.424C52.048 366.708 51.714 366.849 51.327 366.849C50.94 366.849 50.606 366.708 50.324 366.424C50.043 366.141 49.902 365.857 49.902 365.574C49.902 365.092 50.043 364.709 50.324 364.425C50.606 364.142 50.94 364 51.327 364Z" fill="#1D3557"/>
</g>
<path d="M24.4263 22.8654H22.2663V17.5254H20.3343V16.0254H26.3583V17.5254H24.4263V22.8654ZM33.2772 22.8654H31.0092L30.6012 21.1374C30.5852 21.0734 30.5572 20.9654 30.5172 20.8134C30.4852 20.6534 30.4452 20.5374 30.3972 20.4654C30.3492 20.3854 30.2812 20.3334 30.1932 20.3094C29.9692 20.3174 29.6412 20.3214 29.2092 20.3214V22.8654H27.0492V16.0854C28.0172 16.0134 28.9212 15.9774 29.7612 15.9774C30.5212 15.9774 31.1372 16.0414 31.6092 16.1694C32.0812 16.2894 32.4332 16.5014 32.6652 16.8054C32.9052 17.1014 33.0252 17.5094 33.0252 18.0294C33.0252 18.5174 32.9132 18.9014 32.6892 19.1814C32.4652 19.4534 32.1052 19.6174 31.6092 19.6734V19.7454C31.8892 19.7694 32.1212 19.8614 32.3052 20.0214C32.4972 20.1734 32.6252 20.3694 32.6892 20.6094L33.2772 22.8654ZM29.2092 18.9654C29.2812 18.9734 29.4212 18.9774 29.6292 18.9774C30.2452 18.9774 30.6052 18.9254 30.7092 18.8214C30.8052 18.7254 30.8532 18.5014 30.8532 18.1494C30.8532 17.8214 30.7652 17.5974 30.5892 17.4774C30.4212 17.3574 30.1412 17.2974 29.7492 17.2974C29.6612 17.2974 29.4812 17.3054 29.2092 17.3214V18.9654ZM34.0222 16.0254H36.1822V22.8654H34.0222V16.0254ZM43.3729 19.0734V22.4934C42.8369 22.6694 42.3289 22.7974 41.8489 22.8774C41.3689 22.9574 40.9649 22.9974 40.6369 22.9974C39.5489 22.9974 38.6969 22.7134 38.0809 22.1454C37.4649 21.5774 37.1569 20.7054 37.1569 19.5294C37.1569 18.3294 37.4809 17.4334 38.1289 16.8414C38.7769 16.2414 39.6889 15.9414 40.8649 15.9414C41.4809 15.9414 42.2209 16.0334 43.0849 16.2174C43.0849 16.3774 43.0689 16.6174 43.0369 16.9374C43.0049 17.2494 42.9729 17.4694 42.9409 17.5974L42.5089 17.5854C41.9809 17.5694 41.5689 17.5614 41.2729 17.5614C40.3849 17.5614 39.9009 17.6134 39.8209 17.7174C39.6929 17.8694 39.6009 18.1054 39.5449 18.4254C39.4969 18.7454 39.4729 19.0534 39.4729 19.3494C39.4729 19.8854 39.5329 20.3014 39.6529 20.5974C39.7729 20.8934 39.9569 21.1014 40.2049 21.2214C40.4529 21.3414 40.7889 21.4014 41.2129 21.4014H41.2609V19.0734H43.3729ZM50.369 19.0734V22.4934C49.833 22.6694 49.325 22.7974 48.845 22.8774C48.365 22.9574 47.961 22.9974 47.633 22.9974C46.545 22.9974 45.693 22.7134 45.077 22.1454C44.461 21.5774 44.153 20.7054 44.153 19.5294C44.153 18.3294 44.477 17.4334 45.125 16.8414C45.773 16.2414 46.685 15.9414 47.861 15.9414C48.477 15.9414 49.217 16.0334 50.081 16.2174C50.081 16.3774 50.065 16.6174 50.033 16.9374C50.001 17.2494 49.969 17.4694 49.937 17.5974L49.505 17.5854C48.977 17.5694 48.565 17.5614 48.269 17.5614C47.381 17.5614 46.897 17.6134 46.817 17.7174C46.689 17.8694 46.597 18.1054 46.541 18.4254C46.493 18.7454 46.469 19.0534 46.469 19.3494C46.469 19.8854 46.529 20.3014 46.649 20.5974C46.769 20.8934 46.953 21.1014 47.201 21.2214C47.449 21.3414 47.785 21.4014 48.209 21.4014H48.257V19.0734H50.369ZM51.3291 16.0254H56.3091V17.4654H53.4891V18.7134H55.8651V20.0094H53.4891V21.4014H56.2971V22.8654H51.3291V16.0254ZM63.453 22.8654H61.185L60.777 21.1374C60.761 21.0734 60.733 20.9654 60.693 20.8134C60.661 20.6534 60.621 20.5374 60.573 20.4654C60.525 20.3854 60.457 20.3334 60.369 20.3094C60.145 20.3174 59.817 20.3214 59.385 20.3214V22.8654H57.225V16.0854C58.193 16.0134 59.097 15.9774 59.937 15.9774C60.697 15.9774 61.313 16.0414 61.785 16.1694C62.257 16.2894 62.609 16.5014 62.841 16.8054C63.081 17.1014 63.201 17.5094 63.201 18.0294C63.201 18.5174 63.089 18.9014 62.865 19.1814C62.641 19.4534 62.281 19.6174 61.785 19.6734V19.7454C62.065 19.7694 62.297 19.8614 62.481 20.0214C62.673 20.1734 62.801 20.3694 62.865 20.6094L63.453 22.8654ZM59.385 18.9654C59.457 18.9734 59.597 18.9774 59.805 18.9774C60.421 18.9774 60.781 18.9254 60.885 18.8214C60.981 18.7254 61.029 18.5014 61.029 18.1494C61.029 17.8214 60.941 17.5974 60.765 17.4774C60.597 17.3574 60.317 17.2974 59.925 17.2974C59.837 17.2974 59.657 17.3054 59.385 17.3214V18.9654ZM66.1539 17.8734C66.1539 18.0414 66.2379 18.1734 66.4059 18.2694C66.5819 18.3654 66.8539 18.4694 67.2219 18.5814C67.6619 18.7254 68.0219 18.8654 68.3019 19.0014C68.5899 19.1374 68.8379 19.3494 69.0459 19.6374C69.2619 19.9254 69.3699 20.3014 69.3699 20.7654C69.3699 22.2534 68.4019 22.9974 66.4659 22.9974C66.1459 22.9974 65.7539 22.9694 65.2899 22.9134C64.8339 22.8574 64.4179 22.7854 64.0419 22.6974C64.0579 22.5294 64.0899 22.2854 64.1379 21.9654C64.1939 21.6374 64.2459 21.3934 64.2939 21.2334C64.5739 21.2734 64.9939 21.3214 65.5539 21.3774C66.1219 21.4334 66.5499 21.4614 66.8379 21.4614C67.0059 21.4614 67.1059 21.4494 67.1379 21.4254C67.1859 21.3934 67.2219 21.3414 67.2459 21.2694C67.2779 21.1894 67.2939 21.1214 67.2939 21.0654C67.2939 20.9054 67.2179 20.7854 67.0659 20.7054C66.9139 20.6174 66.6539 20.5134 66.2859 20.3934C65.8459 20.2574 65.4819 20.1174 65.1939 19.9734C64.9059 19.8294 64.6539 19.6054 64.4379 19.3014C64.2219 18.9974 64.1139 18.5974 64.1139 18.1014C64.1139 17.7494 64.1939 17.4054 64.3539 17.0694C64.5139 16.7254 64.6779 16.4934 64.8459 16.3734C64.9739 16.2854 65.2379 16.2014 65.6379 16.1214C66.0379 16.0414 66.4139 16.0014 66.7659 16.0014C67.6619 16.0014 68.3939 16.0854 68.9619 16.2534C68.9539 16.4134 68.9259 16.6334 68.8779 16.9134C68.8379 17.1934 68.7939 17.4494 68.7459 17.6814L68.4699 17.6694C67.4299 17.5974 66.7659 17.5614 66.4779 17.5614C66.3579 17.5614 66.2899 17.5654 66.2739 17.5734C66.2419 17.5894 66.2139 17.6254 66.1899 17.6814C66.1659 17.7374 66.1539 17.8014 66.1539 17.8734Z" fill="#A8DADC"/>
<path d="M36.4932 105.306H38.6412L36.9612 110.826H34.1172L32.4372 105.306H34.5852L35.4852 109.542H35.6052L36.4932 105.306ZM41.6638 110.982C40.7038 110.982 39.9838 110.758 39.5038 110.31C39.0318 109.854 38.7958 109.138 38.7958 108.162C38.7958 107.626 38.8438 107.158 38.9398 106.758C39.0438 106.35 39.1678 106.066 39.3118 105.906C39.4958 105.698 39.8318 105.526 40.3198 105.39C40.8158 105.254 41.2798 105.186 41.7118 105.186C42.7438 105.186 43.4798 105.406 43.9198 105.846C44.3598 106.286 44.5798 106.99 44.5798 107.958C44.5798 108.998 44.3438 109.762 43.8718 110.25C43.3998 110.738 42.6638 110.982 41.6638 110.982ZM41.6998 109.578C42.0118 109.578 42.2158 109.47 42.3118 109.254C42.4078 109.03 42.4558 108.638 42.4558 108.078C42.4558 107.686 42.4358 107.386 42.3958 107.178C42.3558 106.962 42.2798 106.806 42.1678 106.71C42.0638 106.606 41.8998 106.554 41.6758 106.554C41.3558 106.554 41.1718 106.582 41.1238 106.638C41.0598 106.694 41.0078 106.87 40.9678 107.166C40.9278 107.462 40.9078 107.77 40.9078 108.09C40.9078 108.634 40.9598 109.018 41.0638 109.242C41.1758 109.466 41.3878 109.578 41.6998 109.578ZM45.3991 103.626L47.4511 103.542V110.826H45.3991V103.626ZM51.0126 108.558C51.0126 108.702 51.0166 108.854 51.0246 109.014C51.0326 109.166 51.0566 109.262 51.0966 109.302C51.1526 109.358 51.3486 109.386 51.6846 109.386L52.0926 109.374C52.1646 109.758 52.2006 110.202 52.2006 110.706C52.0486 110.762 51.8246 110.814 51.5286 110.862C51.2406 110.91 50.9646 110.934 50.7006 110.934C50.1486 110.934 49.7206 110.814 49.4166 110.574C49.1206 110.326 48.9726 109.946 48.9726 109.434V106.482H48.0726V105.39L48.9726 105.306L49.5126 103.986L51.0126 103.902V105.306H52.2846V106.482H51.0126V108.558ZM57.3623 108.954C57.3623 109.666 57.1343 110.178 56.6783 110.49C56.2303 110.802 55.5903 110.958 54.7583 110.958C54.1743 110.958 53.5023 110.874 52.7423 110.706C52.7583 110.546 52.7943 110.318 52.8503 110.022C52.9143 109.718 52.9663 109.486 53.0063 109.326C53.2943 109.374 53.6143 109.414 53.9663 109.446C54.3183 109.47 54.6183 109.482 54.8663 109.482C55.0823 109.482 55.2143 109.47 55.2623 109.446C55.2703 109.438 55.2783 109.418 55.2863 109.386C55.3023 109.346 55.3103 109.306 55.3103 109.266C55.3103 109.106 55.2103 108.998 55.0103 108.942C54.9463 108.926 54.7023 108.858 54.2783 108.738C53.8543 108.618 53.5063 108.402 53.2343 108.09C52.9703 107.77 52.8383 107.374 52.8383 106.902C52.8383 106.654 52.8943 106.378 53.0063 106.074C53.1183 105.77 53.2383 105.578 53.3663 105.498C53.4623 105.434 53.6943 105.37 54.0623 105.306C54.4303 105.234 54.7703 105.198 55.0823 105.198C55.7463 105.198 56.4143 105.246 57.0863 105.342C57.0863 105.486 57.0663 105.73 57.0263 106.074C56.9863 106.41 56.9503 106.622 56.9183 106.71C56.2383 106.622 55.6903 106.578 55.2743 106.578C55.0583 106.578 54.9183 106.59 54.8543 106.614C54.8383 106.622 54.8223 106.646 54.8063 106.686C54.7903 106.718 54.7823 106.762 54.7823 106.818C54.7823 106.93 54.8183 107.01 54.8903 107.058C54.9623 107.114 55.1503 107.182 55.4543 107.262C55.8143 107.366 56.1223 107.474 56.3783 107.586C56.6423 107.698 56.8703 107.866 57.0623 108.09C57.2623 108.314 57.3623 108.602 57.3623 108.954Z" fill="#A8DADC"/>
<path d="M31.5095 209.982C30.5495 209.982 29.8295 209.758 29.3495 209.31C28.8775 208.854 28.6415 208.138 28.6415 207.162C28.6415 206.626 28.6895 206.158 28.7855 205.758C28.8895 205.35 29.0135 205.066 29.1575 204.906C29.3415 204.698 29.6775 204.526 30.1655 204.39C30.6615 204.254 31.1255 204.186 31.5575 204.186C32.5895 204.186 33.3255 204.406 33.7655 204.846C34.2055 205.286 34.4255 205.99 34.4255 206.958C34.4255 207.998 34.1895 208.762 33.7175 209.25C33.2455 209.738 32.5095 209.982 31.5095 209.982ZM31.5455 208.578C31.8575 208.578 32.0615 208.47 32.1575 208.254C32.2535 208.03 32.3015 207.638 32.3015 207.078C32.3015 206.686 32.2815 206.386 32.2415 206.178C32.2015 205.962 32.1255 205.806 32.0135 205.71C31.9095 205.606 31.7455 205.554 31.5215 205.554C31.2015 205.554 31.0175 205.582 30.9695 205.638C30.9055 205.694 30.8535 205.87 30.8135 206.166C30.7735 206.462 30.7535 206.77 30.7535 207.09C30.7535 207.634 30.8055 208.018 30.9095 208.242C31.0215 208.466 31.2335 208.578 31.5455 208.578ZM40.5488 204.654C40.6208 204.742 40.6728 204.962 40.7048 205.314C40.7448 205.666 40.7648 206.202 40.7648 206.922V209.826H38.7128V206.946V206.454C38.7128 206.198 38.6928 206.038 38.6528 205.974C38.5888 205.894 38.4408 205.854 38.2088 205.854C38.0968 205.854 38.0128 205.858 37.9568 205.866C37.7328 205.874 37.5008 205.926 37.2608 206.022V209.826H35.2088V204.306H36.8768L37.1048 205.23C37.6808 204.534 38.3688 204.186 39.1688 204.186C39.4568 204.186 39.7248 204.226 39.9728 204.306C40.2288 204.386 40.4208 204.502 40.5488 204.654ZM45.4087 201.81H47.0047L42.9367 211.698H41.3407L45.4087 201.81ZM50.283 209.982C49.323 209.982 48.603 209.758 48.123 209.31C47.651 208.854 47.415 208.138 47.415 207.162C47.415 206.626 47.463 206.158 47.559 205.758C47.663 205.35 47.787 205.066 47.931 204.906C48.115 204.698 48.451 204.526 48.939 204.39C49.435 204.254 49.899 204.186 50.331 204.186C51.363 204.186 52.099 204.406 52.539 204.846C52.979 205.286 53.199 205.99 53.199 206.958C53.199 207.998 52.963 208.762 52.491 209.25C52.019 209.738 51.283 209.982 50.283 209.982ZM50.319 208.578C50.631 208.578 50.835 208.47 50.931 208.254C51.027 208.03 51.075 207.638 51.075 207.078C51.075 206.686 51.055 206.386 51.015 206.178C50.975 205.962 50.899 205.806 50.787 205.71C50.683 205.606 50.519 205.554 50.295 205.554C49.975 205.554 49.791 205.582 49.743 205.638C49.679 205.694 49.627 205.87 49.587 206.166C49.547 206.462 49.527 206.77 49.527 207.09C49.527 207.634 49.579 208.018 49.683 208.242C49.795 208.466 50.007 208.578 50.319 208.578ZM60.4382 203.682C60.3822 203.738 60.3542 203.91 60.3542 204.198V204.306H61.6262V205.482H60.3542V209.826H58.3022V205.482H56.5142V209.826H54.4622V205.482H53.5622V204.414L54.4622 204.306V204.126C54.4622 203.774 54.5102 203.438 54.6062 203.118C54.7022 202.798 54.7902 202.606 54.8702 202.542C55.1182 202.334 55.6462 202.23 56.4542 202.23C56.8942 202.23 57.3862 202.262 57.9302 202.326C57.9302 202.422 57.9142 202.614 57.8822 202.902C57.8582 203.19 57.8342 203.434 57.8102 203.634L57.2942 203.622C56.8702 203.622 56.6382 203.642 56.5982 203.682C56.5422 203.738 56.5142 203.91 56.5142 204.198V204.306H58.3022V204.126C58.3022 203.774 58.3502 203.438 58.4462 203.118C58.5422 202.798 58.6302 202.606 58.7102 202.542C58.9582 202.334 59.4862 202.23 60.2942 202.23C60.7342 202.23 61.2262 202.262 61.7702 202.326C61.7702 202.422 61.7542 202.614 61.7222 202.902C61.6982 203.19 61.6742 203.434 61.6502 203.634L61.1342 203.622C60.7102 203.622 60.4782 203.642 60.4382 203.682Z" fill="#A8DADC"/>
<path d="M36.1981 314.69C36.3261 314.882 36.3901 315.626 36.3901 316.922V319.826H34.3381V317.126V316.478C34.3381 316.182 34.3101 316.006 34.2541 315.95C34.1901 315.886 34.0541 315.854 33.8461 315.854L33.7021 315.866C33.4541 315.882 33.2181 315.938 32.9941 316.034C33.0021 316.202 33.0061 316.498 33.0061 316.922V319.826H30.9541V317.126V316.406C30.9541 316.158 30.9261 316.006 30.8701 315.95C30.8061 315.886 30.6701 315.854 30.4621 315.854L30.3181 315.866C30.0941 315.874 29.8621 315.926 29.6221 316.022V319.826H27.5701V314.306H29.2381L29.4541 315.206C29.7181 314.854 30.0221 314.598 30.3661 314.438C30.7101 314.27 31.0581 314.186 31.4101 314.186C31.7061 314.186 31.9861 314.23 32.2501 314.318C32.5221 314.406 32.7101 314.53 32.8141 314.69C32.8621 314.762 32.9021 314.894 32.9341 315.086C33.1901 314.774 33.4821 314.546 33.8101 314.402C34.1381 314.258 34.4661 314.186 34.7941 314.186C35.0901 314.186 35.3701 314.23 35.6341 314.318C35.9061 314.406 36.0941 314.53 36.1981 314.69ZM40.0076 319.982C39.0476 319.982 38.3276 319.758 37.8476 319.31C37.3756 318.854 37.1396 318.138 37.1396 317.162C37.1396 316.626 37.1876 316.158 37.2836 315.758C37.3876 315.35 37.5116 315.066 37.6556 314.906C37.8396 314.698 38.1756 314.526 38.6636 314.39C39.1596 314.254 39.6236 314.186 40.0556 314.186C41.0876 314.186 41.8236 314.406 42.2636 314.846C42.7036 315.286 42.9236 315.99 42.9236 316.958C42.9236 317.998 42.6876 318.762 42.2156 319.25C41.7436 319.738 41.0076 319.982 40.0076 319.982ZM40.0436 318.578C40.3556 318.578 40.5596 318.47 40.6556 318.254C40.7516 318.03 40.7996 317.638 40.7996 317.078C40.7996 316.686 40.7796 316.386 40.7396 316.178C40.6996 315.962 40.6236 315.806 40.5116 315.71C40.4076 315.606 40.2436 315.554 40.0196 315.554C39.6996 315.554 39.5156 315.582 39.4676 315.638C39.4036 315.694 39.3516 315.87 39.3116 316.166C39.2716 316.462 39.2516 316.77 39.2516 317.09C39.2516 317.634 39.3036 318.018 39.4076 318.242C39.5196 318.466 39.7316 318.578 40.0436 318.578ZM52.3348 314.69C52.4628 314.882 52.5268 315.626 52.5268 316.922V319.826H50.4748V317.126V316.478C50.4748 316.182 50.4468 316.006 50.3908 315.95C50.3268 315.886 50.1908 315.854 49.9828 315.854L49.8388 315.866C49.5908 315.882 49.3548 315.938 49.1308 316.034C49.1388 316.202 49.1428 316.498 49.1428 316.922V319.826H47.0908V317.126V316.406C47.0908 316.158 47.0628 316.006 47.0068 315.95C46.9428 315.886 46.8068 315.854 46.5988 315.854L46.4548 315.866C46.2308 315.874 45.9988 315.926 45.7588 316.022V319.826H43.7068V314.306H45.3748L45.5908 315.206C45.8548 314.854 46.1588 314.598 46.5028 314.438C46.8468 314.27 47.1948 314.186 47.5468 314.186C47.8428 314.186 48.1228 314.23 48.3868 314.318C48.6588 314.406 48.8468 314.53 48.9508 314.69C48.9988 314.762 49.0388 314.894 49.0708 315.086C49.3268 314.774 49.6188 314.546 49.9468 314.402C50.2748 314.258 50.6028 314.186 50.9308 314.186C51.2268 314.186 51.5068 314.23 51.7708 314.318C52.0428 314.406 52.2308 314.53 52.3348 314.69ZM58.8203 314.654C58.8923 314.742 58.9443 314.962 58.9763 315.314C59.0163 315.666 59.0363 316.202 59.0363 316.922V319.826H56.9843V316.946V316.454C56.9843 316.198 56.9643 316.038 56.9243 315.974C56.8603 315.894 56.7123 315.854 56.4803 315.854C56.3683 315.854 56.2843 315.858 56.2283 315.866C56.0043 315.874 55.7723 315.926 55.5323 316.022V319.826H53.4803V314.306H55.1483L55.3763 315.23C55.9523 314.534 56.6403 314.186 57.4403 314.186C57.7283 314.186 57.9963 314.226 58.2443 314.306C58.5003 314.386 58.6923 314.502 58.8203 314.654ZM62.5282 317.558C62.5282 317.702 62.5322 317.854 62.5402 318.014C62.5482 318.166 62.5722 318.262 62.6122 318.302C62.6682 318.358 62.8642 318.386 63.2002 318.386L63.6082 318.374C63.6802 318.758 63.7162 319.202 63.7162 319.706C63.5642 319.762 63.3402 319.814 63.0442 319.862C62.7562 319.91 62.4802 319.934 62.2162 319.934C61.6642 319.934 61.2362 319.814 60.9322 319.574C60.6362 319.326 60.4882 318.946 60.4882 318.434V315.482H59.5882V314.39L60.4882 314.306L61.0282 312.986L62.5282 312.902V314.306H63.8002V315.482H62.5282V317.558Z" fill="#A8DADC"/>
</svg>
