<svg width="90" height="380" viewBox="0 0 90 380" fill="none" xmlns="http://www.w3.org/2000/svg">
<rect width="90" height="380" fill="#457B9D"/>
<g opacity="0.5">
<path fill-rule="evenodd" clip-rule="evenodd" d="M38.958 375.599C38.803 375.747 38.659 375.851 38.526 375.909C38.393 375.968 38.251 375.998 38.1 375.998C37.948 375.998 37.806 375.97 37.673 375.914C37.54 375.858 37.424 375.781 37.325 375.682C37.109 375.466 37 375.209 37 374.912V369.385C37 369.082 37.078 368.847 37.232 368.68C37.498 368.408 37.75 368.272 37.988 368.272C38.226 368.272 38.404 368.296 38.522 368.346C38.639 368.395 38.738 368.457 38.818 368.531C38.924 368.624 39.002 368.723 39.055 368.828C39.108 368.933 39.151 369.011 39.185 369.06C39.219 369.11 39.275 369.134 39.352 369.134C39.429 369.134 39.496 369.11 39.551 369.06L39.709 368.902C40.16 368.482 40.612 368.272 41.063 368.272C41.861 368.272 42.519 368.599 43.039 369.255C43.088 369.323 43.15 369.357 43.224 369.357C43.354 369.357 43.486 369.256 43.619 369.055C43.752 368.854 43.966 368.674 44.263 368.513C44.56 368.352 44.906 368.272 45.302 368.272C45.698 368.272 46.058 368.344 46.383 368.49C46.707 368.635 46.99 368.834 47.231 369.088C47.738 369.62 47.992 370.263 47.992 371.017V374.912C47.992 375.382 47.769 375.713 47.324 375.905C47.188 375.967 47.044 375.998 46.893 375.998C46.741 375.998 46.599 375.97 46.466 375.914C46.333 375.858 46.217 375.781 46.118 375.682C45.908 375.46 45.803 375.203 45.803 374.912V371.045C45.803 370.736 45.726 370.504 45.571 370.349C45.299 370.077 45.049 369.941 44.82 369.941C44.591 369.941 44.412 369.971 44.282 370.029C44.152 370.088 44.034 370.17 43.929 370.275C43.713 370.492 43.605 370.742 43.605 371.026V374.912C43.605 375.382 43.385 375.713 42.946 375.905C42.81 375.967 42.666 375.998 42.515 375.998C42.363 375.998 42.22 375.97 42.083 375.914C41.947 375.858 41.83 375.781 41.731 375.682C41.515 375.466 41.406 375.209 41.406 374.912V371.045C41.406 370.736 41.329 370.504 41.174 370.349C40.902 370.077 40.618 369.941 40.321 369.941C39.826 369.941 39.483 370.133 39.292 370.516C39.23 370.64 39.199 370.779 39.199 370.934V374.912C39.199 375.215 39.118 375.444 38.958 375.599ZM50.219 369.387C50.219 369.084 50.296 368.849 50.451 368.682C50.716 368.41 51.01 368.274 51.332 368.274C51.641 368.274 51.87 368.355 52.018 368.515C52.29 368.794 52.426 369.084 52.426 369.387V374.915C52.426 375.212 52.349 375.437 52.194 375.592C51.922 375.864 51.672 376 51.443 376C51.214 376 51.032 375.971 50.896 375.912C50.76 375.853 50.642 375.777 50.543 375.685C50.327 375.474 50.219 375.218 50.219 374.915V369.387ZM51.327 365.9C51.065 365.9 50.852 365.687 50.852 365.425C50.852 365.162 51.065 364.95 51.327 364.95C51.589 364.95 51.802 365.162 51.802 365.425C51.802 365.687 51.589 365.9 51.327 365.9ZM51.327 364C51.714 364 52.048 364.142 52.329 364.425C52.611 364.709 52.752 364.996 52.752 365.287C52.752 365.577 52.713 365.807 52.635 365.978C52.558 366.148 52.456 366.297 52.329 366.424C52.048 366.708 51.714 366.849 51.327 366.849C50.94 366.849 50.606 366.708 50.324 366.424C50.043 366.141 49.902 365.857 49.902 365.574C49.902 365.092 50.043 364.709 50.324 364.425C50.606 364.142 50.94 364 51.327 364Z" fill="#1D3557"/>
</g>
<path d="M12.2564 22.8654H10.0964V17.5254H8.16436V16.0254H14.1884V17.5254H12.2564V22.8654ZM21.1073 22.8654H18.8393L18.4313 21.1374C18.4153 21.0734 18.3873 20.9654 18.3473 20.8134C18.3153 20.6534 18.2753 20.5374 18.2273 20.4654C18.1793 20.3854 18.1113 20.3334 18.0233 20.3094C17.7993 20.3174 17.4713 20.3214 17.0393 20.3214V22.8654H14.8793V16.0854C15.8473 16.0134 16.7513 15.9774 17.5913 15.9774C18.3513 15.9774 18.9673 16.0414 19.4393 16.1694C19.9113 16.2894 20.2633 16.5014 20.4953 16.8054C20.7353 17.1014 20.8553 17.5094 20.8553 18.0294C20.8553 18.5174 20.7433 18.9014 20.5193 19.1814C20.2953 19.4534 19.9353 19.6174 19.4393 19.6734V19.7454C19.7193 19.7694 19.9513 19.8614 20.1353 20.0214C20.3273 20.1734 20.4553 20.3694 20.5193 20.6094L21.1073 22.8654ZM17.0393 18.9654C17.1113 18.9734 17.2513 18.9774 17.4593 18.9774C18.0753 18.9774 18.4353 18.9254 18.5393 18.8214C18.6353 18.7254 18.6833 18.5014 18.6833 18.1494C18.6833 17.8214 18.5953 17.5974 18.4193 17.4774C18.2513 17.3574 17.9713 17.2974 17.5793 17.2974C17.4913 17.2974 17.3113 17.3054 17.0393 17.3214V18.9654ZM21.8522 16.0254H24.0122V22.8654H21.8522V16.0254ZM31.203 19.0734V22.4934C30.667 22.6694 30.159 22.7974 29.679 22.8774C29.199 22.9574 28.795 22.9974 28.467 22.9974C27.379 22.9974 26.527 22.7134 25.911 22.1454C25.295 21.5774 24.987 20.7054 24.987 19.5294C24.987 18.3294 25.311 17.4334 25.959 16.8414C26.607 16.2414 27.519 15.9414 28.695 15.9414C29.311 15.9414 30.051 16.0334 30.915 16.2174C30.915 16.3774 30.899 16.6174 30.867 16.9374C30.835 17.2494 30.803 17.4694 30.771 17.5974L30.339 17.5854C29.811 17.5694 29.399 17.5614 29.103 17.5614C28.215 17.5614 27.731 17.6134 27.651 17.7174C27.523 17.8694 27.431 18.1054 27.375 18.4254C27.327 18.7454 27.303 19.0534 27.303 19.3494C27.303 19.8854 27.363 20.3014 27.483 20.5974C27.603 20.8934 27.787 21.1014 28.035 21.2214C28.283 21.3414 28.619 21.4014 29.043 21.4014H29.091V19.0734H31.203ZM38.199 19.0734V22.4934C37.663 22.6694 37.155 22.7974 36.675 22.8774C36.195 22.9574 35.791 22.9974 35.463 22.9974C34.375 22.9974 33.523 22.7134 32.907 22.1454C32.291 21.5774 31.983 20.7054 31.983 19.5294C31.983 18.3294 32.307 17.4334 32.955 16.8414C33.603 16.2414 34.515 15.9414 35.691 15.9414C36.307 15.9414 37.047 16.0334 37.911 16.2174C37.911 16.3774 37.895 16.6174 37.863 16.9374C37.831 17.2494 37.799 17.4694 37.767 17.5974L37.335 17.5854C36.807 17.5694 36.395 17.5614 36.099 17.5614C35.211 17.5614 34.727 17.6134 34.647 17.7174C34.519 17.8694 34.427 18.1054 34.371 18.4254C34.323 18.7454 34.299 19.0534 34.299 19.3494C34.299 19.8854 34.359 20.3014 34.479 20.5974C34.599 20.8934 34.783 21.1014 35.031 21.2214C35.279 21.3414 35.615 21.4014 36.039 21.4014H36.087V19.0734H38.199ZM39.1591 16.0254H44.1391V17.4654H41.3191V18.7134H43.6951V20.0094H41.3191V21.4014H44.1271V22.8654H39.1591V16.0254ZM51.2831 22.8654H49.0151L48.6071 21.1374C48.5911 21.0734 48.5631 20.9654 48.5231 20.8134C48.4911 20.6534 48.4511 20.5374 48.4031 20.4654C48.3551 20.3854 48.2871 20.3334 48.1991 20.3094C47.9751 20.3174 47.6471 20.3214 47.2151 20.3214V22.8654H45.0551V16.0854C46.0231 16.0134 46.9271 15.9774 47.7671 15.9774C48.5271 15.9774 49.1431 16.0414 49.6151 16.1694C50.0871 16.2894 50.4391 16.5014 50.6711 16.8054C50.9111 17.1014 51.0311 17.5094 51.0311 18.0294C51.0311 18.5174 50.9191 18.9014 50.6951 19.1814C50.4711 19.4534 50.1111 19.6174 49.6151 19.6734V19.7454C49.8951 19.7694 50.1271 19.8614 50.3111 20.0214C50.5031 20.1734 50.6311 20.3694 50.6951 20.6094L51.2831 22.8654ZM47.2151 18.9654C47.2871 18.9734 47.4271 18.9774 47.6351 18.9774C48.2511 18.9774 48.6111 18.9254 48.7151 18.8214C48.8111 18.7254 48.8591 18.5014 48.8591 18.1494C48.8591 17.8214 48.7711 17.5974 48.5951 17.4774C48.4271 17.3574 48.1471 17.2974 47.7551 17.2974C47.6671 17.2974 47.4871 17.3054 47.2151 17.3214V18.9654ZM53.984 17.8734C53.984 18.0414 54.068 18.1734 54.236 18.2694C54.412 18.3654 54.684 18.4694 55.052 18.5814C55.492 18.7254 55.852 18.8654 56.132 19.0014C56.42 19.1374 56.668 19.3494 56.876 19.6374C57.092 19.9254 57.2 20.3014 57.2 20.7654C57.2 22.2534 56.232 22.9974 54.296 22.9974C53.976 22.9974 53.584 22.9694 53.12 22.9134C52.664 22.8574 52.248 22.7854 51.872 22.6974C51.888 22.5294 51.92 22.2854 51.968 21.9654C52.024 21.6374 52.076 21.3934 52.124 21.2334C52.404 21.2734 52.824 21.3214 53.384 21.3774C53.952 21.4334 54.38 21.4614 54.668 21.4614C54.836 21.4614 54.936 21.4494 54.968 21.4254C55.016 21.3934 55.052 21.3414 55.076 21.2694C55.108 21.1894 55.124 21.1214 55.124 21.0654C55.124 20.9054 55.048 20.7854 54.896 20.7054C54.744 20.6174 54.484 20.5134 54.116 20.3934C53.676 20.2574 53.312 20.1174 53.024 19.9734C52.736 19.8294 52.484 19.6054 52.268 19.3014C52.052 18.9974 51.944 18.5974 51.944 18.1014C51.944 17.7494 52.024 17.4054 52.184 17.0694C52.344 16.7254 52.508 16.4934 52.676 16.3734C52.804 16.2854 53.068 16.2014 53.468 16.1214C53.868 16.0414 54.244 16.0014 54.596 16.0014C55.492 16.0014 56.224 16.0854 56.792 16.2534C56.784 16.4134 56.756 16.6334 56.708 16.9134C56.668 17.1934 56.624 17.4494 56.576 17.6814L56.3 17.6694C55.26 17.5974 54.596 17.5614 54.308 17.5614C54.188 17.5614 54.12 17.5654 54.104 17.5734C54.072 17.5894 54.044 17.6254 54.02 17.6814C53.996 17.7374 53.984 17.8014 53.984 17.8734ZM68.8165 22.8654H66.8005L66.6445 19.0974C66.6205 18.3534 66.5925 17.7894 66.5605 17.4054H66.5245C66.4285 17.7094 66.3165 18.1814 66.1885 18.8214L66.1285 19.1214L65.3005 22.8654H63.2845L62.5885 19.4934L62.4685 18.8934C62.3005 18.1494 62.1845 17.6534 62.1205 17.4054H62.0845C62.0525 17.8054 62.0245 18.4574 62.0005 19.3614C61.9925 19.4174 61.9885 19.5054 61.9885 19.6254L61.8805 22.8654H59.8525L60.1405 16.0254H63.5725L64.1605 18.9774L64.3045 19.7694C64.3685 19.5214 64.4285 19.2454 64.4845 18.9414L65.0365 16.0254H68.5405L68.8165 22.8654ZM76.2594 22.8654H73.8954L72.5634 20.3094C72.5394 20.2694 72.4754 20.1574 72.3714 19.9734C72.2754 19.7894 72.1674 19.6134 72.0474 19.4454V22.8654H69.8874V16.0254H72.0474V19.1334C72.1834 18.9814 72.2994 18.8174 72.3954 18.6414C72.4994 18.4574 72.5594 18.3494 72.5754 18.3174L73.8594 16.0254H76.1394L74.7714 18.3174C74.7474 18.3494 74.6954 18.4334 74.6154 18.5694C74.5354 18.7054 74.4474 18.8334 74.3514 18.9534C74.2634 19.0654 74.1674 19.1694 74.0634 19.2654C74.2074 19.4014 74.3234 19.5374 74.4114 19.6734C74.5074 19.8014 74.6154 19.9734 74.7354 20.1894L76.2594 22.8654ZM79.9455 19.3734C80.5135 19.4134 80.9215 19.5734 81.1695 19.8534C81.4175 20.1334 81.5415 20.4814 81.5415 20.8974C81.5415 21.4974 81.3175 22.0014 80.8695 22.4094C80.4215 22.8094 79.7055 23.0094 78.7215 23.0094C78.0575 23.0094 77.3175 22.9454 76.5015 22.8174L76.7415 21.4974C77.4615 21.5294 77.9335 21.5454 78.1575 21.5454C78.5975 21.5454 78.9175 21.4894 79.1175 21.3774C79.3255 21.2654 79.4295 21.0454 79.4295 20.7174C79.4295 20.4854 79.3535 20.3134 79.2015 20.2014C79.0575 20.0814 78.8495 20.0054 78.5775 19.9734C78.3055 19.9414 77.9175 19.9254 77.4135 19.9254V18.8094C77.9175 18.8094 78.2975 18.7974 78.5535 18.7734C78.8175 18.7414 79.0175 18.6734 79.1535 18.5694C79.2975 18.4654 79.3695 18.3014 79.3695 18.0774C79.3695 17.8854 79.3655 17.7334 79.3575 17.6214C79.3495 17.5094 79.3215 17.4374 79.2735 17.4054C79.2095 17.3654 78.9255 17.3454 78.4215 17.3454C77.9655 17.3454 77.4095 17.3614 76.7535 17.3934L76.6335 16.1214C77.5055 16.0014 78.2055 15.9414 78.7335 15.9414C79.5015 15.9414 80.1295 16.0894 80.6175 16.3854C81.1135 16.6814 81.3615 17.1614 81.3615 17.8254C81.3615 18.1614 81.2495 18.4814 81.0255 18.7854C80.8095 19.0814 80.4495 19.2654 79.9455 19.3374V19.3734Z" fill="#A8DADC"/>
<path d="M64.5076 84.9816C63.5476 84.9816 62.8276 84.7576 62.3476 84.3096C61.8756 83.8536 61.6396 83.1376 61.6396 82.1616C61.6396 81.6256 61.6876 81.1576 61.7836 80.7576C61.8876 80.3496 62.0116 80.0656 62.1556 79.9056C62.3396 79.6976 62.6756 79.5256 63.1636 79.3896C63.6596 79.2536 64.1236 79.1856 64.5556 79.1856C65.5876 79.1856 66.3236 79.4056 66.7636 79.8456C67.2036 80.2856 67.4236 80.9896 67.4236 81.9576C67.4236 82.9976 67.1876 83.7616 66.7156 84.2496C66.2436 84.7376 65.5076 84.9816 64.5076 84.9816ZM64.5436 83.5776C64.8556 83.5776 65.0596 83.4696 65.1556 83.2536C65.2516 83.0296 65.2996 82.6376 65.2996 82.0776C65.2996 81.6856 65.2796 81.3856 65.2396 81.1776C65.1996 80.9616 65.1236 80.8056 65.0116 80.7096C64.9076 80.6056 64.7436 80.5536 64.5196 80.5536C64.1996 80.5536 64.0156 80.5816 63.9676 80.6376C63.9036 80.6936 63.8516 80.8696 63.8116 81.1656C63.7716 81.4616 63.7516 81.7696 63.7516 82.0896C63.7516 82.6336 63.8036 83.0176 63.9076 83.2416C64.0196 83.4656 64.2316 83.5776 64.5436 83.5776ZM73.7268 79.3056V84.8256H72.0588L71.8308 83.9016C71.2548 84.5976 70.5668 84.9456 69.7668 84.9456C69.4788 84.9456 69.2068 84.9056 68.9508 84.8256C68.7028 84.7456 68.5148 84.6296 68.3868 84.4776C68.3148 84.3896 68.2588 84.1696 68.2188 83.8176C68.1868 83.4656 68.1708 82.9296 68.1708 82.2096V79.3056H70.2228V82.1856C70.2228 82.3456 70.2268 82.5336 70.2348 82.7496C70.2428 82.9656 70.2668 83.1016 70.3068 83.1576C70.3628 83.2376 70.5228 83.2776 70.7868 83.2776L70.9788 83.2656C71.2028 83.2576 71.4348 83.2056 71.6748 83.1096V79.3056H73.7268ZM77.2548 82.5576C77.2548 82.7016 77.2588 82.8536 77.2668 83.0136C77.2748 83.1656 77.2988 83.2616 77.3388 83.3016C77.3948 83.3576 77.5908 83.3856 77.9268 83.3856L78.3348 83.3736C78.4068 83.7576 78.4428 84.2016 78.4428 84.7056C78.2908 84.7616 78.0668 84.8136 77.7708 84.8616C77.4828 84.9096 77.2068 84.9336 76.9428 84.9336C76.3908 84.9336 75.9628 84.8136 75.6588 84.5736C75.3628 84.3256 75.2148 83.9456 75.2148 83.4336V80.4816H74.3148V79.3896L75.2148 79.3056L75.7548 77.9856L77.2548 77.9016V79.3056H78.5268V80.4816H77.2548V82.5576Z" fill="#A8DADC"/>
<path d="M64.5076 244.982C63.5476 244.982 62.8276 244.758 62.3476 244.31C61.8756 243.854 61.6396 243.138 61.6396 242.162C61.6396 241.626 61.6876 241.158 61.7836 240.758C61.8876 240.35 62.0116 240.066 62.1556 239.906C62.3396 239.698 62.6756 239.526 63.1636 239.39C63.6596 239.254 64.1236 239.186 64.5556 239.186C65.5876 239.186 66.3236 239.406 66.7636 239.846C67.2036 240.286 67.4236 240.99 67.4236 241.958C67.4236 242.998 67.1876 243.762 66.7156 244.25C66.2436 244.738 65.5076 244.982 64.5076 244.982ZM64.5436 243.578C64.8556 243.578 65.0596 243.47 65.1556 243.254C65.2516 243.03 65.2996 242.638 65.2996 242.078C65.2996 241.686 65.2796 241.386 65.2396 241.178C65.1996 240.962 65.1236 240.806 65.0116 240.71C64.9076 240.606 64.7436 240.554 64.5196 240.554C64.1996 240.554 64.0156 240.582 63.9676 240.638C63.9036 240.694 63.8516 240.87 63.8116 241.166C63.7716 241.462 63.7516 241.77 63.7516 242.09C63.7516 242.634 63.8036 243.018 63.9076 243.242C64.0196 243.466 64.2316 243.578 64.5436 243.578ZM73.7268 239.306V244.826H72.0588L71.8308 243.902C71.2548 244.598 70.5668 244.946 69.7668 244.946C69.4788 244.946 69.2068 244.906 68.9508 244.826C68.7028 244.746 68.5148 244.63 68.3868 244.478C68.3148 244.39 68.2588 244.17 68.2188 243.818C68.1868 243.466 68.1708 242.93 68.1708 242.21V239.306H70.2228V242.186C70.2228 242.346 70.2268 242.534 70.2348 242.75C70.2428 242.966 70.2668 243.102 70.3068 243.158C70.3628 243.238 70.5228 243.278 70.7868 243.278L70.9788 243.266C71.2028 243.258 71.4348 243.206 71.6748 243.11V239.306H73.7268ZM77.2548 242.558C77.2548 242.702 77.2588 242.854 77.2668 243.014C77.2748 243.166 77.2988 243.262 77.3388 243.302C77.3948 243.358 77.5908 243.386 77.9268 243.386L78.3348 243.374C78.4068 243.758 78.4428 244.202 78.4428 244.706C78.2908 244.762 78.0668 244.814 77.7708 244.862C77.4828 244.91 77.2068 244.934 76.9428 244.934C76.3908 244.934 75.9628 244.814 75.6588 244.574C75.3628 244.326 75.2148 243.946 75.2148 243.434V240.482H74.3148V239.39L75.2148 239.306L75.7548 237.986L77.2548 237.902V239.306H78.5268V240.482H77.2548V242.558Z" fill="#A8DADC"/>
<path d="M28.7438 83.3856C28.9438 83.3856 29.3158 83.3656 29.8598 83.3256C29.9318 83.3256 30.0638 83.3176 30.2558 83.3016L30.4358 84.5376C29.8198 84.8256 29.0198 84.9696 28.0358 84.9696C27.1158 84.9696 26.4078 84.7376 25.9118 84.2736C25.4238 83.8096 25.1798 83.1096 25.1798 82.1736C25.1798 81.6936 25.2398 81.2296 25.3598 80.7816C25.4878 80.3336 25.6318 80.0216 25.7918 79.8456C25.9598 79.6696 26.2718 79.5176 26.7278 79.3896C27.1838 79.2616 27.6358 79.1976 28.0838 79.1976C28.8038 79.1976 29.3438 79.3256 29.7038 79.5816C30.0638 79.8376 30.2998 80.1936 30.4118 80.6496C30.5238 81.0976 30.5798 81.7016 30.5798 82.4616C30.0358 82.4936 29.5038 82.5096 28.9838 82.5096H27.2798C27.2798 82.7656 27.3318 82.9576 27.4358 83.0856C27.5478 83.2136 27.7038 83.2976 27.9038 83.3376C28.1038 83.3696 28.3838 83.3856 28.7438 83.3856ZM27.3998 80.6256C27.3518 80.6496 27.3158 80.7536 27.2918 80.9376C27.2678 81.1216 27.2518 81.3296 27.2438 81.5616H27.8678C28.2438 81.5616 28.5158 81.5576 28.6838 81.5496C28.6838 81.1656 28.6278 80.8936 28.5158 80.7336C28.4118 80.5736 28.2278 80.4936 27.9638 80.4936C27.7478 80.4936 27.5598 80.5376 27.3998 80.6256ZM32.3101 82.0056L30.9301 79.3056H32.9221L33.9181 81.4416L34.9261 79.3056H36.9061L35.5381 82.0056L37.0381 84.8256H35.0341L33.9181 82.5456L32.8021 84.8256H30.7981L32.3101 82.0056ZM40.057 82.5576C40.057 82.7016 40.061 82.8536 40.069 83.0136C40.077 83.1656 40.101 83.2616 40.141 83.3016C40.197 83.3576 40.393 83.3856 40.729 83.3856L41.137 83.3736C41.209 83.7576 41.245 84.2016 41.245 84.7056C41.093 84.7616 40.869 84.8136 40.573 84.8616C40.285 84.9096 40.009 84.9336 39.745 84.9336C39.193 84.9336 38.765 84.8136 38.461 84.5736C38.165 84.3256 38.017 83.9456 38.017 83.4336V80.4816H37.117V79.3896L38.017 79.3056L38.557 77.9856L40.057 77.9016V79.3056H41.329V80.4816H40.057V82.5576Z" fill="#A8DADC"/>
<path d="M15.5 82H23.5" stroke="#A8DADC" stroke-width="0.5"/>
<path d="M43 82H51" stroke="#A8DADC" stroke-width="0.5"/>
<path d="M15.5 242H23.5" stroke="#A8DADC" stroke-width="0.5"/>
<path d="M43 242H51" stroke="#A8DADC" stroke-width="0.5"/>
<path d="M28.7438 243.386C28.9438 243.386 29.3158 243.366 29.8598 243.326C29.9318 243.326 30.0638 243.318 30.2558 243.302L30.4358 244.538C29.8198 244.826 29.0198 244.97 28.0358 244.97C27.1158 244.97 26.4078 244.738 25.9118 244.274C25.4238 243.81 25.1798 243.11 25.1798 242.174C25.1798 241.694 25.2398 241.23 25.3598 240.782C25.4878 240.334 25.6318 240.022 25.7918 239.846C25.9598 239.67 26.2718 239.518 26.7278 239.39C27.1838 239.262 27.6358 239.198 28.0838 239.198C28.8038 239.198 29.3438 239.326 29.7038 239.582C30.0638 239.838 30.2998 240.194 30.4118 240.65C30.5238 241.098 30.5798 241.702 30.5798 242.462C30.0358 242.494 29.5038 242.51 28.9838 242.51H27.2798C27.2798 242.766 27.3318 242.958 27.4358 243.086C27.5478 243.214 27.7038 243.298 27.9038 243.338C28.1038 243.37 28.3838 243.386 28.7438 243.386ZM27.3998 240.626C27.3518 240.65 27.3158 240.754 27.2918 240.938C27.2678 241.122 27.2518 241.33 27.2438 241.562H27.8678C28.2438 241.562 28.5158 241.558 28.6838 241.55C28.6838 241.166 28.6278 240.894 28.5158 240.734C28.4118 240.574 28.2278 240.494 27.9638 240.494C27.7478 240.494 27.5598 240.538 27.3998 240.626ZM32.3101 242.006L30.9301 239.306H32.9221L33.9181 241.442L34.9261 239.306H36.9061L35.5381 242.006L37.0381 244.826H35.0341L33.9181 242.546L32.8021 244.826H30.7981L32.3101 242.006ZM40.057 242.558C40.057 242.702 40.061 242.854 40.069 243.014C40.077 243.166 40.101 243.262 40.141 243.302C40.197 243.358 40.393 243.386 40.729 243.386L41.137 243.374C41.209 243.758 41.245 244.202 41.245 244.706C41.093 244.762 40.869 244.814 40.573 244.862C40.285 244.91 40.009 244.934 39.745 244.934C39.193 244.934 38.765 244.814 38.461 244.574C38.165 244.326 38.017 243.946 38.017 243.434V240.482H37.117V239.39L38.017 239.306L38.557 237.986L40.057 237.902V239.306H41.329V240.482H40.057V242.558Z" fill="#A8DADC"/>
</svg>
