<svg width="90" height="380" viewBox="0 0 90 380" fill="none" xmlns="http://www.w3.org/2000/svg">
<rect width="90" height="380" fill="#457B9D"/>
<g opacity="0.3">
<path fill-rule="evenodd" clip-rule="evenodd" d="M38.958 375.599C38.803 375.747 38.659 375.851 38.526 375.909C38.393 375.968 38.251 375.998 38.1 375.998C37.948 375.998 37.806 375.97 37.673 375.914C37.54 375.858 37.424 375.781 37.325 375.682C37.109 375.466 37 375.209 37 374.912V369.385C37 369.082 37.078 368.847 37.232 368.68C37.498 368.408 37.75 368.272 37.988 368.272C38.226 368.272 38.404 368.296 38.522 368.346C38.639 368.395 38.738 368.457 38.818 368.531C38.924 368.624 39.002 368.723 39.055 368.828C39.108 368.933 39.151 369.011 39.185 369.06C39.219 369.11 39.275 369.134 39.352 369.134C39.429 369.134 39.496 369.11 39.551 369.06L39.709 368.902C40.16 368.482 40.612 368.272 41.063 368.272C41.861 368.272 42.519 368.599 43.039 369.255C43.088 369.323 43.15 369.357 43.224 369.357C43.354 369.357 43.486 369.256 43.619 369.055C43.752 368.854 43.966 368.674 44.263 368.513C44.56 368.352 44.906 368.272 45.302 368.272C45.698 368.272 46.058 368.344 46.383 368.49C46.707 368.635 46.99 368.834 47.231 369.088C47.738 369.62 47.992 370.263 47.992 371.017V374.912C47.992 375.382 47.769 375.713 47.324 375.905C47.188 375.967 47.044 375.998 46.893 375.998C46.741 375.998 46.599 375.97 46.466 375.914C46.333 375.858 46.217 375.781 46.118 375.682C45.908 375.46 45.803 375.203 45.803 374.912V371.045C45.803 370.736 45.726 370.504 45.571 370.349C45.299 370.077 45.049 369.941 44.82 369.941C44.591 369.941 44.412 369.971 44.282 370.029C44.152 370.088 44.034 370.17 43.929 370.275C43.713 370.492 43.605 370.742 43.605 371.026V374.912C43.605 375.382 43.385 375.713 42.946 375.905C42.81 375.967 42.666 375.998 42.515 375.998C42.363 375.998 42.22 375.97 42.083 375.914C41.947 375.858 41.83 375.781 41.731 375.682C41.515 375.466 41.406 375.209 41.406 374.912V371.045C41.406 370.736 41.329 370.504 41.174 370.349C40.902 370.077 40.618 369.941 40.321 369.941C39.826 369.941 39.483 370.133 39.292 370.516C39.23 370.64 39.199 370.779 39.199 370.934V374.912C39.199 375.215 39.118 375.444 38.958 375.599ZM50.219 369.387C50.219 369.084 50.296 368.849 50.451 368.682C50.716 368.41 51.01 368.274 51.332 368.274C51.641 368.274 51.87 368.355 52.018 368.515C52.29 368.794 52.426 369.084 52.426 369.387V374.915C52.426 375.212 52.349 375.437 52.194 375.592C51.922 375.864 51.672 376 51.443 376C51.214 376 51.032 375.971 50.896 375.912C50.76 375.853 50.642 375.777 50.543 375.685C50.327 375.474 50.219 375.218 50.219 374.915V369.387ZM51.327 365.9C51.065 365.9 50.852 365.687 50.852 365.425C50.852 365.162 51.065 364.95 51.327 364.95C51.589 364.95 51.802 365.162 51.802 365.425C51.802 365.687 51.589 365.9 51.327 365.9ZM51.327 364C51.714 364 52.048 364.142 52.329 364.425C52.611 364.709 52.752 364.996 52.752 365.287C52.752 365.577 52.713 365.807 52.635 365.978C52.558 366.148 52.456 366.297 52.329 366.424C52.048 366.708 51.714 366.849 51.327 366.849C50.94 366.849 50.606 366.708 50.324 366.424C50.043 366.141 49.902 365.857 49.902 365.574C49.902 365.092 50.043 364.709 50.324 364.425C50.606 364.142 50.94 364 51.327 364Z" fill="#1D3557"/>
</g>
<path d="M12.9541 21.8654H10.9741V16.9704H9.20314V15.5954H14.7251V16.9704H12.9541V21.8654ZM21.6175 21.8654H19.5385L19.1645 20.2814C19.1498 20.2227 19.1242 20.1237 19.0875 19.9844C19.0582 19.8377 19.0215 19.7314 18.9775 19.6654C18.9335 19.592 18.8712 19.5444 18.7905 19.5224C18.5852 19.5297 18.2845 19.5334 17.8885 19.5334V21.8654H15.9085V15.6504C16.7958 15.5844 17.6245 15.5514 18.3945 15.5514C19.0912 15.5514 19.6558 15.61 20.0885 15.7274C20.5212 15.8374 20.8438 16.0317 21.0565 16.3104C21.2765 16.5817 21.3865 16.9557 21.3865 17.4324C21.3865 17.8797 21.2838 18.2317 21.0785 18.4884C20.8732 18.7377 20.5432 18.888 20.0885 18.9394V19.0054C20.3452 19.0274 20.5578 19.1117 20.7265 19.2584C20.9025 19.3977 21.0198 19.5774 21.0785 19.7974L21.6175 21.8654ZM17.8885 18.2904C17.9545 18.2977 18.0828 18.3014 18.2735 18.3014C18.8382 18.3014 19.1682 18.2537 19.2635 18.1584C19.3515 18.0704 19.3955 17.865 19.3955 17.5424C19.3955 17.2417 19.3148 17.0364 19.1535 16.9264C18.9995 16.8164 18.7428 16.7614 18.3835 16.7614C18.3028 16.7614 18.1378 16.7687 17.8885 16.7834V18.2904ZM22.8504 15.5954H24.8304V21.8654H22.8504V15.5954ZM31.9718 18.3894V21.5244C31.4805 21.6857 31.0148 21.803 30.5748 21.8764C30.1348 21.9497 29.7645 21.9864 29.4638 21.9864C28.4665 21.9864 27.6855 21.726 27.1208 21.2054C26.5562 20.6847 26.2738 19.8854 26.2738 18.8074C26.2738 17.7074 26.5708 16.886 27.1648 16.3434C27.7588 15.7934 28.5948 15.5184 29.6728 15.5184C30.2375 15.5184 30.9158 15.6027 31.7078 15.7714C31.7078 15.918 31.6932 16.138 31.6638 16.4314C31.6345 16.7174 31.6052 16.919 31.5758 17.0364L31.1798 17.0254C30.6958 17.0107 30.3182 17.0034 30.0468 17.0034C29.2328 17.0034 28.7892 17.051 28.7158 17.1464C28.5985 17.2857 28.5142 17.502 28.4628 17.7954C28.4188 18.0887 28.3968 18.371 28.3968 18.6424C28.3968 19.1337 28.4518 19.515 28.5618 19.7864C28.6718 20.0577 28.8405 20.2484 29.0678 20.3584C29.2952 20.4684 29.6032 20.5234 29.9918 20.5234H30.0358V18.3894H31.9718ZM38.9349 18.3894V21.5244C38.4436 21.6857 37.9779 21.803 37.5379 21.8764C37.0979 21.9497 36.7276 21.9864 36.4269 21.9864C35.4296 21.9864 34.6486 21.726 34.0839 21.2054C33.5193 20.6847 33.2369 19.8854 33.2369 18.8074C33.2369 17.7074 33.5339 16.886 34.1279 16.3434C34.7219 15.7934 35.5579 15.5184 36.6359 15.5184C37.2006 15.5184 37.8789 15.6027 38.6709 15.7714C38.6709 15.918 38.6563 16.138 38.6269 16.4314C38.5976 16.7174 38.5683 16.919 38.5389 17.0364L38.1429 17.0254C37.6589 17.0107 37.2813 17.0034 37.0099 17.0034C36.1959 17.0034 35.7523 17.051 35.6789 17.1464C35.5616 17.2857 35.4773 17.502 35.4259 17.7954C35.3819 18.0887 35.3599 18.371 35.3599 18.6424C35.3599 19.1337 35.4149 19.515 35.5249 19.7864C35.6349 20.0577 35.8036 20.2484 36.0309 20.3584C36.2583 20.4684 36.5663 20.5234 36.9549 20.5234H36.9989V18.3894H38.9349ZM40.365 15.5954H44.93V16.9154H42.345V18.0594H44.523V19.2474H42.345V20.5234H44.919V21.8654H40.365V15.5954ZM52.0286 21.8654H49.9496L49.5756 20.2814C49.561 20.2227 49.5353 20.1237 49.4986 19.9844C49.4693 19.8377 49.4326 19.7314 49.3886 19.6654C49.3446 19.592 49.2823 19.5444 49.2016 19.5224C48.9963 19.5297 48.6956 19.5334 48.2996 19.5334V21.8654H46.3196V15.6504C47.207 15.5844 48.0356 15.5514 48.8056 15.5514C49.5023 15.5514 50.067 15.61 50.4996 15.7274C50.9323 15.8374 51.255 16.0317 51.4676 16.3104C51.6876 16.5817 51.7976 16.9557 51.7976 17.4324C51.7976 17.8797 51.695 18.2317 51.4896 18.4884C51.2843 18.7377 50.9543 18.888 50.4996 18.9394V19.0054C50.7563 19.0274 50.969 19.1117 51.1376 19.2584C51.3136 19.3977 51.431 19.5774 51.4896 19.7974L52.0286 21.8654ZM48.2996 18.2904C48.3656 18.2977 48.494 18.3014 48.6846 18.3014C49.2493 18.3014 49.5793 18.2537 49.6746 18.1584C49.7626 18.0704 49.8066 17.865 49.8066 17.5424C49.8066 17.2417 49.726 17.0364 49.5646 16.9264C49.4106 16.8164 49.154 16.7614 48.7946 16.7614C48.714 16.7614 48.549 16.7687 48.2996 16.7834V18.2904ZM55.0545 17.2894C55.0545 17.4434 55.1315 17.5644 55.2855 17.6524C55.4468 17.7404 55.6962 17.8357 56.0335 17.9384C56.4368 18.0704 56.7668 18.1987 57.0235 18.3234C57.2875 18.448 57.5148 18.6424 57.7055 18.9064C57.9035 19.1704 58.0025 19.515 58.0025 19.9404C58.0025 21.3044 57.1152 21.9864 55.3405 21.9864C55.0472 21.9864 54.6878 21.9607 54.2625 21.9094C53.8445 21.858 53.4632 21.792 53.1185 21.7114C53.1332 21.5574 53.1625 21.3337 53.2065 21.0404C53.2578 20.7397 53.3055 20.516 53.3495 20.3694C53.6062 20.406 53.9912 20.45 54.5045 20.5014C55.0252 20.5527 55.4175 20.5784 55.6815 20.5784C55.8355 20.5784 55.9272 20.5674 55.9565 20.5454C56.0005 20.516 56.0335 20.4684 56.0555 20.4024C56.0848 20.329 56.0995 20.2667 56.0995 20.2154C56.0995 20.0687 56.0298 19.9587 55.8905 19.8854C55.7512 19.8047 55.5128 19.7094 55.1755 19.5994C54.7722 19.4747 54.4385 19.3464 54.1745 19.2144C53.9105 19.0824 53.6795 18.877 53.4815 18.5984C53.2835 18.3197 53.1845 17.953 53.1845 17.4984C53.1845 17.1757 53.2578 16.8604 53.4045 16.5524C53.5512 16.237 53.7015 16.0244 53.8555 15.9144C53.9728 15.8337 54.2148 15.7567 54.5815 15.6834C54.9482 15.61 55.2928 15.5734 55.6155 15.5734C56.4368 15.5734 57.1078 15.6504 57.6285 15.8044C57.6212 15.951 57.5955 16.1527 57.5515 16.4094C57.5148 16.666 57.4745 16.9007 57.4305 17.1134L57.1775 17.1024C56.2242 17.0364 55.6155 17.0034 55.3515 17.0034C55.2415 17.0034 55.1792 17.007 55.1645 17.0144C55.1352 17.029 55.1095 17.062 55.0875 17.1134C55.0655 17.1647 55.0545 17.2234 55.0545 17.2894ZM69.7509 21.8654H67.9029L67.7599 18.4114C67.7379 17.7294 67.7123 17.2124 67.6829 16.8604H67.6499C67.5619 17.139 67.4593 17.5717 67.3419 18.1584L67.2869 18.4334L66.5279 21.8654H64.6799L64.0419 18.7744L63.9319 18.2244C63.7779 17.5424 63.6716 17.0877 63.6129 16.8604H63.5799C63.5506 17.227 63.5249 17.8247 63.5029 18.6534C63.4956 18.7047 63.4919 18.7854 63.4919 18.8954L63.3929 21.8654H61.5339L61.7979 15.5954H64.9439L65.4829 18.3014L65.6149 19.0274C65.6736 18.8 65.7286 18.547 65.7799 18.2684L66.2859 15.5954H69.4979L69.7509 21.8654ZM77.1236 21.8654H74.9566L73.7356 19.5224C73.7136 19.4857 73.6549 19.383 73.5596 19.2144C73.4716 19.0457 73.3726 18.8844 73.2626 18.7304V21.8654H71.2826V15.5954H73.2626V18.4444C73.3872 18.305 73.4936 18.1547 73.5816 17.9934C73.6769 17.8247 73.7319 17.7257 73.7466 17.6964L74.9236 15.5954H77.0136L75.7596 17.6964C75.7376 17.7257 75.6899 17.8027 75.6166 17.9274C75.5432 18.052 75.4626 18.1694 75.3746 18.2794C75.2939 18.382 75.2059 18.4774 75.1106 18.5654C75.2426 18.69 75.3489 18.8147 75.4296 18.9394C75.5176 19.0567 75.6166 19.2144 75.7266 19.4124L77.1236 21.8654ZM81.1185 15.5954V21.8654H79.1935V17.1794L77.8295 17.4654L77.6205 16.3104L79.5675 15.5954H81.1185Z" fill="white"/>
<rect x="10" y="40" width="70" height="20" rx="5" fill="#36617C"/>
<path d="M34.8711 80L36.668 74.668H35.2178L34.1191 78.6719H34.0557L32.9424 74.668H31.4238L33.2451 80H34.8711ZM40.3809 80.0977C41.9678 80.0977 42.8711 79.126 42.8711 77.6367V77.0361C42.8711 75.542 41.9629 74.5703 40.376 74.5703C38.7939 74.5703 37.8857 75.5371 37.8857 77.0361V77.6367C37.8857 79.126 38.7988 80.0977 40.3809 80.0977ZM40.3809 79.0771C39.6533 79.0771 39.2188 78.5352 39.2188 77.6416V77.0215C39.2188 76.1279 39.6533 75.5908 40.3809 75.5908C41.1035 75.5908 41.5381 76.1279 41.5381 77.0215V77.6416C41.5381 78.5352 41.1035 79.0771 40.3809 79.0771ZM48.3369 78.96H46.0469V74.668H44.7383V80H48.3369V78.96ZM51.9326 80V75.6885H53.4805V74.668H49.0762V75.6885H50.624V80H51.9326ZM54.7422 78.4473C54.7568 79.3457 55.4746 80.0977 57.0029 80.0977C58.5068 80.0977 59.3027 79.3848 59.3027 78.3838C59.3027 77.4463 58.6826 77.0361 57.7842 76.8604L56.998 76.709C56.4463 76.5967 56.1729 76.4355 56.1729 76.123C56.1729 75.7812 56.4805 75.5225 57.042 75.5225C57.6279 75.5225 57.9697 75.8154 57.999 76.1865H59.2051C59.1953 75.3369 58.4629 74.5654 57.0469 74.5654C55.7383 74.5654 54.8643 75.2197 54.8643 76.2207C54.8643 77.0898 55.4209 77.5439 56.417 77.7441L57.1641 77.8955C57.7305 78.0127 58.0088 78.1787 58.0088 78.5107C58.0088 78.8721 57.6963 79.1309 57.0566 79.1309C56.4219 79.1309 56.0215 78.833 55.9922 78.4473H54.7422Z" fill="white"/>
<path d="M34.6934 185.96H32.4033V181.668H31.0947V187H34.6934V185.96ZM37.3369 187L37.7227 185.75H39.5049L39.8809 187H41.2676L39.4414 181.668H37.8594L36.0283 187H37.3369ZM38.6504 182.801L39.2607 184.842H37.9668L38.5869 182.801H38.6504ZM44.7754 187V182.688H46.3232V181.668H41.9189V182.688H43.4668V187H44.7754ZM48.9326 184.041C48.9326 183.128 49.3232 182.605 50.0264 182.605C50.6465 182.605 51.0566 183.025 51.0566 183.631H52.3115V183.489C52.3115 182.322 51.335 181.57 50.0166 181.57C48.4785 181.57 47.5996 182.537 47.5996 184.041V184.642C47.5996 186.136 48.4785 187.098 50.0166 187.098C51.3203 187.098 52.3115 186.37 52.3115 185.223V185.076H51.0566C51.0566 185.652 50.6465 186.067 50.0215 186.067C49.3232 186.067 48.9326 185.545 48.9326 184.646V184.041ZM58.9053 187V181.668H57.5967V183.792H55.458V181.668H54.1494V187H55.458V184.808H57.5967V187H58.9053Z" fill="white"/>
<path d="M18.1562 267V263.65H18.2246L19.4502 266.219H20.2314L21.4521 263.65H21.5107V267H22.6924V261.668H21.3545L19.8701 264.764H19.8262L18.3418 261.668H16.999V267H18.1562ZM27.0596 267.098C28.6465 267.098 29.5498 266.126 29.5498 264.637V264.036C29.5498 262.542 28.6416 261.57 27.0547 261.57C25.4727 261.57 24.5645 262.537 24.5645 264.036V264.637C24.5645 266.126 25.4775 267.098 27.0596 267.098ZM27.0596 266.077C26.332 266.077 25.8975 265.535 25.8975 264.642V264.021C25.8975 263.128 26.332 262.591 27.0596 262.591C27.7822 262.591 28.2168 263.128 28.2168 264.021V264.642C28.2168 265.535 27.7822 266.077 27.0596 266.077ZM32.584 267V263.65H32.6523L33.8779 266.219H34.6592L35.8799 263.65H35.9385V267H37.1201V261.668H35.7822L34.2979 264.764H34.2539L32.7695 261.668H31.4268V267H32.584ZM42.9717 266.004H40.5156V264.778H42.8203V263.851H40.5156V262.664H42.9717V261.668H39.2217V267H42.9717V266.004ZM46.1279 267V263.753H46.1768L48.4912 267H49.5312V261.668H48.3057V264.886H48.2568L45.9521 261.668H44.9072V267H46.1279ZM54.0449 267V262.688H55.5928V261.668H51.1885V262.688H52.7363V267H54.0449ZM57.5479 267L57.9336 265.75H59.7158L60.0918 267H61.4785L59.6523 261.668H58.0703L56.2393 267H57.5479ZM58.8613 262.801L59.4717 264.842H58.1777L58.7979 262.801H58.8613ZM65.4111 261.668H63.0576V267H64.3418V265.081H65.167L66.1289 267H67.5791L66.4561 264.905C66.9443 264.725 67.4717 264.188 67.4717 263.406C67.4717 262.337 66.71 261.668 65.4111 261.668ZM64.3418 264.183V262.62H65.2207C65.748 262.62 66.1191 262.898 66.1191 263.416C66.1191 263.929 65.7578 264.183 65.2061 264.183H64.3418ZM70.4717 267H71.7754V265.086L73.665 261.668H72.2637L71.165 263.875H71.1162L70.0176 261.668H68.582L70.4717 265.115V267Z" fill="white"/>
<path d="M62.4336 140.098C64.0205 140.098 64.9238 139.126 64.9238 137.637V137.036C64.9238 135.542 64.0156 134.57 62.4287 134.57C60.8467 134.57 59.9385 135.537 59.9385 137.036V137.637C59.9385 139.126 60.8516 140.098 62.4336 140.098ZM62.4336 139.077C61.7061 139.077 61.2715 138.535 61.2715 137.642V137.021C61.2715 136.128 61.7061 135.591 62.4336 135.591C63.1562 135.591 63.5908 136.128 63.5908 137.021V137.642C63.5908 138.535 63.1562 139.077 62.4336 139.077ZM69.0713 139.048C68.4609 139.048 68.0361 138.687 68.0361 137.998V134.668H66.7227V138.145C66.7227 139.336 67.626 140.098 69.0713 140.098C70.5166 140.098 71.4199 139.331 71.4199 138.145V134.668H70.1113V137.998C70.1113 138.682 69.6816 139.048 69.0713 139.048ZM75.792 140V135.688H77.3398V134.668H72.9355V135.688H74.4834V140H75.792Z" fill="white"/>
<path d="M17.6211 139.004H15.165V137.778H17.4697V136.851H15.165V135.664H17.6211V134.668H13.8711V140H17.6211V139.004ZM24.083 134.668H22.623L21.5732 136.484H21.5146L20.4648 134.668H18.9316L20.626 137.314L18.9268 140H20.333L21.4268 138.228H21.4854L22.5791 140H24.0635L22.3203 137.334L24.083 134.668ZM28.0889 140V135.688H29.6367V134.668H25.2324V135.688H26.7803V140H28.0889Z" fill="white"/>
</svg>
