<svg width="90" height="380" viewBox="0 0 90 380" fill="none" xmlns="http://www.w3.org/2000/svg">
<rect width="90" height="380" fill="#457B9D"/>
<g opacity="0.5">
<path fill-rule="evenodd" clip-rule="evenodd" d="M38.958 375.599C38.803 375.747 38.659 375.851 38.526 375.909C38.393 375.968 38.251 375.998 38.1 375.998C37.948 375.998 37.806 375.97 37.673 375.914C37.54 375.858 37.424 375.781 37.325 375.682C37.109 375.466 37 375.209 37 374.912V369.385C37 369.082 37.078 368.847 37.232 368.68C37.498 368.408 37.75 368.272 37.988 368.272C38.226 368.272 38.404 368.296 38.522 368.346C38.639 368.395 38.738 368.457 38.818 368.531C38.924 368.624 39.002 368.723 39.055 368.828C39.108 368.933 39.151 369.011 39.185 369.06C39.219 369.11 39.275 369.134 39.352 369.134C39.429 369.134 39.496 369.11 39.551 369.06L39.709 368.902C40.16 368.482 40.612 368.272 41.063 368.272C41.861 368.272 42.519 368.599 43.039 369.255C43.088 369.323 43.15 369.357 43.224 369.357C43.354 369.357 43.486 369.256 43.619 369.055C43.752 368.854 43.966 368.674 44.263 368.513C44.56 368.352 44.906 368.272 45.302 368.272C45.698 368.272 46.058 368.344 46.383 368.49C46.707 368.635 46.99 368.834 47.231 369.088C47.738 369.62 47.992 370.263 47.992 371.017V374.912C47.992 375.382 47.769 375.713 47.324 375.905C47.188 375.967 47.044 375.998 46.893 375.998C46.741 375.998 46.599 375.97 46.466 375.914C46.333 375.858 46.217 375.781 46.118 375.682C45.908 375.46 45.803 375.203 45.803 374.912V371.045C45.803 370.736 45.726 370.504 45.571 370.349C45.299 370.077 45.049 369.941 44.82 369.941C44.591 369.941 44.412 369.971 44.282 370.029C44.152 370.088 44.034 370.17 43.929 370.275C43.713 370.492 43.605 370.742 43.605 371.026V374.912C43.605 375.382 43.385 375.713 42.946 375.905C42.81 375.967 42.666 375.998 42.515 375.998C42.363 375.998 42.22 375.97 42.083 375.914C41.947 375.858 41.83 375.781 41.731 375.682C41.515 375.466 41.406 375.209 41.406 374.912V371.045C41.406 370.736 41.329 370.504 41.174 370.349C40.902 370.077 40.618 369.941 40.321 369.941C39.826 369.941 39.483 370.133 39.292 370.516C39.23 370.64 39.199 370.779 39.199 370.934V374.912C39.199 375.215 39.118 375.444 38.958 375.599ZM50.219 369.387C50.219 369.084 50.296 368.849 50.451 368.682C50.716 368.41 51.01 368.274 51.332 368.274C51.641 368.274 51.87 368.355 52.018 368.515C52.29 368.794 52.426 369.084 52.426 369.387V374.915C52.426 375.212 52.349 375.437 52.194 375.592C51.922 375.864 51.672 376 51.443 376C51.214 376 51.032 375.971 50.896 375.912C50.76 375.853 50.642 375.777 50.543 375.685C50.327 375.474 50.219 375.218 50.219 374.915V369.387ZM51.327 365.9C51.065 365.9 50.852 365.687 50.852 365.425C50.852 365.162 51.065 364.95 51.327 364.95C51.589 364.95 51.802 365.162 51.802 365.425C51.802 365.687 51.589 365.9 51.327 365.9ZM51.327 364C51.714 364 52.048 364.142 52.329 364.425C52.611 364.709 52.752 364.996 52.752 365.287C52.752 365.577 52.713 365.807 52.635 365.978C52.558 366.148 52.456 366.297 52.329 366.424C52.048 366.708 51.714 366.849 51.327 366.849C50.94 366.849 50.606 366.708 50.324 366.424C50.043 366.141 49.902 365.857 49.902 365.574C49.902 365.092 50.043 364.709 50.324 364.425C50.606 364.142 50.94 364 51.327 364Z" fill="#1D3557"/>
</g>
<path d="M13.2954 22.8654H11.1354V17.5254H9.20342V16.0254H15.2274V17.5254H13.2954V22.8654ZM22.1464 22.8654H19.8784L19.4704 21.1374C19.4544 21.0734 19.4264 20.9654 19.3864 20.8134C19.3544 20.6534 19.3144 20.5374 19.2664 20.4654C19.2184 20.3854 19.1504 20.3334 19.0624 20.3094C18.8384 20.3174 18.5104 20.3214 18.0784 20.3214V22.8654H15.9184V16.0854C16.8864 16.0134 17.7904 15.9774 18.6304 15.9774C19.3904 15.9774 20.0064 16.0414 20.4784 16.1694C20.9504 16.2894 21.3024 16.5014 21.5344 16.8054C21.7744 17.1014 21.8944 17.5094 21.8944 18.0294C21.8944 18.5174 21.7824 18.9014 21.5584 19.1814C21.3344 19.4534 20.9744 19.6174 20.4784 19.6734V19.7454C20.7584 19.7694 20.9904 19.8614 21.1744 20.0214C21.3664 20.1734 21.4944 20.3694 21.5584 20.6094L22.1464 22.8654ZM18.0784 18.9654C18.1504 18.9734 18.2904 18.9774 18.4984 18.9774C19.1144 18.9774 19.4744 18.9254 19.5784 18.8214C19.6744 18.7254 19.7224 18.5014 19.7224 18.1494C19.7224 17.8214 19.6344 17.5974 19.4584 17.4774C19.2904 17.3574 19.0104 17.2974 18.6184 17.2974C18.5304 17.2974 18.3504 17.3054 18.0784 17.3214V18.9654ZM22.8913 16.0254H25.0513V22.8654H22.8913V16.0254ZM32.242 19.0734V22.4934C31.706 22.6694 31.198 22.7974 30.718 22.8774C30.238 22.9574 29.834 22.9974 29.506 22.9974C28.418 22.9974 27.566 22.7134 26.95 22.1454C26.334 21.5774 26.026 20.7054 26.026 19.5294C26.026 18.3294 26.35 17.4334 26.998 16.8414C27.646 16.2414 28.558 15.9414 29.734 15.9414C30.35 15.9414 31.09 16.0334 31.954 16.2174C31.954 16.3774 31.938 16.6174 31.906 16.9374C31.874 17.2494 31.842 17.4694 31.81 17.5974L31.378 17.5854C30.85 17.5694 30.438 17.5614 30.142 17.5614C29.254 17.5614 28.77 17.6134 28.69 17.7174C28.562 17.8694 28.47 18.1054 28.414 18.4254C28.366 18.7454 28.342 19.0534 28.342 19.3494C28.342 19.8854 28.402 20.3014 28.522 20.5974C28.642 20.8934 28.826 21.1014 29.074 21.2214C29.322 21.3414 29.658 21.4014 30.082 21.4014H30.13V19.0734H32.242ZM39.2381 19.0734V22.4934C38.7021 22.6694 38.1941 22.7974 37.7141 22.8774C37.2341 22.9574 36.8301 22.9974 36.5021 22.9974C35.4141 22.9974 34.5621 22.7134 33.9461 22.1454C33.3301 21.5774 33.0221 20.7054 33.0221 19.5294C33.0221 18.3294 33.3461 17.4334 33.9941 16.8414C34.6421 16.2414 35.5541 15.9414 36.7301 15.9414C37.3461 15.9414 38.0861 16.0334 38.9501 16.2174C38.9501 16.3774 38.9341 16.6174 38.9021 16.9374C38.8701 17.2494 38.8381 17.4694 38.8061 17.5974L38.3741 17.5854C37.8461 17.5694 37.4341 17.5614 37.1381 17.5614C36.2501 17.5614 35.7661 17.6134 35.6861 17.7174C35.5581 17.8694 35.4661 18.1054 35.4101 18.4254C35.3621 18.7454 35.3381 19.0534 35.3381 19.3494C35.3381 19.8854 35.3981 20.3014 35.5181 20.5974C35.6381 20.8934 35.8221 21.1014 36.0701 21.2214C36.3181 21.3414 36.6541 21.4014 37.0781 21.4014H37.1261V19.0734H39.2381ZM40.1982 16.0254H45.1782V17.4654H42.3582V18.7134H44.7342V20.0094H42.3582V21.4014H45.1662V22.8654H40.1982V16.0254ZM52.3221 22.8654H50.0541L49.6461 21.1374C49.6301 21.0734 49.6021 20.9654 49.5621 20.8134C49.5301 20.6534 49.4901 20.5374 49.4421 20.4654C49.3941 20.3854 49.3261 20.3334 49.2381 20.3094C49.0141 20.3174 48.6861 20.3214 48.2541 20.3214V22.8654H46.0941V16.0854C47.0621 16.0134 47.9661 15.9774 48.8061 15.9774C49.5661 15.9774 50.1821 16.0414 50.6541 16.1694C51.1261 16.2894 51.4781 16.5014 51.7101 16.8054C51.9501 17.1014 52.0701 17.5094 52.0701 18.0294C52.0701 18.5174 51.9581 18.9014 51.7341 19.1814C51.5101 19.4534 51.1501 19.6174 50.6541 19.6734V19.7454C50.9341 19.7694 51.1661 19.8614 51.3501 20.0214C51.5421 20.1734 51.6701 20.3694 51.7341 20.6094L52.3221 22.8654ZM48.2541 18.9654C48.3261 18.9734 48.4661 18.9774 48.6741 18.9774C49.2901 18.9774 49.6501 18.9254 49.7541 18.8214C49.8501 18.7254 49.8981 18.5014 49.8981 18.1494C49.8981 17.8214 49.8101 17.5974 49.6341 17.4774C49.4661 17.3574 49.1861 17.2974 48.7941 17.2974C48.7061 17.2974 48.5261 17.3054 48.2541 17.3214V18.9654ZM55.0231 17.8734C55.0231 18.0414 55.1071 18.1734 55.2751 18.2694C55.4511 18.3654 55.7231 18.4694 56.0911 18.5814C56.5311 18.7254 56.8911 18.8654 57.1711 19.0014C57.4591 19.1374 57.7071 19.3494 57.9151 19.6374C58.1311 19.9254 58.2391 20.3014 58.2391 20.7654C58.2391 22.2534 57.2711 22.9974 55.3351 22.9974C55.0151 22.9974 54.6231 22.9694 54.1591 22.9134C53.7031 22.8574 53.2871 22.7854 52.9111 22.6974C52.9271 22.5294 52.9591 22.2854 53.0071 21.9654C53.0631 21.6374 53.1151 21.3934 53.1631 21.2334C53.4431 21.2734 53.8631 21.3214 54.4231 21.3774C54.9911 21.4334 55.4191 21.4614 55.7071 21.4614C55.8751 21.4614 55.9751 21.4494 56.0071 21.4254C56.0551 21.3934 56.0911 21.3414 56.1151 21.2694C56.1471 21.1894 56.1631 21.1214 56.1631 21.0654C56.1631 20.9054 56.0871 20.7854 55.9351 20.7054C55.7831 20.6174 55.5231 20.5134 55.1551 20.3934C54.7151 20.2574 54.3511 20.1174 54.0631 19.9734C53.7751 19.8294 53.5231 19.6054 53.3071 19.3014C53.0911 18.9974 52.9831 18.5974 52.9831 18.1014C52.9831 17.7494 53.0631 17.4054 53.2231 17.0694C53.3831 16.7254 53.5471 16.4934 53.7151 16.3734C53.8431 16.2854 54.1071 16.2014 54.5071 16.1214C54.9071 16.0414 55.2831 16.0014 55.6351 16.0014C56.5311 16.0014 57.2631 16.0854 57.8311 16.2534C57.8231 16.4134 57.7951 16.6334 57.7471 16.9134C57.7071 17.1934 57.6631 17.4494 57.6151 17.6814L57.3391 17.6694C56.2991 17.5974 55.6351 17.5614 55.3471 17.5614C55.2271 17.5614 55.1591 17.5654 55.1431 17.5734C55.1111 17.5894 55.0831 17.6254 55.0591 17.6814C55.0351 17.7374 55.0231 17.8014 55.0231 17.8734ZM69.8555 22.8654H67.8395L67.6835 19.0974C67.6595 18.3534 67.6315 17.7894 67.5995 17.4054H67.5635C67.4675 17.7094 67.3555 18.1814 67.2275 18.8214L67.1675 19.1214L66.3395 22.8654H64.3235L63.6275 19.4934L63.5075 18.8934C63.3395 18.1494 63.2235 17.6534 63.1595 17.4054H63.1235C63.0915 17.8054 63.0635 18.4574 63.0395 19.3614C63.0315 19.4174 63.0275 19.5054 63.0275 19.6254L62.9195 22.8654H60.8915L61.1795 16.0254H64.6115L65.1995 18.9774L65.3435 19.7694C65.4075 19.5214 65.4675 19.2454 65.5235 18.9414L66.0755 16.0254H69.5795L69.8555 22.8654ZM77.2985 22.8654H74.9345L73.6025 20.3094C73.5785 20.2694 73.5145 20.1574 73.4105 19.9734C73.3145 19.7894 73.2065 19.6134 73.0865 19.4454V22.8654H70.9265V16.0254H73.0865V19.1334C73.2225 18.9814 73.3385 18.8174 73.4345 18.6414C73.5385 18.4574 73.5985 18.3494 73.6145 18.3174L74.8985 16.0254H77.1785L75.8105 18.3174C75.7865 18.3494 75.7345 18.4334 75.6545 18.5694C75.5745 18.7054 75.4865 18.8334 75.3905 18.9534C75.3025 19.0654 75.2065 19.1694 75.1025 19.2654C75.2465 19.4014 75.3625 19.5374 75.4505 19.6734C75.5465 19.8014 75.6545 19.9734 75.7745 20.1894L77.2985 22.8654ZM81.0565 16.0254V22.8654H78.9565V17.7534L77.4685 18.0654L77.2405 16.8054L79.3645 16.0254H81.0565Z" fill="#A8DADC"/>
<rect x="10" y="40" width="70" height="20" rx="5" fill="#36617C"/>
<path d="M36.4932 73.3056H38.6412L36.9612 78.8256H34.1172L32.4372 73.3056H34.5852L35.4852 77.5416H35.6052L36.4932 73.3056ZM41.6638 78.9816C40.7038 78.9816 39.9838 78.7576 39.5038 78.3096C39.0318 77.8536 38.7958 77.1376 38.7958 76.1616C38.7958 75.6256 38.8438 75.1576 38.9398 74.7576C39.0438 74.3496 39.1678 74.0656 39.3118 73.9056C39.4958 73.6976 39.8318 73.5256 40.3198 73.3896C40.8158 73.2536 41.2798 73.1856 41.7118 73.1856C42.7438 73.1856 43.4798 73.4056 43.9198 73.8456C44.3598 74.2856 44.5798 74.9896 44.5798 75.9576C44.5798 76.9976 44.3438 77.7616 43.8718 78.2496C43.3998 78.7376 42.6638 78.9816 41.6638 78.9816ZM41.6998 77.5776C42.0118 77.5776 42.2158 77.4696 42.3118 77.2536C42.4078 77.0296 42.4558 76.6376 42.4558 76.0776C42.4558 75.6856 42.4358 75.3856 42.3958 75.1776C42.3558 74.9616 42.2798 74.8056 42.1678 74.7096C42.0638 74.6056 41.8998 74.5536 41.6758 74.5536C41.3558 74.5536 41.1718 74.5816 41.1238 74.6376C41.0598 74.6936 41.0078 74.8696 40.9678 75.1656C40.9278 75.4616 40.9078 75.7696 40.9078 76.0896C40.9078 76.6336 40.9598 77.0176 41.0638 77.2416C41.1758 77.4656 41.3878 77.5776 41.6998 77.5776ZM45.3991 71.6256L47.4511 71.5416V78.8256H45.3991V71.6256ZM51.0126 76.5576C51.0126 76.7016 51.0166 76.8536 51.0246 77.0136C51.0326 77.1656 51.0566 77.2616 51.0966 77.3016C51.1526 77.3576 51.3486 77.3856 51.6846 77.3856L52.0926 77.3736C52.1646 77.7576 52.2006 78.2016 52.2006 78.7056C52.0486 78.7616 51.8246 78.8136 51.5286 78.8616C51.2406 78.9096 50.9646 78.9336 50.7006 78.9336C50.1486 78.9336 49.7206 78.8136 49.4166 78.5736C49.1206 78.3256 48.9726 77.9456 48.9726 77.4336V74.4816H48.0726V73.3896L48.9726 73.3056L49.5126 71.9856L51.0126 71.9016V73.3056H52.2846V74.4816H51.0126V76.5576ZM57.3623 76.9536C57.3623 77.6656 57.1343 78.1776 56.6783 78.4896C56.2303 78.8016 55.5903 78.9576 54.7583 78.9576C54.1743 78.9576 53.5023 78.8736 52.7423 78.7056C52.7583 78.5456 52.7943 78.3176 52.8503 78.0216C52.9143 77.7176 52.9663 77.4856 53.0063 77.3256C53.2943 77.3736 53.6143 77.4136 53.9663 77.4456C54.3183 77.4696 54.6183 77.4816 54.8663 77.4816C55.0823 77.4816 55.2143 77.4696 55.2623 77.4456C55.2703 77.4376 55.2783 77.4176 55.2863 77.3856C55.3023 77.3456 55.3103 77.3056 55.3103 77.2656C55.3103 77.1056 55.2103 76.9976 55.0103 76.9416C54.9463 76.9256 54.7023 76.8576 54.2783 76.7376C53.8543 76.6176 53.5063 76.4016 53.2343 76.0896C52.9703 75.7696 52.8383 75.3736 52.8383 74.9016C52.8383 74.6536 52.8943 74.3776 53.0063 74.0736C53.1183 73.7696 53.2383 73.5776 53.3663 73.4976C53.4623 73.4336 53.6943 73.3696 54.0623 73.3056C54.4303 73.2336 54.7703 73.1976 55.0823 73.1976C55.7463 73.1976 56.4143 73.2456 57.0863 73.3416C57.0863 73.4856 57.0663 73.7296 57.0263 74.0736C56.9863 74.4096 56.9503 74.6216 56.9183 74.7096C56.2383 74.6216 55.6903 74.5776 55.2743 74.5776C55.0583 74.5776 54.9183 74.5896 54.8543 74.6136C54.8383 74.6216 54.8223 74.6456 54.8063 74.6856C54.7903 74.7176 54.7823 74.7616 54.7823 74.8176C54.7823 74.9296 54.8183 75.0096 54.8903 75.0576C54.9623 75.1136 55.1503 75.1816 55.4543 75.2616C55.8143 75.3656 56.1223 75.4736 56.3783 75.5856C56.6423 75.6976 56.8703 75.8656 57.0623 76.0896C57.2623 76.3136 57.3623 76.6016 57.3623 76.9536Z" fill="#A8DADC"/>
<path d="M32.8952 247.626L34.9472 247.542V254.826H32.8952V247.626ZM39.2527 254.826L39.0607 254.07C38.6927 254.67 38.1807 254.97 37.5247 254.97C36.9887 254.97 36.5487 254.822 36.2047 254.526C35.8687 254.222 35.7007 253.798 35.7007 253.254C35.7007 252.918 35.7967 252.626 35.9887 252.378C36.1887 252.122 36.4607 251.942 36.8047 251.838C37.2527 251.71 37.9447 251.638 38.8807 251.622C38.8807 251.094 38.8567 250.814 38.8087 250.782C38.7687 250.75 38.6407 250.734 38.4247 250.734C38.2887 250.734 38.1007 250.742 37.8607 250.758C37.4767 250.774 36.9567 250.818 36.3007 250.89C36.2367 250.458 36.1887 249.994 36.1567 249.498C36.5807 249.41 37.0247 249.338 37.4887 249.282C37.9527 249.218 38.3687 249.186 38.7367 249.186C39.3767 249.186 39.8567 249.294 40.1767 249.51C40.4967 249.718 40.7047 249.994 40.8007 250.338C40.8967 250.682 40.9407 251.118 40.9327 251.646L40.9207 253.41L40.9567 254.826H39.2527ZM38.2207 253.626C38.4287 253.626 38.6487 253.586 38.8807 253.506V252.618H38.7847C38.1927 252.618 37.8647 252.65 37.8007 252.714C37.7607 252.754 37.7287 252.814 37.7047 252.894C37.6887 252.974 37.6807 253.05 37.6807 253.122C37.6807 253.314 37.7247 253.446 37.8127 253.518C37.9007 253.59 38.0367 253.626 38.2207 253.626ZM44.4032 252.558C44.4032 252.702 44.4072 252.854 44.4152 253.014C44.4232 253.166 44.4472 253.262 44.4872 253.302C44.5432 253.358 44.7392 253.386 45.0752 253.386L45.4832 253.374C45.5552 253.758 45.5912 254.202 45.5912 254.706C45.4392 254.762 45.2152 254.814 44.9192 254.862C44.6312 254.91 44.3552 254.934 44.0912 254.934C43.5392 254.934 43.1112 254.814 42.8072 254.574C42.5112 254.326 42.3632 253.946 42.3632 253.434V250.482H41.4632V249.39L42.3632 249.306L42.9032 247.986L44.4032 247.902V249.306H45.6752V250.482H44.4032V252.558ZM50.9329 254.658C50.2849 254.874 49.5609 254.982 48.7609 254.982C47.8649 254.982 47.1929 254.758 46.7449 254.31C46.3049 253.854 46.0849 253.146 46.0849 252.186C46.0849 251.714 46.1489 251.25 46.2769 250.794C46.4049 250.33 46.5409 250.018 46.6849 249.858C46.8529 249.674 47.1809 249.518 47.6689 249.39C48.1649 249.262 48.6769 249.198 49.2049 249.198C49.7569 249.198 50.3129 249.246 50.8729 249.342C50.8569 249.542 50.8289 249.778 50.7889 250.05C50.7569 250.314 50.7209 250.55 50.6809 250.758C50.1849 250.726 49.7169 250.71 49.2769 250.71C48.8449 250.71 48.5689 250.734 48.4489 250.782C48.3849 250.806 48.3249 250.97 48.2689 251.274C48.2209 251.578 48.1969 251.862 48.1969 252.126C48.1969 252.478 48.2449 252.75 48.3409 252.942C48.4449 253.126 48.6049 253.254 48.8209 253.326C49.0369 253.398 49.3289 253.434 49.6969 253.434C49.8569 253.434 50.2089 253.418 50.7529 253.386L50.9329 254.658ZM56.9609 249.654C57.0329 249.742 57.0849 249.962 57.1169 250.314C57.1569 250.666 57.1769 251.202 57.1769 251.922V254.826H55.1249V251.946C55.1249 251.914 55.1249 251.758 55.1249 251.478C55.1249 251.19 55.1049 251.014 55.0649 250.95C55.0409 250.918 54.9809 250.894 54.8849 250.878C54.7969 250.862 54.6929 250.854 54.5729 250.854L54.3689 250.866C54.1449 250.874 53.9129 250.926 53.6729 251.022V254.826H51.6209V247.626L53.6729 247.542V248.946C53.6729 249.522 53.6529 249.906 53.6129 250.098L53.6249 250.11C54.1689 249.494 54.8209 249.186 55.5809 249.186C55.8689 249.186 56.1369 249.226 56.3849 249.306C56.6409 249.386 56.8329 249.502 56.9609 249.654Z" fill="#A8DADC"/>
<path d="M24.4305 329.69C24.5585 329.882 24.6225 330.626 24.6225 331.922V334.826H22.5705V332.126V331.478C22.5705 331.182 22.5425 331.006 22.4865 330.95C22.4225 330.886 22.2865 330.854 22.0785 330.854L21.9345 330.866C21.6865 330.882 21.4505 330.938 21.2265 331.034C21.2345 331.202 21.2385 331.498 21.2385 331.922V334.826H19.1865V332.126V331.406C19.1865 331.158 19.1585 331.006 19.1025 330.95C19.0385 330.886 18.9025 330.854 18.6945 330.854L18.5505 330.866C18.3265 330.874 18.0945 330.926 17.8545 331.022V334.826H15.8025V329.306H17.4705L17.6865 330.206C17.9505 329.854 18.2545 329.598 18.5985 329.438C18.9425 329.27 19.2905 329.186 19.6425 329.186C19.9385 329.186 20.2185 329.23 20.4825 329.318C20.7545 329.406 20.9425 329.53 21.0465 329.69C21.0945 329.762 21.1345 329.894 21.1665 330.086C21.4225 329.774 21.7145 329.546 22.0425 329.402C22.3705 329.258 22.6985 329.186 23.0265 329.186C23.3225 329.186 23.6025 329.23 23.8665 329.318C24.1385 329.406 24.3265 329.53 24.4305 329.69ZM28.24 334.982C27.28 334.982 26.56 334.758 26.08 334.31C25.608 333.854 25.372 333.138 25.372 332.162C25.372 331.626 25.42 331.158 25.516 330.758C25.62 330.35 25.744 330.066 25.888 329.906C26.072 329.698 26.408 329.526 26.896 329.39C27.392 329.254 27.856 329.186 28.288 329.186C29.32 329.186 30.056 329.406 30.496 329.846C30.936 330.286 31.156 330.99 31.156 331.958C31.156 332.998 30.92 333.762 30.448 334.25C29.976 334.738 29.24 334.982 28.24 334.982ZM28.276 333.578C28.588 333.578 28.792 333.47 28.888 333.254C28.984 333.03 29.032 332.638 29.032 332.078C29.032 331.686 29.012 331.386 28.972 331.178C28.932 330.962 28.856 330.806 28.744 330.71C28.64 330.606 28.476 330.554 28.252 330.554C27.932 330.554 27.748 330.582 27.7 330.638C27.636 330.694 27.584 330.87 27.544 331.166C27.504 331.462 27.484 331.77 27.484 332.09C27.484 332.634 27.536 333.018 27.64 333.242C27.752 333.466 27.964 333.578 28.276 333.578ZM40.5673 329.69C40.6953 329.882 40.7593 330.626 40.7593 331.922V334.826H38.7073V332.126V331.478C38.7073 331.182 38.6793 331.006 38.6233 330.95C38.5593 330.886 38.4233 330.854 38.2153 330.854L38.0713 330.866C37.8233 330.882 37.5873 330.938 37.3633 331.034C37.3713 331.202 37.3753 331.498 37.3753 331.922V334.826H35.3233V332.126V331.406C35.3233 331.158 35.2953 331.006 35.2393 330.95C35.1753 330.886 35.0393 330.854 34.8313 330.854L34.6873 330.866C34.4633 330.874 34.2313 330.926 33.9913 331.022V334.826H31.9393V329.306H33.6073L33.8233 330.206C34.0873 329.854 34.3913 329.598 34.7353 329.438C35.0793 329.27 35.4273 329.186 35.7793 329.186C36.0753 329.186 36.3553 329.23 36.6193 329.318C36.8913 329.406 37.0793 329.53 37.1833 329.69C37.2313 329.762 37.2713 329.894 37.3033 330.086C37.5593 329.774 37.8513 329.546 38.1793 329.402C38.5073 329.258 38.8353 329.186 39.1633 329.186C39.4593 329.186 39.7393 329.23 40.0033 329.318C40.2753 329.406 40.4633 329.53 40.5673 329.69ZM45.0607 333.386C45.2607 333.386 45.6327 333.366 46.1767 333.326C46.2487 333.326 46.3807 333.318 46.5727 333.302L46.7527 334.538C46.1367 334.826 45.3367 334.97 44.3527 334.97C43.4327 334.97 42.7247 334.738 42.2287 334.274C41.7407 333.81 41.4967 333.11 41.4967 332.174C41.4967 331.694 41.5567 331.23 41.6767 330.782C41.8047 330.334 41.9487 330.022 42.1087 329.846C42.2767 329.67 42.5887 329.518 43.0447 329.39C43.5007 329.262 43.9527 329.198 44.4007 329.198C45.1207 329.198 45.6607 329.326 46.0207 329.582C46.3807 329.838 46.6167 330.194 46.7287 330.65C46.8407 331.098 46.8967 331.702 46.8967 332.462C46.3527 332.494 45.8207 332.51 45.3007 332.51H43.5967C43.5967 332.766 43.6487 332.958 43.7527 333.086C43.8647 333.214 44.0207 333.298 44.2207 333.338C44.4207 333.37 44.7007 333.386 45.0607 333.386ZM43.7167 330.626C43.6687 330.65 43.6327 330.754 43.6087 330.938C43.5847 331.122 43.5687 331.33 43.5607 331.562H44.1847C44.5607 331.562 44.8327 331.558 45.0007 331.55C45.0007 331.166 44.9447 330.894 44.8327 330.734C44.7287 330.574 44.5447 330.494 44.2807 330.494C44.0647 330.494 43.8767 330.538 43.7167 330.626ZM52.959 329.654C53.031 329.742 53.083 329.962 53.115 330.314C53.155 330.666 53.175 331.202 53.175 331.922V334.826H51.123V331.946V331.454C51.123 331.198 51.103 331.038 51.063 330.974C50.999 330.894 50.851 330.854 50.619 330.854C50.507 330.854 50.423 330.858 50.367 330.866C50.143 330.874 49.911 330.926 49.671 331.022V334.826H47.619V329.306H49.287L49.515 330.23C50.091 329.534 50.779 329.186 51.579 329.186C51.867 329.186 52.135 329.226 52.383 329.306C52.639 329.386 52.831 329.502 52.959 329.654ZM56.6669 332.558C56.6669 332.702 56.6709 332.854 56.6789 333.014C56.6869 333.166 56.7109 333.262 56.7509 333.302C56.8069 333.358 57.0029 333.386 57.3389 333.386L57.7469 333.374C57.8189 333.758 57.8549 334.202 57.8549 334.706C57.7029 334.762 57.4789 334.814 57.1829 334.862C56.8949 334.91 56.6189 334.934 56.3549 334.934C55.8029 334.934 55.3749 334.814 55.0709 334.574C54.7749 334.326 54.6269 333.946 54.6269 333.434V330.482H53.7269V329.39L54.6269 329.306L55.1669 327.986L56.6669 327.902V329.306H57.9389V330.482H56.6669V332.558ZM61.8405 334.826L61.6485 334.07C61.2805 334.67 60.7685 334.97 60.1125 334.97C59.5765 334.97 59.1365 334.822 58.7925 334.526C58.4565 334.222 58.2885 333.798 58.2885 333.254C58.2885 332.918 58.3845 332.626 58.5765 332.378C58.7765 332.122 59.0485 331.942 59.3925 331.838C59.8405 331.71 60.5325 331.638 61.4685 331.622C61.4685 331.094 61.4445 330.814 61.3965 330.782C61.3565 330.75 61.2285 330.734 61.0125 330.734C60.8765 330.734 60.6885 330.742 60.4485 330.758C60.0645 330.774 59.5445 330.818 58.8885 330.89C58.8245 330.458 58.7765 329.994 58.7445 329.498C59.1685 329.41 59.6125 329.338 60.0765 329.282C60.5405 329.218 60.9565 329.186 61.3245 329.186C61.9645 329.186 62.4445 329.294 62.7645 329.51C63.0845 329.718 63.2925 329.994 63.3885 330.338C63.4845 330.682 63.5285 331.118 63.5205 331.646L63.5085 333.41L63.5445 334.826H61.8405ZM60.8085 333.626C61.0165 333.626 61.2365 333.586 61.4685 333.506V332.618H61.3725C60.7805 332.618 60.4525 332.65 60.3885 332.714C60.3485 332.754 60.3165 332.814 60.2925 332.894C60.2765 332.974 60.2685 333.05 60.2685 333.122C60.2685 333.314 60.3125 333.446 60.4005 333.518C60.4885 333.59 60.6245 333.626 60.8085 333.626ZM67.8671 329.186C67.9711 329.186 68.0791 329.198 68.1911 329.222C68.3111 329.246 68.3991 329.274 68.4551 329.306C68.4551 329.482 68.4351 329.774 68.3951 330.182C68.3551 330.582 68.3191 330.866 68.2871 331.034C68.2071 331.026 68.0591 331.022 67.8431 331.022C67.3391 331.022 66.8911 331.05 66.4991 331.106V334.826H64.4471V329.306H66.1631L66.4031 330.194H66.4151C66.6471 329.89 66.8951 329.646 67.1591 329.462C67.4231 329.278 67.6591 329.186 67.8671 329.186ZM74.706 329.306L73.266 333.926C72.986 334.814 72.734 335.458 72.51 335.858C72.286 336.266 72.062 336.55 71.838 336.71C71.71 336.798 71.506 336.866 71.226 336.914C70.954 336.962 70.658 336.986 70.338 336.986C69.858 336.986 69.474 336.942 69.186 336.854C69.178 336.662 69.186 336.426 69.21 336.146C69.234 335.874 69.266 335.642 69.306 335.45C69.642 335.466 69.97 335.474 70.29 335.474C70.53 335.474 70.71 335.47 70.83 335.462C70.95 335.23 71.062 334.986 71.166 334.73L70.338 334.682L68.49 329.306H70.662L71.622 333.17L71.634 333.398H71.67L72.534 329.306H74.706Z" fill="#A8DADC"/>
<path d="M62.5076 140.982C61.5476 140.982 60.8276 140.758 60.3476 140.31C59.8756 139.854 59.6396 139.138 59.6396 138.162C59.6396 137.626 59.6876 137.158 59.7836 136.758C59.8876 136.35 60.0116 136.066 60.1556 135.906C60.3396 135.698 60.6756 135.526 61.1636 135.39C61.6596 135.254 62.1236 135.186 62.5556 135.186C63.5876 135.186 64.3236 135.406 64.7636 135.846C65.2036 136.286 65.4236 136.99 65.4236 137.958C65.4236 138.998 65.1876 139.762 64.7156 140.25C64.2436 140.738 63.5076 140.982 62.5076 140.982ZM62.5436 139.578C62.8556 139.578 63.0596 139.47 63.1556 139.254C63.2516 139.03 63.2996 138.638 63.2996 138.078C63.2996 137.686 63.2796 137.386 63.2396 137.178C63.1996 136.962 63.1236 136.806 63.0116 136.71C62.9076 136.606 62.7436 136.554 62.5196 136.554C62.1996 136.554 62.0156 136.582 61.9676 136.638C61.9036 136.694 61.8516 136.87 61.8116 137.166C61.7716 137.462 61.7516 137.77 61.7516 138.09C61.7516 138.634 61.8036 139.018 61.9076 139.242C62.0196 139.466 62.2316 139.578 62.5436 139.578ZM71.7268 135.306V140.826H70.0588L69.8308 139.902C69.2548 140.598 68.5668 140.946 67.7668 140.946C67.4788 140.946 67.2068 140.906 66.9508 140.826C66.7028 140.746 66.5148 140.63 66.3868 140.478C66.3148 140.39 66.2588 140.17 66.2188 139.818C66.1868 139.466 66.1708 138.93 66.1708 138.21V135.306H68.2228V138.186C68.2228 138.346 68.2268 138.534 68.2348 138.75C68.2428 138.966 68.2668 139.102 68.3068 139.158C68.3628 139.238 68.5228 139.278 68.7868 139.278L68.9788 139.266C69.2028 139.258 69.4348 139.206 69.6748 139.11V135.306H71.7268ZM75.2548 138.558C75.2548 138.702 75.2588 138.854 75.2668 139.014C75.2748 139.166 75.2988 139.262 75.3388 139.302C75.3948 139.358 75.5908 139.386 75.9268 139.386L76.3348 139.374C76.4068 139.758 76.4428 140.202 76.4428 140.706C76.2908 140.762 76.0668 140.814 75.7708 140.862C75.4828 140.91 75.2068 140.934 74.9428 140.934C74.3908 140.934 73.9628 140.814 73.6588 140.574C73.3628 140.326 73.2148 139.946 73.2148 139.434V136.482H72.3148V135.39L73.2148 135.306L73.7548 133.986L75.2548 133.902V135.306H76.5268V136.482H75.2548V138.558Z" fill="#A8DADC"/>
<path d="M17.0666 139.386C17.2666 139.386 17.6386 139.366 18.1826 139.326C18.2546 139.326 18.3866 139.318 18.5786 139.302L18.7586 140.538C18.1426 140.826 17.3426 140.97 16.3586 140.97C15.4386 140.97 14.7306 140.738 14.2346 140.274C13.7466 139.81 13.5026 139.11 13.5026 138.174C13.5026 137.694 13.5626 137.23 13.6826 136.782C13.8106 136.334 13.9546 136.022 14.1146 135.846C14.2826 135.67 14.5946 135.518 15.0506 135.39C15.5066 135.262 15.9586 135.198 16.4066 135.198C17.1266 135.198 17.6666 135.326 18.0266 135.582C18.3866 135.838 18.6226 136.194 18.7346 136.65C18.8466 137.098 18.9026 137.702 18.9026 138.462C18.3586 138.494 17.8266 138.51 17.3066 138.51H15.6026C15.6026 138.766 15.6546 138.958 15.7586 139.086C15.8706 139.214 16.0266 139.298 16.2266 139.338C16.4266 139.37 16.7066 139.386 17.0666 139.386ZM15.7226 136.626C15.6746 136.65 15.6386 136.754 15.6146 136.938C15.5906 137.122 15.5746 137.33 15.5666 137.562H16.1906C16.5666 137.562 16.8386 137.558 17.0066 137.55C17.0066 137.166 16.9506 136.894 16.8386 136.734C16.7346 136.574 16.5506 136.494 16.2866 136.494C16.0706 136.494 15.8826 136.538 15.7226 136.626ZM20.6328 138.006L19.2528 135.306H21.2448L22.2408 137.442L23.2488 135.306H25.2288L23.8608 138.006L25.3608 140.826H23.3568L22.2408 138.546L21.1248 140.826H19.1208L20.6328 138.006ZM28.3798 138.558C28.3798 138.702 28.3838 138.854 28.3918 139.014C28.3998 139.166 28.4238 139.262 28.4638 139.302C28.5198 139.358 28.7158 139.386 29.0518 139.386L29.4598 139.374C29.5318 139.758 29.5678 140.202 29.5678 140.706C29.4158 140.762 29.1918 140.814 28.8958 140.862C28.6078 140.91 28.3318 140.934 28.0678 140.934C27.5158 140.934 27.0878 140.814 26.7838 140.574C26.4878 140.326 26.3398 139.946 26.3398 139.434V136.482H25.4398V135.39L26.3398 135.306L26.8798 133.986L28.3798 133.902V135.306H29.6518V136.482H28.3798V138.558Z" fill="#A8DADC"/>
</svg>
