<svg width="90" height="380" viewBox="0 0 90 380" fill="none" xmlns="http://www.w3.org/2000/svg">
<rect width="90" height="380" fill="#457B9D"/>
<g opacity="0.3">
<path fill-rule="evenodd" clip-rule="evenodd" d="M38.958 375.599C38.803 375.747 38.659 375.851 38.526 375.909C38.393 375.968 38.251 375.998 38.1 375.998C37.948 375.998 37.806 375.97 37.673 375.914C37.54 375.858 37.424 375.781 37.325 375.682C37.109 375.466 37 375.209 37 374.912V369.385C37 369.082 37.078 368.847 37.232 368.68C37.498 368.408 37.75 368.272 37.988 368.272C38.226 368.272 38.404 368.296 38.522 368.346C38.639 368.395 38.738 368.457 38.818 368.531C38.924 368.624 39.002 368.723 39.055 368.828C39.108 368.933 39.151 369.011 39.185 369.06C39.219 369.11 39.275 369.134 39.352 369.134C39.429 369.134 39.496 369.11 39.551 369.06L39.709 368.902C40.16 368.482 40.612 368.272 41.063 368.272C41.861 368.272 42.519 368.599 43.039 369.255C43.088 369.323 43.15 369.357 43.224 369.357C43.354 369.357 43.486 369.256 43.619 369.055C43.752 368.854 43.966 368.674 44.263 368.513C44.56 368.352 44.906 368.272 45.302 368.272C45.698 368.272 46.058 368.344 46.383 368.49C46.707 368.635 46.99 368.834 47.231 369.088C47.738 369.62 47.992 370.263 47.992 371.017V374.912C47.992 375.382 47.769 375.713 47.324 375.905C47.188 375.967 47.044 375.998 46.893 375.998C46.741 375.998 46.599 375.97 46.466 375.914C46.333 375.858 46.217 375.781 46.118 375.682C45.908 375.46 45.803 375.203 45.803 374.912V371.045C45.803 370.736 45.726 370.504 45.571 370.349C45.299 370.077 45.049 369.941 44.82 369.941C44.591 369.941 44.412 369.971 44.282 370.029C44.152 370.088 44.034 370.17 43.929 370.275C43.713 370.492 43.605 370.742 43.605 371.026V374.912C43.605 375.382 43.385 375.713 42.946 375.905C42.81 375.967 42.666 375.998 42.515 375.998C42.363 375.998 42.22 375.97 42.083 375.914C41.947 375.858 41.83 375.781 41.731 375.682C41.515 375.466 41.406 375.209 41.406 374.912V371.045C41.406 370.736 41.329 370.504 41.174 370.349C40.902 370.077 40.618 369.941 40.321 369.941C39.826 369.941 39.483 370.133 39.292 370.516C39.23 370.64 39.199 370.779 39.199 370.934V374.912C39.199 375.215 39.118 375.444 38.958 375.599ZM50.219 369.387C50.219 369.084 50.296 368.849 50.451 368.682C50.716 368.41 51.01 368.274 51.332 368.274C51.641 368.274 51.87 368.355 52.018 368.515C52.29 368.794 52.426 369.084 52.426 369.387V374.915C52.426 375.212 52.349 375.437 52.194 375.592C51.922 375.864 51.672 376 51.443 376C51.214 376 51.032 375.971 50.896 375.912C50.76 375.853 50.642 375.777 50.543 375.685C50.327 375.474 50.219 375.218 50.219 374.915V369.387ZM51.327 365.9C51.065 365.9 50.852 365.687 50.852 365.425C50.852 365.162 51.065 364.95 51.327 364.95C51.589 364.95 51.802 365.162 51.802 365.425C51.802 365.687 51.589 365.9 51.327 365.9ZM51.327 364C51.714 364 52.048 364.142 52.329 364.425C52.611 364.709 52.752 364.996 52.752 365.287C52.752 365.577 52.713 365.807 52.635 365.978C52.558 366.148 52.456 366.297 52.329 366.424C52.048 366.708 51.714 366.849 51.327 366.849C50.94 366.849 50.606 366.708 50.324 366.424C50.043 366.141 49.902 365.857 49.902 365.574C49.902 365.092 50.043 364.709 50.324 364.425C50.606 364.142 50.94 364 51.327 364Z" fill="#1D3557"/>
</g>
<path d="M39.4025 15.5954H41.4925L39.7985 21.8654H36.9275L35.2225 15.5954H37.3235L38.3355 20.5014H38.3905L39.4025 15.5954ZM47.5129 21.6564C47.2416 21.7737 46.9262 21.858 46.5669 21.9094C46.2076 21.9607 45.8739 21.9864 45.5659 21.9864C44.5686 21.9864 43.7876 21.726 43.2229 21.2054C42.6582 20.6847 42.3759 19.8854 42.3759 18.8074C42.3759 17.7074 42.6729 16.886 43.2669 16.3434C43.8609 15.7934 44.6969 15.5184 45.7749 15.5184C46.2882 15.5184 46.8236 15.588 47.3809 15.7274C47.3809 15.874 47.3662 16.094 47.3369 16.3874C47.3076 16.6734 47.2782 16.875 47.2489 16.9924H46.5559C46.0499 16.9924 45.6502 17.0034 45.3569 17.0254C45.0709 17.04 44.8986 17.073 44.8399 17.1244C44.7299 17.227 44.6456 17.436 44.5869 17.7514C44.5282 18.0594 44.4989 18.3564 44.4989 18.6424C44.4989 19.141 44.5612 19.526 44.6859 19.7974C44.8106 20.0614 44.9682 20.2374 45.1589 20.3254C45.3422 20.4134 45.6466 20.4574 46.0719 20.4574C46.4092 20.4574 46.8492 20.428 47.3919 20.3694L47.5129 21.6564ZM52.4155 20.4904H50.5895L50.2595 21.8654H48.2355L50.2595 15.5954H52.8445L54.7805 21.8654H52.7455L52.4155 20.4904ZM51.4915 16.9484L50.8425 19.2694H52.1515L51.5355 16.9484H51.4915Z" fill="white"/>
<path d="M42.2939 256V250.668H40.9854V256H42.2939ZM45.6064 256V252.753H45.6553L47.9697 256H49.0098V250.668H47.7842V253.886H47.7354L45.4307 250.668H44.3857V256H45.6064Z" fill="white"/>
<path d="M35.5918 43.96H33.3018V39.668H31.9932V45H35.5918V43.96ZM40.999 44.0039H38.543V42.7783H40.8477V41.8506H38.543V40.6641H40.999V39.668H37.249V45H40.999V44.0039ZM45.835 45L47.6318 39.668H46.1816L45.083 43.6719H45.0195L43.9062 39.668H42.3877L44.209 45H45.835ZM52.9268 44.0039H50.4707V42.7783H52.7754V41.8506H50.4707V40.6641H52.9268V39.668H49.1768V45H52.9268V44.0039ZM58.4609 43.96H56.1709V39.668H54.8623V45H58.4609V43.96Z" fill="white"/>
<path d="M31.1807 172.96H28.8906V168.668H27.582V174H31.1807V172.96ZM34.1465 174V168.668H32.8379V174H34.1465ZM37.459 174V170.753H37.5078L39.8223 174H40.8623V168.668H39.6367V171.886H39.5879L37.2832 168.668H36.2383V174H37.459ZM43.418 174.728L45.3711 167.965H44.2285L42.2754 174.728H43.418ZM50.5293 173.004H48.0732V171.778H50.3779V170.851H48.0732V169.664H50.5293V168.668H46.7793V174H50.5293V173.004ZM56.9912 168.668H55.5312L54.4814 170.484H54.4229L53.373 168.668H51.8398L53.5342 171.314L51.835 174H53.2412L54.335 172.228H54.3936L55.4873 174H56.9717L55.2285 171.334L56.9912 168.668ZM62.8037 170.475C62.8037 169.483 62.1152 168.668 60.8457 168.668H58.4922V174H59.7959V172.33H60.8359C62.1055 172.33 62.8037 171.476 62.8037 170.475ZM61.4756 170.504C61.4756 171.041 61.1631 171.383 60.6211 171.383H59.791V169.63H60.5723C61.1436 169.63 61.4756 169.947 61.4756 170.504Z" fill="white"/>
<path d="M39.4336 314.098C41.0205 314.098 41.9238 313.126 41.9238 311.637V311.036C41.9238 309.542 41.0156 308.57 39.4287 308.57C37.8467 308.57 36.9385 309.537 36.9385 311.036V311.637C36.9385 313.126 37.8516 314.098 39.4336 314.098ZM39.4336 313.077C38.7061 313.077 38.2715 312.535 38.2715 311.642V311.021C38.2715 310.128 38.7061 309.591 39.4336 309.591C40.1562 309.591 40.5908 310.128 40.5908 311.021V311.642C40.5908 312.535 40.1562 313.077 39.4336 313.077ZM46.0713 313.048C45.4609 313.048 45.0361 312.687 45.0361 311.998V308.668H43.7227V312.145C43.7227 313.336 44.626 314.098 46.0713 314.098C47.5166 314.098 48.4199 313.331 48.4199 312.145V308.668H47.1113V311.998C47.1113 312.682 46.6816 313.048 46.0713 313.048ZM52.792 314V309.688H54.3398V308.668H49.9355V309.688H51.4834V314H52.792Z" fill="white"/>
<path d="M6 189C6 183.477 10.4772 179 16 179H26C31.5228 179 36 183.477 36 189V224C36 232.284 29.2843 239 21 239C12.7157 239 6 232.284 6 224V189Z" fill="#36617C"/>
<path d="M52 189C52 183.477 56.4772 179 62 179H72C77.5228 179 82 183.477 82 189V224C82 232.284 75.2843 239 67 239C58.7157 239 52 232.284 52 224V189Z" fill="#36617C"/>
</svg>
