<svg width="90" height="380" viewBox="0 0 90 380" fill="none" xmlns="http://www.w3.org/2000/svg">
<rect width="90" height="380" fill="#457B9D"/>
<g opacity="0.5">
<path fill-rule="evenodd" clip-rule="evenodd" d="M38.958 375.599C38.803 375.747 38.659 375.851 38.526 375.909C38.393 375.968 38.251 375.998 38.1 375.998C37.948 375.998 37.806 375.97 37.673 375.914C37.54 375.858 37.424 375.781 37.325 375.682C37.109 375.466 37 375.209 37 374.912V369.385C37 369.082 37.078 368.847 37.232 368.68C37.498 368.408 37.75 368.272 37.988 368.272C38.226 368.272 38.404 368.296 38.522 368.346C38.639 368.395 38.738 368.457 38.818 368.531C38.924 368.624 39.002 368.723 39.055 368.828C39.108 368.933 39.151 369.011 39.185 369.06C39.219 369.11 39.275 369.134 39.352 369.134C39.429 369.134 39.496 369.11 39.551 369.06L39.709 368.902C40.16 368.482 40.612 368.272 41.063 368.272C41.861 368.272 42.519 368.599 43.039 369.255C43.088 369.323 43.15 369.357 43.224 369.357C43.354 369.357 43.486 369.256 43.619 369.055C43.752 368.854 43.966 368.674 44.263 368.513C44.56 368.352 44.906 368.272 45.302 368.272C45.698 368.272 46.058 368.344 46.383 368.49C46.707 368.635 46.99 368.834 47.231 369.088C47.738 369.62 47.992 370.263 47.992 371.017V374.912C47.992 375.382 47.769 375.713 47.324 375.905C47.188 375.967 47.044 375.998 46.893 375.998C46.741 375.998 46.599 375.97 46.466 375.914C46.333 375.858 46.217 375.781 46.118 375.682C45.908 375.46 45.803 375.203 45.803 374.912V371.045C45.803 370.736 45.726 370.504 45.571 370.349C45.299 370.077 45.049 369.941 44.82 369.941C44.591 369.941 44.412 369.971 44.282 370.029C44.152 370.088 44.034 370.17 43.929 370.275C43.713 370.492 43.605 370.742 43.605 371.026V374.912C43.605 375.382 43.385 375.713 42.946 375.905C42.81 375.967 42.666 375.998 42.515 375.998C42.363 375.998 42.22 375.97 42.083 375.914C41.947 375.858 41.83 375.781 41.731 375.682C41.515 375.466 41.406 375.209 41.406 374.912V371.045C41.406 370.736 41.329 370.504 41.174 370.349C40.902 370.077 40.618 369.941 40.321 369.941C39.826 369.941 39.483 370.133 39.292 370.516C39.23 370.64 39.199 370.779 39.199 370.934V374.912C39.199 375.215 39.118 375.444 38.958 375.599ZM50.219 369.387C50.219 369.084 50.296 368.849 50.451 368.682C50.716 368.41 51.01 368.274 51.332 368.274C51.641 368.274 51.87 368.355 52.018 368.515C52.29 368.794 52.426 369.084 52.426 369.387V374.915C52.426 375.212 52.349 375.437 52.194 375.592C51.922 375.864 51.672 376 51.443 376C51.214 376 51.032 375.971 50.896 375.912C50.76 375.853 50.642 375.777 50.543 375.685C50.327 375.474 50.219 375.218 50.219 374.915V369.387ZM51.327 365.9C51.065 365.9 50.852 365.687 50.852 365.425C50.852 365.162 51.065 364.95 51.327 364.95C51.589 364.95 51.802 365.162 51.802 365.425C51.802 365.687 51.589 365.9 51.327 365.9ZM51.327 364C51.714 364 52.048 364.142 52.329 364.425C52.611 364.709 52.752 364.996 52.752 365.287C52.752 365.577 52.713 365.807 52.635 365.978C52.558 366.148 52.456 366.297 52.329 366.424C52.048 366.708 51.714 366.849 51.327 366.849C50.94 366.849 50.606 366.708 50.324 366.424C50.043 366.141 49.902 365.857 49.902 365.574C49.902 365.092 50.043 364.709 50.324 364.425C50.606 364.142 50.94 364 51.327 364Z" fill="#1D3557"/>
</g>
<path d="M39.9936 16.0254H42.2736L40.4256 22.8654H37.2936L35.4336 16.0254H37.7256L38.8296 21.3774H38.8896L39.9936 16.0254ZM48.2413 22.6374C47.9453 22.7654 47.6013 22.8574 47.2093 22.9134C46.8173 22.9694 46.4533 22.9974 46.1173 22.9974C45.0293 22.9974 44.1773 22.7134 43.5613 22.1454C42.9453 21.5774 42.6373 20.7054 42.6373 19.5294C42.6373 18.3294 42.9613 17.4334 43.6093 16.8414C44.2573 16.2414 45.1693 15.9414 46.3453 15.9414C46.9053 15.9414 47.4893 16.0174 48.0973 16.1694C48.0973 16.3294 48.0813 16.5694 48.0493 16.8894C48.0173 17.2014 47.9853 17.4214 47.9533 17.5494H47.1973C46.6453 17.5494 46.2093 17.5614 45.8893 17.5854C45.5773 17.6014 45.3893 17.6374 45.3253 17.6934C45.2053 17.8054 45.1133 18.0334 45.0493 18.3774C44.9853 18.7134 44.9533 19.0374 44.9533 19.3494C44.9533 19.8934 45.0213 20.3134 45.1573 20.6094C45.2933 20.8974 45.4653 21.0894 45.6733 21.1854C45.8733 21.2814 46.2053 21.3294 46.6693 21.3294C47.0373 21.3294 47.5173 21.2974 48.1093 21.2334L48.2413 22.6374ZM52.9897 21.3654H50.9977L50.6377 22.8654H48.4297L50.6377 16.0254H53.4577L55.5697 22.8654H53.3497L52.9897 21.3654ZM51.9817 17.5014L51.2737 20.0334H52.7017L52.0297 17.5014H51.9817Z" fill="#A8DADC"/>
<path d="M41.7553 250.796C41.4833 250.796 41.2473 250.704 41.0473 250.52C40.8553 250.336 40.7593 250.116 40.7593 249.86C40.7593 249.604 40.8553 249.384 41.0473 249.2C41.2473 249.016 41.4833 248.924 41.7553 248.924C42.0273 248.924 42.2593 249.016 42.4513 249.2C42.6433 249.384 42.7393 249.604 42.7393 249.86C42.7393 250.116 42.6433 250.336 42.4513 250.52C42.2593 250.704 42.0273 250.796 41.7553 250.796ZM40.7233 251.48H42.7753V257H40.7233V251.48ZM49.1328 251.828C49.2048 251.916 49.2568 252.136 49.2888 252.488C49.3288 252.84 49.3488 253.376 49.3488 254.096V257H47.2968V254.12V253.628C47.2968 253.372 47.2768 253.212 47.2368 253.148C47.1728 253.068 47.0248 253.028 46.7928 253.028C46.6808 253.028 46.5968 253.032 46.5408 253.04C46.3168 253.048 46.0848 253.1 45.8448 253.196V257H43.7928V251.48H45.4608L45.6888 252.404C46.2648 251.708 46.9528 251.36 47.7528 251.36C48.0408 251.36 48.3088 251.4 48.5568 251.48C48.8128 251.56 49.0048 251.676 49.1328 251.828Z" fill="#A8DADC"/>
<path d="M33.9284 40.3L35.9804 40.216V47.5H33.9284V40.3ZM40.3459 46.06C40.5459 46.06 40.9179 46.04 41.4619 46C41.5339 46 41.6659 45.992 41.8579 45.976L42.0379 47.212C41.4219 47.5 40.6219 47.644 39.6379 47.644C38.7179 47.644 38.0099 47.412 37.5139 46.948C37.0259 46.484 36.7819 45.784 36.7819 44.848C36.7819 44.368 36.8419 43.904 36.9619 43.456C37.0899 43.008 37.2339 42.696 37.3939 42.52C37.5619 42.344 37.8739 42.192 38.3299 42.064C38.7859 41.936 39.2379 41.872 39.6859 41.872C40.4059 41.872 40.9459 42 41.3059 42.256C41.6659 42.512 41.9019 42.868 42.0139 43.324C42.1259 43.772 42.1819 44.376 42.1819 45.136C41.6379 45.168 41.1059 45.184 40.5859 45.184H38.8819C38.8819 45.44 38.9339 45.632 39.0379 45.76C39.1499 45.888 39.3059 45.972 39.5059 46.012C39.7059 46.044 39.9859 46.06 40.3459 46.06ZM39.0019 43.3C38.9539 43.324 38.9179 43.428 38.8939 43.612C38.8699 43.796 38.8539 44.004 38.8459 44.236H39.4699C39.8459 44.236 40.1179 44.232 40.2859 44.224C40.2859 43.84 40.2299 43.568 40.1179 43.408C40.0139 43.248 39.8299 43.168 39.5659 43.168C39.3499 43.168 39.1619 43.212 39.0019 43.3ZM46.4561 41.98H48.6041L46.9241 47.5H44.0801L42.4001 41.98H44.5481L45.4481 46.216H45.5681L46.4561 41.98ZM52.4279 46.06C52.6279 46.06 52.9999 46.04 53.5439 46C53.6159 46 53.7479 45.992 53.9399 45.976L54.1199 47.212C53.5039 47.5 52.7039 47.644 51.7199 47.644C50.7999 47.644 50.0919 47.412 49.5959 46.948C49.1079 46.484 48.8639 45.784 48.8639 44.848C48.8639 44.368 48.9239 43.904 49.0439 43.456C49.1719 43.008 49.3159 42.696 49.4759 42.52C49.6439 42.344 49.9559 42.192 50.4119 42.064C50.8679 41.936 51.3199 41.872 51.7679 41.872C52.4879 41.872 53.0279 42 53.3879 42.256C53.7479 42.512 53.9839 42.868 54.0959 43.324C54.2079 43.772 54.2639 44.376 54.2639 45.136C53.7199 45.168 53.1879 45.184 52.6679 45.184H50.9639C50.9639 45.44 51.0159 45.632 51.1199 45.76C51.2319 45.888 51.3879 45.972 51.5879 46.012C51.7879 46.044 52.0679 46.06 52.4279 46.06ZM51.0839 43.3C51.0359 43.324 50.9999 43.428 50.9759 43.612C50.9519 43.796 50.9359 44.004 50.9279 44.236H51.5519C51.9279 44.236 52.1999 44.232 52.3679 44.224C52.3679 43.84 52.3119 43.568 52.1999 43.408C52.0959 43.248 51.9119 43.168 51.6479 43.168C51.4319 43.168 51.2439 43.212 51.0839 43.3ZM55.0221 40.3L57.0741 40.216V47.5H55.0221V40.3Z" fill="#A8DADC"/>
<path d="M26.4186 174.8L28.4706 174.716V182H26.4186V174.8ZM30.5561 175.796C30.2841 175.796 30.0481 175.704 29.8481 175.52C29.6561 175.336 29.5601 175.116 29.5601 174.86C29.5601 174.604 29.6561 174.384 29.8481 174.2C30.0481 174.016 30.2841 173.924 30.5561 173.924C30.8281 173.924 31.0601 174.016 31.2521 174.2C31.4441 174.384 31.5401 174.604 31.5401 174.86C31.5401 175.116 31.4441 175.336 31.2521 175.52C31.0601 175.704 30.8281 175.796 30.5561 175.796ZM29.5241 176.48H31.5761V182H29.5241V176.48ZM37.9336 176.828C38.0056 176.916 38.0576 177.136 38.0896 177.488C38.1296 177.84 38.1496 178.376 38.1496 179.096V182H36.0976V179.12V178.628C36.0976 178.372 36.0776 178.212 36.0376 178.148C35.9736 178.068 35.8256 178.028 35.5936 178.028C35.4816 178.028 35.3976 178.032 35.3416 178.04C35.1176 178.048 34.8856 178.1 34.6456 178.196V182H32.5936V176.48H34.2616L34.4896 177.404C35.0656 176.708 35.7536 176.36 36.5536 176.36C36.8416 176.36 37.1096 176.4 37.3576 176.48C37.6136 176.56 37.8056 176.676 37.9336 176.828ZM42.7935 173.984H44.3895L40.3215 183.872H38.7255L42.7935 173.984ZM48.3517 180.56C48.5517 180.56 48.9237 180.54 49.4677 180.5C49.5397 180.5 49.6717 180.492 49.8637 180.476L50.0437 181.712C49.4277 182 48.6277 182.144 47.6437 182.144C46.7237 182.144 46.0157 181.912 45.5197 181.448C45.0317 180.984 44.7877 180.284 44.7877 179.348C44.7877 178.868 44.8477 178.404 44.9677 177.956C45.0957 177.508 45.2397 177.196 45.3997 177.02C45.5677 176.844 45.8797 176.692 46.3357 176.564C46.7917 176.436 47.2437 176.372 47.6917 176.372C48.4117 176.372 48.9517 176.5 49.3117 176.756C49.6717 177.012 49.9077 177.368 50.0197 177.824C50.1317 178.272 50.1877 178.876 50.1877 179.636C49.6437 179.668 49.1117 179.684 48.5917 179.684H46.8877C46.8877 179.94 46.9397 180.132 47.0437 180.26C47.1557 180.388 47.3117 180.472 47.5117 180.512C47.7117 180.544 47.9917 180.56 48.3517 180.56ZM47.0077 177.8C46.9597 177.824 46.9237 177.928 46.8997 178.112C46.8757 178.296 46.8597 178.504 46.8517 178.736H47.4757C47.8517 178.736 48.1237 178.732 48.2917 178.724C48.2917 178.34 48.2357 178.068 48.1237 177.908C48.0197 177.748 47.8357 177.668 47.5717 177.668C47.3557 177.668 47.1677 177.712 47.0077 177.8ZM51.918 179.18L50.538 176.48H52.53L53.526 178.616L54.534 176.48H56.514L55.146 179.18L56.646 182H54.642L53.526 179.72L52.41 182H50.406L51.918 179.18ZM60.9129 176.36C61.4889 176.36 61.9449 176.552 62.2809 176.936C62.6249 177.312 62.7969 177.972 62.7969 178.916C62.7969 179.62 62.7289 180.196 62.5929 180.644C62.4569 181.084 62.3009 181.376 62.1249 181.52C61.9489 181.664 61.6409 181.78 61.2009 181.868C60.7689 181.956 60.3209 182 59.8569 182C59.7209 182 59.4929 181.992 59.1729 181.976V183.68L57.1209 183.764V176.48H58.8009L59.0049 177.332C59.2129 177.036 59.4769 176.8 59.7969 176.624C60.1249 176.448 60.4969 176.36 60.9129 176.36ZM60.4329 180.536C60.5209 180.472 60.5849 180.292 60.6249 179.996C60.6649 179.692 60.6849 179.404 60.6849 179.132C60.6849 178.684 60.6289 178.352 60.5169 178.136C60.4049 177.92 60.1809 177.812 59.8449 177.812C59.6049 177.812 59.3809 177.836 59.1729 177.884V180.548L59.5089 180.584C59.6129 180.592 59.7609 180.596 59.9529 180.596C60.2249 180.596 60.3849 180.576 60.4329 180.536Z" fill="#A8DADC"/>
<path d="M39.5076 307.156C38.5476 307.156 37.8276 306.932 37.3476 306.484C36.8756 306.028 36.6396 305.312 36.6396 304.336C36.6396 303.8 36.6876 303.332 36.7836 302.932C36.8876 302.524 37.0116 302.24 37.1556 302.08C37.3396 301.872 37.6756 301.7 38.1636 301.564C38.6596 301.428 39.1236 301.36 39.5556 301.36C40.5876 301.36 41.3236 301.58 41.7636 302.02C42.2036 302.46 42.4236 303.164 42.4236 304.132C42.4236 305.172 42.1876 305.936 41.7156 306.424C41.2436 306.912 40.5076 307.156 39.5076 307.156ZM39.5436 305.752C39.8556 305.752 40.0596 305.644 40.1556 305.428C40.2516 305.204 40.2996 304.812 40.2996 304.252C40.2996 303.86 40.2796 303.56 40.2396 303.352C40.1996 303.136 40.1236 302.98 40.0116 302.884C39.9076 302.78 39.7436 302.728 39.5196 302.728C39.1996 302.728 39.0156 302.756 38.9676 302.812C38.9036 302.868 38.8516 303.044 38.8116 303.34C38.7716 303.636 38.7516 303.944 38.7516 304.264C38.7516 304.808 38.8036 305.192 38.9076 305.416C39.0196 305.64 39.2316 305.752 39.5436 305.752ZM48.7268 301.48V307H47.0588L46.8308 306.076C46.2548 306.772 45.5668 307.12 44.7668 307.12C44.4788 307.12 44.2068 307.08 43.9508 307C43.7028 306.92 43.5148 306.804 43.3868 306.652C43.3148 306.564 43.2588 306.344 43.2188 305.992C43.1868 305.64 43.1708 305.104 43.1708 304.384V301.48H45.2228V304.36C45.2228 304.52 45.2268 304.708 45.2348 304.924C45.2428 305.14 45.2668 305.276 45.3068 305.332C45.3628 305.412 45.5228 305.452 45.7868 305.452L45.9788 305.44C46.2028 305.432 46.4348 305.38 46.6748 305.284V301.48H48.7268ZM52.2548 304.732C52.2548 304.876 52.2588 305.028 52.2668 305.188C52.2748 305.34 52.2988 305.436 52.3388 305.476C52.3948 305.532 52.5908 305.56 52.9268 305.56L53.3348 305.548C53.4068 305.932 53.4428 306.376 53.4428 306.88C53.2908 306.936 53.0668 306.988 52.7708 307.036C52.4828 307.084 52.2068 307.108 51.9428 307.108C51.3908 307.108 50.9628 306.988 50.6588 306.748C50.3628 306.5 50.2148 306.12 50.2148 305.608V302.656H49.3148V301.564L50.2148 301.48L50.7548 300.16L52.2548 300.076V301.48H53.5268V302.656H52.2548V304.732Z" fill="#A8DADC"/>
<path d="M6 196C6 190.477 10.4772 186 16 186H26C31.5228 186 36 190.477 36 196V231C36 239.284 29.2843 246 21 246C12.7157 246 6 239.284 6 231V196Z" fill="#36617C"/>
<path d="M52 196C52 190.477 56.4772 186 62 186H72C77.5228 186 82 190.477 82 196V231C82 239.284 75.2843 246 67 246C58.7157 246 52 239.284 52 231V196Z" fill="#36617C"/>
</svg>
