<svg width="91" height="380" viewBox="0 0 91 380" fill="none" xmlns="http://www.w3.org/2000/svg">
<rect x="0.25" width="90" height="380" fill="#457B9D"/>
<g opacity="0.5">
<path fill-rule="evenodd" clip-rule="evenodd" d="M39.208 375.599C39.053 375.747 38.909 375.851 38.776 375.909C38.643 375.968 38.501 375.998 38.35 375.998C38.198 375.998 38.056 375.97 37.923 375.914C37.79 375.858 37.674 375.781 37.575 375.682C37.359 375.466 37.25 375.209 37.25 374.912V369.385C37.25 369.082 37.328 368.847 37.482 368.68C37.748 368.408 38 368.272 38.238 368.272C38.476 368.272 38.654 368.296 38.772 368.346C38.889 368.395 38.988 368.457 39.068 368.531C39.174 368.624 39.252 368.723 39.305 368.828C39.358 368.933 39.401 369.011 39.435 369.06C39.469 369.11 39.525 369.134 39.602 369.134C39.679 369.134 39.746 369.11 39.801 369.06L39.959 368.902C40.41 368.482 40.862 368.272 41.313 368.272C42.111 368.272 42.769 368.599 43.289 369.255C43.338 369.323 43.4 369.357 43.474 369.357C43.604 369.357 43.736 369.256 43.869 369.055C44.002 368.854 44.216 368.674 44.513 368.513C44.81 368.352 45.156 368.272 45.552 368.272C45.948 368.272 46.308 368.344 46.633 368.49C46.957 368.635 47.24 368.834 47.481 369.088C47.988 369.62 48.242 370.263 48.242 371.017V374.912C48.242 375.382 48.019 375.713 47.574 375.905C47.438 375.967 47.294 375.998 47.143 375.998C46.991 375.998 46.849 375.97 46.716 375.914C46.583 375.858 46.467 375.781 46.368 375.682C46.158 375.46 46.053 375.203 46.053 374.912V371.045C46.053 370.736 45.976 370.504 45.821 370.349C45.549 370.077 45.299 369.941 45.07 369.941C44.841 369.941 44.662 369.971 44.532 370.029C44.402 370.088 44.284 370.17 44.179 370.275C43.963 370.492 43.855 370.742 43.855 371.026V374.912C43.855 375.382 43.635 375.713 43.196 375.905C43.06 375.967 42.916 375.998 42.765 375.998C42.613 375.998 42.47 375.97 42.333 375.914C42.197 375.858 42.08 375.781 41.981 375.682C41.765 375.466 41.656 375.209 41.656 374.912V371.045C41.656 370.736 41.579 370.504 41.424 370.349C41.152 370.077 40.868 369.941 40.571 369.941C40.076 369.941 39.733 370.133 39.542 370.516C39.48 370.64 39.449 370.779 39.449 370.934V374.912C39.449 375.215 39.368 375.444 39.208 375.599ZM50.469 369.387C50.469 369.084 50.546 368.849 50.701 368.682C50.966 368.41 51.26 368.274 51.582 368.274C51.891 368.274 52.12 368.355 52.268 368.515C52.54 368.794 52.676 369.084 52.676 369.387V374.915C52.676 375.212 52.599 375.437 52.444 375.592C52.172 375.864 51.922 376 51.693 376C51.464 376 51.282 375.971 51.146 375.912C51.01 375.853 50.892 375.777 50.793 375.685C50.577 375.474 50.469 375.218 50.469 374.915V369.387ZM51.577 365.9C51.315 365.9 51.102 365.687 51.102 365.425C51.102 365.162 51.315 364.95 51.577 364.95C51.839 364.95 52.052 365.162 52.052 365.425C52.052 365.687 51.839 365.9 51.577 365.9ZM51.577 364C51.964 364 52.298 364.142 52.579 364.425C52.861 364.709 53.002 364.996 53.002 365.287C53.002 365.577 52.963 365.807 52.885 365.978C52.808 366.148 52.706 366.297 52.579 366.424C52.298 366.708 51.964 366.849 51.577 366.849C51.19 366.849 50.856 366.708 50.574 366.424C50.293 366.141 50.152 365.857 50.152 365.574C50.152 365.092 50.293 364.709 50.574 364.425C50.856 364.142 51.19 364 51.577 364Z" fill="#1D3557"/>
</g>
<path d="M6.35856 22.8654H3.65856L1.89456 16.0254H4.19856L5.11056 21.0534H5.17056L6.14256 16.0254H8.39856L9.39456 21.0534H9.43056L10.3546 16.0254H12.5626L10.7986 22.8654H8.11056L7.29456 18.4974H7.22256L6.35856 22.8654ZM16.9623 21.3654H14.9703L14.6103 22.8654H12.4023L14.6103 16.0254H17.4303L19.5423 22.8654H17.3223L16.9623 21.3654ZM15.9543 17.5014L15.2463 20.0334H16.6743L16.0023 17.5014H15.9543ZM23.8061 16.0254H26.0861L24.2381 22.8654H21.1061L19.2461 16.0254H21.5381L22.6421 21.3774H22.7021L23.8061 16.0254ZM26.6298 16.0254H31.6098V17.4654H28.7898V18.7134H31.1658V20.0094H28.7898V21.4014H31.5978V22.8654H26.6298V16.0254ZM34.4938 17.8734C34.4938 18.0414 34.5778 18.1734 34.7458 18.2694C34.9218 18.3654 35.1938 18.4694 35.5618 18.5814C36.0018 18.7254 36.3618 18.8654 36.6418 19.0014C36.9298 19.1374 37.1778 19.3494 37.3858 19.6374C37.6018 19.9254 37.7098 20.3014 37.7098 20.7654C37.7098 22.2534 36.7418 22.9974 34.8058 22.9974C34.4858 22.9974 34.0938 22.9694 33.6298 22.9134C33.1738 22.8574 32.7578 22.7854 32.3818 22.6974C32.3978 22.5294 32.4298 22.2854 32.4778 21.9654C32.5338 21.6374 32.5858 21.3934 32.6338 21.2334C32.9138 21.2734 33.3338 21.3214 33.8938 21.3774C34.4618 21.4334 34.8898 21.4614 35.1778 21.4614C35.3458 21.4614 35.4458 21.4494 35.4778 21.4254C35.5258 21.3934 35.5618 21.3414 35.5858 21.2694C35.6178 21.1894 35.6338 21.1214 35.6338 21.0654C35.6338 20.9054 35.5578 20.7854 35.4058 20.7054C35.2538 20.6174 34.9938 20.5134 34.6258 20.3934C34.1858 20.2574 33.8218 20.1174 33.5338 19.9734C33.2458 19.8294 32.9938 19.6054 32.7778 19.3014C32.5618 18.9974 32.4538 18.5974 32.4538 18.1014C32.4538 17.7494 32.5338 17.4054 32.6938 17.0694C32.8538 16.7254 33.0178 16.4934 33.1858 16.3734C33.3138 16.2854 33.5778 16.2014 33.9778 16.1214C34.3778 16.0414 34.7538 16.0014 35.1058 16.0014C36.0018 16.0014 36.7338 16.0854 37.3018 16.2534C37.2938 16.4134 37.2658 16.6334 37.2178 16.9134C37.1778 17.1934 37.1338 17.4494 37.0858 17.6814L36.8098 17.6694C35.7698 17.5974 35.1058 17.5614 34.8178 17.5614C34.6978 17.5614 34.6298 17.5654 34.6138 17.5734C34.5818 17.5894 34.5538 17.6254 34.5298 17.6814C34.5058 17.7374 34.4938 17.8014 34.4938 17.8734ZM38.7136 16.0254H40.8856V18.5334H42.7456V16.0254H44.9176V22.8654H42.7456V19.9134H40.8856V22.8654H38.7136V16.0254ZM50.0913 21.3654H48.0993L47.7393 22.8654H45.5312L47.7393 16.0254H50.5593L52.6713 22.8654H50.4513L50.0913 21.3654ZM49.0833 17.5014L48.3753 20.0334H49.8033L49.1313 17.5014H49.0833ZM56.028 15.9894C56.676 15.9894 57.224 16.0494 57.672 16.1694C58.12 16.2894 58.476 16.5214 58.74 16.8654C59.012 17.2014 59.148 17.6854 59.148 18.3174C59.148 18.5974 59.104 18.8854 59.016 19.1814C58.936 19.4694 58.832 19.7214 58.704 19.9374C58.584 20.1534 58.476 20.2934 58.38 20.3574C58.268 20.4374 58.02 20.5014 57.636 20.5494C57.252 20.5894 56.8 20.6094 56.28 20.6094C56.096 20.6094 55.812 20.6014 55.428 20.5854V22.8654H53.268V16.0254C54.108 16.0014 55.028 15.9894 56.028 15.9894ZM56.928 19.0734C57.008 18.9694 57.048 18.7614 57.048 18.4494C57.048 18.0414 56.96 17.7534 56.784 17.5854C56.616 17.4174 56.32 17.3334 55.896 17.3334C55.752 17.3334 55.596 17.3454 55.428 17.3694V19.1934C55.508 19.2014 55.664 19.2054 55.896 19.2054C56.512 19.2054 56.856 19.1614 56.928 19.0734ZM59.8525 16.0254H64.8325V17.4654H62.0125V18.7134H64.3885V20.0094H62.0125V21.4014H64.8205V22.8654H59.8525V16.0254ZM71.9764 22.8654H69.7084L69.3004 21.1374C69.2844 21.0734 69.2564 20.9654 69.2164 20.8134C69.1844 20.6534 69.1444 20.5374 69.0964 20.4654C69.0484 20.3854 68.9804 20.3334 68.8924 20.3094C68.6684 20.3174 68.3404 20.3214 67.9084 20.3214V22.8654H65.7484V16.0854C66.7164 16.0134 67.6204 15.9774 68.4604 15.9774C69.2204 15.9774 69.8364 16.0414 70.3084 16.1694C70.7804 16.2894 71.1324 16.5014 71.3644 16.8054C71.6044 17.1014 71.7244 17.5094 71.7244 18.0294C71.7244 18.5174 71.6124 18.9014 71.3884 19.1814C71.1644 19.4534 70.8044 19.6174 70.3084 19.6734V19.7454C70.5884 19.7694 70.8204 19.8614 71.0044 20.0214C71.1964 20.1734 71.3244 20.3694 71.3884 20.6094L71.9764 22.8654ZM67.9084 18.9654C67.9804 18.9734 68.1204 18.9774 68.3284 18.9774C68.9444 18.9774 69.3044 18.9254 69.4084 18.8214C69.5044 18.7254 69.5524 18.5014 69.5524 18.1494C69.5524 17.8214 69.4644 17.5974 69.2884 17.4774C69.1204 17.3574 68.8404 17.2974 68.4484 17.2974C68.3604 17.2974 68.1804 17.3054 67.9084 17.3214V18.9654ZM72.5174 18.9174H76.1174V20.6334H72.5174V18.9174ZM79.0953 17.8734C79.0953 18.0414 79.1793 18.1734 79.3473 18.2694C79.5233 18.3654 79.7953 18.4694 80.1633 18.5814C80.6033 18.7254 80.9633 18.8654 81.2433 19.0014C81.5313 19.1374 81.7793 19.3494 81.9873 19.6374C82.2033 19.9254 82.3113 20.3014 82.3113 20.7654C82.3113 22.2534 81.3433 22.9974 79.4073 22.9974C79.0873 22.9974 78.6953 22.9694 78.2313 22.9134C77.7753 22.8574 77.3593 22.7854 76.9833 22.6974C76.9993 22.5294 77.0313 22.2854 77.0793 21.9654C77.1353 21.6374 77.1873 21.3934 77.2353 21.2334C77.5153 21.2734 77.9353 21.3214 78.4953 21.3774C79.0633 21.4334 79.4913 21.4614 79.7793 21.4614C79.9473 21.4614 80.0473 21.4494 80.0793 21.4254C80.1273 21.3934 80.1633 21.3414 80.1873 21.2694C80.2193 21.1894 80.2353 21.1214 80.2353 21.0654C80.2353 20.9054 80.1593 20.7854 80.0073 20.7054C79.8553 20.6174 79.5953 20.5134 79.2273 20.3934C78.7873 20.2574 78.4233 20.1174 78.1353 19.9734C77.8473 19.8294 77.5953 19.6054 77.3793 19.3014C77.1633 18.9974 77.0553 18.5974 77.0553 18.1014C77.0553 17.7494 77.1353 17.4054 77.2953 17.0694C77.4553 16.7254 77.6193 16.4934 77.7873 16.3734C77.9153 16.2854 78.1793 16.2014 78.5793 16.1214C78.9793 16.0414 79.3553 16.0014 79.7073 16.0014C80.6033 16.0014 81.3353 16.0854 81.9033 16.2534C81.8953 16.4134 81.8673 16.6334 81.8193 16.9134C81.7793 17.1934 81.7353 17.4494 81.6873 17.6814L81.4113 17.6694C80.3713 17.5974 79.7073 17.5614 79.4193 17.5614C79.2993 17.5614 79.2313 17.5654 79.2153 17.5734C79.1833 17.5894 79.1553 17.6254 79.1313 17.6814C79.1073 17.7374 79.0953 17.8014 79.0953 17.8734ZM86.7505 22.8654H84.5905V17.5254H82.6585V16.0254H88.6825V17.5254H86.7505V22.8654Z" fill="#A8DADC"/>
<path d="M12.5526 193.825C12.6566 193.825 12.7646 193.837 12.8766 193.861C12.9966 193.885 13.0846 193.913 13.1406 193.945C13.1406 194.121 13.1206 194.413 13.0806 194.821C13.0406 195.221 13.0046 195.505 12.9726 195.673C12.8926 195.665 12.7446 195.661 12.5286 195.661C12.0246 195.661 11.5766 195.689 11.1846 195.745V199.465H9.13263V193.945H10.8486L11.0886 194.833H11.1006C11.3326 194.529 11.5806 194.285 11.8446 194.101C12.1086 193.917 12.3446 193.825 12.5526 193.825ZM16.6042 199.465L16.4122 198.709C16.0442 199.309 15.5322 199.609 14.8762 199.609C14.3402 199.609 13.9002 199.461 13.5562 199.165C13.2202 198.861 13.0522 198.437 13.0522 197.893C13.0522 197.557 13.1482 197.265 13.3402 197.017C13.5402 196.761 13.8122 196.581 14.1562 196.477C14.6042 196.349 15.2962 196.277 16.2322 196.261C16.2322 195.733 16.2082 195.453 16.1602 195.421C16.1202 195.389 15.9922 195.373 15.7762 195.373C15.6402 195.373 15.4522 195.381 15.2122 195.397C14.8282 195.413 14.3082 195.457 13.6522 195.529C13.5882 195.097 13.5402 194.633 13.5082 194.137C13.9322 194.049 14.3762 193.977 14.8402 193.921C15.3042 193.857 15.7202 193.825 16.0882 193.825C16.7282 193.825 17.2082 193.933 17.5282 194.149C17.8482 194.357 18.0562 194.633 18.1522 194.977C18.2482 195.321 18.2922 195.757 18.2842 196.285L18.2722 198.049L18.3082 199.465H16.6042ZM15.5722 198.265C15.7802 198.265 16.0002 198.225 16.2322 198.145V197.257H16.1362C15.5442 197.257 15.2162 197.289 15.1522 197.353C15.1122 197.393 15.0802 197.453 15.0562 197.533C15.0402 197.613 15.0322 197.689 15.0322 197.761C15.0322 197.953 15.0762 198.085 15.1642 198.157C15.2522 198.229 15.3882 198.265 15.5722 198.265ZM24.5508 194.293C24.6228 194.381 24.6748 194.601 24.7068 194.953C24.7468 195.305 24.7668 195.841 24.7668 196.561V199.465H22.7148V196.585V196.093C22.7148 195.837 22.6948 195.677 22.6548 195.613C22.5908 195.533 22.4428 195.493 22.2108 195.493C22.0988 195.493 22.0148 195.497 21.9588 195.505C21.7348 195.513 21.5028 195.565 21.2628 195.661V199.465H19.2108V193.945H20.8788L21.1068 194.869C21.6828 194.173 22.3708 193.825 23.1708 193.825C23.4588 193.825 23.7268 193.865 23.9748 193.945C24.2308 194.025 24.4228 194.141 24.5508 194.293ZM28.5947 193.849C28.9707 193.849 29.3627 193.877 29.7707 193.933C30.1787 193.981 30.6547 194.049 31.1987 194.137V198.913C31.1987 200.057 30.8187 200.945 30.0587 201.577C29.9627 201.657 29.7467 201.725 29.4107 201.781C29.0747 201.837 28.6947 201.865 28.2707 201.865C27.3507 201.865 26.6227 201.745 26.0867 201.505C26.0787 201.329 26.0907 201.097 26.1227 200.809C26.1627 200.521 26.2027 200.293 26.2427 200.125C26.8187 200.213 27.3827 200.257 27.9347 200.257C28.2147 200.257 28.4507 200.241 28.6427 200.209C28.8427 200.185 28.9667 200.145 29.0147 200.089C29.0787 200.025 29.1267 199.785 29.1587 199.369C29.1667 199.257 29.1707 199.093 29.1707 198.877V198.577C28.9707 198.873 28.7147 199.085 28.4027 199.213C28.0907 199.341 27.8107 199.405 27.5627 199.405C26.8907 199.405 26.3827 199.185 26.0387 198.745C25.6947 198.305 25.5227 197.661 25.5227 196.813C25.5227 196.253 25.5987 195.729 25.7507 195.241C25.9107 194.745 26.1267 194.401 26.3987 194.209C26.5747 194.089 26.8587 194.001 27.2507 193.945C27.6507 193.881 28.0987 193.849 28.5947 193.849ZM28.3427 197.905C28.6387 197.905 28.9067 197.857 29.1467 197.761V195.253C29.0587 195.237 28.9267 195.221 28.7507 195.205C28.6707 195.197 28.5507 195.193 28.3907 195.193C28.1427 195.193 27.9867 195.217 27.9227 195.265C27.8347 195.329 27.7627 195.509 27.7067 195.805C27.6587 196.093 27.6347 196.397 27.6347 196.717C27.6347 197.157 27.6827 197.465 27.7787 197.641C27.8827 197.817 28.0707 197.905 28.3427 197.905ZM35.5197 198.025C35.7197 198.025 36.0917 198.005 36.6357 197.965C36.7077 197.965 36.8397 197.957 37.0317 197.941L37.2117 199.177C36.5957 199.465 35.7957 199.609 34.8117 199.609C33.8917 199.609 33.1837 199.377 32.6877 198.913C32.1997 198.449 31.9557 197.749 31.9557 196.813C31.9557 196.333 32.0157 195.869 32.1357 195.421C32.2637 194.973 32.4077 194.661 32.5677 194.485C32.7357 194.309 33.0477 194.157 33.5037 194.029C33.9597 193.901 34.4117 193.837 34.8597 193.837C35.5797 193.837 36.1197 193.965 36.4797 194.221C36.8397 194.477 37.0757 194.833 37.1877 195.289C37.2997 195.737 37.3557 196.341 37.3557 197.101C36.8117 197.133 36.2797 197.149 35.7597 197.149H34.0557C34.0557 197.405 34.1077 197.597 34.2117 197.725C34.3237 197.853 34.4797 197.937 34.6797 197.977C34.8797 198.009 35.1597 198.025 35.5197 198.025ZM34.1757 195.265C34.1277 195.289 34.0917 195.393 34.0677 195.577C34.0437 195.761 34.0277 195.969 34.0197 196.201H34.6437C35.0197 196.201 35.2917 196.197 35.4597 196.189C35.4597 195.805 35.4037 195.533 35.2917 195.373C35.1877 195.213 35.0037 195.133 34.7397 195.133C34.5237 195.133 34.3357 195.177 34.1757 195.265Z" fill="#A8DADC"/>
<path d="M71.5546 192.625V199.465H69.4546V194.353L67.9666 194.665L67.7386 193.405L69.8626 192.625H71.5546ZM75.7386 192.541C76.4026 192.541 76.9546 192.629 77.3946 192.805C77.8346 192.973 78.1826 193.317 78.4386 193.837C78.6946 194.349 78.8226 195.097 78.8226 196.081C78.8226 197.025 78.6986 197.757 78.4506 198.277C78.2026 198.789 77.8546 199.141 77.4066 199.333C76.9666 199.525 76.4146 199.621 75.7506 199.621C74.7906 199.621 74.0546 199.369 73.5426 198.865C73.0306 198.353 72.7746 197.477 72.7746 196.237C72.7746 194.989 73.0226 194.061 73.5186 193.453C74.0146 192.845 74.7546 192.541 75.7386 192.541ZM75.8106 198.073C76.2106 198.073 76.4706 197.917 76.5906 197.605C76.7106 197.285 76.7706 196.785 76.7706 196.105C76.7706 195.409 76.6986 194.897 76.5546 194.569C76.4106 194.233 76.1386 194.065 75.7386 194.065C75.4586 194.065 75.2706 194.113 75.1746 194.209C75.1026 194.289 75.0386 194.529 74.9826 194.929C74.9346 195.329 74.9106 195.737 74.9106 196.153C74.9106 196.857 74.9786 197.353 75.1146 197.641C75.2586 197.929 75.4906 198.073 75.8106 198.073ZM83.2549 193.945H85.4029L83.7229 199.465H80.8789L79.1989 193.945H81.3469L82.2469 198.181H82.3669L83.2549 193.945Z" fill="#A8DADC"/>
<path d="M54.0084 195.193C54.8244 195.193 55.4244 195.401 55.8084 195.817C56.1924 196.225 56.3844 196.753 56.3844 197.401C56.3844 198.873 55.3644 199.609 53.3244 199.609C52.6684 199.609 51.9204 199.545 51.0804 199.417L51.3444 198.097C52.0084 198.169 52.5044 198.205 52.8324 198.205C53.3204 198.205 53.6924 198.137 53.9484 198.001C54.2044 197.865 54.3324 197.633 54.3324 197.305C54.3324 197.193 54.3124 197.077 54.2724 196.957C54.2404 196.829 54.1884 196.749 54.1164 196.717C54.0844 196.701 53.9964 196.685 53.8524 196.669C53.7164 196.653 53.5524 196.645 53.3604 196.645C52.7684 196.645 52.1884 196.693 51.6204 196.789L51.5604 196.729L52.0524 192.625H56.1084V194.221L53.5404 194.209L53.4084 195.229C53.6244 195.205 53.8244 195.193 54.0084 195.193ZM60.7315 193.945H62.8795L61.1995 199.465H58.3555L56.6755 193.945H58.8235L59.7235 198.181H59.8435L60.7315 193.945Z" fill="#A8DADC"/>
<path d="M7.25 217C7.25 209.268 13.518 203 21.25 203H76.25C79.5637 203 82.25 205.686 82.25 209V225C82.25 228.314 79.5637 231 76.25 231H21.25C13.518 231 7.25 224.732 7.25 217Z" fill="#36617C"/>
<path d="M31.7957 242.093C32.4197 242.093 32.8997 242.281 33.2357 242.657C33.5797 243.033 33.7517 243.697 33.7517 244.649C33.7517 245.345 33.6797 245.941 33.5357 246.437C33.3997 246.925 33.2437 247.237 33.0677 247.373C32.8597 247.541 32.5517 247.665 32.1437 247.745C31.7357 247.825 31.2717 247.865 30.7517 247.865C30.3517 247.865 29.9037 247.833 29.4077 247.769C28.9117 247.713 28.4677 247.621 28.0757 247.493V240.533L30.1517 240.449V241.577C30.1517 241.641 30.1477 241.789 30.1397 242.021C30.1397 242.253 30.1317 242.449 30.1157 242.609C30.0997 242.761 30.0757 242.877 30.0437 242.957L30.1157 243.041C30.2997 242.761 30.5317 242.533 30.8117 242.357C31.0917 242.181 31.4197 242.093 31.7957 242.093ZM31.4597 246.425C31.5077 246.345 31.5477 246.157 31.5797 245.861C31.6197 245.565 31.6397 245.281 31.6397 245.009C31.6397 244.689 31.6237 244.437 31.5917 244.253C31.5677 244.069 31.4997 243.925 31.3877 243.821C31.2837 243.709 31.1197 243.653 30.8957 243.653C30.6957 243.653 30.4397 243.681 30.1277 243.737V246.449C30.4237 246.497 30.7317 246.521 31.0517 246.521C31.2837 246.521 31.4197 246.489 31.4597 246.425ZM40.2567 242.213L38.8167 246.833C38.5367 247.721 38.2847 248.365 38.0607 248.765C37.8367 249.173 37.6127 249.457 37.3887 249.617C37.2607 249.705 37.0567 249.773 36.7767 249.821C36.5047 249.869 36.2087 249.893 35.8887 249.893C35.4087 249.893 35.0247 249.849 34.7367 249.761C34.7287 249.569 34.7367 249.333 34.7607 249.053C34.7847 248.781 34.8167 248.549 34.8567 248.357C35.1927 248.373 35.5207 248.381 35.8407 248.381C36.0807 248.381 36.2607 248.377 36.3807 248.369C36.5007 248.137 36.6127 247.893 36.7167 247.637L35.8887 247.589L34.0407 242.213H36.2127L37.1727 246.077L37.1847 246.305H37.2207L38.0847 242.213H40.2567ZM44.5242 242.093C45.1002 242.093 45.5562 242.285 45.8922 242.669C46.2362 243.045 46.4082 243.705 46.4082 244.649C46.4082 245.353 46.3402 245.929 46.2042 246.377C46.0682 246.817 45.9122 247.109 45.7362 247.253C45.5602 247.397 45.2522 247.513 44.8122 247.601C44.3802 247.689 43.9322 247.733 43.4682 247.733C43.3322 247.733 43.1042 247.725 42.7842 247.709V249.413L40.7322 249.497V242.213H42.4122L42.6162 243.065C42.8242 242.769 43.0882 242.533 43.4082 242.357C43.7362 242.181 44.1082 242.093 44.5242 242.093ZM44.0442 246.269C44.1322 246.205 44.1962 246.025 44.2362 245.729C44.2762 245.425 44.2962 245.137 44.2962 244.865C44.2962 244.417 44.2402 244.085 44.1282 243.869C44.0162 243.653 43.7922 243.545 43.4562 243.545C43.2162 243.545 42.9922 243.569 42.7842 243.617V246.281L43.1202 246.317C43.2242 246.325 43.3722 246.329 43.5642 246.329C43.8362 246.329 43.9962 246.309 44.0442 246.269ZM50.5007 247.733L50.3087 246.977C49.9407 247.577 49.4287 247.877 48.7727 247.877C48.2367 247.877 47.7967 247.729 47.4527 247.433C47.1167 247.129 46.9487 246.705 46.9487 246.161C46.9487 245.825 47.0447 245.533 47.2367 245.285C47.4367 245.029 47.7087 244.849 48.0527 244.745C48.5007 244.617 49.1927 244.545 50.1287 244.529C50.1287 244.001 50.1047 243.721 50.0567 243.689C50.0167 243.657 49.8887 243.641 49.6727 243.641C49.5367 243.641 49.3487 243.649 49.1087 243.665C48.7247 243.681 48.2047 243.725 47.5487 243.797C47.4847 243.365 47.4367 242.901 47.4047 242.405C47.8287 242.317 48.2727 242.245 48.7367 242.189C49.2007 242.125 49.6167 242.093 49.9847 242.093C50.6247 242.093 51.1047 242.201 51.4247 242.417C51.7447 242.625 51.9527 242.901 52.0487 243.245C52.1447 243.589 52.1887 244.025 52.1807 244.553L52.1687 246.317L52.2047 247.733H50.5007ZM49.4687 246.533C49.6767 246.533 49.8967 246.493 50.1287 246.413V245.525H50.0327C49.4407 245.525 49.1127 245.557 49.0487 245.621C49.0087 245.661 48.9767 245.721 48.9527 245.801C48.9367 245.881 48.9287 245.957 48.9287 246.029C48.9287 246.221 48.9727 246.353 49.0607 246.425C49.1487 246.497 49.2847 246.533 49.4687 246.533ZM57.5712 245.861C57.5712 246.573 57.3432 247.085 56.8872 247.397C56.4392 247.709 55.7992 247.865 54.9672 247.865C54.3832 247.865 53.7112 247.781 52.9512 247.613C52.9672 247.453 53.0032 247.225 53.0592 246.929C53.1232 246.625 53.1752 246.393 53.2152 246.233C53.5032 246.281 53.8232 246.321 54.1752 246.353C54.5272 246.377 54.8272 246.389 55.0752 246.389C55.2912 246.389 55.4232 246.377 55.4712 246.353C55.4792 246.345 55.4872 246.325 55.4952 246.293C55.5112 246.253 55.5192 246.213 55.5192 246.173C55.5192 246.013 55.4192 245.905 55.2192 245.849C55.1552 245.833 54.9112 245.765 54.4872 245.645C54.0632 245.525 53.7152 245.309 53.4432 244.997C53.1792 244.677 53.0472 244.281 53.0472 243.809C53.0472 243.561 53.1032 243.285 53.2152 242.981C53.3272 242.677 53.4472 242.485 53.5752 242.405C53.6712 242.341 53.9032 242.277 54.2712 242.213C54.6392 242.141 54.9792 242.105 55.2912 242.105C55.9552 242.105 56.6232 242.153 57.2952 242.249C57.2952 242.393 57.2752 242.637 57.2352 242.981C57.1952 243.317 57.1592 243.529 57.1272 243.617C56.4472 243.529 55.8992 243.485 55.4832 243.485C55.2672 243.485 55.1272 243.497 55.0632 243.521C55.0472 243.529 55.0312 243.553 55.0152 243.593C54.9992 243.625 54.9912 243.669 54.9912 243.725C54.9912 243.837 55.0272 243.917 55.0992 243.965C55.1712 244.021 55.3592 244.089 55.6632 244.169C56.0232 244.273 56.3312 244.381 56.5872 244.493C56.8512 244.605 57.0792 244.773 57.2712 244.997C57.4712 245.221 57.5712 245.509 57.5712 245.861ZM62.7158 245.861C62.7158 246.573 62.4878 247.085 62.0318 247.397C61.5838 247.709 60.9438 247.865 60.1118 247.865C59.5278 247.865 58.8558 247.781 58.0958 247.613C58.1118 247.453 58.1478 247.225 58.2038 246.929C58.2678 246.625 58.3198 246.393 58.3598 246.233C58.6478 246.281 58.9678 246.321 59.3198 246.353C59.6718 246.377 59.9718 246.389 60.2198 246.389C60.4358 246.389 60.5678 246.377 60.6158 246.353C60.6238 246.345 60.6318 246.325 60.6398 246.293C60.6558 246.253 60.6638 246.213 60.6638 246.173C60.6638 246.013 60.5638 245.905 60.3638 245.849C60.2998 245.833 60.0558 245.765 59.6318 245.645C59.2078 245.525 58.8598 245.309 58.5878 244.997C58.3238 244.677 58.1918 244.281 58.1918 243.809C58.1918 243.561 58.2478 243.285 58.3598 242.981C58.4718 242.677 58.5918 242.485 58.7198 242.405C58.8158 242.341 59.0478 242.277 59.4158 242.213C59.7838 242.141 60.1238 242.105 60.4358 242.105C61.0998 242.105 61.7678 242.153 62.4398 242.249C62.4398 242.393 62.4198 242.637 62.3798 242.981C62.3398 243.317 62.3038 243.529 62.2718 243.617C61.5918 243.529 61.0438 243.485 60.6278 243.485C60.4118 243.485 60.2718 243.497 60.2078 243.521C60.1918 243.529 60.1758 243.553 60.1598 243.593C60.1438 243.625 60.1358 243.669 60.1358 243.725C60.1358 243.837 60.1718 243.917 60.2438 243.965C60.3158 244.021 60.5038 244.089 60.8078 244.169C61.1678 244.273 61.4758 244.381 61.7318 244.493C61.9958 244.605 62.2238 244.773 62.4158 244.997C62.6158 245.221 62.7158 245.509 62.7158 245.861Z" fill="#A8DADC"/>
<rect x="8.25" y="252" width="74" height="28" rx="14" fill="#36617C"/>
<path d="M60.7576 297.156C59.7976 297.156 59.0776 296.932 58.5976 296.484C58.1256 296.028 57.8896 295.312 57.8896 294.336C57.8896 293.8 57.9376 293.332 58.0336 292.932C58.1376 292.524 58.2616 292.24 58.4056 292.08C58.5896 291.872 58.9256 291.7 59.4136 291.564C59.9096 291.428 60.3736 291.36 60.8056 291.36C61.8376 291.36 62.5736 291.58 63.0136 292.02C63.4536 292.46 63.6736 293.164 63.6736 294.132C63.6736 295.172 63.4376 295.936 62.9656 296.424C62.4936 296.912 61.7576 297.156 60.7576 297.156ZM60.7936 295.752C61.1056 295.752 61.3096 295.644 61.4056 295.428C61.5016 295.204 61.5496 294.812 61.5496 294.252C61.5496 293.86 61.5296 293.56 61.4896 293.352C61.4496 293.136 61.3736 292.98 61.2616 292.884C61.1576 292.78 60.9936 292.728 60.7696 292.728C60.4496 292.728 60.2656 292.756 60.2176 292.812C60.1536 292.868 60.1016 293.044 60.0616 293.34C60.0216 293.636 60.0016 293.944 60.0016 294.264C60.0016 294.808 60.0536 295.192 60.1576 295.416C60.2696 295.64 60.4816 295.752 60.7936 295.752ZM69.9768 291.48V297H68.3088L68.0808 296.076C67.5048 296.772 66.8168 297.12 66.0168 297.12C65.7288 297.12 65.4568 297.08 65.2008 297C64.9528 296.92 64.7648 296.804 64.6368 296.652C64.5648 296.564 64.5088 296.344 64.4688 295.992C64.4368 295.64 64.4208 295.104 64.4208 294.384V291.48H66.4728V294.36C66.4728 294.52 66.4768 294.708 66.4848 294.924C66.4928 295.14 66.5168 295.276 66.5568 295.332C66.6128 295.412 66.7728 295.452 67.0368 295.452L67.2288 295.44C67.4528 295.432 67.6848 295.38 67.9248 295.284V291.48H69.9768ZM73.5048 294.732C73.5048 294.876 73.5088 295.028 73.5168 295.188C73.5248 295.34 73.5488 295.436 73.5888 295.476C73.6448 295.532 73.8408 295.56 74.1768 295.56L74.5848 295.548C74.6568 295.932 74.6928 296.376 74.6928 296.88C74.5408 296.936 74.3168 296.988 74.0208 297.036C73.7328 297.084 73.4568 297.108 73.1928 297.108C72.6408 297.108 72.2128 296.988 71.9088 296.748C71.6128 296.5 71.4648 296.12 71.4648 295.608V292.656H70.5648V291.564L71.4648 291.48L72.0048 290.16L73.5048 290.076V291.48H74.7768V292.656H73.5048V294.732Z" fill="#A8DADC"/>
<path d="M21.0053 290.796C20.7333 290.796 20.4973 290.704 20.2973 290.52C20.1053 290.336 20.0093 290.116 20.0093 289.86C20.0093 289.604 20.1053 289.384 20.2973 289.2C20.4973 289.016 20.7333 288.924 21.0053 288.924C21.2773 288.924 21.5093 289.016 21.7013 289.2C21.8933 289.384 21.9893 289.604 21.9893 289.86C21.9893 290.116 21.8933 290.336 21.7013 290.52C21.5093 290.704 21.2773 290.796 21.0053 290.796ZM19.9733 291.48H22.0253V297H19.9733V291.48ZM28.3828 291.828C28.4548 291.916 28.5068 292.136 28.5388 292.488C28.5788 292.84 28.5988 293.376 28.5988 294.096V297H26.5468V294.12V293.628C26.5468 293.372 26.5268 293.212 26.4868 293.148C26.4228 293.068 26.2748 293.028 26.0428 293.028C25.9308 293.028 25.8468 293.032 25.7908 293.04C25.5668 293.048 25.3348 293.1 25.0948 293.196V297H23.0428V291.48H24.7108L24.9388 292.404C25.5148 291.708 26.2028 291.36 27.0028 291.36C27.2908 291.36 27.5588 291.4 27.8068 291.48C28.0628 291.56 28.2548 291.676 28.3828 291.828Z" fill="#A8DADC"/>
<rect x="42.25" y="344" width="6" height="6" rx="1" fill="#A8DADC"/>
<path d="M47.4817 349.25H45.9697L45.6977 348.098C45.687 348.055 45.6684 347.983 45.6417 347.882C45.6204 347.775 45.5937 347.698 45.5617 347.65C45.5297 347.597 45.4844 347.562 45.4257 347.546C45.2764 347.551 45.0577 347.554 44.7697 347.554V349.25H43.3297V344.73C43.975 344.682 44.5777 344.658 45.1377 344.658C45.6444 344.658 46.055 344.701 46.3697 344.786C46.6844 344.866 46.919 345.007 47.0737 345.21C47.2337 345.407 47.3137 345.679 47.3137 346.026C47.3137 346.351 47.239 346.607 47.0897 346.794C46.9404 346.975 46.7004 347.085 46.3697 347.122V347.17C46.5564 347.186 46.711 347.247 46.8337 347.354C46.9617 347.455 47.047 347.586 47.0897 347.746L47.4817 349.25ZM44.7697 346.65C44.8177 346.655 44.911 346.658 45.0497 346.658C45.4604 346.658 45.7004 346.623 45.7697 346.554C45.8337 346.49 45.8657 346.341 45.8657 346.106C45.8657 345.887 45.807 345.738 45.6897 345.658C45.5777 345.578 45.391 345.538 45.1297 345.538C45.071 345.538 44.951 345.543 44.7697 345.554V346.65Z" fill="#457B9D"/>
<rect x="42.25" y="310" width="6" height="6" rx="1" fill="#A8DADC"/>
<path d="M43.7317 310.69H45.1717V314.194H47.0357V315.25H43.7317V310.69Z" fill="#457B9D"/>
<path d="M12.2412 45.128C12.2412 45.84 12.0132 46.352 11.5572 46.664C11.1092 46.976 10.4692 47.132 9.63716 47.132C9.05316 47.132 8.38116 47.048 7.62116 46.88C7.63716 46.72 7.67316 46.492 7.72916 46.196C7.79316 45.892 7.84516 45.66 7.88516 45.5C8.17316 45.548 8.49316 45.588 8.84516 45.62C9.19716 45.644 9.49716 45.656 9.74516 45.656C9.96116 45.656 10.0932 45.644 10.1412 45.62C10.1492 45.612 10.1572 45.592 10.1652 45.56C10.1812 45.52 10.1892 45.48 10.1892 45.44C10.1892 45.28 10.0892 45.172 9.88916 45.116C9.82516 45.1 9.58116 45.032 9.15716 44.912C8.73316 44.792 8.38516 44.576 8.11316 44.264C7.84916 43.944 7.71716 43.548 7.71716 43.076C7.71716 42.828 7.77316 42.552 7.88516 42.248C7.99716 41.944 8.11716 41.752 8.24516 41.672C8.34116 41.608 8.57316 41.544 8.94116 41.48C9.30916 41.408 9.64916 41.372 9.96116 41.372C10.6252 41.372 11.2932 41.42 11.9652 41.516C11.9652 41.66 11.9452 41.904 11.9052 42.248C11.8652 42.584 11.8292 42.796 11.7972 42.884C11.1172 42.796 10.5692 42.752 10.1532 42.752C9.93716 42.752 9.79716 42.764 9.73316 42.788C9.71716 42.796 9.70116 42.82 9.68516 42.86C9.66916 42.892 9.66116 42.936 9.66116 42.992C9.66116 43.104 9.69716 43.184 9.76916 43.232C9.84116 43.288 10.0292 43.356 10.3332 43.436C10.6932 43.54 11.0012 43.648 11.2572 43.76C11.5212 43.872 11.7492 44.04 11.9412 44.264C12.1412 44.488 12.2412 44.776 12.2412 45.128ZM18.2617 41.828C18.3337 41.916 18.3857 42.136 18.4177 42.488C18.4577 42.84 18.4777 43.376 18.4777 44.096V47H16.4257V44.12C16.4257 44.088 16.4257 43.932 16.4257 43.652C16.4257 43.364 16.4057 43.188 16.3657 43.124C16.3417 43.092 16.2817 43.068 16.1857 43.052C16.0977 43.036 15.9937 43.028 15.8737 43.028L15.6697 43.04C15.4457 43.048 15.2137 43.1 14.9737 43.196V47H12.9217V39.8L14.9737 39.716V41.12C14.9737 41.696 14.9537 42.08 14.9137 42.272L14.9257 42.284C15.4697 41.668 16.1217 41.36 16.8817 41.36C17.1697 41.36 17.4377 41.4 17.6857 41.48C17.9417 41.56 18.1337 41.676 18.2617 41.828ZM22.7136 47L22.5216 46.244C22.1536 46.844 21.6416 47.144 20.9856 47.144C20.4496 47.144 20.0096 46.996 19.6656 46.7C19.3296 46.396 19.1616 45.972 19.1616 45.428C19.1616 45.092 19.2576 44.8 19.4496 44.552C19.6496 44.296 19.9216 44.116 20.2656 44.012C20.7136 43.884 21.4056 43.812 22.3416 43.796C22.3416 43.268 22.3176 42.988 22.2696 42.956C22.2296 42.924 22.1016 42.908 21.8856 42.908C21.7496 42.908 21.5616 42.916 21.3216 42.932C20.9376 42.948 20.4176 42.992 19.7616 43.064C19.6976 42.632 19.6496 42.168 19.6176 41.672C20.0416 41.584 20.4856 41.512 20.9496 41.456C21.4136 41.392 21.8296 41.36 22.1976 41.36C22.8376 41.36 23.3176 41.468 23.6376 41.684C23.9576 41.892 24.1656 42.168 24.2616 42.512C24.3576 42.856 24.4016 43.292 24.3936 43.82L24.3816 45.584L24.4176 47H22.7136ZM21.6816 45.8C21.8896 45.8 22.1096 45.76 22.3416 45.68V44.792H22.2456C21.6536 44.792 21.3256 44.824 21.2616 44.888C21.2216 44.928 21.1896 44.988 21.1656 45.068C21.1496 45.148 21.1416 45.224 21.1416 45.296C21.1416 45.488 21.1856 45.62 21.2736 45.692C21.3616 45.764 21.4976 45.8 21.6816 45.8ZM29.1121 41.36C29.6881 41.36 30.1441 41.552 30.4801 41.936C30.8241 42.312 30.9961 42.972 30.9961 43.916C30.9961 44.62 30.9281 45.196 30.7921 45.644C30.6561 46.084 30.5001 46.376 30.3241 46.52C30.1481 46.664 29.8401 46.78 29.4001 46.868C28.9681 46.956 28.5201 47 28.0561 47C27.9201 47 27.6921 46.992 27.3721 46.976V48.68L25.3201 48.764V41.48H27.0001L27.2041 42.332C27.4121 42.036 27.6761 41.8 27.9961 41.624C28.3241 41.448 28.6961 41.36 29.1121 41.36ZM28.6321 45.536C28.7201 45.472 28.7841 45.292 28.8241 44.996C28.8641 44.692 28.8841 44.404 28.8841 44.132C28.8841 43.684 28.8281 43.352 28.7161 43.136C28.6041 42.92 28.3801 42.812 28.0441 42.812C27.8041 42.812 27.5801 42.836 27.3721 42.884V45.548L27.7081 45.584C27.8121 45.592 27.9601 45.596 28.1521 45.596C28.4241 45.596 28.5841 45.576 28.6321 45.536ZM35.1486 45.56C35.3486 45.56 35.7206 45.54 36.2646 45.5C36.3366 45.5 36.4686 45.492 36.6606 45.476L36.8406 46.712C36.2246 47 35.4246 47.144 34.4406 47.144C33.5206 47.144 32.8126 46.912 32.3166 46.448C31.8286 45.984 31.5846 45.284 31.5846 44.348C31.5846 43.868 31.6446 43.404 31.7646 42.956C31.8926 42.508 32.0366 42.196 32.1966 42.02C32.3646 41.844 32.6766 41.692 33.1326 41.564C33.5886 41.436 34.0406 41.372 34.4886 41.372C35.2086 41.372 35.7486 41.5 36.1086 41.756C36.4686 42.012 36.7046 42.368 36.8166 42.824C36.9286 43.272 36.9846 43.876 36.9846 44.636C36.4406 44.668 35.9086 44.684 35.3886 44.684H33.6846C33.6846 44.94 33.7366 45.132 33.8406 45.26C33.9526 45.388 34.1086 45.472 34.3086 45.512C34.5086 45.544 34.7886 45.56 35.1486 45.56ZM33.8046 42.8C33.7566 42.824 33.7206 42.928 33.6966 43.112C33.6726 43.296 33.6566 43.504 33.6486 43.736H34.2726C34.6486 43.736 34.9206 43.732 35.0886 43.724C35.0886 43.34 35.0326 43.068 34.9206 42.908C34.8166 42.748 34.6326 42.668 34.3686 42.668C34.1526 42.668 33.9646 42.712 33.8046 42.8Z" fill="#A8DADC"/>
<path d="M7.25 69C7.25 61.064 13.2872 54.4305 21.1881 53.6851L60.25 50H62.25C72.7434 50 81.25 58.5066 81.25 69C81.25 79.4934 72.7434 88 62.25 88H60.25L21.1881 84.3149C13.2872 83.5695 7.25 76.936 7.25 69Z" fill="#36617C"/>
<path d="M82.05 94.42H79.25V89.52H75.25V94.42H72.45" stroke="#A8DADC" stroke-width="1.2" stroke-linecap="round" stroke-linejoin="round"/>
<path d="M52.05 94.42L50.6767 94.42M50.6767 94.42L46.7226 94.42M50.6767 94.42V91M46.7226 97V94.42M43.919 92.5V94.42M42.45 94.42L43.919 94.42M46.7226 94.42L43.919 94.42" stroke="#A8DADC" stroke-width="1.2" stroke-linecap="round" stroke-linejoin="round"/>
<path d="M57.25 43.8478C57.25 43.8478 58.4428 41.4772 59.75 41.5207C61.0572 41.5643 62.25 43.8478 62.25 43.8478C62.25 43.8478 63.5984 46.4233 64.75 46.4233C65.9016 46.4233 67.25 43.8478 67.25 43.8478" stroke="#A8DADC" stroke-width="1.2" stroke-linecap="round"/>
<rect x="8.25" y="116" width="30" height="66.1696" rx="15" fill="#36617C"/>
<path d="M20.5614 105.864C20.6894 106.056 20.7534 106.8 20.7534 108.096V111H18.7014V108.3V107.652C18.7014 107.356 18.6734 107.18 18.6174 107.124C18.5534 107.06 18.4174 107.028 18.2094 107.028L18.0654 107.04C17.8174 107.056 17.5814 107.112 17.3574 107.208C17.3654 107.376 17.3694 107.672 17.3694 108.096V111H15.3174V108.3V107.58C15.3174 107.332 15.2894 107.18 15.2334 107.124C15.1694 107.06 15.0334 107.028 14.8254 107.028L14.6814 107.04C14.4574 107.048 14.2254 107.1 13.9854 107.196V111H11.9334V105.48H13.6014L13.8174 106.38C14.0814 106.028 14.3854 105.772 14.7294 105.612C15.0734 105.444 15.4214 105.36 15.7734 105.36C16.0694 105.36 16.3494 105.404 16.6134 105.492C16.8854 105.58 17.0734 105.704 17.1774 105.864C17.2254 105.936 17.2654 106.068 17.2974 106.26C17.5534 105.948 17.8454 105.72 18.1734 105.576C18.5014 105.432 18.8294 105.36 19.1574 105.36C19.4534 105.36 19.7334 105.404 19.9974 105.492C20.2694 105.58 20.4574 105.704 20.5614 105.864ZM24.3708 111.156C23.4108 111.156 22.6908 110.932 22.2108 110.484C21.7388 110.028 21.5028 109.312 21.5028 108.336C21.5028 107.8 21.5508 107.332 21.6468 106.932C21.7508 106.524 21.8748 106.24 22.0188 106.08C22.2028 105.872 22.5388 105.7 23.0268 105.564C23.5228 105.428 23.9868 105.36 24.4188 105.36C25.4508 105.36 26.1868 105.58 26.6268 106.02C27.0668 106.46 27.2868 107.164 27.2868 108.132C27.2868 109.172 27.0508 109.936 26.5788 110.424C26.1068 110.912 25.3708 111.156 24.3708 111.156ZM24.4068 109.752C24.7188 109.752 24.9228 109.644 25.0188 109.428C25.1148 109.204 25.1628 108.812 25.1628 108.252C25.1628 107.86 25.1428 107.56 25.1028 107.352C25.0628 107.136 24.9868 106.98 24.8748 106.884C24.7708 106.78 24.6068 106.728 24.3828 106.728C24.0628 106.728 23.8788 106.756 23.8308 106.812C23.7668 106.868 23.7148 107.044 23.6748 107.34C23.6348 107.636 23.6148 107.944 23.6148 108.264C23.6148 108.808 23.6668 109.192 23.7708 109.416C23.8828 109.64 24.0948 109.752 24.4068 109.752ZM33.5661 103.716V111H31.8741L31.7061 110.076C31.5461 110.388 31.3101 110.636 30.9981 110.82C30.6861 111.004 30.3341 111.096 29.9421 111.096C29.3181 111.096 28.8181 110.872 28.4421 110.424C28.0741 109.976 27.8901 109.304 27.8901 108.408C27.8901 107.728 27.9701 107.168 28.1301 106.728C28.2901 106.288 28.4781 105.972 28.6941 105.78C28.8301 105.66 29.1061 105.56 29.5221 105.48C29.9461 105.4 30.3221 105.36 30.6501 105.36C30.9381 105.36 31.2341 105.388 31.5381 105.444C31.5141 105.06 31.5021 104.848 31.5021 104.808V103.8L33.5661 103.716ZM30.8421 109.488C31.0581 109.488 31.2821 109.452 31.5141 109.38V106.776C31.2821 106.744 31.0261 106.728 30.7461 106.728C30.5061 106.728 30.3541 106.748 30.2901 106.788C30.2021 106.852 30.1301 107.036 30.0741 107.34C30.0261 107.636 30.0021 107.948 30.0021 108.276C30.0021 108.764 30.0741 109.088 30.2181 109.248C30.3701 109.408 30.5781 109.488 30.8421 109.488Z" fill="#A8DADC"/>
<path d="M57.8314 140.75H55.2394L54.0154 135.23H56.1154L56.6554 139.334H56.6914L57.3034 135.23H59.5234L60.1714 139.322H60.2194L60.7234 135.23H62.8354L61.6114 140.75H59.0074L58.4314 137.414H58.3954L57.8314 140.75ZM66.3601 140.75L66.1681 139.994C65.8001 140.594 65.2881 140.894 64.6321 140.894C64.0961 140.894 63.6561 140.746 63.3121 140.45C62.9761 140.146 62.8081 139.722 62.8081 139.178C62.8081 138.842 62.9041 138.55 63.0961 138.302C63.2961 138.046 63.5681 137.866 63.9121 137.762C64.3601 137.634 65.0521 137.562 65.9881 137.546C65.9881 137.018 65.9641 136.738 65.9161 136.706C65.8761 136.674 65.7481 136.658 65.5321 136.658C65.3961 136.658 65.2081 136.666 64.9681 136.682C64.5841 136.698 64.0641 136.742 63.4081 136.814C63.3441 136.382 63.2961 135.918 63.2641 135.422C63.6881 135.334 64.1321 135.262 64.5961 135.206C65.0601 135.142 65.4761 135.11 65.8441 135.11C66.4841 135.11 66.9641 135.218 67.2841 135.434C67.6041 135.642 67.8121 135.918 67.9081 136.262C68.0041 136.606 68.0481 137.042 68.0401 137.57L68.0281 139.334L68.0641 140.75H66.3601ZM65.3281 139.55C65.5361 139.55 65.7561 139.51 65.9881 139.43V138.542H65.8921C65.3001 138.542 64.9721 138.574 64.9081 138.638C64.8681 138.678 64.8361 138.738 64.8121 138.818C64.7961 138.898 64.7881 138.974 64.7881 139.046C64.7881 139.238 64.8321 139.37 64.9201 139.442C65.0081 139.514 65.1441 139.55 65.3281 139.55ZM72.5186 135.23H74.6666L72.9866 140.75H70.1426L68.4626 135.23H70.6106L71.5106 139.466H71.6306L72.5186 135.23ZM78.4904 139.31C78.6904 139.31 79.0624 139.29 79.6064 139.25C79.6784 139.25 79.8104 139.242 80.0024 139.226L80.1824 140.462C79.5664 140.75 78.7664 140.894 77.7824 140.894C76.8624 140.894 76.1544 140.662 75.6584 140.198C75.1704 139.734 74.9264 139.034 74.9264 138.098C74.9264 137.618 74.9864 137.154 75.1064 136.706C75.2344 136.258 75.3784 135.946 75.5384 135.77C75.7064 135.594 76.0184 135.442 76.4744 135.314C76.9304 135.186 77.3824 135.122 77.8304 135.122C78.5504 135.122 79.0904 135.25 79.4504 135.506C79.8104 135.762 80.0464 136.118 80.1584 136.574C80.2704 137.022 80.3264 137.626 80.3264 138.386C79.7824 138.418 79.2504 138.434 78.7304 138.434H77.0264C77.0264 138.69 77.0784 138.882 77.1824 139.01C77.2944 139.138 77.4504 139.222 77.6504 139.262C77.8504 139.294 78.1304 139.31 78.4904 139.31ZM77.1464 136.55C77.0984 136.574 77.0624 136.678 77.0384 136.862C77.0144 137.046 76.9984 137.254 76.9904 137.486H77.6144C77.9904 137.486 78.2624 137.482 78.4304 137.474C78.4304 137.09 78.3744 136.818 78.2624 136.658C78.1584 136.498 77.9744 136.418 77.7104 136.418C77.4944 136.418 77.3064 136.462 77.1464 136.55ZM65.0614 145.614C65.1894 145.806 65.2534 146.55 65.2534 147.846V150.75H63.2014V148.05V147.402C63.2014 147.106 63.1734 146.93 63.1174 146.874C63.0534 146.81 62.9174 146.778 62.7094 146.778L62.5654 146.79C62.3174 146.806 62.0814 146.862 61.8574 146.958C61.8654 147.126 61.8694 147.422 61.8694 147.846V150.75H59.8174V148.05V147.33C59.8174 147.082 59.7894 146.93 59.7334 146.874C59.6694 146.81 59.5334 146.778 59.3254 146.778L59.1814 146.79C58.9574 146.798 58.7254 146.85 58.4854 146.946V150.75H56.4334V145.23H58.1014L58.3174 146.13C58.5814 145.778 58.8854 145.522 59.2294 145.362C59.5734 145.194 59.9214 145.11 60.2734 145.11C60.5694 145.11 60.8494 145.154 61.1134 145.242C61.3854 145.33 61.5734 145.454 61.6774 145.614C61.7254 145.686 61.7654 145.818 61.7974 146.01C62.0534 145.698 62.3454 145.47 62.6734 145.326C63.0014 145.182 63.3294 145.11 63.6574 145.11C63.9534 145.11 64.2334 145.154 64.4974 145.242C64.7694 145.33 64.9574 145.454 65.0614 145.614ZM68.8708 150.906C67.9108 150.906 67.1908 150.682 66.7108 150.234C66.2388 149.778 66.0028 149.062 66.0028 148.086C66.0028 147.55 66.0508 147.082 66.1468 146.682C66.2508 146.274 66.3748 145.99 66.5188 145.83C66.7028 145.622 67.0388 145.45 67.5268 145.314C68.0228 145.178 68.4868 145.11 68.9188 145.11C69.9508 145.11 70.6868 145.33 71.1268 145.77C71.5668 146.21 71.7868 146.914 71.7868 147.882C71.7868 148.922 71.5508 149.686 71.0788 150.174C70.6068 150.662 69.8708 150.906 68.8708 150.906ZM68.9068 149.502C69.2188 149.502 69.4228 149.394 69.5188 149.178C69.6148 148.954 69.6628 148.562 69.6628 148.002C69.6628 147.61 69.6428 147.31 69.6028 147.102C69.5628 146.886 69.4868 146.73 69.3748 146.634C69.2708 146.53 69.1068 146.478 68.8828 146.478C68.5628 146.478 68.3788 146.506 68.3308 146.562C68.2668 146.618 68.2148 146.794 68.1748 147.09C68.1348 147.386 68.1148 147.694 68.1148 148.014C68.1148 148.558 68.1668 148.942 68.2708 149.166C68.3828 149.39 68.5948 149.502 68.9068 149.502ZM78.0661 143.466V150.75H76.3741L76.2061 149.826C76.0461 150.138 75.8101 150.386 75.4981 150.57C75.1861 150.754 74.8341 150.846 74.4421 150.846C73.8181 150.846 73.3181 150.622 72.9421 150.174C72.5741 149.726 72.3901 149.054 72.3901 148.158C72.3901 147.478 72.4701 146.918 72.6301 146.478C72.7901 146.038 72.9781 145.722 73.1941 145.53C73.3301 145.41 73.6061 145.31 74.0221 145.23C74.4461 145.15 74.8221 145.11 75.1501 145.11C75.4381 145.11 75.7341 145.138 76.0381 145.194C76.0141 144.81 76.0021 144.598 76.0021 144.558V143.55L78.0661 143.466ZM75.3421 149.238C75.5581 149.238 75.7821 149.202 76.0141 149.13V146.526C75.7821 146.494 75.5261 146.478 75.2461 146.478C75.0061 146.478 74.8541 146.498 74.7901 146.538C74.7021 146.602 74.6301 146.786 74.5741 147.09C74.5261 147.386 74.5021 147.698 74.5021 148.026C74.5021 148.514 74.5741 148.838 74.7181 148.998C74.8701 149.158 75.0781 149.238 75.3421 149.238Z" fill="#A8DADC"/>
</svg>
