<svg width="90" height="380" viewBox="0 0 90 380" fill="none" xmlns="http://www.w3.org/2000/svg">
<rect width="90" height="380" fill="#457B9D"/>
<g opacity="0.3">
<path fill-rule="evenodd" clip-rule="evenodd" d="M38.958 375.599C38.803 375.747 38.659 375.851 38.526 375.909C38.393 375.968 38.251 375.998 38.1 375.998C37.948 375.998 37.806 375.97 37.673 375.914C37.54 375.858 37.424 375.781 37.325 375.682C37.109 375.466 37 375.209 37 374.912V369.385C37 369.082 37.078 368.847 37.232 368.68C37.498 368.408 37.75 368.272 37.988 368.272C38.226 368.272 38.404 368.296 38.522 368.346C38.639 368.395 38.738 368.457 38.818 368.531C38.924 368.624 39.002 368.723 39.055 368.828C39.108 368.933 39.151 369.011 39.185 369.06C39.219 369.11 39.275 369.134 39.352 369.134C39.429 369.134 39.496 369.11 39.551 369.06L39.709 368.902C40.16 368.482 40.612 368.272 41.063 368.272C41.861 368.272 42.519 368.599 43.039 369.255C43.088 369.323 43.15 369.357 43.224 369.357C43.354 369.357 43.486 369.256 43.619 369.055C43.752 368.854 43.966 368.674 44.263 368.513C44.56 368.352 44.906 368.272 45.302 368.272C45.698 368.272 46.058 368.344 46.383 368.49C46.707 368.635 46.99 368.834 47.231 369.088C47.738 369.62 47.992 370.263 47.992 371.017V374.912C47.992 375.382 47.769 375.713 47.324 375.905C47.188 375.967 47.044 375.998 46.893 375.998C46.741 375.998 46.599 375.97 46.466 375.914C46.333 375.858 46.217 375.781 46.118 375.682C45.908 375.46 45.803 375.203 45.803 374.912V371.045C45.803 370.736 45.726 370.504 45.571 370.349C45.299 370.077 45.049 369.941 44.82 369.941C44.591 369.941 44.412 369.971 44.282 370.029C44.152 370.088 44.034 370.17 43.929 370.275C43.713 370.492 43.605 370.742 43.605 371.026V374.912C43.605 375.382 43.385 375.713 42.946 375.905C42.81 375.967 42.666 375.998 42.515 375.998C42.363 375.998 42.22 375.97 42.083 375.914C41.947 375.858 41.83 375.781 41.731 375.682C41.515 375.466 41.406 375.209 41.406 374.912V371.045C41.406 370.736 41.329 370.504 41.174 370.349C40.902 370.077 40.618 369.941 40.321 369.941C39.826 369.941 39.483 370.133 39.292 370.516C39.23 370.64 39.199 370.779 39.199 370.934V374.912C39.199 375.215 39.118 375.444 38.958 375.599ZM50.219 369.387C50.219 369.084 50.296 368.849 50.451 368.682C50.716 368.41 51.01 368.274 51.332 368.274C51.641 368.274 51.87 368.355 52.018 368.515C52.29 368.794 52.426 369.084 52.426 369.387V374.915C52.426 375.212 52.349 375.437 52.194 375.592C51.922 375.864 51.672 376 51.443 376C51.214 376 51.032 375.971 50.896 375.912C50.76 375.853 50.642 375.777 50.543 375.685C50.327 375.474 50.219 375.218 50.219 374.915V369.387ZM51.327 365.9C51.065 365.9 50.852 365.687 50.852 365.425C50.852 365.162 51.065 364.95 51.327 364.95C51.589 364.95 51.802 365.162 51.802 365.425C51.802 365.687 51.589 365.9 51.327 365.9ZM51.327 364C51.714 364 52.048 364.142 52.329 364.425C52.611 364.709 52.752 364.996 52.752 365.287C52.752 365.577 52.713 365.807 52.635 365.978C52.558 366.148 52.456 366.297 52.329 366.424C52.048 366.708 51.714 366.849 51.327 366.849C50.94 366.849 50.606 366.708 50.324 366.424C50.043 366.141 49.902 365.857 49.902 365.574C49.902 365.092 50.043 364.709 50.324 364.425C50.606 364.142 50.94 364 51.327 364Z" fill="#1D3557"/>
</g>
<path d="M14.5122 21.8654H12.0372L10.4202 15.5954H12.5322L13.3682 20.2044H13.4232L14.3142 15.5954H16.3822L17.2952 20.2044H17.3282L18.1752 15.5954H20.1992L18.5822 21.8654H16.1182L15.3702 17.8614H15.3042L14.5122 21.8654ZM24.7823 20.4904H22.9563L22.6263 21.8654H20.6023L22.6263 15.5954H25.2113L27.1473 21.8654H25.1123L24.7823 20.4904ZM23.8583 16.9484L23.2093 19.2694H24.5183L23.9023 16.9484H23.8583ZM31.6058 15.5954H33.6958L32.0018 21.8654H29.1308L27.4258 15.5954H29.5268L30.5388 20.5014H30.5938L31.6058 15.5954ZM34.7442 15.5954H39.3092V16.9154H36.7242V18.0594H38.9022V19.2474H36.7242V20.5234H39.2982V21.8654H34.7442V15.5954ZM42.5028 17.2894C42.5028 17.4434 42.5798 17.5644 42.7338 17.6524C42.8952 17.7404 43.1445 17.8357 43.4818 17.9384C43.8852 18.0704 44.2152 18.1987 44.4718 18.3234C44.7358 18.448 44.9632 18.6424 45.1538 18.9064C45.3518 19.1704 45.4508 19.515 45.4508 19.9404C45.4508 21.3044 44.5635 21.9864 42.7888 21.9864C42.4955 21.9864 42.1362 21.9607 41.7108 21.9094C41.2928 21.858 40.9115 21.792 40.5668 21.7114C40.5815 21.5574 40.6108 21.3337 40.6548 21.0404C40.7062 20.7397 40.7538 20.516 40.7978 20.3694C41.0545 20.406 41.4395 20.45 41.9528 20.5014C42.4735 20.5527 42.8658 20.5784 43.1298 20.5784C43.2838 20.5784 43.3755 20.5674 43.4048 20.5454C43.4488 20.516 43.4818 20.4684 43.5038 20.4024C43.5332 20.329 43.5478 20.2667 43.5478 20.2154C43.5478 20.0687 43.4782 19.9587 43.3388 19.8854C43.1995 19.8047 42.9612 19.7094 42.6238 19.5994C42.2205 19.4747 41.8868 19.3464 41.6228 19.2144C41.3588 19.0824 41.1278 18.877 40.9298 18.5984C40.7318 18.3197 40.6328 17.953 40.6328 17.4984C40.6328 17.1757 40.7062 16.8604 40.8528 16.5524C40.9995 16.237 41.1498 16.0244 41.3038 15.9144C41.4212 15.8337 41.6632 15.7567 42.0298 15.6834C42.3965 15.61 42.7412 15.5734 43.0638 15.5734C43.8852 15.5734 44.5562 15.6504 45.0768 15.8044C45.0695 15.951 45.0438 16.1527 44.9998 16.4094C44.9632 16.666 44.9228 16.9007 44.8788 17.1134L44.6258 17.1024C43.6725 17.0364 43.0638 17.0034 42.7998 17.0034C42.6898 17.0034 42.6275 17.007 42.6128 17.0144C42.5835 17.029 42.5578 17.062 42.5358 17.1134C42.5138 17.1647 42.5028 17.2234 42.5028 17.2894ZM46.921 15.5954H48.912V17.8944H50.617V15.5954H52.608V21.8654H50.617V19.1594H48.912V21.8654H46.921V15.5954ZM57.9005 20.4904H56.0745L55.7445 21.8654H53.7205L55.7445 15.5954H58.3295L60.2655 21.8654H58.2305L57.9005 20.4904ZM56.9765 16.9484L56.3275 19.2694H57.6365L57.0205 16.9484H56.9765ZM63.8925 15.5624C64.4865 15.5624 64.9888 15.6174 65.3995 15.7274C65.8102 15.8374 66.1365 16.05 66.3785 16.3654C66.6278 16.6734 66.7525 17.117 66.7525 17.6964C66.7525 17.953 66.7122 18.217 66.6315 18.4884C66.5582 18.7524 66.4628 18.9834 66.3455 19.1814C66.2355 19.3794 66.1365 19.5077 66.0485 19.5664C65.9458 19.6397 65.7185 19.6984 65.3665 19.7424C65.0145 19.779 64.6002 19.7974 64.1235 19.7974C63.9548 19.7974 63.6945 19.79 63.3425 19.7754V21.8654H61.3625V15.5954C62.1325 15.5734 62.9758 15.5624 63.8925 15.5624ZM64.7175 18.3894C64.7908 18.294 64.8275 18.1034 64.8275 17.8174C64.8275 17.4434 64.7468 17.1794 64.5855 17.0254C64.4315 16.8714 64.1602 16.7944 63.7715 16.7944C63.6395 16.7944 63.4965 16.8054 63.3425 16.8274V18.4994C63.4158 18.5067 63.5588 18.5104 63.7715 18.5104C64.3362 18.5104 64.6515 18.47 64.7175 18.3894ZM67.9483 15.5954H72.5133V16.9154H69.9283V18.0594H72.1063V19.2474H69.9283V20.5234H72.5023V21.8654H67.9483V15.5954ZM79.6119 21.8654H77.5329L77.1589 20.2814C77.1443 20.2227 77.1186 20.1237 77.0819 19.9844C77.0526 19.8377 77.0159 19.7314 76.9719 19.6654C76.9279 19.592 76.8656 19.5444 76.7849 19.5224C76.5796 19.5297 76.2789 19.5334 75.8829 19.5334V21.8654H73.9029V15.6504C74.7903 15.5844 75.6189 15.5514 76.3889 15.5514C77.0856 15.5514 77.6503 15.61 78.0829 15.7274C78.5156 15.8374 78.8383 16.0317 79.0509 16.3104C79.2709 16.5817 79.3809 16.9557 79.3809 17.4324C79.3809 17.8797 79.2783 18.2317 79.0729 18.4884C78.8676 18.7377 78.5376 18.888 78.0829 18.9394V19.0054C78.3396 19.0274 78.5523 19.1117 78.7209 19.2584C78.8969 19.3977 79.0143 19.5774 79.0729 19.7974L79.6119 21.8654ZM75.8829 18.2904C75.9489 18.2977 76.0773 18.3014 76.2679 18.3014C76.8326 18.3014 77.1626 18.2537 77.2579 18.1584C77.3459 18.0704 77.3899 17.865 77.3899 17.5424C77.3899 17.2417 77.3093 17.0364 77.1479 16.9264C76.9939 16.8164 76.7373 16.7614 76.3779 16.7614C76.2973 16.7614 76.1323 16.7687 75.8829 16.7834V18.2904Z" fill="white"/>
<path d="M20.0986 315V309.668H18.79V315H20.0986ZM23.4111 315V311.753H23.46L25.7744 315H26.8145V309.668H25.5889V312.886H25.54L23.2354 309.668H22.1904V315H23.4111Z" fill="white"/>
<path d="M60.9336 315.098C62.5205 315.098 63.4238 314.126 63.4238 312.637V312.036C63.4238 310.542 62.5156 309.57 60.9287 309.57C59.3467 309.57 58.4385 310.537 58.4385 312.036V312.637C58.4385 314.126 59.3516 315.098 60.9336 315.098ZM60.9336 314.077C60.2061 314.077 59.7715 313.535 59.7715 312.642V312.021C59.7715 311.128 60.2061 310.591 60.9336 310.591C61.6562 310.591 62.0908 311.128 62.0908 312.021V312.642C62.0908 313.535 61.6562 314.077 60.9336 314.077ZM67.5713 314.048C66.9609 314.048 66.5361 313.687 66.5361 312.998V309.668H65.2227V313.145C65.2227 314.336 66.126 315.098 67.5713 315.098C69.0166 315.098 69.9199 314.331 69.9199 313.145V309.668H68.6113V312.998C68.6113 313.682 68.1816 314.048 67.5713 314.048ZM74.292 315V310.688H75.8398V309.668H71.4355V310.688H72.9834V315H74.292Z" fill="white"/>
<path d="M10.5596 203.668H8.20605V209H9.49023V207.081H10.3154L11.2773 209H12.7275L11.6045 206.905C12.0928 206.725 12.6201 206.188 12.6201 205.406C12.6201 204.337 11.8584 203.668 10.5596 203.668ZM9.49023 206.183V204.62H10.3691C10.8965 204.62 11.2676 204.898 11.2676 205.416C11.2676 205.929 10.9062 206.183 10.3545 206.183H9.49023ZM15.2686 209L15.6543 207.75H17.4365L17.8125 209H19.1992L17.373 203.668H15.791L13.96 209H15.2686ZM16.582 204.801L17.1924 206.842H15.8984L16.5186 204.801H16.582ZM21.999 209V205.753H22.0479L24.3623 209H25.4023V203.668H24.1768V206.886H24.1279L21.8232 203.668H20.7783V209H21.999ZM32.0498 205.421C32.0156 204.425 31.2002 203.57 29.75 203.57C28.1582 203.57 27.2695 204.562 27.2695 205.992V206.642C27.2695 208.062 28.0459 209.098 29.7354 209.098C31.2295 209.098 32.0547 208.209 32.0547 207.12V206.08H29.7988V206.974H30.8193V207.213C30.8193 207.677 30.4238 208.072 29.7549 208.072C28.9199 208.072 28.5879 207.472 28.5879 206.637V206.007C28.5879 205.133 28.9883 204.601 29.7402 204.601C30.3555 204.601 30.7266 204.967 30.7803 205.421H32.0498ZM37.6768 208.004H35.2207V206.778H37.5254V205.851H35.2207V204.664H37.6768V203.668H33.9268V209H37.6768V208.004Z" fill="white"/>
<path d="M72.6904 209V203.668H71.3965L70.0635 204.557V205.67L71.333 204.825H71.3965V209H72.6904ZM74.9482 206.461C74.9482 208.019 75.7344 209.098 77.1504 209.098C78.6299 209.098 79.377 207.926 79.377 206.461V206.202C79.377 204.635 78.5957 203.57 77.1748 203.57C75.7686 203.57 74.9482 204.645 74.9482 206.202V206.461ZM76.2568 206.207C76.2568 205.118 76.623 204.576 77.1602 204.576C77.7021 204.576 78.0684 205.123 78.0684 206.207V206.456C78.0684 207.54 77.7021 208.092 77.1602 208.092C76.623 208.092 76.2568 207.545 76.2568 206.456V206.207ZM84.0908 209L85.8877 203.668H84.4375L83.3389 207.672H83.2754L82.1621 203.668H80.6436L82.4648 209H84.0908Z" fill="white"/>
<path d="M51.542 207.56C51.5713 208.429 52.3721 209.098 53.6221 209.098C54.9258 209.098 55.8145 208.355 55.8145 207.188C55.8145 206.056 54.9648 205.445 54.0029 205.445C53.3584 205.445 52.9727 205.729 52.8652 205.899H52.8018L52.9141 204.654H55.4824V203.668H51.8838L51.6592 206.803H52.8115C52.9141 206.622 53.1777 206.368 53.6367 206.368C54.1543 206.368 54.5645 206.71 54.5645 207.228C54.5645 207.789 54.1396 208.131 53.6318 208.131C53.1924 208.131 52.7969 207.916 52.7236 207.56H51.542ZM60.5674 209L62.3643 203.668H60.9141L59.8154 207.672H59.752L58.6387 203.668H57.1201L58.9414 209H60.5674Z" fill="white"/>
<path d="M8 228C8 220.268 14.268 214 22 214H76C79.3137 214 82 216.686 82 220V236C82 239.314 79.3137 242 76 242H22C14.268 242 8 235.732 8 228V228Z" fill="#36617C"/>
<path d="M25.2188 256H27.7139C28.8418 256 29.6768 255.443 29.6768 254.486C29.6768 253.666 29.0566 253.246 28.4023 253.197V253.144C28.9688 253.036 29.4033 252.641 29.4033 251.981C29.4033 251.166 28.7197 250.668 27.6846 250.668H25.2188V256ZM26.5127 251.571H27.3574C27.8555 251.571 28.124 251.815 28.124 252.191C28.124 252.582 27.8506 252.836 27.1865 252.836H26.5127V251.571ZM26.5127 253.666H27.4258C28.041 253.666 28.3486 253.949 28.3486 254.389C28.3486 254.823 28.0605 255.102 27.2695 255.102H26.5127V253.666ZM32.6621 256H33.9658V254.086L35.8555 250.668H34.4541L33.3555 252.875H33.3066L32.208 250.668H30.7725L32.6621 254.115V256ZM41.6045 252.475C41.6045 251.483 40.916 250.668 39.6465 250.668H37.293V256H38.5967V254.33H39.6367C40.9062 254.33 41.6045 253.476 41.6045 252.475ZM40.2764 252.504C40.2764 253.041 39.9639 253.383 39.4219 253.383H38.5918V251.63H39.373C39.9443 251.63 40.2764 251.947 40.2764 252.504ZM43.75 256L44.1357 254.75H45.918L46.2939 256H47.6807L45.8545 250.668H44.2725L42.4414 256H43.75ZM45.0635 251.801L45.6738 253.842H44.3799L45 251.801H45.0635ZM48.9375 254.447C48.9521 255.346 49.6699 256.098 51.1982 256.098C52.7021 256.098 53.498 255.385 53.498 254.384C53.498 253.446 52.8779 253.036 51.9795 252.86L51.1934 252.709C50.6416 252.597 50.3682 252.436 50.3682 252.123C50.3682 251.781 50.6758 251.522 51.2373 251.522C51.8232 251.522 52.165 251.815 52.1943 252.187H53.4004C53.3906 251.337 52.6582 250.565 51.2422 250.565C49.9336 250.565 49.0596 251.22 49.0596 252.221C49.0596 253.09 49.6162 253.544 50.6123 253.744L51.3594 253.896C51.9258 254.013 52.2041 254.179 52.2041 254.511C52.2041 254.872 51.8916 255.131 51.252 255.131C50.6172 255.131 50.2168 254.833 50.1875 254.447H48.9375ZM54.9941 254.447C55.0088 255.346 55.7266 256.098 57.2549 256.098C58.7588 256.098 59.5547 255.385 59.5547 254.384C59.5547 253.446 58.9346 253.036 58.0361 252.86L57.25 252.709C56.6982 252.597 56.4248 252.436 56.4248 252.123C56.4248 251.781 56.7324 251.522 57.2939 251.522C57.8799 251.522 58.2217 251.815 58.251 252.187H59.457C59.4473 251.337 58.7148 250.565 57.2988 250.565C55.9902 250.565 55.1162 251.22 55.1162 252.221C55.1162 253.09 55.6729 253.544 56.6689 253.744L57.416 253.896C57.9824 254.013 58.2607 254.179 58.2607 254.511C58.2607 254.872 57.9482 255.131 57.3086 255.131C56.6738 255.131 56.2734 254.833 56.2441 254.447H54.9941Z" fill="white"/>
<rect x="8" y="262" width="74" height="28" rx="14" fill="#36617C"/>
<path d="M7.76953 44.4473C7.78418 45.3457 8.50195 46.0977 10.0303 46.0977C11.5342 46.0977 12.3301 45.3848 12.3301 44.3838C12.3301 43.4463 11.71 43.0361 10.8115 42.8604L10.0254 42.709C9.47363 42.5967 9.2002 42.4355 9.2002 42.123C9.2002 41.7812 9.50781 41.5225 10.0693 41.5225C10.6553 41.5225 10.9971 41.8154 11.0264 42.1865H12.2324C12.2227 41.3369 11.4902 40.5654 10.0742 40.5654C8.76562 40.5654 7.8916 41.2197 7.8916 42.2207C7.8916 43.0898 8.44824 43.5439 9.44434 43.7441L10.1914 43.8955C10.7578 44.0127 11.0361 44.1787 11.0361 44.5107C11.0361 44.8721 10.7236 45.1309 10.084 45.1309C9.44922 45.1309 9.04883 44.833 9.01953 44.4473H7.76953ZM18.9043 46V40.668H17.5957V42.792H15.457V40.668H14.1484V46H15.457V43.8076H17.5957V46H18.9043ZM21.7871 46L22.1729 44.75H23.9551L24.3311 46H25.7178L23.8916 40.668H22.3096L20.4785 46H21.7871ZM23.1006 41.8008L23.7109 43.8418H22.417L23.0371 41.8008H23.1006ZM31.6084 42.4746C31.6084 41.4834 30.9199 40.668 29.6504 40.668H27.2969V46H28.6006V44.3301H29.6406C30.9102 44.3301 31.6084 43.4756 31.6084 42.4746ZM30.2803 42.5039C30.2803 43.041 29.9678 43.3828 29.4258 43.3828H28.5957V41.6299H29.377C29.9482 41.6299 30.2803 41.9473 30.2803 42.5039ZM37.0645 45.0039H34.6084V43.7783H36.9131V42.8506H34.6084V41.6641H37.0645V40.668H33.3145V46H37.0645V45.0039Z" fill="white"/>
<path d="M7 69C7 61.064 13.0372 54.4305 20.9381 53.6851L60 50H62C72.4934 50 81 58.5066 81 69C81 79.4934 72.4934 88 62 88H60L20.9381 84.3149C13.0372 83.5695 7 76.936 7 69Z" fill="#36617C"/>
<path d="M82.7998 94.42H79.9998V89.52H75.9998V94.42H73.1998" stroke="white" stroke-width="1.2" stroke-linecap="round" stroke-linejoin="round"/>
<path d="M50.7998 94.42L49.4265 94.42M49.4265 94.42L45.4724 94.42M49.4265 94.42V91M45.4724 97V94.42M42.6689 92.5V94.42M41.1998 94.42L42.6689 94.42M45.4724 94.42L42.6689 94.42" stroke="white" stroke-width="1.2" stroke-linecap="round" stroke-linejoin="round"/>
<path d="M57 43.8478C57 43.8478 58.1928 41.4772 59.5 41.5207C60.8072 41.5643 62 43.8478 62 43.8478C62 43.8478 63.3484 46.4233 64.5 46.4233C65.6516 46.4233 67 43.8478 67 43.8478" stroke="white" stroke-width="1.2" stroke-linecap="round"/>
<rect x="8" y="119" width="30" height="66.1696" rx="15" fill="#36617C"/>
<path d="M8.41406 112.447C8.42871 113.346 9.14648 114.098 10.6748 114.098C12.1787 114.098 12.9746 113.385 12.9746 112.384C12.9746 111.446 12.3545 111.036 11.4561 110.86L10.6699 110.709C10.1182 110.597 9.84473 110.436 9.84473 110.123C9.84473 109.781 10.1523 109.522 10.7139 109.522C11.2998 109.522 11.6416 109.815 11.6709 110.187H12.877C12.8672 109.337 12.1348 108.565 10.7188 108.565C9.41016 108.565 8.53613 109.22 8.53613 110.221C8.53613 111.09 9.09277 111.544 10.0889 111.744L10.8359 111.896C11.4023 112.013 11.6807 112.179 11.6807 112.511C11.6807 112.872 11.3682 113.131 10.7285 113.131C10.0938 113.131 9.69336 112.833 9.66406 112.447H8.41406ZM15.8965 111.041C15.8965 110.128 16.2871 109.605 16.9902 109.605C17.6104 109.605 18.0205 110.025 18.0205 110.631H19.2754V110.489C19.2754 109.322 18.2988 108.57 16.9805 108.57C15.4424 108.57 14.5635 109.537 14.5635 111.041V111.642C14.5635 113.136 15.4424 114.098 16.9805 114.098C18.2842 114.098 19.2754 113.37 19.2754 112.223V112.076H18.0205C18.0205 112.652 17.6104 113.067 16.9854 113.067C16.2871 113.067 15.8965 112.545 15.8965 111.646V111.041ZM21.9043 114L22.29 112.75H24.0723L24.4482 114H25.835L24.0088 108.668H22.4268L20.5957 114H21.9043ZM23.2178 109.801L23.8281 111.842H22.5342L23.1543 109.801H23.2178ZM31.0127 112.96H28.7227V108.668H27.4141V114H31.0127V112.96ZM36.4199 113.004H33.9639V111.778H36.2686V110.851H33.9639V109.664H36.4199V108.668H32.6699V114H36.4199V113.004Z" fill="white"/>
<path d="M58.7285 144H59.9492L61.4043 138.673H60.0176L59.2754 142.325H59.2119L58.2744 138.673H57.1904L56.2529 142.325H56.1895L55.4424 138.673H54.0557L55.5156 144H56.7314L57.7031 140.548H57.7568L58.7285 144ZM63.4619 144L63.8477 142.75H65.6299L66.0059 144H67.3926L65.5664 138.668H63.9844L62.1533 144H63.4619ZM64.7754 139.801L65.3857 141.842H64.0918L64.7119 139.801H64.7754ZM71.4619 144L73.2588 138.668H71.8086L70.71 142.672H70.6465L69.5332 138.668H68.0146L69.8359 144H71.4619ZM78.5537 143.004H76.0977V141.778H78.4023V140.851H76.0977V139.664H78.5537V138.668H74.8037V144H78.5537V143.004ZM58.2314 152V148.65H58.2998L59.5254 151.219H60.3066L61.5273 148.65H61.5859V152H62.7676V146.668H61.4297L59.9453 149.764H59.9014L58.417 146.668H57.0742V152H58.2314ZM67.1348 152.098C68.7217 152.098 69.625 151.126 69.625 149.637V149.036C69.625 147.542 68.7168 146.57 67.1299 146.57C65.5479 146.57 64.6396 147.537 64.6396 149.036V149.637C64.6396 151.126 65.5527 152.098 67.1348 152.098ZM67.1348 151.077C66.4072 151.077 65.9727 150.535 65.9727 149.642V149.021C65.9727 148.128 66.4072 147.591 67.1348 147.591C67.8574 147.591 68.292 148.128 68.292 149.021V149.642C68.292 150.535 67.8574 151.077 67.1348 151.077ZM76.2139 149.314C76.2139 147.635 75.3887 146.668 73.6699 146.668H71.4922V152H73.6699C75.3691 152 76.2139 151.019 76.2139 149.314ZM74.876 149.339C74.876 150.647 74.2949 151.004 73.4551 151.004H72.8008V147.664H73.4551C74.5098 147.664 74.876 148.353 74.876 149.339Z" fill="white"/>
</svg>
