<svg width="90" height="380" viewBox="0 0 90 380" fill="none" xmlns="http://www.w3.org/2000/svg">
<rect width="90" height="380" fill="#457B9D"/>
<g opacity="0.3">
<path fill-rule="evenodd" clip-rule="evenodd" d="M38.958 375.599C38.803 375.747 38.659 375.851 38.526 375.909C38.393 375.968 38.251 375.998 38.1 375.998C37.948 375.998 37.806 375.97 37.673 375.914C37.54 375.858 37.424 375.781 37.325 375.682C37.109 375.466 37 375.209 37 374.912V369.385C37 369.082 37.078 368.847 37.232 368.68C37.498 368.408 37.75 368.272 37.988 368.272C38.226 368.272 38.404 368.296 38.522 368.346C38.639 368.395 38.738 368.457 38.818 368.531C38.924 368.624 39.002 368.723 39.055 368.828C39.108 368.933 39.151 369.011 39.185 369.06C39.219 369.11 39.275 369.134 39.352 369.134C39.429 369.134 39.496 369.11 39.551 369.06L39.709 368.902C40.16 368.482 40.612 368.272 41.063 368.272C41.861 368.272 42.519 368.599 43.039 369.255C43.088 369.323 43.15 369.357 43.224 369.357C43.354 369.357 43.486 369.256 43.619 369.055C43.752 368.854 43.966 368.674 44.263 368.513C44.56 368.352 44.906 368.272 45.302 368.272C45.698 368.272 46.058 368.344 46.383 368.49C46.707 368.635 46.99 368.834 47.231 369.088C47.738 369.62 47.992 370.263 47.992 371.017V374.912C47.992 375.382 47.769 375.713 47.324 375.905C47.188 375.967 47.044 375.998 46.893 375.998C46.741 375.998 46.599 375.97 46.466 375.914C46.333 375.858 46.217 375.781 46.118 375.682C45.908 375.46 45.803 375.203 45.803 374.912V371.045C45.803 370.736 45.726 370.504 45.571 370.349C45.299 370.077 45.049 369.941 44.82 369.941C44.591 369.941 44.412 369.971 44.282 370.029C44.152 370.088 44.034 370.17 43.929 370.275C43.713 370.492 43.605 370.742 43.605 371.026V374.912C43.605 375.382 43.385 375.713 42.946 375.905C42.81 375.967 42.666 375.998 42.515 375.998C42.363 375.998 42.22 375.97 42.083 375.914C41.947 375.858 41.83 375.781 41.731 375.682C41.515 375.466 41.406 375.209 41.406 374.912V371.045C41.406 370.736 41.329 370.504 41.174 370.349C40.902 370.077 40.618 369.941 40.321 369.941C39.826 369.941 39.483 370.133 39.292 370.516C39.23 370.64 39.199 370.779 39.199 370.934V374.912C39.199 375.215 39.118 375.444 38.958 375.599ZM50.219 369.387C50.219 369.084 50.296 368.849 50.451 368.682C50.716 368.41 51.01 368.274 51.332 368.274C51.641 368.274 51.87 368.355 52.018 368.515C52.29 368.794 52.426 369.084 52.426 369.387V374.915C52.426 375.212 52.349 375.437 52.194 375.592C51.922 375.864 51.672 376 51.443 376C51.214 376 51.032 375.971 50.896 375.912C50.76 375.853 50.642 375.777 50.543 375.685C50.327 375.474 50.219 375.218 50.219 374.915V369.387ZM51.327 365.9C51.065 365.9 50.852 365.687 50.852 365.425C50.852 365.162 51.065 364.95 51.327 364.95C51.589 364.95 51.802 365.162 51.802 365.425C51.802 365.687 51.589 365.9 51.327 365.9ZM51.327 364C51.714 364 52.048 364.142 52.329 364.425C52.611 364.709 52.752 364.996 52.752 365.287C52.752 365.577 52.713 365.807 52.635 365.978C52.558 366.148 52.456 366.297 52.329 366.424C52.048 366.708 51.714 366.849 51.327 366.849C50.94 366.849 50.606 366.708 50.324 366.424C50.043 366.141 49.902 365.857 49.902 365.574C49.902 365.092 50.043 364.709 50.324 364.425C50.606 364.142 50.94 364 51.327 364Z" fill="#1D3557"/>
</g>
<path d="M6.54952 21.8654H4.07452L2.45752 15.5954H4.56952L5.40552 20.2044H5.46052L6.35152 15.5954H8.41952L9.33252 20.2044H9.36552L10.2125 15.5954H12.2365L10.6195 21.8654H8.15552L7.40752 17.8614H7.34152L6.54952 21.8654ZM16.8196 20.4904H14.9936L14.6636 21.8654H12.6396L14.6636 15.5954H17.2486L19.1846 21.8654H17.1496L16.8196 20.4904ZM15.8956 16.9484L15.2466 19.2694H16.5556L15.9396 16.9484H15.8956ZM23.6431 15.5954H25.7331L24.0391 21.8654H21.1681L19.4631 15.5954H21.5641L22.5761 20.5014H22.6311L23.6431 15.5954ZM26.7815 15.5954H31.3465V16.9154H28.7615V18.0594H30.9395V19.2474H28.7615V20.5234H31.3355V21.8654H26.7815V15.5954ZM34.5401 17.2894C34.5401 17.4434 34.6171 17.5644 34.7711 17.6524C34.9325 17.7404 35.1818 17.8357 35.5191 17.9384C35.9225 18.0704 36.2525 18.1987 36.5091 18.3234C36.7731 18.448 37.0005 18.6424 37.1911 18.9064C37.3891 19.1704 37.4881 19.515 37.4881 19.9404C37.4881 21.3044 36.6008 21.9864 34.8261 21.9864C34.5328 21.9864 34.1735 21.9607 33.7481 21.9094C33.3301 21.858 32.9488 21.792 32.6041 21.7114C32.6188 21.5574 32.6481 21.3337 32.6921 21.0404C32.7435 20.7397 32.7911 20.516 32.8351 20.3694C33.0918 20.406 33.4768 20.45 33.9901 20.5014C34.5108 20.5527 34.9031 20.5784 35.1671 20.5784C35.3211 20.5784 35.4128 20.5674 35.4421 20.5454C35.4861 20.516 35.5191 20.4684 35.5411 20.4024C35.5705 20.329 35.5851 20.2667 35.5851 20.2154C35.5851 20.0687 35.5155 19.9587 35.3761 19.8854C35.2368 19.8047 34.9985 19.7094 34.6611 19.5994C34.2578 19.4747 33.9241 19.3464 33.6601 19.2144C33.3961 19.0824 33.1651 18.877 32.9671 18.5984C32.7691 18.3197 32.6701 17.953 32.6701 17.4984C32.6701 17.1757 32.7435 16.8604 32.8901 16.5524C33.0368 16.237 33.1871 16.0244 33.3411 15.9144C33.4585 15.8337 33.7005 15.7567 34.0671 15.6834C34.4338 15.61 34.7785 15.5734 35.1011 15.5734C35.9225 15.5734 36.5935 15.6504 37.1141 15.8044C37.1068 15.951 37.0811 16.1527 37.0371 16.4094C37.0005 16.666 36.9601 16.9007 36.9161 17.1134L36.6631 17.1024C35.7098 17.0364 35.1011 17.0034 34.8371 17.0034C34.7271 17.0034 34.6648 17.007 34.6501 17.0144C34.6208 17.029 34.5951 17.062 34.5731 17.1134C34.5511 17.1647 34.5401 17.2234 34.5401 17.2894ZM38.9583 15.5954H40.9493V17.8944H42.6543V15.5954H44.6453V21.8654H42.6543V19.1594H40.9493V21.8654H38.9583V15.5954ZM49.9378 20.4904H48.1118L47.7818 21.8654H45.7578L47.7818 15.5954H50.3668L52.3028 21.8654H50.2678L49.9378 20.4904ZM49.0138 16.9484L48.3648 19.2694H49.6738L49.0578 16.9484H49.0138ZM55.9298 15.5624C56.5238 15.5624 57.0261 15.6174 57.4368 15.7274C57.8475 15.8374 58.1738 16.05 58.4158 16.3654C58.6651 16.6734 58.7898 17.117 58.7898 17.6964C58.7898 17.953 58.7495 18.217 58.6688 18.4884C58.5955 18.7524 58.5001 18.9834 58.3828 19.1814C58.2728 19.3794 58.1738 19.5077 58.0858 19.5664C57.9831 19.6397 57.7558 19.6984 57.4038 19.7424C57.0518 19.779 56.6375 19.7974 56.1608 19.7974C55.9921 19.7974 55.7318 19.79 55.3798 19.7754V21.8654H53.3998V15.5954C54.1698 15.5734 55.0131 15.5624 55.9298 15.5624ZM56.7548 18.3894C56.8281 18.294 56.8648 18.1034 56.8648 17.8174C56.8648 17.4434 56.7841 17.1794 56.6228 17.0254C56.4688 16.8714 56.1975 16.7944 55.8088 16.7944C55.6768 16.7944 55.5338 16.8054 55.3798 16.8274V18.4994C55.4531 18.5067 55.5961 18.5104 55.8088 18.5104C56.3735 18.5104 56.6888 18.47 56.7548 18.3894ZM59.9856 15.5954H64.5506V16.9154H61.9656V18.0594H64.1436V19.2474H61.9656V20.5234H64.5396V21.8654H59.9856V15.5954ZM71.6492 21.8654H69.5702L69.1962 20.2814C69.1816 20.2227 69.1559 20.1237 69.1192 19.9844C69.0899 19.8377 69.0532 19.7314 69.0092 19.6654C68.9652 19.592 68.9029 19.5444 68.8222 19.5224C68.6169 19.5297 68.3162 19.5334 67.9202 19.5334V21.8654H65.9402V15.6504C66.8276 15.5844 67.6562 15.5514 68.4262 15.5514C69.1229 15.5514 69.6876 15.61 70.1202 15.7274C70.5529 15.8374 70.8756 16.0317 71.0882 16.3104C71.3082 16.5817 71.4182 16.9557 71.4182 17.4324C71.4182 17.8797 71.3156 18.2317 71.1102 18.4884C70.9049 18.7377 70.5749 18.888 70.1202 18.9394V19.0054C70.3769 19.0274 70.5896 19.1117 70.7582 19.2584C70.9342 19.3977 71.0516 19.5774 71.1102 19.7974L71.6492 21.8654ZM67.9202 18.2904C67.9862 18.2977 68.1146 18.3014 68.3052 18.3014C68.8699 18.3014 69.1999 18.2537 69.2952 18.1584C69.3832 18.0704 69.4272 17.865 69.4272 17.5424C69.4272 17.2417 69.3466 17.0364 69.1852 16.9264C69.0312 16.8164 68.7746 16.7614 68.4152 16.7614C68.3346 16.7614 68.1696 16.7687 67.9202 16.7834V18.2904ZM72.6951 18.2464H75.9951V19.8194H72.6951V18.2464ZM79.2749 17.2894C79.2749 17.4434 79.3519 17.5644 79.5059 17.6524C79.6672 17.7404 79.9166 17.8357 80.2539 17.9384C80.6572 18.0704 80.9872 18.1987 81.2439 18.3234C81.5079 18.448 81.7352 18.6424 81.9259 18.9064C82.1239 19.1704 82.2229 19.515 82.2229 19.9404C82.2229 21.3044 81.3356 21.9864 79.5609 21.9864C79.2676 21.9864 78.9082 21.9607 78.4829 21.9094C78.0649 21.858 77.6836 21.792 77.3389 21.7114C77.3536 21.5574 77.3829 21.3337 77.4269 21.0404C77.4782 20.7397 77.5259 20.516 77.5699 20.3694C77.8266 20.406 78.2116 20.45 78.7249 20.5014C79.2456 20.5527 79.6379 20.5784 79.9019 20.5784C80.0559 20.5784 80.1476 20.5674 80.1769 20.5454C80.2209 20.516 80.2539 20.4684 80.2759 20.4024C80.3052 20.329 80.3199 20.2667 80.3199 20.2154C80.3199 20.0687 80.2502 19.9587 80.1109 19.8854C79.9716 19.8047 79.7332 19.7094 79.3959 19.5994C78.9926 19.4747 78.6589 19.3464 78.3949 19.2144C78.1309 19.0824 77.8999 18.877 77.7019 18.5984C77.5039 18.3197 77.4049 17.953 77.4049 17.4984C77.4049 17.1757 77.4782 16.8604 77.6249 16.5524C77.7716 16.237 77.9219 16.0244 78.0759 15.9144C78.1932 15.8337 78.4352 15.7567 78.8019 15.6834C79.1686 15.61 79.5132 15.5734 79.8359 15.5734C80.6572 15.5734 81.3282 15.6504 81.8489 15.8044C81.8416 15.951 81.8159 16.1527 81.7719 16.4094C81.7352 16.666 81.6949 16.9007 81.6509 17.1134L81.3979 17.1024C80.4446 17.0364 79.8359 17.0034 79.5719 17.0034C79.4619 17.0034 79.3996 17.007 79.3849 17.0144C79.3556 17.029 79.3299 17.062 79.3079 17.1134C79.2859 17.1647 79.2749 17.2234 79.2749 17.2894ZM86.8421 21.8654H84.8621V16.9704H83.0911V15.5954H88.6131V16.9704H86.8421V21.8654Z" fill="white"/>
<path d="M10.5596 192.668H8.20605V198H9.49023V196.081H10.3154L11.2773 198H12.7275L11.6045 195.905C12.0928 195.725 12.6201 195.188 12.6201 194.406C12.6201 193.337 11.8584 192.668 10.5596 192.668ZM9.49023 195.183V193.62H10.3691C10.8965 193.62 11.2676 193.898 11.2676 194.416C11.2676 194.929 10.9062 195.183 10.3545 195.183H9.49023ZM15.2686 198L15.6543 196.75H17.4365L17.8125 198H19.1992L17.373 192.668H15.791L13.96 198H15.2686ZM16.582 193.801L17.1924 195.842H15.8984L16.5186 193.801H16.582ZM21.999 198V194.753H22.0479L24.3623 198H25.4023V192.668H24.1768V195.886H24.1279L21.8232 192.668H20.7783V198H21.999ZM32.0498 194.421C32.0156 193.425 31.2002 192.57 29.75 192.57C28.1582 192.57 27.2695 193.562 27.2695 194.992V195.642C27.2695 197.062 28.0459 198.098 29.7354 198.098C31.2295 198.098 32.0547 197.209 32.0547 196.12V195.08H29.7988V195.974H30.8193V196.213C30.8193 196.677 30.4238 197.072 29.7549 197.072C28.9199 197.072 28.5879 196.472 28.5879 195.637V195.007C28.5879 194.133 28.9883 193.601 29.7402 193.601C30.3555 193.601 30.7266 193.967 30.7803 194.421H32.0498ZM37.6768 197.004H35.2207V195.778H37.5254V194.851H35.2207V193.664H37.6768V192.668H33.9268V198H37.6768V197.004Z" fill="white"/>
<path d="M73.6904 198V192.668H72.3965L71.0635 193.557V194.67L72.333 193.825H72.3965V198H73.6904ZM75.9482 195.461C75.9482 197.019 76.7344 198.098 78.1504 198.098C79.6299 198.098 80.377 196.926 80.377 195.461V195.202C80.377 193.635 79.5957 192.57 78.1748 192.57C76.7686 192.57 75.9482 193.645 75.9482 195.202V195.461ZM77.2568 195.207C77.2568 194.118 77.623 193.576 78.1602 193.576C78.7021 193.576 79.0684 194.123 79.0684 195.207V195.456C79.0684 196.54 78.7021 197.092 78.1602 197.092C77.623 197.092 77.2568 196.545 77.2568 195.456V195.207ZM85.0908 198L86.8877 192.668H85.4375L84.3389 196.672H84.2754L83.1621 192.668H81.6436L83.4648 198H85.0908Z" fill="white"/>
<path d="M53.542 196.56C53.5713 197.429 54.3721 198.098 55.6221 198.098C56.9258 198.098 57.8145 197.355 57.8145 196.188C57.8145 195.056 56.9648 194.445 56.0029 194.445C55.3584 194.445 54.9727 194.729 54.8652 194.899H54.8018L54.9141 193.654H57.4824V192.668H53.8838L53.6592 195.803H54.8115C54.9141 195.622 55.1777 195.368 55.6367 195.368C56.1543 195.368 56.5645 195.71 56.5645 196.228C56.5645 196.789 56.1396 197.131 55.6318 197.131C55.1924 197.131 54.7969 196.916 54.7236 196.56H53.542ZM62.5674 198L64.3643 192.668H62.9141L61.8154 196.672H61.752L60.6387 192.668H59.1201L60.9414 198H62.5674Z" fill="white"/>
<path d="M7 217C7 209.268 13.268 203 21 203H76C79.3137 203 82 205.686 82 209V225C82 228.314 79.3137 231 76 231H21C13.268 231 7 224.732 7 217Z" fill="#36617C"/>
<path d="M27.9688 247H30.4639C31.5918 247 32.4268 246.443 32.4268 245.486C32.4268 244.666 31.8066 244.246 31.1523 244.197V244.144C31.7188 244.036 32.1533 243.641 32.1533 242.981C32.1533 242.166 31.4697 241.668 30.4346 241.668H27.9688V247ZM29.2627 242.571H30.1074C30.6055 242.571 30.874 242.815 30.874 243.191C30.874 243.582 30.6006 243.836 29.9365 243.836H29.2627V242.571ZM29.2627 244.666H30.1758C30.791 244.666 31.0986 244.949 31.0986 245.389C31.0986 245.823 30.8105 246.102 30.0195 246.102H29.2627V244.666ZM35.4121 247H36.7158V245.086L38.6055 241.668H37.2041L36.1055 243.875H36.0566L34.958 241.668H33.5225L35.4121 245.115V247ZM44.3545 243.475C44.3545 242.483 43.666 241.668 42.3965 241.668H40.043V247H41.3467V245.33H42.3867C43.6562 245.33 44.3545 244.476 44.3545 243.475ZM43.0264 243.504C43.0264 244.041 42.7139 244.383 42.1719 244.383H41.3418V242.63H42.123C42.6943 242.63 43.0264 242.947 43.0264 243.504ZM46.5 247L46.8857 245.75H48.668L49.0439 247H50.4307L48.6045 241.668H47.0225L45.1914 247H46.5ZM47.8135 242.801L48.4238 244.842H47.1299L47.75 242.801H47.8135ZM51.6875 245.447C51.7021 246.346 52.4199 247.098 53.9482 247.098C55.4521 247.098 56.248 246.385 56.248 245.384C56.248 244.446 55.6279 244.036 54.7295 243.86L53.9434 243.709C53.3916 243.597 53.1182 243.436 53.1182 243.123C53.1182 242.781 53.4258 242.522 53.9873 242.522C54.5732 242.522 54.915 242.815 54.9443 243.187H56.1504C56.1406 242.337 55.4082 241.565 53.9922 241.565C52.6836 241.565 51.8096 242.22 51.8096 243.221C51.8096 244.09 52.3662 244.544 53.3623 244.744L54.1094 244.896C54.6758 245.013 54.9541 245.179 54.9541 245.511C54.9541 245.872 54.6416 246.131 54.002 246.131C53.3672 246.131 52.9668 245.833 52.9375 245.447H51.6875ZM57.7441 245.447C57.7588 246.346 58.4766 247.098 60.0049 247.098C61.5088 247.098 62.3047 246.385 62.3047 245.384C62.3047 244.446 61.6846 244.036 60.7861 243.86L60 243.709C59.4482 243.597 59.1748 243.436 59.1748 243.123C59.1748 242.781 59.4824 242.522 60.0439 242.522C60.6299 242.522 60.9717 242.815 61.001 243.187H62.207C62.1973 242.337 61.4648 241.565 60.0488 241.565C58.7402 241.565 57.8662 242.22 57.8662 243.221C57.8662 244.09 58.4229 244.544 59.4189 244.744L60.166 244.896C60.7324 245.013 61.0107 245.179 61.0107 245.511C61.0107 245.872 60.6982 246.131 60.0586 246.131C59.4238 246.131 59.0234 245.833 58.9941 245.447H57.7441Z" fill="white"/>
<rect x="8" y="252" width="74" height="28" rx="14" fill="#36617C"/>
<path d="M60.4336 297.098C62.0205 297.098 62.9238 296.126 62.9238 294.637V294.036C62.9238 292.542 62.0156 291.57 60.4287 291.57C58.8467 291.57 57.9385 292.537 57.9385 294.036V294.637C57.9385 296.126 58.8516 297.098 60.4336 297.098ZM60.4336 296.077C59.7061 296.077 59.2715 295.535 59.2715 294.642V294.021C59.2715 293.128 59.7061 292.591 60.4336 292.591C61.1562 292.591 61.5908 293.128 61.5908 294.021V294.642C61.5908 295.535 61.1562 296.077 60.4336 296.077ZM67.0713 296.048C66.4609 296.048 66.0361 295.687 66.0361 294.998V291.668H64.7227V295.145C64.7227 296.336 65.626 297.098 67.0713 297.098C68.5166 297.098 69.4199 296.331 69.4199 295.145V291.668H68.1113V294.998C68.1113 295.682 67.6816 296.048 67.0713 296.048ZM73.792 297V292.688H75.3398V291.668H70.9355V292.688H72.4834V297H73.792Z" fill="white"/>
<path d="M21.2939 297V291.668H19.9854V297H21.2939ZM24.6064 297V293.753H24.6553L26.9697 297H28.0098V291.668H26.7842V294.886H26.7354L24.4307 291.668H23.3857V297H24.6064Z" fill="white"/>
<rect x="44" y="343.5" width="7" height="7" rx="1" fill="white"/>
<path d="M50.0106 349.5H48.3096L48.0036 348.204C47.9916 348.156 47.9706 348.075 47.9406 347.961C47.9166 347.841 47.8866 347.754 47.8506 347.7C47.8146 347.64 47.7636 347.601 47.6976 347.583C47.5296 347.589 47.2836 347.592 46.9596 347.592V349.5H45.3396V344.415C46.0656 344.361 46.7436 344.334 47.3736 344.334C47.9436 344.334 48.4056 344.382 48.7596 344.478C49.1136 344.568 49.3776 344.727 49.5516 344.955C49.7316 345.177 49.8216 345.483 49.8216 345.873C49.8216 346.239 49.7376 346.527 49.5696 346.737C49.4016 346.941 49.1316 347.064 48.7596 347.106V347.16C48.9696 347.178 49.1436 347.247 49.2816 347.367C49.4256 347.481 49.5216 347.628 49.5696 347.808L50.0106 349.5ZM46.9596 346.575C47.0136 346.581 47.1186 346.584 47.2746 346.584C47.7366 346.584 48.0066 346.545 48.0846 346.467C48.1566 346.395 48.1926 346.227 48.1926 345.963C48.1926 345.717 48.1266 345.549 47.9946 345.459C47.8686 345.369 47.6586 345.324 47.3646 345.324C47.2986 345.324 47.1636 345.33 46.9596 345.342V346.575Z" fill="#457B9D"/>
<rect x="44" y="309.5" width="7" height="7" rx="1" fill="white"/>
<path d="M45.7919 310.37H47.4119V314.312H49.5089V315.5H45.7919V310.37Z" fill="#457B9D"/>
<path d="M7.76953 44.4473C7.78418 45.3457 8.50195 46.0977 10.0303 46.0977C11.5342 46.0977 12.3301 45.3848 12.3301 44.3838C12.3301 43.4463 11.71 43.0361 10.8115 42.8604L10.0254 42.709C9.47363 42.5967 9.2002 42.4355 9.2002 42.123C9.2002 41.7812 9.50781 41.5225 10.0693 41.5225C10.6553 41.5225 10.9971 41.8154 11.0264 42.1865H12.2324C12.2227 41.3369 11.4902 40.5654 10.0742 40.5654C8.76562 40.5654 7.8916 41.2197 7.8916 42.2207C7.8916 43.0898 8.44824 43.5439 9.44434 43.7441L10.1914 43.8955C10.7578 44.0127 11.0361 44.1787 11.0361 44.5107C11.0361 44.8721 10.7236 45.1309 10.084 45.1309C9.44922 45.1309 9.04883 44.833 9.01953 44.4473H7.76953ZM18.9043 46V40.668H17.5957V42.792H15.457V40.668H14.1484V46H15.457V43.8076H17.5957V46H18.9043ZM21.7871 46L22.1729 44.75H23.9551L24.3311 46H25.7178L23.8916 40.668H22.3096L20.4785 46H21.7871ZM23.1006 41.8008L23.7109 43.8418H22.417L23.0371 41.8008H23.1006ZM31.6084 42.4746C31.6084 41.4834 30.9199 40.668 29.6504 40.668H27.2969V46H28.6006V44.3301H29.6406C30.9102 44.3301 31.6084 43.4756 31.6084 42.4746ZM30.2803 42.5039C30.2803 43.041 29.9678 43.3828 29.4258 43.3828H28.5957V41.6299H29.377C29.9482 41.6299 30.2803 41.9473 30.2803 42.5039ZM37.0645 45.0039H34.6084V43.7783H36.9131V42.8506H34.6084V41.6641H37.0645V40.668H33.3145V46H37.0645V45.0039Z" fill="white"/>
<path d="M7 69C7 61.064 13.0372 54.4305 20.9381 53.6851L60 50H62C72.4934 50 81 58.5066 81 69C81 79.4934 72.4934 88 62 88H60L20.9381 84.3149C13.0372 83.5695 7 76.936 7 69Z" fill="#36617C"/>
<path d="M81.8 94.42H79V89.52H75V94.42H72.2" stroke="white" stroke-width="1.2" stroke-linecap="round" stroke-linejoin="round"/>
<path d="M51.8 94.42L50.4267 94.42M50.4267 94.42L46.4726 94.42M50.4267 94.42V91M46.4726 97V94.42M43.669 92.5V94.42M42.2 94.42L43.669 94.42M46.4726 94.42L43.669 94.42" stroke="white" stroke-width="1.2" stroke-linecap="round" stroke-linejoin="round"/>
<path d="M57 43.8478C57 43.8478 58.1928 41.4772 59.5 41.5207C60.8072 41.5643 62 43.8478 62 43.8478C62 43.8478 63.3484 46.4233 64.5 46.4233C65.6516 46.4233 67 43.8478 67 43.8478" stroke="white" stroke-width="1.2" stroke-linecap="round"/>
<rect x="8" y="116" width="30" height="66.1696" rx="15" fill="#36617C"/>
<path d="M14.2314 111V107.65H14.2998L15.5254 110.219H16.3066L17.5273 107.65H17.5859V111H18.7676V105.668H17.4297L15.9453 108.764H15.9014L14.417 105.668H13.0742V111H14.2314ZM23.1348 111.098C24.7217 111.098 25.625 110.126 25.625 108.637V108.036C25.625 106.542 24.7168 105.57 23.1299 105.57C21.5479 105.57 20.6396 106.537 20.6396 108.036V108.637C20.6396 110.126 21.5527 111.098 23.1348 111.098ZM23.1348 110.077C22.4072 110.077 21.9727 109.535 21.9727 108.642V108.021C21.9727 107.128 22.4072 106.591 23.1348 106.591C23.8574 106.591 24.292 107.128 24.292 108.021V108.642C24.292 109.535 23.8574 110.077 23.1348 110.077ZM32.2139 108.314C32.2139 106.635 31.3887 105.668 29.6699 105.668H27.4922V111H29.6699C31.3691 111 32.2139 110.019 32.2139 108.314ZM30.876 108.339C30.876 109.647 30.2949 110.004 29.4551 110.004H28.8008V106.664H29.4551C30.5098 106.664 30.876 107.353 30.876 108.339Z" fill="white"/>
<path d="M58.7285 140H59.9492L61.4043 134.673H60.0176L59.2754 138.325H59.2119L58.2744 134.673H57.1904L56.2529 138.325H56.1895L55.4424 134.673H54.0557L55.5156 140H56.7314L57.7031 136.548H57.7568L58.7285 140ZM63.4619 140L63.8477 138.75H65.6299L66.0059 140H67.3926L65.5664 134.668H63.9844L62.1533 140H63.4619ZM64.7754 135.801L65.3857 137.842H64.0918L64.7119 135.801H64.7754ZM71.4619 140L73.2588 134.668H71.8086L70.71 138.672H70.6465L69.5332 134.668H68.0146L69.8359 140H71.4619ZM78.5537 139.004H76.0977V137.778H78.4023V136.851H76.0977V135.664H78.5537V134.668H74.8037V140H78.5537V139.004ZM58.2314 148V144.65H58.2998L59.5254 147.219H60.3066L61.5273 144.65H61.5859V148H62.7676V142.668H61.4297L59.9453 145.764H59.9014L58.417 142.668H57.0742V148H58.2314ZM67.1348 148.098C68.7217 148.098 69.625 147.126 69.625 145.637V145.036C69.625 143.542 68.7168 142.57 67.1299 142.57C65.5479 142.57 64.6396 143.537 64.6396 145.036V145.637C64.6396 147.126 65.5527 148.098 67.1348 148.098ZM67.1348 147.077C66.4072 147.077 65.9727 146.535 65.9727 145.642V145.021C65.9727 144.128 66.4072 143.591 67.1348 143.591C67.8574 143.591 68.292 144.128 68.292 145.021V145.642C68.292 146.535 67.8574 147.077 67.1348 147.077ZM76.2139 145.314C76.2139 143.635 75.3887 142.668 73.6699 142.668H71.4922V148H73.6699C75.3691 148 76.2139 147.019 76.2139 145.314ZM74.876 145.339C74.876 146.647 74.2949 147.004 73.4551 147.004H72.8008V143.664H73.4551C74.5098 143.664 74.876 144.353 74.876 145.339Z" fill="white"/>
</svg>
