<svg width="90" height="380" viewBox="0 0 90 380" fill="none" xmlns="http://www.w3.org/2000/svg">
<rect width="90" height="380" fill="#457B9D"/>
<g opacity="0.5">
<path fill-rule="evenodd" clip-rule="evenodd" d="M38.958 375.599C38.803 375.747 38.659 375.851 38.526 375.909C38.393 375.968 38.251 375.998 38.1 375.998C37.948 375.998 37.806 375.97 37.673 375.914C37.54 375.858 37.424 375.781 37.325 375.682C37.109 375.466 37 375.209 37 374.912V369.385C37 369.082 37.078 368.847 37.232 368.68C37.498 368.408 37.75 368.272 37.988 368.272C38.226 368.272 38.404 368.296 38.522 368.346C38.639 368.395 38.738 368.457 38.818 368.531C38.924 368.624 39.002 368.723 39.055 368.828C39.108 368.933 39.151 369.011 39.185 369.06C39.219 369.11 39.275 369.134 39.352 369.134C39.429 369.134 39.496 369.11 39.551 369.06L39.709 368.902C40.16 368.482 40.612 368.272 41.063 368.272C41.861 368.272 42.519 368.599 43.039 369.255C43.088 369.323 43.15 369.357 43.224 369.357C43.354 369.357 43.486 369.256 43.619 369.055C43.752 368.854 43.966 368.674 44.263 368.513C44.56 368.352 44.906 368.272 45.302 368.272C45.698 368.272 46.058 368.344 46.383 368.49C46.707 368.635 46.99 368.834 47.231 369.088C47.738 369.62 47.992 370.263 47.992 371.017V374.912C47.992 375.382 47.769 375.713 47.324 375.905C47.188 375.967 47.044 375.998 46.893 375.998C46.741 375.998 46.599 375.97 46.466 375.914C46.333 375.858 46.217 375.781 46.118 375.682C45.908 375.46 45.803 375.203 45.803 374.912V371.045C45.803 370.736 45.726 370.504 45.571 370.349C45.299 370.077 45.049 369.941 44.82 369.941C44.591 369.941 44.412 369.971 44.282 370.029C44.152 370.088 44.034 370.17 43.929 370.275C43.713 370.492 43.605 370.742 43.605 371.026V374.912C43.605 375.382 43.385 375.713 42.946 375.905C42.81 375.967 42.666 375.998 42.515 375.998C42.363 375.998 42.22 375.97 42.083 375.914C41.947 375.858 41.83 375.781 41.731 375.682C41.515 375.466 41.406 375.209 41.406 374.912V371.045C41.406 370.736 41.329 370.504 41.174 370.349C40.902 370.077 40.618 369.941 40.321 369.941C39.826 369.941 39.483 370.133 39.292 370.516C39.23 370.64 39.199 370.779 39.199 370.934V374.912C39.199 375.215 39.118 375.444 38.958 375.599ZM50.219 369.387C50.219 369.084 50.296 368.849 50.451 368.682C50.716 368.41 51.01 368.274 51.332 368.274C51.641 368.274 51.87 368.355 52.018 368.515C52.29 368.794 52.426 369.084 52.426 369.387V374.915C52.426 375.212 52.349 375.437 52.194 375.592C51.922 375.864 51.672 376 51.443 376C51.214 376 51.032 375.971 50.896 375.912C50.76 375.853 50.642 375.777 50.543 375.685C50.327 375.474 50.219 375.218 50.219 374.915V369.387ZM51.327 365.9C51.065 365.9 50.852 365.687 50.852 365.425C50.852 365.162 51.065 364.95 51.327 364.95C51.589 364.95 51.802 365.162 51.802 365.425C51.802 365.687 51.589 365.9 51.327 365.9ZM51.327 364C51.714 364 52.048 364.142 52.329 364.425C52.611 364.709 52.752 364.996 52.752 365.287C52.752 365.577 52.713 365.807 52.635 365.978C52.558 366.148 52.456 366.297 52.329 366.424C52.048 366.708 51.714 366.849 51.327 366.849C50.94 366.849 50.606 366.708 50.324 366.424C50.043 366.141 49.902 365.857 49.902 365.574C49.902 365.092 50.043 364.709 50.324 364.425C50.606 364.142 50.94 364 51.327 364Z" fill="#1D3557"/>
</g>
<path d="M14.9406 22.8654H12.2406L10.4766 16.0254H12.7806L13.6926 21.0534H13.7526L14.7246 16.0254H16.9806L17.9766 21.0534H18.0126L18.9366 16.0254H21.1446L19.3806 22.8654H16.6926L15.8766 18.4974H15.8046L14.9406 22.8654ZM25.5444 21.3654H23.5524L23.1924 22.8654H20.9844L23.1924 16.0254H26.0124L28.1244 22.8654H25.9044L25.5444 21.3654ZM24.5364 17.5014L23.8284 20.0334H25.2564L24.5844 17.5014H24.5364ZM32.3881 16.0254H34.6681L32.8201 22.8654H29.6881L27.8281 16.0254H30.1201L31.2241 21.3774H31.2841L32.3881 16.0254ZM35.2119 16.0254H40.1919V17.4654H37.3719V18.7134H39.7479V20.0094H37.3719V21.4014H40.1799V22.8654H35.2119V16.0254ZM43.0758 17.8734C43.0758 18.0414 43.1598 18.1734 43.3278 18.2694C43.5038 18.3654 43.7758 18.4694 44.1438 18.5814C44.5838 18.7254 44.9438 18.8654 45.2238 19.0014C45.5118 19.1374 45.7598 19.3494 45.9678 19.6374C46.1838 19.9254 46.2918 20.3014 46.2918 20.7654C46.2918 22.2534 45.3238 22.9974 43.3878 22.9974C43.0678 22.9974 42.6758 22.9694 42.2118 22.9134C41.7558 22.8574 41.3398 22.7854 40.9638 22.6974C40.9798 22.5294 41.0118 22.2854 41.0598 21.9654C41.1158 21.6374 41.1678 21.3934 41.2158 21.2334C41.4958 21.2734 41.9158 21.3214 42.4758 21.3774C43.0438 21.4334 43.4718 21.4614 43.7598 21.4614C43.9278 21.4614 44.0278 21.4494 44.0598 21.4254C44.1078 21.3934 44.1438 21.3414 44.1678 21.2694C44.1998 21.1894 44.2158 21.1214 44.2158 21.0654C44.2158 20.9054 44.1398 20.7854 43.9878 20.7054C43.8358 20.6174 43.5758 20.5134 43.2078 20.3934C42.7678 20.2574 42.4038 20.1174 42.1158 19.9734C41.8278 19.8294 41.5758 19.6054 41.3598 19.3014C41.1438 18.9974 41.0358 18.5974 41.0358 18.1014C41.0358 17.7494 41.1158 17.4054 41.2758 17.0694C41.4358 16.7254 41.5998 16.4934 41.7678 16.3734C41.8958 16.2854 42.1598 16.2014 42.5598 16.1214C42.9598 16.0414 43.3358 16.0014 43.6878 16.0014C44.5838 16.0014 45.3158 16.0854 45.8838 16.2534C45.8758 16.4134 45.8478 16.6334 45.7998 16.9134C45.7598 17.1934 45.7158 17.4494 45.6678 17.6814L45.3918 17.6694C44.3518 17.5974 43.6878 17.5614 43.3998 17.5614C43.2798 17.5614 43.2118 17.5654 43.1958 17.5734C43.1638 17.5894 43.1358 17.6254 43.1118 17.6814C43.0878 17.7374 43.0758 17.8014 43.0758 17.8734ZM47.2956 16.0254H49.4676V18.5334H51.3276V16.0254H53.4996V22.8654H51.3276V19.9134H49.4676V22.8654H47.2956V16.0254ZM58.6733 21.3654H56.6813L56.3213 22.8654H54.1133L56.3213 16.0254H59.1413L61.2533 22.8654H59.0333L58.6733 21.3654ZM57.6653 17.5014L56.9573 20.0334H58.3853L57.7133 17.5014H57.6653ZM64.61 15.9894C65.258 15.9894 65.806 16.0494 66.254 16.1694C66.702 16.2894 67.058 16.5214 67.322 16.8654C67.594 17.2014 67.73 17.6854 67.73 18.3174C67.73 18.5974 67.686 18.8854 67.598 19.1814C67.518 19.4694 67.414 19.7214 67.286 19.9374C67.166 20.1534 67.058 20.2934 66.962 20.3574C66.85 20.4374 66.602 20.5014 66.218 20.5494C65.834 20.5894 65.382 20.6094 64.862 20.6094C64.678 20.6094 64.394 20.6014 64.01 20.5854V22.8654H61.85V16.0254C62.69 16.0014 63.61 15.9894 64.61 15.9894ZM65.51 19.0734C65.59 18.9694 65.63 18.7614 65.63 18.4494C65.63 18.0414 65.542 17.7534 65.366 17.5854C65.198 17.4174 64.902 17.3334 64.478 17.3334C64.334 17.3334 64.178 17.3454 64.01 17.3694V19.1934C64.09 19.2014 64.246 19.2054 64.478 19.2054C65.094 19.2054 65.438 19.1614 65.51 19.0734ZM68.4345 16.0254H73.4145V17.4654H70.5945V18.7134H72.9705V20.0094H70.5945V21.4014H73.4025V22.8654H68.4345V16.0254ZM80.5585 22.8654H78.2905L77.8825 21.1374C77.8665 21.0734 77.8385 20.9654 77.7985 20.8134C77.7665 20.6534 77.7265 20.5374 77.6785 20.4654C77.6305 20.3854 77.5625 20.3334 77.4745 20.3094C77.2505 20.3174 76.9225 20.3214 76.4905 20.3214V22.8654H74.3305V16.0854C75.2985 16.0134 76.2025 15.9774 77.0425 15.9774C77.8025 15.9774 78.4185 16.0414 78.8905 16.1694C79.3625 16.2894 79.7145 16.5014 79.9465 16.8054C80.1865 17.1014 80.3065 17.5094 80.3065 18.0294C80.3065 18.5174 80.1945 18.9014 79.9705 19.1814C79.7465 19.4534 79.3865 19.6174 78.8905 19.6734V19.7454C79.1705 19.7694 79.4025 19.8614 79.5865 20.0214C79.7785 20.1734 79.9065 20.3694 79.9705 20.6094L80.5585 22.8654ZM76.4905 18.9654C76.5625 18.9734 76.7025 18.9774 76.9105 18.9774C77.5265 18.9774 77.8865 18.9254 77.9905 18.8214C78.0865 18.7254 78.1345 18.5014 78.1345 18.1494C78.1345 17.8214 78.0465 17.5974 77.8705 17.4774C77.7025 17.3574 77.4225 17.2974 77.0305 17.2974C76.9425 17.2974 76.7625 17.3054 76.4905 17.3214V18.9654Z" fill="#A8DADC"/>
<path d="M19.56 308.796C19.288 308.796 19.052 308.704 18.852 308.52C18.66 308.336 18.564 308.116 18.564 307.86C18.564 307.604 18.66 307.384 18.852 307.2C19.052 307.016 19.288 306.924 19.56 306.924C19.832 306.924 20.064 307.016 20.256 307.2C20.448 307.384 20.544 307.604 20.544 307.86C20.544 308.116 20.448 308.336 20.256 308.52C20.064 308.704 19.832 308.796 19.56 308.796ZM18.528 309.48H20.58V315H18.528V309.48ZM26.9375 309.828C27.0095 309.916 27.0615 310.136 27.0935 310.488C27.1335 310.84 27.1535 311.376 27.1535 312.096V315H25.1015V312.12V311.628C25.1015 311.372 25.0815 311.212 25.0415 311.148C24.9775 311.068 24.8295 311.028 24.5975 311.028C24.4855 311.028 24.4015 311.032 24.3455 311.04C24.1215 311.048 23.8895 311.1 23.6495 311.196V315H21.5975V309.48H23.2655L23.4935 310.404C24.0695 309.708 24.7575 309.36 25.5575 309.36C25.8455 309.36 26.1135 309.4 26.3615 309.48C26.6175 309.56 26.8095 309.676 26.9375 309.828Z" fill="#A8DADC"/>
<path d="M61.5076 315.156C60.5476 315.156 59.8276 314.932 59.3476 314.484C58.8756 314.028 58.6396 313.312 58.6396 312.336C58.6396 311.8 58.6876 311.332 58.7836 310.932C58.8876 310.524 59.0116 310.24 59.1556 310.08C59.3396 309.872 59.6756 309.7 60.1636 309.564C60.6596 309.428 61.1236 309.36 61.5556 309.36C62.5876 309.36 63.3236 309.58 63.7636 310.02C64.2036 310.46 64.4236 311.164 64.4236 312.132C64.4236 313.172 64.1876 313.936 63.7156 314.424C63.2436 314.912 62.5076 315.156 61.5076 315.156ZM61.5436 313.752C61.8556 313.752 62.0596 313.644 62.1556 313.428C62.2516 313.204 62.2996 312.812 62.2996 312.252C62.2996 311.86 62.2796 311.56 62.2396 311.352C62.1996 311.136 62.1236 310.98 62.0116 310.884C61.9076 310.78 61.7436 310.728 61.5196 310.728C61.1996 310.728 61.0156 310.756 60.9676 310.812C60.9036 310.868 60.8516 311.044 60.8116 311.34C60.7716 311.636 60.7516 311.944 60.7516 312.264C60.7516 312.808 60.8036 313.192 60.9076 313.416C61.0196 313.64 61.2316 313.752 61.5436 313.752ZM70.7268 309.48V315H69.0588L68.8308 314.076C68.2548 314.772 67.5668 315.12 66.7668 315.12C66.4788 315.12 66.2068 315.08 65.9508 315C65.7028 314.92 65.5148 314.804 65.3868 314.652C65.3148 314.564 65.2588 314.344 65.2188 313.992C65.1868 313.64 65.1708 313.104 65.1708 312.384V309.48H67.2228V312.36C67.2228 312.52 67.2268 312.708 67.2348 312.924C67.2428 313.14 67.2668 313.276 67.3068 313.332C67.3628 313.412 67.5228 313.452 67.7868 313.452L67.9788 313.44C68.2028 313.432 68.4348 313.38 68.6748 313.284V309.48H70.7268ZM74.2548 312.732C74.2548 312.876 74.2588 313.028 74.2668 313.188C74.2748 313.34 74.2988 313.436 74.3388 313.476C74.3948 313.532 74.5908 313.56 74.9268 313.56L75.3348 313.548C75.4068 313.932 75.4428 314.376 75.4428 314.88C75.2908 314.936 75.0668 314.988 74.7708 315.036C74.4828 315.084 74.2068 315.108 73.9428 315.108C73.3908 315.108 72.9628 314.988 72.6588 314.748C72.3628 314.5 72.2148 314.12 72.2148 313.608V310.656H71.3148V309.564L72.2148 309.48L72.7548 308.16L74.2548 308.076V309.48H75.5268V310.656H74.2548V312.732Z" fill="#A8DADC"/>
<path d="M12.3026 203.825C12.4066 203.825 12.5146 203.837 12.6266 203.861C12.7466 203.885 12.8346 203.913 12.8906 203.945C12.8906 204.121 12.8706 204.413 12.8306 204.821C12.7906 205.221 12.7546 205.505 12.7226 205.673C12.6426 205.665 12.4946 205.661 12.2786 205.661C11.7746 205.661 11.3266 205.689 10.9346 205.745V209.465H8.88263V203.945H10.5986L10.8386 204.833H10.8506C11.0826 204.529 11.3306 204.285 11.5946 204.101C11.8586 203.917 12.0946 203.825 12.3026 203.825ZM16.3542 209.465L16.1622 208.709C15.7942 209.309 15.2822 209.609 14.6262 209.609C14.0902 209.609 13.6502 209.461 13.3062 209.165C12.9702 208.861 12.8022 208.437 12.8022 207.893C12.8022 207.557 12.8982 207.265 13.0902 207.017C13.2902 206.761 13.5622 206.581 13.9062 206.477C14.3542 206.349 15.0462 206.277 15.9822 206.261C15.9822 205.733 15.9582 205.453 15.9102 205.421C15.8702 205.389 15.7422 205.373 15.5262 205.373C15.3902 205.373 15.2022 205.381 14.9622 205.397C14.5782 205.413 14.0582 205.457 13.4022 205.529C13.3382 205.097 13.2902 204.633 13.2582 204.137C13.6822 204.049 14.1262 203.977 14.5902 203.921C15.0542 203.857 15.4702 203.825 15.8382 203.825C16.4782 203.825 16.9582 203.933 17.2782 204.149C17.5982 204.357 17.8062 204.633 17.9022 204.977C17.9982 205.321 18.0422 205.757 18.0342 206.285L18.0222 208.049L18.0582 209.465H16.3542ZM15.3222 208.265C15.5302 208.265 15.7502 208.225 15.9822 208.145V207.257H15.8862C15.2942 207.257 14.9662 207.289 14.9022 207.353C14.8622 207.393 14.8302 207.453 14.8062 207.533C14.7902 207.613 14.7822 207.689 14.7822 207.761C14.7822 207.953 14.8262 208.085 14.9142 208.157C15.0022 208.229 15.1382 208.265 15.3222 208.265ZM24.3008 204.293C24.3728 204.381 24.4248 204.601 24.4568 204.953C24.4968 205.305 24.5168 205.841 24.5168 206.561V209.465H22.4648V206.585V206.093C22.4648 205.837 22.4448 205.677 22.4048 205.613C22.3408 205.533 22.1928 205.493 21.9608 205.493C21.8488 205.493 21.7648 205.497 21.7088 205.505C21.4848 205.513 21.2528 205.565 21.0128 205.661V209.465H18.9608V203.945H20.6288L20.8568 204.869C21.4328 204.173 22.1208 203.825 22.9208 203.825C23.2088 203.825 23.4768 203.865 23.7248 203.945C23.9808 204.025 24.1728 204.141 24.3008 204.293ZM28.3447 203.849C28.7207 203.849 29.1127 203.877 29.5207 203.933C29.9287 203.981 30.4047 204.049 30.9487 204.137V208.913C30.9487 210.057 30.5687 210.945 29.8087 211.577C29.7127 211.657 29.4967 211.725 29.1607 211.781C28.8247 211.837 28.4447 211.865 28.0207 211.865C27.1007 211.865 26.3727 211.745 25.8367 211.505C25.8287 211.329 25.8407 211.097 25.8727 210.809C25.9127 210.521 25.9527 210.293 25.9927 210.125C26.5687 210.213 27.1327 210.257 27.6847 210.257C27.9647 210.257 28.2007 210.241 28.3927 210.209C28.5927 210.185 28.7167 210.145 28.7647 210.089C28.8287 210.025 28.8767 209.785 28.9087 209.369C28.9167 209.257 28.9207 209.093 28.9207 208.877V208.577C28.7207 208.873 28.4647 209.085 28.1527 209.213C27.8407 209.341 27.5607 209.405 27.3127 209.405C26.6407 209.405 26.1327 209.185 25.7887 208.745C25.4447 208.305 25.2727 207.661 25.2727 206.813C25.2727 206.253 25.3487 205.729 25.5007 205.241C25.6607 204.745 25.8767 204.401 26.1487 204.209C26.3247 204.089 26.6087 204.001 27.0007 203.945C27.4007 203.881 27.8487 203.849 28.3447 203.849ZM28.0927 207.905C28.3887 207.905 28.6567 207.857 28.8967 207.761V205.253C28.8087 205.237 28.6767 205.221 28.5007 205.205C28.4207 205.197 28.3007 205.193 28.1407 205.193C27.8927 205.193 27.7367 205.217 27.6727 205.265C27.5847 205.329 27.5127 205.509 27.4567 205.805C27.4087 206.093 27.3847 206.397 27.3847 206.717C27.3847 207.157 27.4327 207.465 27.5287 207.641C27.6327 207.817 27.8207 207.905 28.0927 207.905ZM35.2697 208.025C35.4697 208.025 35.8417 208.005 36.3857 207.965C36.4577 207.965 36.5897 207.957 36.7817 207.941L36.9617 209.177C36.3457 209.465 35.5457 209.609 34.5617 209.609C33.6417 209.609 32.9337 209.377 32.4377 208.913C31.9497 208.449 31.7057 207.749 31.7057 206.813C31.7057 206.333 31.7657 205.869 31.8857 205.421C32.0137 204.973 32.1577 204.661 32.3177 204.485C32.4857 204.309 32.7977 204.157 33.2537 204.029C33.7097 203.901 34.1617 203.837 34.6097 203.837C35.3297 203.837 35.8697 203.965 36.2297 204.221C36.5897 204.477 36.8257 204.833 36.9377 205.289C37.0497 205.737 37.1057 206.341 37.1057 207.101C36.5617 207.133 36.0297 207.149 35.5097 207.149H33.8057C33.8057 207.405 33.8577 207.597 33.9617 207.725C34.0737 207.853 34.2297 207.937 34.4297 207.977C34.6297 208.009 34.9097 208.025 35.2697 208.025ZM33.9257 205.265C33.8777 205.289 33.8417 205.393 33.8177 205.577C33.7937 205.761 33.7777 205.969 33.7697 206.201H34.3937C34.7697 206.201 35.0417 206.197 35.2097 206.189C35.2097 205.805 35.1537 205.533 35.0417 205.373C34.9377 205.213 34.7537 205.133 34.4897 205.133C34.2737 205.133 34.0857 205.177 33.9257 205.265Z" fill="#A8DADC"/>
<path d="M71.3046 202.625V209.465H69.2046V204.353L67.7166 204.665L67.4886 203.405L69.6126 202.625H71.3046ZM75.4886 202.541C76.1526 202.541 76.7046 202.629 77.1446 202.805C77.5846 202.973 77.9326 203.317 78.1886 203.837C78.4446 204.349 78.5726 205.097 78.5726 206.081C78.5726 207.025 78.4486 207.757 78.2006 208.277C77.9526 208.789 77.6046 209.141 77.1566 209.333C76.7166 209.525 76.1646 209.621 75.5006 209.621C74.5406 209.621 73.8046 209.369 73.2926 208.865C72.7806 208.353 72.5246 207.477 72.5246 206.237C72.5246 204.989 72.7726 204.061 73.2686 203.453C73.7646 202.845 74.5046 202.541 75.4886 202.541ZM75.5606 208.073C75.9606 208.073 76.2206 207.917 76.3406 207.605C76.4606 207.285 76.5206 206.785 76.5206 206.105C76.5206 205.409 76.4486 204.897 76.3046 204.569C76.1606 204.233 75.8886 204.065 75.4886 204.065C75.2086 204.065 75.0206 204.113 74.9246 204.209C74.8526 204.289 74.7886 204.529 74.7326 204.929C74.6846 205.329 74.6606 205.737 74.6606 206.153C74.6606 206.857 74.7286 207.353 74.8646 207.641C75.0086 207.929 75.2406 208.073 75.5606 208.073ZM83.0049 203.945H85.1529L83.4729 209.465H80.6289L78.9489 203.945H81.0969L81.9969 208.181H82.1169L83.0049 203.945Z" fill="#A8DADC"/>
<path d="M53.7584 205.193C54.5744 205.193 55.1744 205.401 55.5584 205.817C55.9424 206.225 56.1344 206.753 56.1344 207.401C56.1344 208.873 55.1144 209.609 53.0744 209.609C52.4184 209.609 51.6704 209.545 50.8304 209.417L51.0944 208.097C51.7584 208.169 52.2544 208.205 52.5824 208.205C53.0704 208.205 53.4424 208.137 53.6984 208.001C53.9544 207.865 54.0824 207.633 54.0824 207.305C54.0824 207.193 54.0624 207.077 54.0224 206.957C53.9904 206.829 53.9384 206.749 53.8664 206.717C53.8344 206.701 53.7464 206.685 53.6024 206.669C53.4664 206.653 53.3024 206.645 53.1104 206.645C52.5184 206.645 51.9384 206.693 51.3704 206.789L51.3104 206.729L51.8024 202.625H55.8584V204.221L53.2904 204.209L53.1584 205.229C53.3744 205.205 53.5744 205.193 53.7584 205.193ZM60.4815 203.945H62.6295L60.9495 209.465H58.1055L56.4255 203.945H58.5735L59.4735 208.181H59.5935L60.4815 203.945Z" fill="#A8DADC"/>
<path d="M7 228C7 220.268 13.268 214 21 214H76C79.3137 214 82 216.686 82 220V236C82 239.314 79.3137 242 76 242H21C13.268 242 7 235.732 7 228Z" fill="#36617C"/>
<path d="M28.7957 251.093C29.4197 251.093 29.8997 251.281 30.2357 251.657C30.5797 252.033 30.7517 252.697 30.7517 253.649C30.7517 254.345 30.6797 254.941 30.5357 255.437C30.3997 255.925 30.2437 256.237 30.0677 256.373C29.8597 256.541 29.5517 256.665 29.1437 256.745C28.7357 256.825 28.2717 256.865 27.7517 256.865C27.3517 256.865 26.9037 256.833 26.4077 256.769C25.9117 256.713 25.4677 256.621 25.0757 256.493V249.533L27.1517 249.449V250.577C27.1517 250.641 27.1477 250.789 27.1397 251.021C27.1397 251.253 27.1317 251.449 27.1157 251.609C27.0997 251.761 27.0757 251.877 27.0437 251.957L27.1157 252.041C27.2997 251.761 27.5317 251.533 27.8117 251.357C28.0917 251.181 28.4197 251.093 28.7957 251.093ZM28.4597 255.425C28.5077 255.345 28.5477 255.157 28.5797 254.861C28.6197 254.565 28.6397 254.281 28.6397 254.009C28.6397 253.689 28.6237 253.437 28.5917 253.253C28.5677 253.069 28.4997 252.925 28.3877 252.821C28.2837 252.709 28.1197 252.653 27.8957 252.653C27.6957 252.653 27.4397 252.681 27.1277 252.737V255.449C27.4237 255.497 27.7317 255.521 28.0517 255.521C28.2837 255.521 28.4197 255.489 28.4597 255.425ZM37.2567 251.213L35.8167 255.833C35.5367 256.721 35.2847 257.365 35.0607 257.765C34.8367 258.173 34.6127 258.457 34.3887 258.617C34.2607 258.705 34.0567 258.773 33.7767 258.821C33.5047 258.869 33.2087 258.893 32.8887 258.893C32.4087 258.893 32.0247 258.849 31.7367 258.761C31.7287 258.569 31.7367 258.333 31.7607 258.053C31.7847 257.781 31.8167 257.549 31.8567 257.357C32.1927 257.373 32.5207 257.381 32.8407 257.381C33.0807 257.381 33.2607 257.377 33.3807 257.369C33.5007 257.137 33.6127 256.893 33.7167 256.637L32.8887 256.589L31.0407 251.213H33.2127L34.1727 255.077L34.1847 255.305H34.2207L35.0847 251.213H37.2567ZM41.5242 251.093C42.1002 251.093 42.5562 251.285 42.8922 251.669C43.2362 252.045 43.4082 252.705 43.4082 253.649C43.4082 254.353 43.3402 254.929 43.2042 255.377C43.0682 255.817 42.9122 256.109 42.7362 256.253C42.5602 256.397 42.2522 256.513 41.8122 256.601C41.3802 256.689 40.9322 256.733 40.4682 256.733C40.3322 256.733 40.1042 256.725 39.7842 256.709V258.413L37.7322 258.497V251.213H39.4122L39.6162 252.065C39.8242 251.769 40.0882 251.533 40.4082 251.357C40.7362 251.181 41.1082 251.093 41.5242 251.093ZM41.0442 255.269C41.1322 255.205 41.1962 255.025 41.2362 254.729C41.2762 254.425 41.2962 254.137 41.2962 253.865C41.2962 253.417 41.2402 253.085 41.1282 252.869C41.0162 252.653 40.7922 252.545 40.4562 252.545C40.2162 252.545 39.9922 252.569 39.7842 252.617V255.281L40.1202 255.317C40.2242 255.325 40.3722 255.329 40.5642 255.329C40.8362 255.329 40.9962 255.309 41.0442 255.269ZM47.5007 256.733L47.3087 255.977C46.9407 256.577 46.4287 256.877 45.7727 256.877C45.2367 256.877 44.7967 256.729 44.4527 256.433C44.1167 256.129 43.9487 255.705 43.9487 255.161C43.9487 254.825 44.0447 254.533 44.2367 254.285C44.4367 254.029 44.7087 253.849 45.0527 253.745C45.5007 253.617 46.1927 253.545 47.1287 253.529C47.1287 253.001 47.1047 252.721 47.0567 252.689C47.0167 252.657 46.8887 252.641 46.6727 252.641C46.5367 252.641 46.3487 252.649 46.1087 252.665C45.7247 252.681 45.2047 252.725 44.5487 252.797C44.4847 252.365 44.4367 251.901 44.4047 251.405C44.8287 251.317 45.2727 251.245 45.7367 251.189C46.2007 251.125 46.6167 251.093 46.9847 251.093C47.6247 251.093 48.1047 251.201 48.4247 251.417C48.7447 251.625 48.9527 251.901 49.0487 252.245C49.1447 252.589 49.1887 253.025 49.1807 253.553L49.1687 255.317L49.2047 256.733H47.5007ZM46.4687 255.533C46.6767 255.533 46.8967 255.493 47.1287 255.413V254.525H47.0327C46.4407 254.525 46.1127 254.557 46.0487 254.621C46.0087 254.661 45.9767 254.721 45.9527 254.801C45.9367 254.881 45.9287 254.957 45.9287 255.029C45.9287 255.221 45.9727 255.353 46.0607 255.425C46.1487 255.497 46.2847 255.533 46.4687 255.533ZM54.5712 254.861C54.5712 255.573 54.3432 256.085 53.8872 256.397C53.4392 256.709 52.7992 256.865 51.9672 256.865C51.3832 256.865 50.7112 256.781 49.9512 256.613C49.9672 256.453 50.0032 256.225 50.0592 255.929C50.1232 255.625 50.1752 255.393 50.2152 255.233C50.5032 255.281 50.8232 255.321 51.1752 255.353C51.5272 255.377 51.8272 255.389 52.0752 255.389C52.2912 255.389 52.4232 255.377 52.4712 255.353C52.4792 255.345 52.4872 255.325 52.4952 255.293C52.5112 255.253 52.5192 255.213 52.5192 255.173C52.5192 255.013 52.4192 254.905 52.2192 254.849C52.1552 254.833 51.9112 254.765 51.4872 254.645C51.0632 254.525 50.7152 254.309 50.4432 253.997C50.1792 253.677 50.0472 253.281 50.0472 252.809C50.0472 252.561 50.1032 252.285 50.2152 251.981C50.3272 251.677 50.4472 251.485 50.5752 251.405C50.6712 251.341 50.9032 251.277 51.2712 251.213C51.6392 251.141 51.9792 251.105 52.2912 251.105C52.9552 251.105 53.6232 251.153 54.2952 251.249C54.2952 251.393 54.2752 251.637 54.2352 251.981C54.1952 252.317 54.1592 252.529 54.1272 252.617C53.4472 252.529 52.8992 252.485 52.4832 252.485C52.2672 252.485 52.1272 252.497 52.0632 252.521C52.0472 252.529 52.0312 252.553 52.0152 252.593C51.9992 252.625 51.9912 252.669 51.9912 252.725C51.9912 252.837 52.0272 252.917 52.0992 252.965C52.1712 253.021 52.3592 253.089 52.6632 253.169C53.0232 253.273 53.3312 253.381 53.5872 253.493C53.8512 253.605 54.0792 253.773 54.2712 253.997C54.4712 254.221 54.5712 254.509 54.5712 254.861ZM59.7158 254.861C59.7158 255.573 59.4878 256.085 59.0318 256.397C58.5838 256.709 57.9438 256.865 57.1118 256.865C56.5278 256.865 55.8558 256.781 55.0958 256.613C55.1118 256.453 55.1478 256.225 55.2038 255.929C55.2678 255.625 55.3198 255.393 55.3598 255.233C55.6478 255.281 55.9678 255.321 56.3198 255.353C56.6718 255.377 56.9718 255.389 57.2198 255.389C57.4358 255.389 57.5678 255.377 57.6158 255.353C57.6238 255.345 57.6318 255.325 57.6398 255.293C57.6558 255.253 57.6638 255.213 57.6638 255.173C57.6638 255.013 57.5638 254.905 57.3638 254.849C57.2998 254.833 57.0558 254.765 56.6318 254.645C56.2078 254.525 55.8598 254.309 55.5878 253.997C55.3238 253.677 55.1918 253.281 55.1918 252.809C55.1918 252.561 55.2478 252.285 55.3598 251.981C55.4718 251.677 55.5918 251.485 55.7198 251.405C55.8158 251.341 56.0478 251.277 56.4158 251.213C56.7838 251.141 57.1238 251.105 57.4358 251.105C58.0998 251.105 58.7678 251.153 59.4398 251.249C59.4398 251.393 59.4198 251.637 59.3798 251.981C59.3398 252.317 59.3038 252.529 59.2718 252.617C58.5918 252.529 58.0438 252.485 57.6278 252.485C57.4118 252.485 57.2718 252.497 57.2078 252.521C57.1918 252.529 57.1758 252.553 57.1598 252.593C57.1438 252.625 57.1358 252.669 57.1358 252.725C57.1358 252.837 57.1718 252.917 57.2438 252.965C57.3158 253.021 57.5038 253.089 57.8078 253.169C58.1678 253.273 58.4758 253.381 58.7318 253.493C58.9958 253.605 59.2238 253.773 59.4158 253.997C59.6158 254.221 59.7158 254.509 59.7158 254.861Z" fill="#A8DADC"/>
<rect x="8" y="262" width="74" height="28" rx="14" fill="#36617C"/>
<path d="M11.9912 44.128C11.9912 44.84 11.7632 45.352 11.3072 45.664C10.8592 45.976 10.2192 46.132 9.38716 46.132C8.80316 46.132 8.13116 46.048 7.37116 45.88C7.38716 45.72 7.42316 45.492 7.47916 45.196C7.54316 44.892 7.59516 44.66 7.63516 44.5C7.92316 44.548 8.24316 44.588 8.59516 44.62C8.94716 44.644 9.24716 44.656 9.49516 44.656C9.71116 44.656 9.84316 44.644 9.89116 44.62C9.89916 44.612 9.90716 44.592 9.91516 44.56C9.93116 44.52 9.93916 44.48 9.93916 44.44C9.93916 44.28 9.83916 44.172 9.63916 44.116C9.57516 44.1 9.33116 44.032 8.90716 43.912C8.48316 43.792 8.13516 43.576 7.86316 43.264C7.59916 42.944 7.46716 42.548 7.46716 42.076C7.46716 41.828 7.52316 41.552 7.63516 41.248C7.74716 40.944 7.86716 40.752 7.99516 40.672C8.09116 40.608 8.32316 40.544 8.69116 40.48C9.05916 40.408 9.39916 40.372 9.71116 40.372C10.3752 40.372 11.0432 40.42 11.7152 40.516C11.7152 40.66 11.6952 40.904 11.6552 41.248C11.6152 41.584 11.5792 41.796 11.5472 41.884C10.8672 41.796 10.3192 41.752 9.90316 41.752C9.68716 41.752 9.54716 41.764 9.48316 41.788C9.46716 41.796 9.45116 41.82 9.43516 41.86C9.41916 41.892 9.41116 41.936 9.41116 41.992C9.41116 42.104 9.44716 42.184 9.51916 42.232C9.59116 42.288 9.77916 42.356 10.0832 42.436C10.4432 42.54 10.7512 42.648 11.0072 42.76C11.2712 42.872 11.4992 43.04 11.6912 43.264C11.8912 43.488 11.9912 43.776 11.9912 44.128ZM18.0117 40.828C18.0837 40.916 18.1357 41.136 18.1677 41.488C18.2077 41.84 18.2277 42.376 18.2277 43.096V46H16.1757V43.12C16.1757 43.088 16.1757 42.932 16.1757 42.652C16.1757 42.364 16.1557 42.188 16.1157 42.124C16.0917 42.092 16.0317 42.068 15.9357 42.052C15.8477 42.036 15.7437 42.028 15.6237 42.028L15.4197 42.04C15.1957 42.048 14.9637 42.1 14.7237 42.196V46H12.6717V38.8L14.7237 38.716V40.12C14.7237 40.696 14.7037 41.08 14.6637 41.272L14.6757 41.284C15.2197 40.668 15.8717 40.36 16.6317 40.36C16.9197 40.36 17.1877 40.4 17.4357 40.48C17.6917 40.56 17.8837 40.676 18.0117 40.828ZM22.4636 46L22.2716 45.244C21.9036 45.844 21.3916 46.144 20.7356 46.144C20.1996 46.144 19.7596 45.996 19.4156 45.7C19.0796 45.396 18.9116 44.972 18.9116 44.428C18.9116 44.092 19.0076 43.8 19.1996 43.552C19.3996 43.296 19.6716 43.116 20.0156 43.012C20.4636 42.884 21.1556 42.812 22.0916 42.796C22.0916 42.268 22.0676 41.988 22.0196 41.956C21.9796 41.924 21.8516 41.908 21.6356 41.908C21.4996 41.908 21.3116 41.916 21.0716 41.932C20.6876 41.948 20.1676 41.992 19.5116 42.064C19.4476 41.632 19.3996 41.168 19.3676 40.672C19.7916 40.584 20.2356 40.512 20.6996 40.456C21.1636 40.392 21.5796 40.36 21.9476 40.36C22.5876 40.36 23.0676 40.468 23.3876 40.684C23.7076 40.892 23.9156 41.168 24.0116 41.512C24.1076 41.856 24.1516 42.292 24.1436 42.82L24.1316 44.584L24.1676 46H22.4636ZM21.4316 44.8C21.6396 44.8 21.8596 44.76 22.0916 44.68V43.792H21.9956C21.4036 43.792 21.0756 43.824 21.0116 43.888C20.9716 43.928 20.9396 43.988 20.9156 44.068C20.8996 44.148 20.8916 44.224 20.8916 44.296C20.8916 44.488 20.9356 44.62 21.0236 44.692C21.1116 44.764 21.2476 44.8 21.4316 44.8ZM28.8621 40.36C29.4381 40.36 29.8941 40.552 30.2301 40.936C30.5741 41.312 30.7461 41.972 30.7461 42.916C30.7461 43.62 30.6781 44.196 30.5421 44.644C30.4061 45.084 30.2501 45.376 30.0741 45.52C29.8981 45.664 29.5901 45.78 29.1501 45.868C28.7181 45.956 28.2701 46 27.8061 46C27.6701 46 27.4421 45.992 27.1221 45.976V47.68L25.0701 47.764V40.48H26.7501L26.9541 41.332C27.1621 41.036 27.4261 40.8 27.7461 40.624C28.0741 40.448 28.4461 40.36 28.8621 40.36ZM28.3821 44.536C28.4701 44.472 28.5341 44.292 28.5741 43.996C28.6141 43.692 28.6341 43.404 28.6341 43.132C28.6341 42.684 28.5781 42.352 28.4661 42.136C28.3541 41.92 28.1301 41.812 27.7941 41.812C27.5541 41.812 27.3301 41.836 27.1221 41.884V44.548L27.4581 44.584C27.5621 44.592 27.7101 44.596 27.9021 44.596C28.1741 44.596 28.3341 44.576 28.3821 44.536ZM34.8986 44.56C35.0986 44.56 35.4706 44.54 36.0146 44.5C36.0866 44.5 36.2186 44.492 36.4106 44.476L36.5906 45.712C35.9746 46 35.1746 46.144 34.1906 46.144C33.2706 46.144 32.5626 45.912 32.0666 45.448C31.5786 44.984 31.3346 44.284 31.3346 43.348C31.3346 42.868 31.3946 42.404 31.5146 41.956C31.6426 41.508 31.7866 41.196 31.9466 41.02C32.1146 40.844 32.4266 40.692 32.8826 40.564C33.3386 40.436 33.7906 40.372 34.2386 40.372C34.9586 40.372 35.4986 40.5 35.8586 40.756C36.2186 41.012 36.4546 41.368 36.5666 41.824C36.6786 42.272 36.7346 42.876 36.7346 43.636C36.1906 43.668 35.6586 43.684 35.1386 43.684H33.4346C33.4346 43.94 33.4866 44.132 33.5906 44.26C33.7026 44.388 33.8586 44.472 34.0586 44.512C34.2586 44.544 34.5386 44.56 34.8986 44.56ZM33.5546 41.8C33.5066 41.824 33.4706 41.928 33.4466 42.112C33.4226 42.296 33.4066 42.504 33.3986 42.736H34.0226C34.3986 42.736 34.6706 42.732 34.8386 42.724C34.8386 42.34 34.7826 42.068 34.6706 41.908C34.5666 41.748 34.3826 41.668 34.1186 41.668C33.9026 41.668 33.7146 41.712 33.5546 41.8Z" fill="#A8DADC"/>
<path d="M7 69C7 61.064 13.0372 54.4305 20.9381 53.6851L60 50H62C72.4934 50 81 58.5066 81 69C81 79.4934 72.4934 88 62 88H60L20.9381 84.3149C13.0372 83.5695 7 76.936 7 69Z" fill="#36617C"/>
<path d="M82.8 94.42H80V89.52H76V94.42H73.2" stroke="#A8DADC" stroke-width="1.2" stroke-linecap="round" stroke-linejoin="round"/>
<path d="M50.8 94.42L49.4267 94.42M49.4267 94.42L45.4726 94.42M49.4267 94.42V91M45.4726 97V94.42M42.669 92.5V94.42M41.2 94.42L42.669 94.42M45.4726 94.42L42.669 94.42" stroke="#A8DADC" stroke-width="1.2" stroke-linecap="round" stroke-linejoin="round"/>
<path d="M57 43.8478C57 43.8478 58.1928 41.4772 59.5 41.5207C60.8072 41.5643 62 43.8478 62 43.8478C62 43.8478 63.3484 46.4233 64.5 46.4233C65.6516 46.4233 67 43.8478 67 43.8478" stroke="#A8DADC" stroke-width="1.2" stroke-linecap="round"/>
<rect x="8" y="118.804" width="30" height="66.1696" rx="15" fill="#36617C"/>
<path d="M20.3114 107.864C20.4394 108.056 20.5034 108.8 20.5034 110.096V113H18.4514V110.3V109.652C18.4514 109.356 18.4234 109.18 18.3674 109.124C18.3034 109.06 18.1674 109.028 17.9594 109.028L17.8154 109.04C17.5674 109.056 17.3314 109.112 17.1074 109.208C17.1154 109.376 17.1194 109.672 17.1194 110.096V113H15.0674V110.3V109.58C15.0674 109.332 15.0394 109.18 14.9834 109.124C14.9194 109.06 14.7834 109.028 14.5754 109.028L14.4314 109.04C14.2074 109.048 13.9754 109.1 13.7354 109.196V113H11.6834V107.48H13.3514L13.5674 108.38C13.8314 108.028 14.1354 107.772 14.4794 107.612C14.8234 107.444 15.1714 107.36 15.5234 107.36C15.8194 107.36 16.0994 107.404 16.3634 107.492C16.6354 107.58 16.8234 107.704 16.9274 107.864C16.9754 107.936 17.0154 108.068 17.0474 108.26C17.3034 107.948 17.5954 107.72 17.9234 107.576C18.2514 107.432 18.5794 107.36 18.9074 107.36C19.2034 107.36 19.4834 107.404 19.7474 107.492C20.0194 107.58 20.2074 107.704 20.3114 107.864ZM24.1208 113.156C23.1608 113.156 22.4408 112.932 21.9608 112.484C21.4888 112.028 21.2528 111.312 21.2528 110.336C21.2528 109.8 21.3008 109.332 21.3968 108.932C21.5008 108.524 21.6248 108.24 21.7688 108.08C21.9528 107.872 22.2888 107.7 22.7768 107.564C23.2728 107.428 23.7368 107.36 24.1688 107.36C25.2008 107.36 25.9368 107.58 26.3768 108.02C26.8168 108.46 27.0368 109.164 27.0368 110.132C27.0368 111.172 26.8008 111.936 26.3288 112.424C25.8568 112.912 25.1208 113.156 24.1208 113.156ZM24.1568 111.752C24.4688 111.752 24.6728 111.644 24.7688 111.428C24.8648 111.204 24.9128 110.812 24.9128 110.252C24.9128 109.86 24.8928 109.56 24.8528 109.352C24.8128 109.136 24.7368 108.98 24.6248 108.884C24.5208 108.78 24.3568 108.728 24.1328 108.728C23.8128 108.728 23.6288 108.756 23.5808 108.812C23.5168 108.868 23.4648 109.044 23.4248 109.34C23.3848 109.636 23.3648 109.944 23.3648 110.264C23.3648 110.808 23.4168 111.192 23.5208 111.416C23.6328 111.64 23.8448 111.752 24.1568 111.752ZM33.3161 105.716V113H31.6241L31.4561 112.076C31.2961 112.388 31.0601 112.636 30.7481 112.82C30.4361 113.004 30.0841 113.096 29.6921 113.096C29.0681 113.096 28.5681 112.872 28.1921 112.424C27.8241 111.976 27.6401 111.304 27.6401 110.408C27.6401 109.728 27.7201 109.168 27.8801 108.728C28.0401 108.288 28.2281 107.972 28.4441 107.78C28.5801 107.66 28.8561 107.56 29.2721 107.48C29.6961 107.4 30.0721 107.36 30.4001 107.36C30.6881 107.36 30.9841 107.388 31.2881 107.444C31.2641 107.06 31.2521 106.848 31.2521 106.808V105.8L33.3161 105.716ZM30.5921 111.488C30.8081 111.488 31.0321 111.452 31.2641 111.38V108.776C31.0321 108.744 30.7761 108.728 30.4961 108.728C30.2561 108.728 30.1041 108.748 30.0401 108.788C29.9521 108.852 29.8801 109.036 29.8241 109.34C29.7761 109.636 29.7521 109.948 29.7521 110.276C29.7521 110.764 29.8241 111.088 29.9681 111.248C30.1201 111.408 30.3281 111.488 30.5921 111.488Z" fill="#A8DADC"/>
<path d="M57.5814 143.75H54.9894L53.7654 138.23H55.8654L56.4054 142.334H56.4414L57.0534 138.23H59.2734L59.9214 142.322H59.9694L60.4734 138.23H62.5854L61.3614 143.75H58.7574L58.1814 140.414H58.1454L57.5814 143.75ZM66.1101 143.75L65.9181 142.994C65.5501 143.594 65.0381 143.894 64.3821 143.894C63.8461 143.894 63.4061 143.746 63.0621 143.45C62.7261 143.146 62.5581 142.722 62.5581 142.178C62.5581 141.842 62.6541 141.55 62.8461 141.302C63.0461 141.046 63.3181 140.866 63.6621 140.762C64.1101 140.634 64.8021 140.562 65.7381 140.546C65.7381 140.018 65.7141 139.738 65.6661 139.706C65.6261 139.674 65.4981 139.658 65.2821 139.658C65.1461 139.658 64.9581 139.666 64.7181 139.682C64.3341 139.698 63.8141 139.742 63.1581 139.814C63.0941 139.382 63.0461 138.918 63.0141 138.422C63.4381 138.334 63.8821 138.262 64.3461 138.206C64.8101 138.142 65.2261 138.11 65.5941 138.11C66.2341 138.11 66.7141 138.218 67.0341 138.434C67.3541 138.642 67.5621 138.918 67.6581 139.262C67.7541 139.606 67.7981 140.042 67.7901 140.57L67.7781 142.334L67.8141 143.75H66.1101ZM65.0781 142.55C65.2861 142.55 65.5061 142.51 65.7381 142.43V141.542H65.6421C65.0501 141.542 64.7221 141.574 64.6581 141.638C64.6181 141.678 64.5861 141.738 64.5621 141.818C64.5461 141.898 64.5381 141.974 64.5381 142.046C64.5381 142.238 64.5821 142.37 64.6701 142.442C64.7581 142.514 64.8941 142.55 65.0781 142.55ZM72.2686 138.23H74.4166L72.7366 143.75H69.8926L68.2126 138.23H70.3606L71.2606 142.466H71.3806L72.2686 138.23ZM78.2404 142.31C78.4404 142.31 78.8124 142.29 79.3564 142.25C79.4284 142.25 79.5604 142.242 79.7524 142.226L79.9324 143.462C79.3164 143.75 78.5164 143.894 77.5324 143.894C76.6124 143.894 75.9044 143.662 75.4084 143.198C74.9204 142.734 74.6764 142.034 74.6764 141.098C74.6764 140.618 74.7364 140.154 74.8564 139.706C74.9844 139.258 75.1284 138.946 75.2884 138.77C75.4564 138.594 75.7684 138.442 76.2244 138.314C76.6804 138.186 77.1324 138.122 77.5804 138.122C78.3004 138.122 78.8404 138.25 79.2004 138.506C79.5604 138.762 79.7964 139.118 79.9084 139.574C80.0204 140.022 80.0764 140.626 80.0764 141.386C79.5324 141.418 79.0004 141.434 78.4804 141.434H76.7764C76.7764 141.69 76.8284 141.882 76.9324 142.01C77.0444 142.138 77.2004 142.222 77.4004 142.262C77.6004 142.294 77.8804 142.31 78.2404 142.31ZM76.8964 139.55C76.8484 139.574 76.8124 139.678 76.7884 139.862C76.7644 140.046 76.7484 140.254 76.7404 140.486H77.3644C77.7404 140.486 78.0124 140.482 78.1804 140.474C78.1804 140.09 78.1244 139.818 78.0124 139.658C77.9084 139.498 77.7244 139.418 77.4604 139.418C77.2444 139.418 77.0564 139.462 76.8964 139.55ZM64.8114 148.614C64.9394 148.806 65.0034 149.55 65.0034 150.846V153.75H62.9514V151.05V150.402C62.9514 150.106 62.9234 149.93 62.8674 149.874C62.8034 149.81 62.6674 149.778 62.4594 149.778L62.3154 149.79C62.0674 149.806 61.8314 149.862 61.6074 149.958C61.6154 150.126 61.6194 150.422 61.6194 150.846V153.75H59.5674V151.05V150.33C59.5674 150.082 59.5394 149.93 59.4834 149.874C59.4194 149.81 59.2834 149.778 59.0754 149.778L58.9314 149.79C58.7074 149.798 58.4754 149.85 58.2354 149.946V153.75H56.1834V148.23H57.8514L58.0674 149.13C58.3314 148.778 58.6354 148.522 58.9794 148.362C59.3234 148.194 59.6714 148.11 60.0234 148.11C60.3194 148.11 60.5994 148.154 60.8634 148.242C61.1354 148.33 61.3234 148.454 61.4274 148.614C61.4754 148.686 61.5154 148.818 61.5474 149.01C61.8034 148.698 62.0954 148.47 62.4234 148.326C62.7514 148.182 63.0794 148.11 63.4074 148.11C63.7034 148.11 63.9834 148.154 64.2474 148.242C64.5194 148.33 64.7074 148.454 64.8114 148.614ZM68.6208 153.906C67.6608 153.906 66.9408 153.682 66.4608 153.234C65.9888 152.778 65.7528 152.062 65.7528 151.086C65.7528 150.55 65.8008 150.082 65.8968 149.682C66.0008 149.274 66.1248 148.99 66.2688 148.83C66.4528 148.622 66.7888 148.45 67.2768 148.314C67.7728 148.178 68.2368 148.11 68.6688 148.11C69.7008 148.11 70.4368 148.33 70.8768 148.77C71.3168 149.21 71.5368 149.914 71.5368 150.882C71.5368 151.922 71.3008 152.686 70.8288 153.174C70.3568 153.662 69.6208 153.906 68.6208 153.906ZM68.6568 152.502C68.9688 152.502 69.1728 152.394 69.2688 152.178C69.3648 151.954 69.4128 151.562 69.4128 151.002C69.4128 150.61 69.3928 150.31 69.3528 150.102C69.3128 149.886 69.2368 149.73 69.1248 149.634C69.0208 149.53 68.8568 149.478 68.6328 149.478C68.3128 149.478 68.1288 149.506 68.0808 149.562C68.0168 149.618 67.9648 149.794 67.9248 150.09C67.8848 150.386 67.8648 150.694 67.8648 151.014C67.8648 151.558 67.9168 151.942 68.0208 152.166C68.1328 152.39 68.3448 152.502 68.6568 152.502ZM77.8161 146.466V153.75H76.1241L75.9561 152.826C75.7961 153.138 75.5601 153.386 75.2481 153.57C74.9361 153.754 74.5841 153.846 74.1921 153.846C73.5681 153.846 73.0681 153.622 72.6921 153.174C72.3241 152.726 72.1401 152.054 72.1401 151.158C72.1401 150.478 72.2201 149.918 72.3801 149.478C72.5401 149.038 72.7281 148.722 72.9441 148.53C73.0801 148.41 73.3561 148.31 73.7721 148.23C74.1961 148.15 74.5721 148.11 74.9001 148.11C75.1881 148.11 75.4841 148.138 75.7881 148.194C75.7641 147.81 75.7521 147.598 75.7521 147.558V146.55L77.8161 146.466ZM75.0921 152.238C75.3081 152.238 75.5321 152.202 75.7641 152.13V149.526C75.5321 149.494 75.2761 149.478 74.9961 149.478C74.7561 149.478 74.6041 149.498 74.5401 149.538C74.4521 149.602 74.3801 149.786 74.3241 150.09C74.2761 150.386 74.2521 150.698 74.2521 151.026C74.2521 151.514 74.3241 151.838 74.4681 151.998C74.6201 152.158 74.8281 152.238 75.0921 152.238Z" fill="#A8DADC"/>
</svg>
