<svg width="60" height="380" viewBox="0 0 60 380" fill="none" xmlns="http://www.w3.org/2000/svg">
<g clip-path="url(#clip0)">
<rect width="60" height="380" fill="#457B9D"/>
<g opacity="0.3">
<path fill-rule="evenodd" clip-rule="evenodd" d="M23.958 375.599C23.803 375.747 23.659 375.851 23.526 375.909C23.393 375.968 23.251 375.998 23.1 375.998C22.948 375.998 22.806 375.97 22.673 375.914C22.54 375.858 22.424 375.781 22.325 375.682C22.109 375.466 22 375.209 22 374.912V369.385C22 369.082 22.078 368.847 22.232 368.68C22.498 368.408 22.75 368.272 22.988 368.272C23.226 368.272 23.404 368.296 23.522 368.346C23.639 368.395 23.738 368.457 23.818 368.531C23.924 368.624 24.002 368.723 24.055 368.828C24.108 368.933 24.151 369.011 24.185 369.06C24.219 369.11 24.275 369.134 24.352 369.134C24.429 369.134 24.496 369.11 24.551 369.06L24.709 368.902C25.16 368.482 25.612 368.272 26.063 368.272C26.861 368.272 27.519 368.599 28.039 369.255C28.088 369.323 28.15 369.357 28.224 369.357C28.354 369.357 28.486 369.256 28.619 369.055C28.752 368.854 28.966 368.674 29.263 368.513C29.56 368.352 29.906 368.272 30.302 368.272C30.698 368.272 31.058 368.344 31.383 368.49C31.707 368.635 31.99 368.834 32.231 369.088C32.738 369.62 32.992 370.263 32.992 371.017V374.912C32.992 375.382 32.769 375.713 32.324 375.905C32.188 375.967 32.044 375.998 31.893 375.998C31.741 375.998 31.599 375.97 31.466 375.914C31.333 375.858 31.217 375.781 31.118 375.682C30.908 375.46 30.803 375.203 30.803 374.912V371.045C30.803 370.736 30.726 370.504 30.571 370.349C30.299 370.077 30.049 369.941 29.82 369.941C29.591 369.941 29.412 369.971 29.282 370.029C29.152 370.088 29.034 370.17 28.929 370.275C28.713 370.492 28.605 370.742 28.605 371.026V374.912C28.605 375.382 28.385 375.713 27.946 375.905C27.81 375.967 27.666 375.998 27.515 375.998C27.363 375.998 27.22 375.97 27.083 375.914C26.947 375.858 26.83 375.781 26.731 375.682C26.515 375.466 26.406 375.209 26.406 374.912V371.045C26.406 370.736 26.329 370.504 26.174 370.349C25.902 370.077 25.618 369.941 25.321 369.941C24.826 369.941 24.483 370.133 24.292 370.516C24.23 370.64 24.199 370.779 24.199 370.934V374.912C24.199 375.215 24.118 375.444 23.958 375.599ZM35.219 369.387C35.219 369.084 35.296 368.849 35.451 368.682C35.716 368.41 36.01 368.274 36.332 368.274C36.641 368.274 36.87 368.355 37.018 368.515C37.29 368.794 37.426 369.084 37.426 369.387V374.915C37.426 375.212 37.349 375.437 37.194 375.592C36.922 375.864 36.672 376 36.443 376C36.214 376 36.032 375.971 35.896 375.912C35.76 375.853 35.642 375.777 35.543 375.685C35.327 375.474 35.219 375.218 35.219 374.915V369.387ZM36.327 365.9C36.065 365.9 35.852 365.687 35.852 365.425C35.852 365.162 36.065 364.95 36.327 364.95C36.589 364.95 36.802 365.162 36.802 365.425C36.802 365.687 36.589 365.9 36.327 365.9ZM36.327 364C36.714 364 37.048 364.142 37.329 364.425C37.611 364.709 37.752 364.996 37.752 365.287C37.752 365.577 37.713 365.807 37.635 365.978C37.558 366.148 37.456 366.297 37.329 366.424C37.048 366.708 36.714 366.849 36.327 366.849C35.94 366.849 35.606 366.708 35.324 366.424C35.043 366.141 34.902 365.857 34.902 365.574C34.902 365.092 35.043 364.709 35.324 364.425C35.606 364.142 35.94 364 36.327 364Z" fill="#1D3557"/>
</g>
<path d="M7.35518 21.9974C6.95184 21.9974 6.58518 21.9204 6.25518 21.7664C5.92518 21.605 5.64284 21.3704 5.40818 21.0624C5.17351 20.7544 4.99018 20.373 4.85818 19.9184C4.73351 19.4637 4.67118 18.9394 4.67118 18.3454C4.67118 17.7514 4.73351 17.2307 4.85818 16.7834C4.99018 16.336 5.17351 15.962 5.40818 15.6614C5.64284 15.3534 5.92518 15.126 6.25518 14.9794C6.58518 14.8254 6.95184 14.7484 7.35518 14.7484C7.75851 14.7484 8.12518 14.8254 8.45518 14.9794C8.78518 15.126 9.06751 15.3534 9.30218 15.6614C9.53684 15.962 9.71651 16.336 9.84118 16.7834C9.97318 17.2307 10.0392 17.7514 10.0392 18.3454C10.0392 18.9394 9.97318 19.4637 9.84118 19.9184C9.71651 20.373 9.53684 20.7544 9.30218 21.0624C9.06751 21.3704 8.78518 21.605 8.45518 21.7664C8.12518 21.9204 7.75851 21.9974 7.35518 21.9974ZM7.35518 20.7434C7.53118 20.7434 7.69251 20.703 7.83918 20.6224C7.99318 20.5417 8.12518 20.4097 8.23518 20.2264C8.34518 20.0357 8.43318 19.79 8.49918 19.4894C8.56518 19.1814 8.59818 18.8 8.59818 18.3454C8.59818 17.8907 8.56518 17.513 8.49918 17.2124C8.43318 16.9117 8.34518 16.6734 8.23518 16.4974C8.12518 16.314 7.99318 16.1857 7.83918 16.1124C7.69251 16.039 7.53118 16.0024 7.35518 16.0024C7.17918 16.0024 7.01418 16.039 6.86018 16.1124C6.71351 16.1857 6.58518 16.314 6.47518 16.4974C6.36518 16.6734 6.27718 16.9117 6.21118 17.2124C6.14518 17.513 6.11218 17.8907 6.11218 18.3454C6.11218 18.8 6.14518 19.1814 6.21118 19.4894C6.27718 19.79 6.36518 20.0357 6.47518 20.2264C6.58518 20.4097 6.71351 20.5417 6.86018 20.6224C7.01418 20.703 7.17918 20.7434 7.35518 20.7434ZM7.35518 19.1594C7.12051 19.1594 6.92251 19.086 6.76118 18.9394C6.60718 18.7854 6.53018 18.58 6.53018 18.3234C6.53018 18.0667 6.60718 17.865 6.76118 17.7184C6.92251 17.5644 7.12051 17.4874 7.35518 17.4874C7.58984 17.4874 7.78418 17.5644 7.93818 17.7184C8.09951 17.865 8.18018 18.0667 8.18018 18.3234C8.18018 18.58 8.09951 18.7854 7.93818 18.9394C7.78418 19.086 7.58984 19.1594 7.35518 19.1594ZM16.1179 21.6564C15.8465 21.7737 15.5312 21.858 15.1719 21.9094C14.8125 21.9607 14.4789 21.9864 14.1709 21.9864C13.1735 21.9864 12.3925 21.726 11.8279 21.2054C11.2632 20.6847 10.9809 19.8854 10.9809 18.8074C10.9809 17.7074 11.2779 16.886 11.8719 16.3434C12.4659 15.7934 13.3019 15.5184 14.3799 15.5184C14.8932 15.5184 15.4285 15.588 15.9859 15.7274C15.9859 15.874 15.9712 16.094 15.9419 16.3874C15.9125 16.6734 15.8832 16.875 15.8539 16.9924H15.1609C14.6549 16.9924 14.2552 17.0034 13.9619 17.0254C13.6759 17.04 13.5035 17.073 13.4449 17.1244C13.3349 17.227 13.2505 17.436 13.1919 17.7514C13.1332 18.0594 13.1039 18.3564 13.1039 18.6424C13.1039 19.141 13.1662 19.526 13.2909 19.7974C13.4155 20.0614 13.5732 20.2374 13.7639 20.3254C13.9472 20.4134 14.2515 20.4574 14.6769 20.4574C15.0142 20.4574 15.4542 20.428 15.9969 20.3694L16.1179 21.6564ZM21.0205 15.5954H23.1105L21.4165 21.8654H18.5455L16.8405 15.5954H18.9415L19.9535 20.5014H20.0085L21.0205 15.5954ZM30.614 21.2754V19.4754H24.174V18.2554H30.614V16.4554L33.194 18.8654L30.614 21.2754ZM37.542 21.8654H35.562V16.9704H33.791V15.5954H39.313V16.9704H37.542V21.8654ZM46.2054 21.8654H44.1264L43.7524 20.2814C43.7377 20.2227 43.7121 20.1237 43.6754 19.9844C43.6461 19.8377 43.6094 19.7314 43.5654 19.6654C43.5214 19.592 43.4591 19.5444 43.3784 19.5224C43.1731 19.5297 42.8724 19.5334 42.4764 19.5334V21.8654H40.4964V15.6504C41.3837 15.5844 42.2124 15.5514 42.9824 15.5514C43.6791 15.5514 44.2437 15.61 44.6764 15.7274C45.1091 15.8374 45.4317 16.0317 45.6444 16.3104C45.8644 16.5817 45.9744 16.9557 45.9744 17.4324C45.9744 17.8797 45.8717 18.2317 45.6664 18.4884C45.4611 18.7377 45.1311 18.888 44.6764 18.9394V19.0054C44.9331 19.0274 45.1457 19.1117 45.3144 19.2584C45.4904 19.3977 45.6077 19.5774 45.6664 19.7974L46.2054 21.8654ZM42.4764 18.2904C42.5424 18.2977 42.6707 18.3014 42.8614 18.3014C43.4261 18.3014 43.7561 18.2537 43.8514 18.1584C43.9394 18.0704 43.9834 17.865 43.9834 17.5424C43.9834 17.2417 43.9027 17.0364 43.7414 16.9264C43.5874 16.8164 43.3307 16.7614 42.9714 16.7614C42.8907 16.7614 42.7257 16.7687 42.4764 16.7834V18.2904ZM47.4382 15.5954H49.4182V21.8654H47.4382V15.5954ZM56.5597 18.3894V21.5244C56.0684 21.6857 55.6027 21.803 55.1627 21.8764C54.7227 21.9497 54.3524 21.9864 54.0517 21.9864C53.0544 21.9864 52.2734 21.726 51.7087 21.2054C51.1441 20.6847 50.8617 19.8854 50.8617 18.8074C50.8617 17.7074 51.1587 16.886 51.7527 16.3434C52.3467 15.7934 53.1827 15.5184 54.2607 15.5184C54.8254 15.5184 55.5037 15.6027 56.2957 15.7714C56.2957 15.918 56.2811 16.138 56.2517 16.4314C56.2224 16.7174 56.1931 16.919 56.1637 17.0364L55.7677 17.0254C55.2837 17.0107 54.9061 17.0034 54.6347 17.0034C53.8207 17.0034 53.3771 17.051 53.3037 17.1464C53.1864 17.2857 53.1021 17.502 53.0507 17.7954C53.0067 18.0887 52.9847 18.371 52.9847 18.6424C52.9847 19.1337 53.0397 19.515 53.1497 19.7864C53.2597 20.0577 53.4284 20.2484 53.6557 20.3584C53.8831 20.4684 54.1911 20.5234 54.5797 20.5234H54.6237V18.3894H56.5597Z" fill="white"/>
<path d="M12.3291 326V321.688H13.877V320.668H9.47266V321.688H11.0205V326H12.3291ZM17.8828 320.668H15.5293V326H16.8135V324.081H17.6387L18.6006 326H20.0508L18.9277 323.905C19.416 323.725 19.9434 323.188 19.9434 322.406C19.9434 321.337 19.1816 320.668 17.8828 320.668ZM16.8135 323.183V321.62H17.6924C18.2197 321.62 18.5908 321.898 18.5908 322.416C18.5908 322.929 18.2295 323.183 17.6777 323.183H16.8135ZM23.1094 326V320.668H21.8008V326H23.1094ZM29.752 322.421C29.7178 321.425 28.9023 320.57 27.4521 320.57C25.8604 320.57 24.9717 321.562 24.9717 322.992V323.642C24.9717 325.062 25.748 326.098 27.4375 326.098C28.9316 326.098 29.7568 325.209 29.7568 324.12V323.08H27.501V323.974H28.5215V324.213C28.5215 324.677 28.126 325.072 27.457 325.072C26.6221 325.072 26.29 324.472 26.29 323.637V323.007C26.29 322.133 26.6904 321.601 27.4424 321.601C28.0576 321.601 28.4287 321.967 28.4824 322.421H29.752ZM36.6211 326.098C38.208 326.098 39.1113 325.126 39.1113 323.637V323.036C39.1113 321.542 38.2031 320.57 36.6162 320.57C35.0342 320.57 34.126 321.537 34.126 323.036V323.637C34.126 325.126 35.0391 326.098 36.6211 326.098ZM36.6211 325.077C35.8936 325.077 35.459 324.535 35.459 323.642V323.021C35.459 322.128 35.8936 321.591 36.6211 321.591C37.3438 321.591 37.7783 322.128 37.7783 323.021V323.642C37.7783 324.535 37.3438 325.077 36.6211 325.077ZM43.2588 325.048C42.6484 325.048 42.2236 324.687 42.2236 323.998V320.668H40.9102V324.145C40.9102 325.336 41.8135 326.098 43.2588 326.098C44.7041 326.098 45.6074 325.331 45.6074 324.145V320.668H44.2988V323.998C44.2988 324.682 43.8691 325.048 43.2588 325.048ZM49.9795 326V321.688H51.5273V320.668H47.123V321.688H48.6709V326H49.9795Z" fill="white"/>
<path d="M12.3291 244V239.688H13.877V238.668H9.47266V239.688H11.0205V244H12.3291ZM17.8828 238.668H15.5293V244H16.8135V242.081H17.6387L18.6006 244H20.0508L18.9277 241.905C19.416 241.725 19.9434 241.188 19.9434 240.406C19.9434 239.337 19.1816 238.668 17.8828 238.668ZM16.8135 241.183V239.62H17.6924C18.2197 239.62 18.5908 239.898 18.5908 240.416C18.5908 240.929 18.2295 241.183 17.6777 241.183H16.8135ZM23.1094 244V238.668H21.8008V244H23.1094ZM29.752 240.421C29.7178 239.425 28.9023 238.57 27.4521 238.57C25.8604 238.57 24.9717 239.562 24.9717 240.992V241.642C24.9717 243.062 25.748 244.098 27.4375 244.098C28.9316 244.098 29.7568 243.209 29.7568 242.12V241.08H27.501V241.974H28.5215V242.213C28.5215 242.677 28.126 243.072 27.457 243.072C26.6221 243.072 26.29 242.472 26.29 241.637V241.007C26.29 240.133 26.6904 239.601 27.4424 239.601C28.0576 239.601 28.4287 239.967 28.4824 240.421H29.752ZM36.6211 244.098C38.208 244.098 39.1113 243.126 39.1113 241.637V241.036C39.1113 239.542 38.2031 238.57 36.6162 238.57C35.0342 238.57 34.126 239.537 34.126 241.036V241.637C34.126 243.126 35.0391 244.098 36.6211 244.098ZM36.6211 243.077C35.8936 243.077 35.459 242.535 35.459 241.642V241.021C35.459 240.128 35.8936 239.591 36.6211 239.591C37.3438 239.591 37.7783 240.128 37.7783 241.021V241.642C37.7783 242.535 37.3438 243.077 36.6211 243.077ZM43.2588 243.048C42.6484 243.048 42.2236 242.687 42.2236 241.998V238.668H40.9102V242.145C40.9102 243.336 41.8135 244.098 43.2588 244.098C44.7041 244.098 45.6074 243.331 45.6074 242.145V238.668H44.2988V241.998C44.2988 242.682 43.8691 243.048 43.2588 243.048ZM49.9795 244V239.688H51.5273V238.668H47.123V239.688H48.6709V244H49.9795Z" fill="white"/>
<path d="M12.3291 162V157.688H13.877V156.668H9.47266V157.688H11.0205V162H12.3291ZM17.8828 156.668H15.5293V162H16.8135V160.081H17.6387L18.6006 162H20.0508L18.9277 159.905C19.416 159.725 19.9434 159.188 19.9434 158.406C19.9434 157.337 19.1816 156.668 17.8828 156.668ZM16.8135 159.183V157.62H17.6924C18.2197 157.62 18.5908 157.898 18.5908 158.416C18.5908 158.929 18.2295 159.183 17.6777 159.183H16.8135ZM23.1094 162V156.668H21.8008V162H23.1094ZM29.752 158.421C29.7178 157.425 28.9023 156.57 27.4521 156.57C25.8604 156.57 24.9717 157.562 24.9717 158.992V159.642C24.9717 161.062 25.748 162.098 27.4375 162.098C28.9316 162.098 29.7568 161.209 29.7568 160.12V159.08H27.501V159.974H28.5215V160.213C28.5215 160.677 28.126 161.072 27.457 161.072C26.6221 161.072 26.29 160.472 26.29 159.637V159.007C26.29 158.133 26.6904 157.601 27.4424 157.601C28.0576 157.601 28.4287 157.967 28.4824 158.421H29.752ZM36.6211 162.098C38.208 162.098 39.1113 161.126 39.1113 159.637V159.036C39.1113 157.542 38.2031 156.57 36.6162 156.57C35.0342 156.57 34.126 157.537 34.126 159.036V159.637C34.126 161.126 35.0391 162.098 36.6211 162.098ZM36.6211 161.077C35.8936 161.077 35.459 160.535 35.459 159.642V159.021C35.459 158.128 35.8936 157.591 36.6211 157.591C37.3438 157.591 37.7783 158.128 37.7783 159.021V159.642C37.7783 160.535 37.3438 161.077 36.6211 161.077ZM43.2588 161.048C42.6484 161.048 42.2236 160.687 42.2236 159.998V156.668H40.9102V160.145C40.9102 161.336 41.8135 162.098 43.2588 162.098C44.7041 162.098 45.6074 161.331 45.6074 160.145V156.668H44.2988V159.998C44.2988 160.682 43.8691 161.048 43.2588 161.048ZM49.9795 162V157.688H51.5273V156.668H47.123V157.688H48.6709V162H49.9795Z" fill="white"/>
<path d="M12.3291 80V75.6885H13.877V74.668H9.47266V75.6885H11.0205V80H12.3291ZM17.8828 74.668H15.5293V80H16.8135V78.0811H17.6387L18.6006 80H20.0508L18.9277 77.9053C19.416 77.7246 19.9434 77.1875 19.9434 76.4062C19.9434 75.3369 19.1816 74.668 17.8828 74.668ZM16.8135 77.1826V75.6201H17.6924C18.2197 75.6201 18.5908 75.8984 18.5908 76.416C18.5908 76.9287 18.2295 77.1826 17.6777 77.1826H16.8135ZM23.1094 80V74.668H21.8008V80H23.1094ZM29.752 76.4209C29.7178 75.4248 28.9023 74.5703 27.4521 74.5703C25.8604 74.5703 24.9717 75.5615 24.9717 76.9922V77.6416C24.9717 79.0625 25.748 80.0977 27.4375 80.0977C28.9316 80.0977 29.7568 79.209 29.7568 78.1201V77.0801H27.501V77.9736H28.5215V78.2129C28.5215 78.6768 28.126 79.0723 27.457 79.0723C26.6221 79.0723 26.29 78.4717 26.29 77.6367V77.0068C26.29 76.1328 26.6904 75.6006 27.4424 75.6006C28.0576 75.6006 28.4287 75.9668 28.4824 76.4209H29.752ZM36.6211 80.0977C38.208 80.0977 39.1113 79.126 39.1113 77.6367V77.0361C39.1113 75.542 38.2031 74.5703 36.6162 74.5703C35.0342 74.5703 34.126 75.5371 34.126 77.0361V77.6367C34.126 79.126 35.0391 80.0977 36.6211 80.0977ZM36.6211 79.0771C35.8936 79.0771 35.459 78.5352 35.459 77.6416V77.0215C35.459 76.1279 35.8936 75.5908 36.6211 75.5908C37.3438 75.5908 37.7783 76.1279 37.7783 77.0215V77.6416C37.7783 78.5352 37.3438 79.0771 36.6211 79.0771ZM43.2588 79.0479C42.6484 79.0479 42.2236 78.6865 42.2236 77.998V74.668H40.9102V78.1445C40.9102 79.3359 41.8135 80.0977 43.2588 80.0977C44.7041 80.0977 45.6074 79.3311 45.6074 78.1445V74.668H44.2988V77.998C44.2988 78.6816 43.8691 79.0479 43.2588 79.0479ZM49.9795 80V75.6885H51.5273V74.668H47.123V75.6885H48.6709V80H49.9795Z" fill="white"/>
<path d="M19.9443 37.041C19.9443 36.1279 20.335 35.6055 21.0381 35.6055C21.6582 35.6055 22.0684 36.0254 22.0684 36.6309H23.3232V36.4893C23.3232 35.3223 22.3467 34.5703 21.0283 34.5703C19.4902 34.5703 18.6113 35.5371 18.6113 37.041V37.6416C18.6113 39.1357 19.4902 40.0977 21.0283 40.0977C22.332 40.0977 23.3232 39.3701 23.3232 38.2227V38.0762H22.0684C22.0684 38.6523 21.6582 39.0674 21.0332 39.0674C20.335 39.0674 19.9443 38.5449 19.9443 37.6465V37.041ZM28.0615 40L29.8584 34.668H28.4082L27.3096 38.6719H27.2461L26.1328 34.668H24.6143L26.4355 40H28.0615ZM35.4385 40V34.668H34.1299V40H35.4385ZM38.751 40V36.7529H38.7998L41.1143 40H42.1543V34.668H40.9287V37.8857H40.8799L38.5752 34.668H37.5303V40H38.751Z" fill="white"/>
<path d="M19.9443 119.041C19.9443 118.128 20.335 117.605 21.0381 117.605C21.6582 117.605 22.0684 118.025 22.0684 118.631H23.3232V118.489C23.3232 117.322 22.3467 116.57 21.0283 116.57C19.4902 116.57 18.6113 117.537 18.6113 119.041V119.642C18.6113 121.136 19.4902 122.098 21.0283 122.098C22.332 122.098 23.3232 121.37 23.3232 120.223V120.076H22.0684C22.0684 120.652 21.6582 121.067 21.0332 121.067C20.335 121.067 19.9443 120.545 19.9443 119.646V119.041ZM28.0615 122L29.8584 116.668H28.4082L27.3096 120.672H27.2461L26.1328 116.668H24.6143L26.4355 122H28.0615ZM35.4385 122V116.668H34.1299V122H35.4385ZM38.751 122V118.753H38.7998L41.1143 122H42.1543V116.668H40.9287V119.886H40.8799L38.5752 116.668H37.5303V122H38.751Z" fill="white"/>
<path d="M19.9443 201.041C19.9443 200.128 20.335 199.605 21.0381 199.605C21.6582 199.605 22.0684 200.025 22.0684 200.631H23.3232V200.489C23.3232 199.322 22.3467 198.57 21.0283 198.57C19.4902 198.57 18.6113 199.537 18.6113 201.041V201.642C18.6113 203.136 19.4902 204.098 21.0283 204.098C22.332 204.098 23.3232 203.37 23.3232 202.223V202.076H22.0684C22.0684 202.652 21.6582 203.067 21.0332 203.067C20.335 203.067 19.9443 202.545 19.9443 201.646V201.041ZM28.0615 204L29.8584 198.668H28.4082L27.3096 202.672H27.2461L26.1328 198.668H24.6143L26.4355 204H28.0615ZM35.4385 204V198.668H34.1299V204H35.4385ZM38.751 204V200.753H38.7998L41.1143 204H42.1543V198.668H40.9287V201.886H40.8799L38.5752 198.668H37.5303V204H38.751Z" fill="white"/>
<path d="M19.9443 283.041C19.9443 282.128 20.335 281.605 21.0381 281.605C21.6582 281.605 22.0684 282.025 22.0684 282.631H23.3232V282.489C23.3232 281.322 22.3467 280.57 21.0283 280.57C19.4902 280.57 18.6113 281.537 18.6113 283.041V283.642C18.6113 285.136 19.4902 286.098 21.0283 286.098C22.332 286.098 23.3232 285.37 23.3232 284.223V284.076H22.0684C22.0684 284.652 21.6582 285.067 21.0332 285.067C20.335 285.067 19.9443 284.545 19.9443 283.646V283.041ZM28.0615 286L29.8584 280.668H28.4082L27.3096 284.672H27.2461L26.1328 280.668H24.6143L26.4355 286H28.0615ZM35.4385 286V280.668H34.1299V286H35.4385ZM38.751 286V282.753H38.7998L41.1143 286H42.1543V280.668H40.9287V283.886H40.8799L38.5752 280.668H37.5303V286H38.751Z" fill="white"/>
<path opacity="0.5" d="M0 113H60" stroke="#1D3557"/>
<path opacity="0.5" d="M0 195H60" stroke="#1D3557"/>
<path opacity="0.5" d="M0 277H60" stroke="#1D3557"/>
</g>
<defs>
<clipPath id="clip0">
<rect width="60" height="380" fill="white"/>
</clipPath>
</defs>
</svg>
